999
dxfrw 0.6.3
  0
SECTION
  2
HEADER
  9
$ACADVER
  1
AC1021
  9
$DWGCODEPAGE
  3
ANSI_1252
  9
$INSBASE
 10
0
 20
0
 30
0
  9
$EXTMIN
 10
-16.01826519766882
 20
-21.00000000000003
 30
0
  9
$EXTMAX
 10
14.85640646055101
 20
-2.199999999999982
 30
0
  9
$LIMMIN
 10
0
 20
0
  9
$LIMMAX
 10
420
 20
297
  9
$ORTHOMODE
 70
    0
  9
$REGENMODE
 70
    1
  9
$FILLMODE
 70
    1
  9
$QTEXTMODE
 70
    0
  9
$MIRRTEXT
 70
    0
  9
$LTSCALE
 40
1
  9
$ATTMODE
 70
    0
  9
$TEXTSIZE
 40
2.5
  9
$TRACEWID
 40
15.68
  9
$TEXTSTYLE
  7
STANDARD
  9
$CLAYER
  8
Connection_and_Part
  9
$CELTYPE
  6
BYLAYER
  9
$CECOLOR
 62
  256
  9
$CELTSCALE
 40
1
  9
$DISPSILH
 70
    0
  9
$DIMSCALE
 40
2.5
  9
$DIMASZ
 40
2.5
  9
$DIMEXO
 40
0.625
  9
$DIMDLI
 40
3.75
  9
$DIMRND
 40
0
  9
$DIMDLE
 40
0
  9
$DIMEXE
 40
1.25
  9
$DIMTP
 40
0
  9
$DIMTM
 40
0
  9
$DIMTXT
 40
2.5
  9
$DIMCEN
 40
2.5
  9
$DIMTSZ
 40
0
  9
$DIMTOL
 70
    0
  9
$DIMLIM
 70
    0
  9
$DIMTIH
 70
    0
  9
$DIMTOH
 70
    0
  9
$DIMSE1
 70
    0
  9
$DIMSE2
 70
    0
  9
$DIMTAD
 70
    1
  9
$DIMZIN
 70
    8
  9
$DIMBLK
  1

  9
$DIMASO
 70
    1
  9
$DIMSHO
 70
    1
  9
$DIMPOST
  1

  9
$DIMAPOST
  1

  9
$DIMALT
 70
    0
  9
$DIMALTD
 70
    3
  9
$DIMALTF
 40
0.03937
  9
$DIMLFAC
 40
1
  9
$DIMTOFL
 70
    1
  9
$DIMTVP
 40
0
  9
$DIMTIX
 70
    0
  9
$DIMSOXD
 70
    0
  9
$DIMSAH
 70
    0
  9
$DIMBLK1
  1

  9
$DIMBLK2
  1

  9
$DIMSTYLE
  2
STANDARD
  9
$DIMCLRD
 70
    0
  9
$DIMCLRE
 70
    0
  9
$DIMCLRT
 70
    0
  9
$DIMTFAC
 40
1
  9
$DIMGAP
 40
0.625
  9
$DIMJUST
 70
    0
  9
$DIMSD1
 70
    0
  9
$DIMSD2
 70
    0
  9
$DIMTOLJ
 70
    0
  9
$DIMTZIN
 70
    8
  9
$DIMALTZ
 70
    0
  9
$DIMALTTZ
 70
    0
  9
$DIMUPT
 70
    0
  9
$DIMDEC
 70
    2
  9
$DIMTDEC
 70
    2
  9
$DIMALTU
 70
    2
  9
$DIMALTTD
 70
    3
  9
$DIMTXSTY
  7
STANDARD
  9
$DIMAUNIT
 70
    0
  9
$DIMADEC
 70
    0
  9
$DIMALTRND
 40
0
  9
$DIMAZIN
 70
    0
  9
$DIMDSEP
 70
   44
  9
$DIMATFIT
 70
    3
  9
$DIMFRAC
 70
    0
  9
$DIMLDRBLK
  1
STANDARD
  9
$DIMLUNIT
 70
    2
  9
$DIMLWD
 70
   -2
  9
$DIMLWE
 70
   -2
  9
$DIMTMOVE
 70
    0
  9
$DIMFXL
 40
1
  9
$DIMFXLON
 70
    0
  9
$DIMJOGANG
 40
0.7854
  9
$DIMTFILL
 70
    0
  9
$DIMTFILLCLR
 70
    0
  9
$DIMARCSYM
 70
    0
  9
$DIMLTYPE
  6

  9
$DIMLTEX1
  6

  9
$DIMLTEX2
  6

  9
$LUNITS
 70
    2
  9
$LUPREC
 70
    4
  9
$SKETCHINC
 40
1
  9
$FILLETRAD
 40
0
  9
$AUNITS
 70
    0
  9
$AUPREC
 70
    2
  9
$MENU
  1
.
  9
$ELEVATION
 40
0
  9
$PELEVATION
 40
0
  9
$THICKNESS
 40
0
  9
$LIMCHECK
 70
    0
  9
$CHAMFERA
 40
0
  9
$CHAMFERB
 40
0
  9
$CHAMFERC
 40
0
  9
$CHAMFERD
 40
0
  9
$SKPOLY
 70
    0
  9
$USRTIMER
 70
    1
  9
$ANGBASE
 50
0
  9
$ANGDIR
 70
    0
  9
$PDMODE
 70
   34
  9
$PDSIZE
 40
0
  9
$PLINEWID
 40
0
  9
$SPLFRAME
 70
    0
  9
$SPLINETYPE
 70
    2
  9
$SPLINESEGS
 70
    8
  9
$HANDSEED
  5
20000
  9
$SURFTAB1
 70
    6
  9
$SURFTAB2
 70
    6
  9
$SURFTYPE
 70
    6
  9
$SURFU
 70
    6
  9
$SURFV
 70
    6
  9
$UCSBASE
  2

  9
$UCSNAME
  2

  9
$UCSORG
 10
0
 20
0
 30
0
  9
$UCSXDIR
 10
1
 20
0
 30
0
  9
$UCSYDIR
 10
0
 20
1
 30
0
  9
$UCSORTHOREF
  2

  9
$UCSORTHOVIEW
 70
    0
  9
$UCSORGTOP
 10
0
 20
0
 30
0
  9
$UCSORGBOTTOM
 10
0
 20
0
 30
0
  9
$UCSORGLEFT
 10
0
 20
0
 30
0
  9
$UCSORGRIGHT
 10
0
 20
0
 30
0
  9
$UCSORGFRONT
 10
0
 20
0
 30
0
  9
$UCSORGBACK
 10
0
 20
0
 30
0
  9
$PUCSBASE
  2

  9
$PUCSNAME
  2

  9
$PUCSORG
 10
0
 20
0
 30
0
  9
$PUCSXDIR
 10
1
 20
0
 30
0
  9
$PUCSYDIR
 10
0
 20
1
 30
0
  9
$PUCSORTHOREF
  2

  9
$PUCSORTHOVIEW
 70
    0
  9
$PUCSORGTOP
 10
0
 20
0
 30
0
  9
$PUCSORGBOTTOM
 10
0
 20
0
 30
0
  9
$PUCSORGLEFT
 10
0
 20
0
 30
0
  9
$PUCSORGRIGHT
 10
0
 20
0
 30
0
  9
$PUCSORGFRONT
 10
0
 20
0
 30
0
  9
$PUCSORGBACK
 10
0
 20
0
 30
0
  9
$USERI1
 70
    0
  9
$USERI2
 70
    0
  9
$USERI3
 70
    0
  9
$USERI4
 70
    0
  9
$USERI5
 70
    0
  9
$USERR1
 40
0
  9
$USERR2
 40
0
  9
$USERR3
 40
0
  9
$USERR4
 40
0
  9
$USERR5
 40
0
  9
$WORLDVIEW
 70
    1
  9
$SHADEDGE
 70
    3
  9
$SHADEDIF
 70
   70
  9
$TILEMODE
 70
    1
  9
$MAXACTVP
 70
   64
  9
$PINSBASE
 10
153.6178775274831
 20
207.1937993358379
 30
0
  9
$PLIMCHECK
 70
    0
  9
$PEXTMIN
 10
0
 20
0
 30
0
  9
$PEXTMAX
 10
0
 20
0
 30
0
  9
$GRIDMODE
 70
    1
  9
$SNAPSTYLE
 70
    1
  9
$PLIMMIN
 10
0
 20
0
  9
$PLIMMAX
 10
297
 20
210
  9
$UNITMODE
 70
    0
  9
$VISRETAIN
 70
    1
  9
$PLINEGEN
 70
    0
  9
$PSLTSCALE
 70
    1
  9
$TREEDEPTH
 70
 3020
  9
$CMLSTYLE
  2
Standard
  9
$CMLJUST
 70
    0
  9
$CMLSCALE
 40
20
  9
$PROXYGRAPHICS
 70
    1
  9
$MEASUREMENT
 70
    1
  9
$CELWEIGHT
370
   -1
  9
$ENDCAPS
280
    0
  9
$JOINSTYLE
280
    0
  9
$LWDISPLAY
290
    0
  9
$INSUNITS
 70
    4
  9
$HYPERLINKBASE
  1

  9
$STYLESHEET
  1

  9
$XEDIT
290
    1
  9
$CEPSNTYPE
380
    0
  9
$PSTYLEMODE
290
    1
  9
$EXTNAMES
290
    1
  9
$PSVPSCALE
 40
8.809810000000001
  9
$OLESTARTUP
290
    0
  9
$SORTENTS
280
  127
  9
$INDEXCTL
280
    0
  9
$HIDETEXT
280
    1
  9
$XCLIPFRAME
290
    0
  9
$HALOGAP
280
    0
  9
$OBSCOLOR
 70
  257
  9
$OBSLTYPE
280
    0
  9
$INTERSECTIONDISPLAY
280
    0
  9
$INTERSECTIONCOLOR
 70
  257
  9
$DIMASSOC
280
    1
  9
$PROJECTNAME
  1

  9
$CAMERADISPLAY
290
    0
  9
$LENSLENGTH
 40
50
  9
$CAMERAHEIGHT
 40
0
  9
$STEPSPERSEC
 40
2
  9
$STEPSIZE
 40
50
  9
$3DDWFPREC
 40
2
  9
$PSOLWIDTH
 40
5
  9
$PSOLHEIGHT
 40
80
  9
$LOFTANG1
 40
1.570796326794897
  9
$LOFTANG2
 40
1.570796326794897
  9
$LOFTMAG1
 40
0
  9
$LOFTMAG2
 40
0
  9
$LOFTPARAM
 70
    7
  9
$LOFTNORMALS
280
    1
  9
$LATITUDE
 40
1
  9
$LONGITUDE
 40
1
  9
$NORTHDIRECTION
 40
0
  9
$TIMEZONE
 70
-8000
  9
$LIGHTGLYPHDISPLAY
280
    1
  9
$TILEMODELIGHTSYNCH
280
    1
  9
$SOLIDHIST
280
    1
  9
$SHOWHIST
280
    1
  9
$DWFFRAME
280
    2
  9
$DGNFRAME
280
    0
  9
$REALWORLDSCALE
290
    1
  9
$INTERFERECOLOR
 62
    1
  9
$CSHADOW
280
    0
  9
$SHADOWPLANELOCATION
 40
0
  0
ENDSEC
  0
SECTION
  2
CLASSES
  0
ENDSEC
  0
SECTION
  2
TABLES
  0
TABLE
  2
VPORT
  5
8
330
0
100
AcDbSymbolTable
 70
    1
  0
VPORT
  5
31
330
2
100
AcDbSymbolTableRecord
100
AcDbViewportTableRecord
  2
*ACTIVE
 70
    0
 10
0
 20
0
 11
1
 21
1
 12
29.3510249826351
 22
3.229252203971836
 13
0
 23
0
 14
10
 24
10
 15
10
 25
10
 16
0
 26
0
 36
1
 17
0
 27
0
 37
0
 40
51.41225291075952
 41
2.106965174129353
 42
50
 43
0
 44
0
 50
0
 51
0
 71
    0
 72
  100
 73
    1
 74
    3
 75
    0
 76
    1
 77
    1
 78
    0
281
    0
 65
    1
110
0
120
0
130
0
111
1
121
0
131
0
112
0
122
1
132
0
 79
    0
146
0
348
10020
 60
    7
 61
    5
292
1
282
    1
141
0
142
0
 63
  250
421
3358443
  0
ENDTAB
  0
TABLE
  2
LTYPE
  5
5
330
0
100
AcDbSymbolTable
 70
    4
  0
LTYPE
  5
14
330
5
100
AcDbSymbolTableRecord
100
AcDbLinetypeTableRecord
  2
ByBlock
 70
    0
  3

 72
   65
 73
    0
 40
0
  0
LTYPE
  5
15
330
5
100
AcDbSymbolTableRecord
100
AcDbLinetypeTableRecord
  2
ByLayer
 70
    0
  3

 72
   65
 73
    0
 40
0
  0
LTYPE
  5
16
330
5
100
AcDbSymbolTableRecord
100
AcDbLinetypeTableRecord
  2
Continuous
 70
    0
  3
Solid line
 72
   65
 73
    0
 40
0
  0
LTYPE
  5
32
330
5
100
AcDbSymbolTableRecord
100
AcDbLinetypeTableRecord
  2
DOT
 70
    0
  3
Dot . . . . . . . . . . . . . . . . . . . . . .
 72
   65
 73
    2
 40
6.35
 49
0
 74
    0
 49
-6.35
 74
    0
  0
LTYPE
  5
33
330
5
100
AcDbSymbolTableRecord
100
AcDbLinetypeTableRecord
  2
DOTTINY
 70
    0
  3
Dot (.15x) .....................................
 72
   65
 73
    2
 40
0.9525
 49
0
 74
    0
 49
-0.9525
 74
    0
  0
LTYPE
  5
34
330
5
100
AcDbSymbolTableRecord
100
AcDbLinetypeTableRecord
  2
DOT2
 70
    0
  3
Dot (.5x) .....................................
 72
   65
 73
    2
 40
3.175
 49
0
 74
    0
 49
-3.175
 74
    0
  0
LTYPE
  5
35
330
5
100
AcDbSymbolTableRecord
100
AcDbLinetypeTableRecord
  2
DOTX2
 70
    0
  3
Dot (2x) .  .  .  .  .  .  .  .  .  .  .  .  .
 72
   65
 73
    2
 40
12.7
 49
0
 74
    0
 49
-12.7
 74
    0
  0
LTYPE
  5
36
330
5
100
AcDbSymbolTableRecord
100
AcDbLinetypeTableRecord
  2
DASHED
 70
    0
  3
Dashed _ _ _ _ _ _ _ _ _ _ _ _ _ _ _ _ _
 72
   65
 73
    2
 40
19.05
 49
12.7
 74
    0
 49
-6.35
 74
    0
  0
LTYPE
  5
37
330
5
100
AcDbSymbolTableRecord
100
AcDbLinetypeTableRecord
  2
DASHEDTINY
 70
    0
  3
Dashed (.15x) _ _ _ _ _ _ _ _ _ _ _ _ _ _ _ _ _
 72
   65
 73
    2
 40
2.8575
 49
1.905
 74
    0
 49
-0.9525
 74
    0
  0
LTYPE
  5
38
330
5
100
AcDbSymbolTableRecord
100
AcDbLinetypeTableRecord
  2
DASHED2
 70
    0
  3
Dashed (.5x) _ _ _ _ _ _ _ _ _ _ _ _ _ _ _ _ _
 72
   65
 73
    2
 40
9.524999999999999
 49
6.35
 74
    0
 49
-3.175
 74
    0
  0
LTYPE
  5
39
330
5
100
AcDbSymbolTableRecord
100
AcDbLinetypeTableRecord
  2
DASHEDX2
 70
    0
  3
Dashed (2x) ____  ____  ____  ____  ____  ___
 72
   65
 73
    2
 40
38.09999999999999
 49
25.4
 74
    0
 49
-12.7
 74
    0
  0
LTYPE
  5
3A
330
5
100
AcDbSymbolTableRecord
100
AcDbLinetypeTableRecord
  2
DASHDOT
 70
    0
  3
Dash dot __ . __ . __ . __ . __ . __ . __ . __
 72
   65
 73
    4
 40
25.4
 49
12.7
 74
    0
 49
-6.35
 74
    0
 49
0
 74
    0
 49
-6.35
 74
    0
  0
LTYPE
  5
3B
330
5
100
AcDbSymbolTableRecord
100
AcDbLinetypeTableRecord
  2
DASHDOTTINY
 70
    0
  3
Dash dot (.15x) _._._._._._._._._._._._._._._.
 72
   65
 73
    4
 40
3.81
 49
1.905
 74
    0
 49
-0.9525
 74
    0
 49
0
 74
    0
 49
-0.9525
 74
    0
  0
LTYPE
  5
3C
330
5
100
AcDbSymbolTableRecord
100
AcDbLinetypeTableRecord
  2
DASHDOT2
 70
    0
  3
Dash dot (.5x) _._._._._._._._._._._._._._._.
 72
   65
 73
    4
 40
12.7
 49
6.35
 74
    0
 49
-3.175
 74
    0
 49
0
 74
    0
 49
-3.175
 74
    0
  0
LTYPE
  5
3D
330
5
100
AcDbSymbolTableRecord
100
AcDbLinetypeTableRecord
  2
DASHDOTX2
 70
    0
  3
Dash dot (2x) ____  .  ____  .  ____  .  ___
 72
   65
 73
    4
 40
50.8
 49
25.4
 74
    0
 49
-12.7
 74
    0
 49
0
 74
    0
 49
-12.7
 74
    0
  0
LTYPE
  5
3E
330
5
100
AcDbSymbolTableRecord
100
AcDbLinetypeTableRecord
  2
DIVIDE
 70
    0
  3
Divide ____ . . ____ . . ____ . . ____ . . ____
 72
   65
 73
    6
 40
31.75
 49
12.7
 74
    0
 49
-6.35
 74
    0
 49
0
 74
    0
 49
-6.35
 74
    0
 49
0
 74
    0
 49
-6.35
 74
    0
  0
LTYPE
  5
3F
330
5
100
AcDbSymbolTableRecord
100
AcDbLinetypeTableRecord
  2
DIVIDETINY
 70
    0
  3
Divide (.15x) __..__..__..__..__..__..__..__.._
 72
   65
 73
    6
 40
4.7625
 49
1.905
 74
    0
 49
-0.9525
 74
    0
 49
0
 74
    0
 49
-0.9525
 74
    0
 49
0
 74
    0
 49
-0.9525
 74
    0
  0
LTYPE
  5
40
330
5
100
AcDbSymbolTableRecord
100
AcDbLinetypeTableRecord
  2
DIVIDE2
 70
    0
  3
Divide (.5x) __..__..__..__..__..__..__..__.._
 72
   65
 73
    6
 40
15.875
 49
6.35
 74
    0
 49
-3.175
 74
    0
 49
0
 74
    0
 49
-3.175
 74
    0
 49
0
 74
    0
 49
-3.175
 74
    0
  0
LTYPE
  5
41
330
5
100
AcDbSymbolTableRecord
100
AcDbLinetypeTableRecord
  2
DIVIDEX2
 70
    0
  3
Divide (2x) ________  .  .  ________  .  .  _
 72
   65
 73
    6
 40
63.5
 49
25.4
 74
    0
 49
-12.7
 74
    0
 49
0
 74
    0
 49
-12.7
 74
    0
 49
0
 74
    0
 49
-12.7
 74
    0
  0
LTYPE
  5
42
330
5
100
AcDbSymbolTableRecord
100
AcDbLinetypeTableRecord
  2
BORDER
 70
    0
  3
Border __ __ . __ __ . __ __ . __ __ . __ __ .
 72
   65
 73
    6
 40
44.45
 49
12.7
 74
    0
 49
-6.35
 74
    0
 49
12.7
 74
    0
 49
-6.35
 74
    0
 49
0
 74
    0
 49
-6.35
 74
    0
  0
LTYPE
  5
43
330
5
100
AcDbSymbolTableRecord
100
AcDbLinetypeTableRecord
  2
BORDERTINY
 70
    0
  3
Border (.15x) __.__.__.__.__.__.__.__.__.__.__.
 72
   65
 73
    6
 40
6.6675
 49
1.905
 74
    0
 49
-0.9525
 74
    0
 49
1.905
 74
    0
 49
-0.9525
 74
    0
 49
0
 74
    0
 49
-0.9525
 74
    0
  0
LTYPE
  5
44
330
5
100
AcDbSymbolTableRecord
100
AcDbLinetypeTableRecord
  2
BORDER2
 70
    0
  3
Border (.5x) __.__.__.__.__.__.__.__.__.__.__.
 72
   65
 73
    6
 40
22.225
 49
6.35
 74
    0
 49
-3.175
 74
    0
 49
6.35
 74
    0
 49
-3.175
 74
    0
 49
0
 74
    0
 49
-3.175
 74
    0
  0
LTYPE
  5
45
330
5
100
AcDbSymbolTableRecord
100
AcDbLinetypeTableRecord
  2
BORDERX2
 70
    0
  3
Border (2x) ____  ____  .  ____  ____  .  ___
 72
   65
 73
    6
 40
88.89999999999999
 49
25.4
 74
    0
 49
-12.7
 74
    0
 49
25.4
 74
    0
 49
-12.7
 74
    0
 49
0
 74
    0
 49
-12.7
 74
    0
  0
LTYPE
  5
46
330
5
100
AcDbSymbolTableRecord
100
AcDbLinetypeTableRecord
  2
CENTER
 70
    0
  3
Center ____ _ ____ _ ____ _ ____ _ ____ _ ____
 72
   65
 73
    4
 40
50.8
 49
31.75
 74
    0
 49
-6.35
 74
    0
 49
6.35
 74
    0
 49
-6.35
 74
    0
  0
LTYPE
  5
47
330
5
100
AcDbSymbolTableRecord
100
AcDbLinetypeTableRecord
  2
CENTERTINY
 70
    0
  3
Center (.15x) ___ _ ___ _ ___ _ ___ _ ___ _ ___
 72
   65
 73
    4
 40
7.62
 49
4.7625
 74
    0
 49
-0.9525
 74
    0
 49
0.9525
 74
    0
 49
-0.9525
 74
    0
  0
LTYPE
  5
48
330
5
100
AcDbSymbolTableRecord
100
AcDbLinetypeTableRecord
  2
CENTER2
 70
    0
  3
Center (.5x) ___ _ ___ _ ___ _ ___ _ ___ _ ___
 72
   65
 73
    4
 40
28.575
 49
19.05
 74
    0
 49
-3.175
 74
    0
 49
3.175
 74
    0
 49
-3.175
 74
    0
  0
LTYPE
  5
49
330
5
100
AcDbSymbolTableRecord
100
AcDbLinetypeTableRecord
  2
CENTERX2
 70
    0
  3
Center (2x) ________  __  ________  __  _____
 72
   65
 73
    4
 40
101.6
 49
63.5
 74
    0
 49
-12.7
 74
    0
 49
12.7
 74
    0
 49
-12.7
 74
    0
  0
ENDTAB
  0
TABLE
  2
LAYER
  5
2
330
0
100
AcDbSymbolTable
 70
    1
  0
LAYER
  5
10
330
2
100
AcDbSymbolTableRecord
100
AcDbLayerTableRecord
  2
0
 70
    0
 62
    7
  6
CONTINUOUS
370
    0
390
F
  0
LAYER
  5
4A
330
2
100
AcDbSymbolTableRecord
100
AcDbLayerTableRecord
  2
Connection_and_Part
 70
    0
 62
    5
  6
CONTINUOUS
370
    0
390
F
  0
LAYER
  5
4B
330
2
100
AcDbSymbolTableRecord
100
AcDbLayerTableRecord
  2
Connection_point
 70
    0
 62
    6
  6
CONTINUOUS
370
    0
390
F
  0
LAYER
  5
4C
330
2
100
AcDbSymbolTableRecord
100
AcDbLayerTableRecord
  2
Grid
 70
    0
 62
   96
420
32768
  6
CONTINUOUS
370
    0
390
F
  0
ENDTAB
  0
TABLE
  2
STYLE
  5
3
330
0
100
AcDbSymbolTable
 70
    3
  0
STYLE
  5
4D
330
2
100
AcDbSymbolTableRecord
100
AcDbTextStyleTableRecord
  2
standard
 70
    0
 40
0
 41
1
 50
0
 71
    0
 42
1
  3
standard
  4

  0
ENDTAB
  0
TABLE
  2
VIEW
  5
6
330
0
100
AcDbSymbolTable
 70
    0
  0
ENDTAB
  0
TABLE
  2
UCS
  5
7
330
0
100
AcDbSymbolTable
 70
    0
  0
ENDTAB
  0
TABLE
  2
APPID
  5
9
330
0
100
AcDbSymbolTable
 70
    1
  0
APPID
  5
12
330
9
100
AcDbSymbolTableRecord
100
AcDbRegAppTableRecord
  2
ACAD
 70
    0
  0
APPID
  5
4E
330
9
100
AcDbSymbolTableRecord
100
AcDbRegAppTableRecord
  2
LibreCad
 70
    0
  0
ENDTAB
  0
TABLE
  2
DIMSTYLE
  5
A
330
0
100
AcDbSymbolTable
 70
    1
100
AcDbDimStyleTable
 71
    1
  0
DIMSTYLE
105
4F
330
A
100
AcDbSymbolTableRecord
100
AcDbDimStyleTableRecord
  2
Standard
 70
    0
 40
2.5
 41
2.5
 42
0.625
 43
0.38
 44
1.25
 45
0
 46
0
 47
0
 48
0
 49
1
140
2.5
141
0.09
142
0
143
25.4
144
1
145
0
146
1
147
0.625
148
0
 71
    0
 72
    0
 73
    0
 74
    1
 75
    0
 76
    0
 77
    0
 78
    8
 79
    0
170
    0
171
    2
172
    0
173
    0
174
    0
175
    0
176
    0
177
    0
178
    0
179
    0
271
    2
272
    4
273
    2
274
    2
275
    0
276
    0
277
    2
278
   44
279
    0
280
    0
281
    0
282
    0
283
    1
284
    0
285
    0
286
    0
288
    0
289
    3
340
STANDARD
341

371
   -2
372
   -2
  0
ENDTAB
  0
TABLE
  2
BLOCK_RECORD
  5
1
330
0
100
AcDbSymbolTable
 70
    2
  0
BLOCK_RECORD
  5
1F
330
1
100
AcDbSymbolTableRecord
100
AcDbBlockTableRecord
  2
*Model_Space
 70
    0
280
    1
281
    0
  0
BLOCK_RECORD
  5
1E
330
1
100
AcDbSymbolTableRecord
100
AcDbBlockTableRecord
  2
*Paper_Space
 70
    0
280
    1
281
    0
  0
ENDTAB
  0
ENDSEC
  0
SECTION
  2
BLOCKS
  0
BLOCK
  5
20
330
1F
100
AcDbEntity
  8
0
100
AcDbBlockBegin
  2
*Model_Space
 70
    0
 10
0
 20
0
 30
0
  3
*Model_Space
  1

  0
ENDBLK
  5
21
330
1F
100
AcDbEntity
  8
0
100
AcDbBlockEnd
  0
BLOCK
  5
1C
330
1B
100
AcDbEntity
  8
0
100
AcDbBlockBegin
  2
*Paper_Space
 70
    0
 10
0
 20
0
 30
0
  3
*Paper_Space
  1

  0
ENDBLK
  5
1D
330
1F
100
AcDbEntity
  8
0
100
AcDbBlockEnd
  0
ENDSEC
  0
SECTION
  2
ENTITIES
  0
ARC
  5
50
100
AcDbEntity
  8
Connection_and_Part
  6
ByLayer
 62
  256
370
   -1
100
AcDbCircle
 10
5.464101615137768
 20
-6
 40
1
100
AcDbArc
 50
180
 51
270.0000000000001
  0
MTEXT
  5
51
100
AcDbEntity
  8
0
  6
ByLayer
 62
  256
370
   -1
100
AcDbMText
 10
3.184731337871582
 20
-4.457486430529951
 30
0
 40
0.25
 41
0.8333333333333566
 71
    5
 72
    1
  1
Initial
  7
standard
210
0
220
0
230
1
 50
0
 73
    2
 44
1
  0
CIRCLE
  5
52
100
AcDbEntity
  8
0
  6
ByLayer
 62
  256
370
   -1
100
AcDbCircle
 10
8.660254037844382
 20
-6
 40
1
  0
ARC
  5
53
100
AcDbEntity
  8
Connection_point
  6
ByLayer
 62
  256
370
   -1
100
AcDbCircle
 10
6.660254037844382
 20
-6
 40
1
100
AcDbArc
 50
269.9999999999999
 51
0
  0
ARC
  5
54
100
AcDbEntity
  8
Connection_point
  6
ByLayer
 62
  256
370
   -1
100
AcDbCircle
 10
10.66025403784438
 20
-6
 40
1
100
AcDbArc
 50
180
 51
270.0000000000001
  0
MTEXT
  5
55
100
AcDbEntity
  8
0
  6
ByLayer
 62
  256
370
   -1
100
AcDbMText
 10
7.877588044748707
 20
-4.026868127176585
 30
0
 40
0.5
 41
1.888888888888912
 71
    1
 72
    1
  1
Medial
  7
standard
210
0
220
0
230
1
 50
0
 73
    2
 44
1
  0
ARC
  5
56
100
AcDbEntity
  8
Connection_and_Part
  6
ByLayer
 62
  256
370
   -1
100
AcDbCircle
 10
11.85640646055101
 20
-6
 40
1
100
AcDbArc
 50
269.9999999999999
 51
0
  0
MTEXT
  5
57
100
AcDbEntity
  8
0
  6
ByLayer
 62
  256
370
   -1
100
AcDbMText
 10
13.07698359714502
 20
-4.050000000000001
 30
0
 40
0.5
 41
1.388888888888935
 71
    1
 72
    1
  1
Final
  7
standard
210
0
220
0
230
1
 50
0
 73
    2
 44
1
  0
ARC
  5
58
100
AcDbEntity
  8
Connection_point
  6
ByLayer
 62
  256
370
   -1
100
AcDbCircle
 10
-1.464101615137735
 20
-11
 40
1
100
AcDbArc
 50
89.9999999999999
 51
180
  0
ARC
  5
59
100
AcDbEntity
  8
Connection_point
  6
ByLayer
 62
  256
370
   -1
100
AcDbCircle
 10
-1.464101615137735
 20
-13
 40
1
100
AcDbArc
 50
180
 51
270.0000000000001
  0
LINE
  5
5A
100
AcDbEntity
  8
0
  6
ByLayer
 62
  256
370
   -1
100
AcDbLine
 10
-4.464101615137773
 20
-11
 11
-4.464101615137775
 21
-13
  0
LINE
  5
5B
100
AcDbEntity
  8
0
  6
ByLayer
 62
  256
370
   -1
100
AcDbLine
 10
-2.464101615137742
 20
-10.99999988384102
 11
-2.464101615137735
 21
-13
  0
ARC
  5
5C
100
AcDbEntity
  8
0
  6
ByLayer
 62
  256
370
   -1
100
AcDbCircle
 10
-3.464101615137755
 20
-13
 40
1.00000000000002
100
AcDbArc
 50
180.0000065232954
 51
359.9999907075873
  0
ARC
  5
5D
100
AcDbEntity
  8
Connection_point
  6
ByLayer
 62
  256
370
   -1
100
AcDbCircle
 10
-5.464101615137779
 20
-11
 40
1
100
AcDbArc
 50
0
 51
90.0000000000001
  0
ARC
  5
5E
100
AcDbEntity
  8
Connection_point
  6
ByLayer
 62
  256
370
   -1
100
AcDbCircle
 10
-5.464101615137779
 20
-13
 40
1
100
AcDbArc
 50
269.9999999999999
 51
0
  0
ARC
  5
5F
100
AcDbEntity
  8
Connection_point
  6
ByLayer
 62
  256
370
   -1
100
AcDbCircle
 10
-0.267949192431125
 20
-13
 40
1
100
AcDbArc
 50
269.9999999999999
 51
0
  0
ARC
  5
60
100
AcDbEntity
  8
Connection_point
  6
ByLayer
 62
  256
370
   -1
100
AcDbCircle
 10
3.732050807568873
 20
-13
 40
1
100
AcDbArc
 50
180
 51
270.0000000000001
  0
LINE
  5
61
100
AcDbEntity
  8
0
  6
ByLayer
 62
  256
370
   -1
100
AcDbLine
 10
0.7320508075688759
 20
-12
 11
2.732050807568874
 21
-12
  0
ARC
  5
62
100
AcDbEntity
  8
0
  6
ByLayer
 62
  256
370
   -1
100
AcDbCircle
 10
1.732050807568875
 20
-13
 40
1
100
AcDbArc
 50
180
 51
0
  0
ARC
  5
63
100
AcDbEntity
  8
0
  6
ByLayer
 62
  256
370
   -1
100
AcDbCircle
 10
1.732050807568876
 20
-12
 40
1
100
AcDbArc
 50
0
 51
180
  0
LINE
  5
64
100
AcDbEntity
  8
0
  6
ByLayer
 62
  256
370
   -1
100
AcDbLine
 10
0.732050807568875
 20
-13
 11
0.7320508075688759
 21
-12
  0
LINE
  5
65
100
AcDbEntity
  8
0
  6
ByLayer
 62
  256
370
   -1
100
AcDbLine
 10
2.732050807568873
 20
-13
 11
2.732050807568876
 21
-12
  0
ARC
  5
66
100
AcDbEntity
  8
Connection_point
  6
ByLayer
 62
  256
370
   -1
100
AcDbCircle
 10
3.732050807568874
 20
-12
 40
1
100
AcDbArc
 50
89.9999999999999
 51
180
  0
ARC
  5
67
100
AcDbEntity
  8
Connection_point
  6
ByLayer
 62
  256
370
   -1
100
AcDbCircle
 10
-0.2679491924311703
 20
-12
 40
1
100
AcDbArc
 50
0
 51
90.0000000000001
  0
MTEXT
  5
68
100
AcDbEntity
  8
0
  6
ByLayer
 62
  256
370
   -1
100
AcDbMText
 10
-8.487048957087483
 20
-2.6
 30
0
 40
0.3
 41
2.725000000000042
 71
    5
 72
    1
  1
Medial Capital\P
  7
standard
210
0
220
0
230
1
 50
0
 73
    2
 44
1
  0
LINE
  5
69
100
AcDbEntity
  8
0
  6
ByLayer
 62
  256
370
   -1
100
AcDbLine
 10
-2.464101615137746
 20
-17
 11
-3.464101615137746
 21
-17
  0
ARC
  5
6A
100
AcDbEntity
  8
0
  6
ByLayer
 62
  256
370
   -1
100
AcDbCircle
 10
-3.464101615137746
 20
-18
 40
1
100
AcDbArc
 50
90
 51
270
  0
LINE
  5
6B
100
AcDbEntity
  8
0
  6
ByLayer
 62
  256
370
   -1
100
AcDbLine
 10
-2.464101615137746
 20
-19
 11
-3.464101615137746
 21
-19
  0
LINE
  5
6C
100
AcDbEntity
  8
0
  6
ByLayer
 62
  256
370
   -1
100
AcDbLine
 10
-2.464101615137746
 20
-21
 11
-3.464101615137746
 21
-21
  0
ARC
  5
6D
100
AcDbEntity
  8
0
  6
ByLayer
 62
  256
370
   -1
100
AcDbCircle
 10
-3.464101615137746
 20
-20
 40
1
100
AcDbArc
 50
90
 51
270
  0
LINE
  5
6E
100
AcDbEntity
  8
Connection_point
  6
ByLayer
 62
  256
370
   -1
100
AcDbLine
 10
-1.964101615137746
 20
-19
 11
-2.464101615137746
 21
-19
  0
LINE
  5
6F
100
AcDbEntity
  8
Connection_point
  6
ByLayer
 62
  256
370
   -1
100
AcDbLine
 10
-1.964101615137746
 20
-21
 11
-2.464101615137746
 21
-21
  0
LINE
  5
70
100
AcDbEntity
  8
Connection_point
  6
ByLayer
 62
  256
370
   -1
100
AcDbLine
 10
-1.964101615137746
 20
-17
 11
-2.464101615137746
 21
-17
  0
LINE
  5
71
100
AcDbEntity
  8
0
  6
ByLayer
 62
  256
370
   -1
100
AcDbLine
 10
-2.196152422706614
 20
-3.00000011385298
 11
-2.196152422706614
 21
-7.00000011385298
  0
ARC
  5
72
100
AcDbEntity
  8
Connection_and_Part
  6
ByLayer
 62
  256
370
   -1
100
AcDbCircle
 10
-4.979023111044885
 20
-6.78287071305907
 40
0.2171293116617505
100
AcDbArc
 50
270
 51
326.3099599896665
  0
LINE
  5
73
100
AcDbEntity
  8
Connection_and_Part
  6
ByLayer
 62
  256
370
   -1
100
AcDbLine
 10
-5.196152422706636
 20
-7
 11
-4.979023111044885
 21
-7.000000024720821
  0
LINE
  5
74
100
AcDbEntity
  8
0
  6
ByLayer
 62
  256
370
   -1
100
AcDbLine
 10
-2.196152422706614
 20
-3.00000011385298
 11
-4.196152365780122
 21
-6.000000028463251
  0
LINE
  5
75
100
AcDbEntity
  8
Connection_and_Part
  6
ByLayer
 62
  256
370
   -1
100
AcDbLine
 10
-4.196152365780122
 20
-6.000000028463251
 11
-4.798360545526606
 21
-6.90331229808298
  0
LINE
  5
76
100
AcDbEntity
  8
0
  6
ByLayer
 62
  256
370
   -1
100
AcDbLine
 10
-4.196152365780122
 20
-6.000000028463251
 11
-2.196152422706614
 21
-7.00000011385298
  0
MTEXT
  5
77
100
AcDbEntity
  8
0
  6
ByLayer
 62
  256
370
   -1
100
AcDbMText
 10
-2.598076211353314
 20
-2.5
 30
0
 40
0.3
 41
2.425000000000056
 71
    5
 72
    1
  1
Final Capital
  7
standard
210
0
220
0
230
1
 50
0
 73
    2
 44
1
  0
LINE
  5
78
100
AcDbEntity
  8
0
  6
ByLayer
 62
  256
370
   -1
100
AcDbLine
 10
-15.12435565298216
 20
-3.00000011385298
 11
-15.12435565298216
 21
-7.00000011385298
  0
ARC
  5
79
100
AcDbEntity
  8
Connection_and_Part
  6
ByLayer
 62
  256
370
   -1
100
AcDbCircle
 10
-12.34148496464389
 20
-6.78287071305907
 40
0.2171293116617505
100
AcDbArc
 50
213.6900400103335
 51
270
  0
LINE
  5
7A
100
AcDbEntity
  8
Connection_and_Part
  6
ByLayer
 62
  256
370
   -1
100
AcDbLine
 10
-12.12435565298214
 20
-7
 11
-12.34148496464389
 21
-7.000000024720821
  0
LINE
  5
7B
100
AcDbEntity
  8
0
  6
ByLayer
 62
  256
370
   -1
100
AcDbLine
 10
-15.12435565298216
 20
-3.00000011385298
 11
-13.12435570990865
 21
-6.000000028463251
  0
LINE
  5
7C
100
AcDbEntity
  8
Connection_and_Part
  6
ByLayer
 62
  256
370
   -1
100
AcDbLine
 10
-13.12435570990865
 20
-6.000000028463251
 11
-12.52214753016217
 21
-6.90331229808298
  0
LINE
  5
7D
100
AcDbEntity
  8
0
  6
ByLayer
 62
  256
370
   -1
100
AcDbLine
 10
-13.12435570990865
 20
-6.000000028463251
 11
-15.12435565298216
 21
-7.00000011385298
  0
MTEXT
  5
7E
100
AcDbEntity
  8
0
  6
ByLayer
 62
  256
370
   -1
100
AcDbMText
 10
-14.72243186433546
 20
-2.5
 30
0
 40
0.3
 41
2.591666666666723
 71
    5
 72
    1
  1
Initial Capital
  7
standard
210
0
220
0
230
1
 50
0
 73
    2
 44
1
  0
ARC
  5
7F
100
AcDbEntity
  8
0
  6
ByLayer
 62
  256
370
   -1
100
AcDbCircle
 10
1.77635683940025e-014
 20
-20
 40
1
100
AcDbArc
 50
0
 51
270
  0
LINE
  5
80
100
AcDbEntity
  8
Connection_point
  6
ByLayer
 62
  256
370
   -1
100
AcDbLine
 10
1.500000000000018
 20
-21
 11
1.000000000000018
 21
-21
  0
LINE
  5
81
100
AcDbEntity
  8
0
  6
ByLayer
 62
  256
370
   -1
100
AcDbLine
 10
1.000000000000018
 20
-21
 11
1.77635683940025e-014
 21
-21
  0
LINE
  5
82
100
AcDbEntity
  8
0
  6
ByLayer
 62
  256
370
   -1
100
AcDbLine
 10
1.000000000000018
 20
-21
 11
1.000000000000018
 21
-20
  0
ARC
  5
83
100
AcDbEntity
  8
0
  6
ByLayer
 62
  256
370
   -1
100
AcDbCircle
 10
10.39230484541328
 20
-20
 40
1
100
AcDbArc
 50
270
 51
180
  0
LINE
  5
84
100
AcDbEntity
  8
Connection_point
  6
ByLayer
 62
  256
370
   -1
100
AcDbLine
 10
8.892304845413282
 20
-21
 11
9.392304845413282
 21
-21
  0
LINE
  5
85
100
AcDbEntity
  8
0
  6
ByLayer
 62
  256
370
   -1
100
AcDbLine
 10
9.392304845413282
 20
-21
 11
10.39230484541328
 21
-21
  0
LINE
  5
86
100
AcDbEntity
  8
0
  6
ByLayer
 62
  256
370
   -1
100
AcDbLine
 10
9.392304845413282
 20
-21
 11
9.392304845413282
 21
-20
  0
MTEXT
  5
87
100
AcDbEntity
  8
0
  6
ByLayer
 62
  256
370
   -1
100
AcDbMText
 10
11.07262535255621
 20
-18.59719825638467
 30
0
 40
0.3
 41
0.8333333333333612
 71
    9
 72
    1
  1
Final
  7
standard
210
0
220
0
230
1
 50
0
 73
    2
 44
1
  0
MTEXT
  5
88
100
AcDbEntity
  8
0
  6
ByLayer
 62
  256
370
   -1
100
AcDbMText
 10
5.196152422706632
 20
-18.4
 30
0
 40
0.3
 41
1.133333333333348
 71
    5
 72
    1
  1
Medial
  7
standard
210
0
220
0
230
1
 50
0
 73
    2
 44
1
  0
LINE
  5
89
100
AcDbEntity
  8
0
  6
ByLayer
 62
  256
370
   -1
100
AcDbLine
 10
-9.660254037844386
 20
-6
 11
-7.660254037844386
 21
-6
  0
LINE
  5
8A
100
AcDbEntity
  8
0
  6
ByLayer
 62
  256
370
   -1
100
AcDbLine
 10
-8.660254037844386
 20
-3
 11
-9.660254037844386
 21
-6
  0
LINE
  5
8B
100
AcDbEntity
  8
0
  6
ByLayer
 62
  256
370
   -1
100
AcDbLine
 10
-8.660254037844386
 20
-3
 11
-7.660254037844386
 21
-6
  0
ARC
  5
8C
100
AcDbEntity
  8
Connection_and_Part
  6
ByLayer
 62
  256
370
   -1
100
AcDbCircle
 10
-10.27282815112159
 20
-6.612574113277205
 40
0.3874258867227951
100
AcDbArc
 50
269.9999999999991
 51
341.5651255102767
  0
LINE
  5
8D
100
AcDbEntity
  8
Connection_and_Part
  6
ByLayer
 62
  256
370
   -1
100
AcDbLine
 10
-10.66025403784439
 20
-7
 11
-10.2728281511216
 21
-7
  0
ARC
  5
8E
100
AcDbEntity
  8
Connection_and_Part
  6
ByLayer
 62
  256
370
   -1
100
AcDbCircle
 10
-7.047679924567177
 20
-6.612574113277205
 40
0.3874258867227951
100
AcDbArc
 50
198.4348744897233
 51
270.0000000000009
  0
LINE
  5
8F
100
AcDbEntity
  8
Connection_and_Part
  6
ByLayer
 62
  256
370
   -1
100
AcDbLine
 10
-6.660254037844386
 20
-7
 11
-7.047679924567172
 21
-7
  0
LINE
  5
90
100
AcDbEntity
  8
Connection_and_Part
  6
ByLayer
 62
  256
370
   -1
100
AcDbLine
 10
-9.660254037844386
 20
-6
 11
-9.905283524209553
 21
-6.7350884590955
  0
LINE
  5
91
100
AcDbEntity
  8
Connection_and_Part
  6
ByLayer
 62
  256
370
   -1
100
AcDbLine
 10
-7.660254037844386
 20
-6
 11
-7.415224551479218
 21
-6.7350884590955
  0
MTEXT
  5
92
100
AcDbEntity
  8
0
  6
ByLayer
 62
  256
370
   -1
100
AcDbMText
 10
-3.290896534380849
 20
-16.1
 30
0
 40
0.3
 41
1.266666666666713
 71
    5
 72
    1
  1
Capital
  7
standard
210
0
220
0
230
1
 50
0
 73
    2
 44
1
  0
CIRCLE
  5
93
100
AcDbEntity
  8
0
  6
ByLayer
 62
  256
370
   -1
100
AcDbCircle
 10
3.464101615137768
 20
-6
 40
1
  0
CIRCLE
  5
94
100
AcDbEntity
  8
0
  6
ByLayer
 62
  256
370
   -1
100
AcDbCircle
 10
13.85640646055101
 20
-6
 40
1
  0
LINE
  5
95
100
AcDbEntity
  8
Connection_point
  6
ByLayer
 62
  256
370
   -1
100
AcDbLine
 10
13.85640646055101
 20
-5
 11
12.35640646055101
 21
-5
  0
LINE
  5
96
100
AcDbEntity
  8
Connection_point
  6
ByLayer
 62
  256
370
   -1
100
AcDbLine
 10
4.964101615137768
 20
-5
 11
3.464101615137768
 21
-5
  0
MTEXT
  5
97
100
AcDbEntity
  8
0
  6
ByLayer
 62
  256
370
   -1
100
AcDbMText
 10
0.6803205071429437
 20
-18.59719825638467
 30
0
 40
0.3
 41
1.000000000000028
 71
    9
 72
    1
  1
Initial
  7
standard
210
0
220
0
230
1
 50
0
 73
    2
 44
1
  0
CIRCLE
  5
98
100
AcDbEntity
  8
0
  6
ByLayer
 62
  256
370
   -1
100
AcDbCircle
 10
12.66025403784438
 20
-13
 40
1
  0
ARC
  5
99
100
AcDbEntity
  8
Connection_point
  6
ByLayer
 62
  256
370
   -1
100
AcDbCircle
 10
10.66025403784438
 20
-13
 40
1
100
AcDbArc
 50
269.9999999999999
 51
0
  0
LINE
  5
9A
100
AcDbEntity
  8
0
  6
ByLayer
 62
  256
370
   -1
100
AcDbLine
 10
-4.464101615137775
 20
-10.99999994192051
 11
-2.464101615137742
 21
-10.99999988384102
  0
ARC
  5
9B
100
AcDbEntity
  8
0
  6
ByLayer
 62
  256
370
   -1
100
AcDbCircle
 10
-3.464101615137757
 20
-10.99999994192051
 40
1.000000000000018
100
AcDbArc
 50
3.327709633910726e-006
 51
180
  0
LINE
  5
9C
100
AcDbEntity
  8
0
  6
ByLayer
 62
  256
370
   -1
100
AcDbLine
 10
6.464101615137762
 20
-11
 11
6.464101615137761
 21
-13
  0
LINE
  5
9D
100
AcDbEntity
  8
0
  6
ByLayer
 62
  256
370
   -1
100
AcDbLine
 10
8.464101615137793
 20
-10.99999988384102
 11
8.4641016151378
 21
-13
  0
ARC
  5
9E
100
AcDbEntity
  8
0
  6
ByLayer
 62
  256
370
   -1
100
AcDbCircle
 10
7.46410161513778
 20
-13
 40
1.00000000000002
100
AcDbArc
 50
180.0000065232954
 51
359.9999907075873
  0
ARC
  5
9F
100
AcDbEntity
  8
Connection_point
  6
ByLayer
 62
  256
370
   -1
100
AcDbCircle
 10
5.464101615137757
 20
-13
 40
1
100
AcDbArc
 50
269.9999999999999
 51
0
  0
ARC
  5
A0
100
AcDbEntity
  8
0
  6
ByLayer
 62
  256
370
   -1
100
AcDbCircle
 10
7.464101615137777
 20
-10.99999994192051
 40
1.000000000000017
100
AcDbArc
 50
0
 51
180.0000000000001
  0
ELLIPSE
  5
A1
100
AcDbEntity
  8
0
  6
ByLayer
 62
  256
370
   -1
100
AcDbEllipse
 10
9.464101615137803
 20
-9.999999941920493
 30
0
 11
0
 21
-4.000000058079507
 31
0
 40
0.4999999927400681
 41
4.71238898038469
 42
5.71681560344164
  0
ELLIPSE
  5
A2
100
AcDbEntity
  8
Connection_point
  6
ByLayer
 62
  256
370
   -1
100
AcDbEllipse
 10
9.464101615137803
 20
-9.999999941920493
 30
0
 11
0
 21
-4.000000058079507
 31
0
 40
0.4999999927400681
 41
5.71681560344164
 42
3.673276960380889e-016
  0
ARC
  5
A3
100
AcDbEntity
  8
0
  6
ByLayer
 62
  256
370
   -1
100
AcDbCircle
 10
14.66025403784438
 20
-11.99999999999999
 40
2.000000000000014
100
AcDbArc
 50
180.0000000000001
 51
233.1301023541562
  0
ARC
  5
A4
100
AcDbEntity
  8
Connection_point
  6
ByLayer
 62
  256
370
   -1
100
AcDbCircle
 10
14.66025403784438
 20
-11.99999999999999
 40
2.000000000000014
100
AcDbArc
 50
233.1301023541562
 51
270.0000000000001
  0
MTEXT
  5
A5
100
AcDbEntity
  8
0
  6
ByLayer
 62
  256
370
   -1
100
AcDbMText
 10
7.637306695894683
 20
-9.1
 30
0
 40
0.3
 41
3.325000000000051
 71
    5
 72
    1
  1
Capital before\Plower connection
  7
standard
210
0
220
0
230
1
 50
0
 73
    2
 44
1
  0
MTEXT
  5
A6
100
AcDbEntity
  8
0
  6
ByLayer
 62
  256
370
   -1
100
AcDbMText
 10
12.83345911860131
 20
-10.1
 30
0
 40
0.3
 41
3.558333487619521
 71
    5
 72
    1
  1
Lowercase before\Plower connection
  7
standard
210
0
220
0
230
1
 50
0
 73
    2
 44
1
  0
MTEXT
  5
A7
100
AcDbEntity
  8
0
  6
ByLayer
 62
  256
370
   -1
100
AcDbMText
 10
1.905255888325783
 20
-10.1
 30
0
 40
0.3
 41
2.000000154286173
 71
    5
 72
    1
  1
Lowercase
  7
standard
210
0
220
0
230
1
 50
0
 73
    2
 44
1
  0
MTEXT
  5
A8
100
AcDbEntity
  8
0
  6
ByLayer
 62
  256
370
   -1
100
AcDbMText
 10
-3.290896534380849
 20
-9.1
 30
0
 40
0.3
 41
1.96666682095284
 71
    5
 72
    1
  1
Uppercase
  7
standard
210
0
220
0
230
1
 50
0
 73
    2
 44
1
  0
LINE
  5
A9
100
AcDbEntity
  8
0
  6
ByLayer
 62
  256
370
   -1
100
AcDbLine
 10
4.696152422706632
 20
-19
 11
5.696152422706632
 21
-19
  0
ARC
  5
AA
100
AcDbEntity
  8
0
  6
ByLayer
 62
  256
370
   -1
100
AcDbCircle
 10
4.696152422706632
 20
-19.5
 40
0.5
100
AcDbArc
 50
90
 51
180
  0
ARC
  5
AB
100
AcDbEntity
  8
0
  6
ByLayer
 62
  256
370
   -1
100
AcDbCircle
 10
5.696152422706632
 20
-19.5
 40
0.5
100
AcDbArc
 50
0
 51
90.0000000000001
  0
ELLIPSE
  5
AC
100
AcDbEntity
  8
Connection_and_Part
  6
ByLayer
 62
  256
370
   -1
100
AcDbEllipse
 10
7.196152422706633
 20
-19.5
 30
0
 11
-2.999999999999932
 21
0
 31
0
 40
0.5000000000000221
 41
2.448128505472269e-016
 42
1.570796326794896
  0
ELLIPSE
  5
AD
100
AcDbEntity
  8
Connection_and_Part
  6
ByLayer
 62
  256
370
   -1
100
AcDbEllipse
 10
3.196152422706629
 20
-19.5
 30
0
 11
3.000000000000058
 21
0
 31
0
 40
0.4999999999999903
 41
4.71238898038469
 42
0
  0
ENDSEC
  0
SECTION
  2
OBJECTS
  0
DICTIONARY
  5
C
330
0
100
AcDbDictionary
281
    1
  3
ACAD_GROUP
350
D
  0
DICTIONARY
  5
D
330
C
100
AcDbDictionary
281
    1
  0
ENDSEC
  0
EOF
