999
dxfrw 0.6.3
  0
SECTION
  2
HEADER
  9
$ACADVER
  1
AC1021
  9
$DWGCODEPAGE
  3
ANSI_1252
  9
$INSBASE
 10
0
 20
0
 30
0
  9
$EXTMIN
 10
-952.6279441628826
 20
-4097.277299375737
 30
0
  9
$EXTMAX
 10
719.6152422706637
 20
-400
 30
0
  9
$LIMMIN
 10
0
 20
0
  9
$LIMMAX
 10
420
 20
297
  9
$ORTHOMODE
 70
    0
  9
$REGENMODE
 70
    1
  9
$FILLMODE
 70
    1
  9
$QTEXTMODE
 70
    0
  9
$MIRRTEXT
 70
    0
  9
$LTSCALE
 40
1
  9
$ATTMODE
 70
    0
  9
$TEXTSIZE
 40
2.5
  9
$TRACEWID
 40
15.68
  9
$TEXTSTYLE
  7
STANDARD
  9
$CLAYER
  8
Font
  9
$CELTYPE
  6
BYLAYER
  9
$CECOLOR
 62
  256
  9
$CELTSCALE
 40
1
  9
$DISPSILH
 70
    0
  9
$DIMSCALE
 40
2.5
  9
$DIMASZ
 40
2.5
  9
$DIMEXO
 40
0.625
  9
$DIMDLI
 40
3.75
  9
$DIMRND
 40
0
  9
$DIMDLE
 40
0
  9
$DIMEXE
 40
1.25
  9
$DIMTP
 40
0
  9
$DIMTM
 40
0
  9
$DIMTXT
 40
2.5
  9
$DIMCEN
 40
2.5
  9
$DIMTSZ
 40
0
  9
$DIMTOL
 70
    0
  9
$DIMLIM
 70
    0
  9
$DIMTIH
 70
    0
  9
$DIMTOH
 70
    0
  9
$DIMSE1
 70
    0
  9
$DIMSE2
 70
    0
  9
$DIMTAD
 70
    1
  9
$DIMZIN
 70
    1
  9
$DIMBLK
  1

  9
$DIMASO
 70
    1
  9
$DIMSHO
 70
    1
  9
$DIMPOST
  1

  9
$DIMAPOST
  1

  9
$DIMALT
 70
    0
  9
$DIMALTD
 70
    3
  9
$DIMALTF
 40
0.03937
  9
$DIMLFAC
 40
1
  9
$DIMTOFL
 70
    1
  9
$DIMTVP
 40
0
  9
$DIMTIX
 70
    0
  9
$DIMSOXD
 70
    0
  9
$DIMSAH
 70
    0
  9
$DIMBLK1
  1

  9
$DIMBLK2
  1

  9
$DIMSTYLE
  2
STANDARD
  9
$DIMCLRD
 70
    0
  9
$DIMCLRE
 70
    0
  9
$DIMCLRT
 70
    0
  9
$DIMTFAC
 40
1
  9
$DIMGAP
 40
0.625
  9
$DIMJUST
 70
    0
  9
$DIMSD1
 70
    0
  9
$DIMSD2
 70
    0
  9
$DIMTOLJ
 70
    0
  9
$DIMTZIN
 70
    8
  9
$DIMALTZ
 70
    0
  9
$DIMALTTZ
 70
    0
  9
$DIMUPT
 70
    0
  9
$DIMDEC
 70
    4
  9
$DIMTDEC
 70
    2
  9
$DIMALTU
 70
    2
  9
$DIMALTTD
 70
    3
  9
$DIMTXSTY
  7
standard
  9
$DIMAUNIT
 70
    0
  9
$DIMADEC
 70
    2
  9
$DIMALTRND
 40
0
  9
$DIMAZIN
 70
    0
  9
$DIMDSEP
 70
   44
  9
$DIMATFIT
 70
    3
  9
$DIMFRAC
 70
    0
  9
$DIMLDRBLK
  1
STANDARD
  9
$DIMLUNIT
 70
    2
  9
$DIMLWD
 70
   -2
  9
$DIMLWE
 70
   -2
  9
$DIMTMOVE
 70
    0
  9
$DIMFXL
 40
1
  9
$DIMFXLON
 70
    0
  9
$DIMJOGANG
 40
0.7854
  9
$DIMTFILL
 70
    0
  9
$DIMTFILLCLR
 70
    0
  9
$DIMARCSYM
 70
    0
  9
$DIMLTYPE
  6

  9
$DIMLTEX1
  6

  9
$DIMLTEX2
  6

  9
$LUNITS
 70
    2
  9
$LUPREC
 70
    4
  9
$SKETCHINC
 40
1
  9
$FILLETRAD
 40
0
  9
$AUNITS
 70
    0
  9
$AUPREC
 70
    2
  9
$MENU
  1
.
  9
$ELEVATION
 40
0
  9
$PELEVATION
 40
0
  9
$THICKNESS
 40
0
  9
$LIMCHECK
 70
    0
  9
$CHAMFERA
 40
0
  9
$CHAMFERB
 40
0
  9
$CHAMFERC
 40
0
  9
$CHAMFERD
 40
0
  9
$SKPOLY
 70
    0
  9
$USRTIMER
 70
    1
  9
$ANGBASE
 50
0
  9
$ANGDIR
 70
    0
  9
$PDMODE
 70
   34
  9
$PDSIZE
 40
0
  9
$PLINEWID
 40
0
  9
$SPLFRAME
 70
    0
  9
$SPLINETYPE
 70
    2
  9
$SPLINESEGS
 70
    8
  9
$HANDSEED
  5
20000
  9
$SURFTAB1
 70
    6
  9
$SURFTAB2
 70
    6
  9
$SURFTYPE
 70
    6
  9
$SURFU
 70
    6
  9
$SURFV
 70
    6
  9
$UCSBASE
  2

  9
$UCSNAME
  2

  9
$UCSORG
 10
0
 20
0
 30
0
  9
$UCSXDIR
 10
1
 20
0
 30
0
  9
$UCSYDIR
 10
0
 20
1
 30
0
  9
$UCSORTHOREF
  2

  9
$UCSORTHOVIEW
 70
    0
  9
$UCSORGTOP
 10
0
 20
0
 30
0
  9
$UCSORGBOTTOM
 10
0
 20
0
 30
0
  9
$UCSORGLEFT
 10
0
 20
0
 30
0
  9
$UCSORGRIGHT
 10
0
 20
0
 30
0
  9
$UCSORGFRONT
 10
0
 20
0
 30
0
  9
$UCSORGBACK
 10
0
 20
0
 30
0
  9
$PUCSBASE
  2

  9
$PUCSNAME
  2

  9
$PUCSORG
 10
0
 20
0
 30
0
  9
$PUCSXDIR
 10
1
 20
0
 30
0
  9
$PUCSYDIR
 10
0
 20
1
 30
0
  9
$PUCSORTHOREF
  2

  9
$PUCSORTHOVIEW
 70
    0
  9
$PUCSORGTOP
 10
0
 20
0
 30
0
  9
$PUCSORGBOTTOM
 10
0
 20
0
 30
0
  9
$PUCSORGLEFT
 10
0
 20
0
 30
0
  9
$PUCSORGRIGHT
 10
0
 20
0
 30
0
  9
$PUCSORGFRONT
 10
0
 20
0
 30
0
  9
$PUCSORGBACK
 10
0
 20
0
 30
0
  9
$USERI1
 70
    0
  9
$USERI2
 70
    0
  9
$USERI3
 70
    0
  9
$USERI4
 70
    0
  9
$USERI5
 70
    0
  9
$USERR1
 40
0
  9
$USERR2
 40
0
  9
$USERR3
 40
0
  9
$USERR4
 40
0
  9
$USERR5
 40
0
  9
$WORLDVIEW
 70
    1
  9
$SHADEDGE
 70
    3
  9
$SHADEDIF
 70
   70
  9
$TILEMODE
 70
    1
  9
$MAXACTVP
 70
   64
  9
$PINSBASE
 10
87.62309862796866
 20
274.2744360902255
 30
0
  9
$PLIMCHECK
 70
    0
  9
$PEXTMIN
 10
0
 20
0
 30
0
  9
$PEXTMAX
 10
0
 20
0
 30
0
  9
$GRIDMODE
 70
    1
  9
$SNAPSTYLE
 70
    1
  9
$GRIDUNIT
 10
0
 20
0
  9
$PLIMMIN
 10
0
 20
0
  9
$PLIMMAX
 10
210
 20
297
  9
$UNITMODE
 70
    0
  9
$VISRETAIN
 70
    1
  9
$PLINEGEN
 70
    0
  9
$PSLTSCALE
 70
    1
  9
$TREEDEPTH
 70
 3020
  9
$CMLSTYLE
  2
Standard
  9
$CMLJUST
 70
    0
  9
$CMLSCALE
 40
20
  9
$PROXYGRAPHICS
 70
    1
  9
$MEASUREMENT
 70
    1
  9
$CELWEIGHT
370
   -1
  9
$ENDCAPS
280
    0
  9
$JOINSTYLE
280
    0
  9
$LWDISPLAY
290
    0
  9
$INSUNITS
 70
    4
  9
$HYPERLINKBASE
  1

  9
$STYLESHEET
  1

  9
$XEDIT
290
    1
  9
$CEPSNTYPE
380
    0
  9
$PSTYLEMODE
290
    1
  9
$EXTNAMES
290
    1
  9
$PSVPSCALE
 40
0.06817050807479667
  9
$OLESTARTUP
290
    0
  9
$SORTENTS
280
  127
  9
$INDEXCTL
280
    0
  9
$HIDETEXT
280
    1
  9
$XCLIPFRAME
290
    0
  9
$HALOGAP
280
    0
  9
$OBSCOLOR
 70
  257
  9
$OBSLTYPE
280
    0
  9
$INTERSECTIONDISPLAY
280
    0
  9
$INTERSECTIONCOLOR
 70
  257
  9
$DIMASSOC
280
    1
  9
$PROJECTNAME
  1

  9
$CAMERADISPLAY
290
    0
  9
$LENSLENGTH
 40
50
  9
$CAMERAHEIGHT
 40
0
  9
$STEPSPERSEC
 40
2
  9
$STEPSIZE
 40
50
  9
$3DDWFPREC
 40
2
  9
$PSOLWIDTH
 40
5
  9
$PSOLHEIGHT
 40
80
  9
$LOFTANG1
 40
1.570796326794897
  9
$LOFTANG2
 40
1.570796326794897
  9
$LOFTMAG1
 40
0
  9
$LOFTMAG2
 40
0
  9
$LOFTPARAM
 70
    7
  9
$LOFTNORMALS
280
    1
  9
$LATITUDE
 40
1
  9
$LONGITUDE
 40
1
  9
$NORTHDIRECTION
 40
0
  9
$TIMEZONE
 70
-8000
  9
$LIGHTGLYPHDISPLAY
280
    1
  9
$TILEMODELIGHTSYNCH
280
    1
  9
$SOLIDHIST
280
    1
  9
$SHOWHIST
280
    1
  9
$DWFFRAME
280
    2
  9
$DGNFRAME
280
    0
  9
$REALWORLDSCALE
290
    1
  9
$INTERFERECOLOR
 62
    1
  9
$CSHADOW
280
    0
  9
$SHADOWPLANELOCATION
 40
0
  0
ENDSEC
  0
SECTION
  2
CLASSES
  0
ENDSEC
  0
SECTION
  2
TABLES
  0
TABLE
  2
VPORT
  5
8
330
0
100
AcDbSymbolTable
 70
    1
  0
VPORT
  5
31
330
2
100
AcDbSymbolTableRecord
100
AcDbViewportTableRecord
  2
*ACTIVE
 70
    0
 10
0
 20
0
 11
1
 21
1
 12
2463.250979973705
 22
-148.8514237411011
 13
0
 23
0
 14
10
 24
10
 15
10
 25
10
 16
0
 26
0
 36
1
 17
0
 27
0
 37
0
 40
3889.343652590061
 41
2.592592592592593
 42
50
 43
0
 44
0
 50
0
 51
0
 71
    0
 72
  100
 73
    1
 74
    3
 75
    0
 76
    1
 77
    1
 78
    0
281
    0
 65
    1
110
0
120
0
130
0
111
1
121
0
131
0
112
0
122
1
132
0
 79
    0
146
0
348
10020
 60
    7
 61
    5
292
1
282
    1
141
0
142
0
 63
  250
421
3358443
  0
ENDTAB
  0
TABLE
  2
LTYPE
  5
5
330
0
100
AcDbSymbolTable
 70
    4
  0
LTYPE
  5
14
330
5
100
AcDbSymbolTableRecord
100
AcDbLinetypeTableRecord
  2
ByBlock
 70
    0
  3

 72
   65
 73
    0
 40
0
  0
LTYPE
  5
15
330
5
100
AcDbSymbolTableRecord
100
AcDbLinetypeTableRecord
  2
ByLayer
 70
    0
  3

 72
   65
 73
    0
 40
0
  0
LTYPE
  5
16
330
5
100
AcDbSymbolTableRecord
100
AcDbLinetypeTableRecord
  2
Continuous
 70
    0
  3
Solid line
 72
   65
 73
    0
 40
0
  0
LTYPE
  5
32
330
5
100
AcDbSymbolTableRecord
100
AcDbLinetypeTableRecord
  2
DOT
 70
    0
  3
Dot . . . . . . . . . . . . . . . . . . . . . .
 72
   65
 73
    2
 40
6.35
 49
0
 74
    0
 49
-6.35
 74
    0
  0
LTYPE
  5
33
330
5
100
AcDbSymbolTableRecord
100
AcDbLinetypeTableRecord
  2
DOTTINY
 70
    0
  3
Dot (.15x) .....................................
 72
   65
 73
    2
 40
0.9525
 49
0
 74
    0
 49
-0.9525
 74
    0
  0
LTYPE
  5
34
330
5
100
AcDbSymbolTableRecord
100
AcDbLinetypeTableRecord
  2
DOT2
 70
    0
  3
Dot (.5x) .....................................
 72
   65
 73
    2
 40
3.175
 49
0
 74
    0
 49
-3.175
 74
    0
  0
LTYPE
  5
35
330
5
100
AcDbSymbolTableRecord
100
AcDbLinetypeTableRecord
  2
DOTX2
 70
    0
  3
Dot (2x) .  .  .  .  .  .  .  .  .  .  .  .  .
 72
   65
 73
    2
 40
12.7
 49
0
 74
    0
 49
-12.7
 74
    0
  0
LTYPE
  5
36
330
5
100
AcDbSymbolTableRecord
100
AcDbLinetypeTableRecord
  2
DASHED
 70
    0
  3
Dashed _ _ _ _ _ _ _ _ _ _ _ _ _ _ _ _ _
 72
   65
 73
    2
 40
19.05
 49
12.7
 74
    0
 49
-6.35
 74
    0
  0
LTYPE
  5
37
330
5
100
AcDbSymbolTableRecord
100
AcDbLinetypeTableRecord
  2
DASHEDTINY
 70
    0
  3
Dashed (.15x) _ _ _ _ _ _ _ _ _ _ _ _ _ _ _ _ _
 72
   65
 73
    2
 40
2.8575
 49
1.905
 74
    0
 49
-0.9525
 74
    0
  0
LTYPE
  5
38
330
5
100
AcDbSymbolTableRecord
100
AcDbLinetypeTableRecord
  2
DASHED2
 70
    0
  3
Dashed (.5x) _ _ _ _ _ _ _ _ _ _ _ _ _ _ _ _ _
 72
   65
 73
    2
 40
9.524999999999999
 49
6.35
 74
    0
 49
-3.175
 74
    0
  0
LTYPE
  5
39
330
5
100
AcDbSymbolTableRecord
100
AcDbLinetypeTableRecord
  2
DASHEDX2
 70
    0
  3
Dashed (2x) ____  ____  ____  ____  ____  ___
 72
   65
 73
    2
 40
38.09999999999999
 49
25.4
 74
    0
 49
-12.7
 74
    0
  0
LTYPE
  5
3A
330
5
100
AcDbSymbolTableRecord
100
AcDbLinetypeTableRecord
  2
DASHDOT
 70
    0
  3
Dash dot __ . __ . __ . __ . __ . __ . __ . __
 72
   65
 73
    4
 40
25.4
 49
12.7
 74
    0
 49
-6.35
 74
    0
 49
0
 74
    0
 49
-6.35
 74
    0
  0
LTYPE
  5
3B
330
5
100
AcDbSymbolTableRecord
100
AcDbLinetypeTableRecord
  2
DASHDOTTINY
 70
    0
  3
Dash dot (.15x) _._._._._._._._._._._._._._._.
 72
   65
 73
    4
 40
3.81
 49
1.905
 74
    0
 49
-0.9525
 74
    0
 49
0
 74
    0
 49
-0.9525
 74
    0
  0
LTYPE
  5
3C
330
5
100
AcDbSymbolTableRecord
100
AcDbLinetypeTableRecord
  2
DASHDOT2
 70
    0
  3
Dash dot (.5x) _._._._._._._._._._._._._._._.
 72
   65
 73
    4
 40
12.7
 49
6.35
 74
    0
 49
-3.175
 74
    0
 49
0
 74
    0
 49
-3.175
 74
    0
  0
LTYPE
  5
3D
330
5
100
AcDbSymbolTableRecord
100
AcDbLinetypeTableRecord
  2
DASHDOTX2
 70
    0
  3
Dash dot (2x) ____  .  ____  .  ____  .  ___
 72
   65
 73
    4
 40
50.8
 49
25.4
 74
    0
 49
-12.7
 74
    0
 49
0
 74
    0
 49
-12.7
 74
    0
  0
LTYPE
  5
3E
330
5
100
AcDbSymbolTableRecord
100
AcDbLinetypeTableRecord
  2
DIVIDE
 70
    0
  3
Divide ____ . . ____ . . ____ . . ____ . . ____
 72
   65
 73
    6
 40
31.75
 49
12.7
 74
    0
 49
-6.35
 74
    0
 49
0
 74
    0
 49
-6.35
 74
    0
 49
0
 74
    0
 49
-6.35
 74
    0
  0
LTYPE
  5
3F
330
5
100
AcDbSymbolTableRecord
100
AcDbLinetypeTableRecord
  2
DIVIDETINY
 70
    0
  3
Divide (.15x) __..__..__..__..__..__..__..__.._
 72
   65
 73
    6
 40
4.7625
 49
1.905
 74
    0
 49
-0.9525
 74
    0
 49
0
 74
    0
 49
-0.9525
 74
    0
 49
0
 74
    0
 49
-0.9525
 74
    0
  0
LTYPE
  5
40
330
5
100
AcDbSymbolTableRecord
100
AcDbLinetypeTableRecord
  2
DIVIDE2
 70
    0
  3
Divide (.5x) __..__..__..__..__..__..__..__.._
 72
   65
 73
    6
 40
15.875
 49
6.35
 74
    0
 49
-3.175
 74
    0
 49
0
 74
    0
 49
-3.175
 74
    0
 49
0
 74
    0
 49
-3.175
 74
    0
  0
LTYPE
  5
41
330
5
100
AcDbSymbolTableRecord
100
AcDbLinetypeTableRecord
  2
DIVIDEX2
 70
    0
  3
Divide (2x) ________  .  .  ________  .  .  _
 72
   65
 73
    6
 40
63.5
 49
25.4
 74
    0
 49
-12.7
 74
    0
 49
0
 74
    0
 49
-12.7
 74
    0
 49
0
 74
    0
 49
-12.7
 74
    0
  0
LTYPE
  5
42
330
5
100
AcDbSymbolTableRecord
100
AcDbLinetypeTableRecord
  2
BORDER
 70
    0
  3
Border __ __ . __ __ . __ __ . __ __ . __ __ .
 72
   65
 73
    6
 40
44.45
 49
12.7
 74
    0
 49
-6.35
 74
    0
 49
12.7
 74
    0
 49
-6.35
 74
    0
 49
0
 74
    0
 49
-6.35
 74
    0
  0
LTYPE
  5
43
330
5
100
AcDbSymbolTableRecord
100
AcDbLinetypeTableRecord
  2
BORDERTINY
 70
    0
  3
Border (.15x) __.__.__.__.__.__.__.__.__.__.__.
 72
   65
 73
    6
 40
6.6675
 49
1.905
 74
    0
 49
-0.9525
 74
    0
 49
1.905
 74
    0
 49
-0.9525
 74
    0
 49
0
 74
    0
 49
-0.9525
 74
    0
  0
LTYPE
  5
44
330
5
100
AcDbSymbolTableRecord
100
AcDbLinetypeTableRecord
  2
BORDER2
 70
    0
  3
Border (.5x) __.__.__.__.__.__.__.__.__.__.__.
 72
   65
 73
    6
 40
22.225
 49
6.35
 74
    0
 49
-3.175
 74
    0
 49
6.35
 74
    0
 49
-3.175
 74
    0
 49
0
 74
    0
 49
-3.175
 74
    0
  0
LTYPE
  5
45
330
5
100
AcDbSymbolTableRecord
100
AcDbLinetypeTableRecord
  2
BORDERX2
 70
    0
  3
Border (2x) ____  ____  .  ____  ____  .  ___
 72
   65
 73
    6
 40
88.89999999999999
 49
25.4
 74
    0
 49
-12.7
 74
    0
 49
25.4
 74
    0
 49
-12.7
 74
    0
 49
0
 74
    0
 49
-12.7
 74
    0
  0
LTYPE
  5
46
330
5
100
AcDbSymbolTableRecord
100
AcDbLinetypeTableRecord
  2
CENTER
 70
    0
  3
Center ____ _ ____ _ ____ _ ____ _ ____ _ ____
 72
   65
 73
    4
 40
50.8
 49
31.75
 74
    0
 49
-6.35
 74
    0
 49
6.35
 74
    0
 49
-6.35
 74
    0
  0
LTYPE
  5
47
330
5
100
AcDbSymbolTableRecord
100
AcDbLinetypeTableRecord
  2
CENTERTINY
 70
    0
  3
Center (.15x) ___ _ ___ _ ___ _ ___ _ ___ _ ___
 72
   65
 73
    4
 40
7.619999999999999
 49
4.7625
 74
    0
 49
-0.9525
 74
    0
 49
0.9525
 74
    0
 49
-0.9525
 74
    0
  0
LTYPE
  5
48
330
5
100
AcDbSymbolTableRecord
100
AcDbLinetypeTableRecord
  2
CENTER2
 70
    0
  3
Center (.5x) ___ _ ___ _ ___ _ ___ _ ___ _ ___
 72
   65
 73
    4
 40
28.575
 49
19.05
 74
    0
 49
-3.175
 74
    0
 49
3.175
 74
    0
 49
-3.175
 74
    0
  0
LTYPE
  5
49
330
5
100
AcDbSymbolTableRecord
100
AcDbLinetypeTableRecord
  2
CENTERX2
 70
    0
  3
Center (2x) ________  __  ________  __  _____
 72
   65
 73
    4
 40
101.6
 49
63.5
 74
    0
 49
-12.7
 74
    0
 49
12.7
 74
    0
 49
-12.7
 74
    0
  0
ENDTAB
  0
TABLE
  2
LAYER
  5
2
330
0
100
AcDbSymbolTable
 70
    1
  0
LAYER
  5
10
330
2
100
AcDbSymbolTableRecord
100
AcDbLayerTableRecord
  2
0
 70
    0
 62
    6
  6
CONTINUOUS
370
    0
390
F
  0
LAYER
  5
4A
330
2
100
AcDbSymbolTableRecord
100
AcDbLayerTableRecord
  2
Font
 70
    0
 62
    7
  6
CONTINUOUS
370
    0
390
F
  0
LAYER
  5
4B
330
2
100
AcDbSymbolTableRecord
100
AcDbLayerTableRecord
  2
Markings
 70
    0
 62
    6
  6
CONTINUOUS
370
    0
390
F
  0
LAYER
  5
4C
330
2
100
AcDbSymbolTableRecord
100
AcDbLayerTableRecord
  2
Red_Heart
 70
    0
 62
    1
  6
CONTINUOUS
370
    0
390
F
  0
ENDTAB
  0
TABLE
  2
STYLE
  5
3
330
0
100
AcDbSymbolTable
 70
    3
  0
STYLE
  5
4D
330
2
100
AcDbSymbolTableRecord
100
AcDbTextStyleTableRecord
  2
standard
 70
    0
 40
0
 41
1
 50
0
 71
    0
 42
1
  3
standard
  4

  0
ENDTAB
  0
TABLE
  2
VIEW
  5
6
330
0
100
AcDbSymbolTable
 70
    0
  0
ENDTAB
  0
TABLE
  2
UCS
  5
7
330
0
100
AcDbSymbolTable
 70
    0
  0
ENDTAB
  0
TABLE
  2
APPID
  5
9
330
0
100
AcDbSymbolTable
 70
    1
  0
APPID
  5
12
330
9
100
AcDbSymbolTableRecord
100
AcDbRegAppTableRecord
  2
ACAD
 70
    0
  0
APPID
  5
4E
330
9
100
AcDbSymbolTableRecord
100
AcDbRegAppTableRecord
  2
LibreCad
 70
    0
  0
ENDTAB
  0
TABLE
  2
DIMSTYLE
  5
A
330
0
100
AcDbSymbolTable
 70
    1
100
AcDbDimStyleTable
 71
    1
  0
DIMSTYLE
105
4F
330
A
100
AcDbSymbolTableRecord
100
AcDbDimStyleTableRecord
  2
Standard
 70
    0
 40
2.5
 41
2.5
 42
0.625
 43
0.38
 44
1.25
 45
0
 46
0
 47
0
 48
0
 49
1
140
2.5
141
0.09
142
0
143
25.4
144
1
145
0
146
1
147
0.625
148
0
 71
    0
 72
    0
 73
    0
 74
    1
 75
    0
 76
    0
 77
    0
 78
    1
 79
    0
170
    0
171
    2
172
    0
173
    0
174
    0
175
    0
176
    0
177
    0
178
    0
179
    2
271
    4
272
    4
273
    2
274
    2
275
    0
276
    0
277
    2
278
   44
279
    0
280
    0
281
    0
282
    0
283
    1
284
    0
285
    0
286
    0
288
    0
289
    3
340
standard
341

371
   -2
372
   -2
  0
ENDTAB
  0
TABLE
  2
BLOCK_RECORD
  5
1
330
0
100
AcDbSymbolTable
 70
    2
  0
BLOCK_RECORD
  5
1F
330
1
100
AcDbSymbolTableRecord
100
AcDbBlockTableRecord
  2
*Model_Space
 70
    0
280
    1
281
    0
  0
BLOCK_RECORD
  5
1E
330
1
100
AcDbSymbolTableRecord
100
AcDbBlockTableRecord
  2
*Paper_Space
 70
    0
280
    1
281
    0
  0
ENDTAB
  0
ENDSEC
  0
SECTION
  2
BLOCKS
  0
BLOCK
  5
20
330
1F
100
AcDbEntity
  8
0
100
AcDbBlockBegin
  2
*Model_Space
 70
    0
 10
0
 20
0
 30
0
  3
*Model_Space
  1

  0
ENDBLK
  5
21
330
1F
100
AcDbEntity
  8
0
100
AcDbBlockEnd
  0
BLOCK
  5
1C
330
1B
100
AcDbEntity
  8
0
100
AcDbBlockBegin
  2
*Paper_Space
 70
    0
 10
0
 20
0
 30
0
  3
*Paper_Space
  1

  0
ENDBLK
  5
1D
330
1F
100
AcDbEntity
  8
0
100
AcDbBlockEnd
  0
ENDSEC
  0
SECTION
  2
ENTITIES
  0
HATCH
  5
50
100
AcDbEntity
  8
Red_Heart
  6
ByLayer
 62
  256
370
   -1
100
AcDbHatch
 10
0
 20
0
 30
0
210
0
220
0
230
1
  2
SOLID
 70
    1
 71
    0
 91
    1
 92
    0
 93
    4
 72
    1
 10
-459.6152422706631
 20
-907.5
 11
-419.6152422706631
 21
-937.5
 72
    1
 10
-419.6152422706631
 20
-937.5
 11
-379.6152422706623
 21
-907.4999999999986
 72
    2
 10
-394.6152422706617
 20
-887.5
 40
24.99999999999864
 50
306.8698976458448
 51
180
 73
    1
 72
    2
 10
-444.6152422706631
 20
-887.5
 40
25
 50
0
 51
233.130102354156
 73
    1
 97
    0
 75
    0
 76
    1
 98
    0
  0
LINE
  5
51
100
AcDbEntity
  8
Markings
  6
ByLayer
 62
  256
370
   -1
100
AcDbLine
 10
-173.2050807568876
 20
-400
 11
-173.2050807568876
 21
-600
  0
LINE
  5
52
100
AcDbEntity
  8
Markings
  6
ByLayer
 62
  256
370
   -1
100
AcDbLine
 10
26.79491924311242
 20
-400.0000000000001
 11
26.79491924311242
 21
-600
  0
LINE
  5
53
100
AcDbEntity
  8
Markings
  6
ByLayer
 62
  256
370
   -1
100
AcDbLine
 10
-173.2050807568876
 20
-400
 11
26.79491924311242
 21
-400.0000000000001
  0
LINE
  5
54
100
AcDbEntity
  8
Markings
  6
ByLayer
 62
  256
370
   -1
100
AcDbLine
 10
-173.2050807568876
 20
-600
 11
26.79491924311242
 21
-600
  0
LINE
  5
55
100
AcDbEntity
  8
Markings
  6
ByLayer
 62
  256
370
   -1
100
AcDbLine
 10
173.2050807568879
 20
-400
 11
173.2050807568879
 21
-600
  0
LINE
  5
56
100
AcDbEntity
  8
Markings
  6
ByLayer
 62
  256
370
   -1
100
AcDbLine
 10
373.2050807568879
 20
-400.0000000000001
 11
373.2050807568879
 21
-600
  0
LINE
  5
57
100
AcDbEntity
  8
Markings
  6
ByLayer
 62
  256
370
   -1
100
AcDbLine
 10
173.2050807568879
 20
-400
 11
373.2050807568879
 21
-400.0000000000001
  0
LINE
  5
58
100
AcDbEntity
  8
Markings
  6
ByLayer
 62
  256
370
   -1
100
AcDbLine
 10
173.2050807568879
 20
-600
 11
373.2050807568879
 21
-600
  0
LINE
  5
59
100
AcDbEntity
  8
Markings
  6
ByLayer
 62
  256
370
   -1
100
AcDbLine
 10
-173.2050807568876
 20
-800
 11
-173.2050807568876
 21
-1000
  0
LINE
  5
5A
100
AcDbEntity
  8
Markings
  6
ByLayer
 62
  256
370
   -1
100
AcDbLine
 10
26.79491924311242
 20
-800.0000000000001
 11
26.79491924311242
 21
-1000
  0
LINE
  5
5B
100
AcDbEntity
  8
Markings
  6
ByLayer
 62
  256
370
   -1
100
AcDbLine
 10
-173.2050807568876
 20
-800
 11
26.79491924311242
 21
-800.0000000000001
  0
LINE
  5
5C
100
AcDbEntity
  8
Markings
  6
ByLayer
 62
  256
370
   -1
100
AcDbLine
 10
-173.2050807568876
 20
-1000
 11
26.79491924311242
 21
-1000
  0
LINE
  5
5D
100
AcDbEntity
  8
Markings
  6
ByLayer
 62
  256
370
   -1
100
AcDbLine
 10
173.2050807568879
 20
-800
 11
173.2050807568879
 21
-1000
  0
LINE
  5
5E
100
AcDbEntity
  8
Markings
  6
ByLayer
 62
  256
370
   -1
100
AcDbLine
 10
373.2050807568879
 20
-800.0000000000001
 11
373.2050807568879
 21
-1000
  0
LINE
  5
5F
100
AcDbEntity
  8
Markings
  6
ByLayer
 62
  256
370
   -1
100
AcDbLine
 10
173.2050807568879
 20
-1000
 11
373.2050807568879
 21
-1000
  0
LINE
  5
60
100
AcDbEntity
  8
Markings
  6
ByLayer
 62
  256
370
   -1
100
AcDbLine
 10
-519.6152422706631
 20
-800
 11
-519.6152422706631
 21
-1000
  0
LINE
  5
61
100
AcDbEntity
  8
Markings
  6
ByLayer
 62
  256
370
   -1
100
AcDbLine
 10
-319.6152422706631
 20
-800.0000000000001
 11
-319.6152422706631
 21
-1000
  0
LINE
  5
62
100
AcDbEntity
  8
Markings
  6
ByLayer
 62
  256
370
   -1
100
AcDbLine
 10
-519.6152422706631
 20
-800
 11
-319.6152422706631
 21
-800.0000000000001
  0
LINE
  5
63
100
AcDbEntity
  8
Markings
  6
ByLayer
 62
  256
370
   -1
100
AcDbLine
 10
-519.6152422706631
 20
-1000
 11
-319.6152422706631
 21
-1000
  0
LINE
  5
64
100
AcDbEntity
  8
Markings
  6
ByLayer
 62
  256
370
   -1
100
AcDbLine
 10
-173.2050807568879
 20
-1200
 11
-173.2050807568879
 21
-1400
  0
LINE
  5
65
100
AcDbEntity
  8
Markings
  6
ByLayer
 62
  256
370
   -1
100
AcDbLine
 10
26.79491924311214
 20
-1200
 11
26.79491924311214
 21
-1400
  0
LINE
  5
66
100
AcDbEntity
  8
Markings
  6
ByLayer
 62
  256
370
   -1
100
AcDbLine
 10
-173.2050807568879
 20
-1200
 11
26.79491924311214
 21
-1200
  0
LINE
  5
67
100
AcDbEntity
  8
Markings
  6
ByLayer
 62
  256
370
   -1
100
AcDbLine
 10
-173.2050807568879
 20
-1400
 11
26.79491924311214
 21
-1400
  0
LINE
  5
68
100
AcDbEntity
  8
Markings
  6
ByLayer
 62
  256
370
   -1
100
AcDbLine
 10
173.2050807568876
 20
-1200
 11
173.2050807568876
 21
-1400
  0
LINE
  5
69
100
AcDbEntity
  8
Markings
  6
ByLayer
 62
  256
370
   -1
100
AcDbLine
 10
373.2050807568876
 20
-1200
 11
373.2050807568876
 21
-1400
  0
LINE
  5
6A
100
AcDbEntity
  8
Markings
  6
ByLayer
 62
  256
370
   -1
100
AcDbLine
 10
173.2050807568876
 20
-1200
 11
373.2050807568876
 21
-1200
  0
LINE
  5
6B
100
AcDbEntity
  8
Markings
  6
ByLayer
 62
  256
370
   -1
100
AcDbLine
 10
173.2050807568876
 20
-1400
 11
373.2050807568876
 21
-1400
  0
LINE
  5
6C
100
AcDbEntity
  8
Markings
  6
ByLayer
 62
  256
370
   -1
100
AcDbLine
 10
-173.2050807568879
 20
-1600
 11
-173.2050807568879
 21
-1800
  0
LINE
  5
6D
100
AcDbEntity
  8
Markings
  6
ByLayer
 62
  256
370
   -1
100
AcDbLine
 10
26.79491924311214
 20
-1600
 11
26.79491924311214
 21
-1800
  0
LINE
  5
6E
100
AcDbEntity
  8
Markings
  6
ByLayer
 62
  256
370
   -1
100
AcDbLine
 10
-173.2050807568879
 20
-1600
 11
26.79491924311214
 21
-1600
  0
LINE
  5
6F
100
AcDbEntity
  8
Markings
  6
ByLayer
 62
  256
370
   -1
100
AcDbLine
 10
-173.2050807568879
 20
-1800
 11
26.79491924311214
 21
-1800
  0
LINE
  5
70
100
AcDbEntity
  8
Markings
  6
ByLayer
 62
  256
370
   -1
100
AcDbLine
 10
173.2050807568876
 20
-1600
 11
173.2050807568876
 21
-1800
  0
LINE
  5
71
100
AcDbEntity
  8
Markings
  6
ByLayer
 62
  256
370
   -1
100
AcDbLine
 10
373.2050807568876
 20
-1600
 11
373.2050807568876
 21
-1800
  0
LINE
  5
72
100
AcDbEntity
  8
Markings
  6
ByLayer
 62
  256
370
   -1
100
AcDbLine
 10
173.2050807568876
 20
-1600
 11
373.2050807568876
 21
-1600
  0
LINE
  5
73
100
AcDbEntity
  8
Markings
  6
ByLayer
 62
  256
370
   -1
100
AcDbLine
 10
173.2050807568876
 20
-1800
 11
373.2050807568876
 21
-1800
  0
LINE
  5
74
100
AcDbEntity
  8
Markings
  6
ByLayer
 62
  256
370
   -1
100
AcDbLine
 10
-519.6152422706631
 20
-1200
 11
-519.6152422706631
 21
-1400
  0
LINE
  5
75
100
AcDbEntity
  8
Markings
  6
ByLayer
 62
  256
370
   -1
100
AcDbLine
 10
-319.6152422706631
 20
-1200
 11
-319.6152422706631
 21
-1400
  0
LINE
  5
76
100
AcDbEntity
  8
Markings
  6
ByLayer
 62
  256
370
   -1
100
AcDbLine
 10
-519.6152422706631
 20
-1200
 11
-319.6152422706631
 21
-1200
  0
LINE
  5
77
100
AcDbEntity
  8
Markings
  6
ByLayer
 62
  256
370
   -1
100
AcDbLine
 10
-519.6152422706631
 20
-1400
 11
-319.6152422706631
 21
-1400
  0
LINE
  5
78
100
AcDbEntity
  8
Markings
  6
ByLayer
 62
  256
370
   -1
100
AcDbLine
 10
-519.6152422706631
 20
-1600
 11
-519.6152422706631
 21
-1800
  0
LINE
  5
79
100
AcDbEntity
  8
Markings
  6
ByLayer
 62
  256
370
   -1
100
AcDbLine
 10
-319.6152422706631
 20
-1600
 11
-319.6152422706631
 21
-1800
  0
LINE
  5
7A
100
AcDbEntity
  8
Markings
  6
ByLayer
 62
  256
370
   -1
100
AcDbLine
 10
-519.6152422706631
 20
-1600
 11
-319.6152422706631
 21
-1600
  0
LINE
  5
7B
100
AcDbEntity
  8
Markings
  6
ByLayer
 62
  256
370
   -1
100
AcDbLine
 10
-519.6152422706631
 20
-1800
 11
-319.6152422706631
 21
-1800
  0
LINE
  5
7C
100
AcDbEntity
  8
Markings
  6
ByLayer
 62
  256
370
   -1
100
AcDbLine
 10
-519.6152422706633
 20
-400
 11
-519.6152422706633
 21
-600
  0
LINE
  5
7D
100
AcDbEntity
  8
Markings
  6
ByLayer
 62
  256
370
   -1
100
AcDbLine
 10
-319.6152422706633
 20
-400
 11
-319.6152422706633
 21
-600
  0
LINE
  5
7E
100
AcDbEntity
  8
Markings
  6
ByLayer
 62
  256
370
   -1
100
AcDbLine
 10
-519.6152422706633
 20
-400
 11
-319.6152422706633
 21
-400
  0
LINE
  5
7F
100
AcDbEntity
  8
Markings
  6
ByLayer
 62
  256
370
   -1
100
AcDbLine
 10
-519.6152422706633
 20
-600
 11
-319.6152422706633
 21
-600
  0
LINE
  5
80
100
AcDbEntity
  8
Markings
  6
ByLayer
 62
  256
370
   -1
100
AcDbLine
 10
-173.2050807568879
 20
-2000
 11
-173.2050807568879
 21
-2200
  0
LINE
  5
81
100
AcDbEntity
  8
Markings
  6
ByLayer
 62
  256
370
   -1
100
AcDbLine
 10
26.79491924311214
 20
-2000
 11
26.79491924311214
 21
-2200
  0
LINE
  5
82
100
AcDbEntity
  8
Markings
  6
ByLayer
 62
  256
370
   -1
100
AcDbLine
 10
-173.2050807568879
 20
-2000
 11
26.79491924311214
 21
-2000
  0
LINE
  5
83
100
AcDbEntity
  8
Markings
  6
ByLayer
 62
  256
370
   -1
100
AcDbLine
 10
-173.2050807568879
 20
-2200
 11
26.79491924311214
 21
-2200
  0
LINE
  5
84
100
AcDbEntity
  8
Markings
  6
ByLayer
 62
  256
370
   -1
100
AcDbLine
 10
173.2050807568876
 20
-2000
 11
173.2050807568876
 21
-2200
  0
LINE
  5
85
100
AcDbEntity
  8
Markings
  6
ByLayer
 62
  256
370
   -1
100
AcDbLine
 10
373.2050807568876
 20
-2000
 11
373.2050807568876
 21
-2200
  0
LINE
  5
86
100
AcDbEntity
  8
Markings
  6
ByLayer
 62
  256
370
   -1
100
AcDbLine
 10
173.2050807568876
 20
-2000
 11
373.2050807568876
 21
-2000
  0
LINE
  5
87
100
AcDbEntity
  8
Markings
  6
ByLayer
 62
  256
370
   -1
100
AcDbLine
 10
173.2050807568876
 20
-2200
 11
373.2050807568876
 21
-2200
  0
LINE
  5
88
100
AcDbEntity
  8
Markings
  6
ByLayer
 62
  256
370
   -1
100
AcDbLine
 10
-519.6152422706631
 20
-2000
 11
-519.6152422706631
 21
-2200
  0
LINE
  5
89
100
AcDbEntity
  8
Markings
  6
ByLayer
 62
  256
370
   -1
100
AcDbLine
 10
-319.6152422706631
 20
-2000
 11
-319.6152422706631
 21
-2200
  0
LINE
  5
8A
100
AcDbEntity
  8
Markings
  6
ByLayer
 62
  256
370
   -1
100
AcDbLine
 10
-519.6152422706631
 20
-2000
 11
-319.6152422706631
 21
-2000
  0
LINE
  5
8B
100
AcDbEntity
  8
Markings
  6
ByLayer
 62
  256
370
   -1
100
AcDbLine
 10
-173.2050807568879
 20
-2400
 11
-173.2050807568879
 21
-2600
  0
LINE
  5
8C
100
AcDbEntity
  8
Markings
  6
ByLayer
 62
  256
370
   -1
100
AcDbLine
 10
26.79491924311214
 20
-2400
 11
26.79491924311214
 21
-2600
  0
LINE
  5
8D
100
AcDbEntity
  8
Markings
  6
ByLayer
 62
  256
370
   -1
100
AcDbLine
 10
-173.2050807568879
 20
-2400
 11
26.79491924311214
 21
-2400
  0
LINE
  5
8E
100
AcDbEntity
  8
Markings
  6
ByLayer
 62
  256
370
   -1
100
AcDbLine
 10
-173.2050807568879
 20
-2600
 11
26.79491924311214
 21
-2600
  0
LINE
  5
8F
100
AcDbEntity
  8
Markings
  6
ByLayer
 62
  256
370
   -1
100
AcDbLine
 10
173.2050807568876
 20
-2400
 11
173.2050807568876
 21
-2600
  0
LINE
  5
90
100
AcDbEntity
  8
Markings
  6
ByLayer
 62
  256
370
   -1
100
AcDbLine
 10
373.2050807568876
 20
-2400
 11
373.2050807568876
 21
-2600
  0
LINE
  5
91
100
AcDbEntity
  8
Markings
  6
ByLayer
 62
  256
370
   -1
100
AcDbLine
 10
173.2050807568876
 20
-2400
 11
373.2050807568876
 21
-2400
  0
LINE
  5
92
100
AcDbEntity
  8
Markings
  6
ByLayer
 62
  256
370
   -1
100
AcDbLine
 10
173.2050807568876
 20
-2600
 11
373.2050807568876
 21
-2600
  0
LINE
  5
93
100
AcDbEntity
  8
Markings
  6
ByLayer
 62
  256
370
   -1
100
AcDbLine
 10
-519.6152422706631
 20
-2400
 11
-519.6152422706631
 21
-2600
  0
LINE
  5
94
100
AcDbEntity
  8
Markings
  6
ByLayer
 62
  256
370
   -1
100
AcDbLine
 10
-319.6152422706631
 20
-2400
 11
-319.6152422706631
 21
-2600
  0
LINE
  5
95
100
AcDbEntity
  8
Markings
  6
ByLayer
 62
  256
370
   -1
100
AcDbLine
 10
-519.6152422706631
 20
-2400
 11
-319.6152422706631
 21
-2400
  0
LINE
  5
96
100
AcDbEntity
  8
Markings
  6
ByLayer
 62
  256
370
   -1
100
AcDbLine
 10
-519.6152422706631
 20
-2600
 11
-319.6152422706631
 21
-2600
  0
LINE
  5
97
100
AcDbEntity
  8
Font
  6
ByLayer
 62
  256
370
   -1
100
AcDbLine
 10
-461.0365985079728
 20
-400
 11
-419.6152422706633
 21
-499.9999999999999
  0
LINE
  5
98
100
AcDbEntity
  8
Font
  6
ByLayer
 62
  256
370
   -1
100
AcDbLine
 10
-519.6152422706632
 20
-400
 11
-319.6152422706635
 21
-600
  0
LINE
  5
99
100
AcDbEntity
  8
Font
  6
ByLayer
 62
  256
370
   -1
100
AcDbLine
 10
-519.6152422706632
 20
-458.5786437626904
 11
-419.6152422706633
 21
-499.9999999999999
  0
LINE
  5
9A
100
AcDbEntity
  8
Font
  6
ByLayer
 62
  256
370
   -1
100
AcDbLine
 10
-519.6152422706633
 20
-500
 11
-419.6152422706633
 21
-500
  0
LINE
  5
9B
100
AcDbEntity
  8
Font
  6
ByLayer
 62
  256
370
   -1
100
AcDbLine
 10
-419.6152422706633
 20
-400
 11
-419.6152422706633
 21
-500
  0
MTEXT
  5
9C
100
AcDbEntity
  8
Markings
  6
ByLayer
 62
  256
370
   -1
100
AcDbMText
 10
-415.692193816531
 20
-655
 30
0
 40
10
 41
117.5000051428729
 71
    5
 72
    1
  1
Lash, Cat\PO' Nine Tails, Etc
  7
standard
210
0
220
0
230
1
 50
0
 73
    2
 44
1
  0
LINE
  5
9D
100
AcDbEntity
  8
Font
  6
ByLayer
 62
  256
370
   -1
100
AcDbLine
 10
-165.8827502865513
 20
-442.6776695296637
 11
-115.8827502865511
 21
-492.6776695296638
  0
ARC
  5
9E
100
AcDbEntity
  8
Font
  6
ByLayer
 62
  256
370
   -1
100
AcDbCircle
 10
-148.2050807568876
 20
-424.9999999999999
 40
25.00000000000006
100
AcDbArc
 50
225
 51
315
  0
ARC
  5
9F
100
AcDbEntity
  8
Font
  6
ByLayer
 62
  256
370
   -1
100
AcDbCircle
 10
-98.20508075688741
 20
-475.0000000000001
 40
25.00000000000006
100
AcDbArc
 50
135.0000000000001
 51
225
  0
LINE
  5
A0
100
AcDbEntity
  8
Font
  6
ByLayer
 62
  256
370
   -1
100
AcDbLine
 10
-130.5274112272232
 20
-442.6776695296643
 11
26.79491924311242
 21
-600
  0
MTEXT
  5
A1
100
AcDbEntity
  8
Markings
  6
ByLayer
 62
  256
370
   -1
100
AcDbMText
 10
-69.28203230275531
 20
-655
 30
0
 40
10
 41
22.22222222222222
 71
    5
 72
    1
  1
Axe
  7
standard
210
0
220
0
230
1
 50
0
 73
    2
 44
1
  0
ARC
  5
A2
100
AcDbEntity
  8
Font
  6
ByLayer
 62
  256
370
   -1
100
AcDbCircle
 10
173.2050807568879
 20
-550
 40
25.00000000000003
100
AcDbArc
 50
270
 51
2.544443745170813e-13
  0
ARC
  5
A3
100
AcDbEntity
  8
Font
  6
ByLayer
 62
  256
370
   -1
100
AcDbCircle
 10
223.2050807568879
 20
-525
 40
25
100
AcDbArc
 50
90
 51
180
  0
LINE
  5
A4
100
AcDbEntity
  8
Font
  6
ByLayer
 62
  256
370
   -1
100
AcDbLine
 10
198.205080756888
 20
-525
 11
198.2050807568879
 21
-550
  0
ARC
  5
A5
100
AcDbEntity
  8
Font
  6
ByLayer
 62
  256
370
   -1
100
AcDbCircle
 10
198.2050807568879
 20
-550
 40
25.00000000000003
100
AcDbArc
 50
270
 51
2.544443745170813e-13
  0
ARC
  5
A6
100
AcDbEntity
  8
Font
  6
ByLayer
 62
  256
370
   -1
100
AcDbCircle
 10
248.2050807568879
 20
-525
 40
25
100
AcDbArc
 50
90
 51
180
  0
LINE
  5
A7
100
AcDbEntity
  8
Font
  6
ByLayer
 62
  256
370
   -1
100
AcDbLine
 10
223.205080756888
 20
-525
 11
223.2050807568879
 21
-550
  0
ARC
  5
A8
100
AcDbEntity
  8
Font
  6
ByLayer
 62
  256
370
   -1
100
AcDbCircle
 10
223.2050807568879
 20
-550
 40
25.00000000000003
100
AcDbArc
 50
270
 51
2.544443745170813e-13
  0
ARC
  5
A9
100
AcDbEntity
  8
Font
  6
ByLayer
 62
  256
370
   -1
100
AcDbCircle
 10
273.2050807568879
 20
-525
 40
25
100
AcDbArc
 50
90
 51
180
  0
LINE
  5
AA
100
AcDbEntity
  8
Font
  6
ByLayer
 62
  256
370
   -1
100
AcDbLine
 10
248.205080756888
 20
-525
 11
248.2050807568879
 21
-550
  0
LINE
  5
AB
100
AcDbEntity
  8
Font
  6
ByLayer
 62
  256
370
   -1
100
AcDbLine
 10
223.2050807568879
 20
-500
 11
373.2050807568879
 21
-500
  0
MTEXT
  5
AC
100
AcDbEntity
  8
Markings
  6
ByLayer
 62
  256
370
   -1
100
AcDbMText
 10
277.1281292110202
 20
-655
 30
0
 40
10
 41
23.3333333333338
 71
    5
 72
    1
  1
Hair
  7
standard
210
0
220
0
230
1
 50
0
 73
    2
 44
1
  0
LINE
  5
AD
100
AcDbEntity
  8
Font
  6
ByLayer
 62
  256
370
   -1
100
AcDbLine
 10
-519.6152422706631
 20
-850
 11
-319.6152422706631
 21
-850.0000000000001
  0
LINE
  5
AE
100
AcDbEntity
  8
Font
  6
ByLayer
 62
  256
370
   -1
100
AcDbLine
 10
-469.6152422706631
 20
-800
 11
-369.6152422706631
 21
-800
  0
LINE
  5
AF
100
AcDbEntity
  8
Font
  6
ByLayer
 62
  256
370
   -1
100
AcDbLine
 10
-519.6152422706631
 20
-850
 11
-519.6152422706631
 21
-875
  0
LINE
  5
B0
100
AcDbEntity
  8
Font
  6
ByLayer
 62
  256
370
   -1
100
AcDbLine
 10
-319.6152422706631
 20
-850.0000000000001
 11
-319.6152422706631
 21
-875.0000000000001
  0
LINE
  5
B1
100
AcDbEntity
  8
Font
  6
ByLayer
 62
  256
370
   -1
100
AcDbLine
 10
-469.615242270656
 20
-950
 11
-369.6152422706631
 21
-950
  0
LINE
  5
B2
100
AcDbEntity
  8
Font
  6
ByLayer
 62
  256
370
   -1
100
AcDbLine
 10
-469.6152422706631
 20
-825
 11
-469.6152422706631
 21
-850
  0
LINE
  5
B3
100
AcDbEntity
  8
Font
  6
ByLayer
 62
  256
370
   -1
100
AcDbLine
 10
-419.6152422706631
 20
-825
 11
-419.6152422706631
 21
-850
  0
LINE
  5
B4
100
AcDbEntity
  8
Font
  6
ByLayer
 62
  256
370
   -1
100
AcDbLine
 10
-369.6152422706631
 20
-825.0000000000001
 11
-369.6152422706631
 21
-850.0000000000001
  0
LINE
  5
B5
100
AcDbEntity
  8
Red_Heart
  6
ByLayer
 62
  256
370
   -1
100
AcDbLine
 10
-459.6152422706631
 20
-907.5
 11
-419.6152422706631
 21
-937.5
  0
LINE
  5
B6
100
AcDbEntity
  8
Red_Heart
  6
ByLayer
 62
  256
370
   -1
100
AcDbLine
 10
-379.6152422706623
 20
-907.4999999999986
 11
-419.6152422706631
 21
-937.5
  0
ARC
  5
B7
100
AcDbEntity
  8
Red_Heart
  6
ByLayer
 62
  256
370
   -1
100
AcDbCircle
 10
-444.6152422706631
 20
-887.5
 40
25
100
AcDbArc
 50
0
 51
233.130102354156
  0
ARC
  5
B8
100
AcDbEntity
  8
Red_Heart
  6
ByLayer
 62
  256
370
   -1
100
AcDbCircle
 10
-394.6152422706617
 20
-887.5
 40
24.99999999999864
100
AcDbArc
 50
306.8698976458448
 51
180
  0
ARC
  5
B9
100
AcDbEntity
  8
Font
  6
ByLayer
 62
  256
370
   -1
100
AcDbCircle
 10
-173.2050807568876
 20
-937.5
 40
62.5
100
AcDbArc
 50
269.9999999999999
 51
0
  0
ARC
  5
BA
100
AcDbEntity
  8
Font
  6
ByLayer
 62
  256
370
   -1
100
AcDbCircle
 10
-123.2050807568876
 20
-912.5000000000061
 40
12.49999999999386
100
AcDbArc
 50
90
 51
270
  0
ARC
  5
BB
100
AcDbEntity
  8
Font
  6
ByLayer
 62
  256
370
   -1
100
AcDbCircle
 10
-123.2050807568876
 20
-887.5
 40
12.5
100
AcDbArc
 50
270
 51
90.00000000000026
  0
ARC
  5
BC
100
AcDbEntity
  8
Font
  6
ByLayer
 62
  256
370
   -1
100
AcDbCircle
 10
-123.2050807568876
 20
-862.5000000000041
 40
12.49999999999591
100
AcDbArc
 50
90.00000000000027
 51
270
  0
ARC
  5
BD
100
AcDbEntity
  8
Font
  6
ByLayer
 62
  256
370
   -1
100
AcDbCircle
 10
-123.2050807568876
 20
-837.5000000000016
 40
12.49999999999841
100
AcDbArc
 50
269.9999999999998
 51
90.00000000000016
  0
ARC
  5
BE
100
AcDbEntity
  8
Font
  6
ByLayer
 62
  256
370
   -1
100
AcDbCircle
 10
-123.2050807568876
 20
-937.4999958770637
 40
12.49999587706031
100
AcDbArc
 50
359.9999811018459
 51
89.99999999999974
  0
ARC
  5
BF
100
AcDbEntity
  8
Font
  6
ByLayer
 62
  256
370
   -1
100
AcDbCircle
 10
1.794919243112446
 20
-912.5000000000059
 40
12.49999999999386
100
AcDbArc
 50
90
 51
270
  0
ARC
  5
C0
100
AcDbEntity
  8
Font
  6
ByLayer
 62
  256
370
   -1
100
AcDbCircle
 10
1.794919243112446
 20
-887.4999999999998
 40
12.5
100
AcDbArc
 50
270
 51
90.00000000000026
  0
ARC
  5
C1
100
AcDbEntity
  8
Font
  6
ByLayer
 62
  256
370
   -1
100
AcDbCircle
 10
1.794919243112446
 20
-862.5000000000039
 40
12.49999999999591
100
AcDbArc
 50
90.00000000000027
 51
270
  0
ARC
  5
C2
100
AcDbEntity
  8
Font
  6
ByLayer
 62
  256
370
   -1
100
AcDbCircle
 10
1.794919243112474
 20
-837.5000000000014
 40
12.49999999999841
100
AcDbArc
 50
269.9999999999998
 51
90.00000000000016
  0
ARC
  5
C3
100
AcDbEntity
  8
Font
  6
ByLayer
 62
  256
370
   -1
100
AcDbCircle
 10
1.794919243112448
 20
-987.4999999999966
 40
12.5
100
AcDbArc
 50
270
 51
90.00000000000026
  0
ARC
  5
C4
100
AcDbEntity
  8
Font
  6
ByLayer
 62
  256
370
   -1
100
AcDbCircle
 10
1.794919243112448
 20
-962.5000000000007
 40
12.49999999999591
100
AcDbArc
 50
90.00000000000027
 51
270
  0
ARC
  5
C5
100
AcDbEntity
  8
Font
  6
ByLayer
 62
  256
370
   -1
100
AcDbCircle
 10
1.794919243112476
 20
-937.4999999999982
 40
12.49999999999841
100
AcDbArc
 50
269.9999999999998
 51
90.00000000000016
  0
ARC
  5
C6
100
AcDbEntity
  8
Font
  6
ByLayer
 62
  256
370
   -1
100
AcDbCircle
 10
-60.70508075688755
 20
-912.5000000000059
 40
12.49999999999386
100
AcDbArc
 50
90
 51
270
  0
ARC
  5
C7
100
AcDbEntity
  8
Font
  6
ByLayer
 62
  256
370
   -1
100
AcDbCircle
 10
-60.70508075688755
 20
-887.4999999999998
 40
12.5
100
AcDbArc
 50
270
 51
90.00000000000026
  0
ARC
  5
C8
100
AcDbEntity
  8
Font
  6
ByLayer
 62
  256
370
   -1
100
AcDbCircle
 10
-60.70508075688755
 20
-862.5000000000039
 40
12.49999999999591
100
AcDbArc
 50
90.00000000000027
 51
270
  0
ARC
  5
C9
100
AcDbEntity
  8
Font
  6
ByLayer
 62
  256
370
   -1
100
AcDbCircle
 10
-60.70508075688753
 20
-837.5000000000014
 40
12.49999999999841
100
AcDbArc
 50
269.9999999999998
 51
90.00000000000016
  0
ARC
  5
CA
100
AcDbEntity
  8
Font
  6
ByLayer
 62
  256
370
   -1
100
AcDbCircle
 10
-60.70508075688755
 20
-987.4999999999966
 40
12.5
100
AcDbArc
 50
270
 51
90.00000000000026
  0
ARC
  5
CB
100
AcDbEntity
  8
Font
  6
ByLayer
 62
  256
370
   -1
100
AcDbCircle
 10
-60.70508075688755
 20
-962.5000000000007
 40
12.49999999999591
100
AcDbArc
 50
90.00000000000027
 51
270
  0
ARC
  5
CC
100
AcDbEntity
  8
Font
  6
ByLayer
 62
  256
370
   -1
100
AcDbCircle
 10
-60.70508075688753
 20
-937.4999999999982
 40
12.49999999999841
100
AcDbArc
 50
269.9999999999998
 51
90.00000000000016
  0
MTEXT
  5
CD
100
AcDbEntity
  8
Markings
  6
ByLayer
 62
  256
370
   -1
100
AcDbMText
 10
-69.28203230275531
 20
-1055
 30
0
 40
10
 41
79.72222222222223
 71
    5
 72
    1
  1
New "River"\PHanji
  7
standard
210
0
220
0
230
1
 50
0
 73
    2
 44
1
  0
LINE
  5
CE
100
AcDbEntity
  8
Font
  6
ByLayer
 62
  256
370
   -1
100
AcDbLine
 10
-173.2050807568876
 20
-800
 11
26.79491924311242
 21
-800.0000000000001
  0
LINE
  5
CF
100
AcDbEntity
  8
Font
  6
ByLayer
 62
  256
370
   -1
100
AcDbLine
 10
173.2050807568878
 20
-850
 11
373.2050807568878
 21
-850.0000000000001
  0
LINE
  5
D0
100
AcDbEntity
  8
Font
  6
ByLayer
 62
  256
370
   -1
100
AcDbLine
 10
173.2050807568877
 20
-900
 11
373.2050807568877
 21
-900.0000000000001
  0
LINE
  5
D1
100
AcDbEntity
  8
Font
  6
ByLayer
 62
  256
370
   -1
100
AcDbLine
 10
173.2050807568876
 20
-950
 11
373.2050807568876
 21
-950.0000000000001
  0
LINE
  5
D2
100
AcDbEntity
  8
Font
  6
ByLayer
 62
  256
370
   -1
100
AcDbLine
 10
173.2050807568879
 20
-900
 11
173.2050807568879
 21
-800
  0
LINE
  5
D3
100
AcDbEntity
  8
Font
  6
ByLayer
 62
  256
370
   -1
100
AcDbLine
 10
373.2050807568879
 20
-800
 11
373.2050807568879
 21
-900
  0
LINE
  5
D4
100
AcDbEntity
  8
Font
  6
ByLayer
 62
  256
370
   -1
100
AcDbLine
 10
273.2050807568879
 20
-800
 11
273.2050807568877
 21
-900
  0
ARC
  5
D5
100
AcDbEntity
  8
Font
  6
ByLayer
 62
  256
370
   -1
100
AcDbCircle
 10
173.2050807568879
 20
-900
 40
99.9999999999998
100
AcDbArc
 50
270
 51
0
  0
ARC
  5
D6
100
AcDbEntity
  8
Font
  6
ByLayer
 62
  256
370
   -1
100
AcDbCircle
 10
323.2050807568879
 20
-950
 40
50
100
AcDbArc
 50
270.0000000000001
 51
0
  0
MTEXT
  5
D7
100
AcDbEntity
  8
Markings
  6
ByLayer
 62
  256
370
   -1
100
AcDbMText
 10
277.1281292110202
 20
-1055
 30
0
 40
10
 41
26.66666666666713
 71
    5
 72
    1
  1
Male\PSex
  7
standard
210
0
220
0
230
1
 50
0
 73
    2
 44
1
  0
LINE
  5
D8
100
AcDbEntity
  8
Markings
  6
ByLayer
 62
  256
370
   -1
100
AcDbLine
 10
173.2050807568879
 20
-800
 11
373.2050807568879
 21
-800
  0
LINE
  5
D9
100
AcDbEntity
  8
Font
  6
ByLayer
 62
  256
370
   -1
100
AcDbLine
 10
173.2050807568879
 20
-800
 11
373.2050807568879
 21
-800
  0
LINE
  5
DA
100
AcDbEntity
  8
Font
  6
ByLayer
 62
  256
370
   -1
100
AcDbLine
 10
-419.6152422706632
 20
-1250
 11
-469.6152422706634
 21
-1325
  0
LINE
  5
DB
100
AcDbEntity
  8
Font
  6
ByLayer
 62
  256
370
   -1
100
AcDbLine
 10
-469.6152422706634
 20
-1325
 11
-319.6152422706631
 21
-1400
  0
LINE
  5
DC
100
AcDbEntity
  8
Font
  6
ByLayer
 62
  256
370
   -1
100
AcDbLine
 10
-519.6152422706631
 20
-1300
 11
-319.6152422706631
 21
-1300
  0
ARC
  5
DD
100
AcDbEntity
  8
Font
  6
ByLayer
 62
  256
370
   -1
100
AcDbCircle
 10
-469.6152422706634
 20
-1300
 40
99.9999999999998
100
AcDbArc
 50
270
 51
0
  0
MTEXT
  5
DE
100
AcDbEntity
  8
Markings
  6
ByLayer
 62
  256
370
   -1
100
AcDbMText
 10
-415.6921938165308
 20
-1455
 30
0
 40
10
 41
73.05556069842848
 71
    5
 72
    1
  1
Female sex
  7
standard
210
0
220
0
230
1
 50
0
 73
    2
 44
1
  0
LINE
  5
DF
100
AcDbEntity
  8
Font
  6
ByLayer
 62
  256
370
   -1
100
AcDbLine
 10
-173.205080756888
 20
-1250
 11
26.79491924311202
 21
-1250
  0
LINE
  5
E0
100
AcDbEntity
  8
Font
  6
ByLayer
 62
  256
370
   -1
100
AcDbLine
 10
-173.2050807568881
 20
-1300
 11
26.79491924311191
 21
-1300
  0
LINE
  5
E1
100
AcDbEntity
  8
Font
  6
ByLayer
 62
  256
370
   -1
100
AcDbLine
 10
-173.2050807568879
 20
-1300
 11
-173.2050807568879
 21
-1200
  0
LINE
  5
E2
100
AcDbEntity
  8
Font
  6
ByLayer
 62
  256
370
   -1
100
AcDbLine
 10
26.79491924311213
 20
-1200
 11
26.79491924311213
 21
-1300
  0
LINE
  5
E3
100
AcDbEntity
  8
Font
  6
ByLayer
 62
  256
370
   -1
100
AcDbLine
 10
-73.20508075688787
 20
-1200
 11
-73.20508075688809
 21
-1300
  0
LINE
  5
E4
100
AcDbEntity
  8
Font
  6
ByLayer
 62
  256
370
   -1
100
AcDbLine
 10
-173.2050807568879
 20
-1200
 11
26.79491924311213
 21
-1200
  0
LINE
  5
E5
100
AcDbEntity
  8
Font
  6
ByLayer
 62
  256
370
   -1
100
AcDbLine
 10
-73.20508075688804
 20
-1250
 11
-123.2050807568883
 21
-1325
  0
LINE
  5
E6
100
AcDbEntity
  8
Font
  6
ByLayer
 62
  256
370
   -1
100
AcDbLine
 10
-123.2050807568883
 20
-1325
 11
26.79491924311208
 21
-1400
  0
ARC
  5
E7
100
AcDbEntity
  8
Font
  6
ByLayer
 62
  256
370
   -1
100
AcDbCircle
 10
-123.2050807568883
 20
-1300
 40
99.9999999999998
100
AcDbArc
 50
270
 51
0
  0
MTEXT
  5
E8
100
AcDbEntity
  8
Markings
  6
ByLayer
 62
  256
370
   -1
100
AcDbMText
 10
-69.2820323027556
 20
-1455
 30
0
 40
10
 41
115.2777829206512
 71
    5
 72
    1
  1
Hermaphrodite,\PTransexuals,\PThird gender/sex
  7
standard
210
0
220
0
230
1
 50
0
 73
    2
 44
1
  0
LINE
  5
E9
100
AcDbEntity
  8
Font
  6
ByLayer
 62
  256
370
   -1
100
AcDbLine
 10
173.2050807568876
 20
-1250
 11
373.2050807568876
 21
-1250
  0
LINE
  5
EA
100
AcDbEntity
  8
Font
  6
ByLayer
 62
  256
370
   -1
100
AcDbLine
 10
173.2050807568876
 20
-1200
 11
373.2050807568876
 21
-1200
  0
LINE
  5
EB
100
AcDbEntity
  8
Font
  6
ByLayer
 62
  256
370
   -1
100
AcDbLine
 10
273.2050807568876
 20
-1200
 11
273.2050807568876
 21
-1400
  0
LINE
  5
EC
100
AcDbEntity
  8
Font
  6
ByLayer
 62
  256
370
   -1
100
AcDbLine
 10
173.2050807568876
 20
-1250
 11
173.2050807568876
 21
-1400
  0
LINE
  5
ED
100
AcDbEntity
  8
Font
  6
ByLayer
 62
  256
370
   -1
100
AcDbLine
 10
373.2050807568876
 20
-1250
 11
373.2050807568876
 21
-1400
  0
LINE
  5
EE
100
AcDbEntity
  8
Font
  6
ByLayer
 62
  256
370
   -1
100
AcDbLine
 10
185.7050807568876
 20
-1300
 11
260.7050807568876
 21
-1300
  0
LINE
  5
EF
100
AcDbEntity
  8
Font
  6
ByLayer
 62
  256
370
   -1
100
AcDbLine
 10
285.7050807568876
 20
-1300
 11
360.7050807568876
 21
-1300
  0
LINE
  5
F0
100
AcDbEntity
  8
Font
  6
ByLayer
 62
  256
370
   -1
100
AcDbLine
 10
185.7050807568876
 20
-1350
 11
260.7050807568876
 21
-1350
  0
LINE
  5
F1
100
AcDbEntity
  8
Font
  6
ByLayer
 62
  256
370
   -1
100
AcDbLine
 10
285.7050807568876
 20
-1350
 11
360.7050807568876
 21
-1350
  0
MTEXT
  5
F2
100
AcDbEntity
  8
Markings
  6
ByLayer
 62
  256
370
   -1
100
AcDbMText
 10
277.1281292110199
 20
-1455
 30
0
 40
10
 41
81.11111111111205
 71
    5
 72
    1
  1
Precipitation
  7
standard
210
0
220
0
230
1
 50
0
 73
    2
 44
1
  0
MTEXT
  5
F3
100
AcDbEntity
  8
Markings
  6
ByLayer
 62
  256
370
   -1
100
AcDbMText
 10
-415.6921938165308
 20
-1055
 30
0
 40
10
 41
27.77777777777778
 71
    5
 72
    1
  1
Love
  7
standard
210
0
220
0
230
1
 50
0
 73
    2
 44
1
  0
ARC
  5
F4
100
AcDbEntity
  8
Font
  6
ByLayer
 62
  256
370
   -1
100
AcDbCircle
 10
-419.6152422706631
 20
-1600
 40
100
100
AcDbArc
 50
180
 51
0
  0
MTEXT
  5
F5
100
AcDbEntity
  8
Markings
  6
ByLayer
 62
  256
370
   -1
100
AcDbMText
 10
-415.6921938165308
 20
-1855
 30
0
 40
10
 41
50.00000000000156
 71
    5
 72
    1
  1
Concave
  7
standard
210
0
220
0
230
1
 50
0
 73
    2
 44
1
  0
MTEXT
  5
F6
100
AcDbEntity
  8
Markings
  6
ByLayer
 62
  256
370
   -1
100
AcDbMText
 10
-69.2820323027556
 20
-1855
 30
0
 40
10
 41
43.33333333333442
 71
    5
 72
    1
  1
Convex
  7
standard
210
0
220
0
230
1
 50
0
 73
    2
 44
1
  0
MTEXT
  5
F7
100
AcDbEntity
  8
Markings
  6
ByLayer
 62
  256
370
   -1
100
AcDbMText
 10
277.1281292110199
 20
-1855
 30
0
 40
10
 41
64.16666666666713
 71
    5
 72
    1
  1
State of\Pbeing\Pconcave\Por convex
  7
standard
210
0
220
0
230
1
 50
0
 73
    2
 44
1
  0
ARC
  5
F8
100
AcDbEntity
  8
Font
  6
ByLayer
 62
  256
370
   -1
100
AcDbCircle
 10
-73.20508075688781
 20
-1699.999999999996
 40
100
100
AcDbArc
 50
180
 51
0
  0
LINE
  5
F9
100
AcDbEntity
  8
Font
  6
ByLayer
 62
  256
370
   -1
100
AcDbLine
 10
-173.2050807568879
 20
-1699.999988386885
 11
-173.2050807568879
 21
-1600
  0
LINE
  5
FA
100
AcDbEntity
  8
Font
  6
ByLayer
 62
  256
370
   -1
100
AcDbLine
 10
26.79491924311214
 20
-1700
 11
26.79491924311214
 21
-1600
  0
ARC
  5
FB
100
AcDbEntity
  8
Font
  6
ByLayer
 62
  256
370
   -1
100
AcDbCircle
 10
-73.20508075688781
 20
-1699.999999999996
 40
50
100
AcDbArc
 50
180
 51
0
  0
ARC
  5
FC
100
AcDbEntity
  8
Font
  6
ByLayer
 62
  256
370
   -1
100
AcDbCircle
 10
-419.6152422706631
 20
-1600
 40
150
100
AcDbArc
 50
239.9999999999999
 51
299.9999999999999
  0
ARC
  5
FD
100
AcDbEntity
  8
Font
  6
ByLayer
 62
  256
370
   -1
100
AcDbCircle
 10
273.2050807568877
 20
-1649.999999999996
 40
100
100
AcDbArc
 50
180
 51
0
  0
ARC
  5
FE
100
AcDbEntity
  8
Font
  6
ByLayer
 62
  256
370
   -1
100
AcDbCircle
 10
273.2050807568877
 20
-1649.999999999996
 40
150
100
AcDbArc
 50
239.9999999999999
 51
299.9999999999999
  0
LINE
  5
FF
100
AcDbEntity
  8
Font
  6
ByLayer
 62
  256
370
   -1
100
AcDbLine
 10
173.2050807568876
 20
-1600
 11
173.2050807568877
 21
-1649.999999999996
  0
LINE
  5
100
100
AcDbEntity
  8
Font
  6
ByLayer
 62
  256
370
   -1
100
AcDbLine
 10
373.2050807568876
 20
-1600
 11
373.2050807568877
 21
-1649.999999999996
  0
ARC
  5
101
100
AcDbEntity
  8
Font
  6
ByLayer
 62
  256
370
   -1
100
AcDbCircle
 10
273.2050807568877
 20
-1649.999999999996
 40
50
100
AcDbArc
 50
180
 51
0
  0
LINE
  5
102
100
AcDbEntity
  8
Font
  6
ByLayer
 62
  256
370
   -1
100
AcDbLine
 10
-319.6152422706631
 20
-2000
 11
-481.0286497044257
 21
-2161.413407433763
  0
ARC
  5
103
100
AcDbEntity
  8
Font
  6
ByLayer
 62
  256
370
   -1
100
AcDbCircle
 10
-465.0455952154796
 20
-2177.396512095837
 40
22.6034879041749
100
AcDbArc
 50
134.9999100702479
 51
326.3098699529504
  0
LINE
  5
104
100
AcDbEntity
  8
Font
  6
ByLayer
 62
  256
370
   -1
100
AcDbLine
 10
-319.6152422706631
 20
-2000
 11
-419.6152422706631
 21
-2150
  0
ARC
  5
105
100
AcDbEntity
  8
Font
  6
ByLayer
 62
  256
370
   -1
100
AcDbCircle
 10
-465.0455952154796
 20
-2177.396512095837
 40
12.6034879041749
100
AcDbArc
 50
134.9999100702479
 51
326.3098699529504
  0
ARC
  5
106
100
AcDbEntity
  8
Font
  6
ByLayer
 62
  256
370
   -1
100
AcDbCircle
 10
-450.3986185786275
 20
-2187.161186273296
 40
5.000000000000013
100
AcDbArc
 50
326.3098699529478
 51
146.3098614531827
  0
LINE
  5
107
100
AcDbEntity
  8
Font
  6
ByLayer
 62
  256
370
   -1
100
AcDbLine
 10
-441.1299608964355
 20
-2135.656854249486
 11
-473.9575929911068
 21
-2168.484486344157
  0
LINE
  5
108
100
AcDbEntity
  8
Font
  6
ByLayer
 62
  256
370
   -1
100
AcDbLine
 10
-449.6152422706637
 20
-2130
 11
-419.6152422706631
 21
-2150
  0
LINE
  5
109
100
AcDbEntity
  8
Markings
  6
ByLayer
 62
  256
370
   -1
100
AcDbLine
 10
-519.6152422706631
 20
-2200
 11
-319.6152422706631
 21
-2200
  0
MTEXT
  5
10A
100
AcDbEntity
  8
Markings
  6
ByLayer
 62
  256
370
   -1
100
AcDbMText
 10
-415.6921938165308
 20
-2255
 30
0
 40
10
 41
31.11111111111158
 71
    5
 72
    1
  1
Knife
  7
standard
210
0
220
0
230
1
 50
0
 73
    2
 44
1
  0
LINE
  5
10B
100
AcDbEntity
  8
Font
  6
ByLayer
 62
  256
370
   -1
100
AcDbLine
 10
-916.0254037844386
 20
-550
 11
-916.0254037844386
 21
-650
  0
LINE
  5
10C
100
AcDbEntity
  8
Font
  6
ByLayer
 62
  256
370
   -1
100
AcDbLine
 10
-816.0254037844386
 20
-550
 11
-816.0254037844386
 21
-650
  0
LINE
  5
10D
100
AcDbEntity
  8
Font
  6
ByLayer
 62
  256
370
   -1
100
AcDbLine
 10
-891.0254037844386
 20
-650
 11
-866.0254037844386
 21
-550
  0
LINE
  5
10E
100
AcDbEntity
  8
Font
  6
ByLayer
 62
  256
370
   -1
100
AcDbLine
 10
-866.0254037844386
 20
-550
 11
-841.0254037844386
 21
-650
  0
ARC
  5
10F
100
AcDbEntity
  8
Font
  6
ByLayer
 62
  256
370
   -1
100
AcDbCircle
 10
-866.0254037844386
 20
-550
 40
50
100
AcDbArc
 50
0
 51
180.0000000000001
  0
ARC
  5
110
100
AcDbEntity
  8
Font
  6
ByLayer
 62
  256
370
   -1
100
AcDbCircle
 10
-866.0254037844386
 20
-650
 40
50
100
AcDbArc
 50
180
 51
0
  0
LINE
  5
111
100
AcDbEntity
  8
Font
  6
ByLayer
 62
  256
370
   -1
100
AcDbLine
 10
-916.0254037844386
 20
-850
 11
-916.0254037844386
 21
-950
  0
LINE
  5
112
100
AcDbEntity
  8
Font
  6
ByLayer
 62
  256
370
   -1
100
AcDbLine
 10
-816.0254037844386
 20
-850
 11
-816.0254037844386
 21
-950
  0
ARC
  5
113
100
AcDbEntity
  8
Font
  6
ByLayer
 62
  256
370
   -1
100
AcDbCircle
 10
-866.0254037844386
 20
-850
 40
50
100
AcDbArc
 50
0
 51
180.0000000000001
  0
ARC
  5
114
100
AcDbEntity
  8
Font
  6
ByLayer
 62
  256
370
   -1
100
AcDbCircle
 10
-866.0254037844386
 20
-950
 40
50
100
AcDbArc
 50
180
 51
0
  0
ARC
  5
115
100
AcDbEntity
  8
Font
  6
ByLayer
 62
  256
370
   -1
100
AcDbCircle
 10
-866.0254037844386
 20
-1250
 40
50
100
AcDbArc
 50
180
 51
0
  0
LINE
  5
116
100
AcDbEntity
  8
Font
  6
ByLayer
 62
  256
370
   -1
100
AcDbLine
 10
-916.0254037844386
 20
-1450
 11
-916.0254037844386
 21
-1550
  0
LINE
  5
117
100
AcDbEntity
  8
Font
  6
ByLayer
 62
  256
370
   -1
100
AcDbLine
 10
-816.0254037844386
 20
-1450
 11
-816.0254037844386
 21
-1550
  0
ARC
  5
118
100
AcDbEntity
  8
Font
  6
ByLayer
 62
  256
370
   -1
100
AcDbCircle
 10
-866.0254037844386
 20
-1450
 40
50
100
AcDbArc
 50
0
 51
180.0000000000001
  0
ARC
  5
119
100
AcDbEntity
  8
Font
  6
ByLayer
 62
  256
370
   -1
100
AcDbCircle
 10
-866.0254037844386
 20
-1550
 40
50
100
AcDbArc
 50
180
 51
0
  0
LINE
  5
11A
100
AcDbEntity
  8
Font
  6
ByLayer
 62
  256
370
   -1
100
AcDbLine
 10
-916.0254037844386
 20
-1750
 11
-916.0254037844386
 21
-1850
  0
LINE
  5
11B
100
AcDbEntity
  8
Font
  6
ByLayer
 62
  256
370
   -1
100
AcDbLine
 10
-816.0254037844386
 20
-1750
 11
-816.0254037844386
 21
-1850
  0
ARC
  5
11C
100
AcDbEntity
  8
Font
  6
ByLayer
 62
  256
370
   -1
100
AcDbCircle
 10
-866.0254037844386
 20
-1750
 40
50
100
AcDbArc
 50
0
 51
180.0000000000001
  0
LINE
  5
11D
100
AcDbEntity
  8
Font
  6
ByLayer
 62
  256
370
   -1
100
AcDbLine
 10
-916.0254037844386
 20
-2050
 11
-916.0254037844386
 21
-2150
  0
LINE
  5
11E
100
AcDbEntity
  8
Font
  6
ByLayer
 62
  256
370
   -1
100
AcDbLine
 10
-816.0254037844386
 20
-2050
 11
-816.0254037844386
 21
-2150
  0
ARC
  5
11F
100
AcDbEntity
  8
Font
  6
ByLayer
 62
  256
370
   -1
100
AcDbCircle
 10
-866.0254037844386
 20
-2050
 40
50
100
AcDbArc
 50
0
 51
180.0000000000001
  0
ARC
  5
120
100
AcDbEntity
  8
Font
  6
ByLayer
 62
  256
370
   -1
100
AcDbCircle
 10
-866.0254037844386
 20
-2150
 40
50
100
AcDbArc
 50
180
 51
0
  0
LINE
  5
121
100
AcDbEntity
  8
Font
  6
ByLayer
 62
  256
370
   -1
100
AcDbLine
 10
-916.0254037844386
 20
-850
 11
-816.0254037844386
 21
-850
  0
LINE
  5
122
100
AcDbEntity
  8
Font
  6
ByLayer
 62
  256
370
   -1
100
AcDbLine
 10
-916.0254037844386
 20
-900
 11
-816.0254037844386
 21
-900
  0
ARC
  5
123
100
AcDbEntity
  8
Font
  6
ByLayer
 62
  256
370
   -1
100
AcDbCircle
 10
-891.0254037844386
 20
-1125
 40
25
100
AcDbArc
 50
0
 51
180
  0
ARC
  5
124
100
AcDbEntity
  8
Font
  6
ByLayer
 62
  256
370
   -1
100
AcDbCircle
 10
-841.0254037844386
 20
-1125
 40
25
100
AcDbArc
 50
0
 51
180
  0
LINE
  5
125
100
AcDbEntity
  8
Font
  6
ByLayer
 62
  256
370
   -1
100
AcDbLine
 10
-916.0254037844386
 20
-1125
 11
-916.0254037844386
 21
-1250
  0
LINE
  5
126
100
AcDbEntity
  8
Font
  6
ByLayer
 62
  256
370
   -1
100
AcDbLine
 10
-816.0254037844386
 20
-1125
 11
-816.0254037844386
 21
-1250
  0
LINE
  5
127
100
AcDbEntity
  8
Font
  6
ByLayer
 62
  256
370
   -1
100
AcDbLine
 10
-866.0254037844386
 20
-1125
 11
-866.0254037844386
 21
-1150
  0
CIRCLE
  5
128
100
AcDbEntity
  8
Font
  6
ByLayer
 62
  256
370
   -1
100
AcDbCircle
 10
-866.0254037844386
 20
-1250
 40
35
  0
CIRCLE
  5
129
100
AcDbEntity
  8
Font
  6
ByLayer
 62
  256
370
   -1
100
AcDbCircle
 10
-866.0254037844386
 20
-1550
 40
35
  0
CIRCLE
  5
12A
100
AcDbEntity
  8
Font
  6
ByLayer
 62
  256
370
   -1
100
AcDbCircle
 10
-866.0254037844386
 20
-1850
 40
50
  0
MTEXT
  5
12B
100
AcDbEntity
  8
Markings
  6
ByLayer
 62
  256
370
   -1
100
AcDbMText
 10
-866.0254037844386
 20
-750
 30
0
 40
15
 41
61.66666348663651
 71
    5
 72
    1
  1
Sandal
  7
standard
210
0
220
0
230
1
 50
0
 73
    2
 44
1
  0
MTEXT
  5
12C
100
AcDbEntity
  8
Markings
  6
ByLayer
 62
  256
370
   -1
100
AcDbMText
 10
-866.0254037844386
 20
-1050
 30
0
 40
15
 41
64.99999681996776
 71
    5
 72
    1
  1
Slipper
  7
standard
210
0
220
0
230
1
 50
0
 73
    2
 44
1
  0
MTEXT
  5
12D
100
AcDbEntity
  8
Markings
  6
ByLayer
 62
  256
370
   -1
100
AcDbMText
 10
-866.0254037844386
 20
-1350
 30
0
 40
15
 41
83.33333333333634
 71
    5
 72
    1
  1
Jika-tabi
  7
standard
210
0
220
0
230
1
 50
0
 73
    2
 44
1
  0
MTEXT
  5
12E
100
AcDbEntity
  8
Markings
  6
ByLayer
 62
  256
370
   -1
100
AcDbMText
 10
-866.0254037844386
 20
-1650
 30
0
 40
15
 41
43.33333015330179
 71
    5
 72
    1
  1
Shoe
  7
standard
210
0
220
0
230
1
 50
0
 73
    2
 44
1
  0
MTEXT
  5
12F
100
AcDbEntity
  8
Markings
  6
ByLayer
 62
  256
370
   -1
100
AcDbMText
 10
-866.0254037844386
 20
-1950
 30
0
 40
15
 41
94.58333333333404
 71
    5
 72
    1
  1
Slipper\Por "mule"\Pfootwear
  7
standard
210
0
220
0
230
1
 50
0
 73
    2
 44
1
  0
MTEXT
  5
130
100
AcDbEntity
  8
Markings
  6
ByLayer
 62
  256
370
   -1
100
AcDbMText
 10
-866.0254037844386
 20
-2250
 30
0
 40
15
 41
99.58333015330319
 71
    5
 72
    1
  1
Sandal w/\Pbackstrap
  7
standard
210
0
220
0
230
1
 50
0
 73
    2
 44
1
  0
LINE
  5
131
100
AcDbEntity
  8
Font
  6
ByLayer
 62
  256
370
   -1
100
AcDbLine
 10
-916.0254037844386
 20
-2050
 11
-816.0254037844386
 21
-2050
  0
LINE
  5
132
100
AcDbEntity
  8
Font
  6
ByLayer
 62
  256
370
   -1
100
AcDbLine
 10
-916.0254037844386
 20
-2075
 11
-816.0254037844386
 21
-2075
  0
LINE
  5
133
100
AcDbEntity
  8
Font
  6
ByLayer
 62
  256
370
   -1
100
AcDbLine
 10
-916.0254037844385
 20
-2115
 11
-816.0254037844385
 21
-2115
  0
LINE
  5
134
100
AcDbEntity
  8
Font
  6
ByLayer
 62
  256
370
   -1
100
AcDbLine
 10
-916.0254037844385
 20
-2090
 11
-816.0254037844385
 21
-2090
  0
ARC
  5
135
100
AcDbEntity
  8
Font
  6
ByLayer
 62
  256
370
   -1
100
AcDbCircle
 10
-866.0254037844386
 20
-2150
 40
35
100
AcDbArc
 50
180
 51
0
  0
LINE
  5
136
100
AcDbEntity
  8
Font
  6
ByLayer
 62
  256
370
   -1
100
AcDbLine
 10
-901.0254037844386
 20
-2150
 11
-901.0254037844386
 21
-2115
  0
LINE
  5
137
100
AcDbEntity
  8
Font
  6
ByLayer
 62
  256
370
   -1
100
AcDbLine
 10
-831.0254037844386
 20
-2150
 11
-831.0254037844386
 21
-2115
  0
MTEXT
  5
138
100
AcDbEntity
  8
Markings
  6
ByLayer
 62
  256
370
   -1
100
AcDbMText
 10
-866.0254037844386
 20
-2650
 30
0
 40
15
 41
53.33333786760906
 71
    5
 72
    1
  1
Toe\PSocks
  7
standard
210
0
220
0
230
1
 50
0
 73
    2
 44
1
  0
ARC
  5
139
100
AcDbEntity
  8
Font
  6
ByLayer
 62
  256
370
   -1
100
AcDbCircle
 10
-906.0254037844386
 20
-2590
 40
10
100
AcDbArc
 50
180
 51
0
  0
ARC
  5
13A
100
AcDbEntity
  8
Font
  6
ByLayer
 62
  256
370
   -1
100
AcDbCircle
 10
-886.0254037844386
 20
-2590
 40
10
100
AcDbArc
 50
180
 51
0
  0
ARC
  5
13B
100
AcDbEntity
  8
Font
  6
ByLayer
 62
  256
370
   -1
100
AcDbCircle
 10
-866.0254037844386
 20
-2590
 40
10
100
AcDbArc
 50
180
 51
0
  0
ARC
  5
13C
100
AcDbEntity
  8
Font
  6
ByLayer
 62
  256
370
   -1
100
AcDbCircle
 10
-846.0254037844386
 20
-2590
 40
10
100
AcDbArc
 50
180
 51
0
  0
ARC
  5
13D
100
AcDbEntity
  8
Font
  6
ByLayer
 62
  256
370
   -1
100
AcDbCircle
 10
-826.0254037844386
 20
-2590
 40
10
100
AcDbArc
 50
180
 51
0
  0
LINE
  5
13E
100
AcDbEntity
  8
Font
  6
ByLayer
 62
  256
370
   -1
100
AcDbLine
 10
-856.0254037844386
 20
-2550
 11
-856.0254037844386
 21
-2590
  0
LINE
  5
13F
100
AcDbEntity
  8
Font
  6
ByLayer
 62
  256
370
   -1
100
AcDbLine
 10
-876.0254037844386
 20
-2550
 11
-876.0254037844386
 21
-2590
  0
LINE
  5
140
100
AcDbEntity
  8
Font
  6
ByLayer
 62
  256
370
   -1
100
AcDbLine
 10
-896.0254037844386
 20
-2550
 11
-896.0254037844386
 21
-2590
  0
LINE
  5
141
100
AcDbEntity
  8
Font
  6
ByLayer
 62
  256
370
   -1
100
AcDbLine
 10
-836.0254037844386
 20
-2550
 11
-836.0254037844386
 21
-2590
  0
LINE
  5
142
100
AcDbEntity
  8
Font
  6
ByLayer
 62
  256
370
   -1
100
AcDbLine
 10
-916.0254037844386
 20
-2400
 11
-816.0254037844386
 21
-2400
  0
LINE
  5
143
100
AcDbEntity
  8
Font
  6
ByLayer
 62
  256
370
   -1
100
AcDbLine
 10
-916.0254037844386
 20
-2400
 11
-916.0254037844386
 21
-2590
  0
LINE
  5
144
100
AcDbEntity
  8
Font
  6
ByLayer
 62
  256
370
   -1
100
AcDbLine
 10
-816.0254037844386
 20
-2400
 11
-816.0254037844386
 21
-2590
  0
LINE
  5
145
100
AcDbEntity
  8
Font
  6
ByLayer
 62
  256
370
   -1
100
AcDbLine
 10
-952.6279441628824
 20
-2350
 11
-732.6279441628824
 21
-2350
  0
LINE
  5
146
100
AcDbEntity
  8
Font
  6
ByLayer
 62
  256
370
   -1
100
AcDbLine
 10
-732.6279441628824
 20
-2620
 11
-732.6279441628824
 21
-2350
  0
LINE
  5
147
100
AcDbEntity
  8
Font
  6
ByLayer
 62
  256
370
   -1
100
AcDbLine
 10
-732.6279441628824
 20
-2620
 11
-767.9832832222098
 21
-2584.644660940673
  0
LINE
  5
148
100
AcDbEntity
  8
Font
  6
ByLayer
 62
  256
370
   -1
100
AcDbLine
 10
-732.6279441628824
 20
-2620
 11
-697.2726051035552
 21
-2584.644660940673
  0
ARC
  5
149
100
AcDbEntity
  8
Font
  6
ByLayer
 62
  256
370
   -1
100
AcDbCircle
 10
-906.0254037844386
 20
-2990
 40
10
100
AcDbArc
 50
180
 51
0
  0
ARC
  5
14A
100
AcDbEntity
  8
Font
  6
ByLayer
 62
  256
370
   -1
100
AcDbCircle
 10
-886.0254037844386
 20
-2990
 40
10
100
AcDbArc
 50
180
 51
0
  0
ARC
  5
14B
100
AcDbEntity
  8
Font
  6
ByLayer
 62
  256
370
   -1
100
AcDbCircle
 10
-866.0254037844386
 20
-2990
 40
10
100
AcDbArc
 50
180
 51
0
  0
ARC
  5
14C
100
AcDbEntity
  8
Font
  6
ByLayer
 62
  256
370
   -1
100
AcDbCircle
 10
-846.0254037844386
 20
-2990
 40
10
100
AcDbArc
 50
180
 51
0
  0
ARC
  5
14D
100
AcDbEntity
  8
Font
  6
ByLayer
 62
  256
370
   -1
100
AcDbCircle
 10
-826.0254037844386
 20
-2990
 40
10
100
AcDbArc
 50
180
 51
0
  0
LINE
  5
14E
100
AcDbEntity
  8
Font
  6
ByLayer
 62
  256
370
   -1
100
AcDbLine
 10
-856.0254037844386
 20
-2950
 11
-856.0254037844386
 21
-2990
  0
LINE
  5
14F
100
AcDbEntity
  8
Font
  6
ByLayer
 62
  256
370
   -1
100
AcDbLine
 10
-876.0254037844386
 20
-2950
 11
-876.0254037844386
 21
-2990
  0
LINE
  5
150
100
AcDbEntity
  8
Font
  6
ByLayer
 62
  256
370
   -1
100
AcDbLine
 10
-896.0254037844386
 20
-2950
 11
-896.0254037844386
 21
-2990
  0
LINE
  5
151
100
AcDbEntity
  8
Font
  6
ByLayer
 62
  256
370
   -1
100
AcDbLine
 10
-836.0254037844386
 20
-2950
 11
-836.0254037844386
 21
-2990
  0
LINE
  5
152
100
AcDbEntity
  8
Font
  6
ByLayer
 62
  256
370
   -1
100
AcDbLine
 10
-916.0254037844386
 20
-2800
 11
-816.0254037844386
 21
-2800
  0
LINE
  5
153
100
AcDbEntity
  8
Font
  6
ByLayer
 62
  256
370
   -1
100
AcDbLine
 10
-916.0254037844386
 20
-2800
 11
-916.0254037844386
 21
-2990
  0
LINE
  5
154
100
AcDbEntity
  8
Font
  6
ByLayer
 62
  256
370
   -1
100
AcDbLine
 10
-816.0254037844386
 20
-2800
 11
-816.0254037844386
 21
-2990
  0
LINE
  5
155
100
AcDbEntity
  8
Font
  6
ByLayer
 62
  256
370
   -1
100
AcDbLine
 10
-952.6279441628824
 20
-3040
 11
-732.6279441628824
 21
-3040
  0
LINE
  5
156
100
AcDbEntity
  8
Font
  6
ByLayer
 62
  256
370
   -1
100
AcDbLine
 10
-732.6279441628824
 20
-2770
 11
-732.6279441628824
 21
-3040
  0
LINE
  5
157
100
AcDbEntity
  8
Font
  6
ByLayer
 62
  256
370
   -1
100
AcDbLine
 10
-732.6279441628824
 20
-2770
 11
-767.9832832222098
 21
-2805.355339059327
  0
LINE
  5
158
100
AcDbEntity
  8
Font
  6
ByLayer
 62
  256
370
   -1
100
AcDbLine
 10
-732.6279441628824
 20
-2770
 11
-697.2726051035552
 21
-2805.355339059327
  0
MTEXT
  5
159
100
AcDbEntity
  8
Markings
  6
ByLayer
 62
  256
370
   -1
100
AcDbMText
 10
-788.0831174438391
 20
-3015
 30
0
 40
15
 41
61.66667438097557
 71
    5
 72
    1
  1
Gloves
  7
standard
210
0
220
0
230
1
 50
0
 73
    2
 44
1
  0
ARC
  5
15A
100
AcDbEntity
  8
Font
  6
ByLayer
 62
  256
370
   -1
100
AcDbCircle
 10
-906.0254037844388
 20
-3390
 40
10
100
AcDbArc
 50
180
 51
0
  0
LINE
  5
15B
100
AcDbEntity
  8
Font
  6
ByLayer
 62
  256
370
   -1
100
AcDbLine
 10
-896.0254037844388
 20
-3350
 11
-896.0254037844388
 21
-3390
  0
LINE
  5
15C
100
AcDbEntity
  8
Font
  6
ByLayer
 62
  256
370
   -1
100
AcDbLine
 10
-916.0254037844388
 20
-3200
 11
-816.0254037844388
 21
-3200
  0
LINE
  5
15D
100
AcDbEntity
  8
Font
  6
ByLayer
 62
  256
370
   -1
100
AcDbLine
 10
-916.0254037844388
 20
-3200
 11
-916.0254037844388
 21
-3390
  0
LINE
  5
15E
100
AcDbEntity
  8
Font
  6
ByLayer
 62
  256
370
   -1
100
AcDbLine
 10
-816.0254037844388
 20
-3200
 11
-816.0254037844388
 21
-3390
  0
LINE
  5
15F
100
AcDbEntity
  8
Font
  6
ByLayer
 62
  256
370
   -1
100
AcDbLine
 10
-952.6279441628826
 20
-3150
 11
-732.6279441628826
 21
-3150
  0
LINE
  5
160
100
AcDbEntity
  8
Font
  6
ByLayer
 62
  256
370
   -1
100
AcDbLine
 10
-732.6279441628826
 20
-3420
 11
-732.6279441628826
 21
-3150
  0
LINE
  5
161
100
AcDbEntity
  8
Font
  6
ByLayer
 62
  256
370
   -1
100
AcDbLine
 10
-732.6279441628826
 20
-3420
 11
-767.98328322221
 21
-3384.644660940673
  0
LINE
  5
162
100
AcDbEntity
  8
Font
  6
ByLayer
 62
  256
370
   -1
100
AcDbLine
 10
-732.6279441628826
 20
-3420
 11
-697.2726051035554
 21
-3384.644660940673
  0
LINE
  5
163
100
AcDbEntity
  8
Font
  6
ByLayer
 62
  256
370
   -1
100
AcDbLine
 10
-916.0254037844388
 20
-3600
 11
-816.0254037844388
 21
-3600
  0
LINE
  5
164
100
AcDbEntity
  8
Font
  6
ByLayer
 62
  256
370
   -1
100
AcDbLine
 10
-952.6279441628826
 20
-3840
 11
-732.6279441628826
 21
-3840
  0
LINE
  5
165
100
AcDbEntity
  8
Font
  6
ByLayer
 62
  256
370
   -1
100
AcDbLine
 10
-732.6279441628826
 20
-3570
 11
-732.6279441628826
 21
-3840
  0
LINE
  5
166
100
AcDbEntity
  8
Font
  6
ByLayer
 62
  256
370
   -1
100
AcDbLine
 10
-732.6279441628826
 20
-3570
 11
-767.98328322221
 21
-3605.355339059327
  0
LINE
  5
167
100
AcDbEntity
  8
Font
  6
ByLayer
 62
  256
370
   -1
100
AcDbLine
 10
-732.6279441628826
 20
-3570
 11
-697.2726051035554
 21
-3605.355339059327
  0
LINE
  5
168
100
AcDbEntity
  8
Font
  6
ByLayer
 62
  256
370
   -1
100
AcDbLine
 10
-836.0254037844388
 20
-3200
 11
-836.0254037844388
 21
-3250
  0
LINE
  5
169
100
AcDbEntity
  8
Font
  6
ByLayer
 62
  256
370
   -1
100
AcDbLine
 10
-856.0254037844388
 20
-3200
 11
-856.0254037844388
 21
-3250
  0
LINE
  5
16A
100
AcDbEntity
  8
Font
  6
ByLayer
 62
  256
370
   -1
100
AcDbLine
 10
-876.0254037844388
 20
-3200
 11
-876.0254037844388
 21
-3250
  0
LINE
  5
16B
100
AcDbEntity
  8
Font
  6
ByLayer
 62
  256
370
   -1
100
AcDbLine
 10
-896.0254037844388
 20
-3200
 11
-896.0254037844388
 21
-3250
  0
ARC
  5
16C
100
AcDbEntity
  8
Font
  6
ByLayer
 62
  256
370
   -1
100
AcDbCircle
 10
-886.0254037844388
 20
-3390
 40
10
100
AcDbArc
 50
180
 51
270
  0
ARC
  5
16D
100
AcDbEntity
  8
Font
  6
ByLayer
 62
  256
370
   -1
100
AcDbCircle
 10
-826.0254037844388
 20
-3390
 40
10
100
AcDbArc
 50
270
 51
0
  0
LINE
  5
16E
100
AcDbEntity
  8
Font
  6
ByLayer
 62
  256
370
   -1
100
AcDbLine
 10
-886.0254037844388
 20
-3400
 11
-826.0254037844388
 21
-3400
  0
MTEXT
  5
16F
100
AcDbEntity
  8
Markings
  6
ByLayer
 62
  256
370
   -1
100
AcDbMText
 10
-866.0254037844388
 20
-3450
 30
0
 40
15
 41
141.2500045342771
 71
    5
 72
    1
  1
Regular Socks
  7
standard
210
0
220
0
230
1
 50
0
 73
    2
 44
1
  0
MTEXT
  5
170
100
AcDbEntity
  8
Markings
  6
ByLayer
 62
  256
370
   -1
100
AcDbMText
 10
-788.0831174438393
 20
-3815
 30
0
 40
15
 41
70.00000771430865
 71
    5
 72
    1
  1
Mittens
  7
standard
210
0
220
0
230
1
 50
0
 73
    2
 44
1
  0
ARC
  5
171
100
AcDbEntity
  8
Font
  6
ByLayer
 62
  256
370
   -1
100
AcDbCircle
 10
-906.0254037844388
 20
-3790
 40
10
100
AcDbArc
 50
180
 51
0
  0
LINE
  5
172
100
AcDbEntity
  8
Font
  6
ByLayer
 62
  256
370
   -1
100
AcDbLine
 10
-896.0254037844388
 20
-3750
 11
-896.0254037844388
 21
-3790
  0
LINE
  5
173
100
AcDbEntity
  8
Font
  6
ByLayer
 62
  256
370
   -1
100
AcDbLine
 10
-916.0254037844388
 20
-3600
 11
-916.0254037844388
 21
-3790
  0
LINE
  5
174
100
AcDbEntity
  8
Font
  6
ByLayer
 62
  256
370
   -1
100
AcDbLine
 10
-816.0254037844388
 20
-3600
 11
-816.0254037844388
 21
-3790
  0
LINE
  5
175
100
AcDbEntity
  8
Font
  6
ByLayer
 62
  256
370
   -1
100
AcDbLine
 10
-836.0254037844388
 20
-3600
 11
-836.0254037844388
 21
-3650
  0
LINE
  5
176
100
AcDbEntity
  8
Font
  6
ByLayer
 62
  256
370
   -1
100
AcDbLine
 10
-856.0254037844388
 20
-3600
 11
-856.0254037844388
 21
-3650
  0
LINE
  5
177
100
AcDbEntity
  8
Font
  6
ByLayer
 62
  256
370
   -1
100
AcDbLine
 10
-876.0254037844388
 20
-3600
 11
-876.0254037844388
 21
-3650
  0
LINE
  5
178
100
AcDbEntity
  8
Font
  6
ByLayer
 62
  256
370
   -1
100
AcDbLine
 10
-896.0254037844388
 20
-3600
 11
-896.0254037844388
 21
-3650
  0
ARC
  5
179
100
AcDbEntity
  8
Font
  6
ByLayer
 62
  256
370
   -1
100
AcDbCircle
 10
-886.0254037844388
 20
-3790
 40
10
100
AcDbArc
 50
180
 51
270
  0
ARC
  5
17A
100
AcDbEntity
  8
Font
  6
ByLayer
 62
  256
370
   -1
100
AcDbCircle
 10
-826.0254037844388
 20
-3790
 40
10
100
AcDbArc
 50
270
 51
0
  0
LINE
  5
17B
100
AcDbEntity
  8
Font
  6
ByLayer
 62
  256
370
   -1
100
AcDbLine
 10
-886.0254037844388
 20
-3800
 11
-826.0254037844388
 21
-3800
  0
ARC
  5
17C
100
AcDbEntity
  8
Font
  6
ByLayer
 62
  256
370
   -1
100
AcDbCircle
 10
-148.205080756888
 20
-2175
 40
25
100
AcDbArc
 50
89.99999999999987
 51
270.0000000000001
  0
ARC
  5
17D
100
AcDbEntity
  8
Font
  6
ByLayer
 62
  256
370
   -1
100
AcDbCircle
 10
1.794919243112047
 20
-2175
 40
25
100
AcDbArc
 50
270.0000000000001
 51
89.99999999999989
  0
LINE
  5
17E
100
AcDbEntity
  8
Font
  6
ByLayer
 62
  256
370
   -1
100
AcDbLine
 10
-148.205080756888
 20
-2200
 11
1.794919243112087
 21
-2200
  0
LINE
  5
17F
100
AcDbEntity
  8
Font
  6
ByLayer
 62
  256
370
   -1
100
AcDbLine
 10
-148.205080756888
 20
-2150
 11
1.794919243112099
 21
-2150
  0
CIRCLE
  5
180
100
AcDbEntity
  8
Font
  6
ByLayer
 62
  256
370
   -1
100
AcDbCircle
 10
1.794919243112121
 20
-2025
 40
25.00000000000001
  0
CIRCLE
  5
181
100
AcDbEntity
  8
Font
  6
ByLayer
 62
  256
370
   -1
100
AcDbCircle
 10
-138.2050807568879
 20
-2025
 40
25.00000000000001
  0
CIRCLE
  5
182
100
AcDbEntity
  8
Font
  6
ByLayer
 62
  256
370
   -1
100
AcDbCircle
 10
-68.20508075688788
 20
-2025
 40
25.00000000000001
  0
LINE
  5
183
100
AcDbEntity
  8
Font
  6
ByLayer
 62
  256
370
   -1
100
AcDbLine
 10
-23.2050807568879
 20
-2025
 11
-33.2050807568879
 21
-2025
  0
LINE
  5
184
100
AcDbEntity
  8
Font
  6
ByLayer
 62
  256
370
   -1
100
AcDbLine
 10
-93.20508075684928
 20
-2025
 11
-103.2050807568879
 21
-2025
  0
LINE
  5
185
100
AcDbEntity
  8
Font
  6
ByLayer
 62
  256
370
   -1
100
AcDbLine
 10
-163.2050807568788
 20
-2025
 11
-173.2050807568879
 21
-2025
  0
LINE
  5
186
100
AcDbEntity
  8
Font
  6
ByLayer
 62
  256
370
   -1
100
AcDbLine
 10
-23.2050807568879
 20
-2150
 11
1.794919243112116
 21
-2050
  0
LINE
  5
187
100
AcDbEntity
  8
Font
  6
ByLayer
 62
  256
370
   -1
100
AcDbLine
 10
-73.2050807568879
 20
-2150
 11
-68.20508075688788
 21
-2050
  0
LINE
  5
188
100
AcDbEntity
  8
Font
  6
ByLayer
 62
  256
370
   -1
100
AcDbLine
 10
-123.2050807568879
 20
-2150
 11
-138.2050807568879
 21
-2050
  0
MTEXT
  5
189
100
AcDbEntity
  8
Markings
  6
ByLayer
 62
  256
370
   -1
100
AcDbMText
 10
-69.2820323027556
 20
-2255
 30
0
 40
10
 41
35.55556069842754
 71
    5
 72
    1
  1
Bird's\Pnest
  7
standard
210
0
220
0
230
1
 50
0
 73
    2
 44
1
  0
LINE
  5
18A
100
AcDbEntity
  8
Font
  6
ByLayer
 62
  256
370
   -1
100
AcDbLine
 10
173.2050807568885
 20
-2142.264973081038
 11
273.2050807568876
 21
-2000
  0
LINE
  5
18B
100
AcDbEntity
  8
Font
  6
ByLayer
 62
  256
370
   -1
100
AcDbLine
 10
273.2050807568876
 20
-2000
 11
373.2050807568876
 21
-2142.264973081038
  0
LINE
  5
18C
100
AcDbEntity
  8
Font
  6
ByLayer
 62
  256
370
   -1
100
AcDbLine
 10
273.2050807568876
 20
-2200
 11
173.2050807568885
 21
-2142.264973081038
  0
LINE
  5
18D
100
AcDbEntity
  8
Font
  6
ByLayer
 62
  256
370
   -1
100
AcDbLine
 10
273.2050807568876
 20
-2200
 11
373.2050807568876
 21
-2142.264973081038
  0
LINE
  5
18E
100
AcDbEntity
  8
Font
  6
ByLayer
 62
  256
370
   -1
100
AcDbLine
 10
273.2050807568876
 20
-2200
 11
273.2050807568876
 21
-2000
  0
MTEXT
  5
18F
100
AcDbEntity
  8
Markings
  6
ByLayer
 62
  256
370
   -1
100
AcDbMText
 10
277.1281292110199
 20
-2255
 30
0
 40
10
 41
48.88888888888981
 71
    5
 72
    1
  1
Pyramid
  7
standard
210
0
220
0
230
1
 50
0
 73
    2
 44
1
  0
LINE
  5
190
100
AcDbEntity
  8
Font
  6
ByLayer
 62
  256
370
   -1
100
AcDbLine
 10
-419.6152422706631
 20
-2400
 11
-469.6152422706631
 21
-2550
  0
LINE
  5
191
100
AcDbEntity
  8
Font
  6
ByLayer
 62
  256
370
   -1
100
AcDbLine
 10
-469.6152422706631
 20
-2550
 11
-369.6152422706631
 21
-2550
  0
LINE
  5
192
100
AcDbEntity
  8
Font
  6
ByLayer
 62
  256
370
   -1
100
AcDbLine
 10
-369.6152422706631
 20
-2550
 11
-419.615242270663
 21
-2400
  0
LINE
  5
193
100
AcDbEntity
  8
Font
  6
ByLayer
 62
  256
370
   -1
100
AcDbLine
 10
-319.6152422706631
 20
-2600
 11
-519.6152422706631
 21
-2600
  0
LINE
  5
194
100
AcDbEntity
  8
Font
  6
ByLayer
 62
  256
370
   -1
100
AcDbLine
 10
-419.6152422706631
 20
-2500
 11
-394.6152422706631
 21
-2487.5
  0
LINE
  5
195
100
AcDbEntity
  8
Font
  6
ByLayer
 62
  256
370
   -1
100
AcDbLine
 10
-394.6152422706631
 20
-2487.5
 11
-407.1152422706631
 21
-2475
  0
LINE
  5
196
100
AcDbEntity
  8
Font
  6
ByLayer
 62
  256
370
   -1
100
AcDbLine
 10
-419.6152422706631
 20
-2537.5
 11
-394.6152422706631
 21
-2525
  0
LINE
  5
197
100
AcDbEntity
  8
Font
  6
ByLayer
 62
  256
370
   -1
100
AcDbLine
 10
-394.6152422706631
 20
-2525
 11
-407.1152422706631
 21
-2512.5
  0
LINE
  5
198
100
AcDbEntity
  8
Font
  6
ByLayer
 62
  256
370
   -1
100
AcDbLine
 10
-407.1152422706631
 20
-2475
 11
-397.7402422706631
 21
-2465.625
  0
LINE
  5
199
100
AcDbEntity
  8
Font
  6
ByLayer
 62
  256
370
   -1
100
AcDbLine
 10
-407.1152422706631
 20
-2512.5
 11
-388.3652422706631
 21
-2493.75
  0
LINE
  5
19A
100
AcDbEntity
  8
Font
  6
ByLayer
 62
  256
370
   -1
100
AcDbLine
 10
-419.6152422706631
 20
-2500
 11
-419.6152422706631
 21
-2600
  0
LINE
  5
19B
100
AcDbEntity
  8
Font
  6
ByLayer
 62
  256
370
   -1
100
AcDbLine
 10
-419.6152422706631
 20
-2500
 11
-444.6152422706631
 21
-2487.5
  0
LINE
  5
19C
100
AcDbEntity
  8
Font
  6
ByLayer
 62
  256
370
   -1
100
AcDbLine
 10
-444.6152422706631
 20
-2487.5
 11
-432.1152422706631
 21
-2475
  0
LINE
  5
19D
100
AcDbEntity
  8
Font
  6
ByLayer
 62
  256
370
   -1
100
AcDbLine
 10
-419.6152422706631
 20
-2537.5
 11
-444.6152422706631
 21
-2525
  0
LINE
  5
19E
100
AcDbEntity
  8
Font
  6
ByLayer
 62
  256
370
   -1
100
AcDbLine
 10
-444.6152422706631
 20
-2525
 11
-432.1152422706631
 21
-2512.5
  0
LINE
  5
19F
100
AcDbEntity
  8
Font
  6
ByLayer
 62
  256
370
   -1
100
AcDbLine
 10
-432.1152422706631
 20
-2475
 11
-441.4902422706631
 21
-2465.625
  0
LINE
  5
1A0
100
AcDbEntity
  8
Font
  6
ByLayer
 62
  256
370
   -1
100
AcDbLine
 10
-432.1152422706631
 20
-2512.5
 11
-450.8652422706631
 21
-2493.75
  0
MTEXT
  5
1A1
100
AcDbEntity
  8
Markings
  6
ByLayer
 62
  256
370
   -1
100
AcDbMText
 10
-415.6921938165308
 20
-2655
 30
0
 40
10
 41
68.88888666666806
 71
    5
 72
    1
  1
Tree\P(alternate)
  7
standard
210
0
220
0
230
1
 50
0
 73
    2
 44
1
  0
ARC
  5
1A2
100
AcDbEntity
  8
Font
  6
ByLayer
 62
  256
370
   -1
100
AcDbCircle
 10
-38.20508075688786
 20
-2512.500000000009
 40
12.49999999999386
100
AcDbArc
 50
90
 51
270
  0
ARC
  5
1A3
100
AcDbEntity
  8
Font
  6
ByLayer
 62
  256
370
   -1
100
AcDbCircle
 10
-38.20508075688786
 20
-2487.500000000003
 40
12.5
100
AcDbArc
 50
270
 51
90.00000000000026
  0
ARC
  5
1A4
100
AcDbEntity
  8
Font
  6
ByLayer
 62
  256
370
   -1
100
AcDbCircle
 10
-38.20508075688786
 20
-2587.5
 40
12.5
100
AcDbArc
 50
270
 51
90.00000000000026
  0
ARC
  5
1A5
100
AcDbEntity
  8
Font
  6
ByLayer
 62
  256
370
   -1
100
AcDbCircle
 10
-38.20508075688786
 20
-2562.500000000004
 40
12.49999999999591
100
AcDbArc
 50
90.00000000000027
 51
270
  0
ARC
  5
1A6
100
AcDbEntity
  8
Font
  6
ByLayer
 62
  256
370
   -1
100
AcDbCircle
 10
-38.20508075688783
 20
-2537.500000000002
 40
12.49999999999841
100
AcDbArc
 50
269.9999999999998
 51
90.00000000000016
  0
ARC
  5
1A7
100
AcDbEntity
  8
Font
  6
ByLayer
 62
  256
370
   -1
100
AcDbCircle
 10
-108.2050807568879
 20
-2512.499999999995
 40
12.49999999999386
100
AcDbArc
 50
90
 51
270
  0
ARC
  5
1A8
100
AcDbEntity
  8
Font
  6
ByLayer
 62
  256
370
   -1
100
AcDbCircle
 10
-108.2050807568879
 20
-2487.499999999989
 40
12.5
100
AcDbArc
 50
270
 51
90.00000000000026
  0
ARC
  5
1A9
100
AcDbEntity
  8
Font
  6
ByLayer
 62
  256
370
   -1
100
AcDbCircle
 10
-108.2050807568879
 20
-2587.499999999986
 40
12.5
100
AcDbArc
 50
270
 51
90.00000000000026
  0
ARC
  5
1AA
100
AcDbEntity
  8
Font
  6
ByLayer
 62
  256
370
   -1
100
AcDbCircle
 10
-108.2050807568879
 20
-2562.49999999999
 40
12.49999999999591
100
AcDbArc
 50
90.00000000000027
 51
270
  0
ARC
  5
1AB
100
AcDbEntity
  8
Font
  6
ByLayer
 62
  256
370
   -1
100
AcDbCircle
 10
-108.2050807568879
 20
-2537.499999999988
 40
12.49999999999841
100
AcDbArc
 50
269.9999999999998
 51
90.00000000000016
  0
LINE
  5
1AC
100
AcDbEntity
  8
Font
  6
ByLayer
 62
  256
370
   -1
100
AcDbLine
 10
26.79491924311214
 20
-2600
 11
-38.20508075688792
 21
-2450.000000000011
  0
LINE
  5
1AD
100
AcDbEntity
  8
Font
  6
ByLayer
 62
  256
370
   -1
100
AcDbLine
 10
-173.2050807568879
 20
-2600
 11
-108.205080756888
 21
-2449.999999999997
  0
LINE
  5
1AE
100
AcDbEntity
  8
Font
  6
ByLayer
 62
  256
370
   -1
100
AcDbLine
 10
-108.205080756888
 20
-2449.999999999997
 11
-38.20508075688786
 21
-2600
  0
ARC
  5
1AF
100
AcDbEntity
  8
Font
  6
ByLayer
 62
  256
370
   -1
100
AcDbCircle
 10
-108.2050807568879
 20
-2462.499999999993
 40
12.49999999999591
100
AcDbArc
 50
223.1426143826251
 51
270
  0
ARC
  5
1B0
100
AcDbEntity
  8
Font
  6
ByLayer
 62
  256
370
   -1
100
AcDbCircle
 10
-38.20508075688786
 20
-2462.500000000007
 40
12.49999999999591
100
AcDbArc
 50
219.9662130440496
 51
270
  0
LINE
  5
1B1
100
AcDbEntity
  8
Font
  6
ByLayer
 62
  256
370
   -1
100
AcDbLine
 10
-38.20508075688792
 20
-2450.000000000011
 11
-73.20508075688781
 21
-2524.999999999999
  0
LINE
  5
1B2
100
AcDbEntity
  8
Font
  6
ByLayer
 62
  256
370
   -1
100
AcDbLine
 10
-173.2050807568879
 20
-2600
 11
26.79491924311214
 21
-2600
  0
ARC
  5
1B3
100
AcDbEntity
  8
Font
  6
ByLayer
 62
  256
370
   -1
100
AcDbCircle
 10
308.2050807568876
 20
-2512.500000000009
 40
12.49999999999386
100
AcDbArc
 50
90
 51
270
  0
ARC
  5
1B4
100
AcDbEntity
  8
Font
  6
ByLayer
 62
  256
370
   -1
100
AcDbCircle
 10
308.2050807568876
 20
-2487.500000000003
 40
12.5
100
AcDbArc
 50
270
 51
90.00000000000026
  0
ARC
  5
1B5
100
AcDbEntity
  8
Font
  6
ByLayer
 62
  256
370
   -1
100
AcDbCircle
 10
308.2050807568876
 20
-2587.5
 40
12.5
100
AcDbArc
 50
270
 51
90.00000000000026
  0
ARC
  5
1B6
100
AcDbEntity
  8
Font
  6
ByLayer
 62
  256
370
   -1
100
AcDbCircle
 10
308.2050807568876
 20
-2562.500000000004
 40
12.49999999999591
100
AcDbArc
 50
90.00000000000027
 51
270
  0
ARC
  5
1B7
100
AcDbEntity
  8
Font
  6
ByLayer
 62
  256
370
   -1
100
AcDbCircle
 10
308.2050807568877
 20
-2537.500000000002
 40
12.49999999999841
100
AcDbArc
 50
269.9999999999998
 51
90.00000000000016
  0
ARC
  5
1B8
100
AcDbEntity
  8
Font
  6
ByLayer
 62
  256
370
   -1
100
AcDbCircle
 10
238.2050807568876
 20
-2512.499999999995
 40
12.49999999999386
100
AcDbArc
 50
90
 51
270
  0
ARC
  5
1B9
100
AcDbEntity
  8
Font
  6
ByLayer
 62
  256
370
   -1
100
AcDbCircle
 10
238.2050807568876
 20
-2487.499999999989
 40
12.5
100
AcDbArc
 50
270
 51
90.00000000000026
  0
ARC
  5
1BA
100
AcDbEntity
  8
Font
  6
ByLayer
 62
  256
370
   -1
100
AcDbCircle
 10
238.2050807568876
 20
-2587.499999999986
 40
12.5
100
AcDbArc
 50
270
 51
90.00000000000026
  0
ARC
  5
1BB
100
AcDbEntity
  8
Font
  6
ByLayer
 62
  256
370
   -1
100
AcDbCircle
 10
238.2050807568876
 20
-2562.49999999999
 40
12.49999999999591
100
AcDbArc
 50
90.00000000000027
 51
270
  0
ARC
  5
1BC
100
AcDbEntity
  8
Font
  6
ByLayer
 62
  256
370
   -1
100
AcDbCircle
 10
238.2050807568876
 20
-2537.499999999988
 40
12.49999999999841
100
AcDbArc
 50
269.9999999999998
 51
90.00000000000016
  0
LINE
  5
1BD
100
AcDbEntity
  8
Font
  6
ByLayer
 62
  256
370
   -1
100
AcDbLine
 10
373.2050807568876
 20
-2600
 11
308.2050807568876
 21
-2450.000000000011
  0
LINE
  5
1BE
100
AcDbEntity
  8
Font
  6
ByLayer
 62
  256
370
   -1
100
AcDbLine
 10
173.2050807568876
 20
-2600
 11
238.2050807568876
 21
-2449.999999999997
  0
LINE
  5
1BF
100
AcDbEntity
  8
Font
  6
ByLayer
 62
  256
370
   -1
100
AcDbLine
 10
238.2050807568876
 20
-2449.999999999997
 11
308.2050807568876
 21
-2600
  0
CIRCLE
  5
1C0
100
AcDbEntity
  8
Font
  6
ByLayer
 62
  256
370
   -1
100
AcDbCircle
 10
273.2050807568876
 20
-2425
 40
25
  0
ARC
  5
1C1
100
AcDbEntity
  8
Font
  6
ByLayer
 62
  256
370
   -1
100
AcDbCircle
 10
238.2050807568876
 20
-2462.499999999993
 40
12.49999999999591
100
AcDbArc
 50
223.1426143826251
 51
270
  0
ARC
  5
1C2
100
AcDbEntity
  8
Font
  6
ByLayer
 62
  256
370
   -1
100
AcDbCircle
 10
308.2050807568876
 20
-2462.500000000007
 40
12.49999999999591
100
AcDbArc
 50
219.9662130440496
 51
270
  0
LINE
  5
1C3
100
AcDbEntity
  8
Font
  6
ByLayer
 62
  256
370
   -1
100
AcDbLine
 10
308.2050807568876
 20
-2450.000000000011
 11
273.2050807568877
 21
-2524.999999999999
  0
LINE
  5
1C4
100
AcDbEntity
  8
Font
  6
ByLayer
 62
  256
370
   -1
100
AcDbLine
 10
173.2050807568876
 20
-2600
 11
373.2050807568876
 21
-2600
  0
MTEXT
  5
1C5
100
AcDbEntity
  8
Markings
  6
ByLayer
 62
  256
370
   -1
100
AcDbMText
 10
-69.2820323027556
 20
-2655
 30
0
 40
10
 41
90.00001028574506
 71
    5
 72
    1
  1
D[unes/esert]
  7
standard
210
0
220
0
230
1
 50
0
 73
    2
 44
1
  0
MTEXT
  5
1C6
100
AcDbEntity
  8
Markings
  6
ByLayer
 62
  256
370
   -1
100
AcDbMText
 10
277.1281292110199
 20
-2655
 30
0
 40
10
 41
46.66666666666714
 71
    5
 72
    1
  1
Horizon
  7
standard
210
0
220
0
230
1
 50
0
 73
    2
 44
1
  0
LINE
  5
1C7
100
AcDbEntity
  8
Markings
  6
ByLayer
 62
  256
370
   -1
100
AcDbLine
 10
-519.6152422706633
 20
-2800
 11
-519.6152422706633
 21
-3000
  0
LINE
  5
1C8
100
AcDbEntity
  8
Markings
  6
ByLayer
 62
  256
370
   -1
100
AcDbLine
 10
-319.6152422706631
 20
-2800
 11
-319.6152422706631
 21
-3000
  0
LINE
  5
1C9
100
AcDbEntity
  8
Markings
  6
ByLayer
 62
  256
370
   -1
100
AcDbLine
 10
-519.6152422706633
 20
-2800
 11
-319.6152422706631
 21
-2800
  0
LINE
  5
1CA
100
AcDbEntity
  8
Markings
  6
ByLayer
 62
  256
370
   -1
100
AcDbLine
 10
-519.6152422706633
 20
-3000
 11
-319.6152422706631
 21
-3000
  0
LINE
  5
1CB
100
AcDbEntity
  8
Markings
  6
ByLayer
 62
  256
370
   -1
100
AcDbLine
 10
-519.6152422706633
 20
-3025
 11
-519.6152422706633
 21
-3225
  0
LINE
  5
1CC
100
AcDbEntity
  8
Markings
  6
ByLayer
 62
  256
370
   -1
100
AcDbLine
 10
-319.6152422706631
 20
-3025
 11
-319.6152422706631
 21
-3225
  0
LINE
  5
1CD
100
AcDbEntity
  8
Markings
  6
ByLayer
 62
  256
370
   -1
100
AcDbLine
 10
-519.6152422706633
 20
-3225
 11
-319.6152422706631
 21
-3225
  0
LINE
  5
1CE
100
AcDbEntity
  8
Markings
  6
ByLayer
 62
  256
370
   -1
100
AcDbLine
 10
-519.6152422706633
 20
-3000
 11
-519.6152422706633
 21
-3025
  0
LINE
  5
1CF
100
AcDbEntity
  8
Markings
  6
ByLayer
 62
  256
370
   -1
100
AcDbLine
 10
-319.6152422706631
 20
-3000
 11
-319.6152422706631
 21
-3025
  0
LINE
  5
1D0
100
AcDbEntity
  8
Font
  6
ByLayer
 62
  256
370
   -1
100
AcDbLine
 10
-519.6152422706633
 20
-3125
 11
-319.6152422706631
 21
-3125
  0
LINE
  5
1D1
100
AcDbEntity
  8
Font
  6
ByLayer
 62
  256
370
   -1
100
AcDbLine
 10
-319.6152422706631
 20
-3025
 11
-419.6152422706633
 21
-3075
  0
LINE
  5
1D2
100
AcDbEntity
  8
Font
  6
ByLayer
 62
  256
370
   -1
100
AcDbLine
 10
-419.6152422706633
 20
-3075
 11
-419.6152422706633
 21
-3175
  0
ARC
  5
1D3
100
AcDbEntity
  8
Font
  6
ByLayer
 62
  256
370
   -1
100
AcDbCircle
 10
-469.6152422706633
 20
-3175
 40
50
100
AcDbArc
 50
269.9999999999998
 51
0
  0
LINE
  5
1D4
100
AcDbEntity
  8
Font
  6
ByLayer
 62
  256
370
   -1
100
AcDbLine
 10
-469.6152422706635
 20
-3225
 11
-519.6152422706633
 21
-3225
  0
LINE
  5
1D5
100
AcDbEntity
  8
Markings
  6
ByLayer
 62
  256
370
   -1
100
AcDbLine
 10
-319.6152422706631
 20
-3025
 11
-519.6152422706633
 21
-3025
  0
MTEXT
  5
1D6
100
AcDbEntity
  8
Markings
  6
ByLayer
 62
  256
370
   -1
100
AcDbMText
 10
-419.6152422706633
 20
-2900
 30
0
 40
15
 41
154.1666666666688
 71
    5
 72
    1
  1
Put the gender\Pof the one\Pbegetting the\Pchild here.
  7
standard
210
0
220
0
230
1
 50
0
 73
    2
 44
1
  0
MTEXT
  5
1D7
100
AcDbEntity
  8
Markings
  6
ByLayer
 62
  256
370
   -1
100
AcDbMText
 10
-415.6921938165309
 20
-3280
 30
0
 40
10
 41
58.61111111111204
 71
    5
 72
    1
  1
To beget\P(generic)
  7
standard
210
0
220
0
230
1
 50
0
 73
    2
 44
1
  0
LINE
  5
1D8
100
AcDbEntity
  8
Markings
  6
ByLayer
 62
  256
370
   -1
100
AcDbLine
 10
-173.2050807568877
 20
-2800
 11
-173.2050807568877
 21
-3000
  0
LINE
  5
1D9
100
AcDbEntity
  8
Markings
  6
ByLayer
 62
  256
370
   -1
100
AcDbLine
 10
26.79491924311264
 20
-2800
 11
26.79491924311264
 21
-3000
  0
LINE
  5
1DA
100
AcDbEntity
  8
Markings
  6
ByLayer
 62
  256
370
   -1
100
AcDbLine
 10
-173.2050807568877
 20
-2800
 11
26.79491924311264
 21
-2800
  0
LINE
  5
1DB
100
AcDbEntity
  8
Markings
  6
ByLayer
 62
  256
370
   -1
100
AcDbLine
 10
-173.2050807568877
 20
-3000
 11
26.79491924311264
 21
-3000
  0
LINE
  5
1DC
100
AcDbEntity
  8
Markings
  6
ByLayer
 62
  256
370
   -1
100
AcDbLine
 10
-173.2050807568877
 20
-3025
 11
-173.2050807568877
 21
-3225
  0
LINE
  5
1DD
100
AcDbEntity
  8
Markings
  6
ByLayer
 62
  256
370
   -1
100
AcDbLine
 10
26.79491924311264
 20
-3025
 11
26.79491924311264
 21
-3225
  0
LINE
  5
1DE
100
AcDbEntity
  8
Markings
  6
ByLayer
 62
  256
370
   -1
100
AcDbLine
 10
-173.2050807568877
 20
-3225
 11
26.79491924311264
 21
-3225
  0
LINE
  5
1DF
100
AcDbEntity
  8
Markings
  6
ByLayer
 62
  256
370
   -1
100
AcDbLine
 10
-173.2050807568877
 20
-3000
 11
-173.2050807568877
 21
-3025
  0
LINE
  5
1E0
100
AcDbEntity
  8
Markings
  6
ByLayer
 62
  256
370
   -1
100
AcDbLine
 10
26.79491924311264
 20
-3000
 11
26.79491924311264
 21
-3025
  0
LINE
  5
1E1
100
AcDbEntity
  8
Markings
  6
ByLayer
 62
  256
370
   -1
100
AcDbLine
 10
26.79491924311264
 20
-3025
 11
-173.2050807568877
 21
-3025
  0
LINE
  5
1E2
100
AcDbEntity
  8
Markings
  6
ByLayer
 62
  256
370
   -1
100
AcDbLine
 10
173.2050807568876
 20
-2800
 11
173.2050807568876
 21
-3000
  0
LINE
  5
1E3
100
AcDbEntity
  8
Markings
  6
ByLayer
 62
  256
370
   -1
100
AcDbLine
 10
373.2050807568885
 20
-2800
 11
373.2050807568885
 21
-3000
  0
LINE
  5
1E4
100
AcDbEntity
  8
Markings
  6
ByLayer
 62
  256
370
   -1
100
AcDbLine
 10
173.2050807568876
 20
-2800
 11
373.2050807568885
 21
-2800
  0
LINE
  5
1E5
100
AcDbEntity
  8
Markings
  6
ByLayer
 62
  256
370
   -1
100
AcDbLine
 10
173.2050807568876
 20
-3000
 11
373.2050807568885
 21
-3000
  0
LINE
  5
1E6
100
AcDbEntity
  8
Markings
  6
ByLayer
 62
  256
370
   -1
100
AcDbLine
 10
173.2050807568876
 20
-3025
 11
173.2050807568876
 21
-3225
  0
LINE
  5
1E7
100
AcDbEntity
  8
Markings
  6
ByLayer
 62
  256
370
   -1
100
AcDbLine
 10
373.2050807568885
 20
-3025
 11
373.2050807568885
 21
-3225
  0
LINE
  5
1E8
100
AcDbEntity
  8
Markings
  6
ByLayer
 62
  256
370
   -1
100
AcDbLine
 10
173.2050807568876
 20
-3225
 11
373.2050807568885
 21
-3225
  0
LINE
  5
1E9
100
AcDbEntity
  8
Markings
  6
ByLayer
 62
  256
370
   -1
100
AcDbLine
 10
173.2050807568876
 20
-3000
 11
173.2050807568876
 21
-3025
  0
LINE
  5
1EA
100
AcDbEntity
  8
Markings
  6
ByLayer
 62
  256
370
   -1
100
AcDbLine
 10
373.2050807568885
 20
-3000
 11
373.2050807568885
 21
-3025
  0
LINE
  5
1EB
100
AcDbEntity
  8
Markings
  6
ByLayer
 62
  256
370
   -1
100
AcDbLine
 10
373.2050807568885
 20
-3025
 11
173.2050807568876
 21
-3025
  0
LINE
  5
1EC
100
AcDbEntity
  8
Markings
  6
ByLayer
 62
  256
370
   -1
100
AcDbLine
 10
519.6152422706637
 20
-2800
 11
519.6152422706637
 21
-3000
  0
LINE
  5
1ED
100
AcDbEntity
  8
Markings
  6
ByLayer
 62
  256
370
   -1
100
AcDbLine
 10
719.6152422706637
 20
-2800
 11
719.6152422706637
 21
-3000
  0
LINE
  5
1EE
100
AcDbEntity
  8
Markings
  6
ByLayer
 62
  256
370
   -1
100
AcDbLine
 10
519.6152422706637
 20
-2800
 11
719.6152422706637
 21
-2800
  0
LINE
  5
1EF
100
AcDbEntity
  8
Markings
  6
ByLayer
 62
  256
370
   -1
100
AcDbLine
 10
519.6152422706637
 20
-3000
 11
719.6152422706637
 21
-3000
  0
LINE
  5
1F0
100
AcDbEntity
  8
Markings
  6
ByLayer
 62
  256
370
   -1
100
AcDbLine
 10
519.6152422706637
 20
-3025
 11
519.6152422706637
 21
-3225
  0
LINE
  5
1F1
100
AcDbEntity
  8
Markings
  6
ByLayer
 62
  256
370
   -1
100
AcDbLine
 10
719.6152422706637
 20
-3025
 11
719.6152422706637
 21
-3225
  0
LINE
  5
1F2
100
AcDbEntity
  8
Markings
  6
ByLayer
 62
  256
370
   -1
100
AcDbLine
 10
519.6152422706637
 20
-3225
 11
719.6152422706637
 21
-3225
  0
LINE
  5
1F3
100
AcDbEntity
  8
Markings
  6
ByLayer
 62
  256
370
   -1
100
AcDbLine
 10
519.6152422706637
 20
-3000
 11
519.6152422706637
 21
-3025
  0
LINE
  5
1F4
100
AcDbEntity
  8
Markings
  6
ByLayer
 62
  256
370
   -1
100
AcDbLine
 10
719.6152422706637
 20
-3000
 11
719.6152422706637
 21
-3025
  0
LINE
  5
1F5
100
AcDbEntity
  8
Markings
  6
ByLayer
 62
  256
370
   -1
100
AcDbLine
 10
719.6152422706637
 20
-3025
 11
519.6152422706637
 21
-3025
  0
LINE
  5
1F6
100
AcDbEntity
  8
Font
  6
ByLayer
 62
  256
370
   -1
100
AcDbLine
 10
-319.6152422706631
 20
-3025
 11
-519.6152422706633
 21
-3025
  0
LINE
  5
1F7
100
AcDbEntity
  8
Markings
  6
ByLayer
 62
  256
370
   -1
100
AcDbLine
 10
619.6152422706637
 20
-3125
 11
355.8845726811996
 21
-3125
  0
MTEXT
  5
1F8
100
AcDbEntity
  8
Markings
  6
ByLayer
 62
  256
370
   -1
100
AcDbMText
 10
273.2050807568876
 20
-3125
 30
0
 40
15
 41
119.5833333333361
 71
    5
 72
    1
  1
Put the\Pgender here\P(square for\Pgeneric).
  7
standard
210
0
220
0
230
1
 50
0
 73
    2
 44
1
  0
LINE
  5
1F9
100
AcDbEntity
  8
Markings
  6
ByLayer
 62
  256
370
   -1
100
AcDbLine
 10
-73.20508075688736
 20
-3125
 11
190.5255888325767
 21
-3125
  0
LINE
  5
1FA
100
AcDbEntity
  8
Font
  6
ByLayer
 62
  256
370
   -1
100
AcDbLine
 10
-173.2050807568877
 20
-3000
 11
-23.20508075688736
 21
-3000
  0
LINE
  5
1FB
100
AcDbEntity
  8
Font
  6
ByLayer
 62
  256
370
   -1
100
AcDbLine
 10
-23.20508075688736
 20
-3000
 11
-23.20508075688736
 21
-2900
  0
LINE
  5
1FC
100
AcDbEntity
  8
Font
  6
ByLayer
 62
  256
370
   -1
100
AcDbLine
 10
-23.20508075688736
 20
-2900
 11
-173.2050807568877
 21
-2900
  0
LINE
  5
1FD
100
AcDbEntity
  8
Font
  6
ByLayer
 62
  256
370
   -1
100
AcDbLine
 10
-173.2050807568877
 20
-2950
 11
26.79491924311264
 21
-2950
  0
LINE
  5
1FE
100
AcDbEntity
  8
Font
  6
ByLayer
 62
  256
370
   -1
100
AcDbLine
 10
-98.20508075688736
 20
-3000
 11
-98.20508075688736
 21
-2800
  0
LINE
  5
1FF
100
AcDbEntity
  8
Font
  6
ByLayer
 62
  256
370
   -1
100
AcDbLine
 10
-123.2050807568875
 20
-2850
 11
-73.20508075688736
 21
-2850
  0
MTEXT
  5
200
100
AcDbEntity
  8
Markings
  6
ByLayer
 62
  256
370
   -1
100
AcDbMText
 10
-69.2820323027554
 20
-3280
 30
0
 40
10
 41
98.33333736509562
 71
    5
 72
    1
  1
Spouse \P(Wife/Husband,\Petc)
  7
standard
210
0
220
0
230
1
 50
0
 73
    2
 44
1
  0
LINE
  5
201
100
AcDbEntity
  8
Font
  6
ByLayer
 62
  256
370
   -1
100
AcDbLine
 10
273.2050807568876
 20
-2800
 11
273.2050807568876
 21
-3000
  0
LINE
  5
202
100
AcDbEntity
  8
Font
  6
ByLayer
 62
  256
370
   -1
100
AcDbLine
 10
223.2050807568876
 20
-2850
 11
323.2050807568876
 21
-2850
  0
LINE
  5
203
100
AcDbEntity
  8
Font
  6
ByLayer
 62
  256
370
   -1
100
AcDbLine
 10
173.2050807568876
 20
-2900
 11
373.2050807568885
 21
-2900
  0
LINE
  5
204
100
AcDbEntity
  8
Font
  6
ByLayer
 62
  256
370
   -1
100
AcDbLine
 10
173.2050807568876
 20
-3000
 11
273.2050807568876
 21
-2900
  0
LINE
  5
205
100
AcDbEntity
  8
Font
  6
ByLayer
 62
  256
370
   -1
100
AcDbLine
 10
273.2050807568876
 20
-2900
 11
373.2050807568885
 21
-3000
  0
MTEXT
  5
206
100
AcDbEntity
  8
Markings
  6
ByLayer
 62
  256
370
   -1
100
AcDbMText
 10
277.1281292110207
 20
-3280
 30
0
 40
10
 41
52.22222222222315
 71
    5
 72
    1
  1
Younger\Psibling
  7
standard
210
0
220
0
230
1
 50
0
 73
    2
 44
1
  0
MTEXT
  5
207
100
AcDbEntity
  8
Markings
  6
ByLayer
 62
  256
370
   -1
100
AcDbMText
 10
623.5382907247956
 20
-3280
 30
0
 40
10
 41
56.66666666666667
 71
    5
 72
    1
  1
[E/O]lder\Psibling
  7
standard
210
0
220
0
230
1
 50
0
 73
    2
 44
1
  0
LINE
  5
208
100
AcDbEntity
  8
Font
  6
ByLayer
 62
  256
370
   -1
100
AcDbLine
 10
519.6152422706637
 20
-2850
 11
719.6152422706637
 21
-2850
  0
LINE
  5
209
100
AcDbEntity
  8
Font
  6
ByLayer
 62
  256
370
   -1
100
AcDbLine
 10
619.6152422706637
 20
-2800
 11
619.6152422706637
 21
-3000
  0
LINE
  5
20A
100
AcDbEntity
  8
Font
  6
ByLayer
 62
  256
370
   -1
100
AcDbLine
 10
569.6152422706637
 20
-2950
 11
569.6152422706637
 21
-2900
  0
LINE
  5
20B
100
AcDbEntity
  8
Font
  6
ByLayer
 62
  256
370
   -1
100
AcDbLine
 10
569.6152422706637
 20
-2900
 11
669.6152422706637
 21
-2900
  0
ARC
  5
20C
100
AcDbEntity
  8
Font
  6
ByLayer
 62
  256
370
   -1
100
AcDbCircle
 10
644.6152422706637
 20
-2925
 40
25
100
AcDbArc
 50
269.9999999999995
 51
0
  0
LINE
  5
20D
100
AcDbEntity
  8
Font
  6
ByLayer
 62
  256
370
   -1
100
AcDbLine
 10
669.6152422706637
 20
-2900
 11
669.6152422706637
 21
-2925
  0
CIRCLE
  5
20E
100
AcDbEntity
  8
Markings
  6
ByLayer
 62
  256
370
   -1
100
AcDbCircle
 10
-549.9651137073691
 20
-3980.61063270907
 40
50
  0
CIRCLE
  5
20F
100
AcDbEntity
  8
Markings
  6
ByLayer
 62
  256
370
   -1
100
AcDbCircle
 10
-376.7600329504817
 20
-3980.61063270907
 40
50
  0
CIRCLE
  5
210
100
AcDbEntity
  8
Markings
  6
ByLayer
 62
  256
370
   -1
100
AcDbCircle
 10
-423.9916176135027
 20
-3780.601154864328
 40
50
  0
LINE
  5
211
100
AcDbEntity
  8
Markings
  6
ByLayer
 62
  256
370
   -1
100
AcDbLine
 10
-549.9651137073691
 20
-3930.61063270907
 11
-423.9916176135027
 21
-3830.601154864328
  0
LINE
  5
212
100
AcDbEntity
  8
Markings
  6
ByLayer
 62
  256
370
   -1
100
AcDbLine
 10
-423.9916176135027
 20
-3830.601154864328
 11
-376.7600329504817
 21
-3930.61063270907
  0
LINE
  5
213
100
AcDbEntity
  8
Markings
  6
ByLayer
 62
  256
370
   -1
100
AcDbLine
 10
-203.5549521935934
 20
-3930.61063270907
 11
-423.9916176135027
 21
-3830.601154864328
  0
LINE
  5
214
100
AcDbEntity
  8
Markings
  6
ByLayer
 62
  256
370
   -1
100
AcDbLine
 10
-30.34987143670537
 20
-3930.61063270907
 11
-423.9916176135027
 21
-3830.601154864328
  0
LINE
  5
215
100
AcDbEntity
  8
Font
  6
ByLayer
 62
  256
370
   -1
100
AcDbLine
 10
-593.266383896591
 20
-4005.61063270907
 11
-549.9651137073691
 21
-4030.61063270907
  0
LINE
  5
216
100
AcDbEntity
  8
Font
  6
ByLayer
 62
  256
370
   -1
100
AcDbLine
 10
-549.9651137073691
 20
-4030.61063270907
 11
-506.6638435181472
 21
-4005.61063270907
  0
LINE
  5
217
100
AcDbEntity
  8
Font
  6
ByLayer
 62
  256
370
   -1
100
AcDbLine
 10
-506.6638435181472
 20
-4005.61063270907
 11
-506.6638435181472
 21
-3955.61063270907
  0
LINE
  5
218
100
AcDbEntity
  8
Font
  6
ByLayer
 62
  256
370
   -1
100
AcDbLine
 10
-506.6638435181472
 20
-3955.61063270907
 11
-549.9651137073691
 21
-3930.61063270907
  0
LINE
  5
219
100
AcDbEntity
  8
Font
  6
ByLayer
 62
  256
370
   -1
100
AcDbLine
 10
-549.9651137073691
 20
-3930.61063270907
 11
-593.266383896591
 21
-3955.61063270907
  0
LINE
  5
21A
100
AcDbEntity
  8
Font
  6
ByLayer
 62
  256
370
   -1
100
AcDbLine
 10
-593.266383896591
 20
-3955.61063270907
 11
-593.266383896591
 21
-4005.61063270907
  0
LINE
  5
21B
100
AcDbEntity
  8
Font
  6
ByLayer
 62
  256
370
   -1
100
AcDbLine
 10
-549.9651137073691
 20
-3980.61063270907
 11
-506.6638435181492
 21
-3955.610632709069
  0
LINE
  5
21C
100
AcDbEntity
  8
Font
  6
ByLayer
 62
  256
370
   -1
100
AcDbLine
 10
-593.266383896591
 20
-3955.610632709066
 11
-549.9651137073691
 21
-3980.61063270907
  0
LINE
  5
21D
100
AcDbEntity
  8
Font
  6
ByLayer
 62
  256
370
   -1
100
AcDbLine
 10
-549.9651137073691
 20
-3980.61063270907
 11
-549.9651137073691
 21
-4030.61063270907
  0
LINE
  5
21E
100
AcDbEntity
  8
Font
  6
ByLayer
 62
  256
370
   -1
100
AcDbLine
 10
-401.7600329504817
 20
-3966.176875979329
 11
-376.7600329504816
 21
-3951.743119249589
  0
LINE
  5
21F
100
AcDbEntity
  8
Font
  6
ByLayer
 62
  256
370
   -1
100
AcDbLine
 10
-376.7600329504816
 20
-3951.743119249589
 11
-351.7600329504817
 21
-3966.176875979329
  0
LINE
  5
220
100
AcDbEntity
  8
Font
  6
ByLayer
 62
  256
370
   -1
100
AcDbLine
 10
-401.7600329504817
 20
-3995.04438943881
 11
-376.7600329504816
 21
-4009.478146168551
  0
LINE
  5
221
100
AcDbEntity
  8
Font
  6
ByLayer
 62
  256
370
   -1
100
AcDbLine
 10
-351.7600329504817
 20
-3966.176875979329
 11
-351.7600329504817
 21
-3995.044389438811
  0
LINE
  5
222
100
AcDbEntity
  8
Font
  6
ByLayer
 62
  256
370
   -1
100
AcDbLine
 10
-376.7600329504818
 20
-4009.478146168551
 11
-351.7600329504817
 21
-3995.044389438811
  0
LINE
  5
223
100
AcDbEntity
  8
Font
  6
ByLayer
 62
  256
370
   -1
100
AcDbLine
 10
-401.7600329504817
 20
-3966.176875979329
 11
-401.7600329504817
 21
-3995.04438943881
  0
LINE
  5
224
100
AcDbEntity
  8
Font
  6
ByLayer
 62
  256
370
   -1
100
AcDbLine
 10
-333.4587627612592
 20
-3955.61063270907
 11
-420.061303139703
 21
-4005.610632709069
  0
LINE
  5
225
100
AcDbEntity
  8
Font
  6
ByLayer
 62
  256
370
   -1
100
AcDbLine
 10
-333.4587627612582
 20
-4005.610632709071
 11
-420.0613031397038
 21
-3955.61063270907
  0
LINE
  5
226
100
AcDbEntity
  8
Font
  6
ByLayer
 62
  256
370
   -1
100
AcDbLine
 10
-376.7600329504819
 20
-4030.61063270907
 11
-376.7600329504814
 21
-3930.61063270907
  0
LINE
  5
227
100
AcDbEntity
  8
Markings
  6
ByLayer
 62
  256
370
   -1
100
AcDbLine
 10
-253.5549521935936
 20
-3930.61063270907
 11
-253.5549521935936
 21
-4030.61063270907
  0
LINE
  5
228
100
AcDbEntity
  8
Markings
  6
ByLayer
 62
  256
370
   -1
100
AcDbLine
 10
-153.5549521935934
 20
-3930.61063270907
 11
-153.5549521935934
 21
-4030.61063270907
  0
LINE
  5
229
100
AcDbEntity
  8
Markings
  6
ByLayer
 62
  256
370
   -1
100
AcDbLine
 10
-253.5549521935936
 20
-3930.61063270907
 11
-153.5549521935934
 21
-3930.61063270907
  0
LINE
  5
22A
100
AcDbEntity
  8
Markings
  6
ByLayer
 62
  256
370
   -1
100
AcDbLine
 10
-253.5549521935936
 20
-4030.61063270907
 11
-153.5549521935934
 21
-4030.61063270907
  0
ARC
  5
22B
100
AcDbEntity
  8
Font
  6
ByLayer
 62
  256
370
   -1
100
AcDbCircle
 10
-228.5549521935936
 20
-4005.61063270907
 40
25
100
AcDbArc
 50
270.0000000000002
 51
2.544443745170813e-13
  0
LINE
  5
22C
100
AcDbEntity
  8
Font
  6
ByLayer
 62
  256
370
   -1
100
AcDbLine
 10
-203.5549521935934
 20
-3930.61063270907
 11
-203.5549521935934
 21
-4005.61063270907
  0
LINE
  5
22D
100
AcDbEntity
  8
Font
  6
ByLayer
 62
  256
370
   -1
100
AcDbLine
 10
-153.5549521935934
 20
-3930.61063270907
 11
-203.5549521935934
 21
-3968.11063270907
  0
LINE
  5
22E
100
AcDbEntity
  8
Font
  6
ByLayer
 62
  256
370
   -1
100
AcDbLine
 10
-203.5549521935934
 20
-3968.11063270907
 11
-153.5549521935934
 21
-4005.61063270907
  0
ELLIPSE
  5
22F
100
AcDbEntity
  8
Font
  6
ByLayer
 62
  256
370
   -1
100
AcDbEllipse
 10
-253.5549521935936
 20
-3955.61063270907
 30
0
 11
0
 21
-50
 31
0
 40
0.75
 41
6.217248937900877e-15
 42
1.570796326794898
  0
LINE
  5
230
100
AcDbEntity
  8
Font
  6
ByLayer
 62
  256
370
   -1
100
AcDbLine
 10
-253.5549521935936
 20
-3955.61063270907
 11
-216.0549521935927
 21
-3955.61063270907
  0
LINE
  5
231
100
AcDbEntity
  8
Markings
  6
ByLayer
 62
  256
370
   -1
100
AcDbLine
 10
-80.34987143670537
 20
-3930.61063270907
 11
-80.34987143670537
 21
-4030.61063270907
  0
LINE
  5
232
100
AcDbEntity
  8
Markings
  6
ByLayer
 62
  256
370
   -1
100
AcDbLine
 10
19.65012856329463
 20
-3930.61063270907
 11
19.65012856329463
 21
-4030.61063270907
  0
LINE
  5
233
100
AcDbEntity
  8
Markings
  6
ByLayer
 62
  256
370
   -1
100
AcDbLine
 10
-80.34987143670537
 20
-3930.61063270907
 11
19.65012856329463
 21
-3930.61063270907
  0
LINE
  5
234
100
AcDbEntity
  8
Markings
  6
ByLayer
 62
  256
370
   -1
100
AcDbLine
 10
-80.34987143670537
 20
-4030.61063270907
 11
19.65012856329463
 21
-4030.61063270907
  0
ARC
  5
235
100
AcDbEntity
  8
Font
  6
ByLayer
 62
  256
370
   -1
100
AcDbCircle
 10
-80.34987143670537
 20
-3999.36063270907
 40
31.25
100
AcDbArc
 50
269.9999999999999
 51
0
  0
ARC
  5
236
100
AcDbEntity
  8
Font
  6
ByLayer
 62
  256
370
   -1
100
AcDbCircle
 10
-55.34987143670537
 20
-3986.860632709073
 40
6.24999999999693
100
AcDbArc
 50
90
 51
270
  0
ARC
  5
237
100
AcDbEntity
  8
Font
  6
ByLayer
 62
  256
370
   -1
100
AcDbCircle
 10
-55.34987143670537
 20
-3974.36063270907
 40
6.25
100
AcDbArc
 50
270
 51
90.00000000000026
  0
ARC
  5
238
100
AcDbEntity
  8
Font
  6
ByLayer
 62
  256
370
   -1
100
AcDbCircle
 10
-55.34987143670537
 20
-3961.860632709072
 40
6.249999999997954
100
AcDbArc
 50
90.00000000000027
 51
270
  0
ARC
  5
239
100
AcDbEntity
  8
Font
  6
ByLayer
 62
  256
370
   -1
100
AcDbCircle
 10
-55.34987143670537
 20
-3949.360632709071
 40
6.249999999999204
100
AcDbArc
 50
269.9999999999998
 51
90.00000000000016
  0
ARC
  5
23A
100
AcDbEntity
  8
Font
  6
ByLayer
 62
  256
370
   -1
100
AcDbCircle
 10
-55.34987143670537
 20
-3999.360630647602
 40
6.249997938530157
100
AcDbArc
 50
359.9999811018459
 51
89.99999999999974
  0
ARC
  5
23B
100
AcDbEntity
  8
Font
  6
ByLayer
 62
  256
370
   -1
100
AcDbCircle
 10
7.150128563294629
 20
-3986.860632709073
 40
6.24999999999693
100
AcDbArc
 50
90
 51
270
  0
ARC
  5
23C
100
AcDbEntity
  8
Font
  6
ByLayer
 62
  256
370
   -1
100
AcDbCircle
 10
7.150128563294629
 20
-3974.36063270907
 40
6.25
100
AcDbArc
 50
270
 51
90.00000000000026
  0
ARC
  5
23D
100
AcDbEntity
  8
Font
  6
ByLayer
 62
  256
370
   -1
100
AcDbCircle
 10
7.150128563294629
 20
-3961.860632709072
 40
6.249999999997954
100
AcDbArc
 50
90.00000000000027
 51
270
  0
ARC
  5
23E
100
AcDbEntity
  8
Font
  6
ByLayer
 62
  256
370
   -1
100
AcDbCircle
 10
7.150128563294629
 20
-3949.360632709071
 40
6.249999999999204
100
AcDbArc
 50
269.9999999999998
 51
90.00000000000016
  0
ARC
  5
23F
100
AcDbEntity
  8
Font
  6
ByLayer
 62
  256
370
   -1
100
AcDbCircle
 10
7.150128563294629
 20
-4024.360632709068
 40
6.25
100
AcDbArc
 50
270
 51
90.00000000000026
  0
ARC
  5
240
100
AcDbEntity
  8
Font
  6
ByLayer
 62
  256
370
   -1
100
AcDbCircle
 10
7.150128563294629
 20
-4011.86063270907
 40
6.249999999997954
100
AcDbArc
 50
90.00000000000027
 51
270
  0
ARC
  5
241
100
AcDbEntity
  8
Font
  6
ByLayer
 62
  256
370
   -1
100
AcDbCircle
 10
7.150128563294629
 20
-3999.360632709069
 40
6.249999999999204
100
AcDbArc
 50
269.9999999999998
 51
90.00000000000016
  0
ARC
  5
242
100
AcDbEntity
  8
Font
  6
ByLayer
 62
  256
370
   -1
100
AcDbCircle
 10
-24.09987143670537
 20
-3986.860632709073
 40
6.24999999999693
100
AcDbArc
 50
90
 51
270
  0
ARC
  5
243
100
AcDbEntity
  8
Font
  6
ByLayer
 62
  256
370
   -1
100
AcDbCircle
 10
-24.09987143670537
 20
-3974.36063270907
 40
6.25
100
AcDbArc
 50
270
 51
90.00000000000026
  0
ARC
  5
244
100
AcDbEntity
  8
Font
  6
ByLayer
 62
  256
370
   -1
100
AcDbCircle
 10
-24.09987143670537
 20
-3961.860632709072
 40
6.249999999997954
100
AcDbArc
 50
90.00000000000027
 51
270
  0
ARC
  5
245
100
AcDbEntity
  8
Font
  6
ByLayer
 62
  256
370
   -1
100
AcDbCircle
 10
-24.09987143670537
 20
-3949.360632709071
 40
6.249999999999204
100
AcDbArc
 50
269.9999999999998
 51
90.00000000000016
  0
ARC
  5
246
100
AcDbEntity
  8
Font
  6
ByLayer
 62
  256
370
   -1
100
AcDbCircle
 10
-24.09987143670537
 20
-4024.360632709068
 40
6.25
100
AcDbArc
 50
270
 51
90.00000000000026
  0
ARC
  5
247
100
AcDbEntity
  8
Font
  6
ByLayer
 62
  256
370
   -1
100
AcDbCircle
 10
-24.09987143670537
 20
-4011.86063270907
 40
6.249999999997954
100
AcDbArc
 50
90.00000000000027
 51
270
  0
ARC
  5
248
100
AcDbEntity
  8
Font
  6
ByLayer
 62
  256
370
   -1
100
AcDbCircle
 10
-24.09987143670537
 20
-3999.360632709069
 40
6.249999999999204
100
AcDbArc
 50
269.9999999999998
 51
90.00000000000016
  0
LINE
  5
249
100
AcDbEntity
  8
Font
  6
ByLayer
 62
  256
370
   -1
100
AcDbLine
 10
-80.34987143670537
 20
-3930.61063270907
 11
19.65012856329463
 21
-3930.61063270907
  0
LINE
  5
24A
100
AcDbEntity
  8
Font
  6
ByLayer
 62
  256
370
   -1
100
AcDbLine
 10
-203.5549521935934
 20
-3930.61063270907
 11
-228.5549521935935
 21
-3930.61063270907
  0
LINE
  5
24B
100
AcDbEntity
  8
Markings
  6
ByLayer
 62
  256
370
   -1
100
AcDbLine
 10
-533.0127018922199
 20
-3450
 11
-533.0127018922199
 21
-3650
  0
LINE
  5
24C
100
AcDbEntity
  8
Markings
  6
ByLayer
 62
  256
370
   -1
100
AcDbLine
 10
-333.0127018922199
 20
-3450
 11
-333.0127018922199
 21
-3650
  0
LINE
  5
24D
100
AcDbEntity
  8
Markings
  6
ByLayer
 62
  256
370
   -1
100
AcDbLine
 10
-533.0127018922199
 20
-3450
 11
-333.0127018922199
 21
-3450
  0
LINE
  5
24E
100
AcDbEntity
  8
Markings
  6
ByLayer
 62
  256
370
   -1
100
AcDbLine
 10
-533.0127018922199
 20
-3650
 11
-333.0127018922199
 21
-3650
  0
LINE
  5
24F
100
AcDbEntity
  8
Font
  6
ByLayer
 62
  256
370
   -1
100
AcDbLine
 10
-533.0127018922199
 20
-3500
 11
-333.0127018922199
 21
-3500
  0
LINE
  5
250
100
AcDbEntity
  8
Font
  6
ByLayer
 62
  256
370
   -1
100
AcDbLine
 10
-533.0127018922199
 20
-3450
 11
-333.0127018922199
 21
-3450
  0
LINE
  5
251
100
AcDbEntity
  8
Font
  6
ByLayer
 62
  256
370
   -1
100
AcDbLine
 10
-433.0127018922199
 20
-3450
 11
-433.0127018922199
 21
-3650
  0
LINE
  5
252
100
AcDbEntity
  8
Font
  6
ByLayer
 62
  256
370
   -1
100
AcDbLine
 10
-533.0127018922199
 20
-3500
 11
-533.0127018922199
 21
-3650
  0
LINE
  5
253
100
AcDbEntity
  8
Font
  6
ByLayer
 62
  256
370
   -1
100
AcDbLine
 10
-333.0127018922199
 20
-3500
 11
-333.0127018922199
 21
-3650
  0
LINE
  5
254
100
AcDbEntity
  8
Font
  6
ByLayer
 62
  256
370
   -1
100
AcDbLine
 10
-520.5127018922199
 20
-3550
 11
-445.5127018922199
 21
-3550
  0
LINE
  5
255
100
AcDbEntity
  8
Font
  6
ByLayer
 62
  256
370
   -1
100
AcDbLine
 10
-420.5127018922199
 20
-3550
 11
-345.5127018922199
 21
-3550
  0
LINE
  5
256
100
AcDbEntity
  8
Font
  6
ByLayer
 62
  256
370
   -1
100
AcDbLine
 10
-520.5127018922199
 20
-3600
 11
-445.5127018922199
 21
-3600
  0
LINE
  5
257
100
AcDbEntity
  8
Font
  6
ByLayer
 62
  256
370
   -1
100
AcDbLine
 10
-420.5127018922199
 20
-3600
 11
-345.5127018922199
 21
-3600
  0
MTEXT
  5
258
100
AcDbEntity
  8
Markings
  6
ByLayer
 62
  256
370
   -1
100
AcDbMText
 10
-423.9916176135027
 20
-3680
 30
0
 40
10
 41
81.11111111111205
 71
    5
 72
    1
  1
Precipitation
  7
standard
210
0
220
0
230
1
 50
0
 73
    2
 44
1
  0
MTEXT
  5
259
100
AcDbEntity
  8
Markings
  6
ByLayer
 62
  256
370
   -1
100
AcDbMText
 10
-423.9916176135027
 20
-3780.601154864328
 30
0
 40
10
 41
57.5
 71
    5
 72
    1
  1
Put type\Phere
  7
standard
210
0
220
0
230
1
 50
0
 73
    2
 44
1
  0
ELLIPSE
  5
25A
100
AcDbEntity
  8
Font
  6
ByLayer
 62
  256
370
   -1
100
AcDbEllipse
 10
-519.6152422706631
 20
-950
 30
0
 11
150
 21
0
 31
0
 40
0.3333333333333333
 41
4.712388980384691
 42
0
  0
ELLIPSE
  5
25B
100
AcDbEntity
  8
Font
  6
ByLayer
 62
  256
370
   -1
100
AcDbEllipse
 10
-319.6152422706631
 20
-950
 30
0
 11
-149.9999999999929
 21
0
 31
0
 40
0.3333333333333491
 41
4.884981308350689e-15
 42
1.570796326794897
  0
ARC
  5
25C
100
AcDbEntity
  8
Font
  6
ByLayer
 62
  256
370
   -1
100
AcDbCircle
 10
-519.6152422706632
 20
-912.5
 40
62.50000000000001
100
AcDbArc
 50
270
 51
348.4630409671843
  0
MTEXT
  5
25D
100
AcDbEntity
  8
Markings
  6
ByLayer
 62
  256
370
   -1
100
AcDbMText
 10
-549.965113707369
 20
-4080.61063270907
 30
0
 40
10
 41
21.11111111111158
 71
    5
 72
    1
  1
Hail
  7
standard
210
0
220
0
230
1
 50
0
 73
    2
 44
1
  0
MTEXT
  5
25E
100
AcDbEntity
  8
Markings
  6
ByLayer
 62
  256
370
   -1
100
AcDbMText
 10
-376.7600329504816
 20
-4080.61063270907
 30
0
 40
10
 41
31.11110899109008
 71
    5
 72
    1
  1
Snow
  7
standard
210
0
220
0
230
1
 50
0
 73
    2
 44
1
  0
MTEXT
  5
25F
100
AcDbEntity
  8
Markings
  6
ByLayer
 62
  256
370
   -1
100
AcDbMText
 10
-203.5549521935933
 20
-4070.61063270907
 30
0
 40
10
 41
84.16666444444675
 71
    5
 72
    1
  1
Rain\P(water hanji)
  7
standard
210
0
220
0
230
1
 50
0
 73
    2
 44
1
  0
MTEXT
  5
260
100
AcDbEntity
  8
Markings
  6
ByLayer
 62
  256
370
   -1
100
AcDbMText
 10
-30.34987143670526
 20
-4080.61063270907
 30
0
 40
10
 41
80.8333311111125
 71
    5
 72
    1
  1
Downpour\P(River Kanji)
  7
standard
210
0
220
0
230
1
 50
0
 73
    2
 44
1
  0
ENDSEC
  0
SECTION
  2
OBJECTS
  0
DICTIONARY
  5
C
330
0
100
AcDbDictionary
281
    1
  3
ACAD_GROUP
350
D
  0
DICTIONARY
  5
D
330
C
100
AcDbDictionary
281
    1
  0
ENDSEC
  0
EOF
