999
dxfrw 0.6.3
  0
SECTION
  2
HEADER
  9
$ACADVER
  1
AC1021
  9
$DWGCODEPAGE
  3
ANSI_1252
  9
$INSBASE
 10
0
 20
0
 30
0
  9
$EXTMIN
 10
-1.000000000000026
 20
-152
 30
0
  9
$EXTMAX
 10
115
 20
11
 30
0
  9
$LIMMIN
 10
0
 20
0
  9
$LIMMAX
 10
420
 20
297
  9
$ORTHOMODE
 70
    0
  9
$REGENMODE
 70
    1
  9
$FILLMODE
 70
    1
  9
$QTEXTMODE
 70
    0
  9
$MIRRTEXT
 70
    0
  9
$LTSCALE
 40
1
  9
$ATTMODE
 70
    0
  9
$TEXTSIZE
 40
2.5
  9
$TRACEWID
 40
15.68
  9
$TEXTSTYLE
  7
STANDARD
  9
$CLAYER
  8
Subtitle
  9
$CELTYPE
  6
BYLAYER
  9
$CECOLOR
 62
  256
  9
$CELTSCALE
 40
1
  9
$DISPSILH
 70
    0
  9
$DIMSCALE
 40
2.5
  9
$DIMASZ
 40
2.5
  9
$DIMEXO
 40
0.625
  9
$DIMDLI
 40
3.75
  9
$DIMRND
 40
0
  9
$DIMDLE
 40
0
  9
$DIMEXE
 40
1.25
  9
$DIMTP
 40
0
  9
$DIMTM
 40
0
  9
$DIMTXT
 40
2.5
  9
$DIMCEN
 40
2.5
  9
$DIMTSZ
 40
0
  9
$DIMTOL
 70
    0
  9
$DIMLIM
 70
    0
  9
$DIMTIH
 70
    0
  9
$DIMTOH
 70
    0
  9
$DIMSE1
 70
    0
  9
$DIMSE2
 70
    0
  9
$DIMTAD
 70
    1
  9
$DIMZIN
 70
    8
  9
$DIMBLK
  1

  9
$DIMASO
 70
    1
  9
$DIMSHO
 70
    1
  9
$DIMPOST
  1

  9
$DIMAPOST
  1

  9
$DIMALT
 70
    0
  9
$DIMALTD
 70
    3
  9
$DIMALTF
 40
0.03937
  9
$DIMLFAC
 40
1
  9
$DIMTOFL
 70
    1
  9
$DIMTVP
 40
0
  9
$DIMTIX
 70
    0
  9
$DIMSOXD
 70
    0
  9
$DIMSAH
 70
    0
  9
$DIMBLK1
  1

  9
$DIMBLK2
  1

  9
$DIMSTYLE
  2
STANDARD
  9
$DIMCLRD
 70
    0
  9
$DIMCLRE
 70
    0
  9
$DIMCLRT
 70
    0
  9
$DIMTFAC
 40
1
  9
$DIMGAP
 40
0.625
  9
$DIMJUST
 70
    0
  9
$DIMSD1
 70
    0
  9
$DIMSD2
 70
    0
  9
$DIMTOLJ
 70
    0
  9
$DIMTZIN
 70
    8
  9
$DIMALTZ
 70
    0
  9
$DIMALTTZ
 70
    0
  9
$DIMUPT
 70
    0
  9
$DIMDEC
 70
    2
  9
$DIMTDEC
 70
    2
  9
$DIMALTU
 70
    2
  9
$DIMALTTD
 70
    3
  9
$DIMTXSTY
  7
standard
  9
$DIMAUNIT
 70
    0
  9
$DIMADEC
 70
    0
  9
$DIMALTRND
 40
0
  9
$DIMAZIN
 70
    0
  9
$DIMDSEP
 70
   44
  9
$DIMATFIT
 70
    3
  9
$DIMFRAC
 70
    0
  9
$DIMLDRBLK
  1
STANDARD
  9
$DIMLUNIT
 70
    2
  9
$DIMLWD
 70
   -2
  9
$DIMLWE
 70
   -2
  9
$DIMTMOVE
 70
    0
  9
$DIMFXL
 40
1
  9
$DIMFXLON
 70
    0
  9
$DIMJOGANG
 40
0.7854
  9
$DIMTFILL
 70
    0
  9
$DIMTFILLCLR
 70
    0
  9
$DIMARCSYM
 70
    0
  9
$DIMLTYPE
  6

  9
$DIMLTEX1
  6

  9
$DIMLTEX2
  6

  9
$LUNITS
 70
    2
  9
$LUPREC
 70
    4
  9
$SKETCHINC
 40
1
  9
$FILLETRAD
 40
0
  9
$AUNITS
 70
    0
  9
$AUPREC
 70
    2
  9
$MENU
  1
.
  9
$ELEVATION
 40
0
  9
$PELEVATION
 40
0
  9
$THICKNESS
 40
0
  9
$LIMCHECK
 70
    0
  9
$CHAMFERA
 40
0
  9
$CHAMFERB
 40
0
  9
$CHAMFERC
 40
0
  9
$CHAMFERD
 40
0
  9
$SKPOLY
 70
    0
  9
$USRTIMER
 70
    1
  9
$ANGBASE
 50
0
  9
$ANGDIR
 70
    0
  9
$PDMODE
 70
   34
  9
$PDSIZE
 40
0
  9
$PLINEWID
 40
0
  9
$SPLFRAME
 70
    0
  9
$SPLINETYPE
 70
    2
  9
$SPLINESEGS
 70
    8
  9
$HANDSEED
  5
20000
  9
$SURFTAB1
 70
    6
  9
$SURFTAB2
 70
    6
  9
$SURFTYPE
 70
    6
  9
$SURFU
 70
    6
  9
$SURFV
 70
    6
  9
$UCSBASE
  2

  9
$UCSNAME
  2

  9
$UCSORG
 10
0
 20
0
 30
0
  9
$UCSXDIR
 10
1
 20
0
 30
0
  9
$UCSYDIR
 10
0
 20
1
 30
0
  9
$UCSORTHOREF
  2

  9
$UCSORTHOVIEW
 70
    0
  9
$UCSORGTOP
 10
0
 20
0
 30
0
  9
$UCSORGBOTTOM
 10
0
 20
0
 30
0
  9
$UCSORGLEFT
 10
0
 20
0
 30
0
  9
$UCSORGRIGHT
 10
0
 20
0
 30
0
  9
$UCSORGFRONT
 10
0
 20
0
 30
0
  9
$UCSORGBACK
 10
0
 20
0
 30
0
  9
$PUCSBASE
  2

  9
$PUCSNAME
  2

  9
$PUCSORG
 10
0
 20
0
 30
0
  9
$PUCSXDIR
 10
1
 20
0
 30
0
  9
$PUCSYDIR
 10
0
 20
1
 30
0
  9
$PUCSORTHOREF
  2

  9
$PUCSORTHOVIEW
 70
    0
  9
$PUCSORGTOP
 10
0
 20
0
 30
0
  9
$PUCSORGBOTTOM
 10
0
 20
0
 30
0
  9
$PUCSORGLEFT
 10
0
 20
0
 30
0
  9
$PUCSORGRIGHT
 10
0
 20
0
 30
0
  9
$PUCSORGFRONT
 10
0
 20
0
 30
0
  9
$PUCSORGBACK
 10
0
 20
0
 30
0
  9
$USERI1
 70
    0
  9
$USERI2
 70
    0
  9
$USERI3
 70
    0
  9
$USERI4
 70
    0
  9
$USERI5
 70
    0
  9
$USERR1
 40
0
  9
$USERR2
 40
0
  9
$USERR3
 40
0
  9
$USERR4
 40
0
  9
$USERR5
 40
0
  9
$WORLDVIEW
 70
    1
  9
$SHADEDGE
 70
    3
  9
$SHADEDIF
 70
   70
  9
$TILEMODE
 70
    1
  9
$MAXACTVP
 70
   64
  9
$PINSBASE
 10
1.810344827586253
 20
276.1293103448276
 30
0
  9
$PLIMCHECK
 70
    0
  9
$PEXTMIN
 10
0
 20
0
 30
0
  9
$PEXTMAX
 10
0
 20
0
 30
0
  9
$GRIDMODE
 70
    1
  9
$SNAPSTYLE
 70
    0
  9
$GRIDUNIT
 10
0
 20
0
  9
$PLIMMIN
 10
0
 20
0
  9
$PLIMMAX
 10
210
 20
297
  9
$UNITMODE
 70
    0
  9
$VISRETAIN
 70
    1
  9
$PLINEGEN
 70
    0
  9
$PSLTSCALE
 70
    1
  9
$TREEDEPTH
 70
 3020
  9
$CMLSTYLE
  2
Standard
  9
$CMLJUST
 70
    0
  9
$CMLSCALE
 40
20
  9
$PROXYGRAPHICS
 70
    1
  9
$MEASUREMENT
 70
    1
  9
$CELWEIGHT
370
   -1
  9
$ENDCAPS
280
    0
  9
$JOINSTYLE
280
    0
  9
$LWDISPLAY
290
    0
  9
$INSUNITS
 70
    4
  9
$HYPERLINKBASE
  1

  9
$STYLESHEET
  1

  9
$XEDIT
290
    1
  9
$CEPSNTYPE
380
    0
  9
$PSTYLEMODE
290
    1
  9
$EXTNAMES
290
    1
  9
$PSVPSCALE
 40
1.810344827586206
  9
$OLESTARTUP
290
    0
  9
$SORTENTS
280
  127
  9
$INDEXCTL
280
    0
  9
$HIDETEXT
280
    1
  9
$XCLIPFRAME
290
    0
  9
$HALOGAP
280
    0
  9
$OBSCOLOR
 70
  257
  9
$OBSLTYPE
280
    0
  9
$INTERSECTIONDISPLAY
280
    0
  9
$INTERSECTIONCOLOR
 70
  257
  9
$DIMASSOC
280
    1
  9
$PROJECTNAME
  1

  9
$CAMERADISPLAY
290
    0
  9
$LENSLENGTH
 40
50
  9
$CAMERAHEIGHT
 40
0
  9
$STEPSPERSEC
 40
2
  9
$STEPSIZE
 40
50
  9
$3DDWFPREC
 40
2
  9
$PSOLWIDTH
 40
5
  9
$PSOLHEIGHT
 40
80
  9
$LOFTANG1
 40
1.570796326794897
  9
$LOFTANG2
 40
1.570796326794897
  9
$LOFTMAG1
 40
0
  9
$LOFTMAG2
 40
0
  9
$LOFTPARAM
 70
    7
  9
$LOFTNORMALS
280
    1
  9
$LATITUDE
 40
1
  9
$LONGITUDE
 40
1
  9
$NORTHDIRECTION
 40
0
  9
$TIMEZONE
 70
-8000
  9
$LIGHTGLYPHDISPLAY
280
    1
  9
$TILEMODELIGHTSYNCH
280
    1
  9
$SOLIDHIST
280
    1
  9
$SHOWHIST
280
    1
  9
$DWFFRAME
280
    2
  9
$DGNFRAME
280
    0
  9
$REALWORLDSCALE
290
    1
  9
$INTERFERECOLOR
 62
    1
  9
$CSHADOW
280
    0
  9
$SHADOWPLANELOCATION
 40
0
  0
ENDSEC
  0
SECTION
  2
CLASSES
  0
ENDSEC
  0
SECTION
  2
TABLES
  0
TABLE
  2
VPORT
  5
8
330
0
100
AcDbSymbolTable
 70
    1
  0
VPORT
  5
31
330
2
100
AcDbSymbolTableRecord
100
AcDbViewportTableRecord
  2
*ACTIVE
 70
    0
 10
0
 20
0
 11
1
 21
1
 12
138.653164556962
 22
7.634177215189872
 13
0
 23
0
 14
10
 24
10
 15
10
 25
10
 16
0
 26
0
 36
1
 17
0
 27
0
 37
0
 40
171.253164556962
 41
2.568674698795181
 42
50
 43
0
 44
0
 50
0
 51
0
 71
    0
 72
  100
 73
    1
 74
    3
 75
    0
 76
    1
 77
    0
 78
    0
281
    0
 65
    1
110
0
120
0
130
0
111
1
121
0
131
0
112
0
122
1
132
0
 79
    0
146
0
348
10020
 60
    7
 61
    5
292
1
282
    1
141
0
142
0
 63
  250
421
3358443
  0
ENDTAB
  0
TABLE
  2
LTYPE
  5
5
330
0
100
AcDbSymbolTable
 70
    4
  0
LTYPE
  5
14
330
5
100
AcDbSymbolTableRecord
100
AcDbLinetypeTableRecord
  2
ByBlock
 70
    0
  3

 72
   65
 73
    0
 40
0
  0
LTYPE
  5
15
330
5
100
AcDbSymbolTableRecord
100
AcDbLinetypeTableRecord
  2
ByLayer
 70
    0
  3

 72
   65
 73
    0
 40
0
  0
LTYPE
  5
16
330
5
100
AcDbSymbolTableRecord
100
AcDbLinetypeTableRecord
  2
Continuous
 70
    0
  3
Solid line
 72
   65
 73
    0
 40
0
  0
LTYPE
  5
32
330
5
100
AcDbSymbolTableRecord
100
AcDbLinetypeTableRecord
  2
DOT
 70
    0
  3
Dot . . . . . . . . . . . . . . . . . . . . . .
 72
   65
 73
    2
 40
6.35
 49
0
 74
    0
 49
-6.35
 74
    0
  0
LTYPE
  5
33
330
5
100
AcDbSymbolTableRecord
100
AcDbLinetypeTableRecord
  2
DOTTINY
 70
    0
  3
Dot (.15x) .....................................
 72
   65
 73
    2
 40
0.9525
 49
0
 74
    0
 49
-0.9525
 74
    0
  0
LTYPE
  5
34
330
5
100
AcDbSymbolTableRecord
100
AcDbLinetypeTableRecord
  2
DOT2
 70
    0
  3
Dot (.5x) .....................................
 72
   65
 73
    2
 40
3.175
 49
0
 74
    0
 49
-3.175
 74
    0
  0
LTYPE
  5
35
330
5
100
AcDbSymbolTableRecord
100
AcDbLinetypeTableRecord
  2
DOTX2
 70
    0
  3
Dot (2x) .  .  .  .  .  .  .  .  .  .  .  .  .
 72
   65
 73
    2
 40
12.7
 49
0
 74
    0
 49
-12.7
 74
    0
  0
LTYPE
  5
36
330
5
100
AcDbSymbolTableRecord
100
AcDbLinetypeTableRecord
  2
DASHED
 70
    0
  3
Dashed _ _ _ _ _ _ _ _ _ _ _ _ _ _ _ _ _
 72
   65
 73
    2
 40
19.05
 49
12.7
 74
    0
 49
-6.35
 74
    0
  0
LTYPE
  5
37
330
5
100
AcDbSymbolTableRecord
100
AcDbLinetypeTableRecord
  2
DASHEDTINY
 70
    0
  3
Dashed (.15x) _ _ _ _ _ _ _ _ _ _ _ _ _ _ _ _ _
 72
   65
 73
    2
 40
2.8575
 49
1.905
 74
    0
 49
-0.9525
 74
    0
  0
LTYPE
  5
38
330
5
100
AcDbSymbolTableRecord
100
AcDbLinetypeTableRecord
  2
DASHED2
 70
    0
  3
Dashed (.5x) _ _ _ _ _ _ _ _ _ _ _ _ _ _ _ _ _
 72
   65
 73
    2
 40
9.524999999999999
 49
6.35
 74
    0
 49
-3.175
 74
    0
  0
LTYPE
  5
39
330
5
100
AcDbSymbolTableRecord
100
AcDbLinetypeTableRecord
  2
DASHEDX2
 70
    0
  3
Dashed (2x) ____  ____  ____  ____  ____  ___
 72
   65
 73
    2
 40
38.09999999999999
 49
25.4
 74
    0
 49
-12.7
 74
    0
  0
LTYPE
  5
3A
330
5
100
AcDbSymbolTableRecord
100
AcDbLinetypeTableRecord
  2
DASHDOT
 70
    0
  3
Dash dot __ . __ . __ . __ . __ . __ . __ . __
 72
   65
 73
    4
 40
25.4
 49
12.7
 74
    0
 49
-6.35
 74
    0
 49
0
 74
    0
 49
-6.35
 74
    0
  0
LTYPE
  5
3B
330
5
100
AcDbSymbolTableRecord
100
AcDbLinetypeTableRecord
  2
DASHDOTTINY
 70
    0
  3
Dash dot (.15x) _._._._._._._._._._._._._._._.
 72
   65
 73
    4
 40
3.81
 49
1.905
 74
    0
 49
-0.9525
 74
    0
 49
0
 74
    0
 49
-0.9525
 74
    0
  0
LTYPE
  5
3C
330
5
100
AcDbSymbolTableRecord
100
AcDbLinetypeTableRecord
  2
DASHDOT2
 70
    0
  3
Dash dot (.5x) _._._._._._._._._._._._._._._.
 72
   65
 73
    4
 40
12.7
 49
6.35
 74
    0
 49
-3.175
 74
    0
 49
0
 74
    0
 49
-3.175
 74
    0
  0
LTYPE
  5
3D
330
5
100
AcDbSymbolTableRecord
100
AcDbLinetypeTableRecord
  2
DASHDOTX2
 70
    0
  3
Dash dot (2x) ____  .  ____  .  ____  .  ___
 72
   65
 73
    4
 40
50.8
 49
25.4
 74
    0
 49
-12.7
 74
    0
 49
0
 74
    0
 49
-12.7
 74
    0
  0
LTYPE
  5
3E
330
5
100
AcDbSymbolTableRecord
100
AcDbLinetypeTableRecord
  2
DIVIDE
 70
    0
  3
Divide ____ . . ____ . . ____ . . ____ . . ____
 72
   65
 73
    6
 40
31.75
 49
12.7
 74
    0
 49
-6.35
 74
    0
 49
0
 74
    0
 49
-6.35
 74
    0
 49
0
 74
    0
 49
-6.35
 74
    0
  0
LTYPE
  5
3F
330
5
100
AcDbSymbolTableRecord
100
AcDbLinetypeTableRecord
  2
DIVIDETINY
 70
    0
  3
Divide (.15x) __..__..__..__..__..__..__..__.._
 72
   65
 73
    6
 40
4.7625
 49
1.905
 74
    0
 49
-0.9525
 74
    0
 49
0
 74
    0
 49
-0.9525
 74
    0
 49
0
 74
    0
 49
-0.9525
 74
    0
  0
LTYPE
  5
40
330
5
100
AcDbSymbolTableRecord
100
AcDbLinetypeTableRecord
  2
DIVIDE2
 70
    0
  3
Divide (.5x) __..__..__..__..__..__..__..__.._
 72
   65
 73
    6
 40
15.875
 49
6.35
 74
    0
 49
-3.175
 74
    0
 49
0
 74
    0
 49
-3.175
 74
    0
 49
0
 74
    0
 49
-3.175
 74
    0
  0
LTYPE
  5
41
330
5
100
AcDbSymbolTableRecord
100
AcDbLinetypeTableRecord
  2
DIVIDEX2
 70
    0
  3
Divide (2x) ________  .  .  ________  .  .  _
 72
   65
 73
    6
 40
63.5
 49
25.4
 74
    0
 49
-12.7
 74
    0
 49
0
 74
    0
 49
-12.7
 74
    0
 49
0
 74
    0
 49
-12.7
 74
    0
  0
LTYPE
  5
42
330
5
100
AcDbSymbolTableRecord
100
AcDbLinetypeTableRecord
  2
BORDER
 70
    0
  3
Border __ __ . __ __ . __ __ . __ __ . __ __ .
 72
   65
 73
    6
 40
44.45
 49
12.7
 74
    0
 49
-6.35
 74
    0
 49
12.7
 74
    0
 49
-6.35
 74
    0
 49
0
 74
    0
 49
-6.35
 74
    0
  0
LTYPE
  5
43
330
5
100
AcDbSymbolTableRecord
100
AcDbLinetypeTableRecord
  2
BORDERTINY
 70
    0
  3
Border (.15x) __.__.__.__.__.__.__.__.__.__.__.
 72
   65
 73
    6
 40
6.6675
 49
1.905
 74
    0
 49
-0.9525
 74
    0
 49
1.905
 74
    0
 49
-0.9525
 74
    0
 49
0
 74
    0
 49
-0.9525
 74
    0
  0
LTYPE
  5
44
330
5
100
AcDbSymbolTableRecord
100
AcDbLinetypeTableRecord
  2
BORDER2
 70
    0
  3
Border (.5x) __.__.__.__.__.__.__.__.__.__.__.
 72
   65
 73
    6
 40
22.225
 49
6.35
 74
    0
 49
-3.175
 74
    0
 49
6.35
 74
    0
 49
-3.175
 74
    0
 49
0
 74
    0
 49
-3.175
 74
    0
  0
LTYPE
  5
45
330
5
100
AcDbSymbolTableRecord
100
AcDbLinetypeTableRecord
  2
BORDERX2
 70
    0
  3
Border (2x) ____  ____  .  ____  ____  .  ___
 72
   65
 73
    6
 40
88.89999999999999
 49
25.4
 74
    0
 49
-12.7
 74
    0
 49
25.4
 74
    0
 49
-12.7
 74
    0
 49
0
 74
    0
 49
-12.7
 74
    0
  0
LTYPE
  5
46
330
5
100
AcDbSymbolTableRecord
100
AcDbLinetypeTableRecord
  2
CENTER
 70
    0
  3
Center ____ _ ____ _ ____ _ ____ _ ____ _ ____
 72
   65
 73
    4
 40
50.8
 49
31.75
 74
    0
 49
-6.35
 74
    0
 49
6.35
 74
    0
 49
-6.35
 74
    0
  0
LTYPE
  5
47
330
5
100
AcDbSymbolTableRecord
100
AcDbLinetypeTableRecord
  2
CENTERTINY
 70
    0
  3
Center (.15x) ___ _ ___ _ ___ _ ___ _ ___ _ ___
 72
   65
 73
    4
 40
7.619999999999999
 49
4.7625
 74
    0
 49
-0.9525
 74
    0
 49
0.9525
 74
    0
 49
-0.9525
 74
    0
  0
LTYPE
  5
48
330
5
100
AcDbSymbolTableRecord
100
AcDbLinetypeTableRecord
  2
CENTER2
 70
    0
  3
Center (.5x) ___ _ ___ _ ___ _ ___ _ ___ _ ___
 72
   65
 73
    4
 40
28.575
 49
19.05
 74
    0
 49
-3.175
 74
    0
 49
3.175
 74
    0
 49
-3.175
 74
    0
  0
LTYPE
  5
49
330
5
100
AcDbSymbolTableRecord
100
AcDbLinetypeTableRecord
  2
CENTERX2
 70
    0
  3
Center (2x) ________  __  ________  __  _____
 72
   65
 73
    4
 40
101.6
 49
63.5
 74
    0
 49
-12.7
 74
    0
 49
12.7
 74
    0
 49
-12.7
 74
    0
  0
ENDTAB
  0
TABLE
  2
LAYER
  5
2
330
0
100
AcDbSymbolTable
 70
    1
  0
LAYER
  5
10
330
2
100
AcDbSymbolTableRecord
100
AcDbLayerTableRecord
  2
0
 70
    0
 62
    7
  6
CONTINUOUS
370
    0
390
F
  0
LAYER
  5
4A
330
2
100
AcDbSymbolTableRecord
100
AcDbLayerTableRecord
  2
Char_Limits
 70
    0
 62
    6
  6
CONTINUOUS
370
    0
390
F
  0
LAYER
  5
4B
330
2
100
AcDbSymbolTableRecord
100
AcDbLayerTableRecord
  2
Subtitle
 70
    0
 62
    3
  6
CONTINUOUS
370
    0
390
F
  0
LAYER
  5
4C
330
2
100
AcDbSymbolTableRecord
100
AcDbLayerTableRecord
  2
provisory_drawing
 70
    0
 62
    1
  6
CONTINUOUS
370
    0
390
F
  0
ENDTAB
  0
TABLE
  2
STYLE
  5
3
330
0
100
AcDbSymbolTable
 70
    3
  0
STYLE
  5
4D
330
2
100
AcDbSymbolTableRecord
100
AcDbTextStyleTableRecord
  2
standard
 70
    0
 40
0
 41
1
 50
0
 71
    0
 42
1
  3
standard
  4

  0
STYLE
  5
4E
330
2
100
AcDbSymbolTableRecord
100
AcDbTextStyleTableRecord
  2
unicode
 70
    0
 40
0
 41
1
 50
0
 71
    0
 42
1
  3
unicode
  4

  0
ENDTAB
  0
TABLE
  2
VIEW
  5
6
330
0
100
AcDbSymbolTable
 70
    0
  0
ENDTAB
  0
TABLE
  2
UCS
  5
7
330
0
100
AcDbSymbolTable
 70
    0
  0
ENDTAB
  0
TABLE
  2
APPID
  5
9
330
0
100
AcDbSymbolTable
 70
    1
  0
APPID
  5
12
330
9
100
AcDbSymbolTableRecord
100
AcDbRegAppTableRecord
  2
ACAD
 70
    0
  0
APPID
  5
4F
330
9
100
AcDbSymbolTableRecord
100
AcDbRegAppTableRecord
  2
LibreCad
 70
    0
  0
ENDTAB
  0
TABLE
  2
DIMSTYLE
  5
A
330
0
100
AcDbSymbolTable
 70
    1
100
AcDbDimStyleTable
 71
    1
  0
DIMSTYLE
105
50
330
A
100
AcDbSymbolTableRecord
100
AcDbDimStyleTableRecord
  2
Standard
 70
    0
 40
2.5
 41
2.5
 42
0.625
 43
0.38
 44
1.25
 45
0
 46
0
 47
0
 48
0
 49
1
140
2.5
141
0.09
142
0
143
25.4
144
1
145
0
146
1
147
0.625
148
0
 71
    0
 72
    0
 73
    0
 74
    1
 75
    0
 76
    0
 77
    0
 78
    8
 79
    0
170
    0
171
    2
172
    0
173
    0
174
    0
175
    0
176
    0
177
    0
178
    0
179
    0
271
    2
272
    4
273
    2
274
    2
275
    0
276
    0
277
    2
278
   44
279
    0
280
    0
281
    0
282
    0
283
    1
284
    0
285
    0
286
    0
288
    0
289
    3
340
standard
341

371
   -2
372
   -2
  0
ENDTAB
  0
TABLE
  2
BLOCK_RECORD
  5
1
330
0
100
AcDbSymbolTable
 70
    2
  0
BLOCK_RECORD
  5
1F
330
1
100
AcDbSymbolTableRecord
100
AcDbBlockTableRecord
  2
*Model_Space
 70
    0
280
    1
281
    0
  0
BLOCK_RECORD
  5
1E
330
1
100
AcDbSymbolTableRecord
100
AcDbBlockTableRecord
  2
*Paper_Space
 70
    0
280
    1
281
    0
  0
ENDTAB
  0
ENDSEC
  0
SECTION
  2
BLOCKS
  0
BLOCK
  5
20
330
1F
100
AcDbEntity
  8
0
100
AcDbBlockBegin
  2
*Model_Space
 70
    0
 10
0
 20
0
 30
0
  3
*Model_Space
  1

  0
ENDBLK
  5
21
330
1F
100
AcDbEntity
  8
0
100
AcDbBlockEnd
  0
BLOCK
  5
1C
330
1B
100
AcDbEntity
  8
0
100
AcDbBlockBegin
  2
*Paper_Space
 70
    0
 10
0
 20
0
 30
0
  3
*Paper_Space
  1

  0
ENDBLK
  5
1D
330
1F
100
AcDbEntity
  8
0
100
AcDbBlockEnd
  0
ENDSEC
  0
SECTION
  2
ENTITIES
  0
HATCH
  5
51
100
AcDbEntity
  8
0
  6
ByLayer
 62
  256
370
   -1
100
AcDbHatch
 10
0
 20
0
 30
0
210
0
220
0
230
1
  2
SOLID
 70
    1
 71
    0
 91
    1
 92
    0
 93
    1
 72
    2
 10
71
 20
-125.5
 40
1.5
 50
0
 51
360
 73
    1
 97
    0
 75
    0
 76
    1
 98
    0
  0
HATCH
  5
52
100
AcDbEntity
  8
0
  6
ByLayer
 62
  256
370
   -1
100
AcDbHatch
 10
0
 20
0
 30
0
210
0
220
0
230
1
  2
SOLID
 70
    1
 71
    0
 91
    1
 92
    0
 93
    2
 72
    2
 10
54
 20
-125.5
 40
2.5
 50
0
 51
360
 73
    1
 72
    2
 10
54
 20
-125.5
 40
2
 50
0
 51
360
 73
    1
 97
    0
 75
    0
 76
    1
 98
    0
  0
LINE
  5
53
100
AcDbEntity
  8
Char_Limits
  6
ByLayer
 62
  256
370
   -1
100
AcDbLine
 10
0
 20
0
 11
10
 21
0
  0
LINE
  5
54
100
AcDbEntity
  8
Char_Limits
  6
ByLayer
 62
  256
370
   -1
100
AcDbLine
 10
10
 20
0
 11
10
 21
10
  0
LINE
  5
55
100
AcDbEntity
  8
Char_Limits
  6
ByLayer
 62
  256
370
   -1
100
AcDbLine
 10
0
 20
10
 11
0
 21
0
  0
LINE
  5
56
100
AcDbEntity
  8
Char_Limits
  6
ByLayer
 62
  256
370
   -1
100
AcDbLine
 10
11
 20
0
 11
21
 21
0
  0
LINE
  5
57
100
AcDbEntity
  8
Char_Limits
  6
ByLayer
 62
  256
370
   -1
100
AcDbLine
 10
21
 20
0
 11
21
 21
10
  0
LINE
  5
58
100
AcDbEntity
  8
Char_Limits
  6
ByLayer
 62
  256
370
   -1
100
AcDbLine
 10
11
 20
10
 11
11
 21
0
  0
LINE
  5
59
100
AcDbEntity
  8
Char_Limits
  6
ByLayer
 62
  256
370
   -1
100
AcDbLine
 10
22
 20
0
 11
32
 21
0
  0
LINE
  5
5A
100
AcDbEntity
  8
Char_Limits
  6
ByLayer
 62
  256
370
   -1
100
AcDbLine
 10
32
 20
0
 11
32
 21
10
  0
LINE
  5
5B
100
AcDbEntity
  8
Char_Limits
  6
ByLayer
 62
  256
370
   -1
100
AcDbLine
 10
22
 20
10
 11
22
 21
0
  0
LINE
  5
5C
100
AcDbEntity
  8
Char_Limits
  6
ByLayer
 62
  256
370
   -1
100
AcDbLine
 10
33
 20
0
 11
43
 21
0
  0
LINE
  5
5D
100
AcDbEntity
  8
Char_Limits
  6
ByLayer
 62
  256
370
   -1
100
AcDbLine
 10
43
 20
0
 11
43
 21
10
  0
LINE
  5
5E
100
AcDbEntity
  8
Char_Limits
  6
ByLayer
 62
  256
370
   -1
100
AcDbLine
 10
33
 20
10
 11
33
 21
0
  0
LINE
  5
5F
100
AcDbEntity
  8
Char_Limits
  6
ByLayer
 62
  256
370
   -1
100
AcDbLine
 10
44
 20
0
 11
54
 21
0
  0
LINE
  5
60
100
AcDbEntity
  8
Char_Limits
  6
ByLayer
 62
  256
370
   -1
100
AcDbLine
 10
54
 20
0
 11
54
 21
10
  0
LINE
  5
61
100
AcDbEntity
  8
Char_Limits
  6
ByLayer
 62
  256
370
   -1
100
AcDbLine
 10
44
 20
10
 11
44
 21
0
  0
LINE
  5
62
100
AcDbEntity
  8
Char_Limits
  6
ByLayer
 62
  256
370
   -1
100
AcDbLine
 10
0
 20
0
 11
0
 21
-1
  0
LINE
  5
63
100
AcDbEntity
  8
Char_Limits
  6
ByLayer
 62
  256
370
   -1
100
AcDbLine
 10
54
 20
0
 11
54
 21
-1
  0
LINE
  5
64
100
AcDbEntity
  8
Char_Limits
  6
ByLayer
 62
  256
370
   -1
100
AcDbLine
 10
0
 20
-11
 11
10
 21
-11
  0
LINE
  5
65
100
AcDbEntity
  8
Char_Limits
  6
ByLayer
 62
  256
370
   -1
100
AcDbLine
 10
10
 20
-11
 11
10
 21
-1
  0
LINE
  5
66
100
AcDbEntity
  8
Char_Limits
  6
ByLayer
 62
  256
370
   -1
100
AcDbLine
 10
10
 20
-1
 11
0
 21
-1
  0
LINE
  5
67
100
AcDbEntity
  8
Char_Limits
  6
ByLayer
 62
  256
370
   -1
100
AcDbLine
 10
0
 20
-1
 11
0
 21
-11
  0
LINE
  5
68
100
AcDbEntity
  8
Char_Limits
  6
ByLayer
 62
  256
370
   -1
100
AcDbLine
 10
11
 20
-11
 11
21
 21
-11
  0
LINE
  5
69
100
AcDbEntity
  8
Char_Limits
  6
ByLayer
 62
  256
370
   -1
100
AcDbLine
 10
21
 20
-11
 11
21
 21
-1
  0
LINE
  5
6A
100
AcDbEntity
  8
Char_Limits
  6
ByLayer
 62
  256
370
   -1
100
AcDbLine
 10
21
 20
-1
 11
11
 21
-1
  0
LINE
  5
6B
100
AcDbEntity
  8
Char_Limits
  6
ByLayer
 62
  256
370
   -1
100
AcDbLine
 10
11
 20
-1
 11
11
 21
-11
  0
LINE
  5
6C
100
AcDbEntity
  8
Char_Limits
  6
ByLayer
 62
  256
370
   -1
100
AcDbLine
 10
22
 20
-11
 11
32
 21
-11
  0
LINE
  5
6D
100
AcDbEntity
  8
Char_Limits
  6
ByLayer
 62
  256
370
   -1
100
AcDbLine
 10
32
 20
-11
 11
32
 21
-1
  0
LINE
  5
6E
100
AcDbEntity
  8
Char_Limits
  6
ByLayer
 62
  256
370
   -1
100
AcDbLine
 10
32
 20
-1
 11
22
 21
-1
  0
LINE
  5
6F
100
AcDbEntity
  8
Char_Limits
  6
ByLayer
 62
  256
370
   -1
100
AcDbLine
 10
22
 20
-1
 11
22
 21
-11
  0
LINE
  5
70
100
AcDbEntity
  8
Char_Limits
  6
ByLayer
 62
  256
370
   -1
100
AcDbLine
 10
33
 20
-11
 11
43
 21
-11
  0
LINE
  5
71
100
AcDbEntity
  8
Char_Limits
  6
ByLayer
 62
  256
370
   -1
100
AcDbLine
 10
43
 20
-11
 11
43
 21
-1
  0
LINE
  5
72
100
AcDbEntity
  8
Char_Limits
  6
ByLayer
 62
  256
370
   -1
100
AcDbLine
 10
43
 20
-1
 11
33
 21
-1
  0
LINE
  5
73
100
AcDbEntity
  8
Char_Limits
  6
ByLayer
 62
  256
370
   -1
100
AcDbLine
 10
33
 20
-1
 11
33
 21
-11
  0
LINE
  5
74
100
AcDbEntity
  8
Char_Limits
  6
ByLayer
 62
  256
370
   -1
100
AcDbLine
 10
44
 20
-11
 11
54
 21
-11
  0
LINE
  5
75
100
AcDbEntity
  8
Char_Limits
  6
ByLayer
 62
  256
370
   -1
100
AcDbLine
 10
54
 20
-11
 11
54
 21
-1
  0
LINE
  5
76
100
AcDbEntity
  8
Char_Limits
  6
ByLayer
 62
  256
370
   -1
100
AcDbLine
 10
54
 20
-1
 11
44
 21
-1
  0
LINE
  5
77
100
AcDbEntity
  8
Char_Limits
  6
ByLayer
 62
  256
370
   -1
100
AcDbLine
 10
44
 20
-1
 11
44
 21
-11
  0
LINE
  5
78
100
AcDbEntity
  8
Char_Limits
  6
ByLayer
 62
  256
370
   -1
100
AcDbLine
 10
0
 20
-11
 11
0
 21
-12
  0
LINE
  5
79
100
AcDbEntity
  8
Char_Limits
  6
ByLayer
 62
  256
370
   -1
100
AcDbLine
 10
54
 20
-11
 11
54
 21
-12
  0
LINE
  5
7A
100
AcDbEntity
  8
Char_Limits
  6
ByLayer
 62
  256
370
   -1
100
AcDbLine
 10
0
 20
-22
 11
10
 21
-22
  0
LINE
  5
7B
100
AcDbEntity
  8
Char_Limits
  6
ByLayer
 62
  256
370
   -1
100
AcDbLine
 10
10
 20
-22
 11
10
 21
-12
  0
LINE
  5
7C
100
AcDbEntity
  8
Char_Limits
  6
ByLayer
 62
  256
370
   -1
100
AcDbLine
 10
10
 20
-12
 11
0
 21
-12
  0
LINE
  5
7D
100
AcDbEntity
  8
Char_Limits
  6
ByLayer
 62
  256
370
   -1
100
AcDbLine
 10
0
 20
-12
 11
0
 21
-22
  0
LINE
  5
7E
100
AcDbEntity
  8
Char_Limits
  6
ByLayer
 62
  256
370
   -1
100
AcDbLine
 10
11
 20
-22
 11
21
 21
-22
  0
LINE
  5
7F
100
AcDbEntity
  8
Char_Limits
  6
ByLayer
 62
  256
370
   -1
100
AcDbLine
 10
21
 20
-22
 11
21
 21
-12
  0
LINE
  5
80
100
AcDbEntity
  8
Char_Limits
  6
ByLayer
 62
  256
370
   -1
100
AcDbLine
 10
21
 20
-12
 11
11
 21
-12
  0
LINE
  5
81
100
AcDbEntity
  8
Char_Limits
  6
ByLayer
 62
  256
370
   -1
100
AcDbLine
 10
11
 20
-12
 11
11
 21
-22
  0
LINE
  5
82
100
AcDbEntity
  8
Char_Limits
  6
ByLayer
 62
  256
370
   -1
100
AcDbLine
 10
22
 20
-22
 11
32
 21
-22
  0
LINE
  5
83
100
AcDbEntity
  8
Char_Limits
  6
ByLayer
 62
  256
370
   -1
100
AcDbLine
 10
32
 20
-22
 11
32
 21
-12
  0
LINE
  5
84
100
AcDbEntity
  8
Char_Limits
  6
ByLayer
 62
  256
370
   -1
100
AcDbLine
 10
32
 20
-12
 11
22
 21
-12
  0
LINE
  5
85
100
AcDbEntity
  8
Char_Limits
  6
ByLayer
 62
  256
370
   -1
100
AcDbLine
 10
22
 20
-12
 11
22
 21
-22
  0
LINE
  5
86
100
AcDbEntity
  8
Char_Limits
  6
ByLayer
 62
  256
370
   -1
100
AcDbLine
 10
33
 20
-22
 11
43
 21
-22
  0
LINE
  5
87
100
AcDbEntity
  8
Char_Limits
  6
ByLayer
 62
  256
370
   -1
100
AcDbLine
 10
43
 20
-22
 11
43
 21
-12
  0
LINE
  5
88
100
AcDbEntity
  8
Char_Limits
  6
ByLayer
 62
  256
370
   -1
100
AcDbLine
 10
43
 20
-12
 11
33
 21
-12
  0
LINE
  5
89
100
AcDbEntity
  8
Char_Limits
  6
ByLayer
 62
  256
370
   -1
100
AcDbLine
 10
33
 20
-12
 11
33
 21
-22
  0
LINE
  5
8A
100
AcDbEntity
  8
Char_Limits
  6
ByLayer
 62
  256
370
   -1
100
AcDbLine
 10
44
 20
-22
 11
54
 21
-22
  0
LINE
  5
8B
100
AcDbEntity
  8
Char_Limits
  6
ByLayer
 62
  256
370
   -1
100
AcDbLine
 10
54
 20
-22
 11
54
 21
-12
  0
LINE
  5
8C
100
AcDbEntity
  8
Char_Limits
  6
ByLayer
 62
  256
370
   -1
100
AcDbLine
 10
54
 20
-12
 11
44
 21
-12
  0
LINE
  5
8D
100
AcDbEntity
  8
Char_Limits
  6
ByLayer
 62
  256
370
   -1
100
AcDbLine
 10
44
 20
-12
 11
44
 21
-22
  0
LINE
  5
8E
100
AcDbEntity
  8
Char_Limits
  6
ByLayer
 62
  256
370
   -1
100
AcDbLine
 10
0
 20
-22
 11
0
 21
-23
  0
LINE
  5
8F
100
AcDbEntity
  8
Char_Limits
  6
ByLayer
 62
  256
370
   -1
100
AcDbLine
 10
54
 20
-22
 11
54
 21
-23
  0
LINE
  5
90
100
AcDbEntity
  8
Char_Limits
  6
ByLayer
 62
  256
370
   -1
100
AcDbLine
 10
0
 20
-33
 11
10
 21
-33
  0
LINE
  5
91
100
AcDbEntity
  8
Char_Limits
  6
ByLayer
 62
  256
370
   -1
100
AcDbLine
 10
10
 20
-33
 11
10
 21
-23
  0
LINE
  5
92
100
AcDbEntity
  8
Char_Limits
  6
ByLayer
 62
  256
370
   -1
100
AcDbLine
 10
10
 20
-23
 11
0
 21
-23
  0
LINE
  5
93
100
AcDbEntity
  8
Char_Limits
  6
ByLayer
 62
  256
370
   -1
100
AcDbLine
 10
0
 20
-23
 11
0
 21
-33
  0
LINE
  5
94
100
AcDbEntity
  8
Char_Limits
  6
ByLayer
 62
  256
370
   -1
100
AcDbLine
 10
11
 20
-33
 11
21
 21
-33
  0
LINE
  5
95
100
AcDbEntity
  8
Char_Limits
  6
ByLayer
 62
  256
370
   -1
100
AcDbLine
 10
21
 20
-33
 11
21
 21
-23
  0
LINE
  5
96
100
AcDbEntity
  8
Char_Limits
  6
ByLayer
 62
  256
370
   -1
100
AcDbLine
 10
21
 20
-23
 11
11
 21
-23
  0
LINE
  5
97
100
AcDbEntity
  8
Char_Limits
  6
ByLayer
 62
  256
370
   -1
100
AcDbLine
 10
11
 20
-23
 11
11
 21
-33
  0
LINE
  5
98
100
AcDbEntity
  8
Char_Limits
  6
ByLayer
 62
  256
370
   -1
100
AcDbLine
 10
22
 20
-33
 11
32
 21
-33
  0
LINE
  5
99
100
AcDbEntity
  8
Char_Limits
  6
ByLayer
 62
  256
370
   -1
100
AcDbLine
 10
32
 20
-33
 11
32
 21
-23
  0
LINE
  5
9A
100
AcDbEntity
  8
Char_Limits
  6
ByLayer
 62
  256
370
   -1
100
AcDbLine
 10
32
 20
-23
 11
22
 21
-23
  0
LINE
  5
9B
100
AcDbEntity
  8
Char_Limits
  6
ByLayer
 62
  256
370
   -1
100
AcDbLine
 10
22
 20
-23
 11
22
 21
-33
  0
LINE
  5
9C
100
AcDbEntity
  8
Char_Limits
  6
ByLayer
 62
  256
370
   -1
100
AcDbLine
 10
33
 20
-33
 11
43
 21
-33
  0
LINE
  5
9D
100
AcDbEntity
  8
Char_Limits
  6
ByLayer
 62
  256
370
   -1
100
AcDbLine
 10
43
 20
-33
 11
43
 21
-23
  0
LINE
  5
9E
100
AcDbEntity
  8
Char_Limits
  6
ByLayer
 62
  256
370
   -1
100
AcDbLine
 10
43
 20
-23
 11
33
 21
-23
  0
LINE
  5
9F
100
AcDbEntity
  8
Char_Limits
  6
ByLayer
 62
  256
370
   -1
100
AcDbLine
 10
33
 20
-23
 11
33
 21
-33
  0
LINE
  5
A0
100
AcDbEntity
  8
Char_Limits
  6
ByLayer
 62
  256
370
   -1
100
AcDbLine
 10
44
 20
-33
 11
54
 21
-33
  0
LINE
  5
A1
100
AcDbEntity
  8
Char_Limits
  6
ByLayer
 62
  256
370
   -1
100
AcDbLine
 10
54
 20
-33
 11
54
 21
-23
  0
LINE
  5
A2
100
AcDbEntity
  8
Char_Limits
  6
ByLayer
 62
  256
370
   -1
100
AcDbLine
 10
54
 20
-23
 11
44
 21
-23
  0
LINE
  5
A3
100
AcDbEntity
  8
Char_Limits
  6
ByLayer
 62
  256
370
   -1
100
AcDbLine
 10
44
 20
-23
 11
44
 21
-33
  0
LINE
  5
A4
100
AcDbEntity
  8
Char_Limits
  6
ByLayer
 62
  256
370
   -1
100
AcDbLine
 10
0
 20
-33
 11
0
 21
-34
  0
LINE
  5
A5
100
AcDbEntity
  8
Char_Limits
  6
ByLayer
 62
  256
370
   -1
100
AcDbLine
 10
54
 20
-33
 11
54
 21
-34
  0
LINE
  5
A6
100
AcDbEntity
  8
Char_Limits
  6
ByLayer
 62
  256
370
   -1
100
AcDbLine
 10
0
 20
-44
 11
10
 21
-44
  0
LINE
  5
A7
100
AcDbEntity
  8
Char_Limits
  6
ByLayer
 62
  256
370
   -1
100
AcDbLine
 10
10
 20
-44
 11
10
 21
-34
  0
LINE
  5
A8
100
AcDbEntity
  8
Char_Limits
  6
ByLayer
 62
  256
370
   -1
100
AcDbLine
 10
10
 20
-34
 11
0
 21
-34
  0
LINE
  5
A9
100
AcDbEntity
  8
Char_Limits
  6
ByLayer
 62
  256
370
   -1
100
AcDbLine
 10
0
 20
-34
 11
0
 21
-44
  0
LINE
  5
AA
100
AcDbEntity
  8
Char_Limits
  6
ByLayer
 62
  256
370
   -1
100
AcDbLine
 10
11
 20
-44
 11
21
 21
-44
  0
LINE
  5
AB
100
AcDbEntity
  8
Char_Limits
  6
ByLayer
 62
  256
370
   -1
100
AcDbLine
 10
21
 20
-44
 11
21
 21
-34
  0
LINE
  5
AC
100
AcDbEntity
  8
Char_Limits
  6
ByLayer
 62
  256
370
   -1
100
AcDbLine
 10
21
 20
-34
 11
11
 21
-34
  0
LINE
  5
AD
100
AcDbEntity
  8
Char_Limits
  6
ByLayer
 62
  256
370
   -1
100
AcDbLine
 10
11
 20
-34
 11
11
 21
-44
  0
LINE
  5
AE
100
AcDbEntity
  8
Char_Limits
  6
ByLayer
 62
  256
370
   -1
100
AcDbLine
 10
22
 20
-44
 11
32
 21
-44
  0
LINE
  5
AF
100
AcDbEntity
  8
Char_Limits
  6
ByLayer
 62
  256
370
   -1
100
AcDbLine
 10
32
 20
-44
 11
32
 21
-34
  0
LINE
  5
B0
100
AcDbEntity
  8
Char_Limits
  6
ByLayer
 62
  256
370
   -1
100
AcDbLine
 10
32
 20
-34
 11
22
 21
-34
  0
LINE
  5
B1
100
AcDbEntity
  8
Char_Limits
  6
ByLayer
 62
  256
370
   -1
100
AcDbLine
 10
22
 20
-34
 11
22
 21
-44
  0
LINE
  5
B2
100
AcDbEntity
  8
Char_Limits
  6
ByLayer
 62
  256
370
   -1
100
AcDbLine
 10
33
 20
-44
 11
43
 21
-44
  0
LINE
  5
B3
100
AcDbEntity
  8
Char_Limits
  6
ByLayer
 62
  256
370
   -1
100
AcDbLine
 10
43
 20
-44
 11
43
 21
-34
  0
LINE
  5
B4
100
AcDbEntity
  8
Char_Limits
  6
ByLayer
 62
  256
370
   -1
100
AcDbLine
 10
43
 20
-34
 11
33
 21
-34
  0
LINE
  5
B5
100
AcDbEntity
  8
Char_Limits
  6
ByLayer
 62
  256
370
   -1
100
AcDbLine
 10
33
 20
-34
 11
33
 21
-44
  0
LINE
  5
B6
100
AcDbEntity
  8
Char_Limits
  6
ByLayer
 62
  256
370
   -1
100
AcDbLine
 10
44
 20
-44
 11
54
 21
-44
  0
LINE
  5
B7
100
AcDbEntity
  8
Char_Limits
  6
ByLayer
 62
  256
370
   -1
100
AcDbLine
 10
54
 20
-44
 11
54
 21
-34
  0
LINE
  5
B8
100
AcDbEntity
  8
Char_Limits
  6
ByLayer
 62
  256
370
   -1
100
AcDbLine
 10
54
 20
-34
 11
44
 21
-34
  0
LINE
  5
B9
100
AcDbEntity
  8
Char_Limits
  6
ByLayer
 62
  256
370
   -1
100
AcDbLine
 10
44
 20
-34
 11
44
 21
-44
  0
LINE
  5
BA
100
AcDbEntity
  8
Char_Limits
  6
ByLayer
 62
  256
370
   -1
100
AcDbLine
 10
0
 20
-44
 11
0
 21
-45
  0
LINE
  5
BB
100
AcDbEntity
  8
Char_Limits
  6
ByLayer
 62
  256
370
   -1
100
AcDbLine
 10
54
 20
-44
 11
54
 21
-45
  0
LINE
  5
BC
100
AcDbEntity
  8
Char_Limits
  6
ByLayer
 62
  256
370
   -1
100
AcDbLine
 10
0
 20
-55
 11
10
 21
-55
  0
LINE
  5
BD
100
AcDbEntity
  8
Char_Limits
  6
ByLayer
 62
  256
370
   -1
100
AcDbLine
 10
10
 20
-55
 11
10
 21
-45
  0
LINE
  5
BE
100
AcDbEntity
  8
Char_Limits
  6
ByLayer
 62
  256
370
   -1
100
AcDbLine
 10
10
 20
-45
 11
0
 21
-45
  0
LINE
  5
BF
100
AcDbEntity
  8
Char_Limits
  6
ByLayer
 62
  256
370
   -1
100
AcDbLine
 10
0
 20
-45
 11
0
 21
-55
  0
LINE
  5
C0
100
AcDbEntity
  8
Char_Limits
  6
ByLayer
 62
  256
370
   -1
100
AcDbLine
 10
11
 20
-55
 11
21
 21
-55
  0
LINE
  5
C1
100
AcDbEntity
  8
Char_Limits
  6
ByLayer
 62
  256
370
   -1
100
AcDbLine
 10
21
 20
-55
 11
21
 21
-45
  0
LINE
  5
C2
100
AcDbEntity
  8
Char_Limits
  6
ByLayer
 62
  256
370
   -1
100
AcDbLine
 10
21
 20
-45
 11
11
 21
-45
  0
LINE
  5
C3
100
AcDbEntity
  8
Char_Limits
  6
ByLayer
 62
  256
370
   -1
100
AcDbLine
 10
11
 20
-45
 11
11
 21
-55
  0
LINE
  5
C4
100
AcDbEntity
  8
Char_Limits
  6
ByLayer
 62
  256
370
   -1
100
AcDbLine
 10
22
 20
-55
 11
32
 21
-55
  0
LINE
  5
C5
100
AcDbEntity
  8
Char_Limits
  6
ByLayer
 62
  256
370
   -1
100
AcDbLine
 10
32
 20
-55
 11
32
 21
-45
  0
LINE
  5
C6
100
AcDbEntity
  8
Char_Limits
  6
ByLayer
 62
  256
370
   -1
100
AcDbLine
 10
32
 20
-45
 11
22
 21
-45
  0
LINE
  5
C7
100
AcDbEntity
  8
Char_Limits
  6
ByLayer
 62
  256
370
   -1
100
AcDbLine
 10
22
 20
-45
 11
22
 21
-55
  0
LINE
  5
C8
100
AcDbEntity
  8
Char_Limits
  6
ByLayer
 62
  256
370
   -1
100
AcDbLine
 10
33
 20
-55
 11
43
 21
-55
  0
LINE
  5
C9
100
AcDbEntity
  8
Char_Limits
  6
ByLayer
 62
  256
370
   -1
100
AcDbLine
 10
43
 20
-55
 11
43
 21
-45
  0
LINE
  5
CA
100
AcDbEntity
  8
Char_Limits
  6
ByLayer
 62
  256
370
   -1
100
AcDbLine
 10
43
 20
-45
 11
33
 21
-45
  0
LINE
  5
CB
100
AcDbEntity
  8
Char_Limits
  6
ByLayer
 62
  256
370
   -1
100
AcDbLine
 10
33
 20
-45
 11
33
 21
-55
  0
LINE
  5
CC
100
AcDbEntity
  8
Char_Limits
  6
ByLayer
 62
  256
370
   -1
100
AcDbLine
 10
44
 20
-55
 11
54
 21
-55
  0
LINE
  5
CD
100
AcDbEntity
  8
Char_Limits
  6
ByLayer
 62
  256
370
   -1
100
AcDbLine
 10
54
 20
-55
 11
54
 21
-45
  0
LINE
  5
CE
100
AcDbEntity
  8
Char_Limits
  6
ByLayer
 62
  256
370
   -1
100
AcDbLine
 10
54
 20
-45
 11
44
 21
-45
  0
LINE
  5
CF
100
AcDbEntity
  8
Char_Limits
  6
ByLayer
 62
  256
370
   -1
100
AcDbLine
 10
44
 20
-45
 11
44
 21
-55
  0
LINE
  5
D0
100
AcDbEntity
  8
Char_Limits
  6
ByLayer
 62
  256
370
   -1
100
AcDbLine
 10
0
 20
-55
 11
0
 21
-56
  0
LINE
  5
D1
100
AcDbEntity
  8
Char_Limits
  6
ByLayer
 62
  256
370
   -1
100
AcDbLine
 10
54
 20
-55
 11
54
 21
-56
  0
LINE
  5
D2
100
AcDbEntity
  8
Char_Limits
  6
ByLayer
 62
  256
370
   -1
100
AcDbLine
 10
0
 20
-66
 11
10
 21
-66
  0
LINE
  5
D3
100
AcDbEntity
  8
Char_Limits
  6
ByLayer
 62
  256
370
   -1
100
AcDbLine
 10
10
 20
-66
 11
10
 21
-56
  0
LINE
  5
D4
100
AcDbEntity
  8
Char_Limits
  6
ByLayer
 62
  256
370
   -1
100
AcDbLine
 10
10
 20
-56
 11
0
 21
-56
  0
LINE
  5
D5
100
AcDbEntity
  8
Char_Limits
  6
ByLayer
 62
  256
370
   -1
100
AcDbLine
 10
0
 20
-56
 11
0
 21
-66
  0
LINE
  5
D6
100
AcDbEntity
  8
Char_Limits
  6
ByLayer
 62
  256
370
   -1
100
AcDbLine
 10
11
 20
-66
 11
21
 21
-66
  0
LINE
  5
D7
100
AcDbEntity
  8
Char_Limits
  6
ByLayer
 62
  256
370
   -1
100
AcDbLine
 10
21
 20
-66
 11
21
 21
-56
  0
LINE
  5
D8
100
AcDbEntity
  8
Char_Limits
  6
ByLayer
 62
  256
370
   -1
100
AcDbLine
 10
21
 20
-56
 11
11
 21
-56
  0
LINE
  5
D9
100
AcDbEntity
  8
Char_Limits
  6
ByLayer
 62
  256
370
   -1
100
AcDbLine
 10
11
 20
-56
 11
11
 21
-66
  0
LINE
  5
DA
100
AcDbEntity
  8
Char_Limits
  6
ByLayer
 62
  256
370
   -1
100
AcDbLine
 10
22
 20
-66
 11
32
 21
-66
  0
LINE
  5
DB
100
AcDbEntity
  8
Char_Limits
  6
ByLayer
 62
  256
370
   -1
100
AcDbLine
 10
32
 20
-66
 11
32
 21
-56
  0
LINE
  5
DC
100
AcDbEntity
  8
Char_Limits
  6
ByLayer
 62
  256
370
   -1
100
AcDbLine
 10
32
 20
-56
 11
22
 21
-56
  0
LINE
  5
DD
100
AcDbEntity
  8
Char_Limits
  6
ByLayer
 62
  256
370
   -1
100
AcDbLine
 10
22
 20
-56
 11
22
 21
-66
  0
LINE
  5
DE
100
AcDbEntity
  8
Char_Limits
  6
ByLayer
 62
  256
370
   -1
100
AcDbLine
 10
33
 20
-66
 11
43
 21
-66
  0
LINE
  5
DF
100
AcDbEntity
  8
Char_Limits
  6
ByLayer
 62
  256
370
   -1
100
AcDbLine
 10
43
 20
-66
 11
43
 21
-56
  0
LINE
  5
E0
100
AcDbEntity
  8
Char_Limits
  6
ByLayer
 62
  256
370
   -1
100
AcDbLine
 10
43
 20
-56
 11
33
 21
-56
  0
LINE
  5
E1
100
AcDbEntity
  8
Char_Limits
  6
ByLayer
 62
  256
370
   -1
100
AcDbLine
 10
33
 20
-56
 11
33
 21
-66
  0
LINE
  5
E2
100
AcDbEntity
  8
Char_Limits
  6
ByLayer
 62
  256
370
   -1
100
AcDbLine
 10
44
 20
-66
 11
54
 21
-66
  0
LINE
  5
E3
100
AcDbEntity
  8
Char_Limits
  6
ByLayer
 62
  256
370
   -1
100
AcDbLine
 10
54
 20
-66
 11
54
 21
-56
  0
LINE
  5
E4
100
AcDbEntity
  8
Char_Limits
  6
ByLayer
 62
  256
370
   -1
100
AcDbLine
 10
54
 20
-56
 11
44
 21
-56
  0
LINE
  5
E5
100
AcDbEntity
  8
Char_Limits
  6
ByLayer
 62
  256
370
   -1
100
AcDbLine
 10
44
 20
-56
 11
44
 21
-66
  0
LINE
  5
E6
100
AcDbEntity
  8
Char_Limits
  6
ByLayer
 62
  256
370
   -1
100
AcDbLine
 10
0
 20
-66
 11
0
 21
-67
  0
LINE
  5
E7
100
AcDbEntity
  8
Char_Limits
  6
ByLayer
 62
  256
370
   -1
100
AcDbLine
 10
54
 20
-66
 11
54
 21
-67
  0
LINE
  5
E8
100
AcDbEntity
  8
Char_Limits
  6
ByLayer
 62
  256
370
   -1
100
AcDbLine
 10
0
 20
-77
 11
10
 21
-77
  0
LINE
  5
E9
100
AcDbEntity
  8
Char_Limits
  6
ByLayer
 62
  256
370
   -1
100
AcDbLine
 10
10
 20
-77
 11
10
 21
-67
  0
LINE
  5
EA
100
AcDbEntity
  8
Char_Limits
  6
ByLayer
 62
  256
370
   -1
100
AcDbLine
 10
10
 20
-67
 11
0
 21
-67
  0
LINE
  5
EB
100
AcDbEntity
  8
Char_Limits
  6
ByLayer
 62
  256
370
   -1
100
AcDbLine
 10
0
 20
-67
 11
0
 21
-77
  0
LINE
  5
EC
100
AcDbEntity
  8
Char_Limits
  6
ByLayer
 62
  256
370
   -1
100
AcDbLine
 10
11
 20
-77
 11
21
 21
-77
  0
LINE
  5
ED
100
AcDbEntity
  8
Char_Limits
  6
ByLayer
 62
  256
370
   -1
100
AcDbLine
 10
21
 20
-77
 11
21
 21
-67
  0
LINE
  5
EE
100
AcDbEntity
  8
Char_Limits
  6
ByLayer
 62
  256
370
   -1
100
AcDbLine
 10
21
 20
-67
 11
11
 21
-67
  0
LINE
  5
EF
100
AcDbEntity
  8
Char_Limits
  6
ByLayer
 62
  256
370
   -1
100
AcDbLine
 10
11
 20
-67
 11
11
 21
-77
  0
LINE
  5
F0
100
AcDbEntity
  8
Char_Limits
  6
ByLayer
 62
  256
370
   -1
100
AcDbLine
 10
22
 20
-77
 11
32
 21
-77
  0
LINE
  5
F1
100
AcDbEntity
  8
Char_Limits
  6
ByLayer
 62
  256
370
   -1
100
AcDbLine
 10
32
 20
-77
 11
32
 21
-67
  0
LINE
  5
F2
100
AcDbEntity
  8
Char_Limits
  6
ByLayer
 62
  256
370
   -1
100
AcDbLine
 10
32
 20
-67
 11
22
 21
-67
  0
LINE
  5
F3
100
AcDbEntity
  8
Char_Limits
  6
ByLayer
 62
  256
370
   -1
100
AcDbLine
 10
22
 20
-67
 11
22
 21
-77
  0
LINE
  5
F4
100
AcDbEntity
  8
Char_Limits
  6
ByLayer
 62
  256
370
   -1
100
AcDbLine
 10
33
 20
-77
 11
43
 21
-77
  0
LINE
  5
F5
100
AcDbEntity
  8
Char_Limits
  6
ByLayer
 62
  256
370
   -1
100
AcDbLine
 10
43
 20
-77
 11
43
 21
-67
  0
LINE
  5
F6
100
AcDbEntity
  8
Char_Limits
  6
ByLayer
 62
  256
370
   -1
100
AcDbLine
 10
43
 20
-67
 11
33
 21
-67
  0
LINE
  5
F7
100
AcDbEntity
  8
Char_Limits
  6
ByLayer
 62
  256
370
   -1
100
AcDbLine
 10
33
 20
-67
 11
33
 21
-77
  0
LINE
  5
F8
100
AcDbEntity
  8
Char_Limits
  6
ByLayer
 62
  256
370
   -1
100
AcDbLine
 10
44
 20
-77
 11
54
 21
-77
  0
LINE
  5
F9
100
AcDbEntity
  8
Char_Limits
  6
ByLayer
 62
  256
370
   -1
100
AcDbLine
 10
54
 20
-77
 11
54
 21
-67
  0
LINE
  5
FA
100
AcDbEntity
  8
Char_Limits
  6
ByLayer
 62
  256
370
   -1
100
AcDbLine
 10
54
 20
-67
 11
44
 21
-67
  0
LINE
  5
FB
100
AcDbEntity
  8
Char_Limits
  6
ByLayer
 62
  256
370
   -1
100
AcDbLine
 10
44
 20
-67
 11
44
 21
-77
  0
LINE
  5
FC
100
AcDbEntity
  8
Char_Limits
  6
ByLayer
 62
  256
370
   -1
100
AcDbLine
 10
0
 20
-77
 11
0
 21
-78
  0
LINE
  5
FD
100
AcDbEntity
  8
Char_Limits
  6
ByLayer
 62
  256
370
   -1
100
AcDbLine
 10
54
 20
-77
 11
54
 21
-78
  0
LINE
  5
FE
100
AcDbEntity
  8
Char_Limits
  6
ByLayer
 62
  256
370
   -1
100
AcDbLine
 10
0
 20
-88
 11
10
 21
-88
  0
LINE
  5
FF
100
AcDbEntity
  8
Char_Limits
  6
ByLayer
 62
  256
370
   -1
100
AcDbLine
 10
10
 20
-88
 11
10
 21
-78
  0
LINE
  5
100
100
AcDbEntity
  8
Char_Limits
  6
ByLayer
 62
  256
370
   -1
100
AcDbLine
 10
10
 20
-78
 11
0
 21
-78
  0
LINE
  5
101
100
AcDbEntity
  8
Char_Limits
  6
ByLayer
 62
  256
370
   -1
100
AcDbLine
 10
0
 20
-78
 11
0
 21
-88
  0
LINE
  5
102
100
AcDbEntity
  8
Char_Limits
  6
ByLayer
 62
  256
370
   -1
100
AcDbLine
 10
11
 20
-88
 11
21
 21
-88
  0
LINE
  5
103
100
AcDbEntity
  8
Char_Limits
  6
ByLayer
 62
  256
370
   -1
100
AcDbLine
 10
21
 20
-88
 11
21
 21
-78
  0
LINE
  5
104
100
AcDbEntity
  8
Char_Limits
  6
ByLayer
 62
  256
370
   -1
100
AcDbLine
 10
21
 20
-78
 11
11
 21
-78
  0
LINE
  5
105
100
AcDbEntity
  8
Char_Limits
  6
ByLayer
 62
  256
370
   -1
100
AcDbLine
 10
11
 20
-78
 11
11
 21
-88
  0
LINE
  5
106
100
AcDbEntity
  8
Char_Limits
  6
ByLayer
 62
  256
370
   -1
100
AcDbLine
 10
22
 20
-88
 11
32
 21
-88
  0
LINE
  5
107
100
AcDbEntity
  8
Char_Limits
  6
ByLayer
 62
  256
370
   -1
100
AcDbLine
 10
32
 20
-88
 11
32
 21
-78
  0
LINE
  5
108
100
AcDbEntity
  8
Char_Limits
  6
ByLayer
 62
  256
370
   -1
100
AcDbLine
 10
32
 20
-78
 11
22
 21
-78
  0
LINE
  5
109
100
AcDbEntity
  8
Char_Limits
  6
ByLayer
 62
  256
370
   -1
100
AcDbLine
 10
22
 20
-78
 11
22
 21
-88
  0
LINE
  5
10A
100
AcDbEntity
  8
Char_Limits
  6
ByLayer
 62
  256
370
   -1
100
AcDbLine
 10
33
 20
-88
 11
43
 21
-88
  0
LINE
  5
10B
100
AcDbEntity
  8
Char_Limits
  6
ByLayer
 62
  256
370
   -1
100
AcDbLine
 10
43
 20
-88
 11
43
 21
-78
  0
LINE
  5
10C
100
AcDbEntity
  8
Char_Limits
  6
ByLayer
 62
  256
370
   -1
100
AcDbLine
 10
43
 20
-78
 11
33
 21
-78
  0
LINE
  5
10D
100
AcDbEntity
  8
Char_Limits
  6
ByLayer
 62
  256
370
   -1
100
AcDbLine
 10
33
 20
-78
 11
33
 21
-88
  0
LINE
  5
10E
100
AcDbEntity
  8
Char_Limits
  6
ByLayer
 62
  256
370
   -1
100
AcDbLine
 10
44
 20
-88
 11
54
 21
-88
  0
LINE
  5
10F
100
AcDbEntity
  8
Char_Limits
  6
ByLayer
 62
  256
370
   -1
100
AcDbLine
 10
54
 20
-88
 11
54
 21
-78
  0
LINE
  5
110
100
AcDbEntity
  8
Char_Limits
  6
ByLayer
 62
  256
370
   -1
100
AcDbLine
 10
54
 20
-78
 11
44
 21
-78
  0
LINE
  5
111
100
AcDbEntity
  8
Char_Limits
  6
ByLayer
 62
  256
370
   -1
100
AcDbLine
 10
44
 20
-78
 11
44
 21
-88
  0
LINE
  5
112
100
AcDbEntity
  8
Char_Limits
  6
ByLayer
 62
  256
370
   -1
100
AcDbLine
 10
0
 20
-88
 11
0
 21
-89
  0
LINE
  5
113
100
AcDbEntity
  8
Char_Limits
  6
ByLayer
 62
  256
370
   -1
100
AcDbLine
 10
54
 20
-88
 11
54
 21
-89
  0
LINE
  5
114
100
AcDbEntity
  8
Char_Limits
  6
ByLayer
 62
  256
370
   -1
100
AcDbLine
 10
10
 20
-99
 11
10
 21
-89
  0
LINE
  5
115
100
AcDbEntity
  8
Char_Limits
  6
ByLayer
 62
  256
370
   -1
100
AcDbLine
 10
10
 20
-89
 11
0
 21
-89
  0
LINE
  5
116
100
AcDbEntity
  8
Char_Limits
  6
ByLayer
 62
  256
370
   -1
100
AcDbLine
 10
0
 20
-89
 11
0
 21
-99
  0
LINE
  5
117
100
AcDbEntity
  8
Char_Limits
  6
ByLayer
 62
  256
370
   -1
100
AcDbLine
 10
21
 20
-99
 11
21
 21
-89
  0
LINE
  5
118
100
AcDbEntity
  8
Char_Limits
  6
ByLayer
 62
  256
370
   -1
100
AcDbLine
 10
21
 20
-89
 11
11
 21
-89
  0
LINE
  5
119
100
AcDbEntity
  8
Char_Limits
  6
ByLayer
 62
  256
370
   -1
100
AcDbLine
 10
11
 20
-89
 11
11
 21
-99
  0
LINE
  5
11A
100
AcDbEntity
  8
Char_Limits
  6
ByLayer
 62
  256
370
   -1
100
AcDbLine
 10
32
 20
-99
 11
32
 21
-89
  0
LINE
  5
11B
100
AcDbEntity
  8
Char_Limits
  6
ByLayer
 62
  256
370
   -1
100
AcDbLine
 10
32
 20
-89
 11
22
 21
-89
  0
LINE
  5
11C
100
AcDbEntity
  8
Char_Limits
  6
ByLayer
 62
  256
370
   -1
100
AcDbLine
 10
22
 20
-89
 11
22
 21
-99
  0
LINE
  5
11D
100
AcDbEntity
  8
Char_Limits
  6
ByLayer
 62
  256
370
   -1
100
AcDbLine
 10
43
 20
-99
 11
43
 21
-89
  0
LINE
  5
11E
100
AcDbEntity
  8
Char_Limits
  6
ByLayer
 62
  256
370
   -1
100
AcDbLine
 10
43
 20
-89
 11
33
 21
-89
  0
LINE
  5
11F
100
AcDbEntity
  8
Char_Limits
  6
ByLayer
 62
  256
370
   -1
100
AcDbLine
 10
33
 20
-89
 11
33
 21
-99
  0
LINE
  5
120
100
AcDbEntity
  8
Char_Limits
  6
ByLayer
 62
  256
370
   -1
100
AcDbLine
 10
54
 20
-99
 11
54
 21
-89
  0
LINE
  5
121
100
AcDbEntity
  8
Char_Limits
  6
ByLayer
 62
  256
370
   -1
100
AcDbLine
 10
54
 20
-89
 11
44
 21
-89
  0
LINE
  5
122
100
AcDbEntity
  8
Char_Limits
  6
ByLayer
 62
  256
370
   -1
100
AcDbLine
 10
44
 20
-89
 11
44
 21
-99
  0
LINE
  5
123
100
AcDbEntity
  8
Char_Limits
  6
ByLayer
 62
  256
370
   -1
100
AcDbLine
 10
60
 20
0
 11
70
 21
0
  0
LINE
  5
124
100
AcDbEntity
  8
Char_Limits
  6
ByLayer
 62
  256
370
   -1
100
AcDbLine
 10
70
 20
0
 11
70
 21
10
  0
LINE
  5
125
100
AcDbEntity
  8
Char_Limits
  6
ByLayer
 62
  256
370
   -1
100
AcDbLine
 10
60
 20
10
 11
60
 21
0
  0
LINE
  5
126
100
AcDbEntity
  8
Char_Limits
  6
ByLayer
 62
  256
370
   -1
100
AcDbLine
 10
71
 20
0
 11
81
 21
0
  0
LINE
  5
127
100
AcDbEntity
  8
Char_Limits
  6
ByLayer
 62
  256
370
   -1
100
AcDbLine
 10
81
 20
0
 11
81
 21
10
  0
LINE
  5
128
100
AcDbEntity
  8
Char_Limits
  6
ByLayer
 62
  256
370
   -1
100
AcDbLine
 10
71
 20
10
 11
71
 21
0
  0
LINE
  5
129
100
AcDbEntity
  8
Char_Limits
  6
ByLayer
 62
  256
370
   -1
100
AcDbLine
 10
82
 20
0
 11
92
 21
0
  0
LINE
  5
12A
100
AcDbEntity
  8
Char_Limits
  6
ByLayer
 62
  256
370
   -1
100
AcDbLine
 10
92
 20
0
 11
92
 21
10
  0
LINE
  5
12B
100
AcDbEntity
  8
Char_Limits
  6
ByLayer
 62
  256
370
   -1
100
AcDbLine
 10
82
 20
10
 11
82
 21
0
  0
LINE
  5
12C
100
AcDbEntity
  8
Char_Limits
  6
ByLayer
 62
  256
370
   -1
100
AcDbLine
 10
93
 20
0
 11
103
 21
0
  0
LINE
  5
12D
100
AcDbEntity
  8
Char_Limits
  6
ByLayer
 62
  256
370
   -1
100
AcDbLine
 10
103
 20
0
 11
103
 21
10
  0
LINE
  5
12E
100
AcDbEntity
  8
Char_Limits
  6
ByLayer
 62
  256
370
   -1
100
AcDbLine
 10
93
 20
10
 11
93
 21
0
  0
LINE
  5
12F
100
AcDbEntity
  8
Char_Limits
  6
ByLayer
 62
  256
370
   -1
100
AcDbLine
 10
104
 20
0
 11
114
 21
0
  0
LINE
  5
130
100
AcDbEntity
  8
Char_Limits
  6
ByLayer
 62
  256
370
   -1
100
AcDbLine
 10
114
 20
0
 11
114
 21
10
  0
LINE
  5
131
100
AcDbEntity
  8
Char_Limits
  6
ByLayer
 62
  256
370
   -1
100
AcDbLine
 10
104
 20
10
 11
104
 21
0
  0
LINE
  5
132
100
AcDbEntity
  8
Char_Limits
  6
ByLayer
 62
  256
370
   -1
100
AcDbLine
 10
60
 20
0
 11
60
 21
-1
  0
LINE
  5
133
100
AcDbEntity
  8
Char_Limits
  6
ByLayer
 62
  256
370
   -1
100
AcDbLine
 10
114
 20
0
 11
114
 21
-1
  0
LINE
  5
134
100
AcDbEntity
  8
Char_Limits
  6
ByLayer
 62
  256
370
   -1
100
AcDbLine
 10
60
 20
-11
 11
70
 21
-11
  0
LINE
  5
135
100
AcDbEntity
  8
Char_Limits
  6
ByLayer
 62
  256
370
   -1
100
AcDbLine
 10
70
 20
-11
 11
70
 21
-1
  0
LINE
  5
136
100
AcDbEntity
  8
Char_Limits
  6
ByLayer
 62
  256
370
   -1
100
AcDbLine
 10
70
 20
-1
 11
60
 21
-1
  0
LINE
  5
137
100
AcDbEntity
  8
Char_Limits
  6
ByLayer
 62
  256
370
   -1
100
AcDbLine
 10
60
 20
-1
 11
60
 21
-11
  0
LINE
  5
138
100
AcDbEntity
  8
Char_Limits
  6
ByLayer
 62
  256
370
   -1
100
AcDbLine
 10
71
 20
-11
 11
81
 21
-11
  0
LINE
  5
139
100
AcDbEntity
  8
Char_Limits
  6
ByLayer
 62
  256
370
   -1
100
AcDbLine
 10
81
 20
-11
 11
81
 21
-1
  0
LINE
  5
13A
100
AcDbEntity
  8
Char_Limits
  6
ByLayer
 62
  256
370
   -1
100
AcDbLine
 10
81
 20
-1
 11
71
 21
-1
  0
LINE
  5
13B
100
AcDbEntity
  8
Char_Limits
  6
ByLayer
 62
  256
370
   -1
100
AcDbLine
 10
71
 20
-1
 11
71
 21
-11
  0
LINE
  5
13C
100
AcDbEntity
  8
Char_Limits
  6
ByLayer
 62
  256
370
   -1
100
AcDbLine
 10
82
 20
-11
 11
92
 21
-11
  0
LINE
  5
13D
100
AcDbEntity
  8
Char_Limits
  6
ByLayer
 62
  256
370
   -1
100
AcDbLine
 10
92
 20
-11
 11
92
 21
-1
  0
LINE
  5
13E
100
AcDbEntity
  8
Char_Limits
  6
ByLayer
 62
  256
370
   -1
100
AcDbLine
 10
92
 20
-1
 11
82
 21
-1
  0
LINE
  5
13F
100
AcDbEntity
  8
Char_Limits
  6
ByLayer
 62
  256
370
   -1
100
AcDbLine
 10
82
 20
-1
 11
82
 21
-11
  0
LINE
  5
140
100
AcDbEntity
  8
Char_Limits
  6
ByLayer
 62
  256
370
   -1
100
AcDbLine
 10
93
 20
-11
 11
103
 21
-11
  0
LINE
  5
141
100
AcDbEntity
  8
Char_Limits
  6
ByLayer
 62
  256
370
   -1
100
AcDbLine
 10
103
 20
-11
 11
103
 21
-1
  0
LINE
  5
142
100
AcDbEntity
  8
Char_Limits
  6
ByLayer
 62
  256
370
   -1
100
AcDbLine
 10
103
 20
-1
 11
93
 21
-1
  0
LINE
  5
143
100
AcDbEntity
  8
Char_Limits
  6
ByLayer
 62
  256
370
   -1
100
AcDbLine
 10
93
 20
-1
 11
93
 21
-11
  0
LINE
  5
144
100
AcDbEntity
  8
Char_Limits
  6
ByLayer
 62
  256
370
   -1
100
AcDbLine
 10
104
 20
-11
 11
114
 21
-11
  0
LINE
  5
145
100
AcDbEntity
  8
Char_Limits
  6
ByLayer
 62
  256
370
   -1
100
AcDbLine
 10
114
 20
-11
 11
114
 21
-1
  0
LINE
  5
146
100
AcDbEntity
  8
Char_Limits
  6
ByLayer
 62
  256
370
   -1
100
AcDbLine
 10
114
 20
-1
 11
104
 21
-1
  0
LINE
  5
147
100
AcDbEntity
  8
Char_Limits
  6
ByLayer
 62
  256
370
   -1
100
AcDbLine
 10
104
 20
-1
 11
104
 21
-11
  0
LINE
  5
148
100
AcDbEntity
  8
Char_Limits
  6
ByLayer
 62
  256
370
   -1
100
AcDbLine
 10
60
 20
-11
 11
60
 21
-12
  0
LINE
  5
149
100
AcDbEntity
  8
Char_Limits
  6
ByLayer
 62
  256
370
   -1
100
AcDbLine
 10
114
 20
-11
 11
114
 21
-12
  0
LINE
  5
14A
100
AcDbEntity
  8
Char_Limits
  6
ByLayer
 62
  256
370
   -1
100
AcDbLine
 10
60
 20
-22
 11
70
 21
-22
  0
LINE
  5
14B
100
AcDbEntity
  8
Char_Limits
  6
ByLayer
 62
  256
370
   -1
100
AcDbLine
 10
70
 20
-22
 11
70
 21
-12
  0
LINE
  5
14C
100
AcDbEntity
  8
Char_Limits
  6
ByLayer
 62
  256
370
   -1
100
AcDbLine
 10
70
 20
-12
 11
60
 21
-12
  0
LINE
  5
14D
100
AcDbEntity
  8
Char_Limits
  6
ByLayer
 62
  256
370
   -1
100
AcDbLine
 10
60
 20
-12
 11
60
 21
-22
  0
LINE
  5
14E
100
AcDbEntity
  8
Char_Limits
  6
ByLayer
 62
  256
370
   -1
100
AcDbLine
 10
71
 20
-22
 11
81
 21
-22
  0
LINE
  5
14F
100
AcDbEntity
  8
Char_Limits
  6
ByLayer
 62
  256
370
   -1
100
AcDbLine
 10
81
 20
-22
 11
81
 21
-12
  0
LINE
  5
150
100
AcDbEntity
  8
Char_Limits
  6
ByLayer
 62
  256
370
   -1
100
AcDbLine
 10
81
 20
-12
 11
71
 21
-12
  0
LINE
  5
151
100
AcDbEntity
  8
Char_Limits
  6
ByLayer
 62
  256
370
   -1
100
AcDbLine
 10
71
 20
-12
 11
71
 21
-22
  0
LINE
  5
152
100
AcDbEntity
  8
Char_Limits
  6
ByLayer
 62
  256
370
   -1
100
AcDbLine
 10
82
 20
-22
 11
92
 21
-22
  0
LINE
  5
153
100
AcDbEntity
  8
Char_Limits
  6
ByLayer
 62
  256
370
   -1
100
AcDbLine
 10
92
 20
-22
 11
92
 21
-12
  0
LINE
  5
154
100
AcDbEntity
  8
Char_Limits
  6
ByLayer
 62
  256
370
   -1
100
AcDbLine
 10
92
 20
-12
 11
82
 21
-12
  0
LINE
  5
155
100
AcDbEntity
  8
Char_Limits
  6
ByLayer
 62
  256
370
   -1
100
AcDbLine
 10
82
 20
-12
 11
82
 21
-22
  0
LINE
  5
156
100
AcDbEntity
  8
Char_Limits
  6
ByLayer
 62
  256
370
   -1
100
AcDbLine
 10
93
 20
-22
 11
103
 21
-22
  0
LINE
  5
157
100
AcDbEntity
  8
Char_Limits
  6
ByLayer
 62
  256
370
   -1
100
AcDbLine
 10
103
 20
-22
 11
103
 21
-12
  0
LINE
  5
158
100
AcDbEntity
  8
Char_Limits
  6
ByLayer
 62
  256
370
   -1
100
AcDbLine
 10
103
 20
-12
 11
93
 21
-12
  0
LINE
  5
159
100
AcDbEntity
  8
Char_Limits
  6
ByLayer
 62
  256
370
   -1
100
AcDbLine
 10
93
 20
-12
 11
93
 21
-22
  0
LINE
  5
15A
100
AcDbEntity
  8
Char_Limits
  6
ByLayer
 62
  256
370
   -1
100
AcDbLine
 10
104
 20
-22
 11
114
 21
-22
  0
LINE
  5
15B
100
AcDbEntity
  8
Char_Limits
  6
ByLayer
 62
  256
370
   -1
100
AcDbLine
 10
114
 20
-22
 11
114
 21
-12
  0
LINE
  5
15C
100
AcDbEntity
  8
Char_Limits
  6
ByLayer
 62
  256
370
   -1
100
AcDbLine
 10
114
 20
-12
 11
104
 21
-12
  0
LINE
  5
15D
100
AcDbEntity
  8
Char_Limits
  6
ByLayer
 62
  256
370
   -1
100
AcDbLine
 10
104
 20
-12
 11
104
 21
-22
  0
LINE
  5
15E
100
AcDbEntity
  8
Char_Limits
  6
ByLayer
 62
  256
370
   -1
100
AcDbLine
 10
60
 20
-22
 11
60
 21
-23
  0
LINE
  5
15F
100
AcDbEntity
  8
Char_Limits
  6
ByLayer
 62
  256
370
   -1
100
AcDbLine
 10
114
 20
-22
 11
114
 21
-23
  0
LINE
  5
160
100
AcDbEntity
  8
Char_Limits
  6
ByLayer
 62
  256
370
   -1
100
AcDbLine
 10
60
 20
-33
 11
70
 21
-33
  0
LINE
  5
161
100
AcDbEntity
  8
Char_Limits
  6
ByLayer
 62
  256
370
   -1
100
AcDbLine
 10
70
 20
-33
 11
70
 21
-23
  0
LINE
  5
162
100
AcDbEntity
  8
Char_Limits
  6
ByLayer
 62
  256
370
   -1
100
AcDbLine
 10
70
 20
-23
 11
60
 21
-23
  0
LINE
  5
163
100
AcDbEntity
  8
Char_Limits
  6
ByLayer
 62
  256
370
   -1
100
AcDbLine
 10
60
 20
-23
 11
60
 21
-33
  0
LINE
  5
164
100
AcDbEntity
  8
Char_Limits
  6
ByLayer
 62
  256
370
   -1
100
AcDbLine
 10
71
 20
-33
 11
81
 21
-33
  0
LINE
  5
165
100
AcDbEntity
  8
Char_Limits
  6
ByLayer
 62
  256
370
   -1
100
AcDbLine
 10
81
 20
-33
 11
81
 21
-23
  0
LINE
  5
166
100
AcDbEntity
  8
Char_Limits
  6
ByLayer
 62
  256
370
   -1
100
AcDbLine
 10
81
 20
-23
 11
71
 21
-23
  0
LINE
  5
167
100
AcDbEntity
  8
Char_Limits
  6
ByLayer
 62
  256
370
   -1
100
AcDbLine
 10
71
 20
-23
 11
71
 21
-33
  0
LINE
  5
168
100
AcDbEntity
  8
Char_Limits
  6
ByLayer
 62
  256
370
   -1
100
AcDbLine
 10
82
 20
-33
 11
92
 21
-33
  0
LINE
  5
169
100
AcDbEntity
  8
Char_Limits
  6
ByLayer
 62
  256
370
   -1
100
AcDbLine
 10
92
 20
-33
 11
92
 21
-23
  0
LINE
  5
16A
100
AcDbEntity
  8
Char_Limits
  6
ByLayer
 62
  256
370
   -1
100
AcDbLine
 10
92
 20
-23
 11
82
 21
-23
  0
LINE
  5
16B
100
AcDbEntity
  8
Char_Limits
  6
ByLayer
 62
  256
370
   -1
100
AcDbLine
 10
82
 20
-23
 11
82
 21
-33
  0
LINE
  5
16C
100
AcDbEntity
  8
Char_Limits
  6
ByLayer
 62
  256
370
   -1
100
AcDbLine
 10
93
 20
-33
 11
103
 21
-33
  0
LINE
  5
16D
100
AcDbEntity
  8
Char_Limits
  6
ByLayer
 62
  256
370
   -1
100
AcDbLine
 10
103
 20
-33
 11
103
 21
-23
  0
LINE
  5
16E
100
AcDbEntity
  8
Char_Limits
  6
ByLayer
 62
  256
370
   -1
100
AcDbLine
 10
103
 20
-23
 11
93
 21
-23
  0
LINE
  5
16F
100
AcDbEntity
  8
Char_Limits
  6
ByLayer
 62
  256
370
   -1
100
AcDbLine
 10
93
 20
-23
 11
93
 21
-33
  0
LINE
  5
170
100
AcDbEntity
  8
Char_Limits
  6
ByLayer
 62
  256
370
   -1
100
AcDbLine
 10
104
 20
-33
 11
114
 21
-33
  0
LINE
  5
171
100
AcDbEntity
  8
Char_Limits
  6
ByLayer
 62
  256
370
   -1
100
AcDbLine
 10
114
 20
-33
 11
114
 21
-23
  0
LINE
  5
172
100
AcDbEntity
  8
Char_Limits
  6
ByLayer
 62
  256
370
   -1
100
AcDbLine
 10
114
 20
-23
 11
104
 21
-23
  0
LINE
  5
173
100
AcDbEntity
  8
Char_Limits
  6
ByLayer
 62
  256
370
   -1
100
AcDbLine
 10
104
 20
-23
 11
104
 21
-33
  0
LINE
  5
174
100
AcDbEntity
  8
Char_Limits
  6
ByLayer
 62
  256
370
   -1
100
AcDbLine
 10
60
 20
-33
 11
60
 21
-34
  0
LINE
  5
175
100
AcDbEntity
  8
Char_Limits
  6
ByLayer
 62
  256
370
   -1
100
AcDbLine
 10
114
 20
-33
 11
114
 21
-34
  0
LINE
  5
176
100
AcDbEntity
  8
Char_Limits
  6
ByLayer
 62
  256
370
   -1
100
AcDbLine
 10
60
 20
-44
 11
70
 21
-44
  0
LINE
  5
177
100
AcDbEntity
  8
Char_Limits
  6
ByLayer
 62
  256
370
   -1
100
AcDbLine
 10
70
 20
-44
 11
70
 21
-34
  0
LINE
  5
178
100
AcDbEntity
  8
Char_Limits
  6
ByLayer
 62
  256
370
   -1
100
AcDbLine
 10
70
 20
-34
 11
60
 21
-34
  0
LINE
  5
179
100
AcDbEntity
  8
Char_Limits
  6
ByLayer
 62
  256
370
   -1
100
AcDbLine
 10
60
 20
-34
 11
60
 21
-44
  0
LINE
  5
17A
100
AcDbEntity
  8
Char_Limits
  6
ByLayer
 62
  256
370
   -1
100
AcDbLine
 10
71
 20
-44
 11
81
 21
-44
  0
LINE
  5
17B
100
AcDbEntity
  8
Char_Limits
  6
ByLayer
 62
  256
370
   -1
100
AcDbLine
 10
81
 20
-44
 11
81
 21
-34
  0
LINE
  5
17C
100
AcDbEntity
  8
Char_Limits
  6
ByLayer
 62
  256
370
   -1
100
AcDbLine
 10
81
 20
-34
 11
71
 21
-34
  0
LINE
  5
17D
100
AcDbEntity
  8
Char_Limits
  6
ByLayer
 62
  256
370
   -1
100
AcDbLine
 10
71
 20
-34
 11
71
 21
-44
  0
LINE
  5
17E
100
AcDbEntity
  8
Char_Limits
  6
ByLayer
 62
  256
370
   -1
100
AcDbLine
 10
82
 20
-44
 11
92
 21
-44
  0
LINE
  5
17F
100
AcDbEntity
  8
Char_Limits
  6
ByLayer
 62
  256
370
   -1
100
AcDbLine
 10
92
 20
-44
 11
92
 21
-34
  0
LINE
  5
180
100
AcDbEntity
  8
Char_Limits
  6
ByLayer
 62
  256
370
   -1
100
AcDbLine
 10
92
 20
-34
 11
82
 21
-34
  0
LINE
  5
181
100
AcDbEntity
  8
Char_Limits
  6
ByLayer
 62
  256
370
   -1
100
AcDbLine
 10
82
 20
-34
 11
82
 21
-44
  0
LINE
  5
182
100
AcDbEntity
  8
Char_Limits
  6
ByLayer
 62
  256
370
   -1
100
AcDbLine
 10
93
 20
-44
 11
103
 21
-44
  0
LINE
  5
183
100
AcDbEntity
  8
Char_Limits
  6
ByLayer
 62
  256
370
   -1
100
AcDbLine
 10
103
 20
-44
 11
103
 21
-34
  0
LINE
  5
184
100
AcDbEntity
  8
Char_Limits
  6
ByLayer
 62
  256
370
   -1
100
AcDbLine
 10
103
 20
-34
 11
93
 21
-34
  0
LINE
  5
185
100
AcDbEntity
  8
Char_Limits
  6
ByLayer
 62
  256
370
   -1
100
AcDbLine
 10
93
 20
-34
 11
93
 21
-44
  0
LINE
  5
186
100
AcDbEntity
  8
Char_Limits
  6
ByLayer
 62
  256
370
   -1
100
AcDbLine
 10
104
 20
-44
 11
114
 21
-44
  0
LINE
  5
187
100
AcDbEntity
  8
Char_Limits
  6
ByLayer
 62
  256
370
   -1
100
AcDbLine
 10
114
 20
-44
 11
114
 21
-34
  0
LINE
  5
188
100
AcDbEntity
  8
Char_Limits
  6
ByLayer
 62
  256
370
   -1
100
AcDbLine
 10
114
 20
-34
 11
104
 21
-34
  0
LINE
  5
189
100
AcDbEntity
  8
Char_Limits
  6
ByLayer
 62
  256
370
   -1
100
AcDbLine
 10
104
 20
-34
 11
104
 21
-44
  0
LINE
  5
18A
100
AcDbEntity
  8
Char_Limits
  6
ByLayer
 62
  256
370
   -1
100
AcDbLine
 10
60
 20
-44
 11
60
 21
-45
  0
LINE
  5
18B
100
AcDbEntity
  8
Char_Limits
  6
ByLayer
 62
  256
370
   -1
100
AcDbLine
 10
114
 20
-44
 11
114
 21
-45
  0
LINE
  5
18C
100
AcDbEntity
  8
Char_Limits
  6
ByLayer
 62
  256
370
   -1
100
AcDbLine
 10
60
 20
-55
 11
70
 21
-55
  0
LINE
  5
18D
100
AcDbEntity
  8
Char_Limits
  6
ByLayer
 62
  256
370
   -1
100
AcDbLine
 10
70
 20
-55
 11
70
 21
-45
  0
LINE
  5
18E
100
AcDbEntity
  8
Char_Limits
  6
ByLayer
 62
  256
370
   -1
100
AcDbLine
 10
70
 20
-45
 11
60
 21
-45
  0
LINE
  5
18F
100
AcDbEntity
  8
Char_Limits
  6
ByLayer
 62
  256
370
   -1
100
AcDbLine
 10
60
 20
-45
 11
60
 21
-55
  0
LINE
  5
190
100
AcDbEntity
  8
Char_Limits
  6
ByLayer
 62
  256
370
   -1
100
AcDbLine
 10
71
 20
-55
 11
81
 21
-55
  0
LINE
  5
191
100
AcDbEntity
  8
Char_Limits
  6
ByLayer
 62
  256
370
   -1
100
AcDbLine
 10
81
 20
-55
 11
81
 21
-45
  0
LINE
  5
192
100
AcDbEntity
  8
Char_Limits
  6
ByLayer
 62
  256
370
   -1
100
AcDbLine
 10
81
 20
-45
 11
71
 21
-45
  0
LINE
  5
193
100
AcDbEntity
  8
Char_Limits
  6
ByLayer
 62
  256
370
   -1
100
AcDbLine
 10
71
 20
-45
 11
71
 21
-55
  0
LINE
  5
194
100
AcDbEntity
  8
Char_Limits
  6
ByLayer
 62
  256
370
   -1
100
AcDbLine
 10
82
 20
-55
 11
92
 21
-55
  0
LINE
  5
195
100
AcDbEntity
  8
Char_Limits
  6
ByLayer
 62
  256
370
   -1
100
AcDbLine
 10
92
 20
-55
 11
92
 21
-45
  0
LINE
  5
196
100
AcDbEntity
  8
Char_Limits
  6
ByLayer
 62
  256
370
   -1
100
AcDbLine
 10
92
 20
-45
 11
82
 21
-45
  0
LINE
  5
197
100
AcDbEntity
  8
Char_Limits
  6
ByLayer
 62
  256
370
   -1
100
AcDbLine
 10
82
 20
-45
 11
82
 21
-55
  0
LINE
  5
198
100
AcDbEntity
  8
Char_Limits
  6
ByLayer
 62
  256
370
   -1
100
AcDbLine
 10
93
 20
-55
 11
103
 21
-55
  0
LINE
  5
199
100
AcDbEntity
  8
Char_Limits
  6
ByLayer
 62
  256
370
   -1
100
AcDbLine
 10
103
 20
-55
 11
103
 21
-45
  0
LINE
  5
19A
100
AcDbEntity
  8
Char_Limits
  6
ByLayer
 62
  256
370
   -1
100
AcDbLine
 10
103
 20
-45
 11
93
 21
-45
  0
LINE
  5
19B
100
AcDbEntity
  8
Char_Limits
  6
ByLayer
 62
  256
370
   -1
100
AcDbLine
 10
93
 20
-45
 11
93
 21
-55
  0
LINE
  5
19C
100
AcDbEntity
  8
Char_Limits
  6
ByLayer
 62
  256
370
   -1
100
AcDbLine
 10
104
 20
-55
 11
114
 21
-55
  0
LINE
  5
19D
100
AcDbEntity
  8
Char_Limits
  6
ByLayer
 62
  256
370
   -1
100
AcDbLine
 10
114
 20
-55
 11
114
 21
-45
  0
LINE
  5
19E
100
AcDbEntity
  8
Char_Limits
  6
ByLayer
 62
  256
370
   -1
100
AcDbLine
 10
114
 20
-45
 11
104
 21
-45
  0
LINE
  5
19F
100
AcDbEntity
  8
Char_Limits
  6
ByLayer
 62
  256
370
   -1
100
AcDbLine
 10
104
 20
-45
 11
104
 21
-55
  0
LINE
  5
1A0
100
AcDbEntity
  8
Char_Limits
  6
ByLayer
 62
  256
370
   -1
100
AcDbLine
 10
60
 20
-55
 11
60
 21
-56
  0
LINE
  5
1A1
100
AcDbEntity
  8
Char_Limits
  6
ByLayer
 62
  256
370
   -1
100
AcDbLine
 10
114
 20
-55
 11
114
 21
-56
  0
LINE
  5
1A2
100
AcDbEntity
  8
Char_Limits
  6
ByLayer
 62
  256
370
   -1
100
AcDbLine
 10
60
 20
-66
 11
70
 21
-66
  0
LINE
  5
1A3
100
AcDbEntity
  8
Char_Limits
  6
ByLayer
 62
  256
370
   -1
100
AcDbLine
 10
70
 20
-66
 11
70
 21
-56
  0
LINE
  5
1A4
100
AcDbEntity
  8
Char_Limits
  6
ByLayer
 62
  256
370
   -1
100
AcDbLine
 10
70
 20
-56
 11
60
 21
-56
  0
LINE
  5
1A5
100
AcDbEntity
  8
Char_Limits
  6
ByLayer
 62
  256
370
   -1
100
AcDbLine
 10
60
 20
-56
 11
60
 21
-66
  0
LINE
  5
1A6
100
AcDbEntity
  8
Char_Limits
  6
ByLayer
 62
  256
370
   -1
100
AcDbLine
 10
71
 20
-66
 11
81
 21
-66
  0
LINE
  5
1A7
100
AcDbEntity
  8
Char_Limits
  6
ByLayer
 62
  256
370
   -1
100
AcDbLine
 10
81
 20
-66
 11
81
 21
-56
  0
LINE
  5
1A8
100
AcDbEntity
  8
Char_Limits
  6
ByLayer
 62
  256
370
   -1
100
AcDbLine
 10
81
 20
-56
 11
71
 21
-56
  0
LINE
  5
1A9
100
AcDbEntity
  8
Char_Limits
  6
ByLayer
 62
  256
370
   -1
100
AcDbLine
 10
71
 20
-56
 11
71
 21
-66
  0
LINE
  5
1AA
100
AcDbEntity
  8
Char_Limits
  6
ByLayer
 62
  256
370
   -1
100
AcDbLine
 10
82
 20
-66
 11
92
 21
-66
  0
LINE
  5
1AB
100
AcDbEntity
  8
Char_Limits
  6
ByLayer
 62
  256
370
   -1
100
AcDbLine
 10
92
 20
-66
 11
92
 21
-56
  0
LINE
  5
1AC
100
AcDbEntity
  8
Char_Limits
  6
ByLayer
 62
  256
370
   -1
100
AcDbLine
 10
92
 20
-56
 11
82
 21
-56
  0
LINE
  5
1AD
100
AcDbEntity
  8
Char_Limits
  6
ByLayer
 62
  256
370
   -1
100
AcDbLine
 10
82
 20
-56
 11
82
 21
-66
  0
LINE
  5
1AE
100
AcDbEntity
  8
Char_Limits
  6
ByLayer
 62
  256
370
   -1
100
AcDbLine
 10
93
 20
-66
 11
103
 21
-66
  0
LINE
  5
1AF
100
AcDbEntity
  8
Char_Limits
  6
ByLayer
 62
  256
370
   -1
100
AcDbLine
 10
103
 20
-66
 11
103
 21
-56
  0
LINE
  5
1B0
100
AcDbEntity
  8
Char_Limits
  6
ByLayer
 62
  256
370
   -1
100
AcDbLine
 10
103
 20
-56
 11
93
 21
-56
  0
LINE
  5
1B1
100
AcDbEntity
  8
Char_Limits
  6
ByLayer
 62
  256
370
   -1
100
AcDbLine
 10
93
 20
-56
 11
93
 21
-66
  0
LINE
  5
1B2
100
AcDbEntity
  8
Char_Limits
  6
ByLayer
 62
  256
370
   -1
100
AcDbLine
 10
104
 20
-66
 11
114
 21
-66
  0
LINE
  5
1B3
100
AcDbEntity
  8
Char_Limits
  6
ByLayer
 62
  256
370
   -1
100
AcDbLine
 10
114
 20
-66
 11
114
 21
-56
  0
LINE
  5
1B4
100
AcDbEntity
  8
Char_Limits
  6
ByLayer
 62
  256
370
   -1
100
AcDbLine
 10
114
 20
-56
 11
104
 21
-56
  0
LINE
  5
1B5
100
AcDbEntity
  8
Char_Limits
  6
ByLayer
 62
  256
370
   -1
100
AcDbLine
 10
104
 20
-56
 11
104
 21
-66
  0
LINE
  5
1B6
100
AcDbEntity
  8
Char_Limits
  6
ByLayer
 62
  256
370
   -1
100
AcDbLine
 10
60
 20
-66
 11
60
 21
-67
  0
LINE
  5
1B7
100
AcDbEntity
  8
Char_Limits
  6
ByLayer
 62
  256
370
   -1
100
AcDbLine
 10
114
 20
-66
 11
114
 21
-67
  0
LINE
  5
1B8
100
AcDbEntity
  8
Char_Limits
  6
ByLayer
 62
  256
370
   -1
100
AcDbLine
 10
60
 20
-77
 11
70
 21
-77
  0
LINE
  5
1B9
100
AcDbEntity
  8
Char_Limits
  6
ByLayer
 62
  256
370
   -1
100
AcDbLine
 10
70
 20
-77
 11
70
 21
-67
  0
LINE
  5
1BA
100
AcDbEntity
  8
Char_Limits
  6
ByLayer
 62
  256
370
   -1
100
AcDbLine
 10
70
 20
-67
 11
60
 21
-67
  0
LINE
  5
1BB
100
AcDbEntity
  8
Char_Limits
  6
ByLayer
 62
  256
370
   -1
100
AcDbLine
 10
60
 20
-67
 11
60
 21
-77
  0
LINE
  5
1BC
100
AcDbEntity
  8
Char_Limits
  6
ByLayer
 62
  256
370
   -1
100
AcDbLine
 10
71
 20
-77
 11
81
 21
-77
  0
LINE
  5
1BD
100
AcDbEntity
  8
Char_Limits
  6
ByLayer
 62
  256
370
   -1
100
AcDbLine
 10
81
 20
-77
 11
81
 21
-67
  0
LINE
  5
1BE
100
AcDbEntity
  8
Char_Limits
  6
ByLayer
 62
  256
370
   -1
100
AcDbLine
 10
81
 20
-67
 11
71
 21
-67
  0
LINE
  5
1BF
100
AcDbEntity
  8
Char_Limits
  6
ByLayer
 62
  256
370
   -1
100
AcDbLine
 10
71
 20
-67
 11
71
 21
-77
  0
LINE
  5
1C0
100
AcDbEntity
  8
Char_Limits
  6
ByLayer
 62
  256
370
   -1
100
AcDbLine
 10
82
 20
-77
 11
92
 21
-77
  0
LINE
  5
1C1
100
AcDbEntity
  8
Char_Limits
  6
ByLayer
 62
  256
370
   -1
100
AcDbLine
 10
92
 20
-77
 11
92
 21
-67
  0
LINE
  5
1C2
100
AcDbEntity
  8
Char_Limits
  6
ByLayer
 62
  256
370
   -1
100
AcDbLine
 10
92
 20
-67
 11
82
 21
-67
  0
LINE
  5
1C3
100
AcDbEntity
  8
Char_Limits
  6
ByLayer
 62
  256
370
   -1
100
AcDbLine
 10
82
 20
-67
 11
82
 21
-77
  0
LINE
  5
1C4
100
AcDbEntity
  8
Char_Limits
  6
ByLayer
 62
  256
370
   -1
100
AcDbLine
 10
93
 20
-77
 11
103
 21
-77
  0
LINE
  5
1C5
100
AcDbEntity
  8
Char_Limits
  6
ByLayer
 62
  256
370
   -1
100
AcDbLine
 10
103
 20
-77
 11
103
 21
-67
  0
LINE
  5
1C6
100
AcDbEntity
  8
Char_Limits
  6
ByLayer
 62
  256
370
   -1
100
AcDbLine
 10
103
 20
-67
 11
93
 21
-67
  0
LINE
  5
1C7
100
AcDbEntity
  8
Char_Limits
  6
ByLayer
 62
  256
370
   -1
100
AcDbLine
 10
93
 20
-67
 11
93
 21
-77
  0
LINE
  5
1C8
100
AcDbEntity
  8
Char_Limits
  6
ByLayer
 62
  256
370
   -1
100
AcDbLine
 10
104
 20
-77
 11
114
 21
-77
  0
LINE
  5
1C9
100
AcDbEntity
  8
Char_Limits
  6
ByLayer
 62
  256
370
   -1
100
AcDbLine
 10
114
 20
-77
 11
114
 21
-67
  0
LINE
  5
1CA
100
AcDbEntity
  8
Char_Limits
  6
ByLayer
 62
  256
370
   -1
100
AcDbLine
 10
114
 20
-67
 11
104
 21
-67
  0
LINE
  5
1CB
100
AcDbEntity
  8
Char_Limits
  6
ByLayer
 62
  256
370
   -1
100
AcDbLine
 10
104
 20
-67
 11
104
 21
-77
  0
LINE
  5
1CC
100
AcDbEntity
  8
Char_Limits
  6
ByLayer
 62
  256
370
   -1
100
AcDbLine
 10
60
 20
-77
 11
60
 21
-78
  0
LINE
  5
1CD
100
AcDbEntity
  8
Char_Limits
  6
ByLayer
 62
  256
370
   -1
100
AcDbLine
 10
114
 20
-77
 11
114
 21
-78
  0
LINE
  5
1CE
100
AcDbEntity
  8
Char_Limits
  6
ByLayer
 62
  256
370
   -1
100
AcDbLine
 10
60
 20
-88
 11
70
 21
-88
  0
LINE
  5
1CF
100
AcDbEntity
  8
Char_Limits
  6
ByLayer
 62
  256
370
   -1
100
AcDbLine
 10
70
 20
-88
 11
70
 21
-78
  0
LINE
  5
1D0
100
AcDbEntity
  8
Char_Limits
  6
ByLayer
 62
  256
370
   -1
100
AcDbLine
 10
70
 20
-78
 11
60
 21
-78
  0
LINE
  5
1D1
100
AcDbEntity
  8
Char_Limits
  6
ByLayer
 62
  256
370
   -1
100
AcDbLine
 10
60
 20
-78
 11
60
 21
-88
  0
LINE
  5
1D2
100
AcDbEntity
  8
Char_Limits
  6
ByLayer
 62
  256
370
   -1
100
AcDbLine
 10
71
 20
-88
 11
81
 21
-88
  0
LINE
  5
1D3
100
AcDbEntity
  8
Char_Limits
  6
ByLayer
 62
  256
370
   -1
100
AcDbLine
 10
81
 20
-88
 11
81
 21
-78
  0
LINE
  5
1D4
100
AcDbEntity
  8
Char_Limits
  6
ByLayer
 62
  256
370
   -1
100
AcDbLine
 10
81
 20
-78
 11
71
 21
-78
  0
LINE
  5
1D5
100
AcDbEntity
  8
Char_Limits
  6
ByLayer
 62
  256
370
   -1
100
AcDbLine
 10
71
 20
-78
 11
71
 21
-88
  0
LINE
  5
1D6
100
AcDbEntity
  8
Char_Limits
  6
ByLayer
 62
  256
370
   -1
100
AcDbLine
 10
82
 20
-88
 11
92
 21
-88
  0
LINE
  5
1D7
100
AcDbEntity
  8
Char_Limits
  6
ByLayer
 62
  256
370
   -1
100
AcDbLine
 10
92
 20
-88
 11
92
 21
-78
  0
LINE
  5
1D8
100
AcDbEntity
  8
Char_Limits
  6
ByLayer
 62
  256
370
   -1
100
AcDbLine
 10
92
 20
-78
 11
82
 21
-78
  0
LINE
  5
1D9
100
AcDbEntity
  8
Char_Limits
  6
ByLayer
 62
  256
370
   -1
100
AcDbLine
 10
82
 20
-78
 11
82
 21
-88
  0
LINE
  5
1DA
100
AcDbEntity
  8
Char_Limits
  6
ByLayer
 62
  256
370
   -1
100
AcDbLine
 10
93
 20
-88
 11
103
 21
-88
  0
LINE
  5
1DB
100
AcDbEntity
  8
Char_Limits
  6
ByLayer
 62
  256
370
   -1
100
AcDbLine
 10
103
 20
-88
 11
103
 21
-78
  0
LINE
  5
1DC
100
AcDbEntity
  8
Char_Limits
  6
ByLayer
 62
  256
370
   -1
100
AcDbLine
 10
103
 20
-78
 11
93
 21
-78
  0
LINE
  5
1DD
100
AcDbEntity
  8
Char_Limits
  6
ByLayer
 62
  256
370
   -1
100
AcDbLine
 10
93
 20
-78
 11
93
 21
-88
  0
LINE
  5
1DE
100
AcDbEntity
  8
Char_Limits
  6
ByLayer
 62
  256
370
   -1
100
AcDbLine
 10
104
 20
-88
 11
114
 21
-88
  0
LINE
  5
1DF
100
AcDbEntity
  8
Char_Limits
  6
ByLayer
 62
  256
370
   -1
100
AcDbLine
 10
114
 20
-88
 11
114
 21
-78
  0
LINE
  5
1E0
100
AcDbEntity
  8
Char_Limits
  6
ByLayer
 62
  256
370
   -1
100
AcDbLine
 10
114
 20
-78
 11
104
 21
-78
  0
LINE
  5
1E1
100
AcDbEntity
  8
Char_Limits
  6
ByLayer
 62
  256
370
   -1
100
AcDbLine
 10
104
 20
-78
 11
104
 21
-88
  0
LINE
  5
1E2
100
AcDbEntity
  8
Char_Limits
  6
ByLayer
 62
  256
370
   -1
100
AcDbLine
 10
60
 20
-88
 11
60
 21
-89
  0
LINE
  5
1E3
100
AcDbEntity
  8
Char_Limits
  6
ByLayer
 62
  256
370
   -1
100
AcDbLine
 10
114
 20
-88
 11
114
 21
-89
  0
LINE
  5
1E4
100
AcDbEntity
  8
Char_Limits
  6
ByLayer
 62
  256
370
   -1
100
AcDbLine
 10
70
 20
-99
 11
70
 21
-89
  0
LINE
  5
1E5
100
AcDbEntity
  8
Char_Limits
  6
ByLayer
 62
  256
370
   -1
100
AcDbLine
 10
70
 20
-89
 11
60
 21
-89
  0
LINE
  5
1E6
100
AcDbEntity
  8
Char_Limits
  6
ByLayer
 62
  256
370
   -1
100
AcDbLine
 10
60
 20
-89
 11
60
 21
-99
  0
LINE
  5
1E7
100
AcDbEntity
  8
Char_Limits
  6
ByLayer
 62
  256
370
   -1
100
AcDbLine
 10
81
 20
-99
 11
81
 21
-89
  0
LINE
  5
1E8
100
AcDbEntity
  8
Char_Limits
  6
ByLayer
 62
  256
370
   -1
100
AcDbLine
 10
81
 20
-89
 11
71
 21
-89
  0
LINE
  5
1E9
100
AcDbEntity
  8
Char_Limits
  6
ByLayer
 62
  256
370
   -1
100
AcDbLine
 10
71
 20
-89
 11
71
 21
-99
  0
LINE
  5
1EA
100
AcDbEntity
  8
Char_Limits
  6
ByLayer
 62
  256
370
   -1
100
AcDbLine
 10
92
 20
-99
 11
92
 21
-89
  0
LINE
  5
1EB
100
AcDbEntity
  8
Char_Limits
  6
ByLayer
 62
  256
370
   -1
100
AcDbLine
 10
92
 20
-89
 11
82
 21
-89
  0
LINE
  5
1EC
100
AcDbEntity
  8
Char_Limits
  6
ByLayer
 62
  256
370
   -1
100
AcDbLine
 10
82
 20
-89
 11
82
 21
-99
  0
LINE
  5
1ED
100
AcDbEntity
  8
Char_Limits
  6
ByLayer
 62
  256
370
   -1
100
AcDbLine
 10
103
 20
-99
 11
103
 21
-89
  0
LINE
  5
1EE
100
AcDbEntity
  8
Char_Limits
  6
ByLayer
 62
  256
370
   -1
100
AcDbLine
 10
103
 20
-89
 11
93
 21
-89
  0
LINE
  5
1EF
100
AcDbEntity
  8
Char_Limits
  6
ByLayer
 62
  256
370
   -1
100
AcDbLine
 10
93
 20
-89
 11
93
 21
-99
  0
LINE
  5
1F0
100
AcDbEntity
  8
Char_Limits
  6
ByLayer
 62
  256
370
   -1
100
AcDbLine
 10
114
 20
-99
 11
114
 21
-89
  0
LINE
  5
1F1
100
AcDbEntity
  8
Char_Limits
  6
ByLayer
 62
  256
370
   -1
100
AcDbLine
 10
114
 20
-89
 11
104
 21
-89
  0
LINE
  5
1F2
100
AcDbEntity
  8
Char_Limits
  6
ByLayer
 62
  256
370
   -1
100
AcDbLine
 10
104
 20
-89
 11
104
 21
-99
  0
ARC
  5
1F3
100
AcDbEntity
  8
0
  6
ByLayer
 62
  256
370
   -1
100
AcDbCircle
 10
65
 20
10
 40
5
100
AcDbArc
 50
270
 51
0
  0
ARC
  5
1F4
100
AcDbEntity
  8
0
  6
ByLayer
 62
  256
370
   -1
100
AcDbCircle
 10
60
 20
4
 40
4
100
AcDbArc
 50
270
 51
0
  0
LINE
  5
1F5
100
AcDbEntity
  8
0
  6
ByLayer
 62
  256
370
   -1
100
AcDbLine
 10
64
 20
4
 11
64
 21
9
  0
LINE
  5
1F6
100
AcDbEntity
  8
0
  6
ByLayer
 62
  256
370
   -1
100
AcDbLine
 10
70
 20
10
 11
60
 21
10
  0
LINE
  5
1F7
100
AcDbEntity
  8
0
  6
ByLayer
 62
  256
370
   -1
100
AcDbLine
 10
81
 20
10
 11
71
 21
5
  0
LINE
  5
1F8
100
AcDbEntity
  8
0
  6
ByLayer
 62
  256
370
   -1
100
AcDbLine
 10
76
 20
7.5
 11
76
 21
0
  0
LINE
  5
1F9
100
AcDbEntity
  8
0
  6
ByLayer
 62
  256
370
   -1
100
AcDbLine
 10
87
 20
10
 11
87
 21
8
  0
ARC
  5
1FA
100
AcDbEntity
  8
0
  6
ByLayer
 62
  256
370
   -1
100
AcDbCircle
 10
88
 20
4
 40
4
100
AcDbArc
 50
270
 51
450
  0
LINE
  5
1FB
100
AcDbEntity
  8
0
  6
ByLayer
 62
  256
370
   -1
100
AcDbLine
 10
88
 20
0
 11
84
 21
0
  0
ARC
  5
1FC
100
AcDbEntity
  8
0
  6
ByLayer
 62
  256
370
   -1
100
AcDbCircle
 10
85
 20
5
 40
3
100
AcDbArc
 50
90
 51
180
  0
LINE
  5
1FD
100
AcDbEntity
  8
0
  6
ByLayer
 62
  256
370
   -1
100
AcDbLine
 10
85
 20
8
 11
88
 21
8
  0
LINE
  5
1FE
100
AcDbEntity
  8
0
  6
ByLayer
 62
  256
370
   -1
100
AcDbLine
 10
27
 20
10
 11
27
 21
8
  0
ARC
  5
1FF
100
AcDbEntity
  8
0
  6
ByLayer
 62
  256
370
   -1
100
AcDbCircle
 10
28
 20
4
 40
4
100
AcDbArc
 50
270
 51
450
  0
LINE
  5
200
100
AcDbEntity
  8
0
  6
ByLayer
 62
  256
370
   -1
100
AcDbLine
 10
28
 20
0
 11
24
 21
0
  0
ARC
  5
201
100
AcDbEntity
  8
0
  6
ByLayer
 62
  256
370
   -1
100
AcDbCircle
 10
25
 20
5
 40
3
100
AcDbArc
 50
90
 51
180
  0
LINE
  5
202
100
AcDbEntity
  8
0
  6
ByLayer
 62
  256
370
   -1
100
AcDbLine
 10
25
 20
8
 11
28
 21
8
  0
MTEXT
  5
203
100
AcDbEntity
  8
Subtitle
  6
ByLayer
 62
  256
370
   -1
100
AcDbMText
 10
27
 20
5
 30
0
 40
1
 41
4.222222222222269
 71
    5
 72
    1
  1
Unified\PU
  7
standard
210
0
220
0
230
1
 50
0
 73
    2
 44
1
  0
MTEXT
  5
204
100
AcDbEntity
  8
Subtitle
  6
ByLayer
 62
  256
370
   -1
100
AcDbMText
 10
87
 20
5
 30
0
 40
1
 41
4.222222222222269
 71
    5
 72
    1
  1
Unified\PU
  7
standard
210
0
220
0
230
1
 50
0
 73
    2
 44
1
  0
LINE
  5
205
100
AcDbEntity
  8
0
  6
ByLayer
 62
  256
370
   -1
100
AcDbLine
 10
93
 20
10
 11
103
 21
10
  0
LINE
  5
206
100
AcDbEntity
  8
0
  6
ByLayer
 62
  256
370
   -1
100
AcDbLine
 10
93
 20
0
 11
103
 21
0
  0
LINE
  5
207
100
AcDbEntity
  8
0
  6
ByLayer
 62
  256
370
   -1
100
AcDbLine
 10
98
 20
10
 11
98
 21
0
  0
LINE
  5
208
100
AcDbEntity
  8
0
  6
ByLayer
 62
  256
370
   -1
100
AcDbLine
 10
109
 20
10
 11
109
 21
0
  0
LINE
  5
209
100
AcDbEntity
  8
0
  6
ByLayer
 62
  256
370
   -1
100
AcDbLine
 10
104
 20
7
 11
114
 21
7
  0
LINE
  5
20A
100
AcDbEntity
  8
0
  6
ByLayer
 62
  256
370
   -1
100
AcDbLine
 10
109
 20
7
 11
104
 21
0
  0
LINE
  5
20B
100
AcDbEntity
  8
0
  6
ByLayer
 62
  256
370
   -1
100
AcDbLine
 10
62
 20
-1
 11
62
 21
-9
  0
ARC
  5
20C
100
AcDbEntity
  8
0
  6
ByLayer
 62
  256
370
   -1
100
AcDbCircle
 10
60
 20
-9
 40
2
100
AcDbArc
 50
270
 51
359.9999999999999
  0
ARC
  5
20D
100
AcDbEntity
  8
0
  6
ByLayer
 62
  256
370
   -1
100
AcDbCircle
 10
65
 20
-7
 40
5
100
AcDbArc
 50
359.9999999999999
 51
90
  0
LINE
  5
20E
100
AcDbEntity
  8
0
  6
ByLayer
 62
  256
370
   -1
100
AcDbLine
 10
65
 20
-2
 11
63
 21
-2
  0
LINE
  5
20F
100
AcDbEntity
  8
0
  6
ByLayer
 62
  256
370
   -1
100
AcDbLine
 10
70
 20
-7
 11
70
 21
-10
  0
MTEXT
  5
210
100
AcDbEntity
  8
Subtitle
  6
ByLayer
 62
  256
370
   -1
100
AcDbMText
 10
65
 20
-6
 30
0
 40
1
 41
4.222222222222269
 71
    5
 72
    1
  1
Unified\PKa
  7
standard
210
0
220
0
230
1
 50
0
 73
    2
 44
1
  0
ARC
  5
211
100
AcDbEntity
  8
0
  6
ByLayer
 62
  256
370
   -1
100
AcDbCircle
 10
76
 20
-6
 40
5
100
AcDbArc
 50
180
 51
270
  0
LINE
  5
212
100
AcDbEntity
  8
0
  6
ByLayer
 62
  256
370
   -1
100
AcDbLine
 10
75
 20
-1
 11
77
 21
-10
  0
LINE
  5
213
100
AcDbEntity
  8
0
  6
ByLayer
 62
  256
370
   -1
100
AcDbLine
 10
72.63757790381084
 20
-4.198417253088077
 11
78.49470026491454
 21
-2.896834506176135
  0
LINE
  5
214
100
AcDbEntity
  8
0
  6
ByLayer
 62
  256
370
   -1
100
AcDbLine
 10
73.50529973508546
 20
-8.103165493823859
 11
79.36242209618916
 21
-6.801582746911938
  0
MTEXT
  5
215
100
AcDbEntity
  8
Subtitle
  6
ByLayer
 62
  256
370
   -1
100
AcDbMText
 10
76
 20
-6
 30
0
 40
1
 41
4.222222222222269
 71
    5
 72
    1
  1
Unified\PKi
  7
standard
210
0
220
0
230
1
 50
0
 73
    2
 44
1
  0
MTEXT
  5
216
100
AcDbEntity
  8
Subtitle
  6
ByLayer
 62
  256
370
   -1
100
AcDbMText
 10
16
 20
-6
 30
0
 40
1
 41
4.222222222222269
 71
    5
 72
    1
  1
Unified\PKi
  7
standard
210
0
220
0
230
1
 50
0
 73
    2
 44
1
  0
LINE
  5
217
100
AcDbEntity
  8
0
  6
ByLayer
 62
  256
370
   -1
100
AcDbLine
 10
68
 20
-4
 11
68
 21
-11
  0
LINE
  5
218
100
AcDbEntity
  8
0
  6
ByLayer
 62
  256
370
   -1
100
AcDbLine
 10
68
 20
-11
 11
66
 21
-11
  0
LINE
  5
219
100
AcDbEntity
  8
0
  6
ByLayer
 62
  256
370
   -1
100
AcDbLine
 10
68
 20
-4
 11
60
 21
-4
  0
LINE
  5
21A
100
AcDbEntity
  8
0
  6
ByLayer
 62
  256
370
   -1
100
AcDbLine
 10
84
 20
-4
 11
92
 21
-1
  0
ARC
  5
21B
100
AcDbEntity
  8
0
  6
ByLayer
 62
  256
370
   -1
100
AcDbCircle
 10
82
 20
-1
 40
10
100
AcDbArc
 50
270
 51
0
  0
ARC
  5
21C
100
AcDbEntity
  8
0
  6
ByLayer
 62
  256
370
   -1
100
AcDbCircle
 10
82
 20
-5
 40
2
100
AcDbArc
 50
270
 51
0
  0
LINE
  5
21D
100
AcDbEntity
  8
0
  6
ByLayer
 62
  256
370
   -1
100
AcDbLine
 10
84
 20
-1
 11
84
 21
-5
  0
ARC
  5
21E
100
AcDbEntity
  8
0
  6
ByLayer
 62
  256
370
   -1
100
AcDbCircle
 10
93
 20
-5
 40
2
100
AcDbArc
 50
270
 51
0
  0
LINE
  5
21F
100
AcDbEntity
  8
0
  6
ByLayer
 62
  256
370
   -1
100
AcDbLine
 10
95
 20
-1
 11
95
 21
-5
  0
LINE
  5
220
100
AcDbEntity
  8
0
  6
ByLayer
 62
  256
370
   -1
100
AcDbLine
 10
95
 20
-3
 11
103
 21
-3
  0
ARC
  5
221
100
AcDbEntity
  8
0
  6
ByLayer
 62
  256
370
   -1
100
AcDbCircle
 10
93
 20
-5
 40
6
100
AcDbArc
 50
270
 51
0
  0
LINE
  5
222
100
AcDbEntity
  8
0
  6
ByLayer
 62
  256
370
   -1
100
AcDbLine
 10
99
 20
-5
 11
99
 21
-3
  0
LINE
  5
223
100
AcDbEntity
  8
0
  6
ByLayer
 62
  256
370
   -1
100
AcDbLine
 10
65
 20
-12
 11
65
 21
-16
  0
LINE
  5
224
100
AcDbEntity
  8
0
  6
ByLayer
 62
  256
370
   -1
100
AcDbLine
 10
70
 20
-14
 11
63
 21
-14
  0
MTEXT
  5
225
100
AcDbEntity
  8
Subtitle
  6
ByLayer
 62
  256
370
   -1
100
AcDbMText
 10
65
 20
-17
 30
0
 40
1
 41
4.222222222222269
 71
    5
 72
    1
  1
Unified\PSa
  7
standard
210
0
220
0
230
1
 50
0
 73
    2
 44
1
  0
ARC
  5
226
100
AcDbEntity
  8
0
  6
ByLayer
 62
  256
370
   -1
100
AcDbCircle
 10
82
 20
-12
 40
10
100
AcDbArc
 50
270
 51
0
  0
LINE
  5
227
100
AcDbEntity
  8
0
  6
ByLayer
 62
  256
370
   -1
100
AcDbLine
 10
82
 20
-12
 11
92
 21
-12
  0
LINE
  5
228
100
AcDbEntity
  8
0
  6
ByLayer
 62
  256
370
   -1
100
AcDbLine
 10
89.07106781186548
 20
-19.07106781186548
 11
92
 21
-22
  0
LINE
  5
229
100
AcDbEntity
  8
0
  6
ByLayer
 62
  256
370
   -1
100
AcDbLine
 10
103
 20
-12
 11
93
 21
-15
  0
LINE
  5
22A
100
AcDbEntity
  8
0
  6
ByLayer
 62
  256
370
   -1
100
AcDbLine
 10
95
 20
-12
 11
95
 21
-17
  0
LINE
  5
22B
100
AcDbEntity
  8
0
  6
ByLayer
 62
  256
370
   -1
100
AcDbLine
 10
103
 20
-12
 11
100
 21
-15
  0
ARC
  5
22C
100
AcDbEntity
  8
0
  6
ByLayer
 62
  256
370
   -1
100
AcDbCircle
 10
97.5
 20
-19.5
 40
2.5
100
AcDbArc
 50
180.0000000000001
 51
270
  0
LINE
  5
22D
100
AcDbEntity
  8
0
  6
ByLayer
 62
  256
370
   -1
100
AcDbLine
 10
95
 20
-19.50000000000001
 11
95
 21
-17
  0
LINE
  5
22E
100
AcDbEntity
  8
0
  6
ByLayer
 62
  256
370
   -1
100
AcDbLine
 10
97.5
 20
-22
 11
103
 21
-22
  0
LINE
  5
22F
100
AcDbEntity
  8
0
  6
ByLayer
 62
  256
370
   -1
100
AcDbLine
 10
71
 20
-45
 11
71
 21
-50
  0
ARC
  5
230
100
AcDbEntity
  8
0
  6
ByLayer
 62
  256
370
   -1
100
AcDbCircle
 10
73.5
 20
-52.5
 40
2.5
100
AcDbArc
 50
180.0000000000001
 51
270
  0
LINE
  5
231
100
AcDbEntity
  8
0
  6
ByLayer
 62
  256
370
   -1
100
AcDbLine
 10
71
 20
-52.50000000000001
 11
71
 21
-50
  0
LINE
  5
232
100
AcDbEntity
  8
0
  6
ByLayer
 62
  256
370
   -1
100
AcDbLine
 10
73.5
 20
-55
 11
81
 21
-55
  0
LINE
  5
233
100
AcDbEntity
  8
0
  6
ByLayer
 62
  256
370
   -1
100
AcDbLine
 10
71
 20
-48
 11
81
 21
-48
  0
ARC
  5
234
100
AcDbEntity
  8
0
  6
ByLayer
 62
  256
370
   -1
100
AcDbCircle
 10
67.5
 20
-47.5
 40
2.5
100
AcDbArc
 50
0
 51
90
  0
LINE
  5
235
100
AcDbEntity
  8
0
  6
ByLayer
 62
  256
370
   -1
100
AcDbLine
 10
70
 20
-47.5
 11
70
 21
-55
  0
LINE
  5
236
100
AcDbEntity
  8
0
  6
ByLayer
 62
  256
370
   -1
100
AcDbLine
 10
67.5
 20
-45
 11
60
 21
-45
  0
ARC
  5
237
100
AcDbEntity
  8
0
  6
ByLayer
 62
  256
370
   -1
100
AcDbCircle
 10
60
 20
-52.5
 40
2.5
100
AcDbArc
 50
270
 51
0
  0
LINE
  5
238
100
AcDbEntity
  8
0
  6
ByLayer
 62
  256
370
   -1
100
AcDbLine
 10
62.5
 20
-52.5
 11
62.5
 21
-47.5
  0
MTEXT
  5
239
100
AcDbEntity
  8
Subtitle
  6
ByLayer
 62
  256
370
   -1
100
AcDbMText
 10
65
 20
-50
 30
0
 40
1
 41
4.998888888888889
 71
    5
 72
    1
  1
Ha\P(Hebrew\PHa)
  7
unicode
210
0
220
0
230
1
 50
0
 73
    2
 44
1
  0
ARC
  5
23A
100
AcDbEntity
  8
0
  6
ByLayer
 62
  256
370
   -1
100
AcDbCircle
 10
82
 20
-45
 40
10
100
AcDbArc
 50
270
 51
0
  0
LINE
  5
23B
100
AcDbEntity
  8
0
  6
ByLayer
 62
  256
370
   -1
100
AcDbLine
 10
82
 20
-45
 11
92
 21
-45
  0
LINE
  5
23C
100
AcDbEntity
  8
0
  6
ByLayer
 62
  256
370
   -1
100
AcDbLine
 10
103
 20
-55
 11
98
 21
-45
  0
LINE
  5
23D
100
AcDbEntity
  8
0
  6
ByLayer
 62
  256
370
   -1
100
AcDbLine
 10
98
 20
-45
 11
93
 21
-49
  0
MTEXT
  5
23E
100
AcDbEntity
  8
Subtitle
  6
ByLayer
 62
  256
370
   -1
100
AcDbMText
 10
98
 20
-50
 30
0
 40
1
 41
4.222222222222221
 71
    5
 72
    1
  1
Unified\PHe
  7
unicode
210
0
220
0
230
1
 50
0
 73
    2
 44
1
  0
LINE
  5
23F
100
AcDbEntity
  8
0
  6
ByLayer
 62
  256
370
   -1
100
AcDbLine
 10
43
 20
-55
 11
38
 21
-45
  0
LINE
  5
240
100
AcDbEntity
  8
0
  6
ByLayer
 62
  256
370
   -1
100
AcDbLine
 10
38
 20
-45
 11
33
 21
-49
  0
MTEXT
  5
241
100
AcDbEntity
  8
Subtitle
  6
ByLayer
 62
  256
370
   -1
100
AcDbMText
 10
38
 20
-50
 30
0
 40
1
 41
4.222222222222221
 71
    5
 72
    1
  1
Unified\PHe
  7
unicode
210
0
220
0
230
1
 50
0
 73
    2
 44
1
  0
LINE
  5
242
100
AcDbEntity
  8
0
  6
ByLayer
 62
  256
370
   -1
100
AcDbLine
 10
44
 20
-12
 11
54
 21
-12
  0
LINE
  5
243
100
AcDbEntity
  8
0
  6
ByLayer
 62
  256
370
   -1
100
AcDbLine
 10
54
 20
-12
 11
44
 21
-22
  0
LINE
  5
244
100
AcDbEntity
  8
0
  6
ByLayer
 62
  256
370
   -1
100
AcDbLine
 10
44
 20
-22
 11
54
 21
-22
  0
MTEXT
  5
245
100
AcDbEntity
  8
Subtitle
  6
ByLayer
 62
  256
370
   -1
100
AcDbMText
 10
49
 20
-17
 30
0
 40
1
 41
4.11
 71
    5
 72
    1
  1
So\P(Coptic\PZeta)
  7
unicode
210
0
220
0
230
1
 50
0
 73
    2
 44
1
  0
LINE
  5
246
100
AcDbEntity
  8
0
  6
ByLayer
 62
  256
370
   -1
100
AcDbLine
 10
104
 20
-22
 11
114
 21
-12
  0
LINE
  5
247
100
AcDbEntity
  8
0
  6
ByLayer
 62
  256
370
   -1
100
AcDbLine
 10
104
 20
-12
 11
104
 21
-16
  0
LINE
  5
248
100
AcDbEntity
  8
0
  6
ByLayer
 62
  256
370
   -1
100
AcDbLine
 10
114
 20
-12
 11
112
 21
-12
  0
MTEXT
  5
249
100
AcDbEntity
  8
Subtitle
  6
ByLayer
 62
  256
370
   -1
100
AcDbMText
 10
109
 20
-17
 30
0
 40
1
 41
1.334134290444941
 71
    5
 72
    1
  1
So
  7
unicode
210
0
220
0
230
1
 50
0
 73
    2
 44
1
  0
LINE
  5
24A
100
AcDbEntity
  8
0
  6
ByLayer
 62
  256
370
   -1
100
AcDbLine
 10
81
 20
-12
 11
71
 21
-22
  0
LINE
  5
24B
100
AcDbEntity
  8
0
  6
ByLayer
 62
  256
370
   -1
100
AcDbLine
 10
71
 20
-12
 11
75
 21
-12
  0
LINE
  5
24C
100
AcDbEntity
  8
0
  6
ByLayer
 62
  256
370
   -1
100
AcDbLine
 10
71
 20
-15
 11
75
 21
-15
  0
LINE
  5
24D
100
AcDbEntity
  8
0
  6
ByLayer
 62
  256
370
   -1
100
AcDbLine
 10
71
 20
-22
 11
71
 21
-20
  0
LINE
  5
24E
100
AcDbEntity
  8
0
  6
ByLayer
 62
  256
370
   -1
100
AcDbLine
 10
82
 20
-33
 11
92
 21
-23
  0
LINE
  5
24F
100
AcDbEntity
  8
0
  6
ByLayer
 62
  256
370
   -1
100
AcDbLine
 10
82
 20
-23
 11
82
 21
-27
  0
LINE
  5
250
100
AcDbEntity
  8
0
  6
ByLayer
 62
  256
370
   -1
100
AcDbLine
 10
85
 20
-23
 11
85
 21
-27
  0
MTEXT
  5
251
100
AcDbEntity
  8
Subtitle
  6
ByLayer
 62
  256
370
   -1
100
AcDbMText
 10
87
 20
-28
 30
0
 40
1
 41
2.111444669309344
 71
    5
 72
    1
  1
Tsu
  7
unicode
210
0
220
0
230
1
 50
0
 73
    2
 44
1
  0
LINE
  5
252
100
AcDbEntity
  8
0
  6
ByLayer
 62
  256
370
   -1
100
AcDbLine
 10
92
 20
-23
 11
90
 21
-23
  0
ARC
  5
253
100
AcDbEntity
  8
0
  6
ByLayer
 62
  256
370
   -1
100
AcDbCircle
 10
60
 20
-27
 40
2
100
AcDbArc
 50
270
 51
0
  0
LINE
  5
254
100
AcDbEntity
  8
0
  6
ByLayer
 62
  256
370
   -1
100
AcDbLine
 10
62
 20
-23
 11
62
 21
-27
  0
LINE
  5
255
100
AcDbEntity
  8
0
  6
ByLayer
 62
  256
370
   -1
100
AcDbLine
 10
62
 20
-25
 11
70
 21
-25
  0
LINE
  5
256
100
AcDbEntity
  8
0
  6
ByLayer
 62
  256
370
   -1
100
AcDbLine
 10
62
 20
-27
 11
66.97593423707492
 21
-30.7319506778062
  0
ELLIPSE
  5
257
100
AcDbEntity
  8
0
  6
ByLayer
 62
  256
370
   -1
100
AcDbEllipse
 10
60
 20
-25
 30
0
 11
10
 21
0
 31
0
 40
0.8
 41
4.712388980384691
 42
0
  0
ARC
  5
258
100
AcDbEntity
  8
0
  6
ByLayer
 62
  256
370
   -1
100
AcDbCircle
 10
71
 20
-28.00000000000001
 40
5
100
AcDbArc
 50
270
 51
1.017777498068325e-13
  0
LINE
  5
259
100
AcDbEntity
  8
0
  6
ByLayer
 62
  256
370
   -1
100
AcDbLine
 10
71
 20
-27
 11
81
 21
-27
  0
ELLIPSE
  5
25A
100
AcDbEntity
  8
0
  6
ByLayer
 62
  256
370
   -1
100
AcDbEllipse
 10
71
 20
-23
 30
0
 11
10
 21
0
 31
0
 40
0.2
 41
4.71238898038469
 42
0
  0
LINE
  5
25B
100
AcDbEntity
  8
0
  6
ByLayer
 62
  256
370
   -1
100
AcDbLine
 10
76
 20
-24.73205080756859
 11
76
 21
-28
  0
ARC
  5
25C
100
AcDbEntity
  8
0
  6
ByLayer
 62
  256
370
   -1
100
AcDbCircle
 10
93
 20
-28.00000000000001
 40
5
100
AcDbArc
 50
270
 51
1.017777498068325e-13
  0
LINE
  5
25D
100
AcDbEntity
  8
0
  6
ByLayer
 62
  256
370
   -1
100
AcDbLine
 10
93
 20
-27
 11
103
 21
-27
  0
LINE
  5
25E
100
AcDbEntity
  8
0
  6
ByLayer
 62
  256
370
   -1
100
AcDbLine
 10
95
 20
-25
 11
101
 21
-25
  0
LINE
  5
25F
100
AcDbEntity
  8
0
  6
ByLayer
 62
  256
370
   -1
100
AcDbLine
 10
98
 20
-27
 11
98
 21
-28
  0
LINE
  5
260
100
AcDbEntity
  8
0
  6
ByLayer
 62
  256
370
   -1
100
AcDbLine
 10
104
 20
-23
 11
104
 21
-33
  0
LINE
  5
261
100
AcDbEntity
  8
0
  6
ByLayer
 62
  256
370
   -1
100
AcDbLine
 10
114
 20
-33
 11
104
 21
-28
  0
LINE
  5
262
100
AcDbEntity
  8
0
  6
ByLayer
 62
  256
370
   -1
100
AcDbLine
 10
104
 20
-48
 11
114
 21
-48
  0
LINE
  5
263
100
AcDbEntity
  8
0
  6
ByLayer
 62
  256
370
   -1
100
AcDbLine
 10
109
 20
-45
 11
109
 21
-55
  0
LINE
  5
264
100
AcDbEntity
  8
0
  6
ByLayer
 62
  256
370
   -1
100
AcDbLine
 10
104
 20
-55
 11
107
 21
-50
  0
LINE
  5
265
100
AcDbEntity
  8
0
  6
ByLayer
 62
  256
370
   -1
100
AcDbLine
 10
114
 20
-55
 11
111
 21
-50
  0
LINE
  5
266
100
AcDbEntity
  8
0
  6
ByLayer
 62
  256
370
   -1
100
AcDbLine
 10
0
 20
-37
 11
10
 21
-37
  0
ARC
  5
267
100
AcDbEntity
  8
0
  6
ByLayer
 62
  256
370
   -1
100
AcDbCircle
 10
0
 20
-39.00000000000001
 40
5
100
AcDbArc
 50
270
 51
1.017777498068325e-13
  0
LINE
  5
268
100
AcDbEntity
  8
0
  6
ByLayer
 62
  256
370
   -1
100
AcDbLine
 10
5.000000000000014
 20
-34
 11
5
 21
-39
  0
ARC
  5
269
100
AcDbEntity
  8
0
  6
ByLayer
 62
  256
370
   -1
100
AcDbCircle
 10
82
 20
-34
 40
10
100
AcDbArc
 50
270
 51
0
  0
LINE
  5
26A
100
AcDbEntity
  8
0
  6
ByLayer
 62
  256
370
   -1
100
AcDbLine
 10
82
 20
-34
 11
92
 21
-34
  0
LINE
  5
26B
100
AcDbEntity
  8
0
  6
ByLayer
 62
  256
370
   -1
100
AcDbLine
 10
87
 20
-39
 11
92
 21
-44
  0
LINE
  5
26C
100
AcDbEntity
  8
0
  6
ByLayer
 62
  256
370
   -1
100
AcDbLine
 10
104
 20
-44
 11
114
 21
-34
  0
LINE
  5
26D
100
AcDbEntity
  8
0
  6
ByLayer
 62
  256
370
   -1
100
AcDbLine
 10
114
 20
-34
 11
112
 21
-34
  0
LINE
  5
26E
100
AcDbEntity
  8
0
  6
ByLayer
 62
  256
370
   -1
100
AcDbLine
 10
16.63757790381084
 20
-1
 11
18.63757790381084
 21
-10
  0
LINE
  5
26F
100
AcDbEntity
  8
0
  6
ByLayer
 62
  256
370
   -1
100
AcDbLine
 10
14.27515580762168
 20
-4.198417253088077
 11
20.13227816872538
 21
-2.896834506176135
  0
LINE
  5
270
100
AcDbEntity
  8
0
  6
ByLayer
 62
  256
370
   -1
100
AcDbLine
 10
15.1428776388963
 20
-8.103165493823859
 11
21
 21
-6.801582746911938
  0
ELLIPSE
  5
271
100
AcDbEntity
  8
0
  6
ByLayer
 62
  256
370
   -1
100
AcDbEllipse
 10
21
 20
-6
 30
0
 11
10
 21
0
 31
0
 40
0.5
 41
3.141592653589793
 42
4.71238898038469
  0
ELLIPSE
  5
272
100
AcDbEntity
  8
0
  6
ByLayer
 62
  256
370
   -1
100
AcDbEllipse
 10
64
 20
-13
 30
0
 11
0
 21
-9
 31
0
 40
0.4444444444444444
 41
4.823729994725655
 42
1.570796326794897
  0
LINE
  5
273
100
AcDbEntity
  8
0
  6
ByLayer
 62
  256
370
   -1
100
AcDbLine
 10
5
 20
-12
 11
5
 21
-16
  0
LINE
  5
274
100
AcDbEntity
  8
0
  6
ByLayer
 62
  256
370
   -1
100
AcDbLine
 10
10
 20
-14
 11
3
 21
-14
  0
MTEXT
  5
275
100
AcDbEntity
  8
Subtitle
  6
ByLayer
 62
  256
370
   -1
100
AcDbMText
 10
5
 20
-17
 30
0
 40
1
 41
4.222222222222269
 71
    5
 72
    1
  1
Unified\PSa
  7
standard
210
0
220
0
230
1
 50
0
 73
    2
 44
1
  0
ELLIPSE
  5
276
100
AcDbEntity
  8
0
  6
ByLayer
 62
  256
370
   -1
100
AcDbEllipse
 10
4
 20
-13
 30
0
 11
0
 21
-9
 31
0
 40
0.4444444444444444
 41
4.823729994725655
 42
1.570796326794897
  0
LINE
  5
277
100
AcDbEntity
  8
0
  6
ByLayer
 62
  256
370
   -1
100
AcDbLine
 10
93
 20
-36
 11
103
 21
-36
  0
ELLIPSE
  5
278
100
AcDbEntity
  8
0
  6
ByLayer
 62
  256
370
   -1
100
AcDbEllipse
 10
93
 20
-36
 30
0
 11
10
 21
0
 31
0
 40
0.5
 41
4.71238898038469
 42
0
  0
LINE
  5
279
100
AcDbEntity
  8
0
  6
ByLayer
 62
  256
370
   -1
100
AcDbLine
 10
103
 20
-41.5
 11
99.55336798983294
 21
-39.77668399491647
  0
LINE
  5
27A
100
AcDbEntity
  8
0
  6
ByLayer
 62
  256
370
   -1
100
AcDbLine
 10
96
 20
-34
 11
100
 21
-36
  0
LINE
  5
27B
100
AcDbEntity
  8
0
  6
ByLayer
 62
  256
370
   -1
100
AcDbLine
 10
98
 20
-44
 11
98
 21
-40.33012701892221
  0
LINE
  5
27C
100
AcDbEntity
  8
0
  6
ByLayer
 62
  256
370
   -1
100
AcDbLine
 10
60
 20
-56
 11
70
 21
-56
  0
LINE
  5
27D
100
AcDbEntity
  8
0
  6
ByLayer
 62
  256
370
   -1
100
AcDbLine
 10
65
 20
-61
 11
70
 21
-66
  0
ARC
  5
27E
100
AcDbEntity
  8
0
  6
ByLayer
 62
  256
370
   -1
100
AcDbCircle
 10
60
 20
-56
 40
10
100
AcDbArc
 50
315
 51
0
  0
ARC
  5
27F
100
AcDbEntity
  8
0
  6
ByLayer
 62
  256
370
   -1
100
AcDbCircle
 10
51.5
 20
-63.5
 40
2.5
100
AcDbArc
 50
270
 51
359.9999999999999
  0
ARC
  5
280
100
AcDbEntity
  8
0
  6
ByLayer
 62
  256
370
   -1
100
AcDbCircle
 10
49.5
 20
-63.5
 40
2.5
100
AcDbArc
 50
180.0000000000001
 51
270
  0
LINE
  5
281
100
AcDbEntity
  8
0
  6
ByLayer
 62
  256
370
   -1
100
AcDbLine
 10
47
 20
-63.50000000000001
 11
47
 21
-56
  0
LINE
  5
282
100
AcDbEntity
  8
0
  6
ByLayer
 62
  256
370
   -1
100
AcDbLine
 10
49.5
 20
-66
 11
51.5
 21
-66
  0
MTEXT
  5
283
100
AcDbEntity
  8
Subtitle
  6
ByLayer
 62
  256
370
   -1
100
AcDbMText
 10
49
 20
-61
 30
0
 40
1
 41
4.222222222222269
 71
    5
 72
    1
  1
Unified\PMo
  7
standard
210
0
220
0
230
1
 50
0
 73
    2
 44
1
  0
LINE
  5
284
100
AcDbEntity
  8
0
  6
ByLayer
 62
  256
370
   -1
100
AcDbLine
 10
62.5
 20
-67
 11
67.5
 21
-77
  0
ARC
  5
285
100
AcDbEntity
  8
0
  6
ByLayer
 62
  256
370
   -1
100
AcDbCircle
 10
68.5
 20
-68.5
 40
1.5
100
AcDbArc
 50
296.565051177078
 51
116.565051177078
  0
LINE
  5
286
100
AcDbEntity
  8
0
  6
ByLayer
 62
  256
370
   -1
100
AcDbLine
 10
64.97082039324991
 20
-67.46950483150029
 11
65.8652475842498
 21
-69.25835921350006
  0
LINE
  5
287
100
AcDbEntity
  8
0
  6
ByLayer
 62
  256
370
   -1
100
AcDbLine
 10
59.99999999999999
 20
-71.0729490168751
 11
67.82917871114873
 21
-67.15835966130074
  0
MTEXT
  5
288
100
AcDbEntity
  8
Subtitle
  6
ByLayer
 62
  256
370
   -1
100
AcDbMText
 10
65
 20
-72
 30
0
 40
1
 41
4.222222222222269
 71
    5
 72
    1
  1
Unified\PYa
  7
standard
210
0
220
0
230
1
 50
0
 73
    2
 44
1
  0
LINE
  5
289
100
AcDbEntity
  8
0
  6
ByLayer
 62
  256
370
   -1
100
AcDbLine
 10
2.5
 20
-67
 11
7.5
 21
-77
  0
ARC
  5
28A
100
AcDbEntity
  8
0
  6
ByLayer
 62
  256
370
   -1
100
AcDbCircle
 10
8.5
 20
-68.5
 40
1.5
100
AcDbArc
 50
296.565051177078
 51
116.565051177078
  0
LINE
  5
28B
100
AcDbEntity
  8
0
  6
ByLayer
 62
  256
370
   -1
100
AcDbLine
 10
4.970820393249909
 20
-67.46950483150029
 11
5.865247584249801
 21
-69.25835921350006
  0
LINE
  5
28C
100
AcDbEntity
  8
0
  6
ByLayer
 62
  256
370
   -1
100
AcDbLine
 10
-7.105427357601002e-15
 20
-71.0729490168751
 11
7.829178711148728
 21
-67.15835966130074
  0
MTEXT
  5
28D
100
AcDbEntity
  8
Subtitle
  6
ByLayer
 62
  256
370
   -1
100
AcDbMText
 10
5
 20
-72
 30
0
 40
1
 41
4.222222222222269
 71
    5
 72
    1
  1
Unified\PYa
  7
standard
210
0
220
0
230
1
 50
0
 73
    2
 44
1
  0
LINE
  5
28E
100
AcDbEntity
  8
0
  6
ByLayer
 62
  256
370
   -1
100
AcDbLine
 10
22
 20
-67
 11
22
 21
-77
  0
ELLIPSE
  5
28F
100
AcDbEntity
  8
0
  6
ByLayer
 62
  256
370
   -1
100
AcDbEllipse
 10
29.5
 20
-72
 30
0
 11
0
 21
5
 31
0
 40
0.5
 41
0
 42
6.283185307179586
  0
LINE
  5
290
100
AcDbEntity
  8
0
  6
ByLayer
 62
  256
370
   -1
100
AcDbLine
 10
22
 20
-70
 11
27.20871215252221
 21
-70
  0
LINE
  5
291
100
AcDbEntity
  8
0
  6
ByLayer
 62
  256
370
   -1
100
AcDbLine
 10
22
 20
-74
 11
27.20871215252233
 21
-74
  0
MTEXT
  5
292
100
AcDbEntity
  8
Subtitle
  6
ByLayer
 62
  256
370
   -1
100
AcDbMText
 10
27
 20
-72
 30
0
 40
1
 41
6.08333955620401
 71
    5
 72
    1
  1
Yu\P(Russian\P& Korean\PHangul)
  7
standard
210
0
220
0
230
1
 50
0
 73
    2
 44
1
  0
LINE
  5
293
100
AcDbEntity
  8
0
  6
ByLayer
 62
  256
370
   -1
100
AcDbLine
 10
104
 20
-72
 11
111.4999983244381
 21
-72.00000000000001
  0
LINE
  5
294
100
AcDbEntity
  8
0
  6
ByLayer
 62
  256
370
   -1
100
AcDbLine
 10
82
 20
-67
 11
92
 21
-67
  0
LINE
  5
295
100
AcDbEntity
  8
0
  6
ByLayer
 62
  256
370
   -1
100
AcDbLine
 10
82
 20
-77
 11
92
 21
-77
  0
ELLIPSE
  5
296
100
AcDbEntity
  8
0
  6
ByLayer
 62
  256
370
   -1
100
AcDbEllipse
 10
87
 20
-67
 30
0
 11
0
 21
-10
 31
0
 40
0.5
 41
4.440892098500626e-16
 42
1.570796326794895
  0
LINE
  5
297
100
AcDbEntity
  8
0
  6
ByLayer
 62
  256
370
   -1
100
AcDbLine
 10
71
 20
-77
 11
81
 21
-72
  0
LINE
  5
298
100
AcDbEntity
  8
0
  6
ByLayer
 62
  256
370
   -1
100
AcDbLine
 10
76
 20
-74.5
 11
76
 21
-67
  0
LINE
  5
299
100
AcDbEntity
  8
0
  6
ByLayer
 62
  256
370
   -1
100
AcDbLine
 10
103
 20
-67
 11
93
 21
-72
  0
LINE
  5
29A
100
AcDbEntity
  8
0
  6
ByLayer
 62
  256
370
   -1
100
AcDbLine
 10
98
 20
-69.5
 11
98
 21
-77
  0
LINE
  5
29B
100
AcDbEntity
  8
0
  6
ByLayer
 62
  256
370
   -1
100
AcDbLine
 10
93
 20
-77
 11
103
 21
-77
  0
ELLIPSE
  5
29C
100
AcDbEntity
  8
0
  6
ByLayer
 62
  256
370
   -1
100
AcDbEllipse
 10
71
 20
-83
 30
0
 11
10
 21
0
 31
0
 40
0.5
 41
4.71238898038469
 42
0
  0
LINE
  5
29D
100
AcDbEntity
  8
0
  6
ByLayer
 62
  256
370
   -1
100
AcDbLine
 10
81
 20
-78
 11
81
 21
-83
  0
LINE
  5
29E
100
AcDbEntity
  8
0
  6
ByLayer
 62
  256
370
   -1
100
AcDbLine
 10
71
 20
-78
 11
71
 21
-85
  0
LINE
  5
29F
100
AcDbEntity
  8
0
  6
ByLayer
 62
  256
370
   -1
100
AcDbLine
 10
71
 20
-85
 11
73
 21
-83
  0
LINE
  5
2A0
100
AcDbEntity
  8
0
  6
ByLayer
 62
  256
370
   -1
100
AcDbLine
 10
114
 20
-88
 11
104
 21
-88
  0
LINE
  5
2A1
100
AcDbEntity
  8
0
  6
ByLayer
 62
  256
370
   -1
100
AcDbLine
 10
104
 20
-88
 11
104
 21
-78
  0
LINE
  5
2A2
100
AcDbEntity
  8
0
  6
ByLayer
 62
  256
370
   -1
100
AcDbLine
 10
104
 20
-78
 11
114
 21
-78
  0
LINE
  5
2A3
100
AcDbEntity
  8
0
  6
ByLayer
 62
  256
370
   -1
100
AcDbLine
 10
114
 20
-78
 11
114
 21
-88
  0
LINE
  5
2A4
100
AcDbEntity
  8
0
  6
ByLayer
 62
  256
370
   -1
100
AcDbLine
 10
93
 20
-78
 11
93
 21
-88
  0
ELLIPSE
  5
2A5
100
AcDbEntity
  8
0
  6
ByLayer
 62
  256
370
   -1
100
AcDbEllipse
 10
103
 20
-88
 30
0
 11
-10
 21
0
 31
0
 40
0.5
 41
4.71238898038469
 42
0
  0
ARC
  5
2A6
100
AcDbEntity
  8
0
  6
ByLayer
 62
  256
370
   -1
100
AcDbCircle
 10
82
 20
-83
 40
5
100
AcDbArc
 50
270
 51
359.9999884507734
  0
LINE
  5
2A7
100
AcDbEntity
  8
0
  6
ByLayer
 62
  256
370
   -1
100
AcDbLine
 10
86
 20
-78
 11
88
 21
-78
  0
LINE
  5
2A8
100
AcDbEntity
  8
0
  6
ByLayer
 62
  256
370
   -1
100
AcDbLine
 10
87
 20
-79
 11
87
 21
-83
  0
ARC
  5
2A9
100
AcDbEntity
  8
0
  6
ByLayer
 62
  256
370
   -1
100
AcDbCircle
 10
60
 20
-89
 40
10
100
AcDbArc
 50
270
 51
0
  0
LINE
  5
2AA
100
AcDbEntity
  8
0
  6
ByLayer
 62
  256
370
   -1
100
AcDbLine
 10
70
 20
-89
 11
60
 21
-89
  0
LINE
  5
2AB
100
AcDbEntity
  8
0
  6
ByLayer
 62
  256
370
   -1
100
AcDbLine
 10
60
 20
-89
 11
60
 21
-94
  0
ARC
  5
2AC
100
AcDbEntity
  8
0
  6
ByLayer
 62
  256
370
   -1
100
AcDbCircle
 10
104
 20
-89
 40
10
100
AcDbArc
 50
270
 51
0
  0
LINE
  5
2AD
100
AcDbEntity
  8
0
  6
ByLayer
 62
  256
370
   -1
100
AcDbLine
 10
114
 20
-89
 11
104
 21
-89
  0
LINE
  5
2AE
100
AcDbEntity
  8
0
  6
ByLayer
 62
  256
370
   -1
100
AcDbLine
 10
104
 20
-94
 11
112.6602540378443
 21
-94.00000000000001
  0
LINE
  5
2AF
100
AcDbEntity
  8
0
  6
ByLayer
 62
  256
370
   -1
100
AcDbLine
 10
82
 20
-94
 11
92
 21
-94
  0
LINE
  5
2B0
100
AcDbEntity
  8
0
  6
ByLayer
 62
  256
370
   -1
100
AcDbLine
 10
87
 20
-89
 11
87
 21
-99
  0
LINE
  5
2B1
100
AcDbEntity
  8
0
  6
ByLayer
 62
  256
370
   -1
100
AcDbLine
 10
87
 20
-99
 11
85
 21
-97
  0
LINE
  5
2B2
100
AcDbEntity
  8
0
  6
ByLayer
 62
  256
370
   -1
100
AcDbLine
 10
85
 20
-89
 11
89
 21
-89
  0
LINE
  5
2B3
100
AcDbEntity
  8
0
  6
ByLayer
 62
  256
370
   -1
100
AcDbLine
 10
71
 20
-96
 11
81
 21
-96
  0
LINE
  5
2B4
100
AcDbEntity
  8
0
  6
ByLayer
 62
  256
370
   -1
100
AcDbLine
 10
78
 20
-99
 11
78
 21
-89
  0
LINE
  5
2B5
100
AcDbEntity
  8
0
  6
ByLayer
 62
  256
370
   -1
100
AcDbLine
 10
79
 20
-92
 11
73
 21
-92
  0
LINE
  5
2B6
100
AcDbEntity
  8
0
  6
ByLayer
 62
  256
370
   -1
100
AcDbLine
 10
74
 20
-92
 11
74
 21
-96
  0
ARC
  5
2B7
100
AcDbEntity
  8
0
  6
ByLayer
 62
  256
370
   -1
100
AcDbCircle
 10
46
 20
2
 40
2
100
AcDbArc
 50
90
 51
270
  0
ARC
  5
2B8
100
AcDbEntity
  8
0
  6
ByLayer
 62
  256
370
   -1
100
AcDbCircle
 10
52
 20
2
 40
2
100
AcDbArc
 50
270
 51
450
  0
LINE
  5
2B9
100
AcDbEntity
  8
0
  6
ByLayer
 62
  256
370
   -1
100
AcDbLine
 10
46
 20
4
 11
52
 21
4
  0
LINE
  5
2BA
100
AcDbEntity
  8
0
  6
ByLayer
 62
  256
370
   -1
100
AcDbLine
 10
48
 20
10
 11
48
 21
0
  0
LINE
  5
2BB
100
AcDbEntity
  8
0
  6
ByLayer
 62
  256
370
   -1
100
AcDbLine
 10
48
 20
0
 11
46
 21
0
  0
LINE
  5
2BC
100
AcDbEntity
  8
0
  6
ByLayer
 62
  256
370
   -1
100
AcDbLine
 10
2
 20
-1
 11
2
 21
-9
  0
ARC
  5
2BD
100
AcDbEntity
  8
0
  6
ByLayer
 62
  256
370
   -1
100
AcDbCircle
 10
0
 20
-9
 40
2
100
AcDbArc
 50
270
 51
359.9999999999999
  0
ARC
  5
2BE
100
AcDbEntity
  8
0
  6
ByLayer
 62
  256
370
   -1
100
AcDbCircle
 10
5
 20
-7
 40
5
100
AcDbArc
 50
359.9999999999999
 51
90
  0
LINE
  5
2BF
100
AcDbEntity
  8
0
  6
ByLayer
 62
  256
370
   -1
100
AcDbLine
 10
5
 20
-2
 11
3
 21
-2
  0
LINE
  5
2C0
100
AcDbEntity
  8
0
  6
ByLayer
 62
  256
370
   -1
100
AcDbLine
 10
10
 20
-7
 11
10
 21
-10
  0
MTEXT
  5
2C1
100
AcDbEntity
  8
Subtitle
  6
ByLayer
 62
  256
370
   -1
100
AcDbMText
 10
5
 20
-6
 30
0
 40
1
 41
4.222222222222269
 71
    5
 72
    1
  1
Unified\PKa
  7
standard
210
0
220
0
230
1
 50
0
 73
    2
 44
1
  0
LINE
  5
2C2
100
AcDbEntity
  8
0
  6
ByLayer
 62
  256
370
   -1
100
AcDbLine
 10
8
 20
-4
 11
8
 21
-11
  0
LINE
  5
2C3
100
AcDbEntity
  8
0
  6
ByLayer
 62
  256
370
   -1
100
AcDbLine
 10
8
 20
-11
 11
6
 21
-11
  0
LINE
  5
2C4
100
AcDbEntity
  8
0
  6
ByLayer
 62
  256
370
   -1
100
AcDbLine
 10
8
 20
-4
 11
0
 21
-4
  0
ELLIPSE
  5
2C5
100
AcDbEntity
  8
0
  6
ByLayer
 62
  256
370
   -1
100
AcDbEllipse
 10
49
 20
-3.5
 30
0
 11
-5
 21
0
 31
0
 40
0.5
 41
3.141592573754642
 42
7.983515182274914e-08
  0
ELLIPSE
  5
2C6
100
AcDbEntity
  8
0
  6
ByLayer
 62
  256
370
   -1
100
AcDbEllipse
 10
49
 20
-8.5
 30
0
 11
-5
 21
0
 31
0
 40
0.5
 41
5.9050532019711e-08
 42
3.141592594539261
  0
MTEXT
  5
2C7
100
AcDbEntity
  8
Subtitle
  6
ByLayer
 62
  256
370
   -1
100
AcDbMText
 10
109
 20
-72
 30
0
 40
1
 41
8.86111088888889
 71
    5
 72
    1
  1
Yo\P(Cyrillic -like)
  7
standard
210
0
220
0
230
1
 50
0
 73
    2
 44
1
  0
ELLIPSE
  5
2C8
100
AcDbEntity
  8
0
  6
ByLayer
 62
  256
370
   -1
100
AcDbEllipse
 10
18.5
 20
5
 30
0
 11
0
 21
-5
 31
0
 40
0.5
 41
5.905053246380021e-08
 42
3.141592594539262
  0
ELLIPSE
  5
2C9
100
AcDbEntity
  8
0
  6
ByLayer
 62
  256
370
   -1
100
AcDbEllipse
 10
13.5
 20
5
 30
0
 11
0
 21
-5
 31
0
 40
0.5
 41
3.141592712640325
 42
6.283185248129055
  0
LINE
  5
2CA
100
AcDbEntity
  8
0
  6
ByLayer
 62
  256
370
   -1
100
AcDbLine
 10
13.49999985237367
 20
8.881784197001252e-15
 11
18.50000014762633
 21
9.999999999999991
  0
MTEXT
  5
2CB
100
AcDbEntity
  8
Subtitle
  6
ByLayer
 62
  256
370
   -1
100
AcDbMText
 10
16
 20
5
 30
0
 40
1
 41
8.86111088888889
 71
    5
 72
    1
  1
I\P(Cyrillic -like)
  7
standard
210
0
220
0
230
1
 50
0
 73
    2
 44
1
  0
ARC
  5
2CC
100
AcDbEntity
  8
0
  6
ByLayer
 62
  256
370
   -1
100
AcDbCircle
 10
13.5
 20
-19.5
 40
2.5
100
AcDbArc
 50
180
 51
270.0000000000001
  0
ARC
  5
2CD
100
AcDbEntity
  8
0
  6
ByLayer
 62
  256
370
   -1
100
AcDbCircle
 10
18.5
 20
-19.5
 40
2.5
100
AcDbArc
 50
270
 51
0
  0
LINE
  5
2CE
100
AcDbEntity
  8
0
  6
ByLayer
 62
  256
370
   -1
100
AcDbLine
 10
21
 20
-19.5
 11
21
 21
-17
  0
LINE
  5
2CF
100
AcDbEntity
  8
0
  6
ByLayer
 62
  256
370
   -1
100
AcDbLine
 10
11
 20
-12
 11
11
 21
-19.5
  0
LINE
  5
2D0
100
AcDbEntity
  8
0
  6
ByLayer
 62
  256
370
   -1
100
AcDbLine
 10
13.5
 20
-22
 11
18.5
 21
-22
  0
MTEXT
  5
2D1
100
AcDbEntity
  8
Subtitle
  6
ByLayer
 62
  256
370
   -1
100
AcDbMText
 10
98
 20
-17
 30
0
 40
1
 41
4.222222222222269
 71
    5
 72
    1
  1
Unified\PSe
  7
standard
210
0
220
0
230
1
 50
0
 73
    2
 44
1
  0
LINE
  5
2D2
100
AcDbEntity
  8
0
  6
ByLayer
 62
  256
370
   -1
100
AcDbLine
 10
43
 20
-12
 11
33
 21
-15
  0
LINE
  5
2D3
100
AcDbEntity
  8
0
  6
ByLayer
 62
  256
370
   -1
100
AcDbLine
 10
35
 20
-12
 11
35
 21
-17
  0
LINE
  5
2D4
100
AcDbEntity
  8
0
  6
ByLayer
 62
  256
370
   -1
100
AcDbLine
 10
43
 20
-12
 11
40
 21
-15
  0
ARC
  5
2D5
100
AcDbEntity
  8
0
  6
ByLayer
 62
  256
370
   -1
100
AcDbCircle
 10
37.5
 20
-19.5
 40
2.5
100
AcDbArc
 50
180.0000000000001
 51
270
  0
LINE
  5
2D6
100
AcDbEntity
  8
0
  6
ByLayer
 62
  256
370
   -1
100
AcDbLine
 10
35
 20
-19.50000000000001
 11
35
 21
-17
  0
LINE
  5
2D7
100
AcDbEntity
  8
0
  6
ByLayer
 62
  256
370
   -1
100
AcDbLine
 10
37.5
 20
-22
 11
43
 21
-22
  0
MTEXT
  5
2D8
100
AcDbEntity
  8
Subtitle
  6
ByLayer
 62
  256
370
   -1
100
AcDbMText
 10
38
 20
-17
 30
0
 40
1
 41
4.222222222222269
 71
    5
 72
    1
  1
Unified\PSe
  7
standard
210
0
220
0
230
1
 50
0
 73
    2
 44
1
  0
LINE
  5
2D9
100
AcDbEntity
  8
0
  6
ByLayer
 62
  256
370
   -1
100
AcDbLine
 10
53.99999999999999
 20
-3.500000199587878
 11
53.99999999999999
 21
-8.500000147626331
  0
MTEXT
  5
2DA
100
AcDbEntity
  8
Subtitle
  6
ByLayer
 62
  256
370
   -1
100
AcDbMText
 10
49
 20
-6
 30
0
 40
1
 41
8.527777555555648
 71
    5
 72
    1
  1
Unified\PKo\P(Hebrew Kaf)
  7
standard
210
0
220
0
230
1
 50
0
 73
    2
 44
1
  0
ELLIPSE
  5
2DB
100
AcDbEntity
  8
0
  6
ByLayer
 62
  256
370
   -1
100
AcDbEllipse
 10
109
 20
-3.5
 30
0
 11
-5
 21
0
 31
0
 40
0.5
 41
3.141592573754642
 42
7.983515182274914e-08
  0
ELLIPSE
  5
2DC
100
AcDbEntity
  8
0
  6
ByLayer
 62
  256
370
   -1
100
AcDbEllipse
 10
109
 20
-8.5
 30
0
 11
-5
 21
0
 31
0
 40
0.5
 41
5.9050532019711e-08
 42
3.141592594539261
  0
MTEXT
  5
2DD
100
AcDbEntity
  8
Subtitle
  6
ByLayer
 62
  256
370
   -1
100
AcDbMText
 10
109
 20
-6
 30
0
 40
1
 41
8.527777555555648
 71
    5
 72
    1
  1
Unified\PKo\P(Hebrew Kaf)
  7
standard
210
0
220
0
230
1
 50
0
 73
    2
 44
1
  0
LINE
  5
2DE
100
AcDbEntity
  8
0
  6
ByLayer
 62
  256
370
   -1
100
AcDbLine
 10
49
 20
-34
 11
49
 21
-44
  0
ARC
  5
2DF
100
AcDbEntity
  8
0
  6
ByLayer
 62
  256
370
   -1
100
AcDbCircle
 10
49
 20
-39
 40
5
100
AcDbArc
 50
330
 51
630
  0
LINE
  5
2E0
100
AcDbEntity
  8
0
  6
ByLayer
 62
  256
370
   -1
100
AcDbLine
 10
11
 20
-45
 11
14
 21
-45
  0
LINE
  5
2E1
100
AcDbEntity
  8
0
  6
ByLayer
 62
  256
370
   -1
100
AcDbLine
 10
12.55172413793104
 20
-46.37931034482759
 11
14
 21
-45
  0
LINE
  5
2E2
100
AcDbEntity
  8
0
  6
ByLayer
 62
  256
370
   -1
100
AcDbLine
 10
21
 20
-47
 11
20
 21
-46
  0
LINE
  5
2E3
100
AcDbEntity
  8
0
  6
ByLayer
 62
  256
370
   -1
100
AcDbLine
 10
20.77859456941537
 20
-48.52859456941537
 11
20
 21
-46
  0
ARC
  5
2E4
100
AcDbEntity
  8
0
  6
ByLayer
 62
  256
370
   -1
100
AcDbCircle
 10
16
 20
-50
 40
5
100
AcDbArc
 50
133.6028189727036
 51
17.1144331639063
  0
LINE
  5
2E5
100
AcDbEntity
  8
0
  6
ByLayer
 62
  256
370
   -1
100
AcDbLine
 10
22
 20
-53
 11
24
 21
-55
  0
ELLIPSE
  5
2E6
100
AcDbEntity
  8
0
  6
ByLayer
 62
  256
370
   -1
100
AcDbEllipse
 10
28
 20
-55
 30
0
 11
-4
 21
0
 31
0
 40
0.5
 41
3.141592653589793
 42
4.440892098500626e-16
  0
LINE
  5
2E7
100
AcDbEntity
  8
0
  6
ByLayer
 62
  256
370
   -1
100
AcDbLine
 10
11
 20
-34
 11
11
 21
-44
  0
LINE
  5
2E8
100
AcDbEntity
  8
0
  6
ByLayer
 62
  256
370
   -1
100
AcDbLine
 10
11
 20
-44
 11
21
 21
-44
  0
ARC
  5
2E9
100
AcDbEntity
  8
0
  6
ByLayer
 62
  256
370
   -1
100
AcDbCircle
 10
15
 20
-39
 40
1
100
AcDbArc
 50
90
 51
270
  0
LINE
  5
2EA
100
AcDbEntity
  8
0
  6
ByLayer
 62
  256
370
   -1
100
AcDbLine
 10
15
 20
-40
 11
19
 21
-40
  0
LINE
  5
2EB
100
AcDbEntity
  8
0
  6
ByLayer
 62
  256
370
   -1
100
AcDbLine
 10
18
 20
-38
 11
15
 21
-38
  0
MTEXT
  5
2EC
100
AcDbEntity
  8
Subtitle
  6
ByLayer
 62
  256
370
   -1
100
AcDbMText
 10
16
 20
-39
 30
0
 40
0.5
 41
3.916666666666736
 71
    5
 72
    1
  1
Unified\PNi\P(Korean N\P+ Latin new\P lowercase\Pglyph N)
  7
standard
210
0
220
0
230
1
 50
0
 73
    2
 44
1
  0
LINE
  5
2ED
100
AcDbEntity
  8
0
  6
ByLayer
 62
  256
370
   -1
100
AcDbLine
 10
71
 20
-34
 11
71
 21
-44
  0
LINE
  5
2EE
100
AcDbEntity
  8
0
  6
ByLayer
 62
  256
370
   -1
100
AcDbLine
 10
71
 20
-44
 11
81
 21
-44
  0
ARC
  5
2EF
100
AcDbEntity
  8
0
  6
ByLayer
 62
  256
370
   -1
100
AcDbCircle
 10
75
 20
-39
 40
1
100
AcDbArc
 50
90
 51
270
  0
LINE
  5
2F0
100
AcDbEntity
  8
0
  6
ByLayer
 62
  256
370
   -1
100
AcDbLine
 10
75
 20
-40
 11
79
 21
-40
  0
LINE
  5
2F1
100
AcDbEntity
  8
0
  6
ByLayer
 62
  256
370
   -1
100
AcDbLine
 10
78
 20
-38
 11
75
 21
-38
  0
MTEXT
  5
2F2
100
AcDbEntity
  8
Subtitle
  6
ByLayer
 62
  256
370
   -1
100
AcDbMText
 10
76
 20
-39
 30
0
 40
0.5
 41
3.916666666666736
 71
    5
 72
    1
  1
Unified\PNi\P(Korean N\P+ Latin new\P lowercase\Pglyph N)
  7
standard
210
0
220
0
230
1
 50
0
 73
    2
 44
1
  0
ELLIPSE
  5
2F3
100
AcDbEntity
  8
0
  6
ByLayer
 62
  256
370
   -1
100
AcDbEllipse
 10
38
 20
-63.5
 30
0
 11
-5
 21
0
 31
0
 40
0.5
 41
3.14159265358979
 42
3.108624468950438e-15
  0
MTEXT
  5
2F4
100
AcDbEntity
  8
Subtitle
  6
ByLayer
 62
  256
370
   -1
100
AcDbMText
 10
38
 20
-61
 30
0
 40
1
 41
4.222222222222269
 71
    5
 72
    1
  1
Unified\PMe
  7
standard
210
0
220
0
230
1
 50
0
 73
    2
 44
1
  0
LINE
  5
2F5
100
AcDbEntity
  8
0
  6
ByLayer
 62
  256
370
   -1
100
AcDbLine
 10
87
 20
-56
 11
82
 21
-66
  0
LINE
  5
2F6
100
AcDbEntity
  8
0
  6
ByLayer
 62
  256
370
   -1
100
AcDbLine
 10
82
 20
-66
 11
92
 21
-66
  0
LINE
  5
2F7
100
AcDbEntity
  8
0
  6
ByLayer
 62
  256
370
   -1
100
AcDbLine
 10
92
 20
-66
 11
89.5
 21
-61
  0
LINE
  5
2F8
100
AcDbEntity
  8
0
  6
ByLayer
 62
  256
370
   -1
100
AcDbLine
 10
60
 20
-78
 11
60
 21
-81
  0
LINE
  5
2F9
100
AcDbEntity
  8
0
  6
ByLayer
 62
  256
370
   -1
100
AcDbLine
 10
60
 20
-81
 11
70
 21
-81
  0
ELLIPSE
  5
2FA
100
AcDbEntity
  8
0
  6
ByLayer
 62
  256
370
   -1
100
AcDbEllipse
 10
60
 20
-81
 30
0
 11
10
 21
0
 31
0
 40
0.7
 41
4.71238898038469
 42
0
  0
LINE
  5
2FB
100
AcDbEntity
  8
0
  6
ByLayer
 62
  256
370
   -1
100
AcDbLine
 10
61
 20
-79
 11
65
 21
-79.5
  0
LINE
  5
2FC
100
AcDbEntity
  8
0
  6
ByLayer
 62
  256
370
   -1
100
AcDbLine
 10
65
 20
-79.5
 11
61
 21
-80
  0
MTEXT
  5
2FD
100
AcDbEntity
  8
Subtitle
  6
ByLayer
 62
  256
370
   -1
100
AcDbMText
 10
65
 20
-83
 30
0
 40
1
 41
4.222222222222269
 71
    5
 72
    1
  1
Unified\PRa
  7
standard
210
0
220
0
230
1
 50
0
 73
    2
 44
1
  0
LINE
  5
2FE
100
AcDbEntity
  8
0
  6
ByLayer
 62
  256
370
   -1
100
AcDbLine
 10
0
 20
-78
 11
0
 21
-81
  0
LINE
  5
2FF
100
AcDbEntity
  8
0
  6
ByLayer
 62
  256
370
   -1
100
AcDbLine
 10
0
 20
-81
 11
10
 21
-81
  0
ELLIPSE
  5
300
100
AcDbEntity
  8
0
  6
ByLayer
 62
  256
370
   -1
100
AcDbEllipse
 10
0
 20
-81
 30
0
 11
10
 21
0
 31
0
 40
0.7
 41
4.71238898038469
 42
0
  0
LINE
  5
301
100
AcDbEntity
  8
0
  6
ByLayer
 62
  256
370
   -1
100
AcDbLine
 10
1
 20
-79
 11
5
 21
-79.5
  0
LINE
  5
302
100
AcDbEntity
  8
0
  6
ByLayer
 62
  256
370
   -1
100
AcDbLine
 10
5
 20
-79.5
 11
1
 21
-80
  0
MTEXT
  5
303
100
AcDbEntity
  8
Subtitle
  6
ByLayer
 62
  256
370
   -1
100
AcDbMText
 10
5
 20
-83
 30
0
 40
1
 41
4.222222222222269
 71
    5
 72
    1
  1
Unified\PRa
  7
standard
210
0
220
0
230
1
 50
0
 73
    2
 44
1
  0
MTEXT
  5
304
100
AcDbEntity
  8
Subtitle
  6
ByLayer
 62
  256
370
   -1
100
AcDbMText
 10
76.0000006649276
 20
-83.0000006649276
 30
0
 40
1
 41
4.222222222222269
 71
    5
 72
    1
  1
Unified\PRi
  7
standard
210
0
220
0
230
1
 50
0
 73
    2
 44
1
  0
ELLIPSE
  5
305
100
AcDbEntity
  8
0
  6
ByLayer
 62
  256
370
   -1
100
AcDbEllipse
 10
11
 20
-83
 30
0
 11
10
 21
0
 31
0
 40
0.5
 41
4.71238898038469
 42
0
  0
LINE
  5
306
100
AcDbEntity
  8
0
  6
ByLayer
 62
  256
370
   -1
100
AcDbLine
 10
21
 20
-78
 11
21
 21
-83
  0
LINE
  5
307
100
AcDbEntity
  8
0
  6
ByLayer
 62
  256
370
   -1
100
AcDbLine
 10
11
 20
-78
 11
11
 21
-85
  0
LINE
  5
308
100
AcDbEntity
  8
0
  6
ByLayer
 62
  256
370
   -1
100
AcDbLine
 10
11
 20
-85
 11
13
 21
-83
  0
MTEXT
  5
309
100
AcDbEntity
  8
Subtitle
  6
ByLayer
 62
  256
370
   -1
100
AcDbMText
 10
16.0000006649276
 20
-83.0000006649276
 30
0
 40
1
 41
4.222222222222269
 71
    5
 72
    1
  1
Unified\PRi
  7
standard
210
0
220
0
230
1
 50
0
 73
    2
 44
1
  0
ARC
  5
30A
100
AcDbEntity
  8
0
  6
ByLayer
 62
  256
370
   -1
100
AcDbCircle
 10
35.5
 20
-63.5
 40
2.5
100
AcDbArc
 50
180.0000000000001
 51
270.0000000000002
  0
ARC
  5
30B
100
AcDbEntity
  8
0
  6
ByLayer
 62
  256
370
   -1
100
AcDbCircle
 10
40.5
 20
-63.5
 40
2.5
100
AcDbArc
 50
270
 51
0
  0
ELLIPSE
  5
30C
100
AcDbEntity
  8
0
  6
ByLayer
 62
  256
370
   -1
100
AcDbEllipse
 10
40.5
 20
-56
 30
0
 11
0
 21
-10
 31
0
 40
0.75
 41
4.71238898038469
 42
0
  0
ELLIPSE
  5
30D
100
AcDbEntity
  8
0
  6
ByLayer
 62
  256
370
   -1
100
AcDbEllipse
 10
35.5
 20
-56
 30
0
 11
7.105427357601002e-15
 21
-10
 31
0
 40
0.75
 41
6.283185307179585
 42
1.570796326794896
  0
ELLIPSE
  5
30E
100
AcDbEntity
  8
0
  6
ByLayer
 62
  256
370
   -1
100
AcDbEllipse
 10
98
 20
-63.5
 30
0
 11
-5
 21
0
 31
0
 40
0.5
 41
3.14159265358979
 42
3.108624468950438e-15
  0
MTEXT
  5
30F
100
AcDbEntity
  8
Subtitle
  6
ByLayer
 62
  256
370
   -1
100
AcDbMText
 10
98
 20
-61
 30
0
 40
1
 41
4.222222222222269
 71
    5
 72
    1
  1
Unified\PMe
  7
standard
210
0
220
0
230
1
 50
0
 73
    2
 44
1
  0
ARC
  5
310
100
AcDbEntity
  8
0
  6
ByLayer
 62
  256
370
   -1
100
AcDbCircle
 10
95.5
 20
-63.5
 40
2.5
100
AcDbArc
 50
180.0000000000001
 51
270.0000000000002
  0
ARC
  5
311
100
AcDbEntity
  8
0
  6
ByLayer
 62
  256
370
   -1
100
AcDbCircle
 10
100.5
 20
-63.5
 40
2.5
100
AcDbArc
 50
270
 51
0
  0
ELLIPSE
  5
312
100
AcDbEntity
  8
0
  6
ByLayer
 62
  256
370
   -1
100
AcDbEllipse
 10
100.5
 20
-56
 30
0
 11
0
 21
-10
 31
0
 40
0.75
 41
4.71238898038469
 42
0
  0
ELLIPSE
  5
313
100
AcDbEntity
  8
0
  6
ByLayer
 62
  256
370
   -1
100
AcDbEllipse
 10
95.5
 20
-56
 30
0
 11
7.105427357601002e-15
 21
-10
 31
0
 40
0.75
 41
6.283185307179585
 42
1.570796326794896
  0
LINE
  5
314
100
AcDbEntity
  8
0
  6
ByLayer
 62
  256
370
   -1
100
AcDbLine
 10
22
 20
-78
 11
32
 21
-78
  0
LINE
  5
315
100
AcDbEntity
  8
0
  6
ByLayer
 62
  256
370
   -1
100
AcDbLine
 10
32
 20
-78
 11
22
 21
-83
  0
ELLIPSE
  5
316
100
AcDbEntity
  8
0
  6
ByLayer
 62
  256
370
   -1
100
AcDbEllipse
 10
27
 20
-85.5
 30
0
 11
-5
 21
0
 31
0
 40
0.5
 41
1.570796326794897
 42
4.712388980384691
  0
CIRCLE
  5
317
100
AcDbEntity
  8
0
  6
ByLayer
 62
  256
370
   -1
100
AcDbCircle
 10
23.25
 20
-86.75
 40
1.25
  0
LINE
  5
318
100
AcDbEntity
  8
0
  6
ByLayer
 62
  256
370
   -1
100
AcDbLine
 10
23.25
 20
-88
 11
27
 21
-88
  0
LINE
  5
319
100
AcDbEntity
  8
0
  6
ByLayer
 62
  256
370
   -1
100
AcDbLine
 10
22
 20
-83
 11
27
 21
-83
  0
LINE
  5
31A
100
AcDbEntity
  8
0
  6
ByLayer
 62
  256
370
   -1
100
AcDbLine
 10
54
 20
-78
 11
44
 21
-83
  0
ELLIPSE
  5
31B
100
AcDbEntity
  8
0
  6
ByLayer
 62
  256
370
   -1
100
AcDbEllipse
 10
49
 20
-85.5
 30
0
 11
-5
 21
0
 31
0
 40
0.5
 41
1.570796326794897
 42
4.712388980384691
  0
LINE
  5
31C
100
AcDbEntity
  8
0
  6
ByLayer
 62
  256
370
   -1
100
AcDbLine
 10
45.25
 20
-88
 11
49
 21
-88
  0
LINE
  5
31D
100
AcDbEntity
  8
0
  6
ByLayer
 62
  256
370
   -1
100
AcDbLine
 10
44
 20
-83
 11
49
 21
-83
  0
ARC
  5
31E
100
AcDbEntity
  8
0
  6
ByLayer
 62
  256
370
   -1
100
AcDbCircle
 10
45.25
 20
-86.75
 40
1.25
100
AcDbArc
 50
180
 51
270
  0
LINE
  5
31F
100
AcDbEntity
  8
0
  6
ByLayer
 62
  256
370
   -1
100
AcDbLine
 10
44
 20
-86.75
 11
44
 21
-85
  0
LINE
  5
320
100
AcDbEntity
  8
0
  6
ByLayer
 62
  256
370
   -1
100
AcDbLine
 10
44
 20
-80.5
 11
54
 21
-78
  0
ARC
  5
321
100
AcDbEntity
  8
0
  6
ByLayer
 62
  256
370
   -1
100
AcDbCircle
 10
46.5
 20
-74.5
 40
2.5
100
AcDbArc
 50
53.13010235415599
 51
360
  0
LINE
  5
322
100
AcDbEntity
  8
0
  6
ByLayer
 62
  256
370
   -1
100
AcDbLine
 10
49
 20
-67
 11
49
 21
-74.5
  0
LINE
  5
323
100
AcDbEntity
  8
0
  6
ByLayer
 62
  256
370
   -1
100
AcDbLine
 10
48
 20
-72.5
 11
54
 21
-77
  0
LINE
  5
324
100
AcDbEntity
  8
0
  6
ByLayer
 62
  256
370
   -1
100
AcDbLine
 10
49
 20
-69.5
 11
54
 21
-69.5
  0
CIRCLE
  5
325
100
AcDbEntity
  8
0
  6
ByLayer
 62
  256
370
   -1
100
AcDbCircle
 10
103
 20
-99
 40
0
  0
CIRCLE
  5
326
100
AcDbEntity
  8
0
  6
ByLayer
 62
  256
370
   -1
100
AcDbCircle
 10
71
 20
-61
 40
0
  0
LINE
  5
327
100
AcDbEntity
  8
0
  6
ByLayer
 62
  256
370
   -1
100
AcDbLine
 10
71.51776695296635
 20
-61.51776695296636
 11
76
 21
-66
  0
LINE
  5
328
100
AcDbEntity
  8
0
  6
ByLayer
 62
  256
370
   -1
100
AcDbLine
 10
76.51776695296638
 20
-56.51776695296637
 11
81
 21
-61
  0
ARC
  5
329
100
AcDbEntity
  8
0
  6
ByLayer
 62
  256
370
   -1
100
AcDbCircle
 10
72.76776695296635
 20
-60.26776695296638
 40
1.767766952966355
100
AcDbArc
 50
44.99999999999984
 51
224.9999999999999
  0
ARC
  5
32A
100
AcDbEntity
  8
0
  6
ByLayer
 62
  256
370
   -1
100
AcDbCircle
 10
75.26776695296638
 20
-57.76776695296637
 40
1.767766952966369
100
AcDbArc
 50
44.99999999999984
 51
224.9999999999996
  0
LINE
  5
32B
100
AcDbEntity
  8
0
  6
ByLayer
 62
  256
370
   -1
100
AcDbLine
 10
74.01776695296637
 20
-59.01776695296637
 11
78.5
 21
-63.5
  0
ELLIPSE
  5
32C
100
AcDbEntity
  8
0
  6
ByLayer
 62
  256
370
   -1
100
AcDbEllipse
 10
5
 20
2.5
 30
0
 11
-5
 21
0
 31
0
 40
0.5
 41
3.14159265358979
 42
3.108624468950438e-15
  0
ARC
  5
32D
100
AcDbEntity
  8
0
  6
ByLayer
 62
  256
370
   -1
100
AcDbCircle
 10
2.5
 20
2.5
 40
2.5
100
AcDbArc
 50
180.0000000000001
 51
270.0000000000002
  0
ARC
  5
32E
100
AcDbEntity
  8
0
  6
ByLayer
 62
  256
370
   -1
100
AcDbCircle
 10
7.5
 20
2.5
 40
2.5
100
AcDbArc
 50
270
 51
0
  0
ARC
  5
32F
100
AcDbEntity
  8
0
  6
ByLayer
 62
  256
370
   -1
100
AcDbCircle
 10
7.5
 20
2.5
 40
2.5
100
AcDbArc
 50
180
 51
270
  0
LINE
  5
330
100
AcDbEntity
  8
0
  6
ByLayer
 62
  256
370
   -1
100
AcDbLine
 10
5
 20
10
 11
5
 21
2.5
  0
ELLIPSE
  5
331
100
AcDbEntity
  8
0
  6
ByLayer
 62
  256
370
   -1
100
AcDbEllipse
 10
2.500000000000008
 20
5
 30
0
 11
7.499999999999991
 21
0
 31
0
 40
0.6666666666666674
 41
4.71238898038469
 42
0
  0
LINE
  5
332
100
AcDbEntity
  8
0
  6
ByLayer
 62
  256
370
   -1
100
AcDbLine
 10
0
 20
7.5
 11
10
 21
7.5
  0
LINE
  5
333
100
AcDbEntity
  8
0
  6
ByLayer
 62
  256
370
   -1
100
AcDbLine
 10
44
 20
7.5
 11
52
 21
7.5
  0
LINE
  5
334
100
AcDbEntity
  8
0
  6
ByLayer
 62
  256
370
   -1
100
AcDbLine
 10
54
 20
7
 11
52
 21
9
  0
LINE
  5
335
100
AcDbEntity
  8
0
  6
ByLayer
 62
  256
370
   -1
100
AcDbLine
 10
22
 20
-14.5
 11
32
 21
-14.5
  0
CIRCLE
  5
336
100
AcDbEntity
  8
0
  6
ByLayer
 62
  256
370
   -1
100
AcDbCircle
 10
26
 20
-17
 40
1.000000000000176
  0
ARC
  5
337
100
AcDbEntity
  8
0
  6
ByLayer
 62
  256
370
   -1
100
AcDbCircle
 10
22
 20
-17
 40
5
100
AcDbArc
 50
270
 51
0
  0
LINE
  5
338
100
AcDbEntity
  8
0
  6
ByLayer
 62
  256
370
   -1
100
AcDbLine
 10
27
 20
-12
 11
27
 21
-17
  0
ARC
  5
339
100
AcDbEntity
  8
0
  6
ByLayer
 62
  256
370
   -1
100
AcDbCircle
 10
29.5
 20
-63.5
 40
2.5
100
AcDbArc
 50
270
 51
359.9999999999999
  0
ARC
  5
33A
100
AcDbEntity
  8
0
  6
ByLayer
 62
  256
370
   -1
100
AcDbCircle
 10
27.5
 20
-63.5
 40
2.5
100
AcDbArc
 50
180.0000000000001
 51
270
  0
LINE
  5
33B
100
AcDbEntity
  8
0
  6
ByLayer
 62
  256
370
   -1
100
AcDbLine
 10
25
 20
-63.50000000000001
 11
25
 21
-56
  0
LINE
  5
33C
100
AcDbEntity
  8
0
  6
ByLayer
 62
  256
370
   -1
100
AcDbLine
 10
27.5
 20
-66
 11
29.5
 21
-66
  0
CIRCLE
  5
33D
100
AcDbEntity
  8
0
  6
ByLayer
 62
  256
370
   -1
100
AcDbCircle
 10
24
 20
-61
 40
1
  0
LINE
  5
33E
100
AcDbEntity
  8
0
  6
ByLayer
 62
  256
370
   -1
100
AcDbLine
 10
28
 20
-58.5
 11
22
 21
-58.5
  0
LINE
  5
33F
100
AcDbEntity
  8
0
  6
ByLayer
 62
  256
370
   -1
100
AcDbLine
 10
50
 20
-58.5
 11
44
 21
-58.5
  0
LINE
  5
340
100
AcDbEntity
  8
0
  6
ByLayer
 62
  256
370
   -1
100
AcDbLine
 10
50
 20
-61
 11
44
 21
-61
  0
ARC
  5
341
100
AcDbEntity
  8
0
  6
ByLayer
 62
  256
370
   -1
100
AcDbCircle
 10
111.5
 20
-63.5
 40
2.5
100
AcDbArc
 50
270
 51
359.9999999999999
  0
ARC
  5
342
100
AcDbEntity
  8
0
  6
ByLayer
 62
  256
370
   -1
100
AcDbCircle
 10
109.5
 20
-63.5
 40
2.5
100
AcDbArc
 50
180.0000000000001
 51
270
  0
LINE
  5
343
100
AcDbEntity
  8
0
  6
ByLayer
 62
  256
370
   -1
100
AcDbLine
 10
107
 20
-63.50000000000001
 11
107
 21
-56
  0
LINE
  5
344
100
AcDbEntity
  8
0
  6
ByLayer
 62
  256
370
   -1
100
AcDbLine
 10
109.5
 20
-66
 11
111.5
 21
-66
  0
MTEXT
  5
345
100
AcDbEntity
  8
Subtitle
  6
ByLayer
 62
  256
370
   -1
100
AcDbMText
 10
109
 20
-61
 30
0
 40
1
 41
4.222222222222269
 71
    5
 72
    1
  1
Unified\PMo
  7
standard
210
0
220
0
230
1
 50
0
 73
    2
 44
1
  0
LINE
  5
346
100
AcDbEntity
  8
0
  6
ByLayer
 62
  256
370
   -1
100
AcDbLine
 10
110
 20
-58.5
 11
104
 21
-58.5
  0
LINE
  5
347
100
AcDbEntity
  8
0
  6
ByLayer
 62
  256
370
   -1
100
AcDbLine
 10
110
 20
-61
 11
104
 21
-61
  0
LINE
  5
348
100
AcDbEntity
  8
0
  6
ByLayer
 62
  256
370
   -1
100
AcDbLine
 10
32
 20
-62
 11
29
 21
-59
  0
ARC
  5
349
100
AcDbEntity
  8
0
  6
ByLayer
 62
  256
370
   -1
100
AcDbCircle
 10
13.5
 20
-96.5
 40
2.5
100
AcDbArc
 50
180
 51
270.0000000000001
  0
ELLIPSE
  5
34A
100
AcDbEntity
  8
0
  6
ByLayer
 62
  256
370
   -1
100
AcDbEllipse
 10
13.5
 20
-89
 30
0
 11
6.472078037944584e-07
 21
-10
 31
0
 40
0.4999999999999979
 41
6.283185177738028
 42
1.570796294434507
  0
ELLIPSE
  5
34B
100
AcDbEntity
  8
0
  6
ByLayer
 62
  256
370
   -1
100
AcDbEllipse
 10
16
 20
-96.5
 30
0
 11
-5
 21
0
 31
0
 40
0.5
 41
3.141592653589793
 42
4.440892098500626e-16
  0
CIRCLE
  5
34C
100
AcDbEntity
  8
0
  6
ByLayer
 62
  256
370
   -1
100
AcDbCircle
 10
19.75
 20
-97.75
 40
1.25
  0
LINE
  5
34D
100
AcDbEntity
  8
0
  6
ByLayer
 62
  256
370
   -1
100
AcDbLine
 10
21
 20
-96.5
 11
21
 21
-97.75
  0
ARC
  5
34E
100
AcDbEntity
  8
0
  6
ByLayer
 62
  256
370
   -1
100
AcDbCircle
 10
13.5
 20
-63.5
 40
2.5
100
AcDbArc
 50
180
 51
270.0000000000001
  0
ELLIPSE
  5
34F
100
AcDbEntity
  8
0
  6
ByLayer
 62
  256
370
   -1
100
AcDbEllipse
 10
13.5
 20
-56
 30
0
 11
6.472078037944584e-07
 21
-10
 31
0
 40
0.4999999999999979
 41
6.283185177738028
 42
1.570796294434507
  0
ELLIPSE
  5
350
100
AcDbEntity
  8
0
  6
ByLayer
 62
  256
370
   -1
100
AcDbEllipse
 10
16
 20
-58.5
 30
0
 11
0
 21
-7.5
 31
0
 40
0.6666666666666666
 41
8.881784197001252e-16
 42
1.570796326794897
  0
ELLIPSE
  5
351
100
AcDbEntity
  8
0
  6
ByLayer
 62
  256
370
   -1
100
AcDbEllipse
 10
16
 20
-63.5
 30
0
 11
-5
 21
0
 31
0
 40
0.5
 41
4.71238898038469
 42
0
  0
ARC
  5
352
100
AcDbEntity
  8
0
  6
ByLayer
 62
  256
370
   -1
100
AcDbCircle
 10
16
 20
-66
 40
5
100
AcDbArc
 50
0
 51
90.00000000000003
  0
LINE
  5
353
100
AcDbEntity
  8
0
  6
ByLayer
 62
  256
370
   -1
100
AcDbLine
 10
18.5
 20
-56
 11
11
 21
-56
  0
LINE
  5
354
100
AcDbEntity
  8
0
  6
ByLayer
 62
  256
370
   -1
100
AcDbLine
 10
18.5
 20
-89
 11
11
 21
-89
  0
LINE
  5
355
100
AcDbEntity
  8
0
  6
ByLayer
 62
  256
370
   -1
100
AcDbLine
 10
10
 20
-58.5
 11
-4.592273826833915e-16
 21
-58.5
  0
LINE
  5
356
100
AcDbEntity
  8
0
  6
ByLayer
 62
  256
370
   -1
100
AcDbLine
 10
10
 20
-61
 11
-9.184547653667829e-16
 21
-61
  0
ELLIPSE
  5
357
100
AcDbEntity
  8
0
  6
ByLayer
 62
  256
370
   -1
100
AcDbEllipse
 10
2.5
 20
-64.75
 30
0
 11
2.5
 21
0
 31
0
 40
0.5
 41
0.9272952180016123
 42
0
  0
LINE
  5
358
100
AcDbEntity
  8
0
  6
ByLayer
 62
  256
370
   -1
100
AcDbLine
 10
5
 20
-56
 11
5
 21
-64.75
  0
LINE
  5
359
100
AcDbEntity
  8
0
  6
ByLayer
 62
  256
370
   -1
100
AcDbLine
 10
4
 20
-63.75
 11
10
 21
-66
  0
LINE
  5
35A
100
AcDbEntity
  8
0
  6
ByLayer
 62
  256
370
   -1
100
AcDbLine
 10
25.75
 20
-45
 11
28.25
 21
-46.49999999999996
  0
LINE
  5
35B
100
AcDbEntity
  8
0
  6
ByLayer
 62
  256
370
   -1
100
AcDbLine
 10
28.25
 20
-46.49999999999996
 11
25.75
 21
-47.99999999999991
  0
ELLIPSE
  5
35C
100
AcDbEntity
  8
0
  6
ByLayer
 62
  256
370
   -1
100
AcDbEllipse
 10
25.75
 20
-51.5
 30
0
 11
0
 21
3.5
 31
0
 40
0.7142857142857143
 41
3.141592653589795
 42
6.283185307179584
  0
LINE
  5
35D
100
AcDbEntity
  8
0
  6
ByLayer
 62
  256
370
   -1
100
AcDbLine
 10
44
 20
-91.5
 11
54
 21
-91.5
  0
LINE
  5
35E
100
AcDbEntity
  8
0
  6
ByLayer
 62
  256
370
   -1
100
AcDbLine
 10
49
 20
-99
 11
54
 21
-99
  0
ARC
  5
35F
100
AcDbEntity
  8
0
  6
ByLayer
 62
  256
370
   -1
100
AcDbCircle
 10
49.00000000000007
 20
-96.5
 40
2.5
100
AcDbArc
 50
100.8113078882832
 51
269.9999999999985
  0
LINE
  5
360
100
AcDbEntity
  8
0
  6
ByLayer
 62
  256
370
   -1
100
AcDbLine
 10
48.53106206242254
 20
-94.04437437488926
 11
54
 21
-93
  0
ELLIPSE
  5
361
100
AcDbEntity
  8
0
  6
ByLayer
 62
  256
370
   -1
100
AcDbEllipse
 10
44
 20
-89
 30
0
 11
-0
 21
6
 31
0
 40
0.8333333333333334
 41
3.682692179546939
 42
4.71238898038469
  0
CIRCLE
  5
362
100
AcDbEntity
  8
0
  6
ByLayer
 62
  256
370
   -1
100
AcDbCircle
 10
49
 20
-92.39444872453599
 40
0
  0
CIRCLE
  5
363
100
AcDbEntity
  8
0
  6
ByLayer
 62
  256
370
   -1
100
AcDbCircle
 10
49
 20
-92.39444872453599
 40
0
  0
CIRCLE
  5
364
100
AcDbEntity
  8
0
  6
ByLayer
 62
  256
370
   -1
100
AcDbCircle
 10
49
 20
-92.39444872453599
 40
0
  0
CIRCLE
  5
365
100
AcDbEntity
  8
0
  6
ByLayer
 62
  256
370
   -1
100
AcDbCircle
 10
50.24037720753381
 20
-91.5
 40
0
  0
ARC
  5
366
100
AcDbEntity
  8
0
  6
ByLayer
 62
  256
370
   -1
100
AcDbCircle
 10
49.58489765186558
 20
-93.20555583018984
 40
0.9999999999999993
100
AcDbArc
 50
0
 51
125.7957599147056
  0
LINE
  5
367
100
AcDbEntity
  8
0
  6
ByLayer
 62
  256
370
   -1
100
AcDbLine
 10
50.58489765186558
 20
-93.20555583018984
 11
50.58489765186558
 21
-96.5
  0
LWPOLYLINE
  5
368
100
AcDbEntity
  8
0
  6
ByLayer
 62
  256
370
   -1
100
AcDbPolyline
 90
    3
 70
    0
 43
0
 10
44
 20
-96
 10
46.57539376818856
 20
-94.14285714285714
 10
49
 20
-92.39444872453601
  0
LINE
  5
369
100
AcDbEntity
  8
0
  6
ByLayer
 62
  256
370
   -1
100
AcDbLine
 10
93
 20
-89
 11
103
 21
-89
  0
CIRCLE
  5
36A
100
AcDbEntity
  8
0
  6
ByLayer
 62
  256
370
   -1
100
AcDbCircle
 10
98
 20
-95.25000000000001
 40
0
  0
CIRCLE
  5
36B
100
AcDbEntity
  8
0
  6
ByLayer
 62
  256
370
   -1
100
AcDbCircle
 10
98
 20
-95.25000000000001
 40
0
  0
CIRCLE
  5
36C
100
AcDbEntity
  8
0
  6
ByLayer
 62
  256
370
   -1
100
AcDbCircle
 10
98
 20
-95.25000000000001
 40
0
  0
CIRCLE
  5
36D
100
AcDbEntity
  8
0
  6
ByLayer
 62
  256
370
   -1
100
AcDbCircle
 10
98
 20
-95.25000000000001
 40
0
  0
LINE
  5
36E
100
AcDbEntity
  8
0
  6
ByLayer
 62
  256
370
   -1
100
AcDbLine
 10
93
 20
-91.5
 11
103
 21
-89
  0
ELLIPSE
  5
36F
100
AcDbEntity
  8
0
  6
ByLayer
 62
  256
370
   -1
100
AcDbEllipse
 10
93
 20
-94
 30
0
 11
10
 21
0
 31
0
 40
0.25
 41
0
 42
1.570796326794895
  0
ARC
  5
370
100
AcDbEntity
  8
0
  6
ByLayer
 62
  256
370
   -1
100
AcDbCircle
 10
100.5
 20
-99
 40
2.5
100
AcDbArc
 50
0
 51
180
  0
CIRCLE
  5
371
100
AcDbEntity
  8
0
  6
ByLayer
 62
  256
370
   -1
100
AcDbCircle
 10
98
 20
-95.25000000000001
 40
0
  0
ELLIPSE
  5
372
100
AcDbEntity
  8
0
  6
ByLayer
 62
  256
370
   -1
100
AcDbEllipse
 10
98
 20
-94
 30
0
 11
5
 21
0
 31
0
 40
0.2
 41
4.712389098947274
 42
0
  0
CIRCLE
  5
373
100
AcDbEntity
  8
0
  6
ByLayer
 62
  256
370
   -1
100
AcDbCircle
 10
98
 20
-95.2500000000002
 40
0
  0
ARC
  5
374
100
AcDbEntity
  8
0
  6
ByLayer
 62
  256
370
   -1
100
AcDbCircle
 10
96.75000000000001
 20
-97.75000000000006
 40
1.249999999999963
100
AcDbArc
 50
0
 51
126.8698976458428
  0
ARC
  5
375
100
AcDbEntity
  8
0
  6
ByLayer
 62
  256
370
   -1
100
AcDbCircle
 10
98
 20
-94
 40
1.000000000000176
100
AcDbArc
 50
306.8698976458419
 51
630
  0
LWPOLYLINE
  5
376
100
AcDbEntity
  8
0
  6
ByLayer
 62
  256
370
   -1
100
AcDbPolyline
 90
    3
 70
    0
 43
0
 10
93
 20
-99
 10
96.00000000000006
 20
-96.75000000000007
 10
98.60000000000008
 20
-94.80000000000017
  0
LINE
  5
377
100
AcDbEntity
  8
0
  6
ByLayer
 62
  256
370
   -1
100
AcDbLine
 10
98
 20
-97.75000134120943
 11
98
 21
-99
  0
MTEXT
  5
378
100
AcDbEntity
  8
Subtitle
  6
ByLayer
 62
  256
370
   -1
100
AcDbMText
 10
98
 20
-94
 30
0
 40
1
 41
4.222222222222269
 71
    5
 72
    1
  1
Unified\PWe
  7
standard
210
0
220
0
230
1
 50
0
 73
    2
 44
1
  0
LINE
  5
379
100
AcDbEntity
  8
0
  6
ByLayer
 62
  256
370
   -1
100
AcDbLine
 10
33
 20
-89
 11
43
 21
-89
  0
CIRCLE
  5
37A
100
AcDbEntity
  8
0
  6
ByLayer
 62
  256
370
   -1
100
AcDbCircle
 10
38
 20
-95.25000000000001
 40
0
  0
CIRCLE
  5
37B
100
AcDbEntity
  8
0
  6
ByLayer
 62
  256
370
   -1
100
AcDbCircle
 10
38
 20
-95.25000000000001
 40
0
  0
CIRCLE
  5
37C
100
AcDbEntity
  8
0
  6
ByLayer
 62
  256
370
   -1
100
AcDbCircle
 10
38
 20
-95.25000000000001
 40
0
  0
CIRCLE
  5
37D
100
AcDbEntity
  8
0
  6
ByLayer
 62
  256
370
   -1
100
AcDbCircle
 10
38
 20
-95.25000000000001
 40
0
  0
LINE
  5
37E
100
AcDbEntity
  8
0
  6
ByLayer
 62
  256
370
   -1
100
AcDbLine
 10
33
 20
-91.5
 11
43
 21
-89
  0
ELLIPSE
  5
37F
100
AcDbEntity
  8
0
  6
ByLayer
 62
  256
370
   -1
100
AcDbEllipse
 10
33
 20
-94
 30
0
 11
10
 21
0
 31
0
 40
0.25
 41
0
 42
1.570796326794895
  0
CIRCLE
  5
380
100
AcDbEntity
  8
0
  6
ByLayer
 62
  256
370
   -1
100
AcDbCircle
 10
38
 20
-95.25000000000001
 40
0
  0
ELLIPSE
  5
381
100
AcDbEntity
  8
0
  6
ByLayer
 62
  256
370
   -1
100
AcDbEllipse
 10
38
 20
-94
 30
0
 11
5
 21
0
 31
0
 40
0.2
 41
4.712389098947274
 42
0
  0
CIRCLE
  5
382
100
AcDbEntity
  8
0
  6
ByLayer
 62
  256
370
   -1
100
AcDbCircle
 10
38
 20
-95.2500000000002
 40
0
  0
ARC
  5
383
100
AcDbEntity
  8
0
  6
ByLayer
 62
  256
370
   -1
100
AcDbCircle
 10
38
 20
-94
 40
1.000000000000176
100
AcDbArc
 50
306.8698976458419
 51
630
  0
MTEXT
  5
384
100
AcDbEntity
  8
Subtitle
  6
ByLayer
 62
  256
370
   -1
100
AcDbMText
 10
38
 20
-94
 30
0
 40
1
 41
4.222222222222269
 71
    5
 72
    1
  1
Unified\PWe
  7
standard
210
0
220
0
230
1
 50
0
 73
    2
 44
1
  0
LINE
  5
385
100
AcDbEntity
  8
0
  6
ByLayer
 62
  256
370
   -1
100
AcDbLine
 10
104
 20
-67
 11
114
 21
-67
  0
LINE
  5
386
100
AcDbEntity
  8
0
  6
ByLayer
 62
  256
370
   -1
100
AcDbLine
 10
104
 20
-77
 11
114
 21
-77
  0
ARC
  5
387
100
AcDbEntity
  8
0
  6
ByLayer
 62
  256
370
   -1
100
AcDbCircle
 10
111.5
 20
-74.5
 40
2.5
100
AcDbArc
 50
0
 51
90
  0
ARC
  5
388
100
AcDbEntity
  8
0
  6
ByLayer
 62
  256
370
   -1
100
AcDbCircle
 10
111.5
 20
-69.5
 40
2.5
100
AcDbArc
 50
270.0000000000003
 51
359.9999999999997
  0
LINE
  5
389
100
AcDbEntity
  8
0
  6
ByLayer
 62
  256
370
   -1
100
AcDbLine
 10
114
 20
-67
 11
114
 21
-69.50000000000001
  0
LINE
  5
38A
100
AcDbEntity
  8
0
  6
ByLayer
 62
  256
370
   -1
100
AcDbLine
 10
114
 20
-74.5
 11
114
 21
-77
  0
LINE
  5
38B
100
AcDbEntity
  8
0
  6
ByLayer
 62
  256
370
   -1
100
AcDbLine
 10
11
 20
-25.5
 11
21
 21
-25.5
  0
LINE
  5
38C
100
AcDbEntity
  8
0
  6
ByLayer
 62
  256
370
   -1
100
AcDbLine
 10
16
 20
-23
 11
16
 21
-28
  0
ELLIPSE
  5
38D
100
AcDbEntity
  8
0
  6
ByLayer
 62
  256
370
   -1
100
AcDbEllipse
 10
16
 20
-30.5
 30
0
 11
5
 21
0
 31
0
 40
0.5
 41
4.71238898038469
 42
1.570796326794896
  0
LINE
  5
38E
100
AcDbEntity
  8
0
  6
ByLayer
 62
  256
370
   -1
100
AcDbLine
 10
29.5
 20
-33
 11
27
 21
-33
  0
LINE
  5
38F
100
AcDbEntity
  8
0
  6
ByLayer
 62
  256
370
   -1
100
AcDbLine
 10
33
 20
-23
 11
43
 21
-23.00000000000002
  0
ELLIPSE
  5
390
100
AcDbEntity
  8
0
  6
ByLayer
 62
  256
370
   -1
100
AcDbEllipse
 10
43
 20
-28
 30
0
 11
-10
 21
0
 31
0
 40
0.4999999999999982
 41
4.71238898038469
 42
1.570796326794897
  0
LINE
  5
391
100
AcDbEntity
  8
0
  6
ByLayer
 62
  256
370
   -1
100
AcDbLine
 10
45.19870598932597
 20
-28.36537265599264
 11
54
 21
-23
  0
LINE
  5
392
100
AcDbEntity
  8
0
  6
ByLayer
 62
  256
370
   -1
100
AcDbLine
 10
46.5
 20
-33
 11
54
 21
-33
  0
ARC
  5
393
100
AcDbEntity
  8
0
  6
ByLayer
 62
  256
370
   -1
100
AcDbCircle
 10
46.5
 20
-30.5
 40
2.5
100
AcDbArc
 50
121.3669976699713
 51
270
  0
LINE
  5
394
100
AcDbEntity
  8
0
  6
ByLayer
 62
  256
370
   -1
100
AcDbLine
 10
46.70938576354575
 20
-27.44444444444445
 11
44
 21
-23.00000000000009
  0
MTEXT
  5
395
100
AcDbEntity
  8
Subtitle
  6
ByLayer
 62
  256
370
   -1
100
AcDbMText
 10
49
 20
-28
 30
0
 40
1
 41
4.999999888888935
 71
    5
 72
    1
  1
To\P(Hebrew\PTsade)
  7
standard
210
0
220
0
230
1
 50
0
 73
    2
 44
1
  0
MTEXT
  5
396
100
AcDbEntity
  8
Subtitle
  6
ByLayer
 62
  256
370
   -1
100
AcDbMText
 10
109
 20
-28
 30
0
 40
1
 41
8.00000051428729
 71
    5
 72
    1
  1
To\P(mirrored\Pupside-down\PHebrew\PTsade)
  7
standard
210
0
220
0
230
1
 50
0
 73
    2
 44
1
  0
ELLIPSE
  5
397
100
AcDbEntity
  8
0
  6
ByLayer
 62
  256
370
   -1
100
AcDbEllipse
 10
5.000000199587881
 20
-50.00000000000001
 30
0
 11
0
 21
-5
 31
0
 40
0.5
 41
6.283185227344434
 42
3.141592733424945
  0
LINE
  5
398
100
AcDbEntity
  8
0
  6
ByLayer
 62
  256
370
   -1
100
AcDbLine
 10
5.384615384615385
 20
-53.07692307692308
 11
10
 21
-55
  0
ARC
  5
399
100
AcDbEntity
  8
0
  6
ByLayer
 62
  256
370
   -1
100
AcDbCircle
 10
5
 20
-54
 40
1
100
AcDbArc
 50
67.38013505195948
 51
270
  0
ELLIPSE
  5
39A
100
AcDbEntity
  8
0
  6
ByLayer
 62
  256
370
   -1
100
AcDbEllipse
 10
2.499999999999997
 20
-50.00000000000001
 30
0
 11
-2.664535259100376e-15
 21
-5
 31
0
 40
0.5
 41
3.141592573754643
 42
7.983515359910598e-08
  0
ARC
  5
39B
100
AcDbEntity
  8
0
  6
ByLayer
 62
  256
370
   -1
100
AcDbCircle
 10
5.000000262279444
 20
-55
 40
2.500001158945948
100
AcDbArc
 50
63.43494804479503
 51
180
  0
ELLIPSE
  5
39C
100
AcDbEntity
  8
0
  6
ByLayer
 62
  256
370
   -1
100
AcDbEllipse
 10
49.00000019958788
 20
-50.00000000000001
 30
0
 11
0
 21
-5
 31
0
 40
0.5
 41
6.283185227344434
 42
3.141592733424945
  0
LINE
  5
39D
100
AcDbEntity
  8
0
  6
ByLayer
 62
  256
370
   -1
100
AcDbLine
 10
49.38461538461539
 20
-53.07692307692308
 11
54
 21
-55
  0
ARC
  5
39E
100
AcDbEntity
  8
0
  6
ByLayer
 62
  256
370
   -1
100
AcDbCircle
 10
49
 20
-54
 40
1
100
AcDbArc
 50
67.38013505195948
 51
270
  0
LINE
  5
39F
100
AcDbEntity
  8
0
  6
ByLayer
 62
  256
370
   -1
100
AcDbLine
 10
48
 20
-49.2
 11
54
 21
-48
  0
LINE
  5
3A0
100
AcDbEntity
  8
0
  6
ByLayer
 62
  256
370
   -1
100
AcDbLine
 10
54
 20
-52
 11
48
 21
-50.8
  0
ELLIPSE
  5
3A1
100
AcDbEntity
  8
0
  6
ByLayer
 62
  256
370
   -1
100
AcDbEllipse
 10
46.5
 20
-50.00000000000001
 30
0
 11
-2.664535259100376e-15
 21
-5
 31
0
 40
0.5
 41
3.141592573754643
 42
7.983515359910598e-08
  0
ARC
  5
3A2
100
AcDbEntity
  8
0
  6
ByLayer
 62
  256
370
   -1
100
AcDbCircle
 10
49.00000026227944
 20
-55
 40
2.500001158945948
100
AcDbArc
 50
63.43494804479503
 51
180
  0
LINE
  5
3A3
100
AcDbEntity
  8
0
  6
ByLayer
 62
  256
370
   -1
100
AcDbLine
 10
4
 20
-50
 11
10
 21
-50
  0
ELLIPSE
  5
3A4
100
AcDbEntity
  8
0
  6
ByLayer
 62
  256
370
   -1
100
AcDbEllipse
 10
38.00000019958788
 20
-6.000000000000014
 30
0
 11
0
 21
-5
 31
0
 40
0.5
 41
6.283185227344434
 42
3.141592733424945
  0
ELLIPSE
  5
3A5
100
AcDbEntity
  8
0
  6
ByLayer
 62
  256
370
   -1
100
AcDbEllipse
 10
35.5
 20
-6.000000000000014
 30
0
 11
-2.664535259100376e-15
 21
-5
 31
0
 40
0.5
 41
3.141592573754643
 42
7.983515359910598e-08
  0
ARC
  5
3A6
100
AcDbEntity
  8
0
  6
ByLayer
 62
  256
370
   -1
100
AcDbCircle
 10
38.00000026227944
 20
-11
 40
2.500001158945948
100
AcDbArc
 50
63.43494804479503
 51
180
  0
LINE
  5
3A7
100
AcDbEntity
  8
0
  6
ByLayer
 62
  256
370
   -1
100
AcDbLine
 10
35
 20
-6
 11
43
 21
-6
  0
ARC
  5
3A8
100
AcDbEntity
  8
0
  6
ByLayer
 62
  256
370
   -1
100
AcDbCircle
 10
38
 20
-10.5
 40
0.5
100
AcDbArc
 50
270
 51
90
  0
ELLIPSE
  5
3A9
100
AcDbEntity
  8
0
  6
ByLayer
 62
  256
370
   -1
100
AcDbEllipse
 10
27.00000019958788
 20
-94.00000000000001
 30
0
 11
0
 21
-5
 31
0
 40
0.5
 41
6.283185227344434
 42
3.141592733424945
  0
ELLIPSE
  5
3AA
100
AcDbEntity
  8
0
  6
ByLayer
 62
  256
370
   -1
100
AcDbEllipse
 10
24.5
 20
-94.00000000000001
 30
0
 11
-2.664535259100376e-15
 21
-5
 31
0
 40
0.5
 41
3.141592573754643
 42
7.983515359910598e-08
  0
ARC
  5
3AB
100
AcDbEntity
  8
0
  6
ByLayer
 62
  256
370
   -1
100
AcDbCircle
 10
27.00000026227944
 20
-99
 40
2.500001158945948
100
AcDbArc
 50
63.43494804479503
 51
180
  0
ARC
  5
3AC
100
AcDbEntity
  8
0
  6
ByLayer
 62
  256
370
   -1
100
AcDbCircle
 10
27
 20
-98.5
 40
0.5
100
AcDbArc
 50
270
 51
90
  0
LINE
  5
3AD
100
AcDbEntity
  8
0
  6
ByLayer
 62
  256
370
   -1
100
AcDbLine
 10
26
 20
-93.2
 11
32
 21
-92
  0
LINE
  5
3AE
100
AcDbEntity
  8
0
  6
ByLayer
 62
  256
370
   -1
100
AcDbLine
 10
32
 20
-96
 11
26
 21
-94.8
  0
ELLIPSE
  5
3AF
100
AcDbEntity
  8
0
  6
ByLayer
 62
  256
370
   -1
100
AcDbEllipse
 10
27
 20
-3.5
 30
0
 11
5
 21
0
 31
0
 40
0.5
 41
6.283185227344434
 42
3.141592733424945
  0
ELLIPSE
  5
3B0
100
AcDbEntity
  8
0
  6
ByLayer
 62
  256
370
   -1
100
AcDbEllipse
 10
27
 20
-8.5
 30
0
 11
5
 21
0
 31
0
 40
0.5
 41
3.141592712640325
 42
6.283185248129055
  0
LINE
  5
3B1
100
AcDbEntity
  8
0
  6
ByLayer
 62
  256
370
   -1
100
AcDbLine
 10
22.00000000000001
 20
-3.500000199587878
 11
22.00000000000001
 21
-8.500000147626331
  0
MTEXT
  5
3B2
100
AcDbEntity
  8
Subtitle
  6
ByLayer
 62
  256
370
   -1
100
AcDbMText
 10
27
 20
-6
 30
0
 40
1
 41
3.444444333333426
 71
    5
 72
    1
  1
Ku\P(Latin\PC)
  7
standard
210
0
220
0
230
1
 50
0
 73
    2
 44
1
  0
LINE
  5
3B3
100
AcDbEntity
  8
0
  6
ByLayer
 62
  256
370
   -1
100
AcDbLine
 10
0
 20
-26
 11
10
 21
-26
  0
ARC
  5
3B4
100
AcDbEntity
  8
0
  6
ByLayer
 62
  256
370
   -1
100
AcDbCircle
 10
0
 20
-28.00000000000001
 40
5
100
AcDbArc
 50
270
 51
1.017777498068325e-13
  0
LINE
  5
3B5
100
AcDbEntity
  8
0
  6
ByLayer
 62
  256
370
   -1
100
AcDbLine
 10
5.000000000000014
 20
-23
 11
5
 21
-28
  0
MTEXT
  5
3B6
100
AcDbEntity
  8
Subtitle
  6
ByLayer
 62
  256
370
   -1
100
AcDbMText
 10
5
 20
-39
 30
0
 40
0.5
 41
4.37461122354356
 71
    5
 72
    1
  1
Unified Na\P(Contains the\Ptraditional\PGreek\PLowercase\PAlpha Glyph)
  7
unicode
210
0
220
0
230
1
 50
0
 73
    2
 44
1
  0
ARC
  5
3B7
100
AcDbEntity
  8
0
  6
ByLayer
 62
  256
370
   -1
100
AcDbCircle
 10
8.5
 20
-42.5
 40
1.5
100
AcDbArc
 50
90.00000000000028
 51
270
  0
ELLIPSE
  5
3B8
100
AcDbEntity
  8
0
  6
ByLayer
 62
  256
370
   -1
100
AcDbEllipse
 10
8.5
 20
-44
 30
0
 11
0
 21
3
 31
0
 40
0.5
 41
4.71238898038469
 42
0
  0
ELLIPSE
  5
3B9
100
AcDbEntity
  8
0
  6
ByLayer
 62
  256
370
   -1
100
AcDbEllipse
 10
8.5
 20
-41
 30
0
 11
0
 21
-3
 31
0
 40
0.5
 41
4.440892098500626e-16
 42
1.570796326794897
  0
LINE
  5
3BA
100
AcDbEntity
  8
0
  6
ByLayer
 62
  256
370
   -1
100
AcDbLine
 10
10
 20
-39
 11
7
 21
-39
  0
LINE
  5
3BB
100
AcDbEntity
  8
0
  6
ByLayer
 62
  256
370
   -1
100
AcDbLine
 10
10
 20
-33
 11
7
 21
-33
  0
LINE
  5
3BC
100
AcDbEntity
  8
0
  6
ByLayer
 62
  256
370
   -1
100
AcDbLine
 10
7
 20
-33
 11
7
 21
-30
  0
LINE
  5
3BD
100
AcDbEntity
  8
0
  6
ByLayer
 62
  256
370
   -1
100
AcDbLine
 10
7
 20
-30
 11
10
 21
-30
  0
MTEXT
  5
3BE
100
AcDbEntity
  8
Subtitle
  6
ByLayer
 62
  256
370
   -1
100
AcDbMText
 10
5
 20
-28
 30
0
 40
0.5
 41
4.37461122354356
 71
    5
 72
    1
  1
Ta\P(Contains the\PKorean\PHangul\PD/T)
  7
unicode
210
0
220
0
230
1
 50
0
 73
    2
 44
1
  0
LINE
  5
3BF
100
AcDbEntity
  8
0
  6
ByLayer
 62
  256
370
   -1
100
AcDbLine
 10
60
 20
-37
 11
70
 21
-37
  0
ARC
  5
3C0
100
AcDbEntity
  8
0
  6
ByLayer
 62
  256
370
   -1
100
AcDbCircle
 10
60
 20
-39.00000000000001
 40
5
100
AcDbArc
 50
270
 51
1.017777498068325e-13
  0
LINE
  5
3C1
100
AcDbEntity
  8
0
  6
ByLayer
 62
  256
370
   -1
100
AcDbLine
 10
65.00000000000001
 20
-34
 11
65
 21
-39
  0
MTEXT
  5
3C2
100
AcDbEntity
  8
Subtitle
  6
ByLayer
 62
  256
370
   -1
100
AcDbMText
 10
65
 20
-39
 30
0
 40
0.5
 41
4.37461122354356
 71
    5
 72
    1
  1
Unified Na\P(Contains the\Ptraditional\PGreek\PLowercase\PAlpha Glyph)
  7
unicode
210
0
220
0
230
1
 50
0
 73
    2
 44
1
  0
ARC
  5
3C3
100
AcDbEntity
  8
0
  6
ByLayer
 62
  256
370
   -1
100
AcDbCircle
 10
68.5
 20
-42.5
 40
1.5
100
AcDbArc
 50
90.00000000000028
 51
270
  0
ELLIPSE
  5
3C4
100
AcDbEntity
  8
0
  6
ByLayer
 62
  256
370
   -1
100
AcDbEllipse
 10
68.5
 20
-44
 30
0
 11
0
 21
3
 31
0
 40
0.5
 41
4.71238898038469
 42
0
  0
ELLIPSE
  5
3C5
100
AcDbEntity
  8
0
  6
ByLayer
 62
  256
370
   -1
100
AcDbEllipse
 10
68.5
 20
-41
 30
0
 11
0
 21
-3
 31
0
 40
0.5
 41
4.440892098500626e-16
 42
1.570796326794897
  0
LINE
  5
3C6
100
AcDbEntity
  8
0
  6
ByLayer
 62
  256
370
   -1
100
AcDbLine
 10
70
 20
-39
 11
67
 21
-39
  0
LINE
  5
3C7
100
AcDbEntity
  8
Char_Limits
  6
ByLayer
 62
  256
370
   -1
100
AcDbLine
 10
32
 20
-33
 11
32
 21
-23
  0
MTEXT
  5
3C8
100
AcDbEntity
  8
Subtitle
  6
ByLayer
 62
  256
370
   -1
100
AcDbMText
 10
5
 20
5
 30
0
 40
1
 41
0.6666666666666666
 71
    5
 72
    1
  1
A
  7
unicode
210
0
220
0
230
1
 50
0
 73
    2
 44
1
  0
MTEXT
  5
3C9
100
AcDbEntity
  8
Subtitle
  6
ByLayer
 62
  256
370
   -1
100
AcDbMText
 10
38
 20
5
 30
0
 40
1
 41
0.4444444444444444
 71
    5
 72
    1
  1
E
  7
unicode
210
0
220
0
230
1
 50
0
 73
    2
 44
1
  0
MTEXT
  5
3CA
100
AcDbEntity
  8
Subtitle
  6
ByLayer
 62
  256
370
   -1
100
AcDbMText
 10
49
 20
5
 30
0
 40
1
 41
0.5555555555555556
 71
    5
 72
    1
  1
O
  7
unicode
210
0
220
0
230
1
 50
0
 73
    2
 44
1
  0
MTEXT
  5
3CB
100
AcDbEntity
  8
Subtitle
  6
ByLayer
 62
  256
370
   -1
100
AcDbMText
 10
38
 20
-6
 30
0
 40
1
 41
1.333333333333333
 71
    5
 72
    1
  1
Ke
  7
unicode
210
0
220
0
230
1
 50
0
 73
    2
 44
1
  0
MTEXT
  5
3CC
100
AcDbEntity
  8
Subtitle
  6
ByLayer
 62
  256
370
   -1
100
AcDbMText
 10
16
 20
-17
 30
0
 40
1
 41
1.667467623778274
 71
    5
 72
    1
  1
Shi
  7
unicode
210
0
220
0
230
1
 50
0
 73
    2
 44
1
  0
MTEXT
  5
3CD
100
AcDbEntity
  8
Subtitle
  6
ByLayer
 62
  256
370
   -1
100
AcDbMText
 10
27
 20
-17
 30
0
 40
1
 41
1.334134290444941
 71
    5
 72
    1
  1
Su
  7
unicode
210
0
220
0
230
1
 50
0
 73
    2
 44
1
  0
MTEXT
  5
3CE
100
AcDbEntity
  8
Subtitle
  6
ByLayer
 62
  256
370
   -1
100
AcDbMText
 10
16
 20
-28
 30
0
 40
1
 41
1.555555555555555
 71
    5
 72
    1
  1
Chi
  7
unicode
210
0
220
0
230
1
 50
0
 73
    2
 44
1
  0
MTEXT
  5
3CF
100
AcDbEntity
  8
Subtitle
  6
ByLayer
 62
  256
370
   -1
100
AcDbMText
 10
27
 20
-28
 30
0
 40
1
 41
2.111444669309344
 71
    5
 72
    1
  1
Tsu
  7
unicode
210
0
220
0
230
1
 50
0
 73
    2
 44
1
  0
MTEXT
  5
3D0
100
AcDbEntity
  8
Subtitle
  6
ByLayer
 62
  256
370
   -1
100
AcDbMText
 10
38
 20
-28
 30
0
 40
1
 41
1.333333333333333
 71
    5
 72
    1
  1
Te
  7
unicode
210
0
220
0
230
1
 50
0
 73
    2
 44
1
  0
MTEXT
  5
3D1
100
AcDbEntity
  8
Subtitle
  6
ByLayer
 62
  256
370
   -1
100
AcDbMText
 10
27
 20
-39
 30
0
 40
1
 41
1.333333333333333
 71
    5
 72
    1
  1
Nu
  7
unicode
210
0
220
0
230
1
 50
0
 73
    2
 44
1
  0
MTEXT
  5
3D2
100
AcDbEntity
  8
Subtitle
  6
ByLayer
 62
  256
370
   -1
100
AcDbMText
 10
38
 20
-39
 30
0
 40
1
 41
1.333333333333333
 71
    5
 72
    1
  1
Ne
  7
unicode
210
0
220
0
230
1
 50
0
 73
    2
 44
1
  0
MTEXT
  5
3D3
100
AcDbEntity
  8
Subtitle
  6
ByLayer
 62
  256
370
   -1
100
AcDbMText
 10
49
 20
-39
 30
0
 40
1
 41
1.333333333333333
 71
    5
 72
    1
  1
No
  7
unicode
210
0
220
0
230
1
 50
0
 73
    2
 44
1
  0
MTEXT
  5
3D4
100
AcDbEntity
  8
Subtitle
  6
ByLayer
 62
  256
370
   -1
100
AcDbMText
 10
5
 20
-50
 30
0
 40
1
 41
1.333333333333333
 71
    5
 72
    1
  1
Ha
  7
unicode
210
0
220
0
230
1
 50
0
 73
    2
 44
1
  0
MTEXT
  5
3D5
100
AcDbEntity
  8
Subtitle
  6
ByLayer
 62
  256
370
   -1
100
AcDbMText
 10
16
 20
-50
 30
0
 40
1
 41
0.8888888888888888
 71
    5
 72
    1
  1
Hi
  7
unicode
210
0
220
0
230
1
 50
0
 73
    2
 44
1
  0
MTEXT
  5
3D6
100
AcDbEntity
  8
Subtitle
  6
ByLayer
 62
  256
370
   -1
100
AcDbMText
 10
27
 20
-50
 30
0
 40
1
 41
1.222222222222222
 71
    5
 72
    1
  1
Fu
  7
unicode
210
0
220
0
230
1
 50
0
 73
    2
 44
1
  0
MTEXT
  5
3D7
100
AcDbEntity
  8
Subtitle
  6
ByLayer
 62
  256
370
   -1
100
AcDbMText
 10
49
 20
-50
 30
0
 40
1
 41
1.333333333333333
 71
    5
 72
    1
  1
Ho
  7
unicode
210
0
220
0
230
1
 50
0
 73
    2
 44
1
  0
MTEXT
  5
3D8
100
AcDbEntity
  8
Subtitle
  6
ByLayer
 62
  256
370
   -1
100
AcDbMText
 10
5
 20
-61
 30
0
 40
1
 41
1.444444444444444
 71
    5
 72
    1
  1
Ma
  7
unicode
210
0
220
0
230
1
 50
0
 73
    2
 44
1
  0
MTEXT
  5
3D9
100
AcDbEntity
  8
Subtitle
  6
ByLayer
 62
  256
370
   -1
100
AcDbMText
 10
16
 20
-61
 30
0
 40
1
 41
1
 71
    5
 72
    1
  1
Mi
  7
unicode
210
0
220
0
230
1
 50
0
 73
    2
 44
1
  0
MTEXT
  5
3DA
100
AcDbEntity
  8
Subtitle
  6
ByLayer
 62
  256
370
   -1
100
AcDbMText
 10
27
 20
-61
 30
0
 40
1
 41
1.444444444444444
 71
    5
 72
    1
  1
Mu
  7
unicode
210
0
220
0
230
1
 50
0
 73
    2
 44
1
  0
MTEXT
  5
3DB
100
AcDbEntity
  8
Subtitle
  6
ByLayer
 62
  256
370
   -1
100
AcDbMText
 10
16
 20
-72
 30
0
 40
1
 41
1
 71
    5
 72
    1
  1
Yi
  7
unicode
210
0
220
0
230
1
 50
0
 73
    2
 44
1
  0
MTEXT
  5
3DC
100
AcDbEntity
  8
Subtitle
  6
ByLayer
 62
  256
370
   -1
100
AcDbMText
 10
38
 20
-72
 30
0
 40
1
 41
1.444444444444444
 71
    5
 72
    1
  1
Ye
  7
unicode
210
0
220
0
230
1
 50
0
 73
    2
 44
1
  0
MTEXT
  5
3DD
100
AcDbEntity
  8
Subtitle
  6
ByLayer
 62
  256
370
   -1
100
AcDbMText
 10
49
 20
-72
 30
0
 40
1
 41
1.444444444444444
 71
    5
 72
    1
  1
Yo
  7
unicode
210
0
220
0
230
1
 50
0
 73
    2
 44
1
  0
MTEXT
  5
3DE
100
AcDbEntity
  8
Subtitle
  6
ByLayer
 62
  256
370
   -1
100
AcDbMText
 10
27
 20
-83
 30
0
 40
1
 41
1.333333333333333
 71
    5
 72
    1
  1
Ru
  7
unicode
210
0
220
0
230
1
 50
0
 73
    2
 44
1
  0
MTEXT
  5
3DF
100
AcDbEntity
  8
Subtitle
  6
ByLayer
 62
  256
370
   -1
100
AcDbMText
 10
38
 20
-83
 30
0
 40
1
 41
1.333333333333333
 71
    5
 72
    1
  1
Re
  7
unicode
210
0
220
0
230
1
 50
0
 73
    2
 44
1
  0
MTEXT
  5
3E0
100
AcDbEntity
  8
Subtitle
  6
ByLayer
 62
  256
370
   -1
100
AcDbMText
 10
49
 20
-83
 30
0
 40
1
 41
1.333333333333333
 71
    5
 72
    1
  1
Ro
  7
unicode
210
0
220
0
230
1
 50
0
 73
    2
 44
1
  0
MTEXT
  5
3E1
100
AcDbEntity
  8
Subtitle
  6
ByLayer
 62
  256
370
   -1
100
AcDbMText
 10
5
 20
-94
 30
0
 40
1
 41
1.666666666666667
 71
    5
 72
    1
  1
Wa
  7
unicode
210
0
220
0
230
1
 50
0
 73
    2
 44
1
  0
MTEXT
  5
3E2
100
AcDbEntity
  8
Subtitle
  6
ByLayer
 62
  256
370
   -1
100
AcDbMText
 10
16
 20
-94
 30
0
 40
1
 41
1.222222222222222
 71
    5
 72
    1
  1
Wi
  7
unicode
210
0
220
0
230
1
 50
0
 73
    2
 44
1
  0
MTEXT
  5
3E3
100
AcDbEntity
  8
Subtitle
  6
ByLayer
 62
  256
370
   -1
100
AcDbMText
 10
27
 20
-94
 30
0
 40
1
 41
1.666666666666667
 71
    5
 72
    1
  1
Wu
  7
unicode
210
0
220
0
230
1
 50
0
 73
    2
 44
1
  0
MTEXT
  5
3E4
100
AcDbEntity
  8
Subtitle
  6
ByLayer
 62
  256
370
   -1
100
AcDbMText
 10
49
 20
-94
 30
0
 40
1
 41
1.666666666666667
 71
    5
 72
    1
  1
Wo
  7
unicode
210
0
220
0
230
1
 50
0
 73
    2
 44
1
  0
MTEXT
  5
3E5
100
AcDbEntity
  8
Subtitle
  6
ByLayer
 62
  256
370
   -1
100
AcDbMText
 10
65
 20
5
 30
0
 40
1
 41
0.6666666666666666
 71
    5
 72
    1
  1
A
  7
unicode
210
0
220
0
230
1
 50
0
 73
    2
 44
1
  0
MTEXT
  5
3E6
100
AcDbEntity
  8
Subtitle
  6
ByLayer
 62
  256
370
   -1
100
AcDbMText
 10
76
 20
5
 30
0
 40
1
 41
0
 71
    5
 72
    1
  1
I
  7
unicode
210
0
220
0
230
1
 50
0
 73
    2
 44
1
  0
MTEXT
  5
3E7
100
AcDbEntity
  8
Subtitle
  6
ByLayer
 62
  256
370
   -1
100
AcDbMText
 10
98
 20
5
 30
0
 40
1
 41
0.4444444444444444
 71
    5
 72
    1
  1
E
  7
unicode
210
0
220
0
230
1
 50
0
 73
    2
 44
1
  0
MTEXT
  5
3E8
100
AcDbEntity
  8
Subtitle
  6
ByLayer
 62
  256
370
   -1
100
AcDbMText
 10
109
 20
5
 30
0
 40
1
 41
0.5555555555555556
 71
    5
 72
    1
  1
O
  7
unicode
210
0
220
0
230
1
 50
0
 73
    2
 44
1
  0
MTEXT
  5
3E9
100
AcDbEntity
  8
Subtitle
  6
ByLayer
 62
  256
370
   -1
100
AcDbMText
 10
87
 20
-6
 30
0
 40
1
 41
1.333333333333333
 71
    5
 72
    1
  1
Ku
  7
unicode
210
0
220
0
230
1
 50
0
 73
    2
 44
1
  0
MTEXT
  5
3EA
100
AcDbEntity
  8
Subtitle
  6
ByLayer
 62
  256
370
   -1
100
AcDbMText
 10
98
 20
-6
 30
0
 40
1
 41
1.333333333333333
 71
    5
 72
    1
  1
Ke
  7
unicode
210
0
220
0
230
1
 50
0
 73
    2
 44
1
  0
MTEXT
  5
3EB
100
AcDbEntity
  8
Subtitle
  6
ByLayer
 62
  256
370
   -1
100
AcDbMText
 10
76
 20
-17
 30
0
 40
1
 41
1.667467623778274
 71
    5
 72
    1
  1
Shi
  7
unicode
210
0
220
0
230
1
 50
0
 73
    2
 44
1
  0
MTEXT
  5
3EC
100
AcDbEntity
  8
Subtitle
  6
ByLayer
 62
  256
370
   -1
100
AcDbMText
 10
87
 20
-17
 30
0
 40
1
 41
1.334134290444941
 71
    5
 72
    1
  1
Su
  7
unicode
210
0
220
0
230
1
 50
0
 73
    2
 44
1
  0
MTEXT
  5
3ED
100
AcDbEntity
  8
Subtitle
  6
ByLayer
 62
  256
370
   -1
100
AcDbMText
 10
65
 20
-28
 30
0
 40
1
 41
1.333333333333333
 71
    5
 72
    1
  1
Ta
  7
unicode
210
0
220
0
230
1
 50
0
 73
    2
 44
1
  0
MTEXT
  5
3EE
100
AcDbEntity
  8
Subtitle
  6
ByLayer
 62
  256
370
   -1
100
AcDbMText
 10
76
 20
-28
 30
0
 40
1
 41
1.555555555555555
 71
    5
 72
    1
  1
Chi
  7
unicode
210
0
220
0
230
1
 50
0
 73
    2
 44
1
  0
MTEXT
  5
3EF
100
AcDbEntity
  8
Subtitle
  6
ByLayer
 62
  256
370
   -1
100
AcDbMText
 10
98
 20
-28
 30
0
 40
1
 41
1.333333333333333
 71
    5
 72
    1
  1
Te
  7
unicode
210
0
220
0
230
1
 50
0
 73
    2
 44
1
  0
MTEXT
  5
3F0
100
AcDbEntity
  8
Subtitle
  6
ByLayer
 62
  256
370
   -1
100
AcDbMText
 10
87
 20
-39
 30
0
 40
1
 41
1.333333333333333
 71
    5
 72
    1
  1
Nu
  7
unicode
210
0
220
0
230
1
 50
0
 73
    2
 44
1
  0
MTEXT
  5
3F1
100
AcDbEntity
  8
Subtitle
  6
ByLayer
 62
  256
370
   -1
100
AcDbMText
 10
98
 20
-39
 30
0
 40
1
 41
1.333333333333333
 71
    5
 72
    1
  1
Ne
  7
unicode
210
0
220
0
230
1
 50
0
 73
    2
 44
1
  0
MTEXT
  5
3F2
100
AcDbEntity
  8
Subtitle
  6
ByLayer
 62
  256
370
   -1
100
AcDbMText
 10
109
 20
-39
 30
0
 40
1
 41
1.333333333333333
 71
    5
 72
    1
  1
No
  7
unicode
210
0
220
0
230
1
 50
0
 73
    2
 44
1
  0
MTEXT
  5
3F3
100
AcDbEntity
  8
Subtitle
  6
ByLayer
 62
  256
370
   -1
100
AcDbMText
 10
76
 20
-50
 30
0
 40
1
 41
0.8888888888888888
 71
    5
 72
    1
  1
Hi
  7
unicode
210
0
220
0
230
1
 50
0
 73
    2
 44
1
  0
MTEXT
  5
3F4
100
AcDbEntity
  8
Subtitle
  6
ByLayer
 62
  256
370
   -1
100
AcDbMText
 10
87
 20
-50
 30
0
 40
1
 41
1.222222222222222
 71
    5
 72
    1
  1
Fu
  7
unicode
210
0
220
0
230
1
 50
0
 73
    2
 44
1
  0
MTEXT
  5
3F5
100
AcDbEntity
  8
Subtitle
  6
ByLayer
 62
  256
370
   -1
100
AcDbMText
 10
109
 20
-50
 30
0
 40
1
 41
1.333333333333333
 71
    5
 72
    1
  1
Ho
  7
unicode
210
0
220
0
230
1
 50
0
 73
    2
 44
1
  0
MTEXT
  5
3F6
100
AcDbEntity
  8
Subtitle
  6
ByLayer
 62
  256
370
   -1
100
AcDbMText
 10
65
 20
-61
 30
0
 40
1
 41
1.444444444444444
 71
    5
 72
    1
  1
Ma
  7
unicode
210
0
220
0
230
1
 50
0
 73
    2
 44
1
  0
MTEXT
  5
3F7
100
AcDbEntity
  8
Subtitle
  6
ByLayer
 62
  256
370
   -1
100
AcDbMText
 10
76
 20
-61
 30
0
 40
1
 41
1
 71
    5
 72
    1
  1
Mi
  7
unicode
210
0
220
0
230
1
 50
0
 73
    2
 44
1
  0
MTEXT
  5
3F8
100
AcDbEntity
  8
Subtitle
  6
ByLayer
 62
  256
370
   -1
100
AcDbMText
 10
87
 20
-61
 30
0
 40
1
 41
1.444444444444444
 71
    5
 72
    1
  1
Mu
  7
unicode
210
0
220
0
230
1
 50
0
 73
    2
 44
1
  0
MTEXT
  5
3F9
100
AcDbEntity
  8
Subtitle
  6
ByLayer
 62
  256
370
   -1
100
AcDbMText
 10
76
 20
-72
 30
0
 40
1
 41
1
 71
    5
 72
    1
  1
Yi
  7
unicode
210
0
220
0
230
1
 50
0
 73
    2
 44
1
  0
MTEXT
  5
3FA
100
AcDbEntity
  8
Subtitle
  6
ByLayer
 62
  256
370
   -1
100
AcDbMText
 10
87
 20
-72
 30
0
 40
1
 41
1.444444444444444
 71
    5
 72
    1
  1
Yu
  7
unicode
210
0
220
0
230
1
 50
0
 73
    2
 44
1
  0
MTEXT
  5
3FB
100
AcDbEntity
  8
Subtitle
  6
ByLayer
 62
  256
370
   -1
100
AcDbMText
 10
98
 20
-72
 30
0
 40
1
 41
1.444444444444444
 71
    5
 72
    1
  1
Ye
  7
unicode
210
0
220
0
230
1
 50
0
 73
    2
 44
1
  0
MTEXT
  5
3FC
100
AcDbEntity
  8
Subtitle
  6
ByLayer
 62
  256
370
   -1
100
AcDbMText
 10
87
 20
-83
 30
0
 40
1
 41
1.333333333333333
 71
    5
 72
    1
  1
Ru
  7
unicode
210
0
220
0
230
1
 50
0
 73
    2
 44
1
  0
MTEXT
  5
3FD
100
AcDbEntity
  8
Subtitle
  6
ByLayer
 62
  256
370
   -1
100
AcDbMText
 10
98
 20
-83
 30
0
 40
1
 41
1.333333333333333
 71
    5
 72
    1
  1
Re
  7
unicode
210
0
220
0
230
1
 50
0
 73
    2
 44
1
  0
MTEXT
  5
3FE
100
AcDbEntity
  8
Subtitle
  6
ByLayer
 62
  256
370
   -1
100
AcDbMText
 10
109
 20
-83
 30
0
 40
1
 41
1.333333333333333
 71
    5
 72
    1
  1
Ro
  7
unicode
210
0
220
0
230
1
 50
0
 73
    2
 44
1
  0
MTEXT
  5
3FF
100
AcDbEntity
  8
Subtitle
  6
ByLayer
 62
  256
370
   -1
100
AcDbMText
 10
65
 20
-94
 30
0
 40
1
 41
1.666666666666667
 71
    5
 72
    1
  1
Wa
  7
unicode
210
0
220
0
230
1
 50
0
 73
    2
 44
1
  0
MTEXT
  5
400
100
AcDbEntity
  8
Subtitle
  6
ByLayer
 62
  256
370
   -1
100
AcDbMText
 10
76
 20
-94
 30
0
 40
1
 41
1.222222222222222
 71
    5
 72
    1
  1
Wi
  7
unicode
210
0
220
0
230
1
 50
0
 73
    2
 44
1
  0
MTEXT
  5
401
100
AcDbEntity
  8
Subtitle
  6
ByLayer
 62
  256
370
   -1
100
AcDbMText
 10
87
 20
-94
 30
0
 40
1
 41
1.666666666666667
 71
    5
 72
    1
  1
Wu
  7
unicode
210
0
220
0
230
1
 50
0
 73
    2
 44
1
  0
MTEXT
  5
402
100
AcDbEntity
  8
Subtitle
  6
ByLayer
 62
  256
370
   -1
100
AcDbMText
 10
109
 20
-94
 30
0
 40
1
 41
1.666666666666667
 71
    5
 72
    1
  1
Wo
  7
unicode
210
0
220
0
230
1
 50
0
 73
    2
 44
1
  0
LINE
  5
403
100
AcDbEntity
  8
Char_Limits
  6
ByLayer
 62
  256
370
   -1
100
AcDbLine
 10
10
 20
-110
 11
10
 21
-100
  0
LINE
  5
404
100
AcDbEntity
  8
Char_Limits
  6
ByLayer
 62
  256
370
   -1
100
AcDbLine
 10
10
 20
-100
 11
0
 21
-100
  0
LINE
  5
405
100
AcDbEntity
  8
Char_Limits
  6
ByLayer
 62
  256
370
   -1
100
AcDbLine
 10
0
 20
-100
 11
0
 21
-110
  0
LINE
  5
406
100
AcDbEntity
  8
Char_Limits
  6
ByLayer
 62
  256
370
   -1
100
AcDbLine
 10
0
 20
-110
 11
10
 21
-110
  0
MTEXT
  5
407
100
AcDbEntity
  8
Subtitle
  6
ByLayer
 62
  256
370
   -1
100
AcDbMText
 10
5
 20
-105
 30
0
 40
1
 41
3.667467623778274
 71
    5
 72
    1
  1
Nasal\PSound
  7
unicode
210
0
220
0
230
1
 50
0
 73
    2
 44
1
  0
LINE
  5
408
100
AcDbEntity
  8
Char_Limits
  6
ByLayer
 62
  256
370
   -1
100
AcDbLine
 10
114
 20
-110
 11
114
 21
-100
  0
LINE
  5
409
100
AcDbEntity
  8
Char_Limits
  6
ByLayer
 62
  256
370
   -1
100
AcDbLine
 10
114
 20
-100
 11
104
 21
-100
  0
LINE
  5
40A
100
AcDbEntity
  8
Char_Limits
  6
ByLayer
 62
  256
370
   -1
100
AcDbLine
 10
104
 20
-100
 11
104
 21
-110
  0
LINE
  5
40B
100
AcDbEntity
  8
Char_Limits
  6
ByLayer
 62
  256
370
   -1
100
AcDbLine
 10
104
 20
-110
 11
114
 21
-110
  0
MTEXT
  5
40C
100
AcDbEntity
  8
Subtitle
  6
ByLayer
 62
  256
370
   -1
100
AcDbMText
 10
109
 20
-105
 30
0
 40
1
 41
3.667467623778274
 71
    5
 72
    1
  1
Nasal\PSound
  7
unicode
210
0
220
0
230
1
 50
0
 73
    2
 44
1
  0
LINE
  5
40D
100
AcDbEntity
  8
0
  6
ByLayer
 62
  256
370
   -1
100
AcDbLine
 10
114
 20
-100
 11
104
 21
-110
  0
LINE
  5
40E
100
AcDbEntity
  8
0
  6
ByLayer
 62
  256
370
   -1
100
AcDbLine
 10
104
 20
-103
 11
108
 21
-103
  0
LINE
  5
40F
100
AcDbEntity
  8
0
  6
ByLayer
 62
  256
370
   -1
100
AcDbLine
 10
104
 20
-110
 11
104
 21
-108
  0
ARC
  5
410
100
AcDbEntity
  8
0
  6
ByLayer
 62
  256
370
   -1
100
AcDbCircle
 10
40.5
 20
-96.49999999999986
 40
2.5
100
AcDbArc
 50
180
 51
0
  0
ARC
  5
411
100
AcDbEntity
  8
0
  6
ByLayer
 62
  256
370
   -1
100
AcDbCircle
 10
37.37500000000014
 20
-96.49999999999984
 40
0.6249999999998608
100
AcDbArc
 50
0
 51
126.8698447420625
  0
LINE
  5
412
100
AcDbEntity
  8
0
  6
ByLayer
 62
  256
370
   -1
100
AcDbLine
 10
33
 20
-99
 11
38.60000000000007
 21
-94.80000000000017
  0
ARC
  5
413
100
AcDbEntity
  8
0
  6
ByLayer
 62
  256
370
   -1
100
AcDbCircle
 10
40.5
 20
2.500000000000142
 40
2.5
100
AcDbArc
 50
180
 51
0
  0
ARC
  5
414
100
AcDbEntity
  8
0
  6
ByLayer
 62
  256
370
   -1
100
AcDbCircle
 10
37.37500000000014
 20
2.500000000000156
 40
0.6249999999998608
100
AcDbArc
 50
0
 51
126.8698447420625
  0
LINE
  5
415
100
AcDbEntity
  8
0
  6
ByLayer
 62
  256
370
   -1
100
AcDbLine
 10
33
 20
0
 11
43
 21
7.499999999999602
  0
LINE
  5
416
100
AcDbEntity
  8
0
  6
ByLayer
 62
  256
370
   -1
100
AcDbLine
 10
43
 20
7.499999999999602
 11
33
 21
7.499999999999602
  0
LINE
  5
417
100
AcDbEntity
  8
0
  6
ByLayer
 62
  256
370
   -1
100
AcDbLine
 10
34
 20
10
 11
42
 21
9
  0
ELLIPSE
  5
418
100
AcDbEntity
  8
0
  6
ByLayer
 62
  256
370
   -1
100
AcDbEllipse
 10
27
 20
-41.5
 30
0
 11
-5
 21
0
 31
0
 40
0.5
 41
3.14159265358979
 42
3.108624468950438e-15
  0
ARC
  5
419
100
AcDbEntity
  8
0
  6
ByLayer
 62
  256
370
   -1
100
AcDbCircle
 10
24.5
 20
-41.5
 40
2.5
100
AcDbArc
 50
180.0000000000001
 51
270.0000000000002
  0
ELLIPSE
  5
41A
100
AcDbEntity
  8
0
  6
ByLayer
 62
  256
370
   -1
100
AcDbEllipse
 10
29.5
 20
-34
 30
0
 11
0
 21
-10
 31
0
 40
0.75
 41
4.71238898038469
 42
0
  0
ELLIPSE
  5
41B
100
AcDbEntity
  8
0
  6
ByLayer
 62
  256
370
   -1
100
AcDbEllipse
 10
24.5
 20
-34
 30
0
 11
7.105427357601002e-15
 21
-10
 31
0
 40
0.75
 41
6.283185307179585
 42
1.570796326794896
  0
ELLIPSE
  5
41C
100
AcDbEntity
  8
0
  6
ByLayer
 62
  256
370
   -1
100
AcDbEllipse
 10
30.5
 20
-41.50000000000001
 30
0
 11
3.552713678800501e-15
 21
-2.499999999999609
 31
0
 40
0.6000000000000938
 41
6.283185307179584
 42
1.570796326794896
  0
LINE
  5
41D
100
AcDbEntity
  8
0
  6
ByLayer
 62
  256
370
   -1
100
AcDbLine
 10
30.8
 20
-43.09999999999999
 11
32
 21
-44
  0
ARC
  5
41E
100
AcDbEntity
  8
0
  6
ByLayer
 62
  256
370
   -1
100
AcDbCircle
 10
30.5
 20
-43.5
 40
0.5
100
AcDbArc
 50
53.13017646906384
 51
270
  0
ELLIPSE
  5
41F
100
AcDbEntity
  8
0
  6
ByLayer
 62
  256
370
   -1
100
AcDbEllipse
 10
41.5
 20
-41.50000000000001
 30
0
 11
3.552713678800501e-15
 21
-2.499999999999609
 31
0
 40
0.6000000000000938
 41
6.283185307179584
 42
1.570796326794896
  0
LINE
  5
420
100
AcDbEntity
  8
0
  6
ByLayer
 62
  256
370
   -1
100
AcDbLine
 10
41.8
 20
-43.09999999999999
 11
43
 21
-44
  0
ARC
  5
421
100
AcDbEntity
  8
0
  6
ByLayer
 62
  256
370
   -1
100
AcDbCircle
 10
41.5
 20
-43.5
 40
0.5
100
AcDbArc
 50
53.13017646906384
 51
270
  0
LINE
  5
422
100
AcDbEntity
  8
0
  6
ByLayer
 62
  256
370
   -1
100
AcDbLine
 10
33
 20
-36
 11
37
 21
-36
  0
LINE
  5
423
100
AcDbEntity
  8
0
  6
ByLayer
 62
  256
370
   -1
100
AcDbLine
 10
37
 20
-36
 11
33
 21
-44
  0
ARC
  5
424
100
AcDbEntity
  8
0
  6
ByLayer
 62
  256
370
   -1
100
AcDbCircle
 10
38.86881039375366
 20
-41.50000000000001
 40
4.13118960624631
100
AcDbArc
 50
0
 51
153.4349468341196
  0
LINE
  5
425
100
AcDbEntity
  8
0
  6
ByLayer
 62
  256
370
   -1
100
AcDbLine
 10
34
 20
-34
 11
36
 21
-44
  0
ELLIPSE
  5
426
100
AcDbEntity
  8
0
  6
ByLayer
 62
  256
370
   -1
100
AcDbEllipse
 10
8.5
 20
-96.5
 30
0
 11
3.552713678800501e-15
 21
-2.499999999999609
 31
0
 40
0.6000000000000938
 41
6.283185307179584
 42
1.570796326794896
  0
LINE
  5
427
100
AcDbEntity
  8
0
  6
ByLayer
 62
  256
370
   -1
100
AcDbLine
 10
0
 20
-91
 11
4
 21
-91
  0
LINE
  5
428
100
AcDbEntity
  8
0
  6
ByLayer
 62
  256
370
   -1
100
AcDbLine
 10
4
 20
-91
 11
0
 21
-99
  0
ARC
  5
429
100
AcDbEntity
  8
0
  6
ByLayer
 62
  256
370
   -1
100
AcDbCircle
 10
5.868810393753662
 20
-96.5
 40
4.13118960624631
100
AcDbArc
 50
0
 51
153.4349468341196
  0
LINE
  5
42A
100
AcDbEntity
  8
0
  6
ByLayer
 62
  256
370
   -1
100
AcDbLine
 10
1
 20
-89
 11
3
 21
-99
  0
LINE
  5
42B
100
AcDbEntity
  8
0
  6
ByLayer
 62
  256
370
   -1
100
AcDbLine
 10
8.5
 20
-98.9999999999996
 11
5
 21
-99
  0
ARC
  5
42C
100
AcDbEntity
  8
0
  6
ByLayer
 62
  256
370
   -1
100
AcDbCircle
 10
7.5
 20
-107.5
 40
2.5
100
AcDbArc
 50
180
 51
0
  0
LINE
  5
42D
100
AcDbEntity
  8
0
  6
ByLayer
 62
  256
370
   -1
100
AcDbLine
 10
5
 20
-100
 11
0
 21
-110
  0
ARC
  5
42E
100
AcDbEntity
  8
0
  6
ByLayer
 62
  256
370
   -1
100
AcDbCircle
 10
3.229490168751593
 20
-107.5
 40
1.770509831248439
100
AcDbArc
 50
0
 51
153.4348793154458
  0
LINE
  5
42F
100
AcDbEntity
  8
0
  6
ByLayer
 62
  256
370
   -1
100
AcDbLine
 10
33
 20
-80
 11
37
 21
-80
  0
LINE
  5
430
100
AcDbEntity
  8
0
  6
ByLayer
 62
  256
370
   -1
100
AcDbLine
 10
37
 20
-80
 11
33
 21
-88
  0
LINE
  5
431
100
AcDbEntity
  8
0
  6
ByLayer
 62
  256
370
   -1
100
AcDbLine
 10
34
 20
-78
 11
36
 21
-88
  0
ARC
  5
432
100
AcDbEntity
  8
0
  6
ByLayer
 62
  256
370
   -1
100
AcDbCircle
 10
42
 20
-87
 40
1
100
AcDbArc
 50
180
 51
0
  0
ARC
  5
433
100
AcDbEntity
  8
0
  6
ByLayer
 62
  256
370
   -1
100
AcDbCircle
 10
37.45898033750315
 20
-87
 40
3.541019662496841
100
AcDbArc
 50
0
 51
153.4349230644532
  0
LINE
  5
434
100
AcDbEntity
  8
0
  6
ByLayer
 62
  256
370
   -1
100
AcDbLine
 10
43
 20
-87
 11
43
 21
-85
  0
LINE
  5
435
100
AcDbEntity
  8
0
  6
ByLayer
 62
  256
370
   -1
100
AcDbLine
 10
33
 20
-67
 11
35
 21
-67
  0
LINE
  5
436
100
AcDbEntity
  8
0
  6
ByLayer
 62
  256
370
   -1
100
AcDbLine
 10
33
 20
-69
 11
33
 21
-77
  0
ARC
  5
437
100
AcDbEntity
  8
0
  6
ByLayer
 62
  256
370
   -1
100
AcDbCircle
 10
35
 20
-69
 40
2
100
AcDbArc
 50
90
 51
179.9999999999996
  0
ARC
  5
438
100
AcDbEntity
  8
0
  6
ByLayer
 62
  256
370
   -1
100
AcDbCircle
 10
38
 20
-72
 40
5
100
AcDbArc
 50
270
 51
540
  0
LINE
  5
439
100
AcDbEntity
  8
0
  6
ByLayer
 62
  256
370
   -1
100
AcDbLine
 10
38
 20
-77
 11
43
 21
-77
  0
ELLIPSE
  5
43A
100
AcDbEntity
  8
0
  6
ByLayer
 62
  256
370
   -1
100
AcDbEllipse
 10
13.5
 20
-72.00000000000001
 30
0
 11
-2.664535259100376e-15
 21
-5
 31
0
 40
0.5
 41
3.141592573754643
 42
7.983515359910598e-08
  0
ARC
  5
43B
100
AcDbEntity
  8
0
  6
ByLayer
 62
  256
370
   -1
100
AcDbCircle
 10
16.00000026227944
 20
-77
 40
2.500001158945948
100
AcDbArc
 50
63.43494804479503
 51
180
  0
ARC
  5
43C
100
AcDbEntity
  8
0
  6
ByLayer
 62
  256
370
   -1
100
AcDbCircle
 10
20
 20
-74
 40
1
100
AcDbArc
 50
180
 51
269.9999999999996
  0
ELLIPSE
  5
43D
100
AcDbEntity
  8
0
  6
ByLayer
 62
  256
370
   -1
100
AcDbEllipse
 10
16
 20
-74
 30
0
 11
0
 21
7
 31
0
 40
0.4285714285714285
 41
4.71238898038469
 42
1.570796326794897
  0
LINE
  5
43E
100
AcDbEntity
  8
0
  6
ByLayer
 62
  256
370
   -1
100
AcDbLine
 10
13
 20
-74
 11
13
 21
-75
  0
ELLIPSE
  5
43F
100
AcDbEntity
  8
0
  6
ByLayer
 62
  256
370
   -1
100
AcDbEllipse
 10
17
 20
-77
 30
0
 11
-2
 21
0
 31
0
 40
0.5
 41
3.898724488850337
 42
4.440892098500626e-16
  0
ARC
  5
440
100
AcDbEntity
  8
0
  6
ByLayer
 62
  256
370
   -1
100
AcDbCircle
 10
20
 20
-76
 40
1
100
AcDbArc
 50
242.1168384032773
 51
450.0000000000004
  0
ELLIPSE
  5
441
100
AcDbEntity
  8
0
  6
ByLayer
 62
  256
370
   -1
100
AcDbEllipse
 10
29.5
 20
-28
 30
0
 11
0
 21
5
 31
0
 40
0.5
 41
3.141592653589795
 42
4.71238898038469
  0
LINE
  5
442
100
AcDbEntity
  8
0
  6
ByLayer
 62
  256
370
   -1
100
AcDbLine
 10
24.64705882352941
 20
-23.58823529411764
 11
22
 21
-25
  0
ARC
  5
443
100
AcDbEntity
  8
0
  6
ByLayer
 62
  256
370
   -1
100
AcDbCircle
 10
27
 20
-28
 40
5
100
AcDbArc
 50
359.9999999999999
 51
478.0724869358531
  0
LINE
  5
444
100
AcDbEntity
  8
0
  6
ByLayer
 62
  256
370
   -1
100
AcDbLine
 10
18.4536179336934
 20
-76.31316033478603
 11
19.53232993191593
 21
-76.88390310974577
  0
LINE
  5
445
100
AcDbEntity
  8
Char_Limits
  6
ByLayer
 62
  256
370
   -1
100
AcDbLine
 10
54
 20
10
 11
0
 21
10
  0
LINE
  5
446
100
AcDbEntity
  8
Char_Limits
  6
ByLayer
 62
  256
370
   -1
100
AcDbLine
 10
114
 20
-99
 11
60
 21
-99
  0
LINE
  5
447
100
AcDbEntity
  8
Char_Limits
  6
ByLayer
 62
  256
370
   -1
100
AcDbLine
 10
54
 20
-99
 11
0
 21
-99
  0
LINE
  5
448
100
AcDbEntity
  8
Char_Limits
  6
ByLayer
 62
  256
370
   -1
100
AcDbLine
 10
60
 20
10
 11
114
 21
10
  0
LINE
  5
449
100
AcDbEntity
  8
Char_Limits
  6
ByLayer
 62
  256
370
   -1
100
AcDbLine
 10
115
 20
11
 11
-1
 21
11
  0
LINE
  5
44A
100
AcDbEntity
  8
Char_Limits
  6
ByLayer
 62
  256
370
   -1
100
AcDbLine
 10
56.50000000000001
 20
-116
 11
56.50000000000001
 21
-106
  0
MTEXT
  5
44B
100
AcDbEntity
  8
Subtitle
  6
ByLayer
 62
  256
370
   -1
100
AcDbMText
 10
51.50000000000001
 20
-111
 30
0
 40
1
 41
4.333333333333333
 71
    5
 72
    1
  1
Glottal\PStop
  7
unicode
210
0
220
0
230
1
 50
0
 73
    2
 44
1
  0
LINE
  5
44C
100
AcDbEntity
  8
Char_Limits
  6
ByLayer
 62
  256
370
   -1
100
AcDbLine
 10
46.50000000000001
 20
-106
 11
56.50000000000001
 21
-106
  0
LINE
  5
44D
100
AcDbEntity
  8
Char_Limits
  6
ByLayer
 62
  256
370
   -1
100
AcDbLine
 10
57.5
 20
-106
 11
57.5
 21
-116
  0
MTEXT
  5
44E
100
AcDbEntity
  8
Subtitle
  6
ByLayer
 62
  256
370
   -1
100
AcDbMText
 10
62.5
 20
-111
 30
0
 40
1
 41
6.333333333333332
 71
    5
 72
    1
  1
Prolonged\Psound
  7
unicode
210
0
220
0
230
1
 50
0
 73
    2
 44
1
  0
LINE
  5
44F
100
AcDbEntity
  8
Char_Limits
  6
ByLayer
 62
  256
370
   -1
100
AcDbLine
 10
57.5
 20
-106
 11
67.5
 21
-106
  0
LINE
  5
450
100
AcDbEntity
  8
Char_Limits
  6
ByLayer
 62
  256
370
   -1
100
AcDbLine
 10
46.50000000000001
 20
-101
 11
46.50000000000001
 21
-116
  0
LINE
  5
451
100
AcDbEntity
  8
Char_Limits
  6
ByLayer
 62
  256
370
   -1
100
AcDbLine
 10
67.5
 20
-101
 11
67.5
 21
-116
  0
LINE
  5
452
100
AcDbEntity
  8
Char_Limits
  6
ByLayer
 62
  256
370
   -1
100
AcDbLine
 10
46.50000000000001
 20
-101
 11
67.5
 21
-101
  0
MTEXT
  5
453
100
AcDbEntity
  8
Subtitle
  6
ByLayer
 62
  256
370
   -1
100
AcDbMText
 10
57
 20
-103.5
 30
0
 40
2
 41
17.94657963434898
 71
    5
 72
    1
  1
Misc. Symbols
  7
unicode
210
0
220
0
230
1
 50
0
 73
    2
 44
1
  0
ARC
  5
454
100
AcDbEntity
  8
0
  6
ByLayer
 62
  256
370
   -1
100
AcDbCircle
 10
66.13397459622018
 20
-110.5000000000027
 40
0.5
100
AcDbArc
 50
269.9999999998241
 51
329.9999999999737
  0
ARC
  5
455
100
AcDbEntity
  8
0
  6
ByLayer
 62
  256
370
   -1
100
AcDbCircle
 10
66.13397459621712
 20
-111.4999999999992
 40
0.5
100
AcDbArc
 50
30.00000000000857
 51
89.99999999982576
  0
ARC
  5
456
100
AcDbEntity
  8
0
  6
ByLayer
 62
  256
370
   -1
100
AcDbCircle
 10
67
 20
-111.0000000000001
 40
0.5
100
AcDbArc
 50
209.9999999999906
 51
150.0000000000265
  0
ARC
  5
457
100
AcDbEntity
  8
0
  6
ByLayer
 62
  256
370
   -1
100
AcDbCircle
 10
58.86602540377982
 20
-110.5000000000027
 40
0.5
100
AcDbArc
 50
210.0000000000263
 51
270.0000000001759
  0
ARC
  5
458
100
AcDbEntity
  8
0
  6
ByLayer
 62
  256
370
   -1
100
AcDbCircle
 10
58.86602540378288
 20
-111.4999999999992
 40
0.5
100
AcDbArc
 50
90.00000000017424
 51
149.9999999999914
  0
ARC
  5
459
100
AcDbEntity
  8
0
  6
ByLayer
 62
  256
370
   -1
100
AcDbCircle
 10
58
 20
-111.0000000000001
 40
0.5
100
AcDbArc
 50
29.9999999999735
 51
330.0000000000094
  0
LINE
  5
45A
100
AcDbEntity
  8
0
  6
ByLayer
 62
  256
370
   -1
100
AcDbLine
 10
58.86602674190231
 20
-111.000000000001
 11
66.13397459621865
 21
-111.0000000000027
  0
LINE
  5
45B
100
AcDbEntity
  8
Char_Limits
  6
ByLayer
 62
  256
370
   -1
100
AcDbLine
 10
46.50000000000001
 20
-116
 11
67.5
 21
-116
  0
MTEXT
  5
45C
100
AcDbEntity
  8
Subtitle
  6
ByLayer
 62
  256
370
   -1
100
AcDbMText
 10
62
 20
-128
 30
0
 40
1
 41
6.557023629063627
 71
    5
 72
    1
  1
Vowel\PSupressor
  7
unicode
210
0
220
0
230
1
 50
0
 73
    2
 44
1
  0
MTEXT
  5
45D
100
AcDbEntity
  8
Subtitle
  6
ByLayer
 62
  256
370
   -1
100
AcDbMText
 10
51
 20
-128
 30
0
 40
1
 41
7.554444444444444
 71
    5
 72
    1
  1
Maru\P(second\Pmodificator)
  7
unicode
210
0
220
0
230
1
 50
0
 73
    2
 44
1
  0
MTEXT
  5
45E
100
AcDbEntity
  8
Subtitle
  6
ByLayer
 62
  256
370
   -1
100
AcDbMText
 10
40
 20
-128
 30
0
 40
1
 41
7.554444444444444
 71
    5
 72
    1
  1
Ten-Ten\P(first\Pmodificator)
  7
unicode
210
0
220
0
230
1
 50
0
 73
    2
 44
1
  0
MTEXT
  5
45F
100
AcDbEntity
  8
Subtitle
  6
ByLayer
 62
  256
370
   -1
100
AcDbMText
 10
73
 20
-128
 30
0
 40
1
 41
6.777777777777778
 71
    5
 72
    1
  1
Gemination
  7
unicode
210
0
220
0
230
1
 50
0
 73
    2
 44
1
  0
MTEXT
  5
460
100
AcDbEntity
  8
Subtitle
  6
ByLayer
 62
  256
370
   -1
100
AcDbMText
 10
56.5
 20
-120.5
 30
0
 40
3
 41
17.33433400792803
 71
    5
 72
    1
  1
Diacritics
  7
unicode
210
0
220
0
230
1
 50
0
 73
    2
 44
1
  0
LINE
  5
461
100
AcDbEntity
  8
Char_Limits
  6
ByLayer
 62
  256
370
   -1
100
AcDbLine
 10
45.5
 20
-133
 11
45.5
 21
-123
  0
LINE
  5
462
100
AcDbEntity
  8
Char_Limits
  6
ByLayer
 62
  256
370
   -1
100
AcDbLine
 10
56.5
 20
-133
 11
56.5
 21
-123
  0
LINE
  5
463
100
AcDbEntity
  8
Char_Limits
  6
ByLayer
 62
  256
370
   -1
100
AcDbLine
 10
46.5
 20
-123
 11
46.5
 21
-133
  0
LINE
  5
464
100
AcDbEntity
  8
Char_Limits
  6
ByLayer
 62
  256
370
   -1
100
AcDbLine
 10
57.5
 20
-123
 11
57.5
 21
-133
  0
LINE
  5
465
100
AcDbEntity
  8
Char_Limits
  6
ByLayer
 62
  256
370
   -1
100
AcDbLine
 10
35.5
 20
-123
 11
45.5
 21
-123
  0
LINE
  5
466
100
AcDbEntity
  8
Char_Limits
  6
ByLayer
 62
  256
370
   -1
100
AcDbLine
 10
46.5
 20
-123
 11
56.5
 21
-123
  0
LINE
  5
467
100
AcDbEntity
  8
Char_Limits
  6
ByLayer
 62
  256
370
   -1
100
AcDbLine
 10
57.5
 20
-123
 11
67.5
 21
-123
  0
LINE
  5
468
100
AcDbEntity
  8
Char_Limits
  6
ByLayer
 62
  256
370
   -1
100
AcDbLine
 10
35.5
 20
-118
 11
35.5
 21
-133
  0
LINE
  5
469
100
AcDbEntity
  8
Char_Limits
  6
ByLayer
 62
  256
370
   -1
100
AcDbLine
 10
68.5
 20
-123
 11
68.5
 21
-133
  0
LINE
  5
46A
100
AcDbEntity
  8
Char_Limits
  6
ByLayer
 62
  256
370
   -1
100
AcDbLine
 10
68.5
 20
-123
 11
78.5
 21
-123
  0
LINE
  5
46B
100
AcDbEntity
  8
Char_Limits
  6
ByLayer
 62
  256
370
   -1
100
AcDbLine
 10
35.5
 20
-133
 11
78.5
 21
-133
  0
LINE
  5
46C
100
AcDbEntity
  8
Char_Limits
  6
ByLayer
 62
  256
370
   -1
100
AcDbLine
 10
35.5
 20
-118
 11
78.5
 21
-118
  0
LINE
  5
46D
100
AcDbEntity
  8
Char_Limits
  6
ByLayer
 62
  256
370
   -1
100
AcDbLine
 10
78.5
 20
-118
 11
78.5
 21
-133
  0
LINE
  5
46E
100
AcDbEntity
  8
Char_Limits
  6
ByLayer
 62
  256
370
   -1
100
AcDbLine
 10
67.5
 20
-123
 11
67.5
 21
-133
  0
CIRCLE
  5
46F
100
AcDbEntity
  8
0
  6
ByLayer
 62
  256
370
   -1
100
AcDbCircle
 10
71
 20
-125.5
 40
1.5
  0
CIRCLE
  5
470
100
AcDbEntity
  8
0
  6
ByLayer
 62
  256
370
   -1
100
AcDbCircle
 10
54
 20
-125.5
 40
2.5
  0
CIRCLE
  5
471
100
AcDbEntity
  8
0
  6
ByLayer
 62
  256
370
   -1
100
AcDbCircle
 10
54
 20
-125.5
 40
2
  0
ARC
  5
472
100
AcDbEntity
  8
0
  6
ByLayer
 62
  256
370
   -1
100
AcDbCircle
 10
62.5
 20
-133
 40
5
100
AcDbArc
 50
0
 51
90
  0
LINE
  5
473
100
AcDbEntity
  8
0
  6
ByLayer
 62
  256
370
   -1
100
AcDbLine
 10
57.5
 20
-128
 11
62.5
 21
-128
  0
LINE
  5
474
100
AcDbEntity
  8
0
  6
ByLayer
 62
  256
370
   -1
100
AcDbLine
 10
41.5
 20
-123
 11
45.5
 21
-127
  0
LINE
  5
475
100
AcDbEntity
  8
0
  6
ByLayer
 62
  256
370
   -1
100
AcDbLine
 10
40.5
 20
-124
 11
44.5
 21
-128
  0
ARC
  5
476
100
AcDbEntity
  8
0
  6
ByLayer
 62
  256
370
   -1
100
AcDbCircle
 10
52.99999999998919
 20
-115.9999999999647
 40
1.5
100
AcDbArc
 50
120.0000000000263
 51
180.0000000001759
  0
ARC
  5
477
100
AcDbEntity
  8
0
  6
ByLayer
 62
  256
370
   -1
100
AcDbCircle
 10
49.99999999999994
 20
-115.9999999999739
 40
1.5
100
AcDbArc
 50
1.743452854191041e-10
 51
59.99999999999138
  0
ARC
  5
478
100
AcDbEntity
  8
0
  6
ByLayer
 62
  256
370
   -1
100
AcDbCircle
 10
51.4999999999972
 20
-113.4019237886252
 40
1.5
100
AcDbArc
 50
299.9999999999735
 51
240.0000000000094
  0
LINE
  5
479
100
AcDbEntity
  8
Char_Limits
  6
ByLayer
 62
  256
370
   -1
100
AcDbLine
 10
-1
 20
11
 11
-1.000000000000026
 21
-152
  0
LINE
  5
47A
100
AcDbEntity
  8
Char_Limits
  6
ByLayer
 62
  256
370
   -1
100
AcDbLine
 10
115
 20
-152
 11
115
 21
11
  0
LINE
  5
47B
100
AcDbEntity
  8
Char_Limits
  6
ByLayer
 62
  256
370
   -1
100
AcDbLine
 10
-1.000000000000026
 20
-152
 11
115
 21
-152
  0
ARC
  5
47C
100
AcDbEntity
  8
0
  6
ByLayer
 62
  256
370
   -1
100
AcDbCircle
 10
90
 20
-86
 40
2
100
AcDbArc
 50
180
 51
0
  0
LINE
  5
47D
100
AcDbEntity
  8
0
  6
ByLayer
 62
  256
370
   -1
100
AcDbLine
 10
88
 20
-78
 11
88
 21
-86
  0
LINE
  5
47E
100
AcDbEntity
  8
0
  6
ByLayer
 62
  256
370
   -1
100
AcDbLine
 10
92
 20
-80.5
 11
92
 21
-86
  0
LINE
  5
47F
100
AcDbEntity
  8
Char_Limits
  6
ByLayer
 62
  256
370
   -1
100
AcDbLine
 10
56.5
 20
-150
 11
56.5
 21
-140
  0
LINE
  5
480
100
AcDbEntity
  8
Char_Limits
  6
ByLayer
 62
  256
370
   -1
100
AcDbLine
 10
46.5
 20
-140
 11
56.5
 21
-140
  0
LINE
  5
481
100
AcDbEntity
  8
Char_Limits
  6
ByLayer
 62
  256
370
   -1
100
AcDbLine
 10
57.49999999999999
 20
-140
 11
57.49999999999999
 21
-150
  0
LINE
  5
482
100
AcDbEntity
  8
Char_Limits
  6
ByLayer
 62
  256
370
   -1
100
AcDbLine
 10
57.49999999999999
 20
-140
 11
67.5
 21
-140
  0
LINE
  5
483
100
AcDbEntity
  8
Char_Limits
  6
ByLayer
 62
  256
370
   -1
100
AcDbLine
 10
46.5
 20
-135
 11
46.5
 21
-150
  0
LINE
  5
484
100
AcDbEntity
  8
Char_Limits
  6
ByLayer
 62
  256
370
   -1
100
AcDbLine
 10
67.5
 20
-135
 11
67.5
 21
-150
  0
LINE
  5
485
100
AcDbEntity
  8
Char_Limits
  6
ByLayer
 62
  256
370
   -1
100
AcDbLine
 10
46.5
 20
-135
 11
67.5
 21
-135
  0
LINE
  5
486
100
AcDbEntity
  8
Char_Limits
  6
ByLayer
 62
  256
370
   -1
100
AcDbLine
 10
46.5
 20
-150
 11
67.5
 21
-150
  0
MTEXT
  5
487
100
AcDbEntity
  8
Subtitle
  6
ByLayer
 62
  256
370
   -1
100
AcDbMText
 10
56.99999999999999
 20
-137.5
 30
0
 40
2
 41
15.72369029573029
 71
    5
 72
    1
  1
New Sounds
  7
unicode
210
0
220
0
230
1
 50
0
 73
    2
 44
1
  0
LINE
  5
488
100
AcDbEntity
  8
0
  6
ByLayer
 62
  256
370
   -1
100
AcDbLine
 10
46.5
 20
-140
 11
46.5
 21
-150
  0
LINE
  5
489
100
AcDbEntity
  8
0
  6
ByLayer
 62
  256
370
   -1
100
AcDbLine
 10
46.5
 20
-150
 11
56.5
 21
-150
  0
LINE
  5
48A
100
AcDbEntity
  8
0
  6
ByLayer
 62
  256
370
   -1
100
AcDbLine
 10
56.5
 20
-150
 11
56.5
 21
-140
  0
LINE
  5
48B
100
AcDbEntity
  8
0
  6
ByLayer
 62
  256
370
   -1
100
AcDbLine
 10
56.5
 20
-140
 11
46.5
 21
-140
  0
LINE
  5
48C
100
AcDbEntity
  8
0
  6
ByLayer
 62
  256
370
   -1
100
AcDbLine
 10
47.5
 20
-141
 11
55.5
 21
-149
  0
MTEXT
  5
48D
100
AcDbEntity
  8
Subtitle
  6
ByLayer
 62
  256
370
   -1
100
AcDbMText
 10
51.5
 20
-145
 30
0
 40
1
 41
4.861111111111111
 71
    5
 72
    1
  1
Initial /\Pmedial\PRhotic
  7
unicode
210
0
220
0
230
1
 50
0
 73
    2
 44
1
  0
ARC
  5
48E
100
AcDbEntity
  8
0
  6
ByLayer
 62
  256
370
   -1
100
AcDbCircle
 10
57.49999999999999
 20
-145
 40
5
100
AcDbArc
 50
270
 51
359.9999884507734
  0
LINE
  5
48F
100
AcDbEntity
  8
0
  6
ByLayer
 62
  256
370
   -1
100
AcDbLine
 10
61.49999999999999
 20
-140
 11
63.49999999999999
 21
-140
  0
LINE
  5
490
100
AcDbEntity
  8
0
  6
ByLayer
 62
  256
370
   -1
100
AcDbLine
 10
62.49999999999999
 20
-141
 11
62.49999999999999
 21
-145
  0
ARC
  5
491
100
AcDbEntity
  8
0
  6
ByLayer
 62
  256
370
   -1
100
AcDbCircle
 10
64.5
 20
-149
 40
1
100
AcDbArc
 50
180
 51
270.0000000000008
  0
LINE
  5
492
100
AcDbEntity
  8
0
  6
ByLayer
 62
  256
370
   -1
100
AcDbLine
 10
63.5
 20
-140
 11
63.5
 21
-149
  0
LINE
  5
493
100
AcDbEntity
  8
0
  6
ByLayer
 62
  256
370
   -1
100
AcDbLine
 10
64.5
 20
-150
 11
67.5
 21
-150
  0
MTEXT
  5
494
100
AcDbEntity
  8
Subtitle
  6
ByLayer
 62
  256
370
   -1
100
AcDbMText
 10
62.5
 20
-145
 30
0
 40
1
 41
3.777777777777778
 71
    5
 72
    1
  1
Final\PRhotic
  7
unicode
210
0
220
0
230
1
 50
0
 73
    2
 44
1
  0
ENDSEC
  0
SECTION
  2
OBJECTS
  0
DICTIONARY
  5
C
330
0
100
AcDbDictionary
281
    1
  3
ACAD_GROUP
350
D
  0
DICTIONARY
  5
D
330
C
100
AcDbDictionary
281
    1
  0
PLOTSETTINGS
  5
495
100
AcDbPlotSettings
  6
1x1
 40
0
 41
0
 42
0
 43
0
  0
ENDSEC
  0
EOF
