999
dxfrw 0.6.3
  0
SECTION
  2
HEADER
  9
$ACADVER
  1
AC1021
  9
$DWGCODEPAGE
  3
ANSI_1252
  9
$INSBASE
 10
0
 20
0
 30
0
  9
$EXTMIN
 10
-2
 20
-27
 30
0
  9
$EXTMAX
 10
42
 20
5.083333333333333
 30
0
  9
$LIMMIN
 10
0
 20
0
  9
$LIMMAX
 10
420
 20
297
  9
$ORTHOMODE
 70
    0
  9
$REGENMODE
 70
    1
  9
$FILLMODE
 70
    1
  9
$QTEXTMODE
 70
    0
  9
$MIRRTEXT
 70
    0
  9
$LTSCALE
 40
1
  9
$ATTMODE
 70
    0
  9
$TEXTSIZE
 40
2.5
  9
$TRACEWID
 40
15.68
  9
$TEXTSTYLE
  7
STANDARD
  9
$CLAYER
  8
Ligat
  9
$CELTYPE
  6
BYLAYER
  9
$CECOLOR
 62
  256
  9
$CELTSCALE
 40
1
  9
$DISPSILH
 70
    0
  9
$DIMSCALE
 40
2.5
  9
$DIMASZ
 40
2.5
  9
$DIMEXO
 40
0.625
  9
$DIMDLI
 40
3.75
  9
$DIMRND
 40
0
  9
$DIMDLE
 40
0
  9
$DIMEXE
 40
1.25
  9
$DIMTP
 40
0
  9
$DIMTM
 40
0
  9
$DIMTXT
 40
2.5
  9
$DIMCEN
 40
2.5
  9
$DIMTSZ
 40
0
  9
$DIMTOL
 70
    0
  9
$DIMLIM
 70
    0
  9
$DIMTIH
 70
    0
  9
$DIMTOH
 70
    0
  9
$DIMSE1
 70
    0
  9
$DIMSE2
 70
    0
  9
$DIMTAD
 70
    1
  9
$DIMZIN
 70
    8
  9
$DIMBLK
  1

  9
$DIMASO
 70
    1
  9
$DIMSHO
 70
    1
  9
$DIMPOST
  1

  9
$DIMAPOST
  1

  9
$DIMALT
 70
    0
  9
$DIMALTD
 70
    3
  9
$DIMALTF
 40
0.03937
  9
$DIMLFAC
 40
1
  9
$DIMTOFL
 70
    1
  9
$DIMTVP
 40
0
  9
$DIMTIX
 70
    0
  9
$DIMSOXD
 70
    0
  9
$DIMSAH
 70
    0
  9
$DIMBLK1
  1

  9
$DIMBLK2
  1

  9
$DIMSTYLE
  2
STANDARD
  9
$DIMCLRD
 70
    0
  9
$DIMCLRE
 70
    0
  9
$DIMCLRT
 70
    0
  9
$DIMTFAC
 40
1
  9
$DIMGAP
 40
0.625
  9
$DIMJUST
 70
    0
  9
$DIMSD1
 70
    0
  9
$DIMSD2
 70
    0
  9
$DIMTOLJ
 70
    0
  9
$DIMTZIN
 70
    8
  9
$DIMALTZ
 70
    0
  9
$DIMALTTZ
 70
    0
  9
$DIMUPT
 70
    0
  9
$DIMDEC
 70
    2
  9
$DIMTDEC
 70
    2
  9
$DIMALTU
 70
    2
  9
$DIMALTTD
 70
    3
  9
$DIMTXSTY
  7
standard
  9
$DIMAUNIT
 70
    0
  9
$DIMADEC
 70
    0
  9
$DIMALTRND
 40
0
  9
$DIMAZIN
 70
    0
  9
$DIMDSEP
 70
   44
  9
$DIMATFIT
 70
    3
  9
$DIMFRAC
 70
    0
  9
$DIMLDRBLK
  1
STANDARD
  9
$DIMLUNIT
 70
    2
  9
$DIMLWD
 70
   -2
  9
$DIMLWE
 70
   -2
  9
$DIMTMOVE
 70
    0
  9
$DIMFXL
 40
1
  9
$DIMFXLON
 70
    0
  9
$DIMJOGANG
 40
0.7854
  9
$DIMTFILL
 70
    0
  9
$DIMTFILLCLR
 70
    0
  9
$DIMARCSYM
 70
    0
  9
$DIMLTYPE
  6

  9
$DIMLTEX1
  6

  9
$DIMLTEX2
  6

  9
$LUNITS
 70
    2
  9
$LUPREC
 70
    4
  9
$SKETCHINC
 40
1
  9
$FILLETRAD
 40
0
  9
$AUNITS
 70
    0
  9
$AUPREC
 70
    2
  9
$MENU
  1
.
  9
$ELEVATION
 40
0
  9
$PELEVATION
 40
0
  9
$THICKNESS
 40
0
  9
$LIMCHECK
 70
    0
  9
$CHAMFERA
 40
0
  9
$CHAMFERB
 40
0
  9
$CHAMFERC
 40
0
  9
$CHAMFERD
 40
0
  9
$SKPOLY
 70
    0
  9
$USRTIMER
 70
    1
  9
$ANGBASE
 50
0
  9
$ANGDIR
 70
    0
  9
$PDMODE
 70
   34
  9
$PDSIZE
 40
0
  9
$PLINEWID
 40
0
  9
$SPLFRAME
 70
    0
  9
$SPLINETYPE
 70
    2
  9
$SPLINESEGS
 70
    8
  9
$HANDSEED
  5
20000
  9
$SURFTAB1
 70
    6
  9
$SURFTAB2
 70
    6
  9
$SURFTYPE
 70
    6
  9
$SURFU
 70
    6
  9
$SURFV
 70
    6
  9
$UCSBASE
  2

  9
$UCSNAME
  2

  9
$UCSORG
 10
0
 20
0
 30
0
  9
$UCSXDIR
 10
1
 20
0
 30
0
  9
$UCSYDIR
 10
0
 20
1
 30
0
  9
$UCSORTHOREF
  2

  9
$UCSORTHOVIEW
 70
    0
  9
$UCSORGTOP
 10
0
 20
0
 30
0
  9
$UCSORGBOTTOM
 10
0
 20
0
 30
0
  9
$UCSORGLEFT
 10
0
 20
0
 30
0
  9
$UCSORGRIGHT
 10
0
 20
0
 30
0
  9
$UCSORGFRONT
 10
0
 20
0
 30
0
  9
$UCSORGBACK
 10
0
 20
0
 30
0
  9
$PUCSBASE
  2

  9
$PUCSNAME
  2

  9
$PUCSORG
 10
0
 20
0
 30
0
  9
$PUCSXDIR
 10
1
 20
0
 30
0
  9
$PUCSYDIR
 10
0
 20
1
 30
0
  9
$PUCSORTHOREF
  2

  9
$PUCSORTHOVIEW
 70
    0
  9
$PUCSORGTOP
 10
0
 20
0
 30
0
  9
$PUCSORGBOTTOM
 10
0
 20
0
 30
0
  9
$PUCSORGLEFT
 10
0
 20
0
 30
0
  9
$PUCSORGRIGHT
 10
0
 20
0
 30
0
  9
$PUCSORGFRONT
 10
0
 20
0
 30
0
  9
$PUCSORGBACK
 10
0
 20
0
 30
0
  9
$USERI1
 70
    0
  9
$USERI2
 70
    0
  9
$USERI3
 70
    0
  9
$USERI4
 70
    0
  9
$USERI5
 70
    0
  9
$USERR1
 40
0
  9
$USERR2
 40
0
  9
$USERR3
 40
0
  9
$USERR4
 40
0
  9
$USERR5
 40
0
  9
$WORLDVIEW
 70
    1
  9
$SHADEDGE
 70
    3
  9
$SHADEDIF
 70
   70
  9
$TILEMODE
 70
    1
  9
$MAXACTVP
 70
   64
  9
$PINSBASE
 10
32.875
 20
168.59375
 30
0
  9
$PLIMCHECK
 70
    0
  9
$PEXTMIN
 10
0
 20
0
 30
0
  9
$PEXTMAX
 10
0
 20
0
 30
0
  9
$GRIDMODE
 70
    1
  9
$SNAPSTYLE
 70
    0
  9
$GRIDUNIT
 10
0
 20
0
  9
$PLIMMIN
 10
0
 20
0
  9
$PLIMMAX
 10
297
 20
210
  9
$UNITMODE
 70
    0
  9
$VISRETAIN
 70
    1
  9
$PLINEGEN
 70
    0
  9
$PSLTSCALE
 70
    1
  9
$TREEDEPTH
 70
 3020
  9
$CMLSTYLE
  2
Standard
  9
$CMLJUST
 70
    0
  9
$CMLSCALE
 40
20
  9
$PROXYGRAPHICS
 70
    1
  9
$MEASUREMENT
 70
    1
  9
$CELWEIGHT
370
   -1
  9
$ENDCAPS
280
    0
  9
$JOINSTYLE
280
    0
  9
$LWDISPLAY
290
    0
  9
$INSUNITS
 70
    4
  9
$HYPERLINKBASE
  1

  9
$STYLESHEET
  1

  9
$XEDIT
290
    1
  9
$CEPSNTYPE
380
    0
  9
$PSTYLEMODE
290
    1
  9
$EXTNAMES
290
    1
  9
$PSVPSCALE
 40
5.78125
  9
$OLESTARTUP
290
    0
  9
$SORTENTS
280
  127
  9
$INDEXCTL
280
    0
  9
$HIDETEXT
280
    1
  9
$XCLIPFRAME
290
    0
  9
$HALOGAP
280
    0
  9
$OBSCOLOR
 70
  257
  9
$OBSLTYPE
280
    0
  9
$INTERSECTIONDISPLAY
280
    0
  9
$INTERSECTIONCOLOR
 70
  257
  9
$DIMASSOC
280
    1
  9
$PROJECTNAME
  1

  9
$CAMERADISPLAY
290
    0
  9
$LENSLENGTH
 40
50
  9
$CAMERAHEIGHT
 40
0
  9
$STEPSPERSEC
 40
2
  9
$STEPSIZE
 40
50
  9
$3DDWFPREC
 40
2
  9
$PSOLWIDTH
 40
5
  9
$PSOLHEIGHT
 40
80
  9
$LOFTANG1
 40
1.570796326794897
  9
$LOFTANG2
 40
1.570796326794897
  9
$LOFTMAG1
 40
0
  9
$LOFTMAG2
 40
0
  9
$LOFTPARAM
 70
    7
  9
$LOFTNORMALS
280
    1
  9
$LATITUDE
 40
1
  9
$LONGITUDE
 40
1
  9
$NORTHDIRECTION
 40
0
  9
$TIMEZONE
 70
-8000
  9
$LIGHTGLYPHDISPLAY
280
    1
  9
$TILEMODELIGHTSYNCH
280
    1
  9
$SOLIDHIST
280
    1
  9
$SHOWHIST
280
    1
  9
$DWFFRAME
280
    2
  9
$DGNFRAME
280
    0
  9
$REALWORLDSCALE
290
    1
  9
$INTERFERECOLOR
 62
    1
  9
$CSHADOW
280
    0
  9
$SHADOWPLANELOCATION
 40
0
  0
ENDSEC
  0
SECTION
  2
CLASSES
  0
ENDSEC
  0
SECTION
  2
TABLES
  0
TABLE
  2
VPORT
  5
8
330
0
100
AcDbSymbolTable
 70
    1
  0
VPORT
  5
31
330
2
100
AcDbSymbolTableRecord
100
AcDbViewportTableRecord
  2
*ACTIVE
 70
    0
 10
0
 20
0
 11
1
 21
1
 12
22.02296432743403
 22
1.610898192287259
 13
0
 23
0
 14
10
 24
10
 15
10
 25
10
 16
0
 26
0
 36
1
 17
0
 27
0
 37
0
 40
18.31569177532089
 41
2.568674698795181
 42
50
 43
0
 44
0
 50
0
 51
0
 71
    0
 72
  100
 73
    1
 74
    3
 75
    0
 76
    1
 77
    0
 78
    0
281
    0
 65
    1
110
0
120
0
130
0
111
1
121
0
131
0
112
0
122
1
132
0
 79
    0
146
0
348
10020
 60
    7
 61
    5
292
1
282
    1
141
0
142
0
 63
  250
421
3358443
  0
ENDTAB
  0
TABLE
  2
LTYPE
  5
5
330
0
100
AcDbSymbolTable
 70
    4
  0
LTYPE
  5
14
330
5
100
AcDbSymbolTableRecord
100
AcDbLinetypeTableRecord
  2
ByBlock
 70
    0
  3

 72
   65
 73
    0
 40
0
  0
LTYPE
  5
15
330
5
100
AcDbSymbolTableRecord
100
AcDbLinetypeTableRecord
  2
ByLayer
 70
    0
  3

 72
   65
 73
    0
 40
0
  0
LTYPE
  5
16
330
5
100
AcDbSymbolTableRecord
100
AcDbLinetypeTableRecord
  2
Continuous
 70
    0
  3
Solid line
 72
   65
 73
    0
 40
0
  0
LTYPE
  5
32
330
5
100
AcDbSymbolTableRecord
100
AcDbLinetypeTableRecord
  2
DOT
 70
    0
  3
Dot . . . . . . . . . . . . . . . . . . . . . .
 72
   65
 73
    2
 40
6.35
 49
0
 74
    0
 49
-6.35
 74
    0
  0
LTYPE
  5
33
330
5
100
AcDbSymbolTableRecord
100
AcDbLinetypeTableRecord
  2
DOTTINY
 70
    0
  3
Dot (.15x) .....................................
 72
   65
 73
    2
 40
0.9525
 49
0
 74
    0
 49
-0.9525
 74
    0
  0
LTYPE
  5
34
330
5
100
AcDbSymbolTableRecord
100
AcDbLinetypeTableRecord
  2
DOT2
 70
    0
  3
Dot (.5x) .....................................
 72
   65
 73
    2
 40
3.175
 49
0
 74
    0
 49
-3.175
 74
    0
  0
LTYPE
  5
35
330
5
100
AcDbSymbolTableRecord
100
AcDbLinetypeTableRecord
  2
DOTX2
 70
    0
  3
Dot (2x) .  .  .  .  .  .  .  .  .  .  .  .  .
 72
   65
 73
    2
 40
12.7
 49
0
 74
    0
 49
-12.7
 74
    0
  0
LTYPE
  5
36
330
5
100
AcDbSymbolTableRecord
100
AcDbLinetypeTableRecord
  2
DASHED
 70
    0
  3
Dashed _ _ _ _ _ _ _ _ _ _ _ _ _ _ _ _ _
 72
   65
 73
    2
 40
19.05
 49
12.7
 74
    0
 49
-6.35
 74
    0
  0
LTYPE
  5
37
330
5
100
AcDbSymbolTableRecord
100
AcDbLinetypeTableRecord
  2
DASHEDTINY
 70
    0
  3
Dashed (.15x) _ _ _ _ _ _ _ _ _ _ _ _ _ _ _ _ _
 72
   65
 73
    2
 40
2.8575
 49
1.905
 74
    0
 49
-0.9525
 74
    0
  0
LTYPE
  5
38
330
5
100
AcDbSymbolTableRecord
100
AcDbLinetypeTableRecord
  2
DASHED2
 70
    0
  3
Dashed (.5x) _ _ _ _ _ _ _ _ _ _ _ _ _ _ _ _ _
 72
   65
 73
    2
 40
9.524999999999999
 49
6.35
 74
    0
 49
-3.175
 74
    0
  0
LTYPE
  5
39
330
5
100
AcDbSymbolTableRecord
100
AcDbLinetypeTableRecord
  2
DASHEDX2
 70
    0
  3
Dashed (2x) ____  ____  ____  ____  ____  ___
 72
   65
 73
    2
 40
38.09999999999999
 49
25.4
 74
    0
 49
-12.7
 74
    0
  0
LTYPE
  5
3A
330
5
100
AcDbSymbolTableRecord
100
AcDbLinetypeTableRecord
  2
DASHDOT
 70
    0
  3
Dash dot __ . __ . __ . __ . __ . __ . __ . __
 72
   65
 73
    4
 40
25.4
 49
12.7
 74
    0
 49
-6.35
 74
    0
 49
0
 74
    0
 49
-6.35
 74
    0
  0
LTYPE
  5
3B
330
5
100
AcDbSymbolTableRecord
100
AcDbLinetypeTableRecord
  2
DASHDOTTINY
 70
    0
  3
Dash dot (.15x) _._._._._._._._._._._._._._._.
 72
   65
 73
    4
 40
3.81
 49
1.905
 74
    0
 49
-0.9525
 74
    0
 49
0
 74
    0
 49
-0.9525
 74
    0
  0
LTYPE
  5
3C
330
5
100
AcDbSymbolTableRecord
100
AcDbLinetypeTableRecord
  2
DASHDOT2
 70
    0
  3
Dash dot (.5x) _._._._._._._._._._._._._._._.
 72
   65
 73
    4
 40
12.7
 49
6.35
 74
    0
 49
-3.175
 74
    0
 49
0
 74
    0
 49
-3.175
 74
    0
  0
LTYPE
  5
3D
330
5
100
AcDbSymbolTableRecord
100
AcDbLinetypeTableRecord
  2
DASHDOTX2
 70
    0
  3
Dash dot (2x) ____  .  ____  .  ____  .  ___
 72
   65
 73
    4
 40
50.8
 49
25.4
 74
    0
 49
-12.7
 74
    0
 49
0
 74
    0
 49
-12.7
 74
    0
  0
LTYPE
  5
3E
330
5
100
AcDbSymbolTableRecord
100
AcDbLinetypeTableRecord
  2
DIVIDE
 70
    0
  3
Divide ____ . . ____ . . ____ . . ____ . . ____
 72
   65
 73
    6
 40
31.75
 49
12.7
 74
    0
 49
-6.35
 74
    0
 49
0
 74
    0
 49
-6.35
 74
    0
 49
0
 74
    0
 49
-6.35
 74
    0
  0
LTYPE
  5
3F
330
5
100
AcDbSymbolTableRecord
100
AcDbLinetypeTableRecord
  2
DIVIDETINY
 70
    0
  3
Divide (.15x) __..__..__..__..__..__..__..__.._
 72
   65
 73
    6
 40
4.7625
 49
1.905
 74
    0
 49
-0.9525
 74
    0
 49
0
 74
    0
 49
-0.9525
 74
    0
 49
0
 74
    0
 49
-0.9525
 74
    0
  0
LTYPE
  5
40
330
5
100
AcDbSymbolTableRecord
100
AcDbLinetypeTableRecord
  2
DIVIDE2
 70
    0
  3
Divide (.5x) __..__..__..__..__..__..__..__.._
 72
   65
 73
    6
 40
15.875
 49
6.35
 74
    0
 49
-3.175
 74
    0
 49
0
 74
    0
 49
-3.175
 74
    0
 49
0
 74
    0
 49
-3.175
 74
    0
  0
LTYPE
  5
41
330
5
100
AcDbSymbolTableRecord
100
AcDbLinetypeTableRecord
  2
DIVIDEX2
 70
    0
  3
Divide (2x) ________  .  .  ________  .  .  _
 72
   65
 73
    6
 40
63.5
 49
25.4
 74
    0
 49
-12.7
 74
    0
 49
0
 74
    0
 49
-12.7
 74
    0
 49
0
 74
    0
 49
-12.7
 74
    0
  0
LTYPE
  5
42
330
5
100
AcDbSymbolTableRecord
100
AcDbLinetypeTableRecord
  2
BORDER
 70
    0
  3
Border __ __ . __ __ . __ __ . __ __ . __ __ .
 72
   65
 73
    6
 40
44.45
 49
12.7
 74
    0
 49
-6.35
 74
    0
 49
12.7
 74
    0
 49
-6.35
 74
    0
 49
0
 74
    0
 49
-6.35
 74
    0
  0
LTYPE
  5
43
330
5
100
AcDbSymbolTableRecord
100
AcDbLinetypeTableRecord
  2
BORDERTINY
 70
    0
  3
Border (.15x) __.__.__.__.__.__.__.__.__.__.__.
 72
   65
 73
    6
 40
6.6675
 49
1.905
 74
    0
 49
-0.9525
 74
    0
 49
1.905
 74
    0
 49
-0.9525
 74
    0
 49
0
 74
    0
 49
-0.9525
 74
    0
  0
LTYPE
  5
44
330
5
100
AcDbSymbolTableRecord
100
AcDbLinetypeTableRecord
  2
BORDER2
 70
    0
  3
Border (.5x) __.__.__.__.__.__.__.__.__.__.__.
 72
   65
 73
    6
 40
22.225
 49
6.35
 74
    0
 49
-3.175
 74
    0
 49
6.35
 74
    0
 49
-3.175
 74
    0
 49
0
 74
    0
 49
-3.175
 74
    0
  0
LTYPE
  5
45
330
5
100
AcDbSymbolTableRecord
100
AcDbLinetypeTableRecord
  2
BORDERX2
 70
    0
  3
Border (2x) ____  ____  .  ____  ____  .  ___
 72
   65
 73
    6
 40
88.89999999999999
 49
25.4
 74
    0
 49
-12.7
 74
    0
 49
25.4
 74
    0
 49
-12.7
 74
    0
 49
0
 74
    0
 49
-12.7
 74
    0
  0
LTYPE
  5
46
330
5
100
AcDbSymbolTableRecord
100
AcDbLinetypeTableRecord
  2
CENTER
 70
    0
  3
Center ____ _ ____ _ ____ _ ____ _ ____ _ ____
 72
   65
 73
    4
 40
50.8
 49
31.75
 74
    0
 49
-6.35
 74
    0
 49
6.35
 74
    0
 49
-6.35
 74
    0
  0
LTYPE
  5
47
330
5
100
AcDbSymbolTableRecord
100
AcDbLinetypeTableRecord
  2
CENTERTINY
 70
    0
  3
Center (.15x) ___ _ ___ _ ___ _ ___ _ ___ _ ___
 72
   65
 73
    4
 40
7.619999999999999
 49
4.7625
 74
    0
 49
-0.9525
 74
    0
 49
0.9525
 74
    0
 49
-0.9525
 74
    0
  0
LTYPE
  5
48
330
5
100
AcDbSymbolTableRecord
100
AcDbLinetypeTableRecord
  2
CENTER2
 70
    0
  3
Center (.5x) ___ _ ___ _ ___ _ ___ _ ___ _ ___
 72
   65
 73
    4
 40
28.575
 49
19.05
 74
    0
 49
-3.175
 74
    0
 49
3.175
 74
    0
 49
-3.175
 74
    0
  0
LTYPE
  5
49
330
5
100
AcDbSymbolTableRecord
100
AcDbLinetypeTableRecord
  2
CENTERX2
 70
    0
  3
Center (2x) ________  __  ________  __  _____
 72
   65
 73
    4
 40
101.6
 49
63.5
 74
    0
 49
-12.7
 74
    0
 49
12.7
 74
    0
 49
-12.7
 74
    0
  0
ENDTAB
  0
TABLE
  2
LAYER
  5
2
330
0
100
AcDbSymbolTable
 70
    1
  0
LAYER
  5
10
330
2
100
AcDbSymbolTableRecord
100
AcDbLayerTableRecord
  2
0
 70
    0
 62
    7
  6
CONTINUOUS
370
    0
390
F
  0
LAYER
  5
4A
330
2
100
AcDbSymbolTableRecord
100
AcDbLayerTableRecord
  2
Ligat
 70
    0
 62
    1
  6
CONTINUOUS
370
    0
390
F
  0
LAYER
  5
4B
330
2
100
AcDbSymbolTableRecord
100
AcDbLayerTableRecord
  2
Ligatures
 70
    0
 62
    7
  6
CONTINUOUS
370
   -3
390
F
  0
LAYER
  5
4C
330
2
100
AcDbSymbolTableRecord
100
AcDbLayerTableRecord
  2
Templ_Ligat
 70
    0
 62
    6
  6
CONTINUOUS
370
    0
390
F
  0
LAYER
  5
4D
330
2
100
AcDbSymbolTableRecord
100
AcDbLayerTableRecord
  2
Templ_lim
 70
    1
 62
    5
  6
CONTINUOUS
370
    0
390
F
  0
ENDTAB
  0
TABLE
  2
STYLE
  5
3
330
0
100
AcDbSymbolTable
 70
    3
  0
STYLE
  5
4E
330
2
100
AcDbSymbolTableRecord
100
AcDbTextStyleTableRecord
  2
standard
 70
    0
 40
0
 41
1
 50
0
 71
    0
 42
1
  3
standard
  4

  0
ENDTAB
  0
TABLE
  2
VIEW
  5
6
330
0
100
AcDbSymbolTable
 70
    0
  0
ENDTAB
  0
TABLE
  2
UCS
  5
7
330
0
100
AcDbSymbolTable
 70
    0
  0
ENDTAB
  0
TABLE
  2
APPID
  5
9
330
0
100
AcDbSymbolTable
 70
    1
  0
APPID
  5
12
330
9
100
AcDbSymbolTableRecord
100
AcDbRegAppTableRecord
  2
ACAD
 70
    0
  0
APPID
  5
4F
330
9
100
AcDbSymbolTableRecord
100
AcDbRegAppTableRecord
  2
LibreCad
 70
    0
  0
ENDTAB
  0
TABLE
  2
DIMSTYLE
  5
A
330
0
100
AcDbSymbolTable
 70
    1
100
AcDbDimStyleTable
 71
    1
  0
DIMSTYLE
105
50
330
A
100
AcDbSymbolTableRecord
100
AcDbDimStyleTableRecord
  2
Standard
 70
    0
 40
2.5
 41
2.5
 42
0.625
 43
0.38
 44
1.25
 45
0
 46
0
 47
0
 48
0
 49
1
140
2.5
141
0.09
142
0
143
25.4
144
1
145
0
146
1
147
0.625
148
0
 71
    0
 72
    0
 73
    0
 74
    1
 75
    0
 76
    0
 77
    0
 78
    8
 79
    0
170
    0
171
    2
172
    0
173
    0
174
    0
175
    0
176
    0
177
    0
178
    0
179
    0
271
    2
272
    4
273
    2
274
    2
275
    0
276
    0
277
    2
278
   44
279
    0
280
    0
281
    0
282
    0
283
    1
284
    0
285
    0
286
    0
288
    0
289
    3
340
standard
341

371
   -2
372
   -2
  0
ENDTAB
  0
TABLE
  2
BLOCK_RECORD
  5
1
330
0
100
AcDbSymbolTable
 70
    2
  0
BLOCK_RECORD
  5
1F
330
1
100
AcDbSymbolTableRecord
100
AcDbBlockTableRecord
  2
*Model_Space
 70
    0
280
    1
281
    0
  0
BLOCK_RECORD
  5
1E
330
1
100
AcDbSymbolTableRecord
100
AcDbBlockTableRecord
  2
*Paper_Space
 70
    0
280
    1
281
    0
  0
ENDTAB
  0
ENDSEC
  0
SECTION
  2
BLOCKS
  0
BLOCK
  5
20
330
1F
100
AcDbEntity
  8
0
100
AcDbBlockBegin
  2
*Model_Space
 70
    0
 10
0
 20
0
 30
0
  3
*Model_Space
  1

  0
ENDBLK
  5
21
330
1F
100
AcDbEntity
  8
0
100
AcDbBlockEnd
  0
BLOCK
  5
1C
330
1B
100
AcDbEntity
  8
0
100
AcDbBlockBegin
  2
*Paper_Space
 70
    0
 10
0
 20
0
 30
0
  3
*Paper_Space
  1

  0
ENDBLK
  5
1D
330
1F
100
AcDbEntity
  8
0
100
AcDbBlockEnd
  0
ENDSEC
  0
SECTION
  2
ENTITIES
  0
LINE
  5
51
100
AcDbEntity
  8
Templ_lim
  6
ByLayer
 62
  256
370
   -1
100
AcDbLine
 10
-1
 20
3
 11
-1
 21
-3
  0
LINE
  5
52
100
AcDbEntity
  8
Templ_lim
  6
ByLayer
 62
  256
370
   -1
100
AcDbLine
 10
1
 20
3
 11
1
 21
-3
  0
LINE
  5
53
100
AcDbEntity
  8
Templ_lim
  6
ByLayer
 62
  256
370
   -1
100
AcDbLine
 10
-1
 20
-3
 11
1
 21
-1
  0
LINE
  5
54
100
AcDbEntity
  8
Templ_lim
  6
ByLayer
 62
  256
370
   -1
100
AcDbLine
 10
1
 20
-1
 11
-1
 21
1
  0
LINE
  5
55
100
AcDbEntity
  8
Templ_lim
  6
ByLayer
 62
  256
370
   -1
100
AcDbLine
 10
-1
 20
1
 11
1
 21
3
  0
LINE
  5
56
100
AcDbEntity
  8
Templ_lim
  6
ByLayer
 62
  256
370
   -1
100
AcDbLine
 10
-1
 20
3
 11
1
 21
1
  0
LINE
  5
57
100
AcDbEntity
  8
Templ_lim
  6
ByLayer
 62
  256
370
   -1
100
AcDbLine
 10
1
 20
1
 11
-1
 21
-1
  0
LINE
  5
58
100
AcDbEntity
  8
Templ_lim
  6
ByLayer
 62
  256
370
   -1
100
AcDbLine
 10
-1
 20
-1
 11
1
 21
-3
  0
MTEXT
  5
59
100
AcDbEntity
  8
Templ_lim
  6
ByLayer
 62
  256
370
   -1
100
AcDbMText
 10
0
 20
-2
 30
0
 40
0.2
 41
1.311111213968572
 71
    5
 72
    1
  1
Descender
  7
standard
210
0
220
0
230
1
 50
0
 73
    2
 44
1
  0
MTEXT
  5
5A
100
AcDbEntity
  8
Templ_lim
  6
ByLayer
 62
  256
370
   -1
100
AcDbMText
 10
0
 20
2
 30
0
 40
0.2
 41
1.177777880635227
 71
    5
 72
    1
  1
Ascender
  7
standard
210
0
220
0
230
1
 50
0
 73
    2
 44
1
  0
MTEXT
  5
5B
100
AcDbEntity
  8
Templ_lim
  6
ByLayer
 62
  256
370
   -1
100
AcDbMText
 10
0
 20
-0
 30
0
 40
0.2
 41
0.844444444444463
 71
    5
 72
    1
  1
Normal\PHeight
  7
standard
210
0
220
0
230
1
 50
0
 73
    2
 44
1
  0
CIRCLE
  5
5C
100
AcDbEntity
  8
Templ_lim
  6
ByLayer
 62
  256
370
   -1
100
AcDbCircle
 10
0
 20
-0
 40
1
  0
CIRCLE
  5
5D
100
AcDbEntity
  8
Templ_lim
  6
ByLayer
 62
  256
370
   -1
100
AcDbCircle
 10
0
 20
2
 40
1
  0
CIRCLE
  5
5E
100
AcDbEntity
  8
Templ_lim
  6
ByLayer
 62
  256
370
   -1
100
AcDbCircle
 10
0
 20
-2
 40
1
  0
LINE
  5
5F
100
AcDbEntity
  8
Templ_Ligat
  6
ByLayer
 62
  256
370
   -1
100
AcDbLine
 10
-2
 20
-3
 11
2
 21
-3
  0
LINE
  5
60
100
AcDbEntity
  8
Templ_Ligat
  6
ByLayer
 62
  256
370
   -1
100
AcDbLine
 10
-2
 20
3
 11
2
 21
3
  0
LINE
  5
61
100
AcDbEntity
  8
Templ_Ligat
  6
ByLayer
 62
  256
370
   -1
100
AcDbLine
 10
-2
 20
5
 11
2
 21
5
  0
LINE
  5
62
100
AcDbEntity
  8
Templ_Ligat
  6
ByLayer
 62
  256
370
   -1
100
AcDbLine
 10
-2
 20
5
 11
-2
 21
-3
  0
LINE
  5
63
100
AcDbEntity
  8
Templ_Ligat
  6
ByLayer
 62
  256
370
   -1
100
AcDbLine
 10
2
 20
5
 11
2
 21
-3
  0
LINE
  5
64
100
AcDbEntity
  8
Templ_Ligat
  6
ByLayer
 62
  256
370
   -1
100
AcDbLine
 10
-2
 20
5
 11
2
 21
3
  0
LINE
  5
65
100
AcDbEntity
  8
Templ_Ligat
  6
ByLayer
 62
  256
370
   -1
100
AcDbLine
 10
2
 20
5
 11
-2
 21
3
  0
MTEXT
  5
66
100
AcDbEntity
  8
Templ_Ligat
  6
ByLayer
 62
  256
370
   -1
100
AcDbMText
 10
0
 20
4
 30
0
 40
0.5
 41
1.555555555555602
 71
    5
 72
    1
  1
Name
  7
standard
210
0
220
0
230
1
 50
0
 73
    2
 44
1
  0
MTEXT
  5
67
100
AcDbEntity
  8
0
  6
ByLayer
 62
  256
370
   -1
100
AcDbMText
 10
0
 20
4
 30
0
 40
0.5
 41
2.444444333333333
 71
    5
 72
    1
  1
Hamza\P(Letter)
  7
standard
210
0
220
0
230
1
 50
0
 73
    2
 44
1
  0
LINE
  5
68
100
AcDbEntity
  8
Templ_lim
  6
ByLayer
 62
  256
370
   -1
100
AcDbLine
 10
3
 20
3
 11
3
 21
-3
  0
LINE
  5
69
100
AcDbEntity
  8
Templ_lim
  6
ByLayer
 62
  256
370
   -1
100
AcDbLine
 10
5
 20
3
 11
5
 21
-3
  0
LINE
  5
6A
100
AcDbEntity
  8
Templ_lim
  6
ByLayer
 62
  256
370
   -1
100
AcDbLine
 10
3
 20
-3
 11
5
 21
-1
  0
LINE
  5
6B
100
AcDbEntity
  8
Templ_lim
  6
ByLayer
 62
  256
370
   -1
100
AcDbLine
 10
5
 20
-1
 11
3
 21
1
  0
LINE
  5
6C
100
AcDbEntity
  8
Templ_lim
  6
ByLayer
 62
  256
370
   -1
100
AcDbLine
 10
3
 20
1
 11
5
 21
3
  0
LINE
  5
6D
100
AcDbEntity
  8
Templ_lim
  6
ByLayer
 62
  256
370
   -1
100
AcDbLine
 10
3
 20
3
 11
5
 21
1
  0
LINE
  5
6E
100
AcDbEntity
  8
Templ_lim
  6
ByLayer
 62
  256
370
   -1
100
AcDbLine
 10
5
 20
1
 11
3
 21
-1
  0
LINE
  5
6F
100
AcDbEntity
  8
Templ_lim
  6
ByLayer
 62
  256
370
   -1
100
AcDbLine
 10
3
 20
-1
 11
5
 21
-3
  0
MTEXT
  5
70
100
AcDbEntity
  8
Templ_lim
  6
ByLayer
 62
  256
370
   -1
100
AcDbMText
 10
4
 20
-2
 30
0
 40
0.2
 41
1.311111213968572
 71
    5
 72
    1
  1
Descender
  7
standard
210
0
220
0
230
1
 50
0
 73
    2
 44
1
  0
MTEXT
  5
71
100
AcDbEntity
  8
Templ_lim
  6
ByLayer
 62
  256
370
   -1
100
AcDbMText
 10
4
 20
2
 30
0
 40
0.2
 41
1.177777880635227
 71
    5
 72
    1
  1
Ascender
  7
standard
210
0
220
0
230
1
 50
0
 73
    2
 44
1
  0
MTEXT
  5
72
100
AcDbEntity
  8
Templ_lim
  6
ByLayer
 62
  256
370
   -1
100
AcDbMText
 10
4
 20
0
 30
0
 40
0.2
 41
0.844444444444463
 71
    5
 72
    1
  1
Normal\PHeight
  7
standard
210
0
220
0
230
1
 50
0
 73
    2
 44
1
  0
CIRCLE
  5
73
100
AcDbEntity
  8
Templ_lim
  6
ByLayer
 62
  256
370
   -1
100
AcDbCircle
 10
4
 20
0
 40
1
  0
CIRCLE
  5
74
100
AcDbEntity
  8
Templ_lim
  6
ByLayer
 62
  256
370
   -1
100
AcDbCircle
 10
4
 20
2
 40
1
  0
CIRCLE
  5
75
100
AcDbEntity
  8
Templ_lim
  6
ByLayer
 62
  256
370
   -1
100
AcDbCircle
 10
4
 20
-2
 40
1
  0
LINE
  5
76
100
AcDbEntity
  8
Templ_Ligat
  6
ByLayer
 62
  256
370
   -1
100
AcDbLine
 10
2
 20
-3
 11
6
 21
-3
  0
LINE
  5
77
100
AcDbEntity
  8
Templ_Ligat
  6
ByLayer
 62
  256
370
   -1
100
AcDbLine
 10
2
 20
3
 11
6
 21
3
  0
LINE
  5
78
100
AcDbEntity
  8
Templ_Ligat
  6
ByLayer
 62
  256
370
   -1
100
AcDbLine
 10
2
 20
5
 11
6
 21
5
  0
LINE
  5
79
100
AcDbEntity
  8
Templ_Ligat
  6
ByLayer
 62
  256
370
   -1
100
AcDbLine
 10
6
 20
5
 11
6
 21
-3
  0
LINE
  5
7A
100
AcDbEntity
  8
Templ_Ligat
  6
ByLayer
 62
  256
370
   -1
100
AcDbLine
 10
2
 20
5
 11
6
 21
3
  0
LINE
  5
7B
100
AcDbEntity
  8
Templ_Ligat
  6
ByLayer
 62
  256
370
   -1
100
AcDbLine
 10
6
 20
5
 11
2
 21
3
  0
MTEXT
  5
7C
100
AcDbEntity
  8
Templ_Ligat
  6
ByLayer
 62
  256
370
   -1
100
AcDbMText
 10
4
 20
4
 30
0
 40
0.5
 41
1.555555555555602
 71
    5
 72
    1
  1
Name
  7
standard
210
0
220
0
230
1
 50
0
 73
    2
 44
1
  0
MTEXT
  5
7D
100
AcDbEntity
  8
0
  6
ByLayer
 62
  256
370
   -1
100
AcDbMText
 10
4
 20
4
 30
0
 40
0.5
 41
3.541666812699177
 71
    5
 72
    1
  1
Aleph\P(All forms)
  7
standard
210
0
220
0
230
1
 50
0
 73
    2
 44
1
  0
ARC
  5
7E
100
AcDbEntity
  8
0
  6
ByLayer
 62
  256
370
   -1
100
AcDbCircle
 10
4.500000067651227
 20
-0.5
 40
0.5
100
AcDbArc
 50
180
 51
270
  0
LINE
  5
7F
100
AcDbEntity
  8
Ligat
  6
ByLayer
 62
  256
370
   -1
100
AcDbLine
 10
4.500000067651227
 20
-1
 11
6
 21
-1
  0
LINE
  5
80
100
AcDbEntity
  8
Templ_lim
  6
ByLayer
 62
  256
370
   -1
100
AcDbLine
 10
7
 20
3
 11
7
 21
-3
  0
LINE
  5
81
100
AcDbEntity
  8
Templ_lim
  6
ByLayer
 62
  256
370
   -1
100
AcDbLine
 10
9
 20
3
 11
9
 21
-3
  0
LINE
  5
82
100
AcDbEntity
  8
Templ_lim
  6
ByLayer
 62
  256
370
   -1
100
AcDbLine
 10
7
 20
-3
 11
9
 21
-1
  0
LINE
  5
83
100
AcDbEntity
  8
Templ_lim
  6
ByLayer
 62
  256
370
   -1
100
AcDbLine
 10
9
 20
-1
 11
7
 21
1
  0
LINE
  5
84
100
AcDbEntity
  8
Templ_lim
  6
ByLayer
 62
  256
370
   -1
100
AcDbLine
 10
7
 20
1
 11
9
 21
3
  0
LINE
  5
85
100
AcDbEntity
  8
Templ_lim
  6
ByLayer
 62
  256
370
   -1
100
AcDbLine
 10
7
 20
3
 11
9
 21
1
  0
LINE
  5
86
100
AcDbEntity
  8
Templ_lim
  6
ByLayer
 62
  256
370
   -1
100
AcDbLine
 10
9
 20
1
 11
7
 21
-1
  0
LINE
  5
87
100
AcDbEntity
  8
Templ_lim
  6
ByLayer
 62
  256
370
   -1
100
AcDbLine
 10
7
 20
-1
 11
9
 21
-3
  0
MTEXT
  5
88
100
AcDbEntity
  8
Templ_lim
  6
ByLayer
 62
  256
370
   -1
100
AcDbMText
 10
8
 20
-2
 30
0
 40
0.2
 41
1.311111213968572
 71
    5
 72
    1
  1
Descender
  7
standard
210
0
220
0
230
1
 50
0
 73
    2
 44
1
  0
MTEXT
  5
89
100
AcDbEntity
  8
Templ_lim
  6
ByLayer
 62
  256
370
   -1
100
AcDbMText
 10
8
 20
2
 30
0
 40
0.2
 41
1.177777880635227
 71
    5
 72
    1
  1
Ascender
  7
standard
210
0
220
0
230
1
 50
0
 73
    2
 44
1
  0
MTEXT
  5
8A
100
AcDbEntity
  8
Templ_lim
  6
ByLayer
 62
  256
370
   -1
100
AcDbMText
 10
8
 20
0
 30
0
 40
0.2
 41
0.844444444444463
 71
    5
 72
    1
  1
Normal\PHeight
  7
standard
210
0
220
0
230
1
 50
0
 73
    2
 44
1
  0
CIRCLE
  5
8B
100
AcDbEntity
  8
Templ_lim
  6
ByLayer
 62
  256
370
   -1
100
AcDbCircle
 10
8
 20
0
 40
1
  0
CIRCLE
  5
8C
100
AcDbEntity
  8
Templ_lim
  6
ByLayer
 62
  256
370
   -1
100
AcDbCircle
 10
8
 20
2
 40
1
  0
CIRCLE
  5
8D
100
AcDbEntity
  8
Templ_lim
  6
ByLayer
 62
  256
370
   -1
100
AcDbCircle
 10
8
 20
-2
 40
1
  0
LINE
  5
8E
100
AcDbEntity
  8
Templ_Ligat
  6
ByLayer
 62
  256
370
   -1
100
AcDbLine
 10
6
 20
-3
 11
10
 21
-3
  0
LINE
  5
8F
100
AcDbEntity
  8
Templ_Ligat
  6
ByLayer
 62
  256
370
   -1
100
AcDbLine
 10
6
 20
3
 11
10
 21
3
  0
LINE
  5
90
100
AcDbEntity
  8
Templ_Ligat
  6
ByLayer
 62
  256
370
   -1
100
AcDbLine
 10
6
 20
5
 11
10
 21
5
  0
LINE
  5
91
100
AcDbEntity
  8
Templ_Ligat
  6
ByLayer
 62
  256
370
   -1
100
AcDbLine
 10
10
 20
5
 11
10
 21
-3
  0
LINE
  5
92
100
AcDbEntity
  8
Templ_Ligat
  6
ByLayer
 62
  256
370
   -1
100
AcDbLine
 10
6
 20
5
 11
10
 21
3
  0
LINE
  5
93
100
AcDbEntity
  8
Templ_Ligat
  6
ByLayer
 62
  256
370
   -1
100
AcDbLine
 10
10
 20
5
 11
6
 21
3
  0
MTEXT
  5
94
100
AcDbEntity
  8
Templ_Ligat
  6
ByLayer
 62
  256
370
   -1
100
AcDbMText
 10
8
 20
4
 30
0
 40
0.5
 41
1.555555555555602
 71
    5
 72
    1
  1
Name
  7
standard
210
0
220
0
230
1
 50
0
 73
    2
 44
1
  0
LINE
  5
95
100
AcDbEntity
  8
Templ_lim
  6
ByLayer
 62
  256
370
   -1
100
AcDbLine
 10
11
 20
3
 11
11
 21
-3
  0
LINE
  5
96
100
AcDbEntity
  8
Templ_lim
  6
ByLayer
 62
  256
370
   -1
100
AcDbLine
 10
13
 20
3
 11
13
 21
-3
  0
LINE
  5
97
100
AcDbEntity
  8
Templ_lim
  6
ByLayer
 62
  256
370
   -1
100
AcDbLine
 10
11
 20
-3
 11
13
 21
-1
  0
LINE
  5
98
100
AcDbEntity
  8
Templ_lim
  6
ByLayer
 62
  256
370
   -1
100
AcDbLine
 10
13
 20
-1
 11
11
 21
1
  0
LINE
  5
99
100
AcDbEntity
  8
Templ_lim
  6
ByLayer
 62
  256
370
   -1
100
AcDbLine
 10
11
 20
1
 11
13
 21
3
  0
LINE
  5
9A
100
AcDbEntity
  8
Templ_lim
  6
ByLayer
 62
  256
370
   -1
100
AcDbLine
 10
11
 20
3
 11
13
 21
1
  0
LINE
  5
9B
100
AcDbEntity
  8
Templ_lim
  6
ByLayer
 62
  256
370
   -1
100
AcDbLine
 10
13
 20
1
 11
11
 21
-1
  0
LINE
  5
9C
100
AcDbEntity
  8
Templ_lim
  6
ByLayer
 62
  256
370
   -1
100
AcDbLine
 10
11
 20
-1
 11
13
 21
-3
  0
MTEXT
  5
9D
100
AcDbEntity
  8
Templ_lim
  6
ByLayer
 62
  256
370
   -1
100
AcDbMText
 10
12
 20
-2
 30
0
 40
0.2
 41
1.311111213968572
 71
    5
 72
    1
  1
Descender
  7
standard
210
0
220
0
230
1
 50
0
 73
    2
 44
1
  0
MTEXT
  5
9E
100
AcDbEntity
  8
Templ_lim
  6
ByLayer
 62
  256
370
   -1
100
AcDbMText
 10
12
 20
2
 30
0
 40
0.2
 41
1.177777880635227
 71
    5
 72
    1
  1
Ascender
  7
standard
210
0
220
0
230
1
 50
0
 73
    2
 44
1
  0
MTEXT
  5
9F
100
AcDbEntity
  8
Templ_lim
  6
ByLayer
 62
  256
370
   -1
100
AcDbMText
 10
12
 20
0
 30
0
 40
0.2
 41
0.844444444444463
 71
    5
 72
    1
  1
Normal\PHeight
  7
standard
210
0
220
0
230
1
 50
0
 73
    2
 44
1
  0
CIRCLE
  5
A0
100
AcDbEntity
  8
Templ_lim
  6
ByLayer
 62
  256
370
   -1
100
AcDbCircle
 10
12
 20
0
 40
1
  0
CIRCLE
  5
A1
100
AcDbEntity
  8
Templ_lim
  6
ByLayer
 62
  256
370
   -1
100
AcDbCircle
 10
12
 20
2
 40
1
  0
CIRCLE
  5
A2
100
AcDbEntity
  8
Templ_lim
  6
ByLayer
 62
  256
370
   -1
100
AcDbCircle
 10
12
 20
-2
 40
1
  0
LINE
  5
A3
100
AcDbEntity
  8
Templ_Ligat
  6
ByLayer
 62
  256
370
   -1
100
AcDbLine
 10
10
 20
-3
 11
14
 21
-3
  0
LINE
  5
A4
100
AcDbEntity
  8
Templ_Ligat
  6
ByLayer
 62
  256
370
   -1
100
AcDbLine
 10
10
 20
3
 11
14
 21
3
  0
LINE
  5
A5
100
AcDbEntity
  8
Templ_Ligat
  6
ByLayer
 62
  256
370
   -1
100
AcDbLine
 10
10
 20
5
 11
14
 21
5
  0
LINE
  5
A6
100
AcDbEntity
  8
Templ_Ligat
  6
ByLayer
 62
  256
370
   -1
100
AcDbLine
 10
14
 20
5
 11
14
 21
-3
  0
LINE
  5
A7
100
AcDbEntity
  8
Templ_Ligat
  6
ByLayer
 62
  256
370
   -1
100
AcDbLine
 10
10
 20
5
 11
14
 21
3
  0
LINE
  5
A8
100
AcDbEntity
  8
Templ_Ligat
  6
ByLayer
 62
  256
370
   -1
100
AcDbLine
 10
14
 20
5
 11
10
 21
3
  0
MTEXT
  5
A9
100
AcDbEntity
  8
Templ_Ligat
  6
ByLayer
 62
  256
370
   -1
100
AcDbMText
 10
12
 20
4
 30
0
 40
0.5
 41
1.555555555555602
 71
    5
 72
    1
  1
Name
  7
standard
210
0
220
0
230
1
 50
0
 73
    2
 44
1
  0
LINE
  5
AA
100
AcDbEntity
  8
Templ_Ligat
  6
ByLayer
 62
  256
370
   -1
100
AcDbLine
 10
-2
 20
-1
 11
2
 21
-1
  0
LINE
  5
AB
100
AcDbEntity
  8
Templ_Ligat
  6
ByLayer
 62
  256
370
   -1
100
AcDbLine
 10
-2
 20
1
 11
2
 21
1
  0
LINE
  5
AC
100
AcDbEntity
  8
Templ_Ligat
  6
ByLayer
 62
  256
370
   -1
100
AcDbLine
 10
2
 20
-1
 11
6
 21
-1
  0
LINE
  5
AD
100
AcDbEntity
  8
Templ_Ligat
  6
ByLayer
 62
  256
370
   -1
100
AcDbLine
 10
2
 20
1
 11
6
 21
1
  0
LINE
  5
AE
100
AcDbEntity
  8
Templ_Ligat
  6
ByLayer
 62
  256
370
   -1
100
AcDbLine
 10
6
 20
-1
 11
10
 21
-1
  0
LINE
  5
AF
100
AcDbEntity
  8
Templ_Ligat
  6
ByLayer
 62
  256
370
   -1
100
AcDbLine
 10
6
 20
1
 11
10
 21
1
  0
LINE
  5
B0
100
AcDbEntity
  8
Templ_Ligat
  6
ByLayer
 62
  256
370
   -1
100
AcDbLine
 10
10
 20
-1
 11
14
 21
-1
  0
LINE
  5
B1
100
AcDbEntity
  8
Templ_Ligat
  6
ByLayer
 62
  256
370
   -1
100
AcDbLine
 10
10
 20
1
 11
14
 21
1
  0
ARC
  5
B2
100
AcDbEntity
  8
0
  6
ByLayer
 62
  256
370
   -1
100
AcDbCircle
 10
7.5
 20
-0.5
 40
0.5
100
AcDbArc
 50
90
 51
270
  0
LINE
  5
B3
100
AcDbEntity
  8
0
  6
ByLayer
 62
  256
370
   -1
100
AcDbLine
 10
7.5
 20
-1
 11
9
 21
-1
  0
LINE
  5
B4
100
AcDbEntity
  8
0
  6
ByLayer
 62
  256
370
   -1
100
AcDbLine
 10
7.5
 20
0
 11
8.5
 21
0
  0
LINE
  5
B5
100
AcDbEntity
  8
Ligat
  6
ByLayer
 62
  256
370
   -1
100
AcDbLine
 10
9
 20
-1
 11
10
 21
-1
  0
ARC
  5
B6
100
AcDbEntity
  8
0
  6
ByLayer
 62
  256
370
   -1
100
AcDbCircle
 10
11.5
 20
-1.5
 40
0.5
100
AcDbArc
 50
90
 51
270
  0
LINE
  5
B7
100
AcDbEntity
  8
0
  6
ByLayer
 62
  256
370
   -1
100
AcDbLine
 10
11.5
 20
-1
 11
13
 21
-1
  0
LINE
  5
B8
100
AcDbEntity
  8
0
  6
ByLayer
 62
  256
370
   -1
100
AcDbLine
 10
11.5
 20
-2
 11
12.5
 21
-2
  0
LINE
  5
B9
100
AcDbEntity
  8
Ligat
  6
ByLayer
 62
  256
370
   -1
100
AcDbLine
 10
13
 20
-1
 11
14
 21
-1
  0
MTEXT
  5
BA
100
AcDbEntity
  8
0
  6
ByLayer
 62
  256
370
   -1
100
AcDbMText
 10
8
 20
4
 30
0
 40
0.2
 41
3.044444502857487
 71
    5
 72
    1
  1
Bari Ye\P(Isolated/Initial/medial)
  7
standard
210
0
220
0
230
1
 50
0
 73
    2
 44
1
  0
MTEXT
  5
BB
100
AcDbEntity
  8
0
  6
ByLayer
 62
  256
370
   -1
100
AcDbMText
 10
12
 20
4
 30
0
 40
0.5
 41
2.430555555555579
 71
    5
 72
    1
  1
Bari Ye\P(Final)
  7
standard
210
0
220
0
230
1
 50
0
 73
    2
 44
1
  0
LINE
  5
BC
100
AcDbEntity
  8
Templ_lim
  6
ByLayer
 62
  256
370
   -1
100
AcDbLine
 10
15
 20
3
 11
15
 21
-3
  0
LINE
  5
BD
100
AcDbEntity
  8
Templ_lim
  6
ByLayer
 62
  256
370
   -1
100
AcDbLine
 10
17
 20
3
 11
17
 21
-3
  0
LINE
  5
BE
100
AcDbEntity
  8
Templ_lim
  6
ByLayer
 62
  256
370
   -1
100
AcDbLine
 10
15
 20
-3
 11
17
 21
-1
  0
LINE
  5
BF
100
AcDbEntity
  8
Templ_lim
  6
ByLayer
 62
  256
370
   -1
100
AcDbLine
 10
17
 20
-1
 11
15
 21
1
  0
LINE
  5
C0
100
AcDbEntity
  8
Templ_lim
  6
ByLayer
 62
  256
370
   -1
100
AcDbLine
 10
15
 20
1
 11
17
 21
3
  0
LINE
  5
C1
100
AcDbEntity
  8
Templ_lim
  6
ByLayer
 62
  256
370
   -1
100
AcDbLine
 10
15
 20
3
 11
17
 21
1
  0
LINE
  5
C2
100
AcDbEntity
  8
Templ_lim
  6
ByLayer
 62
  256
370
   -1
100
AcDbLine
 10
17
 20
1
 11
15
 21
-1
  0
LINE
  5
C3
100
AcDbEntity
  8
Templ_lim
  6
ByLayer
 62
  256
370
   -1
100
AcDbLine
 10
15
 20
-1
 11
17
 21
-3
  0
MTEXT
  5
C4
100
AcDbEntity
  8
Templ_lim
  6
ByLayer
 62
  256
370
   -1
100
AcDbMText
 10
16
 20
-2
 30
0
 40
0.2
 41
1.311111213968572
 71
    5
 72
    1
  1
Descender
  7
standard
210
0
220
0
230
1
 50
0
 73
    2
 44
1
  0
MTEXT
  5
C5
100
AcDbEntity
  8
Templ_lim
  6
ByLayer
 62
  256
370
   -1
100
AcDbMText
 10
16
 20
2
 30
0
 40
0.2
 41
1.177777880635227
 71
    5
 72
    1
  1
Ascender
  7
standard
210
0
220
0
230
1
 50
0
 73
    2
 44
1
  0
MTEXT
  5
C6
100
AcDbEntity
  8
Templ_lim
  6
ByLayer
 62
  256
370
   -1
100
AcDbMText
 10
16
 20
0
 30
0
 40
0.2
 41
0.844444444444463
 71
    5
 72
    1
  1
Normal\PHeight
  7
standard
210
0
220
0
230
1
 50
0
 73
    2
 44
1
  0
CIRCLE
  5
C7
100
AcDbEntity
  8
Templ_lim
  6
ByLayer
 62
  256
370
   -1
100
AcDbCircle
 10
16
 20
0
 40
1
  0
CIRCLE
  5
C8
100
AcDbEntity
  8
Templ_lim
  6
ByLayer
 62
  256
370
   -1
100
AcDbCircle
 10
16
 20
2
 40
1
  0
CIRCLE
  5
C9
100
AcDbEntity
  8
Templ_lim
  6
ByLayer
 62
  256
370
   -1
100
AcDbCircle
 10
16
 20
-2
 40
1
  0
LINE
  5
CA
100
AcDbEntity
  8
Templ_Ligat
  6
ByLayer
 62
  256
370
   -1
100
AcDbLine
 10
14
 20
-3
 11
18
 21
-3
  0
LINE
  5
CB
100
AcDbEntity
  8
Templ_Ligat
  6
ByLayer
 62
  256
370
   -1
100
AcDbLine
 10
14
 20
3
 11
18
 21
3
  0
LINE
  5
CC
100
AcDbEntity
  8
Templ_Ligat
  6
ByLayer
 62
  256
370
   -1
100
AcDbLine
 10
14
 20
5
 11
18
 21
5
  0
LINE
  5
CD
100
AcDbEntity
  8
Templ_Ligat
  6
ByLayer
 62
  256
370
   -1
100
AcDbLine
 10
18
 20
5
 11
18
 21
-3
  0
LINE
  5
CE
100
AcDbEntity
  8
Templ_Ligat
  6
ByLayer
 62
  256
370
   -1
100
AcDbLine
 10
14
 20
5
 11
18
 21
3
  0
LINE
  5
CF
100
AcDbEntity
  8
Templ_Ligat
  6
ByLayer
 62
  256
370
   -1
100
AcDbLine
 10
18
 20
5
 11
14
 21
3
  0
MTEXT
  5
D0
100
AcDbEntity
  8
Templ_Ligat
  6
ByLayer
 62
  256
370
   -1
100
AcDbMText
 10
16
 20
4
 30
0
 40
0.5
 41
1.555555555555602
 71
    5
 72
    1
  1
Name
  7
standard
210
0
220
0
230
1
 50
0
 73
    2
 44
1
  0
LINE
  5
D1
100
AcDbEntity
  8
Templ_lim
  6
ByLayer
 62
  256
370
   -1
100
AcDbLine
 10
19
 20
3
 11
19
 21
-3
  0
LINE
  5
D2
100
AcDbEntity
  8
Templ_lim
  6
ByLayer
 62
  256
370
   -1
100
AcDbLine
 10
21
 20
3
 11
21
 21
-3
  0
LINE
  5
D3
100
AcDbEntity
  8
Templ_lim
  6
ByLayer
 62
  256
370
   -1
100
AcDbLine
 10
19
 20
-3
 11
21
 21
-1
  0
LINE
  5
D4
100
AcDbEntity
  8
Templ_lim
  6
ByLayer
 62
  256
370
   -1
100
AcDbLine
 10
21
 20
-1
 11
19
 21
1
  0
LINE
  5
D5
100
AcDbEntity
  8
Templ_lim
  6
ByLayer
 62
  256
370
   -1
100
AcDbLine
 10
19
 20
1
 11
21
 21
3
  0
LINE
  5
D6
100
AcDbEntity
  8
Templ_lim
  6
ByLayer
 62
  256
370
   -1
100
AcDbLine
 10
19
 20
3
 11
21
 21
1
  0
LINE
  5
D7
100
AcDbEntity
  8
Templ_lim
  6
ByLayer
 62
  256
370
   -1
100
AcDbLine
 10
21
 20
1
 11
19
 21
-1
  0
LINE
  5
D8
100
AcDbEntity
  8
Templ_lim
  6
ByLayer
 62
  256
370
   -1
100
AcDbLine
 10
19
 20
-1
 11
21
 21
-3
  0
MTEXT
  5
D9
100
AcDbEntity
  8
Templ_lim
  6
ByLayer
 62
  256
370
   -1
100
AcDbMText
 10
20
 20
-2
 30
0
 40
0.2
 41
1.311111213968572
 71
    5
 72
    1
  1
Descender
  7
standard
210
0
220
0
230
1
 50
0
 73
    2
 44
1
  0
MTEXT
  5
DA
100
AcDbEntity
  8
Templ_lim
  6
ByLayer
 62
  256
370
   -1
100
AcDbMText
 10
20
 20
2
 30
0
 40
0.2
 41
1.177777880635227
 71
    5
 72
    1
  1
Ascender
  7
standard
210
0
220
0
230
1
 50
0
 73
    2
 44
1
  0
MTEXT
  5
DB
100
AcDbEntity
  8
Templ_lim
  6
ByLayer
 62
  256
370
   -1
100
AcDbMText
 10
20
 20
0
 30
0
 40
0.2
 41
0.844444444444463
 71
    5
 72
    1
  1
Normal\PHeight
  7
standard
210
0
220
0
230
1
 50
0
 73
    2
 44
1
  0
CIRCLE
  5
DC
100
AcDbEntity
  8
Templ_lim
  6
ByLayer
 62
  256
370
   -1
100
AcDbCircle
 10
20
 20
0
 40
1
  0
CIRCLE
  5
DD
100
AcDbEntity
  8
Templ_lim
  6
ByLayer
 62
  256
370
   -1
100
AcDbCircle
 10
20
 20
2
 40
1
  0
CIRCLE
  5
DE
100
AcDbEntity
  8
Templ_lim
  6
ByLayer
 62
  256
370
   -1
100
AcDbCircle
 10
20
 20
-2
 40
1
  0
LINE
  5
DF
100
AcDbEntity
  8
Templ_Ligat
  6
ByLayer
 62
  256
370
   -1
100
AcDbLine
 10
18
 20
-3
 11
22
 21
-3
  0
LINE
  5
E0
100
AcDbEntity
  8
Templ_Ligat
  6
ByLayer
 62
  256
370
   -1
100
AcDbLine
 10
18
 20
3
 11
22
 21
3
  0
LINE
  5
E1
100
AcDbEntity
  8
Templ_Ligat
  6
ByLayer
 62
  256
370
   -1
100
AcDbLine
 10
18
 20
5
 11
22
 21
5
  0
LINE
  5
E2
100
AcDbEntity
  8
Templ_Ligat
  6
ByLayer
 62
  256
370
   -1
100
AcDbLine
 10
22
 20
5
 11
22
 21
-3
  0
LINE
  5
E3
100
AcDbEntity
  8
Templ_Ligat
  6
ByLayer
 62
  256
370
   -1
100
AcDbLine
 10
18
 20
5
 11
22
 21
3
  0
LINE
  5
E4
100
AcDbEntity
  8
Templ_Ligat
  6
ByLayer
 62
  256
370
   -1
100
AcDbLine
 10
22
 20
5
 11
18
 21
3
  0
MTEXT
  5
E5
100
AcDbEntity
  8
Templ_Ligat
  6
ByLayer
 62
  256
370
   -1
100
AcDbMText
 10
20
 20
4
 30
0
 40
0.5
 41
1.555555555555602
 71
    5
 72
    1
  1
Name
  7
standard
210
0
220
0
230
1
 50
0
 73
    2
 44
1
  0
LINE
  5
E6
100
AcDbEntity
  8
Templ_Ligat
  6
ByLayer
 62
  256
370
   -1
100
AcDbLine
 10
14
 20
-1
 11
18
 21
-1
  0
LINE
  5
E7
100
AcDbEntity
  8
Templ_Ligat
  6
ByLayer
 62
  256
370
   -1
100
AcDbLine
 10
14
 20
1
 11
18
 21
1
  0
LINE
  5
E8
100
AcDbEntity
  8
Templ_Ligat
  6
ByLayer
 62
  256
370
   -1
100
AcDbLine
 10
18
 20
-1
 11
22
 21
-1
  0
LINE
  5
E9
100
AcDbEntity
  8
Templ_Ligat
  6
ByLayer
 62
  256
370
   -1
100
AcDbLine
 10
18
 20
1
 11
22
 21
1
  0
LINE
  5
EA
100
AcDbEntity
  8
Templ_lim
  6
ByLayer
 62
  256
370
   -1
100
AcDbLine
 10
23
 20
3
 11
23
 21
-3
  0
LINE
  5
EB
100
AcDbEntity
  8
Templ_lim
  6
ByLayer
 62
  256
370
   -1
100
AcDbLine
 10
25
 20
3
 11
25
 21
-3
  0
LINE
  5
EC
100
AcDbEntity
  8
Templ_lim
  6
ByLayer
 62
  256
370
   -1
100
AcDbLine
 10
23
 20
-3
 11
25
 21
-1
  0
LINE
  5
ED
100
AcDbEntity
  8
Templ_lim
  6
ByLayer
 62
  256
370
   -1
100
AcDbLine
 10
25
 20
-1
 11
23
 21
1
  0
LINE
  5
EE
100
AcDbEntity
  8
Templ_lim
  6
ByLayer
 62
  256
370
   -1
100
AcDbLine
 10
23
 20
1
 11
25
 21
3
  0
LINE
  5
EF
100
AcDbEntity
  8
Templ_lim
  6
ByLayer
 62
  256
370
   -1
100
AcDbLine
 10
23
 20
3
 11
25
 21
1
  0
LINE
  5
F0
100
AcDbEntity
  8
Templ_lim
  6
ByLayer
 62
  256
370
   -1
100
AcDbLine
 10
25
 20
1
 11
23
 21
-1
  0
LINE
  5
F1
100
AcDbEntity
  8
Templ_lim
  6
ByLayer
 62
  256
370
   -1
100
AcDbLine
 10
23
 20
-1
 11
25
 21
-3
  0
MTEXT
  5
F2
100
AcDbEntity
  8
Templ_lim
  6
ByLayer
 62
  256
370
   -1
100
AcDbMText
 10
24
 20
-2
 30
0
 40
0.2
 41
1.311111213968572
 71
    5
 72
    1
  1
Descender
  7
standard
210
0
220
0
230
1
 50
0
 73
    2
 44
1
  0
MTEXT
  5
F3
100
AcDbEntity
  8
Templ_lim
  6
ByLayer
 62
  256
370
   -1
100
AcDbMText
 10
24
 20
2
 30
0
 40
0.2
 41
1.177777880635227
 71
    5
 72
    1
  1
Ascender
  7
standard
210
0
220
0
230
1
 50
0
 73
    2
 44
1
  0
MTEXT
  5
F4
100
AcDbEntity
  8
Templ_lim
  6
ByLayer
 62
  256
370
   -1
100
AcDbMText
 10
24
 20
0
 30
0
 40
0.2
 41
0.844444444444463
 71
    5
 72
    1
  1
Normal\PHeight
  7
standard
210
0
220
0
230
1
 50
0
 73
    2
 44
1
  0
CIRCLE
  5
F5
100
AcDbEntity
  8
Templ_lim
  6
ByLayer
 62
  256
370
   -1
100
AcDbCircle
 10
24
 20
0
 40
1
  0
CIRCLE
  5
F6
100
AcDbEntity
  8
Templ_lim
  6
ByLayer
 62
  256
370
   -1
100
AcDbCircle
 10
24
 20
2
 40
1
  0
CIRCLE
  5
F7
100
AcDbEntity
  8
Templ_lim
  6
ByLayer
 62
  256
370
   -1
100
AcDbCircle
 10
24
 20
-2
 40
1
  0
LINE
  5
F8
100
AcDbEntity
  8
Templ_Ligat
  6
ByLayer
 62
  256
370
   -1
100
AcDbLine
 10
22
 20
-3
 11
26
 21
-3
  0
LINE
  5
F9
100
AcDbEntity
  8
Templ_Ligat
  6
ByLayer
 62
  256
370
   -1
100
AcDbLine
 10
22
 20
3
 11
26
 21
3
  0
LINE
  5
FA
100
AcDbEntity
  8
Templ_Ligat
  6
ByLayer
 62
  256
370
   -1
100
AcDbLine
 10
22
 20
5
 11
26
 21
5
  0
LINE
  5
FB
100
AcDbEntity
  8
Templ_Ligat
  6
ByLayer
 62
  256
370
   -1
100
AcDbLine
 10
26
 20
5
 11
26
 21
-3
  0
LINE
  5
FC
100
AcDbEntity
  8
Templ_Ligat
  6
ByLayer
 62
  256
370
   -1
100
AcDbLine
 10
22
 20
5
 11
26
 21
3
  0
LINE
  5
FD
100
AcDbEntity
  8
Templ_Ligat
  6
ByLayer
 62
  256
370
   -1
100
AcDbLine
 10
26
 20
5
 11
22
 21
3
  0
MTEXT
  5
FE
100
AcDbEntity
  8
Templ_Ligat
  6
ByLayer
 62
  256
370
   -1
100
AcDbMText
 10
24
 20
4
 30
0
 40
0.5
 41
1.555555555555602
 71
    5
 72
    1
  1
Name
  7
standard
210
0
220
0
230
1
 50
0
 73
    2
 44
1
  0
LINE
  5
FF
100
AcDbEntity
  8
Templ_lim
  6
ByLayer
 62
  256
370
   -1
100
AcDbLine
 10
27
 20
3
 11
27
 21
-3
  0
LINE
  5
100
100
AcDbEntity
  8
Templ_lim
  6
ByLayer
 62
  256
370
   -1
100
AcDbLine
 10
29
 20
3
 11
29
 21
-3
  0
LINE
  5
101
100
AcDbEntity
  8
Templ_lim
  6
ByLayer
 62
  256
370
   -1
100
AcDbLine
 10
27
 20
-3
 11
29
 21
-1
  0
LINE
  5
102
100
AcDbEntity
  8
Templ_lim
  6
ByLayer
 62
  256
370
   -1
100
AcDbLine
 10
29
 20
-1
 11
27
 21
1
  0
LINE
  5
103
100
AcDbEntity
  8
Templ_lim
  6
ByLayer
 62
  256
370
   -1
100
AcDbLine
 10
27
 20
1
 11
29
 21
3
  0
LINE
  5
104
100
AcDbEntity
  8
Templ_lim
  6
ByLayer
 62
  256
370
   -1
100
AcDbLine
 10
27
 20
3
 11
29
 21
1
  0
LINE
  5
105
100
AcDbEntity
  8
Templ_lim
  6
ByLayer
 62
  256
370
   -1
100
AcDbLine
 10
29
 20
1
 11
27
 21
-1
  0
LINE
  5
106
100
AcDbEntity
  8
Templ_lim
  6
ByLayer
 62
  256
370
   -1
100
AcDbLine
 10
27
 20
-1
 11
29
 21
-3
  0
MTEXT
  5
107
100
AcDbEntity
  8
Templ_lim
  6
ByLayer
 62
  256
370
   -1
100
AcDbMText
 10
28
 20
-2
 30
0
 40
0.2
 41
1.311111213968572
 71
    5
 72
    1
  1
Descender
  7
standard
210
0
220
0
230
1
 50
0
 73
    2
 44
1
  0
MTEXT
  5
108
100
AcDbEntity
  8
Templ_lim
  6
ByLayer
 62
  256
370
   -1
100
AcDbMText
 10
28
 20
2
 30
0
 40
0.2
 41
1.177777880635227
 71
    5
 72
    1
  1
Ascender
  7
standard
210
0
220
0
230
1
 50
0
 73
    2
 44
1
  0
MTEXT
  5
109
100
AcDbEntity
  8
Templ_lim
  6
ByLayer
 62
  256
370
   -1
100
AcDbMText
 10
28
 20
0
 30
0
 40
0.2
 41
0.844444444444463
 71
    5
 72
    1
  1
Normal\PHeight
  7
standard
210
0
220
0
230
1
 50
0
 73
    2
 44
1
  0
CIRCLE
  5
10A
100
AcDbEntity
  8
Templ_lim
  6
ByLayer
 62
  256
370
   -1
100
AcDbCircle
 10
28
 20
0
 40
1
  0
CIRCLE
  5
10B
100
AcDbEntity
  8
Templ_lim
  6
ByLayer
 62
  256
370
   -1
100
AcDbCircle
 10
28
 20
2
 40
1
  0
CIRCLE
  5
10C
100
AcDbEntity
  8
Templ_lim
  6
ByLayer
 62
  256
370
   -1
100
AcDbCircle
 10
28
 20
-2
 40
1
  0
LINE
  5
10D
100
AcDbEntity
  8
Templ_Ligat
  6
ByLayer
 62
  256
370
   -1
100
AcDbLine
 10
26
 20
-3
 11
30
 21
-3
  0
LINE
  5
10E
100
AcDbEntity
  8
Templ_Ligat
  6
ByLayer
 62
  256
370
   -1
100
AcDbLine
 10
26
 20
3
 11
30
 21
3
  0
LINE
  5
10F
100
AcDbEntity
  8
Templ_Ligat
  6
ByLayer
 62
  256
370
   -1
100
AcDbLine
 10
26
 20
5
 11
30
 21
5
  0
LINE
  5
110
100
AcDbEntity
  8
Templ_Ligat
  6
ByLayer
 62
  256
370
   -1
100
AcDbLine
 10
30
 20
5
 11
30
 21
-3
  0
LINE
  5
111
100
AcDbEntity
  8
Templ_Ligat
  6
ByLayer
 62
  256
370
   -1
100
AcDbLine
 10
26
 20
5
 11
30
 21
3
  0
LINE
  5
112
100
AcDbEntity
  8
Templ_Ligat
  6
ByLayer
 62
  256
370
   -1
100
AcDbLine
 10
30
 20
5
 11
26
 21
3
  0
MTEXT
  5
113
100
AcDbEntity
  8
Templ_Ligat
  6
ByLayer
 62
  256
370
   -1
100
AcDbMText
 10
28
 20
4
 30
0
 40
0.5
 41
1.555555555555602
 71
    5
 72
    1
  1
Name
  7
standard
210
0
220
0
230
1
 50
0
 73
    2
 44
1
  0
LINE
  5
114
100
AcDbEntity
  8
Templ_Ligat
  6
ByLayer
 62
  256
370
   -1
100
AcDbLine
 10
22
 20
-1
 11
26
 21
-1
  0
LINE
  5
115
100
AcDbEntity
  8
Templ_Ligat
  6
ByLayer
 62
  256
370
   -1
100
AcDbLine
 10
22
 20
1
 11
26
 21
1
  0
LINE
  5
116
100
AcDbEntity
  8
Templ_Ligat
  6
ByLayer
 62
  256
370
   -1
100
AcDbLine
 10
26
 20
-1
 11
30
 21
-1
  0
LINE
  5
117
100
AcDbEntity
  8
Templ_Ligat
  6
ByLayer
 62
  256
370
   -1
100
AcDbLine
 10
26
 20
1
 11
30
 21
1
  0
MTEXT
  5
118
100
AcDbEntity
  8
0
  6
ByLayer
 62
  256
370
   -1
100
AcDbMText
 10
20
 20
4
 30
0
 40
0.5
 41
2.111111000000046
 71
    5
 72
    1
  1
Yi\P(Initial)
  7
standard
210
0
220
0
230
1
 50
0
 73
    2
 44
1
  0
MTEXT
  5
119
100
AcDbEntity
  8
0
  6
ByLayer
 62
  256
370
   -1
100
AcDbMText
 10
24
 20
4
 30
0
 40
0.5
 41
2.333333222222245
 71
    5
 72
    1
  1
Yi\P(Medial)
  7
standard
210
0
220
0
230
1
 50
0
 73
    2
 44
1
  0
LINE
  5
11A
100
AcDbEntity
  8
0
  6
ByLayer
 62
  256
370
   -1
100
AcDbLine
 10
20.5
 20
-1
 11
20
 21
-1
  0
LINE
  5
11B
100
AcDbEntity
  8
Ligat
  6
ByLayer
 62
  256
370
   -1
100
AcDbLine
 10
20
 20
-1
 11
18
 21
-1
  0
LINE
  5
11C
100
AcDbEntity
  8
Templ_lim
  6
ByLayer
 62
  256
370
   -1
100
AcDbLine
 10
31
 20
3
 11
31
 21
-3
  0
LINE
  5
11D
100
AcDbEntity
  8
Templ_lim
  6
ByLayer
 62
  256
370
   -1
100
AcDbLine
 10
33
 20
3
 11
33
 21
-3
  0
LINE
  5
11E
100
AcDbEntity
  8
Templ_lim
  6
ByLayer
 62
  256
370
   -1
100
AcDbLine
 10
31
 20
-3
 11
33
 21
-1
  0
LINE
  5
11F
100
AcDbEntity
  8
Templ_lim
  6
ByLayer
 62
  256
370
   -1
100
AcDbLine
 10
33
 20
-1
 11
31
 21
1
  0
LINE
  5
120
100
AcDbEntity
  8
Templ_lim
  6
ByLayer
 62
  256
370
   -1
100
AcDbLine
 10
31
 20
1
 11
33
 21
3
  0
LINE
  5
121
100
AcDbEntity
  8
Templ_lim
  6
ByLayer
 62
  256
370
   -1
100
AcDbLine
 10
31
 20
3
 11
33
 21
1
  0
LINE
  5
122
100
AcDbEntity
  8
Templ_lim
  6
ByLayer
 62
  256
370
   -1
100
AcDbLine
 10
33
 20
1
 11
31
 21
-1
  0
LINE
  5
123
100
AcDbEntity
  8
Templ_lim
  6
ByLayer
 62
  256
370
   -1
100
AcDbLine
 10
31
 20
-1
 11
33
 21
-3
  0
MTEXT
  5
124
100
AcDbEntity
  8
Templ_lim
  6
ByLayer
 62
  256
370
   -1
100
AcDbMText
 10
32
 20
-2
 30
0
 40
0.2
 41
1.311111213968572
 71
    5
 72
    1
  1
Descender
  7
standard
210
0
220
0
230
1
 50
0
 73
    2
 44
1
  0
MTEXT
  5
125
100
AcDbEntity
  8
Templ_lim
  6
ByLayer
 62
  256
370
   -1
100
AcDbMText
 10
32
 20
2
 30
0
 40
0.2
 41
1.177777880635227
 71
    5
 72
    1
  1
Ascender
  7
standard
210
0
220
0
230
1
 50
0
 73
    2
 44
1
  0
MTEXT
  5
126
100
AcDbEntity
  8
Templ_lim
  6
ByLayer
 62
  256
370
   -1
100
AcDbMText
 10
32
 20
0
 30
0
 40
0.2
 41
0.844444444444463
 71
    5
 72
    1
  1
Normal\PHeight
  7
standard
210
0
220
0
230
1
 50
0
 73
    2
 44
1
  0
CIRCLE
  5
127
100
AcDbEntity
  8
Templ_lim
  6
ByLayer
 62
  256
370
   -1
100
AcDbCircle
 10
32
 20
0
 40
1
  0
CIRCLE
  5
128
100
AcDbEntity
  8
Templ_lim
  6
ByLayer
 62
  256
370
   -1
100
AcDbCircle
 10
32
 20
2
 40
1
  0
CIRCLE
  5
129
100
AcDbEntity
  8
Templ_lim
  6
ByLayer
 62
  256
370
   -1
100
AcDbCircle
 10
32
 20
-2
 40
1
  0
LINE
  5
12A
100
AcDbEntity
  8
Templ_Ligat
  6
ByLayer
 62
  256
370
   -1
100
AcDbLine
 10
30
 20
-3
 11
34
 21
-3
  0
LINE
  5
12B
100
AcDbEntity
  8
Templ_Ligat
  6
ByLayer
 62
  256
370
   -1
100
AcDbLine
 10
30
 20
3
 11
34
 21
3
  0
LINE
  5
12C
100
AcDbEntity
  8
Templ_Ligat
  6
ByLayer
 62
  256
370
   -1
100
AcDbLine
 10
30
 20
5
 11
34
 21
5
  0
LINE
  5
12D
100
AcDbEntity
  8
Templ_Ligat
  6
ByLayer
 62
  256
370
   -1
100
AcDbLine
 10
34
 20
5
 11
34
 21
-3
  0
LINE
  5
12E
100
AcDbEntity
  8
Templ_Ligat
  6
ByLayer
 62
  256
370
   -1
100
AcDbLine
 10
30
 20
5
 11
34
 21
3
  0
LINE
  5
12F
100
AcDbEntity
  8
Templ_Ligat
  6
ByLayer
 62
  256
370
   -1
100
AcDbLine
 10
34
 20
5
 11
30
 21
3
  0
MTEXT
  5
130
100
AcDbEntity
  8
Templ_Ligat
  6
ByLayer
 62
  256
370
   -1
100
AcDbMText
 10
32
 20
4
 30
0
 40
0.5
 41
1.555555555555602
 71
    5
 72
    1
  1
Name
  7
standard
210
0
220
0
230
1
 50
0
 73
    2
 44
1
  0
LINE
  5
131
100
AcDbEntity
  8
Templ_Ligat
  6
ByLayer
 62
  256
370
   -1
100
AcDbLine
 10
30
 20
-1
 11
34
 21
-1
  0
LINE
  5
132
100
AcDbEntity
  8
Templ_Ligat
  6
ByLayer
 62
  256
370
   -1
100
AcDbLine
 10
30
 20
1
 11
34
 21
1
  0
LINE
  5
133
100
AcDbEntity
  8
0
  6
ByLayer
 62
  256
370
   -1
100
AcDbLine
 10
31.5
 20
-2
 11
32.5
 21
-2
  0
LINE
  5
134
100
AcDbEntity
  8
0
  6
ByLayer
 62
  256
370
   -1
100
AcDbLine
 10
31.02859547920897
 20
-1.333333333333333
 11
31.5
 21
0
  0
LINE
  5
135
100
AcDbEntity
  8
0
  6
ByLayer
 62
  256
370
   -1
100
AcDbLine
 10
32.97140452079103
 20
-1.333333333333333
 11
32.5
 21
0
  0
ARC
  5
136
100
AcDbEntity
  8
0
  6
ByLayer
 62
  256
370
   -1
100
AcDbCircle
 10
32.5
 20
-1.5
 40
0.5
100
AcDbArc
 50
270
 51
19.47119001149736
  0
ARC
  5
137
100
AcDbEntity
  8
0
  6
ByLayer
 62
  256
370
   -1
100
AcDbCircle
 10
31.5
 20
-1.5
 40
0.5
100
AcDbArc
 50
160.5288111105085
 51
270
  0
LINE
  5
138
100
AcDbEntity
  8
Ligat
  6
ByLayer
 62
  256
370
   -1
100
AcDbLine
 10
32.85355339059328
 20
-1
 11
34
 21
-1
  0
MTEXT
  5
139
100
AcDbEntity
  8
0
  6
ByLayer
 62
  256
370
   -1
100
AcDbMText
 10
32
 20
4
 30
0
 40
0.3
 41
1.866666787619507
 71
    5
 72
    1
  1
Nun\P(Isolated/\PFinal)
  7
standard
210
0
220
0
230
1
 50
0
 73
    2
 44
1
  0
ARC
  5
13A
100
AcDbEntity
  8
0
  6
ByLayer
 62
  256
370
   -1
100
AcDbCircle
 10
28.5
 20
-2.5
 40
0.5
100
AcDbArc
 50
270
 51
90
  0
ARC
  5
13B
100
AcDbEntity
  8
0
  6
ByLayer
 62
  256
370
   -1
100
AcDbCircle
 10
27.5
 20
-2.5
 40
0.5
100
AcDbArc
 50
90
 51
270
  0
LINE
  5
13C
100
AcDbEntity
  8
0
  6
ByLayer
 62
  256
370
   -1
100
AcDbLine
 10
27.5
 20
-3
 11
28.5
 21
-3
  0
ARC
  5
13D
100
AcDbEntity
  8
0
  6
ByLayer
 62
  256
370
   -1
100
AcDbCircle
 10
27.5
 20
-2.5
 40
0.5
100
AcDbArc
 50
359.9999999999999
 51
90
  0
LINE
  5
13E
100
AcDbEntity
  8
0
  6
ByLayer
 62
  256
370
   -1
100
AcDbLine
 10
4.000000010178188
 20
3
 11
4.000000067651227
 21
-0.5
  0
LINE
  5
13F
100
AcDbEntity
  8
0
  6
ByLayer
 62
  256
370
   -1
100
AcDbLine
 10
4.00000003480949
 20
3.000000024631302
 11
3.75000003480949
 21
2.750000024631302
  0
LINE
  5
140
100
AcDbEntity
  8
Templ_Ligat
  6
ByLayer
 62
  256
370
   -1
100
AcDbLine
 10
34
 20
-3
 11
38
 21
-3
  0
LINE
  5
141
100
AcDbEntity
  8
Templ_Ligat
  6
ByLayer
 62
  256
370
   -1
100
AcDbLine
 10
38
 20
-3
 11
42
 21
-3
  0
ELLIPSE
  5
142
100
AcDbEntity
  8
0
  6
ByLayer
 62
  256
370
   -1
100
AcDbEllipse
 10
1
 20
-6.6875510129627e-09
 30
0
 11
-2
 21
4.440892068801934e-16
 31
0
 40
0.5000000033437755
 41
4.71238898038469
 42
1.570796326794897
  0
LINE
  5
143
100
AcDbEntity
  8
0
  6
ByLayer
 62
  256
370
   -1
100
AcDbLine
 10
-1
 20
-1
 11
0.9996728902101626
 21
-1
  0
LINE
  5
144
100
AcDbEntity
  8
Templ_lim
  6
ByLayer
 62
  256
370
   -1
100
AcDbLine
 10
35
 20
3
 11
35
 21
-3
  0
LINE
  5
145
100
AcDbEntity
  8
Templ_lim
  6
ByLayer
 62
  256
370
   -1
100
AcDbLine
 10
37
 20
3
 11
37
 21
-3
  0
LINE
  5
146
100
AcDbEntity
  8
Templ_lim
  6
ByLayer
 62
  256
370
   -1
100
AcDbLine
 10
35
 20
-3
 11
37
 21
-1
  0
LINE
  5
147
100
AcDbEntity
  8
Templ_lim
  6
ByLayer
 62
  256
370
   -1
100
AcDbLine
 10
37
 20
-1
 11
35
 21
1
  0
LINE
  5
148
100
AcDbEntity
  8
Templ_lim
  6
ByLayer
 62
  256
370
   -1
100
AcDbLine
 10
35
 20
1
 11
37
 21
3
  0
LINE
  5
149
100
AcDbEntity
  8
Templ_lim
  6
ByLayer
 62
  256
370
   -1
100
AcDbLine
 10
35
 20
3
 11
37
 21
1
  0
LINE
  5
14A
100
AcDbEntity
  8
Templ_lim
  6
ByLayer
 62
  256
370
   -1
100
AcDbLine
 10
37
 20
1
 11
35
 21
-1
  0
LINE
  5
14B
100
AcDbEntity
  8
Templ_lim
  6
ByLayer
 62
  256
370
   -1
100
AcDbLine
 10
35
 20
-1
 11
37
 21
-3
  0
MTEXT
  5
14C
100
AcDbEntity
  8
Templ_lim
  6
ByLayer
 62
  256
370
   -1
100
AcDbMText
 10
36
 20
-2
 30
0
 40
0.2
 41
1.311111213968572
 71
    5
 72
    1
  1
Descender
  7
standard
210
0
220
0
230
1
 50
0
 73
    2
 44
1
  0
MTEXT
  5
14D
100
AcDbEntity
  8
Templ_lim
  6
ByLayer
 62
  256
370
   -1
100
AcDbMText
 10
36
 20
2
 30
0
 40
0.2
 41
1.177777880635227
 71
    5
 72
    1
  1
Ascender
  7
standard
210
0
220
0
230
1
 50
0
 73
    2
 44
1
  0
MTEXT
  5
14E
100
AcDbEntity
  8
Templ_lim
  6
ByLayer
 62
  256
370
   -1
100
AcDbMText
 10
36
 20
0
 30
0
 40
0.2
 41
0.844444444444463
 71
    5
 72
    1
  1
Normal\PHeight
  7
standard
210
0
220
0
230
1
 50
0
 73
    2
 44
1
  0
CIRCLE
  5
14F
100
AcDbEntity
  8
Templ_lim
  6
ByLayer
 62
  256
370
   -1
100
AcDbCircle
 10
36
 20
0
 40
1
  0
CIRCLE
  5
150
100
AcDbEntity
  8
Templ_lim
  6
ByLayer
 62
  256
370
   -1
100
AcDbCircle
 10
36
 20
2
 40
1
  0
CIRCLE
  5
151
100
AcDbEntity
  8
Templ_lim
  6
ByLayer
 62
  256
370
   -1
100
AcDbCircle
 10
36
 20
-2
 40
1
  0
LINE
  5
152
100
AcDbEntity
  8
Templ_Ligat
  6
ByLayer
 62
  256
370
   -1
100
AcDbLine
 10
34
 20
-3
 11
38
 21
-3
  0
LINE
  5
153
100
AcDbEntity
  8
Templ_Ligat
  6
ByLayer
 62
  256
370
   -1
100
AcDbLine
 10
34
 20
3
 11
38
 21
3
  0
LINE
  5
154
100
AcDbEntity
  8
Templ_Ligat
  6
ByLayer
 62
  256
370
   -1
100
AcDbLine
 10
34
 20
5
 11
38
 21
3
  0
LINE
  5
155
100
AcDbEntity
  8
Templ_Ligat
  6
ByLayer
 62
  256
370
   -1
100
AcDbLine
 10
38
 20
5
 11
34
 21
3
  0
MTEXT
  5
156
100
AcDbEntity
  8
Templ_Ligat
  6
ByLayer
 62
  256
370
   -1
100
AcDbMText
 10
36
 20
4
 30
0
 40
0.5
 41
1.555555555555602
 71
    5
 72
    1
  1
Name
  7
standard
210
0
220
0
230
1
 50
0
 73
    2
 44
1
  0
LINE
  5
157
100
AcDbEntity
  8
Templ_Ligat
  6
ByLayer
 62
  256
370
   -1
100
AcDbLine
 10
34
 20
-1
 11
38
 21
-1
  0
LINE
  5
158
100
AcDbEntity
  8
Templ_Ligat
  6
ByLayer
 62
  256
370
   -1
100
AcDbLine
 10
34
 20
1
 11
38
 21
1
  0
LINE
  5
159
100
AcDbEntity
  8
0
  6
ByLayer
 62
  256
370
   -1
100
AcDbLine
 10
35.49999947399894
 20
-1
 11
36.5
 21
-1
  0
LINE
  5
15A
100
AcDbEntity
  8
0
  6
ByLayer
 62
  256
370
   -1
100
AcDbLine
 10
34.99999999999979
 20
-0.5
 11
34.99999999999978
 21
0
  0
LINE
  5
15B
100
AcDbEntity
  8
0
  6
ByLayer
 62
  256
370
   -1
100
AcDbLine
 10
37
 20
-0.5
 11
37
 21
-6.969953183499911e-07
  0
LINE
  5
15C
100
AcDbEntity
  8
Ligat
  6
ByLayer
 62
  256
370
   -1
100
AcDbLine
 10
36.5
 20
-0.9999999999995914
 11
38
 21
-1
  0
ARC
  5
15D
100
AcDbEntity
  8
0
  6
ByLayer
 62
  256
370
   -1
100
AcDbCircle
 10
35.5
 20
-0.5
 40
0.5
100
AcDbArc
 50
180
 51
270
  0
ARC
  5
15E
100
AcDbEntity
  8
0
  6
ByLayer
 62
  256
370
   -1
100
AcDbCircle
 10
36.5
 20
-0.5
 40
0.4999999999997868
100
AcDbArc
 50
270
 51
0
  0
MTEXT
  5
15F
100
AcDbEntity
  8
0
  6
ByLayer
 62
  256
370
   -1
100
AcDbMText
 10
36
 20
4
 30
0
 40
0.5
 41
3.541666812699177
 71
    5
 72
    1
  1
Bah\P(All forms)
  7
standard
210
0
220
0
230
1
 50
0
 73
    2
 44
1
  0
LINE
  5
160
100
AcDbEntity
  8
Templ_Ligat
  6
ByLayer
 62
  256
370
   -1
100
AcDbLine
 10
34
 20
5
 11
34
 21
-3
  0
LINE
  5
161
100
AcDbEntity
  8
Templ_Ligat
  6
ByLayer
 62
  256
370
   -1
100
AcDbLine
 10
34
 20
5
 11
38
 21
5
  0
LINE
  5
162
100
AcDbEntity
  8
Templ_Ligat
  6
ByLayer
 62
  256
370
   -1
100
AcDbLine
 10
38
 20
5
 11
38
 21
-3
  0
LINE
  5
163
100
AcDbEntity
  8
Templ_lim
  6
ByLayer
 62
  256
370
   -1
100
AcDbLine
 10
39
 20
3
 11
39
 21
-3
  0
LINE
  5
164
100
AcDbEntity
  8
Templ_lim
  6
ByLayer
 62
  256
370
   -1
100
AcDbLine
 10
41
 20
3
 11
41
 21
-3
  0
LINE
  5
165
100
AcDbEntity
  8
Templ_lim
  6
ByLayer
 62
  256
370
   -1
100
AcDbLine
 10
39
 20
-3
 11
41
 21
-1
  0
LINE
  5
166
100
AcDbEntity
  8
Templ_lim
  6
ByLayer
 62
  256
370
   -1
100
AcDbLine
 10
41
 20
-1
 11
39
 21
1
  0
LINE
  5
167
100
AcDbEntity
  8
Templ_lim
  6
ByLayer
 62
  256
370
   -1
100
AcDbLine
 10
39
 20
1
 11
41
 21
3
  0
LINE
  5
168
100
AcDbEntity
  8
Templ_lim
  6
ByLayer
 62
  256
370
   -1
100
AcDbLine
 10
39
 20
3
 11
41
 21
1
  0
LINE
  5
169
100
AcDbEntity
  8
Templ_lim
  6
ByLayer
 62
  256
370
   -1
100
AcDbLine
 10
41
 20
1
 11
39
 21
-1
  0
LINE
  5
16A
100
AcDbEntity
  8
Templ_lim
  6
ByLayer
 62
  256
370
   -1
100
AcDbLine
 10
39
 20
-1
 11
41
 21
-3
  0
MTEXT
  5
16B
100
AcDbEntity
  8
Templ_lim
  6
ByLayer
 62
  256
370
   -1
100
AcDbMText
 10
40
 20
-2
 30
0
 40
0.2
 41
1.311111213968572
 71
    5
 72
    1
  1
Descender
  7
standard
210
0
220
0
230
1
 50
0
 73
    2
 44
1
  0
MTEXT
  5
16C
100
AcDbEntity
  8
Templ_lim
  6
ByLayer
 62
  256
370
   -1
100
AcDbMText
 10
40
 20
2
 30
0
 40
0.2
 41
1.177777880635227
 71
    5
 72
    1
  1
Ascender
  7
standard
210
0
220
0
230
1
 50
0
 73
    2
 44
1
  0
MTEXT
  5
16D
100
AcDbEntity
  8
Templ_lim
  6
ByLayer
 62
  256
370
   -1
100
AcDbMText
 10
40
 20
0
 30
0
 40
0.2
 41
0.844444444444463
 71
    5
 72
    1
  1
Normal\PHeight
  7
standard
210
0
220
0
230
1
 50
0
 73
    2
 44
1
  0
CIRCLE
  5
16E
100
AcDbEntity
  8
Templ_lim
  6
ByLayer
 62
  256
370
   -1
100
AcDbCircle
 10
40
 20
0
 40
1
  0
CIRCLE
  5
16F
100
AcDbEntity
  8
Templ_lim
  6
ByLayer
 62
  256
370
   -1
100
AcDbCircle
 10
40
 20
2
 40
1
  0
CIRCLE
  5
170
100
AcDbEntity
  8
Templ_lim
  6
ByLayer
 62
  256
370
   -1
100
AcDbCircle
 10
40
 20
-2
 40
1
  0
LINE
  5
171
100
AcDbEntity
  8
Templ_Ligat
  6
ByLayer
 62
  256
370
   -1
100
AcDbLine
 10
38
 20
-3
 11
42
 21
-3
  0
LINE
  5
172
100
AcDbEntity
  8
Templ_Ligat
  6
ByLayer
 62
  256
370
   -1
100
AcDbLine
 10
38
 20
3
 11
42
 21
3
  0
LINE
  5
173
100
AcDbEntity
  8
Templ_Ligat
  6
ByLayer
 62
  256
370
   -1
100
AcDbLine
 10
42
 20
5
 11
42
 21
-3
  0
LINE
  5
174
100
AcDbEntity
  8
Templ_Ligat
  6
ByLayer
 62
  256
370
   -1
100
AcDbLine
 10
38
 20
5
 11
42
 21
3
  0
LINE
  5
175
100
AcDbEntity
  8
Templ_Ligat
  6
ByLayer
 62
  256
370
   -1
100
AcDbLine
 10
42
 20
5
 11
38
 21
3
  0
MTEXT
  5
176
100
AcDbEntity
  8
Templ_Ligat
  6
ByLayer
 62
  256
370
   -1
100
AcDbMText
 10
40
 20
4
 30
0
 40
0.5
 41
1.555555555555602
 71
    5
 72
    1
  1
Name
  7
standard
210
0
220
0
230
1
 50
0
 73
    2
 44
1
  0
LINE
  5
177
100
AcDbEntity
  8
Templ_Ligat
  6
ByLayer
 62
  256
370
   -1
100
AcDbLine
 10
38
 20
-1
 11
42
 21
-1
  0
LINE
  5
178
100
AcDbEntity
  8
Templ_Ligat
  6
ByLayer
 62
  256
370
   -1
100
AcDbLine
 10
38
 20
1
 11
42
 21
1
  0
MTEXT
  5
179
100
AcDbEntity
  8
0
  6
ByLayer
 62
  256
370
   -1
100
AcDbMText
 10
40
 20
4
 30
0
 40
0.3
 41
2.933333420952869
 71
    5
 72
    1
  1
Jeem /\PGuttural Ha\P(Isolated/Final)
  7
standard
210
0
220
0
230
1
 50
0
 73
    2
 44
1
  0
LINE
  5
17A
100
AcDbEntity
  8
0
  6
ByLayer
 62
  256
370
   -1
100
AcDbLine
 10
39
 20
-1
 11
41
 21
-1
  0
ELLIPSE
  5
17B
100
AcDbEntity
  8
0
  6
ByLayer
 62
  256
370
   -1
100
AcDbEllipse
 10
41
 20
-2
 30
0
 11
-2
 21
6.661338147750939e-16
 31
0
 40
0.5000000000000002
 41
4.71238898038469
 42
1.570796326794897
  0
ARC
  5
17C
100
AcDbEntity
  8
Ligat
  6
ByLayer
 62
  256
370
   -1
100
AcDbCircle
 10
41
 20
-1.25
 40
0.25
100
AcDbArc
 50
269.9999999999984
 51
359.9999999999997
  0
ARC
  5
17D
100
AcDbEntity
  8
Ligat
  6
ByLayer
 62
  256
370
   -1
100
AcDbCircle
 10
41
 20
-1
 40
0.5
100
AcDbArc
 50
183.6263849284905
 51
269.9999999999992
  0
ARC
  5
17E
100
AcDbEntity
  8
Ligat
  6
ByLayer
 62
  256
370
   -1
100
AcDbCircle
 10
41.5
 20
-1.25
 40
0.25
100
AcDbArc
 50
90
 51
179.9999999999997
  0
LINE
  5
17F
100
AcDbEntity
  8
Ligat
  6
ByLayer
 62
  256
370
   -1
100
AcDbLine
 10
41.50000009209025
 20
-1
 11
42
 21
-1
  0
LINE
  5
180
100
AcDbEntity
  8
Templ_Ligat
  6
ByLayer
 62
  256
370
   -1
100
AcDbLine
 10
38
 20
5
 11
42
 21
5
  0
LINE
  5
181
100
AcDbEntity
  8
Templ_Ligat
  6
ByLayer
 62
  256
370
   -1
100
AcDbLine
 10
-2
 20
-3
 11
2
 21
-3
  0
LINE
  5
182
100
AcDbEntity
  8
Templ_Ligat
  6
ByLayer
 62
  256
370
   -1
100
AcDbLine
 10
2
 20
-3
 11
6
 21
-3
  0
LINE
  5
183
100
AcDbEntity
  8
Templ_Ligat
  6
ByLayer
 62
  256
370
   -1
100
AcDbLine
 10
6
 20
-3
 11
10
 21
-3
  0
LINE
  5
184
100
AcDbEntity
  8
Templ_Ligat
  6
ByLayer
 62
  256
370
   -1
100
AcDbLine
 10
10
 20
-3
 11
14
 21
-3
  0
LINE
  5
185
100
AcDbEntity
  8
Templ_Ligat
  6
ByLayer
 62
  256
370
   -1
100
AcDbLine
 10
14
 20
-3
 11
18
 21
-3
  0
LINE
  5
186
100
AcDbEntity
  8
Templ_Ligat
  6
ByLayer
 62
  256
370
   -1
100
AcDbLine
 10
18
 20
-3
 11
22
 21
-3
  0
LINE
  5
187
100
AcDbEntity
  8
Templ_Ligat
  6
ByLayer
 62
  256
370
   -1
100
AcDbLine
 10
22
 20
-3
 11
26
 21
-3
  0
LINE
  5
188
100
AcDbEntity
  8
Templ_Ligat
  6
ByLayer
 62
  256
370
   -1
100
AcDbLine
 10
26
 20
-3
 11
30
 21
-3
  0
LINE
  5
189
100
AcDbEntity
  8
Templ_Ligat
  6
ByLayer
 62
  256
370
   -1
100
AcDbLine
 10
30
 20
-3
 11
34
 21
-3
  0
LINE
  5
18A
100
AcDbEntity
  8
Templ_Ligat
  6
ByLayer
 62
  256
370
   -1
100
AcDbLine
 10
38
 20
-3
 11
42
 21
-3
  0
LINE
  5
18B
100
AcDbEntity
  8
Templ_Ligat
  6
ByLayer
 62
  256
370
   -1
100
AcDbLine
 10
34
 20
-3
 11
38
 21
-3
  0
LINE
  5
18C
100
AcDbEntity
  8
Templ_lim
  6
ByLayer
 62
  256
370
   -1
100
AcDbLine
 10
3
 20
-5
 11
3
 21
-11
  0
LINE
  5
18D
100
AcDbEntity
  8
Templ_lim
  6
ByLayer
 62
  256
370
   -1
100
AcDbLine
 10
5
 20
-5
 11
5
 21
-11
  0
LINE
  5
18E
100
AcDbEntity
  8
Templ_lim
  6
ByLayer
 62
  256
370
   -1
100
AcDbLine
 10
3
 20
-11
 11
5
 21
-9
  0
LINE
  5
18F
100
AcDbEntity
  8
Templ_lim
  6
ByLayer
 62
  256
370
   -1
100
AcDbLine
 10
5
 20
-9
 11
3
 21
-7
  0
LINE
  5
190
100
AcDbEntity
  8
Templ_lim
  6
ByLayer
 62
  256
370
   -1
100
AcDbLine
 10
3
 20
-7
 11
5
 21
-5
  0
LINE
  5
191
100
AcDbEntity
  8
Templ_lim
  6
ByLayer
 62
  256
370
   -1
100
AcDbLine
 10
3
 20
-5
 11
5
 21
-7
  0
LINE
  5
192
100
AcDbEntity
  8
Templ_lim
  6
ByLayer
 62
  256
370
   -1
100
AcDbLine
 10
5
 20
-7
 11
3
 21
-9
  0
LINE
  5
193
100
AcDbEntity
  8
Templ_lim
  6
ByLayer
 62
  256
370
   -1
100
AcDbLine
 10
3
 20
-9
 11
5
 21
-11
  0
MTEXT
  5
194
100
AcDbEntity
  8
Templ_lim
  6
ByLayer
 62
  256
370
   -1
100
AcDbMText
 10
4
 20
-10
 30
0
 40
0.2
 41
1.311111213968572
 71
    5
 72
    1
  1
Descender
  7
standard
210
0
220
0
230
1
 50
0
 73
    2
 44
1
  0
MTEXT
  5
195
100
AcDbEntity
  8
Templ_lim
  6
ByLayer
 62
  256
370
   -1
100
AcDbMText
 10
4
 20
-6
 30
0
 40
0.2
 41
1.177777880635227
 71
    5
 72
    1
  1
Ascender
  7
standard
210
0
220
0
230
1
 50
0
 73
    2
 44
1
  0
MTEXT
  5
196
100
AcDbEntity
  8
Templ_lim
  6
ByLayer
 62
  256
370
   -1
100
AcDbMText
 10
4
 20
-8
 30
0
 40
0.2
 41
0.844444444444463
 71
    5
 72
    1
  1
Normal\PHeight
  7
standard
210
0
220
0
230
1
 50
0
 73
    2
 44
1
  0
CIRCLE
  5
197
100
AcDbEntity
  8
Templ_lim
  6
ByLayer
 62
  256
370
   -1
100
AcDbCircle
 10
4
 20
-8
 40
1
  0
CIRCLE
  5
198
100
AcDbEntity
  8
Templ_lim
  6
ByLayer
 62
  256
370
   -1
100
AcDbCircle
 10
4
 20
-6
 40
1
  0
CIRCLE
  5
199
100
AcDbEntity
  8
Templ_lim
  6
ByLayer
 62
  256
370
   -1
100
AcDbCircle
 10
4
 20
-10
 40
1
  0
LINE
  5
19A
100
AcDbEntity
  8
Templ_Ligat
  6
ByLayer
 62
  256
370
   -1
100
AcDbLine
 10
2
 20
-11
 11
6
 21
-11
  0
LINE
  5
19B
100
AcDbEntity
  8
Templ_Ligat
  6
ByLayer
 62
  256
370
   -1
100
AcDbLine
 10
2
 20
-5
 11
6
 21
-5
  0
LINE
  5
19C
100
AcDbEntity
  8
Templ_Ligat
  6
ByLayer
 62
  256
370
   -1
100
AcDbLine
 10
6
 20
-3
 11
6
 21
-11
  0
LINE
  5
19D
100
AcDbEntity
  8
Templ_Ligat
  6
ByLayer
 62
  256
370
   -1
100
AcDbLine
 10
2
 20
-3
 11
6
 21
-5
  0
LINE
  5
19E
100
AcDbEntity
  8
Templ_Ligat
  6
ByLayer
 62
  256
370
   -1
100
AcDbLine
 10
6
 20
-3
 11
2
 21
-5
  0
MTEXT
  5
19F
100
AcDbEntity
  8
Templ_Ligat
  6
ByLayer
 62
  256
370
   -1
100
AcDbMText
 10
4
 20
-4
 30
0
 40
0.5
 41
1.555555555555602
 71
    5
 72
    1
  1
Name
  7
standard
210
0
220
0
230
1
 50
0
 73
    2
 44
1
  0
LINE
  5
1A0
100
AcDbEntity
  8
Templ_lim
  6
ByLayer
 62
  256
370
   -1
100
AcDbLine
 10
7
 20
-5
 11
7
 21
-11
  0
LINE
  5
1A1
100
AcDbEntity
  8
Templ_lim
  6
ByLayer
 62
  256
370
   -1
100
AcDbLine
 10
9
 20
-5
 11
9
 21
-11
  0
LINE
  5
1A2
100
AcDbEntity
  8
Templ_lim
  6
ByLayer
 62
  256
370
   -1
100
AcDbLine
 10
7
 20
-11
 11
9
 21
-9
  0
LINE
  5
1A3
100
AcDbEntity
  8
Templ_lim
  6
ByLayer
 62
  256
370
   -1
100
AcDbLine
 10
9
 20
-9
 11
7
 21
-7
  0
LINE
  5
1A4
100
AcDbEntity
  8
Templ_lim
  6
ByLayer
 62
  256
370
   -1
100
AcDbLine
 10
7
 20
-7
 11
9
 21
-5
  0
LINE
  5
1A5
100
AcDbEntity
  8
Templ_lim
  6
ByLayer
 62
  256
370
   -1
100
AcDbLine
 10
7
 20
-5
 11
9
 21
-7
  0
LINE
  5
1A6
100
AcDbEntity
  8
Templ_lim
  6
ByLayer
 62
  256
370
   -1
100
AcDbLine
 10
9
 20
-7
 11
7
 21
-9
  0
LINE
  5
1A7
100
AcDbEntity
  8
Templ_lim
  6
ByLayer
 62
  256
370
   -1
100
AcDbLine
 10
7
 20
-9
 11
9
 21
-11
  0
MTEXT
  5
1A8
100
AcDbEntity
  8
Templ_lim
  6
ByLayer
 62
  256
370
   -1
100
AcDbMText
 10
8
 20
-10
 30
0
 40
0.2
 41
1.311111213968572
 71
    5
 72
    1
  1
Descender
  7
standard
210
0
220
0
230
1
 50
0
 73
    2
 44
1
  0
MTEXT
  5
1A9
100
AcDbEntity
  8
Templ_lim
  6
ByLayer
 62
  256
370
   -1
100
AcDbMText
 10
8
 20
-6
 30
0
 40
0.2
 41
1.177777880635227
 71
    5
 72
    1
  1
Ascender
  7
standard
210
0
220
0
230
1
 50
0
 73
    2
 44
1
  0
MTEXT
  5
1AA
100
AcDbEntity
  8
Templ_lim
  6
ByLayer
 62
  256
370
   -1
100
AcDbMText
 10
8
 20
-8
 30
0
 40
0.2
 41
0.844444444444463
 71
    5
 72
    1
  1
Normal\PHeight
  7
standard
210
0
220
0
230
1
 50
0
 73
    2
 44
1
  0
CIRCLE
  5
1AB
100
AcDbEntity
  8
Templ_lim
  6
ByLayer
 62
  256
370
   -1
100
AcDbCircle
 10
8
 20
-8
 40
1
  0
CIRCLE
  5
1AC
100
AcDbEntity
  8
Templ_lim
  6
ByLayer
 62
  256
370
   -1
100
AcDbCircle
 10
8
 20
-6
 40
1
  0
CIRCLE
  5
1AD
100
AcDbEntity
  8
Templ_lim
  6
ByLayer
 62
  256
370
   -1
100
AcDbCircle
 10
8
 20
-10
 40
1
  0
LINE
  5
1AE
100
AcDbEntity
  8
Templ_Ligat
  6
ByLayer
 62
  256
370
   -1
100
AcDbLine
 10
6
 20
-11
 11
10
 21
-11
  0
LINE
  5
1AF
100
AcDbEntity
  8
Templ_Ligat
  6
ByLayer
 62
  256
370
   -1
100
AcDbLine
 10
6
 20
-5
 11
10
 21
-5
  0
LINE
  5
1B0
100
AcDbEntity
  8
Templ_Ligat
  6
ByLayer
 62
  256
370
   -1
100
AcDbLine
 10
10
 20
-3
 11
10
 21
-11
  0
LINE
  5
1B1
100
AcDbEntity
  8
Templ_Ligat
  6
ByLayer
 62
  256
370
   -1
100
AcDbLine
 10
6
 20
-3
 11
10
 21
-5
  0
LINE
  5
1B2
100
AcDbEntity
  8
Templ_Ligat
  6
ByLayer
 62
  256
370
   -1
100
AcDbLine
 10
10
 20
-3
 11
6
 21
-5
  0
MTEXT
  5
1B3
100
AcDbEntity
  8
Templ_Ligat
  6
ByLayer
 62
  256
370
   -1
100
AcDbMText
 10
8
 20
-4
 30
0
 40
0.5
 41
1.555555555555602
 71
    5
 72
    1
  1
Name
  7
standard
210
0
220
0
230
1
 50
0
 73
    2
 44
1
  0
LINE
  5
1B4
100
AcDbEntity
  8
Templ_Ligat
  6
ByLayer
 62
  256
370
   -1
100
AcDbLine
 10
2
 20
-9
 11
6
 21
-9
  0
LINE
  5
1B5
100
AcDbEntity
  8
Templ_Ligat
  6
ByLayer
 62
  256
370
   -1
100
AcDbLine
 10
2
 20
-7
 11
6
 21
-7
  0
LINE
  5
1B6
100
AcDbEntity
  8
Templ_Ligat
  6
ByLayer
 62
  256
370
   -1
100
AcDbLine
 10
6
 20
-9
 11
10
 21
-9
  0
LINE
  5
1B7
100
AcDbEntity
  8
Templ_Ligat
  6
ByLayer
 62
  256
370
   -1
100
AcDbLine
 10
6
 20
-7
 11
10
 21
-7
  0
LINE
  5
1B8
100
AcDbEntity
  8
Ligat
  6
ByLayer
 62
  256
370
   -1
100
AcDbLine
 10
9.5
 20
-9
 11
10
 21
-9
  0
ARC
  5
1B9
100
AcDbEntity
  8
Ligat
  6
ByLayer
 62
  256
370
   -1
100
AcDbCircle
 10
9.5
 20
-8.5
 40
0.5
100
AcDbArc
 50
180.0000000000002
 51
270
  0
LINE
  5
1BA
100
AcDbEntity
  8
Ligat
  6
ByLayer
 62
  256
370
   -1
100
AcDbLine
 10
6.5
 20
-9
 11
6
 21
-9
  0
ARC
  5
1BB
100
AcDbEntity
  8
Ligat
  6
ByLayer
 62
  256
370
   -1
100
AcDbCircle
 10
6.5
 20
-8.5
 40
0.5
100
AcDbArc
 50
270
 51
359.9999999999998
  0
LINE
  5
1BC
100
AcDbEntity
  8
Templ_lim
  6
ByLayer
 62
  256
370
   -1
100
AcDbLine
 10
11
 20
-5
 11
11
 21
-11
  0
LINE
  5
1BD
100
AcDbEntity
  8
Templ_lim
  6
ByLayer
 62
  256
370
   -1
100
AcDbLine
 10
13
 20
-5
 11
13
 21
-11
  0
LINE
  5
1BE
100
AcDbEntity
  8
Templ_lim
  6
ByLayer
 62
  256
370
   -1
100
AcDbLine
 10
11
 20
-11
 11
13
 21
-9
  0
LINE
  5
1BF
100
AcDbEntity
  8
Templ_lim
  6
ByLayer
 62
  256
370
   -1
100
AcDbLine
 10
13
 20
-9
 11
11
 21
-7
  0
LINE
  5
1C0
100
AcDbEntity
  8
Templ_lim
  6
ByLayer
 62
  256
370
   -1
100
AcDbLine
 10
11
 20
-7
 11
13
 21
-5
  0
LINE
  5
1C1
100
AcDbEntity
  8
Templ_lim
  6
ByLayer
 62
  256
370
   -1
100
AcDbLine
 10
11
 20
-5
 11
13
 21
-7
  0
LINE
  5
1C2
100
AcDbEntity
  8
Templ_lim
  6
ByLayer
 62
  256
370
   -1
100
AcDbLine
 10
13
 20
-7
 11
11
 21
-9
  0
LINE
  5
1C3
100
AcDbEntity
  8
Templ_lim
  6
ByLayer
 62
  256
370
   -1
100
AcDbLine
 10
11
 20
-9
 11
13
 21
-11
  0
MTEXT
  5
1C4
100
AcDbEntity
  8
Templ_lim
  6
ByLayer
 62
  256
370
   -1
100
AcDbMText
 10
12
 20
-10
 30
0
 40
0.2
 41
1.311111213968572
 71
    5
 72
    1
  1
Descender
  7
standard
210
0
220
0
230
1
 50
0
 73
    2
 44
1
  0
MTEXT
  5
1C5
100
AcDbEntity
  8
Templ_lim
  6
ByLayer
 62
  256
370
   -1
100
AcDbMText
 10
12
 20
-6
 30
0
 40
0.2
 41
1.177777880635227
 71
    5
 72
    1
  1
Ascender
  7
standard
210
0
220
0
230
1
 50
0
 73
    2
 44
1
  0
MTEXT
  5
1C6
100
AcDbEntity
  8
Templ_lim
  6
ByLayer
 62
  256
370
   -1
100
AcDbMText
 10
12
 20
-8
 30
0
 40
0.2
 41
0.844444444444463
 71
    5
 72
    1
  1
Normal\PHeight
  7
standard
210
0
220
0
230
1
 50
0
 73
    2
 44
1
  0
CIRCLE
  5
1C7
100
AcDbEntity
  8
Templ_lim
  6
ByLayer
 62
  256
370
   -1
100
AcDbCircle
 10
12
 20
-8
 40
1
  0
CIRCLE
  5
1C8
100
AcDbEntity
  8
Templ_lim
  6
ByLayer
 62
  256
370
   -1
100
AcDbCircle
 10
12
 20
-6
 40
1
  0
CIRCLE
  5
1C9
100
AcDbEntity
  8
Templ_lim
  6
ByLayer
 62
  256
370
   -1
100
AcDbCircle
 10
12
 20
-10
 40
1
  0
LINE
  5
1CA
100
AcDbEntity
  8
Templ_Ligat
  6
ByLayer
 62
  256
370
   -1
100
AcDbLine
 10
10
 20
-11
 11
14
 21
-11
  0
LINE
  5
1CB
100
AcDbEntity
  8
Templ_Ligat
  6
ByLayer
 62
  256
370
   -1
100
AcDbLine
 10
10
 20
-5
 11
14
 21
-5
  0
LINE
  5
1CC
100
AcDbEntity
  8
Templ_Ligat
  6
ByLayer
 62
  256
370
   -1
100
AcDbLine
 10
14
 20
-3
 11
14
 21
-11
  0
LINE
  5
1CD
100
AcDbEntity
  8
Templ_Ligat
  6
ByLayer
 62
  256
370
   -1
100
AcDbLine
 10
10
 20
-3
 11
14
 21
-5
  0
LINE
  5
1CE
100
AcDbEntity
  8
Templ_Ligat
  6
ByLayer
 62
  256
370
   -1
100
AcDbLine
 10
14
 20
-3
 11
10
 21
-5
  0
MTEXT
  5
1CF
100
AcDbEntity
  8
Templ_Ligat
  6
ByLayer
 62
  256
370
   -1
100
AcDbMText
 10
12
 20
-4
 30
0
 40
0.5
 41
1.555555555555602
 71
    5
 72
    1
  1
Name
  7
standard
210
0
220
0
230
1
 50
0
 73
    2
 44
1
  0
LINE
  5
1D0
100
AcDbEntity
  8
Templ_lim
  6
ByLayer
 62
  256
370
   -1
100
AcDbLine
 10
15
 20
-5
 11
15
 21
-11
  0
LINE
  5
1D1
100
AcDbEntity
  8
Templ_lim
  6
ByLayer
 62
  256
370
   -1
100
AcDbLine
 10
17
 20
-5
 11
17
 21
-11
  0
LINE
  5
1D2
100
AcDbEntity
  8
Templ_lim
  6
ByLayer
 62
  256
370
   -1
100
AcDbLine
 10
15
 20
-11
 11
17
 21
-9
  0
LINE
  5
1D3
100
AcDbEntity
  8
Templ_lim
  6
ByLayer
 62
  256
370
   -1
100
AcDbLine
 10
17
 20
-9
 11
15
 21
-7
  0
LINE
  5
1D4
100
AcDbEntity
  8
Templ_lim
  6
ByLayer
 62
  256
370
   -1
100
AcDbLine
 10
15
 20
-7
 11
17
 21
-5
  0
LINE
  5
1D5
100
AcDbEntity
  8
Templ_lim
  6
ByLayer
 62
  256
370
   -1
100
AcDbLine
 10
15
 20
-5
 11
17
 21
-7
  0
LINE
  5
1D6
100
AcDbEntity
  8
Templ_lim
  6
ByLayer
 62
  256
370
   -1
100
AcDbLine
 10
17
 20
-7
 11
15
 21
-9
  0
LINE
  5
1D7
100
AcDbEntity
  8
Templ_lim
  6
ByLayer
 62
  256
370
   -1
100
AcDbLine
 10
15
 20
-9
 11
17
 21
-11
  0
MTEXT
  5
1D8
100
AcDbEntity
  8
Templ_lim
  6
ByLayer
 62
  256
370
   -1
100
AcDbMText
 10
16
 20
-10
 30
0
 40
0.2
 41
1.311111213968572
 71
    5
 72
    1
  1
Descender
  7
standard
210
0
220
0
230
1
 50
0
 73
    2
 44
1
  0
MTEXT
  5
1D9
100
AcDbEntity
  8
Templ_lim
  6
ByLayer
 62
  256
370
   -1
100
AcDbMText
 10
16
 20
-6
 30
0
 40
0.2
 41
1.177777880635227
 71
    5
 72
    1
  1
Ascender
  7
standard
210
0
220
0
230
1
 50
0
 73
    2
 44
1
  0
MTEXT
  5
1DA
100
AcDbEntity
  8
Templ_lim
  6
ByLayer
 62
  256
370
   -1
100
AcDbMText
 10
16
 20
-8
 30
0
 40
0.2
 41
0.844444444444463
 71
    5
 72
    1
  1
Normal\PHeight
  7
standard
210
0
220
0
230
1
 50
0
 73
    2
 44
1
  0
CIRCLE
  5
1DB
100
AcDbEntity
  8
Templ_lim
  6
ByLayer
 62
  256
370
   -1
100
AcDbCircle
 10
16
 20
-8
 40
1
  0
CIRCLE
  5
1DC
100
AcDbEntity
  8
Templ_lim
  6
ByLayer
 62
  256
370
   -1
100
AcDbCircle
 10
16
 20
-6
 40
1
  0
CIRCLE
  5
1DD
100
AcDbEntity
  8
Templ_lim
  6
ByLayer
 62
  256
370
   -1
100
AcDbCircle
 10
16
 20
-10
 40
1
  0
LINE
  5
1DE
100
AcDbEntity
  8
Templ_Ligat
  6
ByLayer
 62
  256
370
   -1
100
AcDbLine
 10
14
 20
-11
 11
18
 21
-11
  0
LINE
  5
1DF
100
AcDbEntity
  8
Templ_Ligat
  6
ByLayer
 62
  256
370
   -1
100
AcDbLine
 10
14
 20
-5
 11
18
 21
-5
  0
LINE
  5
1E0
100
AcDbEntity
  8
Templ_Ligat
  6
ByLayer
 62
  256
370
   -1
100
AcDbLine
 10
18
 20
-3
 11
18
 21
-11
  0
LINE
  5
1E1
100
AcDbEntity
  8
Templ_Ligat
  6
ByLayer
 62
  256
370
   -1
100
AcDbLine
 10
14
 20
-3
 11
18
 21
-5
  0
LINE
  5
1E2
100
AcDbEntity
  8
Templ_Ligat
  6
ByLayer
 62
  256
370
   -1
100
AcDbLine
 10
18
 20
-3
 11
14
 21
-5
  0
MTEXT
  5
1E3
100
AcDbEntity
  8
Templ_Ligat
  6
ByLayer
 62
  256
370
   -1
100
AcDbMText
 10
16
 20
-4
 30
0
 40
0.5
 41
1.555555555555602
 71
    5
 72
    1
  1
Name
  7
standard
210
0
220
0
230
1
 50
0
 73
    2
 44
1
  0
LINE
  5
1E4
100
AcDbEntity
  8
Templ_Ligat
  6
ByLayer
 62
  256
370
   -1
100
AcDbLine
 10
10
 20
-9
 11
14
 21
-9
  0
LINE
  5
1E5
100
AcDbEntity
  8
Templ_Ligat
  6
ByLayer
 62
  256
370
   -1
100
AcDbLine
 10
10
 20
-7
 11
14
 21
-7
  0
LINE
  5
1E6
100
AcDbEntity
  8
Templ_Ligat
  6
ByLayer
 62
  256
370
   -1
100
AcDbLine
 10
14
 20
-9
 11
18
 21
-9
  0
LINE
  5
1E7
100
AcDbEntity
  8
Templ_Ligat
  6
ByLayer
 62
  256
370
   -1
100
AcDbLine
 10
14
 20
-7
 11
18
 21
-7
  0
ARC
  5
1E8
100
AcDbEntity
  8
0
  6
ByLayer
 62
  256
370
   -1
100
AcDbCircle
 10
11.25
 20
-10.75
 40
0.25
100
AcDbArc
 50
179.9999999999996
 51
270
  0
LINE
  5
1E9
100
AcDbEntity
  8
0
  6
ByLayer
 62
  256
370
   -1
100
AcDbLine
 10
11
 20
-8
 11
11
 21
-10.75
  0
LINE
  5
1EA
100
AcDbEntity
  8
Templ_lim
  6
ByLayer
 62
  256
370
   -1
100
AcDbLine
 10
19
 20
-5
 11
19
 21
-11
  0
LINE
  5
1EB
100
AcDbEntity
  8
Templ_lim
  6
ByLayer
 62
  256
370
   -1
100
AcDbLine
 10
21
 20
-5
 11
21
 21
-11
  0
LINE
  5
1EC
100
AcDbEntity
  8
Templ_lim
  6
ByLayer
 62
  256
370
   -1
100
AcDbLine
 10
19
 20
-11
 11
21
 21
-9
  0
LINE
  5
1ED
100
AcDbEntity
  8
Templ_lim
  6
ByLayer
 62
  256
370
   -1
100
AcDbLine
 10
21
 20
-9
 11
19
 21
-7
  0
LINE
  5
1EE
100
AcDbEntity
  8
Templ_lim
  6
ByLayer
 62
  256
370
   -1
100
AcDbLine
 10
19
 20
-7
 11
21
 21
-5
  0
LINE
  5
1EF
100
AcDbEntity
  8
Templ_lim
  6
ByLayer
 62
  256
370
   -1
100
AcDbLine
 10
19
 20
-5
 11
21
 21
-7
  0
LINE
  5
1F0
100
AcDbEntity
  8
Templ_lim
  6
ByLayer
 62
  256
370
   -1
100
AcDbLine
 10
21
 20
-7
 11
19
 21
-9
  0
LINE
  5
1F1
100
AcDbEntity
  8
Templ_lim
  6
ByLayer
 62
  256
370
   -1
100
AcDbLine
 10
19
 20
-9
 11
21
 21
-11
  0
MTEXT
  5
1F2
100
AcDbEntity
  8
Templ_lim
  6
ByLayer
 62
  256
370
   -1
100
AcDbMText
 10
20
 20
-10
 30
0
 40
0.2
 41
1.311111213968572
 71
    5
 72
    1
  1
Descender
  7
standard
210
0
220
0
230
1
 50
0
 73
    2
 44
1
  0
MTEXT
  5
1F3
100
AcDbEntity
  8
Templ_lim
  6
ByLayer
 62
  256
370
   -1
100
AcDbMText
 10
20
 20
-6
 30
0
 40
0.2
 41
1.177777880635227
 71
    5
 72
    1
  1
Ascender
  7
standard
210
0
220
0
230
1
 50
0
 73
    2
 44
1
  0
MTEXT
  5
1F4
100
AcDbEntity
  8
Templ_lim
  6
ByLayer
 62
  256
370
   -1
100
AcDbMText
 10
20
 20
-8
 30
0
 40
0.2
 41
0.844444444444463
 71
    5
 72
    1
  1
Normal\PHeight
  7
standard
210
0
220
0
230
1
 50
0
 73
    2
 44
1
  0
CIRCLE
  5
1F5
100
AcDbEntity
  8
Templ_lim
  6
ByLayer
 62
  256
370
   -1
100
AcDbCircle
 10
20
 20
-8
 40
1
  0
CIRCLE
  5
1F6
100
AcDbEntity
  8
Templ_lim
  6
ByLayer
 62
  256
370
   -1
100
AcDbCircle
 10
20
 20
-6
 40
1
  0
CIRCLE
  5
1F7
100
AcDbEntity
  8
Templ_lim
  6
ByLayer
 62
  256
370
   -1
100
AcDbCircle
 10
20
 20
-10
 40
1
  0
LINE
  5
1F8
100
AcDbEntity
  8
Templ_Ligat
  6
ByLayer
 62
  256
370
   -1
100
AcDbLine
 10
18
 20
-11
 11
22
 21
-11
  0
LINE
  5
1F9
100
AcDbEntity
  8
Templ_Ligat
  6
ByLayer
 62
  256
370
   -1
100
AcDbLine
 10
18
 20
-5
 11
22
 21
-5
  0
LINE
  5
1FA
100
AcDbEntity
  8
Templ_Ligat
  6
ByLayer
 62
  256
370
   -1
100
AcDbLine
 10
22
 20
-3
 11
22
 21
-11
  0
LINE
  5
1FB
100
AcDbEntity
  8
Templ_Ligat
  6
ByLayer
 62
  256
370
   -1
100
AcDbLine
 10
18
 20
-3
 11
22
 21
-5
  0
LINE
  5
1FC
100
AcDbEntity
  8
Templ_Ligat
  6
ByLayer
 62
  256
370
   -1
100
AcDbLine
 10
22
 20
-3
 11
18
 21
-5
  0
MTEXT
  5
1FD
100
AcDbEntity
  8
Templ_Ligat
  6
ByLayer
 62
  256
370
   -1
100
AcDbMText
 10
20
 20
-4
 30
0
 40
0.5
 41
1.555555555555602
 71
    5
 72
    1
  1
Name
  7
standard
210
0
220
0
230
1
 50
0
 73
    2
 44
1
  0
LINE
  5
1FE
100
AcDbEntity
  8
Templ_lim
  6
ByLayer
 62
  256
370
   -1
100
AcDbLine
 10
23
 20
-5
 11
23
 21
-11
  0
LINE
  5
1FF
100
AcDbEntity
  8
Templ_lim
  6
ByLayer
 62
  256
370
   -1
100
AcDbLine
 10
25
 20
-5
 11
25
 21
-11
  0
LINE
  5
200
100
AcDbEntity
  8
Templ_lim
  6
ByLayer
 62
  256
370
   -1
100
AcDbLine
 10
23
 20
-11
 11
25
 21
-9
  0
LINE
  5
201
100
AcDbEntity
  8
Templ_lim
  6
ByLayer
 62
  256
370
   -1
100
AcDbLine
 10
25
 20
-9
 11
23
 21
-7
  0
LINE
  5
202
100
AcDbEntity
  8
Templ_lim
  6
ByLayer
 62
  256
370
   -1
100
AcDbLine
 10
23
 20
-7
 11
25
 21
-5
  0
LINE
  5
203
100
AcDbEntity
  8
Templ_lim
  6
ByLayer
 62
  256
370
   -1
100
AcDbLine
 10
23
 20
-5
 11
25
 21
-7
  0
LINE
  5
204
100
AcDbEntity
  8
Templ_lim
  6
ByLayer
 62
  256
370
   -1
100
AcDbLine
 10
25
 20
-7
 11
23
 21
-9
  0
LINE
  5
205
100
AcDbEntity
  8
Templ_lim
  6
ByLayer
 62
  256
370
   -1
100
AcDbLine
 10
23
 20
-9
 11
25
 21
-11
  0
MTEXT
  5
206
100
AcDbEntity
  8
Templ_lim
  6
ByLayer
 62
  256
370
   -1
100
AcDbMText
 10
24
 20
-10
 30
0
 40
0.2
 41
1.311111213968572
 71
    5
 72
    1
  1
Descender
  7
standard
210
0
220
0
230
1
 50
0
 73
    2
 44
1
  0
MTEXT
  5
207
100
AcDbEntity
  8
Templ_lim
  6
ByLayer
 62
  256
370
   -1
100
AcDbMText
 10
24
 20
-6
 30
0
 40
0.2
 41
1.177777880635227
 71
    5
 72
    1
  1
Ascender
  7
standard
210
0
220
0
230
1
 50
0
 73
    2
 44
1
  0
MTEXT
  5
208
100
AcDbEntity
  8
Templ_lim
  6
ByLayer
 62
  256
370
   -1
100
AcDbMText
 10
24
 20
-8
 30
0
 40
0.2
 41
0.844444444444463
 71
    5
 72
    1
  1
Normal\PHeight
  7
standard
210
0
220
0
230
1
 50
0
 73
    2
 44
1
  0
CIRCLE
  5
209
100
AcDbEntity
  8
Templ_lim
  6
ByLayer
 62
  256
370
   -1
100
AcDbCircle
 10
24
 20
-8
 40
1
  0
CIRCLE
  5
20A
100
AcDbEntity
  8
Templ_lim
  6
ByLayer
 62
  256
370
   -1
100
AcDbCircle
 10
24
 20
-6
 40
1
  0
CIRCLE
  5
20B
100
AcDbEntity
  8
Templ_lim
  6
ByLayer
 62
  256
370
   -1
100
AcDbCircle
 10
24
 20
-10
 40
1
  0
LINE
  5
20C
100
AcDbEntity
  8
Templ_Ligat
  6
ByLayer
 62
  256
370
   -1
100
AcDbLine
 10
22
 20
-11
 11
26
 21
-11
  0
LINE
  5
20D
100
AcDbEntity
  8
Templ_Ligat
  6
ByLayer
 62
  256
370
   -1
100
AcDbLine
 10
22
 20
-5
 11
26
 21
-5
  0
LINE
  5
20E
100
AcDbEntity
  8
Templ_Ligat
  6
ByLayer
 62
  256
370
   -1
100
AcDbLine
 10
26
 20
-3
 11
26
 21
-11
  0
LINE
  5
20F
100
AcDbEntity
  8
Templ_Ligat
  6
ByLayer
 62
  256
370
   -1
100
AcDbLine
 10
22
 20
-3
 11
26
 21
-5
  0
LINE
  5
210
100
AcDbEntity
  8
Templ_Ligat
  6
ByLayer
 62
  256
370
   -1
100
AcDbLine
 10
26
 20
-3
 11
22
 21
-5
  0
MTEXT
  5
211
100
AcDbEntity
  8
Templ_Ligat
  6
ByLayer
 62
  256
370
   -1
100
AcDbMText
 10
24
 20
-4
 30
0
 40
0.5
 41
1.555555555555602
 71
    5
 72
    1
  1
Name
  7
standard
210
0
220
0
230
1
 50
0
 73
    2
 44
1
  0
LINE
  5
212
100
AcDbEntity
  8
Templ_Ligat
  6
ByLayer
 62
  256
370
   -1
100
AcDbLine
 10
18
 20
-9
 11
22
 21
-9
  0
LINE
  5
213
100
AcDbEntity
  8
Templ_Ligat
  6
ByLayer
 62
  256
370
   -1
100
AcDbLine
 10
18
 20
-7
 11
22
 21
-7
  0
LINE
  5
214
100
AcDbEntity
  8
Templ_Ligat
  6
ByLayer
 62
  256
370
   -1
100
AcDbLine
 10
22
 20
-9
 11
26
 21
-9
  0
LINE
  5
215
100
AcDbEntity
  8
Templ_Ligat
  6
ByLayer
 62
  256
370
   -1
100
AcDbLine
 10
22
 20
-7
 11
26
 21
-7
  0
LINE
  5
216
100
AcDbEntity
  8
Ligat
  6
ByLayer
 62
  256
370
   -1
100
AcDbLine
 10
19
 20
-9
 11
18
 21
-9
  0
LINE
  5
217
100
AcDbEntity
  8
0
  6
ByLayer
 62
  256
370
   -1
100
AcDbLine
 10
19
 20
-9
 11
20
 21
-9.000000000000099
  0
MTEXT
  5
218
100
AcDbEntity
  8
0
  6
ByLayer
 62
  256
370
   -1
100
AcDbMText
 10
20
 20
-4
 30
0
 40
0.5
 41
3.541666812699177
 71
    5
 72
    1
  1
Tah\P(All forms)
  7
standard
210
0
220
0
230
1
 50
0
 73
    2
 44
1
  0
ELLIPSE
  5
219
100
AcDbEntity
  8
0
  6
ByLayer
 62
  256
370
   -1
100
AcDbEllipse
 10
25
 20
-9.999999161817989
 30
0
 11
-2
 21
-1.396911275763912e-06
 31
0
 40
0.4999995809087505
 41
4.712388631157164
 42
1.570795977567371
  0
ELLIPSE
  5
21A
100
AcDbEntity
  8
0
  6
ByLayer
 62
  256
370
   -1
100
AcDbEllipse
 10
25
 20
-9.000000000000409
 30
0
 11
-2
 21
4.096722960866828e-13
 31
0
 40
0.4999998052186194
 41
4.712388980384792
 42
0.5235991699352607
  0
MTEXT
  5
21B
100
AcDbEntity
  8
0
  6
ByLayer
 62
  256
370
   -1
100
AcDbMText
 10
24
 20
-4
 30
0
 40
0.5
 41
2.944444590476956
 71
    5
 72
    1
  1
Ayin\P(Isolated)
  7
standard
210
0
220
0
230
1
 50
0
 73
    2
 44
1
  0
LINE
  5
21C
100
AcDbEntity
  8
Templ_Ligat
  6
ByLayer
 62
  256
370
   -1
100
AcDbLine
 10
26
 20
-3
 11
26
 21
-11
  0
LINE
  5
21D
100
AcDbEntity
  8
Templ_Ligat
  6
ByLayer
 62
  256
370
   -1
100
AcDbLine
 10
-2
 20
-3
 11
-2
 21
-11
  0
LINE
  5
21E
100
AcDbEntity
  8
Templ_lim
  6
ByLayer
 62
  256
370
   -1
100
AcDbLine
 10
-1
 20
-5
 11
-1
 21
-11
  0
LINE
  5
21F
100
AcDbEntity
  8
Templ_lim
  6
ByLayer
 62
  256
370
   -1
100
AcDbLine
 10
1
 20
-5
 11
1
 21
-11
  0
LINE
  5
220
100
AcDbEntity
  8
Templ_lim
  6
ByLayer
 62
  256
370
   -1
100
AcDbLine
 10
-1
 20
-11
 11
1
 21
-9
  0
LINE
  5
221
100
AcDbEntity
  8
Templ_lim
  6
ByLayer
 62
  256
370
   -1
100
AcDbLine
 10
1
 20
-9
 11
-1
 21
-7
  0
LINE
  5
222
100
AcDbEntity
  8
Templ_lim
  6
ByLayer
 62
  256
370
   -1
100
AcDbLine
 10
-1
 20
-7
 11
1
 21
-5
  0
LINE
  5
223
100
AcDbEntity
  8
Templ_lim
  6
ByLayer
 62
  256
370
   -1
100
AcDbLine
 10
-1
 20
-5
 11
1
 21
-7
  0
LINE
  5
224
100
AcDbEntity
  8
Templ_lim
  6
ByLayer
 62
  256
370
   -1
100
AcDbLine
 10
1
 20
-7
 11
-1
 21
-9
  0
LINE
  5
225
100
AcDbEntity
  8
Templ_lim
  6
ByLayer
 62
  256
370
   -1
100
AcDbLine
 10
-1
 20
-9
 11
1
 21
-11
  0
MTEXT
  5
226
100
AcDbEntity
  8
Templ_lim
  6
ByLayer
 62
  256
370
   -1
100
AcDbMText
 10
0
 20
-10
 30
0
 40
0.2
 41
1.311111213968572
 71
    5
 72
    1
  1
Descender
  7
standard
210
0
220
0
230
1
 50
0
 73
    2
 44
1
  0
MTEXT
  5
227
100
AcDbEntity
  8
Templ_lim
  6
ByLayer
 62
  256
370
   -1
100
AcDbMText
 10
0
 20
-6
 30
0
 40
0.2
 41
1.177777880635227
 71
    5
 72
    1
  1
Ascender
  7
standard
210
0
220
0
230
1
 50
0
 73
    2
 44
1
  0
MTEXT
  5
228
100
AcDbEntity
  8
Templ_lim
  6
ByLayer
 62
  256
370
   -1
100
AcDbMText
 10
0
 20
-8
 30
0
 40
0.2
 41
0.844444444444463
 71
    5
 72
    1
  1
Normal\PHeight
  7
standard
210
0
220
0
230
1
 50
0
 73
    2
 44
1
  0
CIRCLE
  5
229
100
AcDbEntity
  8
Templ_lim
  6
ByLayer
 62
  256
370
   -1
100
AcDbCircle
 10
0
 20
-8
 40
1
  0
CIRCLE
  5
22A
100
AcDbEntity
  8
Templ_lim
  6
ByLayer
 62
  256
370
   -1
100
AcDbCircle
 10
0
 20
-6
 40
1
  0
CIRCLE
  5
22B
100
AcDbEntity
  8
Templ_lim
  6
ByLayer
 62
  256
370
   -1
100
AcDbCircle
 10
0
 20
-10
 40
1
  0
LINE
  5
22C
100
AcDbEntity
  8
Templ_Ligat
  6
ByLayer
 62
  256
370
   -1
100
AcDbLine
 10
-2
 20
-11
 11
2
 21
-11
  0
LINE
  5
22D
100
AcDbEntity
  8
Templ_Ligat
  6
ByLayer
 62
  256
370
   -1
100
AcDbLine
 10
-2
 20
-5
 11
2
 21
-5
  0
LINE
  5
22E
100
AcDbEntity
  8
Templ_Ligat
  6
ByLayer
 62
  256
370
   -1
100
AcDbLine
 10
2
 20
-3
 11
2
 21
-11
  0
LINE
  5
22F
100
AcDbEntity
  8
Templ_Ligat
  6
ByLayer
 62
  256
370
   -1
100
AcDbLine
 10
-2
 20
-3
 11
2
 21
-5
  0
LINE
  5
230
100
AcDbEntity
  8
Templ_Ligat
  6
ByLayer
 62
  256
370
   -1
100
AcDbLine
 10
2
 20
-3
 11
-2
 21
-5
  0
MTEXT
  5
231
100
AcDbEntity
  8
Templ_Ligat
  6
ByLayer
 62
  256
370
   -1
100
AcDbMText
 10
0
 20
-4
 30
0
 40
0.5
 41
1.555555555555602
 71
    5
 72
    1
  1
Name
  7
standard
210
0
220
0
230
1
 50
0
 73
    2
 44
1
  0
LINE
  5
232
100
AcDbEntity
  8
Templ_Ligat
  6
ByLayer
 62
  256
370
   -1
100
AcDbLine
 10
-2
 20
-9
 11
2
 21
-9
  0
LINE
  5
233
100
AcDbEntity
  8
Templ_Ligat
  6
ByLayer
 62
  256
370
   -1
100
AcDbLine
 10
-2
 20
-7
 11
2
 21
-7
  0
LINE
  5
234
100
AcDbEntity
  8
0
  6
ByLayer
 62
  256
370
   -1
100
AcDbLine
 10
-1
 20
-8
 11
1
 21
-8
  0
LINE
  5
235
100
AcDbEntity
  8
0
  6
ByLayer
 62
  256
370
   -1
100
AcDbLine
 10
-1
 20
-9
 11
0
 21
-9
  0
LINE
  5
236
100
AcDbEntity
  8
Ligat
  6
ByLayer
 62
  256
370
   -1
100
AcDbLine
 10
-2
 20
-9
 11
-1
 21
-9
  0
ARC
  5
237
100
AcDbEntity
  8
0
  6
ByLayer
 62
  256
370
   -1
100
AcDbCircle
 10
0
 20
-8
 40
1
100
AcDbArc
 50
270.0000117262526
 51
360
  0
LINE
  5
238
100
AcDbEntity
  8
Ligat
  6
ByLayer
 62
  256
370
   -1
100
AcDbLine
 10
1
 20
-9
 11
2
 21
-9
  0
ARC
  5
239
100
AcDbEntity
  8
Ligat
  6
ByLayer
 62
  256
370
   -1
100
AcDbCircle
 10
1
 20
-8
 40
1
100
AcDbArc
 50
240
 51
270
  0
MTEXT
  5
23A
100
AcDbEntity
  8
0
  6
ByLayer
 62
  256
370
   -1
100
AcDbMText
 10
0
 20
-4
 30
0
 40
0.3
 41
2.733333266666709
 71
    5
 72
    1
  1
Jeem /\PGuttural Ha\P(Initial/Medial)
  7
standard
210
0
220
0
230
1
 50
0
 73
    2
 44
1
  0
LINE
  5
23B
100
AcDbEntity
  8
Templ_lim
  6
ByLayer
 62
  256
370
   -1
100
AcDbLine
 10
27
 20
-5
 11
27
 21
-11
  0
LINE
  5
23C
100
AcDbEntity
  8
Templ_lim
  6
ByLayer
 62
  256
370
   -1
100
AcDbLine
 10
27
 20
-11
 11
29
 21
-9
  0
LINE
  5
23D
100
AcDbEntity
  8
Templ_lim
  6
ByLayer
 62
  256
370
   -1
100
AcDbLine
 10
29
 20
-9
 11
27
 21
-7
  0
LINE
  5
23E
100
AcDbEntity
  8
Templ_lim
  6
ByLayer
 62
  256
370
   -1
100
AcDbLine
 10
27
 20
-7
 11
29
 21
-5
  0
LINE
  5
23F
100
AcDbEntity
  8
Templ_lim
  6
ByLayer
 62
  256
370
   -1
100
AcDbLine
 10
27
 20
-5
 11
29
 21
-7
  0
LINE
  5
240
100
AcDbEntity
  8
Templ_lim
  6
ByLayer
 62
  256
370
   -1
100
AcDbLine
 10
29
 20
-7
 11
27
 21
-9
  0
LINE
  5
241
100
AcDbEntity
  8
Templ_lim
  6
ByLayer
 62
  256
370
   -1
100
AcDbLine
 10
27
 20
-9
 11
29
 21
-11
  0
MTEXT
  5
242
100
AcDbEntity
  8
Templ_lim
  6
ByLayer
 62
  256
370
   -1
100
AcDbMText
 10
28
 20
-10
 30
0
 40
0.2
 41
1.311111213968572
 71
    5
 72
    1
  1
Descender
  7
standard
210
0
220
0
230
1
 50
0
 73
    2
 44
1
  0
MTEXT
  5
243
100
AcDbEntity
  8
Templ_lim
  6
ByLayer
 62
  256
370
   -1
100
AcDbMText
 10
28
 20
-6
 30
0
 40
0.2
 41
1.177777880635227
 71
    5
 72
    1
  1
Ascender
  7
standard
210
0
220
0
230
1
 50
0
 73
    2
 44
1
  0
MTEXT
  5
244
100
AcDbEntity
  8
Templ_lim
  6
ByLayer
 62
  256
370
   -1
100
AcDbMText
 10
28
 20
-8
 30
0
 40
0.2
 41
0.844444444444463
 71
    5
 72
    1
  1
Normal\PHeight
  7
standard
210
0
220
0
230
1
 50
0
 73
    2
 44
1
  0
CIRCLE
  5
245
100
AcDbEntity
  8
Templ_lim
  6
ByLayer
 62
  256
370
   -1
100
AcDbCircle
 10
28
 20
-8
 40
1
  0
CIRCLE
  5
246
100
AcDbEntity
  8
Templ_lim
  6
ByLayer
 62
  256
370
   -1
100
AcDbCircle
 10
28
 20
-6
 40
1
  0
CIRCLE
  5
247
100
AcDbEntity
  8
Templ_lim
  6
ByLayer
 62
  256
370
   -1
100
AcDbCircle
 10
28
 20
-10
 40
1
  0
LINE
  5
248
100
AcDbEntity
  8
Templ_Ligat
  6
ByLayer
 62
  256
370
   -1
100
AcDbLine
 10
26
 20
-5
 11
30
 21
-5
  0
LINE
  5
249
100
AcDbEntity
  8
Templ_Ligat
  6
ByLayer
 62
  256
370
   -1
100
AcDbLine
 10
26
 20
-3
 11
30
 21
-5
  0
LINE
  5
24A
100
AcDbEntity
  8
Templ_Ligat
  6
ByLayer
 62
  256
370
   -1
100
AcDbLine
 10
30
 20
-3
 11
26
 21
-5
  0
MTEXT
  5
24B
100
AcDbEntity
  8
Templ_Ligat
  6
ByLayer
 62
  256
370
   -1
100
AcDbMText
 10
28
 20
-4
 30
0
 40
0.5
 41
1.555555555555602
 71
    5
 72
    1
  1
Name
  7
standard
210
0
220
0
230
1
 50
0
 73
    2
 44
1
  0
LINE
  5
24C
100
AcDbEntity
  8
Templ_Ligat
  6
ByLayer
 62
  256
370
   -1
100
AcDbLine
 10
26
 20
-9
 11
30
 21
-9
  0
LINE
  5
24D
100
AcDbEntity
  8
Templ_Ligat
  6
ByLayer
 62
  256
370
   -1
100
AcDbLine
 10
26
 20
-7
 11
30
 21
-7
  0
LINE
  5
24E
100
AcDbEntity
  8
Ligat
  6
ByLayer
 62
  256
370
   -1
100
AcDbLine
 10
27
 20
-9
 11
26
 21
-9
  0
MTEXT
  5
24F
100
AcDbEntity
  8
0
  6
ByLayer
 62
  256
370
   -1
100
AcDbMText
 10
28
 20
-4
 30
0
 40
0.5
 41
2.111111000000046
 71
    5
 72
    1
  1
Ayin\P(initial)
  7
standard
210
0
220
0
230
1
 50
0
 73
    2
 44
1
  0
LINE
  5
250
100
AcDbEntity
  8
Templ_Ligat
  6
ByLayer
 62
  256
370
   -1
100
AcDbLine
 10
26
 20
-11
 11
30
 21
-11
  0
LINE
  5
251
100
AcDbEntity
  8
Templ_lim
  6
ByLayer
 62
  256
370
   -1
100
AcDbLine
 10
29
 20
-5
 11
29
 21
-11
  0
LINE
  5
252
100
AcDbEntity
  8
Templ_Ligat
  6
ByLayer
 62
  256
370
   -1
100
AcDbLine
 10
30
 20
-3
 11
30
 21
-11
  0
LINE
  5
253
100
AcDbEntity
  8
Templ_lim
  6
ByLayer
 62
  256
370
   -1
100
AcDbLine
 10
31
 20
-5
 11
31
 21
-11
  0
LINE
  5
254
100
AcDbEntity
  8
Templ_lim
  6
ByLayer
 62
  256
370
   -1
100
AcDbLine
 10
33
 20
-5
 11
33
 21
-11
  0
LINE
  5
255
100
AcDbEntity
  8
Templ_lim
  6
ByLayer
 62
  256
370
   -1
100
AcDbLine
 10
31
 20
-11
 11
33
 21
-9
  0
LINE
  5
256
100
AcDbEntity
  8
Templ_lim
  6
ByLayer
 62
  256
370
   -1
100
AcDbLine
 10
33
 20
-9
 11
31
 21
-7
  0
LINE
  5
257
100
AcDbEntity
  8
Templ_lim
  6
ByLayer
 62
  256
370
   -1
100
AcDbLine
 10
31
 20
-7
 11
33
 21
-5
  0
LINE
  5
258
100
AcDbEntity
  8
Templ_lim
  6
ByLayer
 62
  256
370
   -1
100
AcDbLine
 10
31
 20
-5
 11
33
 21
-7
  0
LINE
  5
259
100
AcDbEntity
  8
Templ_lim
  6
ByLayer
 62
  256
370
   -1
100
AcDbLine
 10
33
 20
-7
 11
31
 21
-9
  0
LINE
  5
25A
100
AcDbEntity
  8
Templ_lim
  6
ByLayer
 62
  256
370
   -1
100
AcDbLine
 10
31
 20
-9
 11
33
 21
-11
  0
MTEXT
  5
25B
100
AcDbEntity
  8
Templ_lim
  6
ByLayer
 62
  256
370
   -1
100
AcDbMText
 10
32
 20
-10
 30
0
 40
0.2
 41
1.311111213968572
 71
    5
 72
    1
  1
Descender
  7
standard
210
0
220
0
230
1
 50
0
 73
    2
 44
1
  0
MTEXT
  5
25C
100
AcDbEntity
  8
Templ_lim
  6
ByLayer
 62
  256
370
   -1
100
AcDbMText
 10
32
 20
-6
 30
0
 40
0.2
 41
1.177777880635227
 71
    5
 72
    1
  1
Ascender
  7
standard
210
0
220
0
230
1
 50
0
 73
    2
 44
1
  0
MTEXT
  5
25D
100
AcDbEntity
  8
Templ_lim
  6
ByLayer
 62
  256
370
   -1
100
AcDbMText
 10
32
 20
-8
 30
0
 40
0.2
 41
0.844444444444463
 71
    5
 72
    1
  1
Normal\PHeight
  7
standard
210
0
220
0
230
1
 50
0
 73
    2
 44
1
  0
CIRCLE
  5
25E
100
AcDbEntity
  8
Templ_lim
  6
ByLayer
 62
  256
370
   -1
100
AcDbCircle
 10
32
 20
-8
 40
1
  0
CIRCLE
  5
25F
100
AcDbEntity
  8
Templ_lim
  6
ByLayer
 62
  256
370
   -1
100
AcDbCircle
 10
32
 20
-6
 40
1
  0
CIRCLE
  5
260
100
AcDbEntity
  8
Templ_lim
  6
ByLayer
 62
  256
370
   -1
100
AcDbCircle
 10
32
 20
-10
 40
1
  0
LINE
  5
261
100
AcDbEntity
  8
Templ_Ligat
  6
ByLayer
 62
  256
370
   -1
100
AcDbLine
 10
30
 20
-5
 11
34
 21
-5
  0
LINE
  5
262
100
AcDbEntity
  8
Templ_Ligat
  6
ByLayer
 62
  256
370
   -1
100
AcDbLine
 10
34
 20
-3
 11
34
 21
-11
  0
LINE
  5
263
100
AcDbEntity
  8
Templ_Ligat
  6
ByLayer
 62
  256
370
   -1
100
AcDbLine
 10
30
 20
-3
 11
34
 21
-5
  0
LINE
  5
264
100
AcDbEntity
  8
Templ_Ligat
  6
ByLayer
 62
  256
370
   -1
100
AcDbLine
 10
34
 20
-3
 11
30
 21
-5
  0
MTEXT
  5
265
100
AcDbEntity
  8
Templ_Ligat
  6
ByLayer
 62
  256
370
   -1
100
AcDbMText
 10
32
 20
-4
 30
0
 40
0.5
 41
1.555555555555602
 71
    5
 72
    1
  1
Name
  7
standard
210
0
220
0
230
1
 50
0
 73
    2
 44
1
  0
LINE
  5
266
100
AcDbEntity
  8
Templ_lim
  6
ByLayer
 62
  256
370
   -1
100
AcDbLine
 10
35
 20
-5
 11
35
 21
-11
  0
LINE
  5
267
100
AcDbEntity
  8
Templ_lim
  6
ByLayer
 62
  256
370
   -1
100
AcDbLine
 10
37
 20
-5
 11
37
 21
-11
  0
LINE
  5
268
100
AcDbEntity
  8
Templ_lim
  6
ByLayer
 62
  256
370
   -1
100
AcDbLine
 10
35
 20
-11
 11
37
 21
-9
  0
LINE
  5
269
100
AcDbEntity
  8
Templ_lim
  6
ByLayer
 62
  256
370
   -1
100
AcDbLine
 10
37
 20
-9
 11
35
 21
-7
  0
LINE
  5
26A
100
AcDbEntity
  8
Templ_lim
  6
ByLayer
 62
  256
370
   -1
100
AcDbLine
 10
35
 20
-7
 11
37
 21
-5
  0
LINE
  5
26B
100
AcDbEntity
  8
Templ_lim
  6
ByLayer
 62
  256
370
   -1
100
AcDbLine
 10
35
 20
-5
 11
37
 21
-7
  0
LINE
  5
26C
100
AcDbEntity
  8
Templ_lim
  6
ByLayer
 62
  256
370
   -1
100
AcDbLine
 10
37
 20
-7
 11
35
 21
-9
  0
LINE
  5
26D
100
AcDbEntity
  8
Templ_lim
  6
ByLayer
 62
  256
370
   -1
100
AcDbLine
 10
35
 20
-9
 11
37
 21
-11
  0
MTEXT
  5
26E
100
AcDbEntity
  8
Templ_lim
  6
ByLayer
 62
  256
370
   -1
100
AcDbMText
 10
36
 20
-10
 30
0
 40
0.2
 41
1.311111213968572
 71
    5
 72
    1
  1
Descender
  7
standard
210
0
220
0
230
1
 50
0
 73
    2
 44
1
  0
MTEXT
  5
26F
100
AcDbEntity
  8
Templ_lim
  6
ByLayer
 62
  256
370
   -1
100
AcDbMText
 10
36
 20
-6
 30
0
 40
0.2
 41
1.177777880635227
 71
    5
 72
    1
  1
Ascender
  7
standard
210
0
220
0
230
1
 50
0
 73
    2
 44
1
  0
MTEXT
  5
270
100
AcDbEntity
  8
Templ_lim
  6
ByLayer
 62
  256
370
   -1
100
AcDbMText
 10
36
 20
-8
 30
0
 40
0.2
 41
0.844444444444463
 71
    5
 72
    1
  1
Normal\PHeight
  7
standard
210
0
220
0
230
1
 50
0
 73
    2
 44
1
  0
CIRCLE
  5
271
100
AcDbEntity
  8
Templ_lim
  6
ByLayer
 62
  256
370
   -1
100
AcDbCircle
 10
36
 20
-6
 40
1
  0
CIRCLE
  5
272
100
AcDbEntity
  8
Templ_lim
  6
ByLayer
 62
  256
370
   -1
100
AcDbCircle
 10
36
 20
-10
 40
1
  0
LINE
  5
273
100
AcDbEntity
  8
Templ_Ligat
  6
ByLayer
 62
  256
370
   -1
100
AcDbLine
 10
34
 20
-5
 11
38
 21
-5
  0
LINE
  5
274
100
AcDbEntity
  8
Templ_Ligat
  6
ByLayer
 62
  256
370
   -1
100
AcDbLine
 10
38
 20
-3
 11
38
 21
-11
  0
LINE
  5
275
100
AcDbEntity
  8
Templ_Ligat
  6
ByLayer
 62
  256
370
   -1
100
AcDbLine
 10
34
 20
-3
 11
38
 21
-5
  0
LINE
  5
276
100
AcDbEntity
  8
Templ_Ligat
  6
ByLayer
 62
  256
370
   -1
100
AcDbLine
 10
38
 20
-3
 11
34
 21
-5
  0
MTEXT
  5
277
100
AcDbEntity
  8
Templ_Ligat
  6
ByLayer
 62
  256
370
   -1
100
AcDbMText
 10
36
 20
-4
 30
0
 40
0.5
 41
1.555555555555602
 71
    5
 72
    1
  1
Name
  7
standard
210
0
220
0
230
1
 50
0
 73
    2
 44
1
  0
LINE
  5
278
100
AcDbEntity
  8
Templ_Ligat
  6
ByLayer
 62
  256
370
   -1
100
AcDbLine
 10
30
 20
-9
 11
34
 21
-9
  0
LINE
  5
279
100
AcDbEntity
  8
Templ_Ligat
  6
ByLayer
 62
  256
370
   -1
100
AcDbLine
 10
30
 20
-7
 11
34
 21
-7
  0
LINE
  5
27A
100
AcDbEntity
  8
Templ_Ligat
  6
ByLayer
 62
  256
370
   -1
100
AcDbLine
 10
34
 20
-9
 11
38
 21
-9
  0
LINE
  5
27B
100
AcDbEntity
  8
Templ_Ligat
  6
ByLayer
 62
  256
370
   -1
100
AcDbLine
 10
34
 20
-7
 11
38
 21
-7
  0
LINE
  5
27C
100
AcDbEntity
  8
Ligat
  6
ByLayer
 62
  256
370
   -1
100
AcDbLine
 10
30
 20
-9
 11
31
 21
-9
  0
LINE
  5
27D
100
AcDbEntity
  8
Ligat
  6
ByLayer
 62
  256
370
   -1
100
AcDbLine
 10
33
 20
-9
 11
34
 21
-9
  0
ARC
  5
27E
100
AcDbEntity
  8
0
  6
ByLayer
 62
  256
370
   -1
100
AcDbCircle
 10
32
 20
-8
 40
1
100
AcDbArc
 50
4.071109992273301e-13
 51
179.9999999999996
  0
ELLIPSE
  5
27F
100
AcDbEntity
  8
0
  6
ByLayer
 62
  256
370
   -1
100
AcDbEllipse
 10
31
 20
-8
 30
0
 11
2
 21
6.982962677686267e-15
 31
0
 40
0.5000000000000001
 41
4.712388980384688
 42
6.283185307179579
  0
ELLIPSE
  5
280
100
AcDbEntity
  8
0
  6
ByLayer
 62
  256
370
   -1
100
AcDbEllipse
 10
33
 20
-8
 30
0
 11
-2
 21
7.005847432590706e-15
 31
0
 40
0.5000000000000001
 41
7.549516567451064e-15
 42
1.570796326794899
  0
LINE
  5
281
100
AcDbEntity
  8
Ligat
  6
ByLayer
 62
  256
370
   -1
100
AcDbLine
 10
37
 20
-9
 11
38
 21
-9
  0
ARC
  5
282
100
AcDbEntity
  8
0
  6
ByLayer
 62
  256
370
   -1
100
AcDbCircle
 10
36
 20
-8
 40
1
100
AcDbArc
 50
4.071109992273301e-13
 51
179.9999999999996
  0
ELLIPSE
  5
283
100
AcDbEntity
  8
0
  6
ByLayer
 62
  256
370
   -1
100
AcDbEllipse
 10
37
 20
-8
 30
0
 11
-2
 21
7.005847432590706e-15
 31
0
 40
0.5000000000000001
 41
7.549516567451064e-15
 42
1.570796326794899
  0
ARC
  5
284
100
AcDbEntity
  8
0
  6
ByLayer
 62
  256
370
   -1
100
AcDbCircle
 10
36
 20
-8
 40
1
100
AcDbArc
 50
270
 51
2.035554996136651e-13
  0
ARC
  5
285
100
AcDbEntity
  8
0
  6
ByLayer
 62
  256
370
   -1
100
AcDbCircle
 10
36
 20
-10
 40
1
100
AcDbArc
 50
90
 51
270
  0
MTEXT
  5
286
100
AcDbEntity
  8
0
  6
ByLayer
 62
  256
370
   -1
100
AcDbMText
 10
32
 20
-4
 30
0
 40
0.5
 41
2.333333222222245
 71
    5
 72
    1
  1
Ayin\P(Medial)
  7
standard
210
0
220
0
230
1
 50
0
 73
    2
 44
1
  0
MTEXT
  5
287
100
AcDbEntity
  8
0
  6
ByLayer
 62
  256
370
   -1
100
AcDbMText
 10
36
 20
-4
 30
0
 40
0.5
 41
1.833333222222269
 71
    5
 72
    1
  1
Ayin\P(Final)
  7
standard
210
0
220
0
230
1
 50
0
 73
    2
 44
1
  0
LINE
  5
288
100
AcDbEntity
  8
Templ_Ligat
  6
ByLayer
 62
  256
370
   -1
100
AcDbLine
 10
30
 20
-3
 11
34
 21
-3
  0
LINE
  5
289
100
AcDbEntity
  8
Templ_Ligat
  6
ByLayer
 62
  256
370
   -1
100
AcDbLine
 10
34
 20
-3
 11
38
 21
-3
  0
LINE
  5
28A
100
AcDbEntity
  8
Templ_Ligat
  6
ByLayer
 62
  256
370
   -1
100
AcDbLine
 10
30
 20
-11
 11
34
 21
-11
  0
LINE
  5
28B
100
AcDbEntity
  8
Templ_Ligat
  6
ByLayer
 62
  256
370
   -1
100
AcDbLine
 10
34
 20
-11
 11
38
 21
-11
  0
LINE
  5
28C
100
AcDbEntity
  8
Templ_lim
  6
ByLayer
 62
  256
370
   -1
100
AcDbLine
 10
39
 20
-5
 11
39
 21
-11
  0
LINE
  5
28D
100
AcDbEntity
  8
Templ_lim
  6
ByLayer
 62
  256
370
   -1
100
AcDbLine
 10
41
 20
-5
 11
41
 21
-11
  0
LINE
  5
28E
100
AcDbEntity
  8
Templ_lim
  6
ByLayer
 62
  256
370
   -1
100
AcDbLine
 10
39
 20
-11
 11
41
 21
-9
  0
LINE
  5
28F
100
AcDbEntity
  8
Templ_lim
  6
ByLayer
 62
  256
370
   -1
100
AcDbLine
 10
41
 20
-9
 11
39
 21
-7
  0
LINE
  5
290
100
AcDbEntity
  8
Templ_lim
  6
ByLayer
 62
  256
370
   -1
100
AcDbLine
 10
39
 20
-7
 11
41
 21
-5
  0
LINE
  5
291
100
AcDbEntity
  8
Templ_lim
  6
ByLayer
 62
  256
370
   -1
100
AcDbLine
 10
39
 20
-5
 11
41
 21
-7
  0
LINE
  5
292
100
AcDbEntity
  8
Templ_lim
  6
ByLayer
 62
  256
370
   -1
100
AcDbLine
 10
41
 20
-7
 11
39
 21
-9
  0
LINE
  5
293
100
AcDbEntity
  8
Templ_lim
  6
ByLayer
 62
  256
370
   -1
100
AcDbLine
 10
39
 20
-9
 11
41
 21
-11
  0
MTEXT
  5
294
100
AcDbEntity
  8
Templ_lim
  6
ByLayer
 62
  256
370
   -1
100
AcDbMText
 10
40
 20
-10
 30
0
 40
0.2
 41
1.311111213968572
 71
    5
 72
    1
  1
Descender
  7
standard
210
0
220
0
230
1
 50
0
 73
    2
 44
1
  0
MTEXT
  5
295
100
AcDbEntity
  8
Templ_lim
  6
ByLayer
 62
  256
370
   -1
100
AcDbMText
 10
40
 20
-6
 30
0
 40
0.2
 41
1.177777880635227
 71
    5
 72
    1
  1
Ascender
  7
standard
210
0
220
0
230
1
 50
0
 73
    2
 44
1
  0
MTEXT
  5
296
100
AcDbEntity
  8
Templ_lim
  6
ByLayer
 62
  256
370
   -1
100
AcDbMText
 10
40
 20
-8
 30
0
 40
0.2
 41
0.844444444444463
 71
    5
 72
    1
  1
Normal\PHeight
  7
standard
210
0
220
0
230
1
 50
0
 73
    2
 44
1
  0
CIRCLE
  5
297
100
AcDbEntity
  8
Templ_lim
  6
ByLayer
 62
  256
370
   -1
100
AcDbCircle
 10
40
 20
-8
 40
1
  0
CIRCLE
  5
298
100
AcDbEntity
  8
Templ_lim
  6
ByLayer
 62
  256
370
   -1
100
AcDbCircle
 10
40
 20
-6
 40
1
  0
CIRCLE
  5
299
100
AcDbEntity
  8
Templ_lim
  6
ByLayer
 62
  256
370
   -1
100
AcDbCircle
 10
40
 20
-10
 40
1
  0
LINE
  5
29A
100
AcDbEntity
  8
Templ_Ligat
  6
ByLayer
 62
  256
370
   -1
100
AcDbLine
 10
38
 20
-5
 11
42
 21
-5
  0
LINE
  5
29B
100
AcDbEntity
  8
Templ_Ligat
  6
ByLayer
 62
  256
370
   -1
100
AcDbLine
 10
38
 20
-3
 11
42
 21
-5
  0
LINE
  5
29C
100
AcDbEntity
  8
Templ_Ligat
  6
ByLayer
 62
  256
370
   -1
100
AcDbLine
 10
42
 20
-3
 11
38
 21
-5
  0
MTEXT
  5
29D
100
AcDbEntity
  8
Templ_Ligat
  6
ByLayer
 62
  256
370
   -1
100
AcDbMText
 10
40
 20
-4
 30
0
 40
0.5
 41
1.555555555555602
 71
    5
 72
    1
  1
Name
  7
standard
210
0
220
0
230
1
 50
0
 73
    2
 44
1
  0
LINE
  5
29E
100
AcDbEntity
  8
Templ_Ligat
  6
ByLayer
 62
  256
370
   -1
100
AcDbLine
 10
38
 20
-9
 11
42
 21
-9
  0
LINE
  5
29F
100
AcDbEntity
  8
Templ_Ligat
  6
ByLayer
 62
  256
370
   -1
100
AcDbLine
 10
38
 20
-7
 11
42
 21
-7
  0
LINE
  5
2A0
100
AcDbEntity
  8
Ligat
  6
ByLayer
 62
  256
370
   -1
100
AcDbLine
 10
41
 20
-8.999999999999886
 11
42
 21
-9
  0
MTEXT
  5
2A1
100
AcDbEntity
  8
0
  6
ByLayer
 62
  256
370
   -1
100
AcDbMText
 10
40.16666666666667
 20
-3.916666666666668
 30
0
 40
0.3
 41
1.866666787619507
 71
    5
 72
    1
  1
[P/F]e\P(Isolated/\PFinal)
  7
standard
210
0
220
0
230
1
 50
0
 73
    2
 44
1
  0
LINE
  5
2A2
100
AcDbEntity
  8
Templ_Ligat
  6
ByLayer
 62
  256
370
   -1
100
AcDbLine
 10
38
 20
-3
 11
38
 21
-11
  0
LINE
  5
2A3
100
AcDbEntity
  8
Templ_Ligat
  6
ByLayer
 62
  256
370
   -1
100
AcDbLine
 10
38
 20
-11
 11
42
 21
-11
  0
LINE
  5
2A4
100
AcDbEntity
  8
Templ_Ligat
  6
ByLayer
 62
  256
370
   -1
100
AcDbLine
 10
42
 20
-11
 11
42
 21
-3
  0
LINE
  5
2A5
100
AcDbEntity
  8
Templ_Ligat
  6
ByLayer
 62
  256
370
   -1
100
AcDbLine
 10
-2
 20
-11
 11
-2
 21
-19
  0
LINE
  5
2A6
100
AcDbEntity
  8
Templ_lim
  6
ByLayer
 62
  256
370
   -1
100
AcDbLine
 10
-1
 20
-13
 11
-1
 21
-19
  0
LINE
  5
2A7
100
AcDbEntity
  8
Templ_lim
  6
ByLayer
 62
  256
370
   -1
100
AcDbLine
 10
1
 20
-13
 11
1
 21
-19
  0
LINE
  5
2A8
100
AcDbEntity
  8
Templ_lim
  6
ByLayer
 62
  256
370
   -1
100
AcDbLine
 10
-1
 20
-19
 11
1
 21
-17
  0
LINE
  5
2A9
100
AcDbEntity
  8
Templ_lim
  6
ByLayer
 62
  256
370
   -1
100
AcDbLine
 10
1
 20
-17
 11
-1
 21
-15
  0
LINE
  5
2AA
100
AcDbEntity
  8
Templ_lim
  6
ByLayer
 62
  256
370
   -1
100
AcDbLine
 10
-1
 20
-15
 11
1
 21
-13
  0
LINE
  5
2AB
100
AcDbEntity
  8
Templ_lim
  6
ByLayer
 62
  256
370
   -1
100
AcDbLine
 10
-1
 20
-13
 11
1
 21
-15
  0
LINE
  5
2AC
100
AcDbEntity
  8
Templ_lim
  6
ByLayer
 62
  256
370
   -1
100
AcDbLine
 10
1
 20
-15
 11
-1
 21
-17
  0
LINE
  5
2AD
100
AcDbEntity
  8
Templ_lim
  6
ByLayer
 62
  256
370
   -1
100
AcDbLine
 10
-1
 20
-17
 11
1
 21
-19
  0
MTEXT
  5
2AE
100
AcDbEntity
  8
Templ_lim
  6
ByLayer
 62
  256
370
   -1
100
AcDbMText
 10
0
 20
-18
 30
0
 40
0.2
 41
1.311111213968572
 71
    5
 72
    1
  1
Descender
  7
standard
210
0
220
0
230
1
 50
0
 73
    2
 44
1
  0
MTEXT
  5
2AF
100
AcDbEntity
  8
Templ_lim
  6
ByLayer
 62
  256
370
   -1
100
AcDbMText
 10
0
 20
-14
 30
0
 40
0.2
 41
1.177777880635227
 71
    5
 72
    1
  1
Ascender
  7
standard
210
0
220
0
230
1
 50
0
 73
    2
 44
1
  0
MTEXT
  5
2B0
100
AcDbEntity
  8
Templ_lim
  6
ByLayer
 62
  256
370
   -1
100
AcDbMText
 10
0
 20
-16
 30
0
 40
0.2
 41
0.844444444444463
 71
    5
 72
    1
  1
Normal\PHeight
  7
standard
210
0
220
0
230
1
 50
0
 73
    2
 44
1
  0
CIRCLE
  5
2B1
100
AcDbEntity
  8
Templ_lim
  6
ByLayer
 62
  256
370
   -1
100
AcDbCircle
 10
0
 20
-16
 40
1
  0
CIRCLE
  5
2B2
100
AcDbEntity
  8
Templ_lim
  6
ByLayer
 62
  256
370
   -1
100
AcDbCircle
 10
0
 20
-14
 40
1
  0
CIRCLE
  5
2B3
100
AcDbEntity
  8
Templ_lim
  6
ByLayer
 62
  256
370
   -1
100
AcDbCircle
 10
0
 20
-18
 40
1
  0
LINE
  5
2B4
100
AcDbEntity
  8
Templ_Ligat
  6
ByLayer
 62
  256
370
   -1
100
AcDbLine
 10
-2
 20
-13
 11
2
 21
-13
  0
LINE
  5
2B5
100
AcDbEntity
  8
Templ_Ligat
  6
ByLayer
 62
  256
370
   -1
100
AcDbLine
 10
2
 20
-11
 11
2
 21
-19
  0
LINE
  5
2B6
100
AcDbEntity
  8
Templ_Ligat
  6
ByLayer
 62
  256
370
   -1
100
AcDbLine
 10
-2
 20
-11
 11
2
 21
-13
  0
LINE
  5
2B7
100
AcDbEntity
  8
Templ_Ligat
  6
ByLayer
 62
  256
370
   -1
100
AcDbLine
 10
2
 20
-11
 11
-2
 21
-13
  0
MTEXT
  5
2B8
100
AcDbEntity
  8
Templ_Ligat
  6
ByLayer
 62
  256
370
   -1
100
AcDbMText
 10
0
 20
-12
 30
0
 40
0.5
 41
1.555555555555602
 71
    5
 72
    1
  1
Name
  7
standard
210
0
220
0
230
1
 50
0
 73
    2
 44
1
  0
LINE
  5
2B9
100
AcDbEntity
  8
Templ_lim
  6
ByLayer
 62
  256
370
   -1
100
AcDbLine
 10
3
 20
-13
 11
3
 21
-19
  0
LINE
  5
2BA
100
AcDbEntity
  8
Templ_lim
  6
ByLayer
 62
  256
370
   -1
100
AcDbLine
 10
5
 20
-13
 11
5
 21
-19
  0
LINE
  5
2BB
100
AcDbEntity
  8
Templ_lim
  6
ByLayer
 62
  256
370
   -1
100
AcDbLine
 10
3
 20
-19
 11
5
 21
-17
  0
LINE
  5
2BC
100
AcDbEntity
  8
Templ_lim
  6
ByLayer
 62
  256
370
   -1
100
AcDbLine
 10
5
 20
-17
 11
3
 21
-15
  0
LINE
  5
2BD
100
AcDbEntity
  8
Templ_lim
  6
ByLayer
 62
  256
370
   -1
100
AcDbLine
 10
3
 20
-15
 11
5
 21
-13
  0
LINE
  5
2BE
100
AcDbEntity
  8
Templ_lim
  6
ByLayer
 62
  256
370
   -1
100
AcDbLine
 10
3
 20
-13
 11
5
 21
-15
  0
LINE
  5
2BF
100
AcDbEntity
  8
Templ_lim
  6
ByLayer
 62
  256
370
   -1
100
AcDbLine
 10
5
 20
-15
 11
3
 21
-17
  0
LINE
  5
2C0
100
AcDbEntity
  8
Templ_lim
  6
ByLayer
 62
  256
370
   -1
100
AcDbLine
 10
3
 20
-17
 11
5
 21
-19
  0
MTEXT
  5
2C1
100
AcDbEntity
  8
Templ_lim
  6
ByLayer
 62
  256
370
   -1
100
AcDbMText
 10
4
 20
-18
 30
0
 40
0.2
 41
1.311111213968572
 71
    5
 72
    1
  1
Descender
  7
standard
210
0
220
0
230
1
 50
0
 73
    2
 44
1
  0
MTEXT
  5
2C2
100
AcDbEntity
  8
Templ_lim
  6
ByLayer
 62
  256
370
   -1
100
AcDbMText
 10
4
 20
-14
 30
0
 40
0.2
 41
1.177777880635227
 71
    5
 72
    1
  1
Ascender
  7
standard
210
0
220
0
230
1
 50
0
 73
    2
 44
1
  0
MTEXT
  5
2C3
100
AcDbEntity
  8
Templ_lim
  6
ByLayer
 62
  256
370
   -1
100
AcDbMText
 10
4
 20
-16
 30
0
 40
0.2
 41
0.844444444444463
 71
    5
 72
    1
  1
Normal\PHeight
  7
standard
210
0
220
0
230
1
 50
0
 73
    2
 44
1
  0
CIRCLE
  5
2C4
100
AcDbEntity
  8
Templ_lim
  6
ByLayer
 62
  256
370
   -1
100
AcDbCircle
 10
4
 20
-16
 40
1
  0
CIRCLE
  5
2C5
100
AcDbEntity
  8
Templ_lim
  6
ByLayer
 62
  256
370
   -1
100
AcDbCircle
 10
4
 20
-14
 40
1
  0
CIRCLE
  5
2C6
100
AcDbEntity
  8
Templ_lim
  6
ByLayer
 62
  256
370
   -1
100
AcDbCircle
 10
4
 20
-18
 40
1
  0
LINE
  5
2C7
100
AcDbEntity
  8
Templ_Ligat
  6
ByLayer
 62
  256
370
   -1
100
AcDbLine
 10
2
 20
-13
 11
6
 21
-13
  0
LINE
  5
2C8
100
AcDbEntity
  8
Templ_Ligat
  6
ByLayer
 62
  256
370
   -1
100
AcDbLine
 10
6
 20
-11
 11
6
 21
-19
  0
LINE
  5
2C9
100
AcDbEntity
  8
Templ_Ligat
  6
ByLayer
 62
  256
370
   -1
100
AcDbLine
 10
2
 20
-11
 11
6
 21
-13
  0
LINE
  5
2CA
100
AcDbEntity
  8
Templ_Ligat
  6
ByLayer
 62
  256
370
   -1
100
AcDbLine
 10
6
 20
-11
 11
2
 21
-13
  0
MTEXT
  5
2CB
100
AcDbEntity
  8
Templ_Ligat
  6
ByLayer
 62
  256
370
   -1
100
AcDbMText
 10
4
 20
-12
 30
0
 40
0.5
 41
1.555555555555602
 71
    5
 72
    1
  1
Name
  7
standard
210
0
220
0
230
1
 50
0
 73
    2
 44
1
  0
LINE
  5
2CC
100
AcDbEntity
  8
Templ_Ligat
  6
ByLayer
 62
  256
370
   -1
100
AcDbLine
 10
-2
 20
-17
 11
2
 21
-17
  0
LINE
  5
2CD
100
AcDbEntity
  8
Templ_Ligat
  6
ByLayer
 62
  256
370
   -1
100
AcDbLine
 10
-2
 20
-15
 11
2
 21
-15
  0
LINE
  5
2CE
100
AcDbEntity
  8
Templ_Ligat
  6
ByLayer
 62
  256
370
   -1
100
AcDbLine
 10
2
 20
-17
 11
6
 21
-17
  0
LINE
  5
2CF
100
AcDbEntity
  8
Templ_Ligat
  6
ByLayer
 62
  256
370
   -1
100
AcDbLine
 10
2
 20
-15
 11
6
 21
-15
  0
LINE
  5
2D0
100
AcDbEntity
  8
Templ_lim
  6
ByLayer
 62
  256
370
   -1
100
AcDbLine
 10
7
 20
-13
 11
7
 21
-19
  0
LINE
  5
2D1
100
AcDbEntity
  8
Templ_lim
  6
ByLayer
 62
  256
370
   -1
100
AcDbLine
 10
9
 20
-13
 11
9
 21
-19
  0
LINE
  5
2D2
100
AcDbEntity
  8
Templ_lim
  6
ByLayer
 62
  256
370
   -1
100
AcDbLine
 10
7
 20
-19
 11
9
 21
-17
  0
LINE
  5
2D3
100
AcDbEntity
  8
Templ_lim
  6
ByLayer
 62
  256
370
   -1
100
AcDbLine
 10
9
 20
-17
 11
7
 21
-15
  0
LINE
  5
2D4
100
AcDbEntity
  8
Templ_lim
  6
ByLayer
 62
  256
370
   -1
100
AcDbLine
 10
7
 20
-15
 11
9
 21
-13
  0
LINE
  5
2D5
100
AcDbEntity
  8
Templ_lim
  6
ByLayer
 62
  256
370
   -1
100
AcDbLine
 10
7
 20
-13
 11
9
 21
-15
  0
LINE
  5
2D6
100
AcDbEntity
  8
Templ_lim
  6
ByLayer
 62
  256
370
   -1
100
AcDbLine
 10
9
 20
-15
 11
7
 21
-17
  0
LINE
  5
2D7
100
AcDbEntity
  8
Templ_lim
  6
ByLayer
 62
  256
370
   -1
100
AcDbLine
 10
7
 20
-17
 11
9
 21
-19
  0
MTEXT
  5
2D8
100
AcDbEntity
  8
Templ_lim
  6
ByLayer
 62
  256
370
   -1
100
AcDbMText
 10
8
 20
-18
 30
0
 40
0.2
 41
1.311111213968572
 71
    5
 72
    1
  1
Descender
  7
standard
210
0
220
0
230
1
 50
0
 73
    2
 44
1
  0
MTEXT
  5
2D9
100
AcDbEntity
  8
Templ_lim
  6
ByLayer
 62
  256
370
   -1
100
AcDbMText
 10
8
 20
-14
 30
0
 40
0.2
 41
1.177777880635227
 71
    5
 72
    1
  1
Ascender
  7
standard
210
0
220
0
230
1
 50
0
 73
    2
 44
1
  0
MTEXT
  5
2DA
100
AcDbEntity
  8
Templ_lim
  6
ByLayer
 62
  256
370
   -1
100
AcDbMText
 10
8
 20
-16
 30
0
 40
0.2
 41
0.844444444444463
 71
    5
 72
    1
  1
Normal\PHeight
  7
standard
210
0
220
0
230
1
 50
0
 73
    2
 44
1
  0
CIRCLE
  5
2DB
100
AcDbEntity
  8
Templ_lim
  6
ByLayer
 62
  256
370
   -1
100
AcDbCircle
 10
8
 20
-16
 40
1
  0
CIRCLE
  5
2DC
100
AcDbEntity
  8
Templ_lim
  6
ByLayer
 62
  256
370
   -1
100
AcDbCircle
 10
8
 20
-14
 40
1
  0
CIRCLE
  5
2DD
100
AcDbEntity
  8
Templ_lim
  6
ByLayer
 62
  256
370
   -1
100
AcDbCircle
 10
8
 20
-18
 40
1
  0
LINE
  5
2DE
100
AcDbEntity
  8
Templ_Ligat
  6
ByLayer
 62
  256
370
   -1
100
AcDbLine
 10
6
 20
-13
 11
10
 21
-13
  0
LINE
  5
2DF
100
AcDbEntity
  8
Templ_Ligat
  6
ByLayer
 62
  256
370
   -1
100
AcDbLine
 10
10
 20
-11
 11
10
 21
-19
  0
LINE
  5
2E0
100
AcDbEntity
  8
Templ_Ligat
  6
ByLayer
 62
  256
370
   -1
100
AcDbLine
 10
6
 20
-11
 11
10
 21
-13
  0
LINE
  5
2E1
100
AcDbEntity
  8
Templ_Ligat
  6
ByLayer
 62
  256
370
   -1
100
AcDbLine
 10
10
 20
-11
 11
6
 21
-13
  0
MTEXT
  5
2E2
100
AcDbEntity
  8
Templ_Ligat
  6
ByLayer
 62
  256
370
   -1
100
AcDbMText
 10
8
 20
-12
 30
0
 40
0.5
 41
1.555555555555602
 71
    5
 72
    1
  1
Name
  7
standard
210
0
220
0
230
1
 50
0
 73
    2
 44
1
  0
LINE
  5
2E3
100
AcDbEntity
  8
Templ_lim
  6
ByLayer
 62
  256
370
   -1
100
AcDbLine
 10
11
 20
-13
 11
11
 21
-19
  0
LINE
  5
2E4
100
AcDbEntity
  8
Templ_lim
  6
ByLayer
 62
  256
370
   -1
100
AcDbLine
 10
13
 20
-13
 11
13
 21
-19
  0
LINE
  5
2E5
100
AcDbEntity
  8
Templ_lim
  6
ByLayer
 62
  256
370
   -1
100
AcDbLine
 10
11
 20
-19
 11
13
 21
-17
  0
LINE
  5
2E6
100
AcDbEntity
  8
Templ_lim
  6
ByLayer
 62
  256
370
   -1
100
AcDbLine
 10
13
 20
-17
 11
11
 21
-15
  0
LINE
  5
2E7
100
AcDbEntity
  8
Templ_lim
  6
ByLayer
 62
  256
370
   -1
100
AcDbLine
 10
11
 20
-15
 11
13
 21
-13
  0
LINE
  5
2E8
100
AcDbEntity
  8
Templ_lim
  6
ByLayer
 62
  256
370
   -1
100
AcDbLine
 10
11
 20
-13
 11
13
 21
-15
  0
LINE
  5
2E9
100
AcDbEntity
  8
Templ_lim
  6
ByLayer
 62
  256
370
   -1
100
AcDbLine
 10
13
 20
-15
 11
11
 21
-17
  0
LINE
  5
2EA
100
AcDbEntity
  8
Templ_lim
  6
ByLayer
 62
  256
370
   -1
100
AcDbLine
 10
11
 20
-17
 11
13
 21
-19
  0
MTEXT
  5
2EB
100
AcDbEntity
  8
Templ_lim
  6
ByLayer
 62
  256
370
   -1
100
AcDbMText
 10
12
 20
-18
 30
0
 40
0.2
 41
1.311111213968572
 71
    5
 72
    1
  1
Descender
  7
standard
210
0
220
0
230
1
 50
0
 73
    2
 44
1
  0
MTEXT
  5
2EC
100
AcDbEntity
  8
Templ_lim
  6
ByLayer
 62
  256
370
   -1
100
AcDbMText
 10
12
 20
-14
 30
0
 40
0.2
 41
1.177777880635227
 71
    5
 72
    1
  1
Ascender
  7
standard
210
0
220
0
230
1
 50
0
 73
    2
 44
1
  0
MTEXT
  5
2ED
100
AcDbEntity
  8
Templ_lim
  6
ByLayer
 62
  256
370
   -1
100
AcDbMText
 10
12
 20
-16
 30
0
 40
0.2
 41
0.844444444444463
 71
    5
 72
    1
  1
Normal\PHeight
  7
standard
210
0
220
0
230
1
 50
0
 73
    2
 44
1
  0
CIRCLE
  5
2EE
100
AcDbEntity
  8
Templ_lim
  6
ByLayer
 62
  256
370
   -1
100
AcDbCircle
 10
12
 20
-16
 40
1
  0
CIRCLE
  5
2EF
100
AcDbEntity
  8
Templ_lim
  6
ByLayer
 62
  256
370
   -1
100
AcDbCircle
 10
12
 20
-14
 40
1
  0
CIRCLE
  5
2F0
100
AcDbEntity
  8
Templ_lim
  6
ByLayer
 62
  256
370
   -1
100
AcDbCircle
 10
12
 20
-18
 40
1
  0
LINE
  5
2F1
100
AcDbEntity
  8
Templ_Ligat
  6
ByLayer
 62
  256
370
   -1
100
AcDbLine
 10
10
 20
-13
 11
14
 21
-13
  0
LINE
  5
2F2
100
AcDbEntity
  8
Templ_Ligat
  6
ByLayer
 62
  256
370
   -1
100
AcDbLine
 10
14
 20
-11
 11
14
 21
-19
  0
LINE
  5
2F3
100
AcDbEntity
  8
Templ_Ligat
  6
ByLayer
 62
  256
370
   -1
100
AcDbLine
 10
10
 20
-11
 11
14
 21
-13
  0
LINE
  5
2F4
100
AcDbEntity
  8
Templ_Ligat
  6
ByLayer
 62
  256
370
   -1
100
AcDbLine
 10
14
 20
-11
 11
10
 21
-13
  0
MTEXT
  5
2F5
100
AcDbEntity
  8
Templ_Ligat
  6
ByLayer
 62
  256
370
   -1
100
AcDbMText
 10
12
 20
-12
 30
0
 40
0.5
 41
1.555555555555602
 71
    5
 72
    1
  1
Name
  7
standard
210
0
220
0
230
1
 50
0
 73
    2
 44
1
  0
LINE
  5
2F6
100
AcDbEntity
  8
Templ_Ligat
  6
ByLayer
 62
  256
370
   -1
100
AcDbLine
 10
6
 20
-17
 11
10
 21
-17
  0
LINE
  5
2F7
100
AcDbEntity
  8
Templ_Ligat
  6
ByLayer
 62
  256
370
   -1
100
AcDbLine
 10
6
 20
-15
 11
10
 21
-15
  0
LINE
  5
2F8
100
AcDbEntity
  8
Templ_Ligat
  6
ByLayer
 62
  256
370
   -1
100
AcDbLine
 10
10
 20
-17
 11
14
 21
-17
  0
LINE
  5
2F9
100
AcDbEntity
  8
Templ_Ligat
  6
ByLayer
 62
  256
370
   -1
100
AcDbLine
 10
10
 20
-15
 11
14
 21
-15
  0
LINE
  5
2FA
100
AcDbEntity
  8
Templ_lim
  6
ByLayer
 62
  256
370
   -1
100
AcDbLine
 10
15
 20
-13
 11
15
 21
-19
  0
LINE
  5
2FB
100
AcDbEntity
  8
Templ_lim
  6
ByLayer
 62
  256
370
   -1
100
AcDbLine
 10
17
 20
-13
 11
17
 21
-19
  0
LINE
  5
2FC
100
AcDbEntity
  8
Templ_lim
  6
ByLayer
 62
  256
370
   -1
100
AcDbLine
 10
15
 20
-19
 11
17
 21
-17
  0
LINE
  5
2FD
100
AcDbEntity
  8
Templ_lim
  6
ByLayer
 62
  256
370
   -1
100
AcDbLine
 10
17
 20
-17
 11
15
 21
-15
  0
LINE
  5
2FE
100
AcDbEntity
  8
Templ_lim
  6
ByLayer
 62
  256
370
   -1
100
AcDbLine
 10
15
 20
-15
 11
17
 21
-13
  0
LINE
  5
2FF
100
AcDbEntity
  8
Templ_lim
  6
ByLayer
 62
  256
370
   -1
100
AcDbLine
 10
15
 20
-13
 11
17
 21
-15
  0
LINE
  5
300
100
AcDbEntity
  8
Templ_lim
  6
ByLayer
 62
  256
370
   -1
100
AcDbLine
 10
17
 20
-15
 11
15
 21
-17
  0
LINE
  5
301
100
AcDbEntity
  8
Templ_lim
  6
ByLayer
 62
  256
370
   -1
100
AcDbLine
 10
15
 20
-17
 11
17
 21
-19
  0
MTEXT
  5
302
100
AcDbEntity
  8
Templ_lim
  6
ByLayer
 62
  256
370
   -1
100
AcDbMText
 10
16
 20
-18
 30
0
 40
0.2
 41
1.311111213968572
 71
    5
 72
    1
  1
Descender
  7
standard
210
0
220
0
230
1
 50
0
 73
    2
 44
1
  0
MTEXT
  5
303
100
AcDbEntity
  8
Templ_lim
  6
ByLayer
 62
  256
370
   -1
100
AcDbMText
 10
16
 20
-14
 30
0
 40
0.2
 41
1.177777880635227
 71
    5
 72
    1
  1
Ascender
  7
standard
210
0
220
0
230
1
 50
0
 73
    2
 44
1
  0
MTEXT
  5
304
100
AcDbEntity
  8
Templ_lim
  6
ByLayer
 62
  256
370
   -1
100
AcDbMText
 10
16
 20
-16
 30
0
 40
0.2
 41
0.844444444444463
 71
    5
 72
    1
  1
Normal\PHeight
  7
standard
210
0
220
0
230
1
 50
0
 73
    2
 44
1
  0
CIRCLE
  5
305
100
AcDbEntity
  8
Templ_lim
  6
ByLayer
 62
  256
370
   -1
100
AcDbCircle
 10
16
 20
-16
 40
1
  0
CIRCLE
  5
306
100
AcDbEntity
  8
Templ_lim
  6
ByLayer
 62
  256
370
   -1
100
AcDbCircle
 10
16
 20
-14
 40
1
  0
CIRCLE
  5
307
100
AcDbEntity
  8
Templ_lim
  6
ByLayer
 62
  256
370
   -1
100
AcDbCircle
 10
16
 20
-18
 40
1
  0
LINE
  5
308
100
AcDbEntity
  8
Templ_Ligat
  6
ByLayer
 62
  256
370
   -1
100
AcDbLine
 10
14
 20
-13
 11
18
 21
-13
  0
LINE
  5
309
100
AcDbEntity
  8
Templ_Ligat
  6
ByLayer
 62
  256
370
   -1
100
AcDbLine
 10
18
 20
-11
 11
18
 21
-19
  0
LINE
  5
30A
100
AcDbEntity
  8
Templ_Ligat
  6
ByLayer
 62
  256
370
   -1
100
AcDbLine
 10
14
 20
-11
 11
18
 21
-13
  0
LINE
  5
30B
100
AcDbEntity
  8
Templ_Ligat
  6
ByLayer
 62
  256
370
   -1
100
AcDbLine
 10
18
 20
-11
 11
14
 21
-13
  0
MTEXT
  5
30C
100
AcDbEntity
  8
Templ_Ligat
  6
ByLayer
 62
  256
370
   -1
100
AcDbMText
 10
16
 20
-12
 30
0
 40
0.5
 41
1.555555555555602
 71
    5
 72
    1
  1
Name
  7
standard
210
0
220
0
230
1
 50
0
 73
    2
 44
1
  0
LINE
  5
30D
100
AcDbEntity
  8
Templ_lim
  6
ByLayer
 62
  256
370
   -1
100
AcDbLine
 10
19
 20
-13
 11
19
 21
-19
  0
LINE
  5
30E
100
AcDbEntity
  8
Templ_lim
  6
ByLayer
 62
  256
370
   -1
100
AcDbLine
 10
21
 20
-13
 11
21
 21
-19
  0
LINE
  5
30F
100
AcDbEntity
  8
Templ_lim
  6
ByLayer
 62
  256
370
   -1
100
AcDbLine
 10
19
 20
-19
 11
21
 21
-17
  0
LINE
  5
310
100
AcDbEntity
  8
Templ_lim
  6
ByLayer
 62
  256
370
   -1
100
AcDbLine
 10
21
 20
-17
 11
19
 21
-15
  0
LINE
  5
311
100
AcDbEntity
  8
Templ_lim
  6
ByLayer
 62
  256
370
   -1
100
AcDbLine
 10
19
 20
-15
 11
21
 21
-13
  0
LINE
  5
312
100
AcDbEntity
  8
Templ_lim
  6
ByLayer
 62
  256
370
   -1
100
AcDbLine
 10
19
 20
-13
 11
21
 21
-15
  0
LINE
  5
313
100
AcDbEntity
  8
Templ_lim
  6
ByLayer
 62
  256
370
   -1
100
AcDbLine
 10
21
 20
-15
 11
19
 21
-17
  0
LINE
  5
314
100
AcDbEntity
  8
Templ_lim
  6
ByLayer
 62
  256
370
   -1
100
AcDbLine
 10
19
 20
-17
 11
21
 21
-19
  0
MTEXT
  5
315
100
AcDbEntity
  8
Templ_lim
  6
ByLayer
 62
  256
370
   -1
100
AcDbMText
 10
20
 20
-18
 30
0
 40
0.2
 41
1.311111213968572
 71
    5
 72
    1
  1
Descender
  7
standard
210
0
220
0
230
1
 50
0
 73
    2
 44
1
  0
MTEXT
  5
316
100
AcDbEntity
  8
Templ_lim
  6
ByLayer
 62
  256
370
   -1
100
AcDbMText
 10
20
 20
-14
 30
0
 40
0.2
 41
1.177777880635227
 71
    5
 72
    1
  1
Ascender
  7
standard
210
0
220
0
230
1
 50
0
 73
    2
 44
1
  0
MTEXT
  5
317
100
AcDbEntity
  8
Templ_lim
  6
ByLayer
 62
  256
370
   -1
100
AcDbMText
 10
20
 20
-16
 30
0
 40
0.2
 41
0.844444444444463
 71
    5
 72
    1
  1
Normal\PHeight
  7
standard
210
0
220
0
230
1
 50
0
 73
    2
 44
1
  0
CIRCLE
  5
318
100
AcDbEntity
  8
Templ_lim
  6
ByLayer
 62
  256
370
   -1
100
AcDbCircle
 10
20
 20
-16
 40
1
  0
CIRCLE
  5
319
100
AcDbEntity
  8
Templ_lim
  6
ByLayer
 62
  256
370
   -1
100
AcDbCircle
 10
20
 20
-14
 40
1
  0
CIRCLE
  5
31A
100
AcDbEntity
  8
Templ_lim
  6
ByLayer
 62
  256
370
   -1
100
AcDbCircle
 10
20
 20
-18
 40
1
  0
LINE
  5
31B
100
AcDbEntity
  8
Templ_Ligat
  6
ByLayer
 62
  256
370
   -1
100
AcDbLine
 10
18
 20
-13
 11
22
 21
-13
  0
LINE
  5
31C
100
AcDbEntity
  8
Templ_Ligat
  6
ByLayer
 62
  256
370
   -1
100
AcDbLine
 10
22
 20
-11
 11
22
 21
-19
  0
LINE
  5
31D
100
AcDbEntity
  8
Templ_Ligat
  6
ByLayer
 62
  256
370
   -1
100
AcDbLine
 10
18
 20
-11
 11
22
 21
-13
  0
LINE
  5
31E
100
AcDbEntity
  8
Templ_Ligat
  6
ByLayer
 62
  256
370
   -1
100
AcDbLine
 10
22
 20
-11
 11
18
 21
-13
  0
MTEXT
  5
31F
100
AcDbEntity
  8
Templ_Ligat
  6
ByLayer
 62
  256
370
   -1
100
AcDbMText
 10
20
 20
-12
 30
0
 40
0.5
 41
1.555555555555602
 71
    5
 72
    1
  1
Name
  7
standard
210
0
220
0
230
1
 50
0
 73
    2
 44
1
  0
LINE
  5
320
100
AcDbEntity
  8
Templ_Ligat
  6
ByLayer
 62
  256
370
   -1
100
AcDbLine
 10
14
 20
-17
 11
18
 21
-17
  0
LINE
  5
321
100
AcDbEntity
  8
Templ_Ligat
  6
ByLayer
 62
  256
370
   -1
100
AcDbLine
 10
14
 20
-15
 11
18
 21
-15
  0
LINE
  5
322
100
AcDbEntity
  8
Templ_Ligat
  6
ByLayer
 62
  256
370
   -1
100
AcDbLine
 10
18
 20
-17
 11
22
 21
-17
  0
LINE
  5
323
100
AcDbEntity
  8
Templ_Ligat
  6
ByLayer
 62
  256
370
   -1
100
AcDbLine
 10
18
 20
-15
 11
22
 21
-15
  0
LINE
  5
324
100
AcDbEntity
  8
Templ_lim
  6
ByLayer
 62
  256
370
   -1
100
AcDbLine
 10
23
 20
-13
 11
23
 21
-19
  0
LINE
  5
325
100
AcDbEntity
  8
Templ_lim
  6
ByLayer
 62
  256
370
   -1
100
AcDbLine
 10
25
 20
-13
 11
25
 21
-19
  0
LINE
  5
326
100
AcDbEntity
  8
Templ_lim
  6
ByLayer
 62
  256
370
   -1
100
AcDbLine
 10
23
 20
-19
 11
25
 21
-17
  0
LINE
  5
327
100
AcDbEntity
  8
Templ_lim
  6
ByLayer
 62
  256
370
   -1
100
AcDbLine
 10
25
 20
-17
 11
23
 21
-15
  0
LINE
  5
328
100
AcDbEntity
  8
Templ_lim
  6
ByLayer
 62
  256
370
   -1
100
AcDbLine
 10
23
 20
-15
 11
25
 21
-13
  0
LINE
  5
329
100
AcDbEntity
  8
Templ_lim
  6
ByLayer
 62
  256
370
   -1
100
AcDbLine
 10
23
 20
-13
 11
25
 21
-15
  0
LINE
  5
32A
100
AcDbEntity
  8
Templ_lim
  6
ByLayer
 62
  256
370
   -1
100
AcDbLine
 10
25
 20
-15
 11
23
 21
-17
  0
LINE
  5
32B
100
AcDbEntity
  8
Templ_lim
  6
ByLayer
 62
  256
370
   -1
100
AcDbLine
 10
23
 20
-17
 11
25
 21
-19
  0
MTEXT
  5
32C
100
AcDbEntity
  8
Templ_lim
  6
ByLayer
 62
  256
370
   -1
100
AcDbMText
 10
24
 20
-18
 30
0
 40
0.2
 41
1.311111213968572
 71
    5
 72
    1
  1
Descender
  7
standard
210
0
220
0
230
1
 50
0
 73
    2
 44
1
  0
MTEXT
  5
32D
100
AcDbEntity
  8
Templ_lim
  6
ByLayer
 62
  256
370
   -1
100
AcDbMText
 10
24
 20
-14
 30
0
 40
0.2
 41
1.177777880635227
 71
    5
 72
    1
  1
Ascender
  7
standard
210
0
220
0
230
1
 50
0
 73
    2
 44
1
  0
MTEXT
  5
32E
100
AcDbEntity
  8
Templ_lim
  6
ByLayer
 62
  256
370
   -1
100
AcDbMText
 10
24
 20
-16
 30
0
 40
0.2
 41
0.844444444444463
 71
    5
 72
    1
  1
Normal\PHeight
  7
standard
210
0
220
0
230
1
 50
0
 73
    2
 44
1
  0
CIRCLE
  5
32F
100
AcDbEntity
  8
Templ_lim
  6
ByLayer
 62
  256
370
   -1
100
AcDbCircle
 10
24
 20
-16
 40
1
  0
CIRCLE
  5
330
100
AcDbEntity
  8
Templ_lim
  6
ByLayer
 62
  256
370
   -1
100
AcDbCircle
 10
24
 20
-14
 40
1
  0
CIRCLE
  5
331
100
AcDbEntity
  8
Templ_lim
  6
ByLayer
 62
  256
370
   -1
100
AcDbCircle
 10
24
 20
-18
 40
1
  0
LINE
  5
332
100
AcDbEntity
  8
Templ_Ligat
  6
ByLayer
 62
  256
370
   -1
100
AcDbLine
 10
22
 20
-13
 11
26
 21
-13
  0
LINE
  5
333
100
AcDbEntity
  8
Templ_Ligat
  6
ByLayer
 62
  256
370
   -1
100
AcDbLine
 10
26
 20
-11
 11
26
 21
-19
  0
LINE
  5
334
100
AcDbEntity
  8
Templ_Ligat
  6
ByLayer
 62
  256
370
   -1
100
AcDbLine
 10
22
 20
-11
 11
26
 21
-13
  0
LINE
  5
335
100
AcDbEntity
  8
Templ_Ligat
  6
ByLayer
 62
  256
370
   -1
100
AcDbLine
 10
26
 20
-11
 11
22
 21
-13
  0
MTEXT
  5
336
100
AcDbEntity
  8
Templ_Ligat
  6
ByLayer
 62
  256
370
   -1
100
AcDbMText
 10
24
 20
-12
 30
0
 40
0.5
 41
1.555555555555602
 71
    5
 72
    1
  1
Name
  7
standard
210
0
220
0
230
1
 50
0
 73
    2
 44
1
  0
LINE
  5
337
100
AcDbEntity
  8
Templ_lim
  6
ByLayer
 62
  256
370
   -1
100
AcDbLine
 10
27
 20
-13
 11
27
 21
-19
  0
LINE
  5
338
100
AcDbEntity
  8
Templ_lim
  6
ByLayer
 62
  256
370
   -1
100
AcDbLine
 10
29
 20
-13
 11
29
 21
-19
  0
LINE
  5
339
100
AcDbEntity
  8
Templ_lim
  6
ByLayer
 62
  256
370
   -1
100
AcDbLine
 10
27
 20
-19
 11
29
 21
-17
  0
LINE
  5
33A
100
AcDbEntity
  8
Templ_lim
  6
ByLayer
 62
  256
370
   -1
100
AcDbLine
 10
29
 20
-17
 11
27
 21
-15
  0
LINE
  5
33B
100
AcDbEntity
  8
Templ_lim
  6
ByLayer
 62
  256
370
   -1
100
AcDbLine
 10
27
 20
-15
 11
29
 21
-13
  0
LINE
  5
33C
100
AcDbEntity
  8
Templ_lim
  6
ByLayer
 62
  256
370
   -1
100
AcDbLine
 10
27
 20
-13
 11
29
 21
-15
  0
LINE
  5
33D
100
AcDbEntity
  8
Templ_lim
  6
ByLayer
 62
  256
370
   -1
100
AcDbLine
 10
29
 20
-15
 11
27
 21
-17
  0
LINE
  5
33E
100
AcDbEntity
  8
Templ_lim
  6
ByLayer
 62
  256
370
   -1
100
AcDbLine
 10
27
 20
-17
 11
29
 21
-19
  0
MTEXT
  5
33F
100
AcDbEntity
  8
Templ_lim
  6
ByLayer
 62
  256
370
   -1
100
AcDbMText
 10
28
 20
-18
 30
0
 40
0.2
 41
1.311111213968572
 71
    5
 72
    1
  1
Descender
  7
standard
210
0
220
0
230
1
 50
0
 73
    2
 44
1
  0
MTEXT
  5
340
100
AcDbEntity
  8
Templ_lim
  6
ByLayer
 62
  256
370
   -1
100
AcDbMText
 10
28
 20
-14
 30
0
 40
0.2
 41
1.177777880635227
 71
    5
 72
    1
  1
Ascender
  7
standard
210
0
220
0
230
1
 50
0
 73
    2
 44
1
  0
MTEXT
  5
341
100
AcDbEntity
  8
Templ_lim
  6
ByLayer
 62
  256
370
   -1
100
AcDbMText
 10
28
 20
-16
 30
0
 40
0.2
 41
0.844444444444463
 71
    5
 72
    1
  1
Normal\PHeight
  7
standard
210
0
220
0
230
1
 50
0
 73
    2
 44
1
  0
CIRCLE
  5
342
100
AcDbEntity
  8
Templ_lim
  6
ByLayer
 62
  256
370
   -1
100
AcDbCircle
 10
28
 20
-16
 40
1
  0
CIRCLE
  5
343
100
AcDbEntity
  8
Templ_lim
  6
ByLayer
 62
  256
370
   -1
100
AcDbCircle
 10
28
 20
-14
 40
1
  0
CIRCLE
  5
344
100
AcDbEntity
  8
Templ_lim
  6
ByLayer
 62
  256
370
   -1
100
AcDbCircle
 10
28
 20
-18
 40
1
  0
LINE
  5
345
100
AcDbEntity
  8
Templ_Ligat
  6
ByLayer
 62
  256
370
   -1
100
AcDbLine
 10
26
 20
-13
 11
30
 21
-13
  0
LINE
  5
346
100
AcDbEntity
  8
Templ_Ligat
  6
ByLayer
 62
  256
370
   -1
100
AcDbLine
 10
30
 20
-11
 11
30
 21
-19
  0
LINE
  5
347
100
AcDbEntity
  8
Templ_Ligat
  6
ByLayer
 62
  256
370
   -1
100
AcDbLine
 10
26
 20
-11
 11
30
 21
-13
  0
LINE
  5
348
100
AcDbEntity
  8
Templ_Ligat
  6
ByLayer
 62
  256
370
   -1
100
AcDbLine
 10
30
 20
-11
 11
26
 21
-13
  0
MTEXT
  5
349
100
AcDbEntity
  8
Templ_Ligat
  6
ByLayer
 62
  256
370
   -1
100
AcDbMText
 10
28
 20
-12
 30
0
 40
0.5
 41
1.555555555555602
 71
    5
 72
    1
  1
Name
  7
standard
210
0
220
0
230
1
 50
0
 73
    2
 44
1
  0
LINE
  5
34A
100
AcDbEntity
  8
Templ_Ligat
  6
ByLayer
 62
  256
370
   -1
100
AcDbLine
 10
22
 20
-17
 11
26
 21
-17
  0
LINE
  5
34B
100
AcDbEntity
  8
Templ_Ligat
  6
ByLayer
 62
  256
370
   -1
100
AcDbLine
 10
22
 20
-15
 11
26
 21
-15
  0
LINE
  5
34C
100
AcDbEntity
  8
Templ_Ligat
  6
ByLayer
 62
  256
370
   -1
100
AcDbLine
 10
26
 20
-17
 11
30
 21
-17
  0
LINE
  5
34D
100
AcDbEntity
  8
Templ_Ligat
  6
ByLayer
 62
  256
370
   -1
100
AcDbLine
 10
26
 20
-15
 11
30
 21
-15
  0
LINE
  5
34E
100
AcDbEntity
  8
Ligat
  6
ByLayer
 62
  256
370
   -1
100
AcDbLine
 10
2
 20
-17
 11
3
 21
-17
  0
LINE
  5
34F
100
AcDbEntity
  8
Ligat
  6
ByLayer
 62
  256
370
   -1
100
AcDbLine
 10
5
 20
-17
 11
6
 21
-17
  0
LINE
  5
350
100
AcDbEntity
  8
0
  6
ByLayer
 62
  256
370
   -1
100
AcDbLine
 10
3
 20
-17
 11
5
 21
-17
  0
MTEXT
  5
351
100
AcDbEntity
  8
0
  6
ByLayer
 62
  256
370
   -1
100
AcDbMText
 10
8
 20
-12
 30
0
 40
0.3
 41
1.866666787619507
 71
    5
 72
    1
  1
Qoph\P(Isolated/\PFinal)
  7
standard
210
0
220
0
230
1
 50
0
 73
    2
 44
1
  0
ARC
  5
352
100
AcDbEntity
  8
0
  6
ByLayer
 62
  256
370
   -1
100
AcDbCircle
 10
12.5
 20
-16.5
 40
0.5
100
AcDbArc
 50
270
 51
90
  0
ARC
  5
353
100
AcDbEntity
  8
0
  6
ByLayer
 62
  256
370
   -1
100
AcDbCircle
 10
11.5
 20
-15.5
 40
0.5
100
AcDbArc
 50
90
 51
270
  0
LINE
  5
354
100
AcDbEntity
  8
0
  6
ByLayer
 62
  256
370
   -1
100
AcDbLine
 10
11.5
 20
-16
 11
12.5
 21
-16
  0
LINE
  5
355
100
AcDbEntity
  8
0
  6
ByLayer
 62
  256
370
   -1
100
AcDbLine
 10
11.5
 20
-15
 11
13
 21
-15
  0
LINE
  5
356
100
AcDbEntity
  8
0
  6
ByLayer
 62
  256
370
   -1
100
AcDbLine
 10
11
 20
-17
 11
12.5
 21
-17
  0
LINE
  5
357
100
AcDbEntity
  8
Ligat
  6
ByLayer
 62
  256
370
   -1
100
AcDbLine
 10
11
 20
-17
 11
10
 21
-17
  0
LINE
  5
358
100
AcDbEntity
  8
Ligat
  6
ByLayer
 62
  256
370
   -1
100
AcDbLine
 10
12.5
 20
-17
 11
14
 21
-17
  0
MTEXT
  5
359
100
AcDbEntity
  8
0
  6
ByLayer
 62
  256
370
   -1
100
AcDbMText
 10
12
 20
-12
 30
0
 40
0.3
 41
2.358333333333375
 71
    5
 72
    1
  1
Regular Kaf\P(All Forms)
  7
standard
210
0
220
0
230
1
 50
0
 73
    2
 44
1
  0
LINE
  5
35A
100
AcDbEntity
  8
0
  6
ByLayer
 62
  256
370
   -1
100
AcDbLine
 10
23
 20
-17
 11
23
 21
-16.5
  0
LINE
  5
35B
100
AcDbEntity
  8
Ligat
  6
ByLayer
 62
  256
370
   -1
100
AcDbLine
 10
25
 20
-17
 11
26
 21
-17
  0
LINE
  5
35C
100
AcDbEntity
  8
0
  6
ByLayer
 62
  256
370
   -1
100
AcDbLine
 10
24.50512914858631
 20
-13.57142747928495
 11
25
 21
-17
  0
ARC
  5
35D
100
AcDbEntity
  8
0
  6
ByLayer
 62
  256
370
   -1
100
AcDbCircle
 10
25
 20
-13.49999916382734
 40
0.4999991638273424
100
AcDbArc
 50
90
 51
188.2131948958173
  0
ARC
  5
35E
100
AcDbEntity
  8
0
  6
ByLayer
 62
  256
370
   -1
100
AcDbCircle
 10
15.5
 20
-15.5
 40
0.5
100
AcDbArc
 50
139.1612820701051
 51
270
  0
LINE
  5
35F
100
AcDbEntity
  8
0
  6
ByLayer
 62
  256
370
   -1
100
AcDbLine
 10
15.5
 20
-16
 11
16.5
 21
-16
  0
ARC
  5
360
100
AcDbEntity
  8
0
  6
ByLayer
 62
  256
370
   -1
100
AcDbCircle
 10
16.5
 20
-16.5
 40
0.5
100
AcDbArc
 50
270.0000914611027
 51
90
  0
LINE
  5
361
100
AcDbEntity
  8
Ligat
  6
ByLayer
 62
  256
370
   -1
100
AcDbLine
 10
16.5000007981487
 20
-16.99999999999936
 11
18
 21
-17
  0
LINE
  5
362
100
AcDbEntity
  8
Templ_lim
  6
ByLayer
 62
  256
370
   -1
100
AcDbLine
 10
31
 20
-13
 11
31
 21
-19
  0
LINE
  5
363
100
AcDbEntity
  8
Templ_lim
  6
ByLayer
 62
  256
370
   -1
100
AcDbLine
 10
33
 20
-13
 11
33
 21
-19
  0
LINE
  5
364
100
AcDbEntity
  8
Templ_lim
  6
ByLayer
 62
  256
370
   -1
100
AcDbLine
 10
31
 20
-19
 11
33
 21
-17
  0
LINE
  5
365
100
AcDbEntity
  8
Templ_lim
  6
ByLayer
 62
  256
370
   -1
100
AcDbLine
 10
33
 20
-17
 11
31
 21
-15
  0
LINE
  5
366
100
AcDbEntity
  8
Templ_lim
  6
ByLayer
 62
  256
370
   -1
100
AcDbLine
 10
31
 20
-15
 11
33
 21
-13
  0
LINE
  5
367
100
AcDbEntity
  8
Templ_lim
  6
ByLayer
 62
  256
370
   -1
100
AcDbLine
 10
31
 20
-13
 11
33
 21
-15
  0
LINE
  5
368
100
AcDbEntity
  8
Templ_lim
  6
ByLayer
 62
  256
370
   -1
100
AcDbLine
 10
33
 20
-15
 11
31
 21
-17
  0
LINE
  5
369
100
AcDbEntity
  8
Templ_lim
  6
ByLayer
 62
  256
370
   -1
100
AcDbLine
 10
31
 20
-17
 11
33
 21
-19
  0
MTEXT
  5
36A
100
AcDbEntity
  8
Templ_lim
  6
ByLayer
 62
  256
370
   -1
100
AcDbMText
 10
32
 20
-18
 30
0
 40
0.2
 41
1.311111213968572
 71
    5
 72
    1
  1
Descender
  7
standard
210
0
220
0
230
1
 50
0
 73
    2
 44
1
  0
MTEXT
  5
36B
100
AcDbEntity
  8
Templ_lim
  6
ByLayer
 62
  256
370
   -1
100
AcDbMText
 10
32
 20
-14
 30
0
 40
0.2
 41
1.177777880635227
 71
    5
 72
    1
  1
Ascender
  7
standard
210
0
220
0
230
1
 50
0
 73
    2
 44
1
  0
MTEXT
  5
36C
100
AcDbEntity
  8
Templ_lim
  6
ByLayer
 62
  256
370
   -1
100
AcDbMText
 10
32
 20
-16
 30
0
 40
0.2
 41
0.844444444444463
 71
    5
 72
    1
  1
Normal\PHeight
  7
standard
210
0
220
0
230
1
 50
0
 73
    2
 44
1
  0
CIRCLE
  5
36D
100
AcDbEntity
  8
Templ_lim
  6
ByLayer
 62
  256
370
   -1
100
AcDbCircle
 10
32
 20
-16
 40
1
  0
CIRCLE
  5
36E
100
AcDbEntity
  8
Templ_lim
  6
ByLayer
 62
  256
370
   -1
100
AcDbCircle
 10
32
 20
-14
 40
1
  0
CIRCLE
  5
36F
100
AcDbEntity
  8
Templ_lim
  6
ByLayer
 62
  256
370
   -1
100
AcDbCircle
 10
32
 20
-18
 40
1
  0
LINE
  5
370
100
AcDbEntity
  8
Templ_Ligat
  6
ByLayer
 62
  256
370
   -1
100
AcDbLine
 10
30
 20
-19
 11
34
 21
-19
  0
LINE
  5
371
100
AcDbEntity
  8
Templ_Ligat
  6
ByLayer
 62
  256
370
   -1
100
AcDbLine
 10
30
 20
-13
 11
34
 21
-13
  0
LINE
  5
372
100
AcDbEntity
  8
Templ_Ligat
  6
ByLayer
 62
  256
370
   -1
100
AcDbLine
 10
34
 20
-11
 11
34
 21
-19
  0
LINE
  5
373
100
AcDbEntity
  8
Templ_Ligat
  6
ByLayer
 62
  256
370
   -1
100
AcDbLine
 10
30
 20
-11
 11
34
 21
-13
  0
LINE
  5
374
100
AcDbEntity
  8
Templ_Ligat
  6
ByLayer
 62
  256
370
   -1
100
AcDbLine
 10
34
 20
-11
 11
30
 21
-13
  0
MTEXT
  5
375
100
AcDbEntity
  8
Templ_Ligat
  6
ByLayer
 62
  256
370
   -1
100
AcDbMText
 10
32
 20
-12
 30
0
 40
0.5
 41
1.555555555555602
 71
    5
 72
    1
  1
Name
  7
standard
210
0
220
0
230
1
 50
0
 73
    2
 44
1
  0
LINE
  5
376
100
AcDbEntity
  8
Templ_lim
  6
ByLayer
 62
  256
370
   -1
100
AcDbLine
 10
35
 20
-13
 11
35
 21
-19
  0
LINE
  5
377
100
AcDbEntity
  8
Templ_lim
  6
ByLayer
 62
  256
370
   -1
100
AcDbLine
 10
37
 20
-13
 11
37
 21
-19
  0
LINE
  5
378
100
AcDbEntity
  8
Templ_lim
  6
ByLayer
 62
  256
370
   -1
100
AcDbLine
 10
35
 20
-19
 11
37
 21
-17
  0
LINE
  5
379
100
AcDbEntity
  8
Templ_lim
  6
ByLayer
 62
  256
370
   -1
100
AcDbLine
 10
37
 20
-17
 11
35
 21
-15
  0
LINE
  5
37A
100
AcDbEntity
  8
Templ_lim
  6
ByLayer
 62
  256
370
   -1
100
AcDbLine
 10
35
 20
-15
 11
37
 21
-13
  0
LINE
  5
37B
100
AcDbEntity
  8
Templ_lim
  6
ByLayer
 62
  256
370
   -1
100
AcDbLine
 10
35
 20
-13
 11
37
 21
-15
  0
LINE
  5
37C
100
AcDbEntity
  8
Templ_lim
  6
ByLayer
 62
  256
370
   -1
100
AcDbLine
 10
37
 20
-15
 11
35
 21
-17
  0
LINE
  5
37D
100
AcDbEntity
  8
Templ_lim
  6
ByLayer
 62
  256
370
   -1
100
AcDbLine
 10
35
 20
-17
 11
37
 21
-19
  0
MTEXT
  5
37E
100
AcDbEntity
  8
Templ_lim
  6
ByLayer
 62
  256
370
   -1
100
AcDbMText
 10
36
 20
-18
 30
0
 40
0.2
 41
1.311111213968572
 71
    5
 72
    1
  1
Descender
  7
standard
210
0
220
0
230
1
 50
0
 73
    2
 44
1
  0
MTEXT
  5
37F
100
AcDbEntity
  8
Templ_lim
  6
ByLayer
 62
  256
370
   -1
100
AcDbMText
 10
36
 20
-14
 30
0
 40
0.2
 41
1.177777880635227
 71
    5
 72
    1
  1
Ascender
  7
standard
210
0
220
0
230
1
 50
0
 73
    2
 44
1
  0
MTEXT
  5
380
100
AcDbEntity
  8
Templ_lim
  6
ByLayer
 62
  256
370
   -1
100
AcDbMText
 10
36
 20
-16
 30
0
 40
0.2
 41
0.844444444444463
 71
    5
 72
    1
  1
Normal\PHeight
  7
standard
210
0
220
0
230
1
 50
0
 73
    2
 44
1
  0
CIRCLE
  5
381
100
AcDbEntity
  8
Templ_lim
  6
ByLayer
 62
  256
370
   -1
100
AcDbCircle
 10
36
 20
-16
 40
1
  0
CIRCLE
  5
382
100
AcDbEntity
  8
Templ_lim
  6
ByLayer
 62
  256
370
   -1
100
AcDbCircle
 10
36
 20
-14
 40
1
  0
CIRCLE
  5
383
100
AcDbEntity
  8
Templ_lim
  6
ByLayer
 62
  256
370
   -1
100
AcDbCircle
 10
36
 20
-18
 40
1
  0
LINE
  5
384
100
AcDbEntity
  8
Templ_Ligat
  6
ByLayer
 62
  256
370
   -1
100
AcDbLine
 10
34
 20
-19
 11
38
 21
-19
  0
LINE
  5
385
100
AcDbEntity
  8
Templ_Ligat
  6
ByLayer
 62
  256
370
   -1
100
AcDbLine
 10
34
 20
-13
 11
38
 21
-13
  0
LINE
  5
386
100
AcDbEntity
  8
Templ_Ligat
  6
ByLayer
 62
  256
370
   -1
100
AcDbLine
 10
38
 20
-11
 11
38
 21
-19
  0
LINE
  5
387
100
AcDbEntity
  8
Templ_Ligat
  6
ByLayer
 62
  256
370
   -1
100
AcDbLine
 10
34
 20
-11
 11
38
 21
-13
  0
LINE
  5
388
100
AcDbEntity
  8
Templ_Ligat
  6
ByLayer
 62
  256
370
   -1
100
AcDbLine
 10
38
 20
-11
 11
34
 21
-13
  0
MTEXT
  5
389
100
AcDbEntity
  8
Templ_Ligat
  6
ByLayer
 62
  256
370
   -1
100
AcDbMText
 10
36
 20
-12
 30
0
 40
0.5
 41
1.555555555555602
 71
    5
 72
    1
  1
Name
  7
standard
210
0
220
0
230
1
 50
0
 73
    2
 44
1
  0
LINE
  5
38A
100
AcDbEntity
  8
Templ_Ligat
  6
ByLayer
 62
  256
370
   -1
100
AcDbLine
 10
30
 20
-17
 11
34
 21
-17
  0
LINE
  5
38B
100
AcDbEntity
  8
Templ_Ligat
  6
ByLayer
 62
  256
370
   -1
100
AcDbLine
 10
30
 20
-15
 11
34
 21
-15
  0
LINE
  5
38C
100
AcDbEntity
  8
Templ_Ligat
  6
ByLayer
 62
  256
370
   -1
100
AcDbLine
 10
34
 20
-17
 11
38
 21
-17
  0
LINE
  5
38D
100
AcDbEntity
  8
Templ_Ligat
  6
ByLayer
 62
  256
370
   -1
100
AcDbLine
 10
34
 20
-15
 11
38
 21
-15
  0
LINE
  5
38E
100
AcDbEntity
  8
Templ_lim
  6
ByLayer
 62
  256
370
   -1
100
AcDbLine
 10
39
 20
-13
 11
39
 21
-19
  0
LINE
  5
38F
100
AcDbEntity
  8
Templ_lim
  6
ByLayer
 62
  256
370
   -1
100
AcDbLine
 10
41
 20
-13
 11
41
 21
-19
  0
LINE
  5
390
100
AcDbEntity
  8
Templ_lim
  6
ByLayer
 62
  256
370
   -1
100
AcDbLine
 10
39
 20
-19
 11
41
 21
-17
  0
LINE
  5
391
100
AcDbEntity
  8
Templ_lim
  6
ByLayer
 62
  256
370
   -1
100
AcDbLine
 10
41
 20
-17
 11
39
 21
-15
  0
LINE
  5
392
100
AcDbEntity
  8
Templ_lim
  6
ByLayer
 62
  256
370
   -1
100
AcDbLine
 10
39
 20
-15
 11
41
 21
-13
  0
LINE
  5
393
100
AcDbEntity
  8
Templ_lim
  6
ByLayer
 62
  256
370
   -1
100
AcDbLine
 10
39
 20
-13
 11
41
 21
-15
  0
LINE
  5
394
100
AcDbEntity
  8
Templ_lim
  6
ByLayer
 62
  256
370
   -1
100
AcDbLine
 10
41
 20
-15
 11
39
 21
-17
  0
LINE
  5
395
100
AcDbEntity
  8
Templ_lim
  6
ByLayer
 62
  256
370
   -1
100
AcDbLine
 10
39
 20
-17
 11
41
 21
-19
  0
MTEXT
  5
396
100
AcDbEntity
  8
Templ_lim
  6
ByLayer
 62
  256
370
   -1
100
AcDbMText
 10
40
 20
-18
 30
0
 40
0.2
 41
1.311111213968572
 71
    5
 72
    1
  1
Descender
  7
standard
210
0
220
0
230
1
 50
0
 73
    2
 44
1
  0
MTEXT
  5
397
100
AcDbEntity
  8
Templ_lim
  6
ByLayer
 62
  256
370
   -1
100
AcDbMText
 10
40
 20
-14
 30
0
 40
0.2
 41
1.177777880635227
 71
    5
 72
    1
  1
Ascender
  7
standard
210
0
220
0
230
1
 50
0
 73
    2
 44
1
  0
MTEXT
  5
398
100
AcDbEntity
  8
Templ_lim
  6
ByLayer
 62
  256
370
   -1
100
AcDbMText
 10
40
 20
-16
 30
0
 40
0.2
 41
0.844444444444463
 71
    5
 72
    1
  1
Normal\PHeight
  7
standard
210
0
220
0
230
1
 50
0
 73
    2
 44
1
  0
CIRCLE
  5
399
100
AcDbEntity
  8
Templ_lim
  6
ByLayer
 62
  256
370
   -1
100
AcDbCircle
 10
40
 20
-16
 40
1
  0
CIRCLE
  5
39A
100
AcDbEntity
  8
Templ_lim
  6
ByLayer
 62
  256
370
   -1
100
AcDbCircle
 10
40
 20
-14
 40
1
  0
CIRCLE
  5
39B
100
AcDbEntity
  8
Templ_lim
  6
ByLayer
 62
  256
370
   -1
100
AcDbCircle
 10
40
 20
-18
 40
1
  0
LINE
  5
39C
100
AcDbEntity
  8
Templ_Ligat
  6
ByLayer
 62
  256
370
   -1
100
AcDbLine
 10
38
 20
-19
 11
42
 21
-19
  0
LINE
  5
39D
100
AcDbEntity
  8
Templ_Ligat
  6
ByLayer
 62
  256
370
   -1
100
AcDbLine
 10
38
 20
-13
 11
42
 21
-13
  0
LINE
  5
39E
100
AcDbEntity
  8
Templ_Ligat
  6
ByLayer
 62
  256
370
   -1
100
AcDbLine
 10
42
 20
-11
 11
42
 21
-19
  0
LINE
  5
39F
100
AcDbEntity
  8
Templ_Ligat
  6
ByLayer
 62
  256
370
   -1
100
AcDbLine
 10
38
 20
-11
 11
42
 21
-13
  0
LINE
  5
3A0
100
AcDbEntity
  8
Templ_Ligat
  6
ByLayer
 62
  256
370
   -1
100
AcDbLine
 10
42
 20
-11
 11
38
 21
-13
  0
MTEXT
  5
3A1
100
AcDbEntity
  8
Templ_Ligat
  6
ByLayer
 62
  256
370
   -1
100
AcDbMText
 10
40
 20
-12
 30
0
 40
0.5
 41
1.555555555555602
 71
    5
 72
    1
  1
Name
  7
standard
210
0
220
0
230
1
 50
0
 73
    2
 44
1
  0
LINE
  5
3A2
100
AcDbEntity
  8
Templ_Ligat
  6
ByLayer
 62
  256
370
   -1
100
AcDbLine
 10
38
 20
-17
 11
42
 21
-17
  0
LINE
  5
3A3
100
AcDbEntity
  8
Templ_Ligat
  6
ByLayer
 62
  256
370
   -1
100
AcDbLine
 10
38
 20
-15
 11
42
 21
-15
  0
MTEXT
  5
3A4
100
AcDbEntity
  8
0
  6
ByLayer
 62
  256
370
   -1
100
AcDbMText
 10
32
 20
-12
 30
0
 40
0.3
 41
1.866666787619507
 71
    5
 72
    1
  1
Mim\P(Isolated/\PFinal)
  7
standard
210
0
220
0
230
1
 50
0
 73
    2
 44
1
  0
MTEXT
  5
3A5
100
AcDbEntity
  8
0
  6
ByLayer
 62
  256
370
   -1
100
AcDbMText
 10
36
 20
-12
 30
0
 40
0.3
 41
1.366666633333361
 71
    5
 72
    1
  1
Mim\P(Initial/\PMedial)
  7
standard
210
0
220
0
230
1
 50
0
 73
    2
 44
1
  0
LINE
  5
3A6
100
AcDbEntity
  8
Ligat
  6
ByLayer
 62
  256
370
   -1
100
AcDbLine
 10
35
 20
-17
 11
34
 21
-17
  0
LINE
  5
3A7
100
AcDbEntity
  8
Ligat
  6
ByLayer
 62
  256
370
   -1
100
AcDbLine
 10
37
 20
-17
 11
38
 21
-17
  0
LINE
  5
3A8
100
AcDbEntity
  8
Ligat
  6
ByLayer
 62
  256
370
   -1
100
AcDbLine
 10
33
 20
-17
 11
34
 21
-17
  0
MTEXT
  5
3A9
100
AcDbEntity
  8
0
  6
ByLayer
 62
  256
370
   -1
100
AcDbMText
 10
40
 20
-12
 30
0
 40
0.5
 41
3.597222368254733
 71
    5
 72
    1
  1
Dal\P(All Forms)
  7
standard
210
0
220
0
230
1
 50
0
 73
    2
 44
1
  0
LINE
  5
3AA
100
AcDbEntity
  8
0
  6
ByLayer
 62
  256
370
   -1
100
AcDbLine
 10
39
 20
-17
 11
40.5
 21
-17
  0
LINE
  5
3AB
100
AcDbEntity
  8
0
  6
ByLayer
 62
  256
370
   -1
100
AcDbLine
 10
40.76025880213481
 20
-16.07307453119853
 11
39
 21
-15
  0
ARC
  5
3AC
100
AcDbEntity
  8
0
  6
ByLayer
 62
  256
370
   -1
100
AcDbCircle
 10
40.5
 20
-16.5
 40
0.5
100
AcDbArc
 50
270
 51
418.633
  0
LINE
  5
3AD
100
AcDbEntity
  8
Ligat
  6
ByLayer
 62
  256
370
   -1
100
AcDbLine
 10
38
 20
-17
 11
39
 21
-17
  0
LINE
  5
3AE
100
AcDbEntity
  8
Ligat
  6
ByLayer
 62
  256
370
   -1
100
AcDbLine
 10
40.5
 20
-17
 11
42
 21
-17
  0
LINE
  5
3AF
100
AcDbEntity
  8
Templ_Ligat
  6
ByLayer
 62
  256
370
   -1
100
AcDbLine
 10
-2
 20
-19
 11
2
 21
-19
  0
LINE
  5
3B0
100
AcDbEntity
  8
Templ_Ligat
  6
ByLayer
 62
  256
370
   -1
100
AcDbLine
 10
2
 20
-19
 11
6
 21
-19
  0
LINE
  5
3B1
100
AcDbEntity
  8
Templ_Ligat
  6
ByLayer
 62
  256
370
   -1
100
AcDbLine
 10
6
 20
-19
 11
10
 21
-19
  0
LINE
  5
3B2
100
AcDbEntity
  8
Templ_Ligat
  6
ByLayer
 62
  256
370
   -1
100
AcDbLine
 10
10
 20
-19
 11
14
 21
-19
  0
LINE
  5
3B3
100
AcDbEntity
  8
Templ_Ligat
  6
ByLayer
 62
  256
370
   -1
100
AcDbLine
 10
14
 20
-19
 11
18
 21
-19
  0
LINE
  5
3B4
100
AcDbEntity
  8
Templ_Ligat
  6
ByLayer
 62
  256
370
   -1
100
AcDbLine
 10
18
 20
-19
 11
22
 21
-19
  0
LINE
  5
3B5
100
AcDbEntity
  8
Templ_Ligat
  6
ByLayer
 62
  256
370
   -1
100
AcDbLine
 10
22
 20
-19
 11
26
 21
-19
  0
LINE
  5
3B6
100
AcDbEntity
  8
Templ_Ligat
  6
ByLayer
 62
  256
370
   -1
100
AcDbLine
 10
26
 20
-19
 11
30
 21
-19
  0
LINE
  5
3B7
100
AcDbEntity
  8
Templ_lim
  6
ByLayer
 62
  256
370
   -1
100
AcDbLine
 10
-1
 20
-21
 11
-1
 21
-27
  0
LINE
  5
3B8
100
AcDbEntity
  8
Templ_lim
  6
ByLayer
 62
  256
370
   -1
100
AcDbLine
 10
1
 20
-21
 11
1
 21
-27
  0
LINE
  5
3B9
100
AcDbEntity
  8
Templ_lim
  6
ByLayer
 62
  256
370
   -1
100
AcDbLine
 10
-1
 20
-27
 11
1
 21
-25
  0
LINE
  5
3BA
100
AcDbEntity
  8
Templ_lim
  6
ByLayer
 62
  256
370
   -1
100
AcDbLine
 10
1
 20
-25
 11
-1
 21
-23
  0
LINE
  5
3BB
100
AcDbEntity
  8
Templ_lim
  6
ByLayer
 62
  256
370
   -1
100
AcDbLine
 10
-1
 20
-23
 11
1
 21
-21
  0
LINE
  5
3BC
100
AcDbEntity
  8
Templ_lim
  6
ByLayer
 62
  256
370
   -1
100
AcDbLine
 10
-1
 20
-21
 11
1
 21
-23
  0
LINE
  5
3BD
100
AcDbEntity
  8
Templ_lim
  6
ByLayer
 62
  256
370
   -1
100
AcDbLine
 10
1
 20
-23
 11
-1
 21
-25
  0
LINE
  5
3BE
100
AcDbEntity
  8
Templ_lim
  6
ByLayer
 62
  256
370
   -1
100
AcDbLine
 10
-1
 20
-25
 11
1
 21
-27
  0
MTEXT
  5
3BF
100
AcDbEntity
  8
Templ_lim
  6
ByLayer
 62
  256
370
   -1
100
AcDbMText
 10
0
 20
-26
 30
0
 40
0.2
 41
1.311111213968572
 71
    5
 72
    1
  1
Descender
  7
standard
210
0
220
0
230
1
 50
0
 73
    2
 44
1
  0
MTEXT
  5
3C0
100
AcDbEntity
  8
Templ_lim
  6
ByLayer
 62
  256
370
   -1
100
AcDbMText
 10
0
 20
-22
 30
0
 40
0.2
 41
1.177777880635227
 71
    5
 72
    1
  1
Ascender
  7
standard
210
0
220
0
230
1
 50
0
 73
    2
 44
1
  0
MTEXT
  5
3C1
100
AcDbEntity
  8
Templ_lim
  6
ByLayer
 62
  256
370
   -1
100
AcDbMText
 10
0
 20
-24
 30
0
 40
0.2
 41
0.844444444444463
 71
    5
 72
    1
  1
Normal\PHeight
  7
standard
210
0
220
0
230
1
 50
0
 73
    2
 44
1
  0
CIRCLE
  5
3C2
100
AcDbEntity
  8
Templ_lim
  6
ByLayer
 62
  256
370
   -1
100
AcDbCircle
 10
0
 20
-24
 40
1
  0
CIRCLE
  5
3C3
100
AcDbEntity
  8
Templ_lim
  6
ByLayer
 62
  256
370
   -1
100
AcDbCircle
 10
0
 20
-22
 40
1
  0
CIRCLE
  5
3C4
100
AcDbEntity
  8
Templ_lim
  6
ByLayer
 62
  256
370
   -1
100
AcDbCircle
 10
0
 20
-26
 40
1
  0
LINE
  5
3C5
100
AcDbEntity
  8
Templ_Ligat
  6
ByLayer
 62
  256
370
   -1
100
AcDbLine
 10
-2
 20
-27
 11
2
 21
-27
  0
LINE
  5
3C6
100
AcDbEntity
  8
Templ_Ligat
  6
ByLayer
 62
  256
370
   -1
100
AcDbLine
 10
-2
 20
-21
 11
2
 21
-21
  0
LINE
  5
3C7
100
AcDbEntity
  8
Templ_Ligat
  6
ByLayer
 62
  256
370
   -1
100
AcDbLine
 10
2
 20
-19
 11
2
 21
-27
  0
LINE
  5
3C8
100
AcDbEntity
  8
Templ_Ligat
  6
ByLayer
 62
  256
370
   -1
100
AcDbLine
 10
-2
 20
-19
 11
2
 21
-21
  0
LINE
  5
3C9
100
AcDbEntity
  8
Templ_Ligat
  6
ByLayer
 62
  256
370
   -1
100
AcDbLine
 10
2
 20
-19
 11
-2
 21
-21
  0
MTEXT
  5
3CA
100
AcDbEntity
  8
Templ_Ligat
  6
ByLayer
 62
  256
370
   -1
100
AcDbMText
 10
0
 20
-20
 30
0
 40
0.5
 41
1.555555555555602
 71
    5
 72
    1
  1
Name
  7
standard
210
0
220
0
230
1
 50
0
 73
    2
 44
1
  0
LINE
  5
3CB
100
AcDbEntity
  8
Templ_Ligat
  6
ByLayer
 62
  256
370
   -1
100
AcDbLine
 10
-2
 20
-25
 11
2
 21
-25
  0
LINE
  5
3CC
100
AcDbEntity
  8
Templ_Ligat
  6
ByLayer
 62
  256
370
   -1
100
AcDbLine
 10
-2
 20
-23
 11
2
 21
-23
  0
LINE
  5
3CD
100
AcDbEntity
  8
Templ_lim
  6
ByLayer
 62
  256
370
   -1
100
AcDbLine
 10
3
 20
-21
 11
3
 21
-27
  0
LINE
  5
3CE
100
AcDbEntity
  8
Templ_lim
  6
ByLayer
 62
  256
370
   -1
100
AcDbLine
 10
5
 20
-21
 11
5
 21
-27
  0
LINE
  5
3CF
100
AcDbEntity
  8
Templ_lim
  6
ByLayer
 62
  256
370
   -1
100
AcDbLine
 10
3
 20
-27
 11
5
 21
-25
  0
LINE
  5
3D0
100
AcDbEntity
  8
Templ_lim
  6
ByLayer
 62
  256
370
   -1
100
AcDbLine
 10
5
 20
-25
 11
3
 21
-23
  0
LINE
  5
3D1
100
AcDbEntity
  8
Templ_lim
  6
ByLayer
 62
  256
370
   -1
100
AcDbLine
 10
3
 20
-23
 11
5
 21
-21
  0
LINE
  5
3D2
100
AcDbEntity
  8
Templ_lim
  6
ByLayer
 62
  256
370
   -1
100
AcDbLine
 10
3
 20
-21
 11
5
 21
-23
  0
LINE
  5
3D3
100
AcDbEntity
  8
Templ_lim
  6
ByLayer
 62
  256
370
   -1
100
AcDbLine
 10
5
 20
-23
 11
3
 21
-25
  0
LINE
  5
3D4
100
AcDbEntity
  8
Templ_lim
  6
ByLayer
 62
  256
370
   -1
100
AcDbLine
 10
3
 20
-25
 11
5
 21
-27
  0
MTEXT
  5
3D5
100
AcDbEntity
  8
Templ_lim
  6
ByLayer
 62
  256
370
   -1
100
AcDbMText
 10
4
 20
-26
 30
0
 40
0.2
 41
1.311111213968572
 71
    5
 72
    1
  1
Descender
  7
standard
210
0
220
0
230
1
 50
0
 73
    2
 44
1
  0
MTEXT
  5
3D6
100
AcDbEntity
  8
Templ_lim
  6
ByLayer
 62
  256
370
   -1
100
AcDbMText
 10
4
 20
-22
 30
0
 40
0.2
 41
1.177777880635227
 71
    5
 72
    1
  1
Ascender
  7
standard
210
0
220
0
230
1
 50
0
 73
    2
 44
1
  0
MTEXT
  5
3D7
100
AcDbEntity
  8
Templ_lim
  6
ByLayer
 62
  256
370
   -1
100
AcDbMText
 10
4
 20
-24
 30
0
 40
0.2
 41
0.844444444444463
 71
    5
 72
    1
  1
Normal\PHeight
  7
standard
210
0
220
0
230
1
 50
0
 73
    2
 44
1
  0
CIRCLE
  5
3D8
100
AcDbEntity
  8
Templ_lim
  6
ByLayer
 62
  256
370
   -1
100
AcDbCircle
 10
4
 20
-24
 40
1
  0
CIRCLE
  5
3D9
100
AcDbEntity
  8
Templ_lim
  6
ByLayer
 62
  256
370
   -1
100
AcDbCircle
 10
4
 20
-22
 40
1
  0
CIRCLE
  5
3DA
100
AcDbEntity
  8
Templ_lim
  6
ByLayer
 62
  256
370
   -1
100
AcDbCircle
 10
4
 20
-26
 40
1
  0
LINE
  5
3DB
100
AcDbEntity
  8
Templ_Ligat
  6
ByLayer
 62
  256
370
   -1
100
AcDbLine
 10
2
 20
-27
 11
6
 21
-27
  0
LINE
  5
3DC
100
AcDbEntity
  8
Templ_Ligat
  6
ByLayer
 62
  256
370
   -1
100
AcDbLine
 10
2
 20
-21
 11
6
 21
-21
  0
LINE
  5
3DD
100
AcDbEntity
  8
Templ_Ligat
  6
ByLayer
 62
  256
370
   -1
100
AcDbLine
 10
6
 20
-19
 11
6
 21
-27
  0
LINE
  5
3DE
100
AcDbEntity
  8
Templ_Ligat
  6
ByLayer
 62
  256
370
   -1
100
AcDbLine
 10
2
 20
-19
 11
6
 21
-21
  0
LINE
  5
3DF
100
AcDbEntity
  8
Templ_Ligat
  6
ByLayer
 62
  256
370
   -1
100
AcDbLine
 10
6
 20
-19
 11
2
 21
-21
  0
MTEXT
  5
3E0
100
AcDbEntity
  8
Templ_Ligat
  6
ByLayer
 62
  256
370
   -1
100
AcDbMText
 10
4
 20
-20
 30
0
 40
0.5
 41
1.555555555555602
 71
    5
 72
    1
  1
Name
  7
standard
210
0
220
0
230
1
 50
0
 73
    2
 44
1
  0
LINE
  5
3E1
100
AcDbEntity
  8
Templ_lim
  6
ByLayer
 62
  256
370
   -1
100
AcDbLine
 10
7
 20
-21
 11
7
 21
-27
  0
LINE
  5
3E2
100
AcDbEntity
  8
Templ_lim
  6
ByLayer
 62
  256
370
   -1
100
AcDbLine
 10
9
 20
-21
 11
9
 21
-27
  0
LINE
  5
3E3
100
AcDbEntity
  8
Templ_lim
  6
ByLayer
 62
  256
370
   -1
100
AcDbLine
 10
7
 20
-27
 11
9
 21
-25
  0
LINE
  5
3E4
100
AcDbEntity
  8
Templ_lim
  6
ByLayer
 62
  256
370
   -1
100
AcDbLine
 10
9
 20
-25
 11
7
 21
-23
  0
LINE
  5
3E5
100
AcDbEntity
  8
Templ_lim
  6
ByLayer
 62
  256
370
   -1
100
AcDbLine
 10
7
 20
-23
 11
9
 21
-21
  0
LINE
  5
3E6
100
AcDbEntity
  8
Templ_lim
  6
ByLayer
 62
  256
370
   -1
100
AcDbLine
 10
7
 20
-21
 11
9
 21
-23
  0
LINE
  5
3E7
100
AcDbEntity
  8
Templ_lim
  6
ByLayer
 62
  256
370
   -1
100
AcDbLine
 10
9
 20
-23
 11
7
 21
-25
  0
LINE
  5
3E8
100
AcDbEntity
  8
Templ_lim
  6
ByLayer
 62
  256
370
   -1
100
AcDbLine
 10
7
 20
-25
 11
9
 21
-27
  0
MTEXT
  5
3E9
100
AcDbEntity
  8
Templ_lim
  6
ByLayer
 62
  256
370
   -1
100
AcDbMText
 10
8
 20
-26
 30
0
 40
0.2
 41
1.311111213968572
 71
    5
 72
    1
  1
Descender
  7
standard
210
0
220
0
230
1
 50
0
 73
    2
 44
1
  0
MTEXT
  5
3EA
100
AcDbEntity
  8
Templ_lim
  6
ByLayer
 62
  256
370
   -1
100
AcDbMText
 10
8
 20
-22
 30
0
 40
0.2
 41
1.177777880635227
 71
    5
 72
    1
  1
Ascender
  7
standard
210
0
220
0
230
1
 50
0
 73
    2
 44
1
  0
MTEXT
  5
3EB
100
AcDbEntity
  8
Templ_lim
  6
ByLayer
 62
  256
370
   -1
100
AcDbMText
 10
8
 20
-24
 30
0
 40
0.2
 41
0.844444444444463
 71
    5
 72
    1
  1
Normal\PHeight
  7
standard
210
0
220
0
230
1
 50
0
 73
    2
 44
1
  0
CIRCLE
  5
3EC
100
AcDbEntity
  8
Templ_lim
  6
ByLayer
 62
  256
370
   -1
100
AcDbCircle
 10
8
 20
-24
 40
1
  0
CIRCLE
  5
3ED
100
AcDbEntity
  8
Templ_lim
  6
ByLayer
 62
  256
370
   -1
100
AcDbCircle
 10
8
 20
-22
 40
1
  0
CIRCLE
  5
3EE
100
AcDbEntity
  8
Templ_lim
  6
ByLayer
 62
  256
370
   -1
100
AcDbCircle
 10
8
 20
-26
 40
1
  0
LINE
  5
3EF
100
AcDbEntity
  8
Templ_Ligat
  6
ByLayer
 62
  256
370
   -1
100
AcDbLine
 10
6
 20
-27
 11
10
 21
-27
  0
LINE
  5
3F0
100
AcDbEntity
  8
Templ_Ligat
  6
ByLayer
 62
  256
370
   -1
100
AcDbLine
 10
6
 20
-21
 11
10
 21
-21
  0
LINE
  5
3F1
100
AcDbEntity
  8
Templ_Ligat
  6
ByLayer
 62
  256
370
   -1
100
AcDbLine
 10
10
 20
-19
 11
10
 21
-27
  0
LINE
  5
3F2
100
AcDbEntity
  8
Templ_Ligat
  6
ByLayer
 62
  256
370
   -1
100
AcDbLine
 10
6
 20
-19
 11
10
 21
-21
  0
LINE
  5
3F3
100
AcDbEntity
  8
Templ_Ligat
  6
ByLayer
 62
  256
370
   -1
100
AcDbLine
 10
10
 20
-19
 11
6
 21
-21
  0
MTEXT
  5
3F4
100
AcDbEntity
  8
Templ_Ligat
  6
ByLayer
 62
  256
370
   -1
100
AcDbMText
 10
8
 20
-20
 30
0
 40
0.5
 41
1.555555555555602
 71
    5
 72
    1
  1
Name
  7
standard
210
0
220
0
230
1
 50
0
 73
    2
 44
1
  0
LINE
  5
3F5
100
AcDbEntity
  8
Templ_Ligat
  6
ByLayer
 62
  256
370
   -1
100
AcDbLine
 10
2
 20
-25
 11
6
 21
-25
  0
LINE
  5
3F6
100
AcDbEntity
  8
Templ_Ligat
  6
ByLayer
 62
  256
370
   -1
100
AcDbLine
 10
2
 20
-23
 11
6
 21
-23
  0
LINE
  5
3F7
100
AcDbEntity
  8
Templ_Ligat
  6
ByLayer
 62
  256
370
   -1
100
AcDbLine
 10
6
 20
-25
 11
10
 21
-25
  0
LINE
  5
3F8
100
AcDbEntity
  8
Templ_Ligat
  6
ByLayer
 62
  256
370
   -1
100
AcDbLine
 10
6
 20
-23
 11
10
 21
-23
  0
LINE
  5
3F9
100
AcDbEntity
  8
Templ_lim
  6
ByLayer
 62
  256
370
   -1
100
AcDbLine
 10
11
 20
-21
 11
11
 21
-27
  0
LINE
  5
3FA
100
AcDbEntity
  8
Templ_lim
  6
ByLayer
 62
  256
370
   -1
100
AcDbLine
 10
13
 20
-21
 11
13
 21
-27
  0
LINE
  5
3FB
100
AcDbEntity
  8
Templ_lim
  6
ByLayer
 62
  256
370
   -1
100
AcDbLine
 10
11
 20
-27
 11
13
 21
-25
  0
LINE
  5
3FC
100
AcDbEntity
  8
Templ_lim
  6
ByLayer
 62
  256
370
   -1
100
AcDbLine
 10
13
 20
-25
 11
11
 21
-23
  0
LINE
  5
3FD
100
AcDbEntity
  8
Templ_lim
  6
ByLayer
 62
  256
370
   -1
100
AcDbLine
 10
11
 20
-23
 11
13
 21
-21
  0
LINE
  5
3FE
100
AcDbEntity
  8
Templ_lim
  6
ByLayer
 62
  256
370
   -1
100
AcDbLine
 10
11
 20
-21
 11
13
 21
-23
  0
LINE
  5
3FF
100
AcDbEntity
  8
Templ_lim
  6
ByLayer
 62
  256
370
   -1
100
AcDbLine
 10
13
 20
-23
 11
11
 21
-25
  0
LINE
  5
400
100
AcDbEntity
  8
Templ_lim
  6
ByLayer
 62
  256
370
   -1
100
AcDbLine
 10
11
 20
-25
 11
13
 21
-27
  0
MTEXT
  5
401
100
AcDbEntity
  8
Templ_lim
  6
ByLayer
 62
  256
370
   -1
100
AcDbMText
 10
12
 20
-26
 30
0
 40
0.2
 41
1.311111213968572
 71
    5
 72
    1
  1
Descender
  7
standard
210
0
220
0
230
1
 50
0
 73
    2
 44
1
  0
MTEXT
  5
402
100
AcDbEntity
  8
Templ_lim
  6
ByLayer
 62
  256
370
   -1
100
AcDbMText
 10
12
 20
-22
 30
0
 40
0.2
 41
1.177777880635227
 71
    5
 72
    1
  1
Ascender
  7
standard
210
0
220
0
230
1
 50
0
 73
    2
 44
1
  0
MTEXT
  5
403
100
AcDbEntity
  8
Templ_lim
  6
ByLayer
 62
  256
370
   -1
100
AcDbMText
 10
12
 20
-24
 30
0
 40
0.2
 41
0.844444444444463
 71
    5
 72
    1
  1
Normal\PHeight
  7
standard
210
0
220
0
230
1
 50
0
 73
    2
 44
1
  0
CIRCLE
  5
404
100
AcDbEntity
  8
Templ_lim
  6
ByLayer
 62
  256
370
   -1
100
AcDbCircle
 10
12
 20
-24
 40
1
  0
CIRCLE
  5
405
100
AcDbEntity
  8
Templ_lim
  6
ByLayer
 62
  256
370
   -1
100
AcDbCircle
 10
12
 20
-22
 40
1
  0
CIRCLE
  5
406
100
AcDbEntity
  8
Templ_lim
  6
ByLayer
 62
  256
370
   -1
100
AcDbCircle
 10
12
 20
-26
 40
1
  0
LINE
  5
407
100
AcDbEntity
  8
Templ_Ligat
  6
ByLayer
 62
  256
370
   -1
100
AcDbLine
 10
10
 20
-27
 11
14
 21
-27
  0
LINE
  5
408
100
AcDbEntity
  8
Templ_Ligat
  6
ByLayer
 62
  256
370
   -1
100
AcDbLine
 10
10
 20
-21
 11
14
 21
-21
  0
LINE
  5
409
100
AcDbEntity
  8
Templ_Ligat
  6
ByLayer
 62
  256
370
   -1
100
AcDbLine
 10
14
 20
-19
 11
14
 21
-27
  0
LINE
  5
40A
100
AcDbEntity
  8
Templ_Ligat
  6
ByLayer
 62
  256
370
   -1
100
AcDbLine
 10
10
 20
-19
 11
14
 21
-21
  0
LINE
  5
40B
100
AcDbEntity
  8
Templ_Ligat
  6
ByLayer
 62
  256
370
   -1
100
AcDbLine
 10
14
 20
-19
 11
10
 21
-21
  0
MTEXT
  5
40C
100
AcDbEntity
  8
Templ_Ligat
  6
ByLayer
 62
  256
370
   -1
100
AcDbMText
 10
12
 20
-20
 30
0
 40
0.5
 41
1.555555555555602
 71
    5
 72
    1
  1
Name
  7
standard
210
0
220
0
230
1
 50
0
 73
    2
 44
1
  0
LINE
  5
40D
100
AcDbEntity
  8
Templ_lim
  6
ByLayer
 62
  256
370
   -1
100
AcDbLine
 10
15
 20
-21
 11
15
 21
-27
  0
LINE
  5
40E
100
AcDbEntity
  8
Templ_lim
  6
ByLayer
 62
  256
370
   -1
100
AcDbLine
 10
17
 20
-21
 11
17
 21
-27
  0
LINE
  5
40F
100
AcDbEntity
  8
Templ_lim
  6
ByLayer
 62
  256
370
   -1
100
AcDbLine
 10
15
 20
-27
 11
17
 21
-25
  0
LINE
  5
410
100
AcDbEntity
  8
Templ_lim
  6
ByLayer
 62
  256
370
   -1
100
AcDbLine
 10
17
 20
-25
 11
15
 21
-23
  0
LINE
  5
411
100
AcDbEntity
  8
Templ_lim
  6
ByLayer
 62
  256
370
   -1
100
AcDbLine
 10
15
 20
-23
 11
17
 21
-21
  0
LINE
  5
412
100
AcDbEntity
  8
Templ_lim
  6
ByLayer
 62
  256
370
   -1
100
AcDbLine
 10
15
 20
-21
 11
17
 21
-23
  0
LINE
  5
413
100
AcDbEntity
  8
Templ_lim
  6
ByLayer
 62
  256
370
   -1
100
AcDbLine
 10
17
 20
-23
 11
15
 21
-25
  0
LINE
  5
414
100
AcDbEntity
  8
Templ_lim
  6
ByLayer
 62
  256
370
   -1
100
AcDbLine
 10
15
 20
-25
 11
17
 21
-27
  0
MTEXT
  5
415
100
AcDbEntity
  8
Templ_lim
  6
ByLayer
 62
  256
370
   -1
100
AcDbMText
 10
16
 20
-26
 30
0
 40
0.2
 41
1.311111213968572
 71
    5
 72
    1
  1
Descender
  7
standard
210
0
220
0
230
1
 50
0
 73
    2
 44
1
  0
MTEXT
  5
416
100
AcDbEntity
  8
Templ_lim
  6
ByLayer
 62
  256
370
   -1
100
AcDbMText
 10
16
 20
-22
 30
0
 40
0.2
 41
1.177777880635227
 71
    5
 72
    1
  1
Ascender
  7
standard
210
0
220
0
230
1
 50
0
 73
    2
 44
1
  0
MTEXT
  5
417
100
AcDbEntity
  8
Templ_lim
  6
ByLayer
 62
  256
370
   -1
100
AcDbMText
 10
16
 20
-24
 30
0
 40
0.2
 41
0.844444444444463
 71
    5
 72
    1
  1
Normal\PHeight
  7
standard
210
0
220
0
230
1
 50
0
 73
    2
 44
1
  0
CIRCLE
  5
418
100
AcDbEntity
  8
Templ_lim
  6
ByLayer
 62
  256
370
   -1
100
AcDbCircle
 10
16
 20
-24
 40
1
  0
CIRCLE
  5
419
100
AcDbEntity
  8
Templ_lim
  6
ByLayer
 62
  256
370
   -1
100
AcDbCircle
 10
16
 20
-22
 40
1
  0
CIRCLE
  5
41A
100
AcDbEntity
  8
Templ_lim
  6
ByLayer
 62
  256
370
   -1
100
AcDbCircle
 10
16
 20
-26
 40
1
  0
LINE
  5
41B
100
AcDbEntity
  8
Templ_Ligat
  6
ByLayer
 62
  256
370
   -1
100
AcDbLine
 10
14
 20
-27
 11
18
 21
-27
  0
LINE
  5
41C
100
AcDbEntity
  8
Templ_Ligat
  6
ByLayer
 62
  256
370
   -1
100
AcDbLine
 10
14
 20
-21
 11
18
 21
-21
  0
LINE
  5
41D
100
AcDbEntity
  8
Templ_Ligat
  6
ByLayer
 62
  256
370
   -1
100
AcDbLine
 10
18
 20
-19
 11
18
 21
-27
  0
LINE
  5
41E
100
AcDbEntity
  8
Templ_Ligat
  6
ByLayer
 62
  256
370
   -1
100
AcDbLine
 10
14
 20
-19
 11
18
 21
-21
  0
LINE
  5
41F
100
AcDbEntity
  8
Templ_Ligat
  6
ByLayer
 62
  256
370
   -1
100
AcDbLine
 10
18
 20
-19
 11
14
 21
-21
  0
MTEXT
  5
420
100
AcDbEntity
  8
Templ_Ligat
  6
ByLayer
 62
  256
370
   -1
100
AcDbMText
 10
16
 20
-20
 30
0
 40
0.5
 41
1.555555555555602
 71
    5
 72
    1
  1
Name
  7
standard
210
0
220
0
230
1
 50
0
 73
    2
 44
1
  0
LINE
  5
421
100
AcDbEntity
  8
Templ_Ligat
  6
ByLayer
 62
  256
370
   -1
100
AcDbLine
 10
10
 20
-25
 11
14
 21
-25
  0
LINE
  5
422
100
AcDbEntity
  8
Templ_Ligat
  6
ByLayer
 62
  256
370
   -1
100
AcDbLine
 10
10
 20
-23
 11
14
 21
-23
  0
LINE
  5
423
100
AcDbEntity
  8
Templ_Ligat
  6
ByLayer
 62
  256
370
   -1
100
AcDbLine
 10
14
 20
-25
 11
18
 21
-25
  0
LINE
  5
424
100
AcDbEntity
  8
Templ_Ligat
  6
ByLayer
 62
  256
370
   -1
100
AcDbLine
 10
14
 20
-23
 11
18
 21
-23
  0
LINE
  5
425
100
AcDbEntity
  8
Templ_lim
  6
ByLayer
 62
  256
370
   -1
100
AcDbLine
 10
19
 20
-21
 11
19
 21
-27
  0
LINE
  5
426
100
AcDbEntity
  8
Templ_lim
  6
ByLayer
 62
  256
370
   -1
100
AcDbLine
 10
21
 20
-21
 11
21
 21
-27
  0
LINE
  5
427
100
AcDbEntity
  8
Templ_lim
  6
ByLayer
 62
  256
370
   -1
100
AcDbLine
 10
19
 20
-27
 11
21
 21
-25
  0
LINE
  5
428
100
AcDbEntity
  8
Templ_lim
  6
ByLayer
 62
  256
370
   -1
100
AcDbLine
 10
21
 20
-25
 11
19
 21
-23
  0
LINE
  5
429
100
AcDbEntity
  8
Templ_lim
  6
ByLayer
 62
  256
370
   -1
100
AcDbLine
 10
19
 20
-23
 11
21
 21
-21
  0
LINE
  5
42A
100
AcDbEntity
  8
Templ_lim
  6
ByLayer
 62
  256
370
   -1
100
AcDbLine
 10
19
 20
-21
 11
21
 21
-23
  0
LINE
  5
42B
100
AcDbEntity
  8
Templ_lim
  6
ByLayer
 62
  256
370
   -1
100
AcDbLine
 10
21
 20
-23
 11
19
 21
-25
  0
LINE
  5
42C
100
AcDbEntity
  8
Templ_lim
  6
ByLayer
 62
  256
370
   -1
100
AcDbLine
 10
19
 20
-25
 11
21
 21
-27
  0
MTEXT
  5
42D
100
AcDbEntity
  8
Templ_lim
  6
ByLayer
 62
  256
370
   -1
100
AcDbMText
 10
20
 20
-26
 30
0
 40
0.2
 41
1.311111213968572
 71
    5
 72
    1
  1
Descender
  7
standard
210
0
220
0
230
1
 50
0
 73
    2
 44
1
  0
MTEXT
  5
42E
100
AcDbEntity
  8
Templ_lim
  6
ByLayer
 62
  256
370
   -1
100
AcDbMText
 10
20
 20
-22
 30
0
 40
0.2
 41
1.177777880635227
 71
    5
 72
    1
  1
Ascender
  7
standard
210
0
220
0
230
1
 50
0
 73
    2
 44
1
  0
MTEXT
  5
42F
100
AcDbEntity
  8
Templ_lim
  6
ByLayer
 62
  256
370
   -1
100
AcDbMText
 10
20
 20
-24
 30
0
 40
0.2
 41
0.844444444444463
 71
    5
 72
    1
  1
Normal\PHeight
  7
standard
210
0
220
0
230
1
 50
0
 73
    2
 44
1
  0
CIRCLE
  5
430
100
AcDbEntity
  8
Templ_lim
  6
ByLayer
 62
  256
370
   -1
100
AcDbCircle
 10
20
 20
-24
 40
1
  0
CIRCLE
  5
431
100
AcDbEntity
  8
Templ_lim
  6
ByLayer
 62
  256
370
   -1
100
AcDbCircle
 10
20
 20
-22
 40
1
  0
CIRCLE
  5
432
100
AcDbEntity
  8
Templ_lim
  6
ByLayer
 62
  256
370
   -1
100
AcDbCircle
 10
20
 20
-26
 40
1
  0
LINE
  5
433
100
AcDbEntity
  8
Templ_Ligat
  6
ByLayer
 62
  256
370
   -1
100
AcDbLine
 10
18
 20
-27
 11
22
 21
-27
  0
LINE
  5
434
100
AcDbEntity
  8
Templ_Ligat
  6
ByLayer
 62
  256
370
   -1
100
AcDbLine
 10
18
 20
-21
 11
22
 21
-21
  0
LINE
  5
435
100
AcDbEntity
  8
Templ_Ligat
  6
ByLayer
 62
  256
370
   -1
100
AcDbLine
 10
22
 20
-19
 11
22
 21
-27
  0
LINE
  5
436
100
AcDbEntity
  8
Templ_Ligat
  6
ByLayer
 62
  256
370
   -1
100
AcDbLine
 10
18
 20
-19
 11
22
 21
-21
  0
LINE
  5
437
100
AcDbEntity
  8
Templ_Ligat
  6
ByLayer
 62
  256
370
   -1
100
AcDbLine
 10
22
 20
-19
 11
18
 21
-21
  0
MTEXT
  5
438
100
AcDbEntity
  8
Templ_Ligat
  6
ByLayer
 62
  256
370
   -1
100
AcDbMText
 10
20
 20
-20
 30
0
 40
0.5
 41
1.555555555555602
 71
    5
 72
    1
  1
Name
  7
standard
210
0
220
0
230
1
 50
0
 73
    2
 44
1
  0
LINE
  5
439
100
AcDbEntity
  8
Templ_Ligat
  6
ByLayer
 62
  256
370
   -1
100
AcDbLine
 10
18
 20
-25
 11
22
 21
-25
  0
LINE
  5
43A
100
AcDbEntity
  8
Templ_Ligat
  6
ByLayer
 62
  256
370
   -1
100
AcDbLine
 10
18
 20
-23
 11
22
 21
-23
  0
MTEXT
  5
43B
100
AcDbEntity
  8
0
  6
ByLayer
 62
  256
370
   -1
100
AcDbMText
 10
0
 20
-20
 30
0
 40
0.5
 41
3.597222368254733
 71
    5
 72
    1
  1
Resh\P(All Forms)
  7
standard
210
0
220
0
230
1
 50
0
 73
    2
 44
1
  0
LINE
  5
43C
100
AcDbEntity
  8
Ligat
  6
ByLayer
 62
  256
370
   -1
100
AcDbLine
 10
2
 20
-25
 11
1
 21
-25
  0
ARC
  5
43D
100
AcDbEntity
  8
0
  6
ByLayer
 62
  256
370
   -1
100
AcDbCircle
 10
0
 20
-26
 40
1
100
AcDbArc
 50
270
 51
2.035554996136651e-13
  0
LINE
  5
43E
100
AcDbEntity
  8
0
  6
ByLayer
 62
  256
370
   -1
100
AcDbLine
 10
0
 20
-27
 11
-1
 21
-27
  0
LINE
  5
43F
100
AcDbEntity
  8
0
  6
ByLayer
 62
  256
370
   -1
100
AcDbLine
 10
0.9999999999982876
 20
-24
 11
1
 21
-26
  0
LINE
  5
440
100
AcDbEntity
  8
Ligat
  6
ByLayer
 62
  256
370
   -1
100
AcDbLine
 10
5
 20
-25
 11
6
 21
-25
  0
MTEXT
  5
441
100
AcDbEntity
  8
0
  6
ByLayer
 62
  256
370
   -1
100
AcDbMText
 10
4
 20
-20
 30
0
 40
0.5
 41
3.597222368254733
 71
    5
 72
    1
  1
Vav\P(All Forms)
  7
standard
210
0
220
0
230
1
 50
0
 73
    2
 44
1
  0
ARC
  5
442
100
AcDbEntity
  8
0
  6
ByLayer
 62
  256
370
   -1
100
AcDbCircle
 10
4
 20
-26
 40
1
100
AcDbArc
 50
270
 51
359.9999999999996
  0
LINE
  5
443
100
AcDbEntity
  8
0
  6
ByLayer
 62
  256
370
   -1
100
AcDbLine
 10
4
 20
-27
 11
3
 21
-27
  0
LINE
  5
444
100
AcDbEntity
  8
0
  6
ByLayer
 62
  256
370
   -1
100
AcDbLine
 10
5
 20
-23
 11
5
 21
-26
  0
LINE
  5
445
100
AcDbEntity
  8
0
  6
ByLayer
 62
  256
370
   -1
100
AcDbLine
 10
8.760258802134814
 20
-24.07307453119853
 11
7
 21
-23
  0
ARC
  5
446
100
AcDbEntity
  8
0
  6
ByLayer
 62
  256
370
   -1
100
AcDbCircle
 10
8.5
 20
-24.5
 40
0.5
100
AcDbArc
 50
270
 51
418.633
  0
MTEXT
  5
447
100
AcDbEntity
  8
0
  6
ByLayer
 62
  256
370
   -1
100
AcDbMText
 10
8
 20
-20
 30
0
 40
0.3
 41
1.866666787619507
 71
    5
 72
    1
  1
Ha\P(Isolated/\PInitial)
  7
standard
210
0
220
0
230
1
 50
0
 73
    2
 44
1
  0
ARC
  5
448
100
AcDbEntity
  8
0
  6
ByLayer
 62
  256
370
   -1
100
AcDbCircle
 10
8
 20
-24.5
 40
0.5
100
AcDbArc
 50
5.72499842663433e-13
 51
179.9999999999994
  0
ELLIPSE
  5
449
100
AcDbEntity
  8
0
  6
ByLayer
 62
  256
370
   -1
100
AcDbEllipse
 10
7
 20
-24.5
 30
0
 11
1.5
 21
4.662936703425657e-15
 31
0
 40
0.3333333333333336
 41
4.712388980384689
 42
0
  0
ELLIPSE
  5
44A
100
AcDbEntity
  8
0
  6
ByLayer
 62
  256
370
   -1
100
AcDbEllipse
 10
8.5
 20
-24.5
 30
0
 11
-1
 21
1.224606353822377e-16
 31
0
 40
0.5
 41
1.337904827396529e-16
 42
1.570796326794897
  0
LINE
  5
44B
100
AcDbEntity
  8
Ligat
  6
ByLayer
 62
  256
370
   -1
100
AcDbLine
 10
7.000000000000114
 20
-25.00000000000012
 11
6
 21
-25
  0
LINE
  5
44C
100
AcDbEntity
  8
Ligat
  6
ByLayer
 62
  256
370
   -1
100
AcDbLine
 10
10
 20
-25
 11
11
 21
-25
  0
LINE
  5
44D
100
AcDbEntity
  8
Ligat
  6
ByLayer
 62
  256
370
   -1
100
AcDbLine
 10
13
 20
-25
 11
14
 21
-25
  0
MTEXT
  5
44E
100
AcDbEntity
  8
0
  6
ByLayer
 62
  256
370
   -1
100
AcDbMText
 10
12
 20
-20
 30
0
 40
0.5
 41
2.333333222222245
 71
    5
 72
    1
  1
Ha\P(Medial)
  7
standard
210
0
220
0
230
1
 50
0
 73
    2
 44
1
  0
ELLIPSE
  5
44F
100
AcDbEntity
  8
0
  6
ByLayer
 62
  256
370
   -1
100
AcDbEllipse
 10
12
 20
-25
 30
0
 11
-0
 21
-2
 31
0
 40
0.5
 41
0
 42
6.283185307179586
  0
LINE
  5
450
100
AcDbEntity
  8
0
  6
ByLayer
 62
  256
370
   -1
100
AcDbLine
 10
11.00000000000051
 20
-25
 11
13
 21
-25
  0
LINE
  5
451
100
AcDbEntity
  8
Ligat
  6
ByLayer
 62
  256
370
   -1
100
AcDbLine
 10
17
 20
-25
 11
18
 21
-25
  0
ELLIPSE
  5
452
100
AcDbEntity
  8
0
  6
ByLayer
 62
  256
370
   -1
100
AcDbEllipse
 10
16
 20
-23.5
 30
0
 11
-1
 21
0
 31
0
 40
0.4999999999984119
 41
4.71238898038469
 42
1.570796326794897
  0
LINE
  5
453
100
AcDbEntity
  8
0
  6
ByLayer
 62
  256
370
   -1
100
AcDbLine
 10
16
 20
-24.5
 11
16
 21
-23
  0
ELLIPSE
  5
454
100
AcDbEntity
  8
0
  6
ByLayer
 62
  256
370
   -1
100
AcDbEllipse
 10
17
 20
-24.5
 30
0
 11
-1
 21
1.110223024625157e-16
 31
0
 40
0.4999999999999999
 41
3.133105754005161e-14
 42
1.570796326794897
  0
MTEXT
  5
455
100
AcDbEntity
  8
0
  6
ByLayer
 62
  256
370
   -1
100
AcDbMText
 10
16
 20
-20
 30
0
 40
0.5
 41
1.833333222222269
 71
    5
 72
    1
  1
Ha\P(Final)
  7
standard
210
0
220
0
230
1
 50
0
 73
    2
 44
1
  0
LINE
  5
456
100
AcDbEntity
  8
0
  6
ByLayer
 62
  256
370
   -1
100
AcDbLine
 10
20.73071794716799
 20
-23.317320513208
 11
19.97598142469769
 21
-22.5094750556804
  0
ARC
  5
457
100
AcDbEntity
  8
0
  6
ByLayer
 62
  256
370
   -1
100
AcDbCircle
 10
20.197224362268
 20
-22.302775637732
 40
0.3027756377319944
100
AcDbArc
 50
180
 51
223.0535656233503
  0
LINE
  5
458
100
AcDbEntity
  8
0
  6
ByLayer
 62
  256
370
   -1
100
AcDbLine
 10
19.89444872453601
 20
-22.302775637732
 11
19.89444872453601
 21
-22
  0
LINE
  5
459
100
AcDbEntity
  8
0
  6
ByLayer
 62
  256
370
   -1
100
AcDbLine
 10
19.26928205283201
 20
-23.317320513208
 11
20
 21
-22.53518375848801
  0
ARC
  5
45A
100
AcDbEntity
  8
0
  6
ByLayer
 62
  256
370
   -1
100
AcDbCircle
 10
20
 20
-24
 40
1
100
AcDbArc
 50
136.9466159074717
 51
43.05338409252835
  0
MTEXT
  5
45B
100
AcDbEntity
  8
0
  6
ByLayer
 62
  256
370
   -1
100
AcDbMText
 10
20
 20
-20
 30
0
 40
0.3
 41
2.950000000000069
 71
    5
 72
    1
  1
Tah Marbuta /\PChoti Ye\P(Isolated)
  7
standard
210
0
220
0
230
1
 50
0
 73
    2
 44
1
  0
LINE
  5
45C
100
AcDbEntity
  8
Templ_Ligat
  6
ByLayer
 62
  256
370
   -1
100
AcDbLine
 10
-2
 20
-27
 11
-2
 21
-19
  0
LINE
  5
45D
100
AcDbEntity
  8
Templ_lim
  6
ByLayer
 62
  256
370
   -1
100
AcDbLine
 10
23
 20
-21
 11
23
 21
-27
  0
LINE
  5
45E
100
AcDbEntity
  8
Templ_lim
  6
ByLayer
 62
  256
370
   -1
100
AcDbLine
 10
25
 20
-21
 11
25
 21
-27
  0
LINE
  5
45F
100
AcDbEntity
  8
Templ_lim
  6
ByLayer
 62
  256
370
   -1
100
AcDbLine
 10
23
 20
-27
 11
25
 21
-25
  0
LINE
  5
460
100
AcDbEntity
  8
Templ_lim
  6
ByLayer
 62
  256
370
   -1
100
AcDbLine
 10
25
 20
-25
 11
23
 21
-23
  0
LINE
  5
461
100
AcDbEntity
  8
Templ_lim
  6
ByLayer
 62
  256
370
   -1
100
AcDbLine
 10
23
 20
-23
 11
25
 21
-21
  0
LINE
  5
462
100
AcDbEntity
  8
Templ_lim
  6
ByLayer
 62
  256
370
   -1
100
AcDbLine
 10
23
 20
-21
 11
25
 21
-23
  0
LINE
  5
463
100
AcDbEntity
  8
Templ_lim
  6
ByLayer
 62
  256
370
   -1
100
AcDbLine
 10
25
 20
-23
 11
23
 21
-25
  0
LINE
  5
464
100
AcDbEntity
  8
Templ_lim
  6
ByLayer
 62
  256
370
   -1
100
AcDbLine
 10
23
 20
-25
 11
25
 21
-27
  0
MTEXT
  5
465
100
AcDbEntity
  8
Templ_lim
  6
ByLayer
 62
  256
370
   -1
100
AcDbMText
 10
24
 20
-26
 30
0
 40
0.2
 41
1.311111213968572
 71
    5
 72
    1
  1
Descender
  7
standard
210
0
220
0
230
1
 50
0
 73
    2
 44
1
  0
MTEXT
  5
466
100
AcDbEntity
  8
Templ_lim
  6
ByLayer
 62
  256
370
   -1
100
AcDbMText
 10
24
 20
-22
 30
0
 40
0.2
 41
1.177777880635227
 71
    5
 72
    1
  1
Ascender
  7
standard
210
0
220
0
230
1
 50
0
 73
    2
 44
1
  0
MTEXT
  5
467
100
AcDbEntity
  8
Templ_lim
  6
ByLayer
 62
  256
370
   -1
100
AcDbMText
 10
24
 20
-24
 30
0
 40
0.2
 41
0.844444444444463
 71
    5
 72
    1
  1
Normal\PHeight
  7
standard
210
0
220
0
230
1
 50
0
 73
    2
 44
1
  0
CIRCLE
  5
468
100
AcDbEntity
  8
Templ_lim
  6
ByLayer
 62
  256
370
   -1
100
AcDbCircle
 10
24
 20
-24
 40
1
  0
CIRCLE
  5
469
100
AcDbEntity
  8
Templ_lim
  6
ByLayer
 62
  256
370
   -1
100
AcDbCircle
 10
24
 20
-22
 40
1
  0
CIRCLE
  5
46A
100
AcDbEntity
  8
Templ_lim
  6
ByLayer
 62
  256
370
   -1
100
AcDbCircle
 10
24
 20
-26
 40
1
  0
LINE
  5
46B
100
AcDbEntity
  8
Templ_Ligat
  6
ByLayer
 62
  256
370
   -1
100
AcDbLine
 10
22
 20
-21
 11
26
 21
-21
  0
LINE
  5
46C
100
AcDbEntity
  8
Templ_Ligat
  6
ByLayer
 62
  256
370
   -1
100
AcDbLine
 10
26
 20
-19
 11
26
 21
-27
  0
LINE
  5
46D
100
AcDbEntity
  8
Templ_Ligat
  6
ByLayer
 62
  256
370
   -1
100
AcDbLine
 10
22
 20
-19
 11
26
 21
-21
  0
LINE
  5
46E
100
AcDbEntity
  8
Templ_Ligat
  6
ByLayer
 62
  256
370
   -1
100
AcDbLine
 10
26
 20
-19
 11
22
 21
-21
  0
MTEXT
  5
46F
100
AcDbEntity
  8
Templ_Ligat
  6
ByLayer
 62
  256
370
   -1
100
AcDbMText
 10
24
 20
-20
 30
0
 40
0.5
 41
1.555555555555602
 71
    5
 72
    1
  1
Name
  7
standard
210
0
220
0
230
1
 50
0
 73
    2
 44
1
  0
LINE
  5
470
100
AcDbEntity
  8
Templ_Ligat
  6
ByLayer
 62
  256
370
   -1
100
AcDbLine
 10
22
 20
-25
 11
26
 21
-25
  0
LINE
  5
471
100
AcDbEntity
  8
Templ_Ligat
  6
ByLayer
 62
  256
370
   -1
100
AcDbLine
 10
22
 20
-23
 11
26
 21
-23
  0
MTEXT
  5
472
100
AcDbEntity
  8
0
  6
ByLayer
 62
  256
370
   -1
100
AcDbMText
 10
24
 20
-20
 30
0
 40
0.5
 41
2.763888888888943
 71
    5
 72
    1
  1
Choti Ye\P(Initial)
  7
standard
210
0
220
0
230
1
 50
0
 73
    2
 44
1
  0
LINE
  5
473
100
AcDbEntity
  8
Ligat
  6
ByLayer
 62
  256
370
   -1
100
AcDbLine
 10
22
 20
-25
 11
23
 21
-25
  0
LINE
  5
474
100
AcDbEntity
  8
Templ_Ligat
  6
ByLayer
 62
  256
370
   -1
100
AcDbLine
 10
22
 20
-27
 11
26
 21
-27
  0
LINE
  5
475
100
AcDbEntity
  8
Templ_lim
  6
ByLayer
 62
  256
370
   -1
100
AcDbLine
 10
27
 20
-21
 11
27
 21
-27
  0
LINE
  5
476
100
AcDbEntity
  8
Templ_lim
  6
ByLayer
 62
  256
370
   -1
100
AcDbLine
 10
29
 20
-21
 11
29
 21
-27
  0
LINE
  5
477
100
AcDbEntity
  8
Templ_lim
  6
ByLayer
 62
  256
370
   -1
100
AcDbLine
 10
27
 20
-27
 11
29
 21
-25
  0
LINE
  5
478
100
AcDbEntity
  8
Templ_lim
  6
ByLayer
 62
  256
370
   -1
100
AcDbLine
 10
29
 20
-25
 11
27
 21
-23
  0
LINE
  5
479
100
AcDbEntity
  8
Templ_lim
  6
ByLayer
 62
  256
370
   -1
100
AcDbLine
 10
27
 20
-23
 11
29
 21
-21
  0
LINE
  5
47A
100
AcDbEntity
  8
Templ_lim
  6
ByLayer
 62
  256
370
   -1
100
AcDbLine
 10
27
 20
-21
 11
29
 21
-23
  0
LINE
  5
47B
100
AcDbEntity
  8
Templ_lim
  6
ByLayer
 62
  256
370
   -1
100
AcDbLine
 10
29
 20
-23
 11
27
 21
-25
  0
LINE
  5
47C
100
AcDbEntity
  8
Templ_lim
  6
ByLayer
 62
  256
370
   -1
100
AcDbLine
 10
27
 20
-25
 11
29
 21
-27
  0
MTEXT
  5
47D
100
AcDbEntity
  8
Templ_lim
  6
ByLayer
 62
  256
370
   -1
100
AcDbMText
 10
28
 20
-26
 30
0
 40
0.2
 41
1.311111213968572
 71
    5
 72
    1
  1
Descender
  7
standard
210
0
220
0
230
1
 50
0
 73
    2
 44
1
  0
MTEXT
  5
47E
100
AcDbEntity
  8
Templ_lim
  6
ByLayer
 62
  256
370
   -1
100
AcDbMText
 10
28
 20
-22
 30
0
 40
0.2
 41
1.177777880635227
 71
    5
 72
    1
  1
Ascender
  7
standard
210
0
220
0
230
1
 50
0
 73
    2
 44
1
  0
MTEXT
  5
47F
100
AcDbEntity
  8
Templ_lim
  6
ByLayer
 62
  256
370
   -1
100
AcDbMText
 10
28
 20
-24
 30
0
 40
0.2
 41
0.844444444444463
 71
    5
 72
    1
  1
Normal\PHeight
  7
standard
210
0
220
0
230
1
 50
0
 73
    2
 44
1
  0
CIRCLE
  5
480
100
AcDbEntity
  8
Templ_lim
  6
ByLayer
 62
  256
370
   -1
100
AcDbCircle
 10
28
 20
-24
 40
1
  0
CIRCLE
  5
481
100
AcDbEntity
  8
Templ_lim
  6
ByLayer
 62
  256
370
   -1
100
AcDbCircle
 10
28
 20
-22
 40
1
  0
CIRCLE
  5
482
100
AcDbEntity
  8
Templ_lim
  6
ByLayer
 62
  256
370
   -1
100
AcDbCircle
 10
28
 20
-26
 40
1
  0
LINE
  5
483
100
AcDbEntity
  8
Templ_Ligat
  6
ByLayer
 62
  256
370
   -1
100
AcDbLine
 10
26
 20
-27
 11
30
 21
-27
  0
LINE
  5
484
100
AcDbEntity
  8
Templ_Ligat
  6
ByLayer
 62
  256
370
   -1
100
AcDbLine
 10
26
 20
-21
 11
30
 21
-21
  0
LINE
  5
485
100
AcDbEntity
  8
Templ_Ligat
  6
ByLayer
 62
  256
370
   -1
100
AcDbLine
 10
30
 20
-19
 11
30
 21
-27
  0
LINE
  5
486
100
AcDbEntity
  8
Templ_Ligat
  6
ByLayer
 62
  256
370
   -1
100
AcDbLine
 10
26
 20
-19
 11
30
 21
-21
  0
LINE
  5
487
100
AcDbEntity
  8
Templ_Ligat
  6
ByLayer
 62
  256
370
   -1
100
AcDbLine
 10
30
 20
-19
 11
26
 21
-21
  0
MTEXT
  5
488
100
AcDbEntity
  8
Templ_Ligat
  6
ByLayer
 62
  256
370
   -1
100
AcDbMText
 10
28
 20
-20
 30
0
 40
0.5
 41
1.555555555555602
 71
    5
 72
    1
  1
Name
  7
standard
210
0
220
0
230
1
 50
0
 73
    2
 44
1
  0
LINE
  5
489
100
AcDbEntity
  8
Templ_lim
  6
ByLayer
 62
  256
370
   -1
100
AcDbLine
 10
31
 20
-21
 11
31
 21
-27
  0
LINE
  5
48A
100
AcDbEntity
  8
Templ_lim
  6
ByLayer
 62
  256
370
   -1
100
AcDbLine
 10
33
 20
-21
 11
33
 21
-27
  0
LINE
  5
48B
100
AcDbEntity
  8
Templ_lim
  6
ByLayer
 62
  256
370
   -1
100
AcDbLine
 10
31
 20
-27
 11
33
 21
-25
  0
LINE
  5
48C
100
AcDbEntity
  8
Templ_lim
  6
ByLayer
 62
  256
370
   -1
100
AcDbLine
 10
33
 20
-25
 11
31
 21
-23
  0
LINE
  5
48D
100
AcDbEntity
  8
Templ_lim
  6
ByLayer
 62
  256
370
   -1
100
AcDbLine
 10
31
 20
-23
 11
33
 21
-21
  0
LINE
  5
48E
100
AcDbEntity
  8
Templ_lim
  6
ByLayer
 62
  256
370
   -1
100
AcDbLine
 10
31
 20
-21
 11
33
 21
-23
  0
LINE
  5
48F
100
AcDbEntity
  8
Templ_lim
  6
ByLayer
 62
  256
370
   -1
100
AcDbLine
 10
33
 20
-23
 11
31
 21
-25
  0
LINE
  5
490
100
AcDbEntity
  8
Templ_lim
  6
ByLayer
 62
  256
370
   -1
100
AcDbLine
 10
31
 20
-25
 11
33
 21
-27
  0
MTEXT
  5
491
100
AcDbEntity
  8
Templ_lim
  6
ByLayer
 62
  256
370
   -1
100
AcDbMText
 10
32
 20
-26
 30
0
 40
0.2
 41
1.311111213968572
 71
    5
 72
    1
  1
Descender
  7
standard
210
0
220
0
230
1
 50
0
 73
    2
 44
1
  0
MTEXT
  5
492
100
AcDbEntity
  8
Templ_lim
  6
ByLayer
 62
  256
370
   -1
100
AcDbMText
 10
32
 20
-22
 30
0
 40
0.2
 41
1.177777880635227
 71
    5
 72
    1
  1
Ascender
  7
standard
210
0
220
0
230
1
 50
0
 73
    2
 44
1
  0
MTEXT
  5
493
100
AcDbEntity
  8
Templ_lim
  6
ByLayer
 62
  256
370
   -1
100
AcDbMText
 10
32
 20
-24
 30
0
 40
0.2
 41
0.844444444444463
 71
    5
 72
    1
  1
Normal\PHeight
  7
standard
210
0
220
0
230
1
 50
0
 73
    2
 44
1
  0
CIRCLE
  5
494
100
AcDbEntity
  8
Templ_lim
  6
ByLayer
 62
  256
370
   -1
100
AcDbCircle
 10
32
 20
-24
 40
1
  0
CIRCLE
  5
495
100
AcDbEntity
  8
Templ_lim
  6
ByLayer
 62
  256
370
   -1
100
AcDbCircle
 10
32
 20
-22
 40
1
  0
CIRCLE
  5
496
100
AcDbEntity
  8
Templ_lim
  6
ByLayer
 62
  256
370
   -1
100
AcDbCircle
 10
32
 20
-26
 40
1
  0
LINE
  5
497
100
AcDbEntity
  8
Templ_Ligat
  6
ByLayer
 62
  256
370
   -1
100
AcDbLine
 10
30
 20
-27
 11
34
 21
-27
  0
LINE
  5
498
100
AcDbEntity
  8
Templ_Ligat
  6
ByLayer
 62
  256
370
   -1
100
AcDbLine
 10
30
 20
-21
 11
34
 21
-21
  0
LINE
  5
499
100
AcDbEntity
  8
Templ_Ligat
  6
ByLayer
 62
  256
370
   -1
100
AcDbLine
 10
34
 20
-19
 11
34
 21
-27
  0
LINE
  5
49A
100
AcDbEntity
  8
Templ_Ligat
  6
ByLayer
 62
  256
370
   -1
100
AcDbLine
 10
30
 20
-19
 11
34
 21
-21
  0
LINE
  5
49B
100
AcDbEntity
  8
Templ_Ligat
  6
ByLayer
 62
  256
370
   -1
100
AcDbLine
 10
34
 20
-19
 11
30
 21
-21
  0
MTEXT
  5
49C
100
AcDbEntity
  8
Templ_Ligat
  6
ByLayer
 62
  256
370
   -1
100
AcDbMText
 10
32
 20
-20
 30
0
 40
0.5
 41
1.555555555555602
 71
    5
 72
    1
  1
Name
  7
standard
210
0
220
0
230
1
 50
0
 73
    2
 44
1
  0
LINE
  5
49D
100
AcDbEntity
  8
Templ_Ligat
  6
ByLayer
 62
  256
370
   -1
100
AcDbLine
 10
26
 20
-25
 11
30
 21
-25
  0
LINE
  5
49E
100
AcDbEntity
  8
Templ_Ligat
  6
ByLayer
 62
  256
370
   -1
100
AcDbLine
 10
26
 20
-23
 11
30
 21
-23
  0
LINE
  5
49F
100
AcDbEntity
  8
Templ_Ligat
  6
ByLayer
 62
  256
370
   -1
100
AcDbLine
 10
30
 20
-25
 11
34
 21
-25
  0
LINE
  5
4A0
100
AcDbEntity
  8
Templ_Ligat
  6
ByLayer
 62
  256
370
   -1
100
AcDbLine
 10
30
 20
-23
 11
34
 21
-23
  0
MTEXT
  5
4A1
100
AcDbEntity
  8
0
  6
ByLayer
 62
  256
370
   -1
100
AcDbMText
 10
32
 20
-20
 30
0
 40
0.5
 41
2.763888888888943
 71
    5
 72
    1
  1
Choti Ye\P(Final)
  7
standard
210
0
220
0
230
1
 50
0
 73
    2
 44
1
  0
MTEXT
  5
4A2
100
AcDbEntity
  8
0
  6
ByLayer
 62
  256
370
   -1
100
AcDbMText
 10
28
 20
-20
 30
0
 40
0.5
 41
2.763888888888943
 71
    5
 72
    1
  1
Choti Ye\P(Medial)
  7
standard
210
0
220
0
230
1
 50
0
 73
    2
 44
1
  0
LINE
  5
4A3
100
AcDbEntity
  8
Ligat
  6
ByLayer
 62
  256
370
   -1
100
AcDbLine
 10
26
 20
-25
 11
27
 21
-25
  0
LINE
  5
4A4
100
AcDbEntity
  8
Ligat
  6
ByLayer
 62
  256
370
   -1
100
AcDbLine
 10
30
 20
-25
 11
29
 21
-25
  0
LINE
  5
4A5
100
AcDbEntity
  8
Ligat
  6
ByLayer
 62
  256
370
   -1
100
AcDbLine
 10
34
 20
-25
 11
33
 21
-25
  0
ARC
  5
4A6
100
AcDbEntity
  8
0
  6
ByLayer
 62
  256
370
   -1
100
AcDbCircle
 10
20.50000000000064
 20
-8.5
 40
0.5
100
AcDbArc
 50
270
 51
90
  0
LINE
  5
4A7
100
AcDbEntity
  8
0
  6
ByLayer
 62
  256
370
   -1
100
AcDbLine
 10
19.00000000000034
 20
-9.000000000000004
 11
20.4999996178278
 21
-9.000000000000004
  0
ARC
  5
4A8
100
AcDbEntity
  8
0
  6
ByLayer
 62
  256
370
   -1
100
AcDbCircle
 10
19.49999999999918
 20
-7.4999990943783
 40
0.5
100
AcDbArc
 50
90
 51
180.0001037766018
  0
LINE
  5
4A9
100
AcDbEntity
  8
0
  6
ByLayer
 62
  256
370
   -1
100
AcDbLine
 10
19
 20
-7
 11
19.49999999999918
 21
-6.9999990943783
  0
LINE
  5
4AA
100
AcDbEntity
  8
0
  6
ByLayer
 62
  256
370
   -1
100
AcDbLine
 10
19
 20
-7.499999999999993
 11
19
 21
-9
  0
ARC
  5
4AB
100
AcDbEntity
  8
0
  6
ByLayer
 62
  256
370
   -1
100
AcDbCircle
 10
19.99999999999898
 20
-8.49999999999693
 40
0.5
100
AcDbArc
 50
90
 51
180.0001037766018
  0
LINE
  5
4AC
100
AcDbEntity
  8
0
  6
ByLayer
 62
  256
370
   -1
100
AcDbLine
 10
19.99999999999898
 20
-7.99999999999693
 11
20.50000000000064
 21
-8
  0
LINE
  5
4AD
100
AcDbEntity
  8
Ligat
  6
ByLayer
 62
  256
370
   -1
100
AcDbLine
 10
18
 20
-9
 11
19
 21
-9
  0
LINE
  5
4AE
100
AcDbEntity
  8
Ligat
  6
ByLayer
 62
  256
370
   -1
100
AcDbLine
 10
19
 20
-7
 11
18
 21
-7
  0
LINE
  5
4AF
100
AcDbEntity
  8
Ligat
  6
ByLayer
 62
  256
370
   -1
100
AcDbLine
 10
20.50000000000064
 20
-9
 11
22
 21
-9
  0
CIRCLE
  5
4B0
100
AcDbEntity
  8
0
  6
ByLayer
 62
  256
370
   -1
100
AcDbCircle
 10
8
 20
-16.00000002397364
 40
1
  0
ELLIPSE
  5
4B1
100
AcDbEntity
  8
0
  6
ByLayer
 62
  256
370
   -1
100
AcDbEllipse
 10
7.75
 20
-17
 30
0
 11
2.220446049250314e-16
 21
0.9999999740285536
 31
0
 40
0.2500000064928617
 41
4.71238898038469
 42
1.570796326794897
  0
ARC
  5
4B2
100
AcDbEntity
  8
0
  6
ByLayer
 62
  256
370
   -1
100
AcDbCircle
 10
7
 20
-18.5
 40
0.4999999999999994
100
AcDbArc
 50
269.9999999999999
 51
359.9999918688143
  0
LINE
  5
4B3
100
AcDbEntity
  8
0
  6
ByLayer
 62
  256
370
   -1
100
AcDbLine
 10
7.5
 20
-17
 11
7.5
 21
-18.50000007095798
  0
LINE
  5
4B4
100
AcDbEntity
  8
Ligat
  6
ByLayer
 62
  256
370
   -1
100
AcDbLine
 10
8
 20
-17.00000002397364
 11
10
 21
-17
  0
ARC
  5
4B5
100
AcDbEntity
  8
0
  6
ByLayer
 62
  256
370
   -1
100
AcDbCircle
 10
33
 20
-24
 40
1
100
AcDbArc
 50
90
 51
270
  0
ARC
  5
4B6
100
AcDbEntity
  8
0
  6
ByLayer
 62
  256
370
   -1
100
AcDbCircle
 10
33
 20
-25
 40
2
100
AcDbArc
 50
90
 51
270
  0
ARC
  5
4B7
100
AcDbEntity
  8
0
  6
ByLayer
 62
  256
370
   -1
100
AcDbCircle
 10
23
 20
-26
 40
1
100
AcDbArc
 50
270
 51
90
  0
ARC
  5
4B8
100
AcDbEntity
  8
0
  6
ByLayer
 62
  256
370
   -1
100
AcDbCircle
 10
23
 20
-25
 40
2
100
AcDbArc
 50
270
 51
90
  0
ELLIPSE
  5
4B9
100
AcDbEntity
  8
0
  6
ByLayer
 62
  256
370
   -1
100
AcDbEllipse
 10
29
 20
-27
 30
0
 11
0
 21
2
 31
0
 40
0.5
 41
0
 42
1.570796326794897
  0
ELLIPSE
  5
4BA
100
AcDbEntity
  8
0
  6
ByLayer
 62
  256
370
   -1
100
AcDbEllipse
 10
27
 20
-27
 30
0
 11
0
 21
2
 31
0
 40
0.5
 41
4.71238898038469
 42
0
  0
LINE
  5
4BB
100
AcDbEntity
  8
0
  6
ByLayer
 62
  256
370
   -1
100
AcDbLine
 10
5
 20
-25
 11
2.999999999999918
 21
-24
  0
LINE
  5
4BC
100
AcDbEntity
  8
0
  6
ByLayer
 62
  256
370
   -1
100
AcDbLine
 10
2.999999999999918
 20
-24
 11
5
 21
-23
  0
LINE
  5
4BD
100
AcDbEntity
  8
0
  6
ByLayer
 62
  256
370
   -1
100
AcDbLine
 10
28.25
 20
-7
 11
29
 21
-7
  0
LINE
  5
4BE
100
AcDbEntity
  8
0
  6
ByLayer
 62
  256
370
   -1
100
AcDbLine
 10
27
 20
-9
 11
27.5
 21
-8.999999999999677
  0
ARC
  5
4BF
100
AcDbEntity
  8
0
  6
ByLayer
 62
  256
370
   -1
100
AcDbCircle
 10
27.5
 20
-8.624999999999838
 40
0.3749999999998384
100
AcDbArc
 50
270
 51
300.4091994454753
  0
ARC
  5
4C0
100
AcDbEntity
  8
0
  6
ByLayer
 62
  256
370
   -1
100
AcDbCircle
 10
28.25
 20
-7.75
 40
0.75
100
AcDbArc
 50
90
 51
300.4091856824408
  0
LINE
  5
4C1
100
AcDbEntity
  8
0
  6
ByLayer
 62
  256
370
   -1
100
AcDbLine
 10
27.68981434651263
 20
-8.948412297010728
 11
29
 21
-8.179449471770514
  0
ARC
  5
4C2
100
AcDbEntity
  8
0
  6
ByLayer
 62
  256
370
   -1
100
AcDbCircle
 10
7.5
 20
-8
 40
0.5
100
AcDbArc
 50
179.9999999999999
 51
0
  0
ARC
  5
4C3
100
AcDbEntity
  8
0
  6
ByLayer
 62
  256
370
   -1
100
AcDbCircle
 10
8.5
 20
-8
 40
0.5
100
AcDbArc
 50
180
 51
0
  0
LINE
  5
4C4
100
AcDbEntity
  8
0
  6
ByLayer
 62
  256
370
   -1
100
AcDbLine
 10
8
 20
-7
 11
8
 21
-8
  0
LINE
  5
4C5
100
AcDbEntity
  8
Ligat
  6
ByLayer
 62
  256
370
   -1
100
AcDbLine
 10
7
 20
-8.500000000000002
 11
6.999999999999999
 21
-7.999999948533365
  0
LINE
  5
4C6
100
AcDbEntity
  8
Ligat
  6
ByLayer
 62
  256
370
   -1
100
AcDbLine
 10
9
 20
-8.500000000000002
 11
9
 21
-8
  0
LINE
  5
4C7
100
AcDbEntity
  8
0
  6
ByLayer
 62
  256
370
   -1
100
AcDbLine
 10
6.999999999999999
 20
-7.999999948533365
 11
6.999999999999999
 21
-7
  0
LINE
  5
4C8
100
AcDbEntity
  8
0
  6
ByLayer
 62
  256
370
   -1
100
AcDbLine
 10
9
 20
-8
 11
9
 21
-7
  0
MTEXT
  5
4C9
100
AcDbEntity
  8
0
  6
ByLayer
 62
  256
370
   -1
100
AcDbMText
 10
8
 20
-4
 30
0
 40
0.3
 41
1.20000012095284
 71
    5
 72
    1
  1
Shim\P(all\Pforms)
  7
standard
210
0
220
0
230
1
 50
0
 73
    2
 44
1
  0
LINE
  5
4CA
100
AcDbEntity
  8
Ligat
  6
ByLayer
 62
  256
370
   -1
100
AcDbLine
 10
10
 20
-9
 11
11
 21
-9
  0
ARC
  5
4CB
100
AcDbEntity
  8
0
  6
ByLayer
 62
  256
370
   -1
100
AcDbCircle
 10
11.74999999999996
 20
-10.75
 40
0.25
100
AcDbArc
 50
270
 51
4.071109992273301e-13
  0
ARC
  5
4CC
100
AcDbEntity
  8
0
  6
ByLayer
 62
  256
370
   -1
100
AcDbCircle
 10
12.5
 20
-8.5
 40
0.5
100
AcDbArc
 50
180
 51
90
  0
LINE
  5
4CD
100
AcDbEntity
  8
0
  6
ByLayer
 62
  256
370
   -1
100
AcDbLine
 10
11.99999999999996
 20
-10.75
 11
11.99999999999996
 21
-8.000000000000082
  0
ELLIPSE
  5
4CE
100
AcDbEntity
  8
0
  6
ByLayer
 62
  256
370
   -1
100
AcDbEllipse
 10
12.5
 20
-9
 30
0
 11
0
 21
0.9999999999999201
 31
0
 40
0.25000000000002
 41
4.440892098500626e-16
 42
1.570796326794897
  0
LINE
  5
4CF
100
AcDbEntity
  8
0
  6
ByLayer
 62
  256
370
   -1
100
AcDbLine
 10
12.25
 20
-9
 11
12.25
 21
-9.25
  0
ARC
  5
4D0
100
AcDbEntity
  8
Ligat
  6
ByLayer
 62
  256
370
   -1
100
AcDbCircle
 10
13.5
 20
-8.5
 40
0.5
100
AcDbArc
 50
180.0000000000002
 51
270
  0
LINE
  5
4D1
100
AcDbEntity
  8
Ligat
  6
ByLayer
 62
  256
370
   -1
100
AcDbLine
 10
13.50000010266762
 20
-9
 11
14
 21
-9
  0
MTEXT
  5
4D2
100
AcDbEntity
  8
0
  6
ByLayer
 62
  256
370
   -1
100
AcDbMText
 10
12
 20
-4
 30
0
 40
0.3
 41
1.33333348761952
 71
    5
 72
    1
  1
Tsaade\P(all\Pforms)
  7
standard
210
0
220
0
230
1
 50
0
 73
    2
 44
1
  0
LINE
  5
4D3
100
AcDbEntity
  8
0
  6
ByLayer
 62
  256
370
   -1
100
AcDbLine
 10
3
 20
-16
 11
3
 21
-17
  0
LINE
  5
4D4
100
AcDbEntity
  8
0
  6
ByLayer
 62
  256
370
   -1
100
AcDbLine
 10
5
 20
-16
 11
5
 21
-17
  0
ELLIPSE
  5
4D5
100
AcDbEntity
  8
0
  6
ByLayer
 62
  256
370
   -1
100
AcDbEllipse
 10
4
 20
-17
 30
0
 11
0
 21
2
 31
0
 40
0.25
 41
4.71238898038469
 42
1.570796326794897
  0
MTEXT
  5
4D6
100
AcDbEntity
  8
0
  6
ByLayer
 62
  256
370
   -1
100
AcDbMText
 10
4
 20
-12
 30
0
 40
0.25
 41
1.000000100794033
 71
    5
 72
    1
  1
[P/F]e\P(all\Pforms)
  7
standard
210
0
220
0
230
1
 50
0
 73
    2
 44
1
  0
LINE
  5
4D7
100
AcDbEntity
  8
0
  6
ByLayer
 62
  256
370
   -1
100
AcDbLine
 10
15.5
 20
-17
 11
16.50000079814869
 21
-16.99999999999936
  0
ARC
  5
4D8
100
AcDbEntity
  8
0
  6
ByLayer
 62
  256
370
   -1
100
AcDbCircle
 10
15.5
 20
-16.75
 40
0.25
100
AcDbArc
 50
0
 51
270
  0
ELLIPSE
  5
4D9
100
AcDbEntity
  8
0
  6
ByLayer
 62
  256
370
   -1
100
AcDbEllipse
 10
24
 20
-17
 30
0
 11
-1
 21
0
 31
0
 40
0.5
 41
4.440892098500626e-16
 42
3.141592653589793
  0
MTEXT
  5
4DA
100
AcDbEntity
  8
0
  6
ByLayer
 62
  256
370
   -1
100
AcDbMText
 10
24
 20
-12
 30
0
 40
0.3
 41
3.383333420952868
 71
    5
 72
    1
  1
Lam (all forms)\P& Variant Kaf\P(Isolated / Final)
  7
standard
210
0
220
0
230
1
 50
0
 73
    2
 44
1
  0
LINE
  5
4DB
100
AcDbEntity
  8
0
  6
ByLayer
 62
  256
370
   -1
100
AcDbLine
 10
35
 20
-17
 11
35
 21
-18
  0
LINE
  5
4DC
100
AcDbEntity
  8
0
  6
ByLayer
 62
  256
370
   -1
100
AcDbLine
 10
37
 20
-17
 11
37
 21
-18
  0
LINE
  5
4DD
100
AcDbEntity
  8
0
  6
ByLayer
 62
  256
370
   -1
100
AcDbLine
 10
35
 20
-18
 11
37
 21
-18
  0
ARC
  5
4DE
100
AcDbEntity
  8
0
  6
ByLayer
 62
  256
370
   -1
100
AcDbCircle
 10
36
 20
-17
 40
1
100
AcDbArc
 50
0
 51
179.9999999999998
  0
ELLIPSE
  5
4DF
100
AcDbEntity
  8
0
  6
ByLayer
 62
  256
370
   -1
100
AcDbEllipse
 10
32.5
 20
-17
 30
0
 11
0
 21
1
 31
0
 40
0.5
 41
4.71238898038469
 42
1.570796326794897
  0
LINE
  5
4E0
100
AcDbEntity
  8
0
  6
ByLayer
 62
  256
370
   -1
100
AcDbLine
 10
32
 20
-17
 11
32
 21
-18
  0
LINE
  5
4E1
100
AcDbEntity
  8
0
  6
ByLayer
 62
  256
370
   -1
100
AcDbLine
 10
33
 20
-17
 11
33
 21
-18
  0
LINE
  5
4E2
100
AcDbEntity
  8
0
  6
ByLayer
 62
  256
370
   -1
100
AcDbLine
 10
32
 20
-18
 11
33
 21
-18
  0
LINE
  5
4E3
100
AcDbEntity
  8
0
  6
ByLayer
 62
  256
370
   -1
100
AcDbLine
 10
31
 20
-18
 11
31
 21
-19
  0
ELLIPSE
  5
4E4
100
AcDbEntity
  8
0
  6
ByLayer
 62
  256
370
   -1
100
AcDbEllipse
 10
32
 20
-18
 30
0
 11
0
 21
2
 31
0
 40
0.5
 41
5.984482098856788
 42
1.570796326794897
  0
LINE
  5
4E5
100
AcDbEntity
  8
0
  6
ByLayer
 62
  256
370
   -1
100
AcDbLine
 10
16.55131066607464
 20
-13.51910200266409
 11
15.12172333481338
 21
-15.17303400088803
  0
ARC
  5
4E6
100
AcDbEntity
  8
0
  6
ByLayer
 62
  256
370
   -1
100
AcDbCircle
 10
16.31385933836548
 20
-13.3138593383655
 40
0.3138593383654982
100
AcDbArc
 50
319.1612820701062
 51
89.99999999999933
  0
MTEXT
  5
4E7
100
AcDbEntity
  8
0
  6
ByLayer
 62
  256
370
   -1
100
AcDbMText
 10
16
 20
-12
 30
0
 40
0.3
 41
2.791666820952854
 71
    5
 72
    1
  1
Aspirated Kaf\P(all forms)
  7
standard
210
0
220
0
230
1
 50
0
 73
    2
 44
1
  0
LINE
  5
4E8
100
AcDbEntity
  8
Ligat
  6
ByLayer
 62
  256
370
   -1
100
AcDbLine
 10
22
 20
-1
 11
23
 21
-1
  0
LINE
  5
4E9
100
AcDbEntity
  8
Ligat
  6
ByLayer
 62
  256
370
   -1
100
AcDbLine
 10
26
 20
-1
 11
25
 21
-1
  0
ELLIPSE
  5
4EA
100
AcDbEntity
  8
0
  6
ByLayer
 62
  256
370
   -1
100
AcDbEllipse
 10
25
 20
1
 30
0
 11
0
 21
-2
 31
0
 40
0.5
 41
4.71238898038469
 42
0
  0
ELLIPSE
  5
4EB
100
AcDbEntity
  8
0
  6
ByLayer
 62
  256
370
   -1
100
AcDbEllipse
 10
23
 20
1
 30
0
 11
0
 21
-2
 31
0
 40
0.5
 41
4.440892098500626e-16
 42
1.570796326794897
  0
ARC
  5
4EC
100
AcDbEntity
  8
0
  6
ByLayer
 62
  256
370
   -1
100
AcDbCircle
 10
21
 20
-0.250000248737674
 40
0.25
100
AcDbArc
 50
90
 51
180
  0
LINE
  5
4ED
100
AcDbEntity
  8
0
  6
ByLayer
 62
  256
370
   -1
100
AcDbLine
 10
20.75
 20
-0.250000248737674
 11
20.75
 21
-0.75
  0
ARC
  5
4EE
100
AcDbEntity
  8
0
  6
ByLayer
 62
  256
370
   -1
100
AcDbCircle
 10
20.5
 20
-0.75
 40
0.25
100
AcDbArc
 50
270
 51
0
  0
LINE
  5
4EF
100
AcDbEntity
  8
0
  6
ByLayer
 62
  256
370
   -1
100
AcDbLine
 10
27.5
 20
-3
 11
28.5
 21
-3
  0
ARC
  5
4F0
100
AcDbEntity
  8
0
  6
ByLayer
 62
  256
370
   -1
100
AcDbCircle
 10
28.5
 20
-1.5
 40
0.5
100
AcDbArc
 50
90
 51
270
  0
ARC
  5
4F1
100
AcDbEntity
  8
0
  6
ByLayer
 62
  256
370
   -1
100
AcDbCircle
 10
28.5
 20
-1.499999999999972
 40
0.4999999999999717
100
AcDbArc
 50
359.9999999999969
 51
90
  0
LINE
  5
4F2
100
AcDbEntity
  8
Ligat
  6
ByLayer
 62
  256
370
   -1
100
AcDbLine
 10
30
 20
-1
 11
28.99999999999997
 21
-1
  0
ARC
  5
4F3
100
AcDbEntity
  8
Ligat
  6
ByLayer
 62
  256
370
   -1
100
AcDbCircle
 10
28.99999999999997
 20
-1.499999999999999
 40
0.4999999999999716
100
AcDbArc
 50
90
 51
119.9999999999968
  0
MTEXT
  5
4F4
100
AcDbEntity
  8
0
  6
ByLayer
 62
  256
370
   -1
100
AcDbMText
 10
28
 20
4
 30
0
 40
0.5
 41
3.111111312699178
 71
    5
 72
    1
  1
Yi\P(Isolated/\PFinal)
  7
standard
210
0
220
0
230
1
 50
0
 73
    2
 44
1
  0
LINE
  5
4F5
100
AcDbEntity
  8
Ligat
  6
ByLayer
 62
  256
370
   -1
100
AcDbLine
 10
4.500000067651227
 20
-1
 11
6
 21
-1
  0
ENDSEC
  0
SECTION
  2
OBJECTS
  0
DICTIONARY
  5
C
330
0
100
AcDbDictionary
281
    1
  3
ACAD_GROUP
350
D
  0
DICTIONARY
  5
D
330
C
100
AcDbDictionary
281
    1
  0
PLOTSETTINGS
  5
4F6
100
AcDbPlotSettings
  6
1x1
 40
0
 41
0
 42
0
 43
0
  0
ENDSEC
  0
EOF
