999
dxfrw 0.6.3
  0
SECTION
  2
HEADER
  9
$ACADVER
  1
AC1021
  9
$DWGCODEPAGE
  3
ANSI_1252
  9
$INSBASE
 10
0
 20
0
 30
0
  9
$EXTMIN
 10
-10.00000000000001
 20
-320
 30
0
  9
$EXTMAX
 10
50
 20
25.00000000000001
 30
0
  9
$LIMMIN
 10
0
 20
0
  9
$LIMMAX
 10
420
 20
297
  9
$ORTHOMODE
 70
    0
  9
$REGENMODE
 70
    1
  9
$FILLMODE
 70
    1
  9
$QTEXTMODE
 70
    0
  9
$MIRRTEXT
 70
    0
  9
$LTSCALE
 40
1
  9
$ATTMODE
 70
    0
  9
$TEXTSIZE
 40
2.5
  9
$TRACEWID
 40
15.68
  9
$TEXTSTYLE
  7
STANDARD
  9
$CLAYER
  8
Text
  9
$CELTYPE
  6
BYLAYER
  9
$CECOLOR
 62
  256
  9
$CELTSCALE
 40
1
  9
$DISPSILH
 70
    0
  9
$DIMSCALE
 40
2.5
  9
$DIMASZ
 40
2.5
  9
$DIMEXO
 40
0.625
  9
$DIMDLI
 40
3.75
  9
$DIMRND
 40
0
  9
$DIMDLE
 40
0
  9
$DIMEXE
 40
1.25
  9
$DIMTP
 40
0
  9
$DIMTM
 40
0
  9
$DIMTXT
 40
2.5
  9
$DIMCEN
 40
2.5
  9
$DIMTSZ
 40
0
  9
$DIMTOL
 70
    0
  9
$DIMLIM
 70
    0
  9
$DIMTIH
 70
    0
  9
$DIMTOH
 70
    0
  9
$DIMSE1
 70
    0
  9
$DIMSE2
 70
    0
  9
$DIMTAD
 70
    1
  9
$DIMZIN
 70
    8
  9
$DIMBLK
  1

  9
$DIMASO
 70
    1
  9
$DIMSHO
 70
    1
  9
$DIMPOST
  1

  9
$DIMAPOST
  1

  9
$DIMALT
 70
    0
  9
$DIMALTD
 70
    3
  9
$DIMALTF
 40
0.03937
  9
$DIMLFAC
 40
1
  9
$DIMTOFL
 70
    1
  9
$DIMTVP
 40
0
  9
$DIMTIX
 70
    0
  9
$DIMSOXD
 70
    0
  9
$DIMSAH
 70
    0
  9
$DIMBLK1
  1

  9
$DIMBLK2
  1

  9
$DIMSTYLE
  2
STANDARD
  9
$DIMCLRD
 70
    0
  9
$DIMCLRE
 70
    0
  9
$DIMCLRT
 70
    0
  9
$DIMTFAC
 40
1
  9
$DIMGAP
 40
0.625
  9
$DIMJUST
 70
    0
  9
$DIMSD1
 70
    0
  9
$DIMSD2
 70
    0
  9
$DIMTOLJ
 70
    0
  9
$DIMTZIN
 70
    8
  9
$DIMALTZ
 70
    0
  9
$DIMALTTZ
 70
    0
  9
$DIMUPT
 70
    0
  9
$DIMDEC
 70
    2
  9
$DIMTDEC
 70
    2
  9
$DIMALTU
 70
    2
  9
$DIMALTTD
 70
    3
  9
$DIMTXSTY
  7
STANDARD
  9
$DIMAUNIT
 70
    0
  9
$DIMADEC
 70
    0
  9
$DIMALTRND
 40
0
  9
$DIMAZIN
 70
    0
  9
$DIMDSEP
 70
   44
  9
$DIMATFIT
 70
    3
  9
$DIMFRAC
 70
    0
  9
$DIMLDRBLK
  1
STANDARD
  9
$DIMLUNIT
 70
    2
  9
$DIMLWD
 70
   -2
  9
$DIMLWE
 70
   -2
  9
$DIMTMOVE
 70
    0
  9
$DIMFXL
 40
1
  9
$DIMFXLON
 70
    0
  9
$DIMJOGANG
 40
0.7854
  9
$DIMTFILL
 70
    0
  9
$DIMTFILLCLR
 70
    0
  9
$DIMARCSYM
 70
    0
  9
$DIMLTYPE
  6

  9
$DIMLTEX1
  6

  9
$DIMLTEX2
  6

  9
$LUNITS
 70
    2
  9
$LUPREC
 70
    4
  9
$SKETCHINC
 40
1
  9
$FILLETRAD
 40
0
  9
$AUNITS
 70
    0
  9
$AUPREC
 70
    2
  9
$MENU
  1
.
  9
$ELEVATION
 40
0
  9
$PELEVATION
 40
0
  9
$THICKNESS
 40
0
  9
$LIMCHECK
 70
    0
  9
$CHAMFERA
 40
0
  9
$CHAMFERB
 40
0
  9
$CHAMFERC
 40
0
  9
$CHAMFERD
 40
0
  9
$SKPOLY
 70
    0
  9
$USRTIMER
 70
    1
  9
$ANGBASE
 50
0
  9
$ANGDIR
 70
    0
  9
$PDMODE
 70
   34
  9
$PDSIZE
 40
0
  9
$PLINEWID
 40
0
  9
$SPLFRAME
 70
    0
  9
$SPLINETYPE
 70
    2
  9
$SPLINESEGS
 70
    8
  9
$HANDSEED
  5
20000
  9
$SURFTAB1
 70
    6
  9
$SURFTAB2
 70
    6
  9
$SURFTYPE
 70
    6
  9
$SURFU
 70
    6
  9
$SURFV
 70
    6
  9
$UCSBASE
  2

  9
$UCSNAME
  2

  9
$UCSORG
 10
0
 20
0
 30
0
  9
$UCSXDIR
 10
1
 20
0
 30
0
  9
$UCSYDIR
 10
0
 20
1
 30
0
  9
$UCSORTHOREF
  2

  9
$UCSORTHOVIEW
 70
    0
  9
$UCSORGTOP
 10
0
 20
0
 30
0
  9
$UCSORGBOTTOM
 10
0
 20
0
 30
0
  9
$UCSORGLEFT
 10
0
 20
0
 30
0
  9
$UCSORGRIGHT
 10
0
 20
0
 30
0
  9
$UCSORGFRONT
 10
0
 20
0
 30
0
  9
$UCSORGBACK
 10
0
 20
0
 30
0
  9
$PUCSBASE
  2

  9
$PUCSNAME
  2

  9
$PUCSORG
 10
0
 20
0
 30
0
  9
$PUCSXDIR
 10
1
 20
0
 30
0
  9
$PUCSYDIR
 10
0
 20
1
 30
0
  9
$PUCSORTHOREF
  2

  9
$PUCSORTHOVIEW
 70
    0
  9
$PUCSORGTOP
 10
0
 20
0
 30
0
  9
$PUCSORGBOTTOM
 10
0
 20
0
 30
0
  9
$PUCSORGLEFT
 10
0
 20
0
 30
0
  9
$PUCSORGRIGHT
 10
0
 20
0
 30
0
  9
$PUCSORGFRONT
 10
0
 20
0
 30
0
  9
$PUCSORGBACK
 10
0
 20
0
 30
0
  9
$USERI1
 70
    0
  9
$USERI2
 70
    0
  9
$USERI3
 70
    0
  9
$USERI4
 70
    0
  9
$USERI5
 70
    0
  9
$USERR1
 40
0
  9
$USERR2
 40
0
  9
$USERR3
 40
0
  9
$USERR4
 40
0
  9
$USERR5
 40
0
  9
$WORLDVIEW
 70
    1
  9
$SHADEDGE
 70
    3
  9
$SHADEDIF
 70
   70
  9
$TILEMODE
 70
    1
  9
$MAXACTVP
 70
   64
  9
$PINSBASE
 10
0
 20
0
 30
0
  9
$PLIMCHECK
 70
    0
  9
$PEXTMIN
 10
0
 20
0
 30
0
  9
$PEXTMAX
 10
0
 20
0
 30
0
  9
$GRIDMODE
 70
    1
  9
$SNAPSTYLE
 70
    0
  9
$PLIMMIN
 10
0
 20
0
  9
$PLIMMAX
 10
210
 20
297
  9
$UNITMODE
 70
    0
  9
$VISRETAIN
 70
    1
  9
$PLINEGEN
 70
    0
  9
$PSLTSCALE
 70
    1
  9
$TREEDEPTH
 70
 3020
  9
$CMLSTYLE
  2
Standard
  9
$CMLJUST
 70
    0
  9
$CMLSCALE
 40
20
  9
$PROXYGRAPHICS
 70
    1
  9
$MEASUREMENT
 70
    1
  9
$CELWEIGHT
370
   -1
  9
$ENDCAPS
280
    0
  9
$JOINSTYLE
280
    0
  9
$LWDISPLAY
290
    0
  9
$INSUNITS
 70
    4
  9
$HYPERLINKBASE
  1

  9
$STYLESHEET
  1

  9
$XEDIT
290
    1
  9
$CEPSNTYPE
380
    0
  9
$PSTYLEMODE
290
    1
  9
$EXTNAMES
290
    1
  9
$PSVPSCALE
 40
1
  9
$OLESTARTUP
290
    0
  9
$SORTENTS
280
  127
  9
$INDEXCTL
280
    0
  9
$HIDETEXT
280
    1
  9
$XCLIPFRAME
290
    0
  9
$HALOGAP
280
    0
  9
$OBSCOLOR
 70
  257
  9
$OBSLTYPE
280
    0
  9
$INTERSECTIONDISPLAY
280
    0
  9
$INTERSECTIONCOLOR
 70
  257
  9
$DIMASSOC
280
    1
  9
$PROJECTNAME
  1

  9
$CAMERADISPLAY
290
    0
  9
$LENSLENGTH
 40
50
  9
$CAMERAHEIGHT
 40
0
  9
$STEPSPERSEC
 40
2
  9
$STEPSIZE
 40
50
  9
$3DDWFPREC
 40
2
  9
$PSOLWIDTH
 40
5
  9
$PSOLHEIGHT
 40
80
  9
$LOFTANG1
 40
1.570796326794897
  9
$LOFTANG2
 40
1.570796326794897
  9
$LOFTMAG1
 40
0
  9
$LOFTMAG2
 40
0
  9
$LOFTPARAM
 70
    7
  9
$LOFTNORMALS
280
    1
  9
$LATITUDE
 40
1
  9
$LONGITUDE
 40
1
  9
$NORTHDIRECTION
 40
0
  9
$TIMEZONE
 70
-8000
  9
$LIGHTGLYPHDISPLAY
280
    1
  9
$TILEMODELIGHTSYNCH
280
    1
  9
$SOLIDHIST
280
    1
  9
$SHOWHIST
280
    1
  9
$DWFFRAME
280
    2
  9
$DGNFRAME
280
    0
  9
$REALWORLDSCALE
290
    1
  9
$INTERFERECOLOR
 62
    1
  9
$CSHADOW
280
    0
  9
$SHADOWPLANELOCATION
 40
0
  0
ENDSEC
  0
SECTION
  2
CLASSES
  0
ENDSEC
  0
SECTION
  2
TABLES
  0
TABLE
  2
VPORT
  5
8
330
0
100
AcDbSymbolTable
 70
    1
  0
VPORT
  5
31
330
2
100
AcDbSymbolTableRecord
100
AcDbViewportTableRecord
  2
*ACTIVE
 70
    0
 10
0
 20
0
 11
1
 21
1
 12
222.96826625387
 22
15.22058823529412
 13
0
 23
0
 14
10
 24
10
 15
10
 25
10
 16
0
 26
0
 36
1
 17
0
 27
0
 37
0
 40
355.6811145510836
 41
2.394894894894895
 42
50
 43
0
 44
0
 50
0
 51
0
 71
    0
 72
  100
 73
    1
 74
    3
 75
    0
 76
    1
 77
    0
 78
    0
281
    0
 65
    1
110
0
120
0
130
0
111
1
121
0
131
0
112
0
122
1
132
0
 79
    0
146
0
348
10020
 60
    7
 61
    5
292
1
282
    1
141
0
142
0
 63
  250
421
3358443
  0
ENDTAB
  0
TABLE
  2
LTYPE
  5
5
330
0
100
AcDbSymbolTable
 70
    4
  0
LTYPE
  5
14
330
5
100
AcDbSymbolTableRecord
100
AcDbLinetypeTableRecord
  2
ByBlock
 70
    0
  3

 72
   65
 73
    0
 40
0
  0
LTYPE
  5
15
330
5
100
AcDbSymbolTableRecord
100
AcDbLinetypeTableRecord
  2
ByLayer
 70
    0
  3

 72
   65
 73
    0
 40
0
  0
LTYPE
  5
16
330
5
100
AcDbSymbolTableRecord
100
AcDbLinetypeTableRecord
  2
Continuous
 70
    0
  3
Solid line
 72
   65
 73
    0
 40
0
  0
LTYPE
  5
32
330
5
100
AcDbSymbolTableRecord
100
AcDbLinetypeTableRecord
  2
DOT
 70
    0
  3
Dot . . . . . . . . . . . . . . . . . . . . . .
 72
   65
 73
    2
 40
6.35
 49
0
 74
    0
 49
-6.35
 74
    0
  0
LTYPE
  5
33
330
5
100
AcDbSymbolTableRecord
100
AcDbLinetypeTableRecord
  2
DOTTINY
 70
    0
  3
Dot (.15x) .....................................
 72
   65
 73
    2
 40
0.9525
 49
0
 74
    0
 49
-0.9525
 74
    0
  0
LTYPE
  5
34
330
5
100
AcDbSymbolTableRecord
100
AcDbLinetypeTableRecord
  2
DOT2
 70
    0
  3
Dot (.5x) .....................................
 72
   65
 73
    2
 40
3.175
 49
0
 74
    0
 49
-3.175
 74
    0
  0
LTYPE
  5
35
330
5
100
AcDbSymbolTableRecord
100
AcDbLinetypeTableRecord
  2
DOTX2
 70
    0
  3
Dot (2x) .  .  .  .  .  .  .  .  .  .  .  .  .
 72
   65
 73
    2
 40
12.7
 49
0
 74
    0
 49
-12.7
 74
    0
  0
LTYPE
  5
36
330
5
100
AcDbSymbolTableRecord
100
AcDbLinetypeTableRecord
  2
DASHED
 70
    0
  3
Dashed _ _ _ _ _ _ _ _ _ _ _ _ _ _ _ _ _
 72
   65
 73
    2
 40
19.05
 49
12.7
 74
    0
 49
-6.35
 74
    0
  0
LTYPE
  5
37
330
5
100
AcDbSymbolTableRecord
100
AcDbLinetypeTableRecord
  2
DASHEDTINY
 70
    0
  3
Dashed (.15x) _ _ _ _ _ _ _ _ _ _ _ _ _ _ _ _ _
 72
   65
 73
    2
 40
2.8575
 49
1.905
 74
    0
 49
-0.9525
 74
    0
  0
LTYPE
  5
38
330
5
100
AcDbSymbolTableRecord
100
AcDbLinetypeTableRecord
  2
DASHED2
 70
    0
  3
Dashed (.5x) _ _ _ _ _ _ _ _ _ _ _ _ _ _ _ _ _
 72
   65
 73
    2
 40
9.524999999999999
 49
6.35
 74
    0
 49
-3.175
 74
    0
  0
LTYPE
  5
39
330
5
100
AcDbSymbolTableRecord
100
AcDbLinetypeTableRecord
  2
DASHEDX2
 70
    0
  3
Dashed (2x) ____  ____  ____  ____  ____  ___
 72
   65
 73
    2
 40
38.09999999999999
 49
25.4
 74
    0
 49
-12.7
 74
    0
  0
LTYPE
  5
3A
330
5
100
AcDbSymbolTableRecord
100
AcDbLinetypeTableRecord
  2
DASHDOT
 70
    0
  3
Dash dot __ . __ . __ . __ . __ . __ . __ . __
 72
   65
 73
    4
 40
25.4
 49
12.7
 74
    0
 49
-6.35
 74
    0
 49
0
 74
    0
 49
-6.35
 74
    0
  0
LTYPE
  5
3B
330
5
100
AcDbSymbolTableRecord
100
AcDbLinetypeTableRecord
  2
DASHDOTTINY
 70
    0
  3
Dash dot (.15x) _._._._._._._._._._._._._._._.
 72
   65
 73
    4
 40
3.81
 49
1.905
 74
    0
 49
-0.9525
 74
    0
 49
0
 74
    0
 49
-0.9525
 74
    0
  0
LTYPE
  5
3C
330
5
100
AcDbSymbolTableRecord
100
AcDbLinetypeTableRecord
  2
DASHDOT2
 70
    0
  3
Dash dot (.5x) _._._._._._._._._._._._._._._.
 72
   65
 73
    4
 40
12.7
 49
6.35
 74
    0
 49
-3.175
 74
    0
 49
0
 74
    0
 49
-3.175
 74
    0
  0
LTYPE
  5
3D
330
5
100
AcDbSymbolTableRecord
100
AcDbLinetypeTableRecord
  2
DASHDOTX2
 70
    0
  3
Dash dot (2x) ____  .  ____  .  ____  .  ___
 72
   65
 73
    4
 40
50.8
 49
25.4
 74
    0
 49
-12.7
 74
    0
 49
0
 74
    0
 49
-12.7
 74
    0
  0
LTYPE
  5
3E
330
5
100
AcDbSymbolTableRecord
100
AcDbLinetypeTableRecord
  2
DIVIDE
 70
    0
  3
Divide ____ . . ____ . . ____ . . ____ . . ____
 72
   65
 73
    6
 40
31.75
 49
12.7
 74
    0
 49
-6.35
 74
    0
 49
0
 74
    0
 49
-6.35
 74
    0
 49
0
 74
    0
 49
-6.35
 74
    0
  0
LTYPE
  5
3F
330
5
100
AcDbSymbolTableRecord
100
AcDbLinetypeTableRecord
  2
DIVIDETINY
 70
    0
  3
Divide (.15x) __..__..__..__..__..__..__..__.._
 72
   65
 73
    6
 40
4.7625
 49
1.905
 74
    0
 49
-0.9525
 74
    0
 49
0
 74
    0
 49
-0.9525
 74
    0
 49
0
 74
    0
 49
-0.9525
 74
    0
  0
LTYPE
  5
40
330
5
100
AcDbSymbolTableRecord
100
AcDbLinetypeTableRecord
  2
DIVIDE2
 70
    0
  3
Divide (.5x) __..__..__..__..__..__..__..__.._
 72
   65
 73
    6
 40
15.875
 49
6.35
 74
    0
 49
-3.175
 74
    0
 49
0
 74
    0
 49
-3.175
 74
    0
 49
0
 74
    0
 49
-3.175
 74
    0
  0
LTYPE
  5
41
330
5
100
AcDbSymbolTableRecord
100
AcDbLinetypeTableRecord
  2
DIVIDEX2
 70
    0
  3
Divide (2x) ________  .  .  ________  .  .  _
 72
   65
 73
    6
 40
63.5
 49
25.4
 74
    0
 49
-12.7
 74
    0
 49
0
 74
    0
 49
-12.7
 74
    0
 49
0
 74
    0
 49
-12.7
 74
    0
  0
LTYPE
  5
42
330
5
100
AcDbSymbolTableRecord
100
AcDbLinetypeTableRecord
  2
BORDER
 70
    0
  3
Border __ __ . __ __ . __ __ . __ __ . __ __ .
 72
   65
 73
    6
 40
44.45
 49
12.7
 74
    0
 49
-6.35
 74
    0
 49
12.7
 74
    0
 49
-6.35
 74
    0
 49
0
 74
    0
 49
-6.35
 74
    0
  0
LTYPE
  5
43
330
5
100
AcDbSymbolTableRecord
100
AcDbLinetypeTableRecord
  2
BORDERTINY
 70
    0
  3
Border (.15x) __.__.__.__.__.__.__.__.__.__.__.
 72
   65
 73
    6
 40
6.6675
 49
1.905
 74
    0
 49
-0.9525
 74
    0
 49
1.905
 74
    0
 49
-0.9525
 74
    0
 49
0
 74
    0
 49
-0.9525
 74
    0
  0
LTYPE
  5
44
330
5
100
AcDbSymbolTableRecord
100
AcDbLinetypeTableRecord
  2
BORDER2
 70
    0
  3
Border (.5x) __.__.__.__.__.__.__.__.__.__.__.
 72
   65
 73
    6
 40
22.225
 49
6.35
 74
    0
 49
-3.175
 74
    0
 49
6.35
 74
    0
 49
-3.175
 74
    0
 49
0
 74
    0
 49
-3.175
 74
    0
  0
LTYPE
  5
45
330
5
100
AcDbSymbolTableRecord
100
AcDbLinetypeTableRecord
  2
BORDERX2
 70
    0
  3
Border (2x) ____  ____  .  ____  ____  .  ___
 72
   65
 73
    6
 40
88.89999999999999
 49
25.4
 74
    0
 49
-12.7
 74
    0
 49
25.4
 74
    0
 49
-12.7
 74
    0
 49
0
 74
    0
 49
-12.7
 74
    0
  0
LTYPE
  5
46
330
5
100
AcDbSymbolTableRecord
100
AcDbLinetypeTableRecord
  2
CENTER
 70
    0
  3
Center ____ _ ____ _ ____ _ ____ _ ____ _ ____
 72
   65
 73
    4
 40
50.8
 49
31.75
 74
    0
 49
-6.35
 74
    0
 49
6.35
 74
    0
 49
-6.35
 74
    0
  0
LTYPE
  5
47
330
5
100
AcDbSymbolTableRecord
100
AcDbLinetypeTableRecord
  2
CENTERTINY
 70
    0
  3
Center (.15x) ___ _ ___ _ ___ _ ___ _ ___ _ ___
 72
   65
 73
    4
 40
7.619999999999999
 49
4.7625
 74
    0
 49
-0.9525
 74
    0
 49
0.9525
 74
    0
 49
-0.9525
 74
    0
  0
LTYPE
  5
48
330
5
100
AcDbSymbolTableRecord
100
AcDbLinetypeTableRecord
  2
CENTER2
 70
    0
  3
Center (.5x) ___ _ ___ _ ___ _ ___ _ ___ _ ___
 72
   65
 73
    4
 40
28.575
 49
19.05
 74
    0
 49
-3.175
 74
    0
 49
3.175
 74
    0
 49
-3.175
 74
    0
  0
LTYPE
  5
49
330
5
100
AcDbSymbolTableRecord
100
AcDbLinetypeTableRecord
  2
CENTERX2
 70
    0
  3
Center (2x) ________  __  ________  __  _____
 72
   65
 73
    4
 40
101.6
 49
63.5
 74
    0
 49
-12.7
 74
    0
 49
12.7
 74
    0
 49
-12.7
 74
    0
  0
ENDTAB
  0
TABLE
  2
LAYER
  5
2
330
0
100
AcDbSymbolTable
 70
    1
  0
LAYER
  5
10
330
2
100
AcDbSymbolTableRecord
100
AcDbLayerTableRecord
  2
0
 70
    0
 62
    7
  6
CONTINUOUS
370
    0
390
F
  0
LAYER
  5
4A
330
2
100
AcDbSymbolTableRecord
100
AcDbLayerTableRecord
  2
Ligature_space
 70
    0
 62
    4
  6
CONTINUOUS
370
    0
390
F
  0
LAYER
  5
4B
330
2
100
AcDbSymbolTableRecord
100
AcDbLayerTableRecord
  2
Text
 70
    0
 62
    3
  6
CONTINUOUS
370
    0
390
F
  0
LAYER
  5
4C
330
2
100
AcDbSymbolTableRecord
100
AcDbLayerTableRecord
  2
character_limits
 70
    0
 62
    6
  6
CONTINUOUS
370
    0
390
F
  0
LAYER
  5
4D
330
2
100
AcDbSymbolTableRecord
100
AcDbLayerTableRecord
  2
ligature_possibility
 70
    0
 62
    3
  6
CONTINUOUS
370
    0
390
F
  0
ENDTAB
  0
TABLE
  2
STYLE
  5
3
330
0
100
AcDbSymbolTable
 70
    3
  0
STYLE
  5
4E
330
2
100
AcDbSymbolTableRecord
100
AcDbTextStyleTableRecord
  2
standard
 70
    0
 40
0
 41
1
 50
0
 71
    0
 42
1
  3
standard
  4

  0
ENDTAB
  0
TABLE
  2
VIEW
  5
6
330
0
100
AcDbSymbolTable
 70
    0
  0
ENDTAB
  0
TABLE
  2
UCS
  5
7
330
0
100
AcDbSymbolTable
 70
    0
  0
ENDTAB
  0
TABLE
  2
APPID
  5
9
330
0
100
AcDbSymbolTable
 70
    1
  0
APPID
  5
12
330
9
100
AcDbSymbolTableRecord
100
AcDbRegAppTableRecord
  2
ACAD
 70
    0
  0
APPID
  5
4F
330
9
100
AcDbSymbolTableRecord
100
AcDbRegAppTableRecord
  2
LibreCad
 70
    0
  0
ENDTAB
  0
TABLE
  2
DIMSTYLE
  5
A
330
0
100
AcDbSymbolTable
 70
    1
100
AcDbDimStyleTable
 71
    1
  0
DIMSTYLE
105
50
330
A
100
AcDbSymbolTableRecord
100
AcDbDimStyleTableRecord
  2
Standard
 70
    0
 40
2.5
 41
2.5
 42
0.625
 43
0.38
 44
1.25
 45
0
 46
0
 47
0
 48
0
 49
1
140
2.5
141
0.09
142
0
143
25.4
144
1
145
0
146
1
147
0.625
148
0
 71
    0
 72
    0
 73
    0
 74
    1
 75
    0
 76
    0
 77
    0
 78
    8
 79
    0
170
    0
171
    2
172
    0
173
    0
174
    0
175
    0
176
    0
177
    0
178
    0
179
    0
271
    2
272
    4
273
    2
274
    2
275
    0
276
    0
277
    2
278
   44
279
    0
280
    0
281
    0
282
    0
283
    1
284
    0
285
    0
286
    0
288
    0
289
    3
340
STANDARD
341

371
   -2
372
   -2
  0
ENDTAB
  0
TABLE
  2
BLOCK_RECORD
  5
1
330
0
100
AcDbSymbolTable
 70
    2
  0
BLOCK_RECORD
  5
1F
330
1
100
AcDbSymbolTableRecord
100
AcDbBlockTableRecord
  2
*Model_Space
 70
    0
280
    1
281
    0
  0
BLOCK_RECORD
  5
1E
330
1
100
AcDbSymbolTableRecord
100
AcDbBlockTableRecord
  2
*Paper_Space
 70
    0
280
    1
281
    0
  0
ENDTAB
  0
ENDSEC
  0
SECTION
  2
BLOCKS
  0
BLOCK
  5
20
330
1F
100
AcDbEntity
  8
0
100
AcDbBlockBegin
  2
*Model_Space
 70
    0
 10
0
 20
0
 30
0
  3
*Model_Space
  1

  0
ENDBLK
  5
21
330
1F
100
AcDbEntity
  8
0
100
AcDbBlockEnd
  0
BLOCK
  5
1C
330
1B
100
AcDbEntity
  8
0
100
AcDbBlockBegin
  2
*Paper_Space
 70
    0
 10
0
 20
0
 30
0
  3
*Paper_Space
  1

  0
ENDBLK
  5
1D
330
1F
100
AcDbEntity
  8
0
100
AcDbBlockEnd
  0
ENDSEC
  0
SECTION
  2
ENTITIES
  0
HATCH
  5
51
100
AcDbEntity
  8
0
  6
ByLayer
 62
  256
370
   -1
100
AcDbHatch
 10
0
 20
0
 30
0
210
0
220
0
230
1
  2
SOLID
 70
    1
 71
    0
 91
    1
 92
    0
 93
    1
 72
    2
 10
-1.909830056250553
 20
-225
 40
1.25
 50
0
 51
360
 73
    1
 97
    0
 75
    0
 76
    1
 98
    0
  0
HATCH
  5
52
100
AcDbEntity
  8
0
  6
ByLayer
 62
  256
370
   -1
100
AcDbHatch
 10
0
 20
0
 30
0
210
0
220
0
230
1
  2
SOLID
 70
    1
 71
    0
 91
    1
 92
    0
 93
    1
 72
    2
 10
5.991477110001142e-07
 20
-95
 40
1.25
 50
0
 51
360
 73
    1
 97
    0
 75
    0
 76
    1
 98
    0
  0
LINE
  5
53
100
AcDbEntity
  8
character_limits
  6
ByLayer
 62
  256
370
   -1
100
AcDbLine
 10
-5
 20
-5
 11
-5
 21
5
  0
LINE
  5
54
100
AcDbEntity
  8
character_limits
  6
ByLayer
 62
  256
370
   -1
100
AcDbLine
 10
-5
 20
5
 11
5
 21
5
  0
LINE
  5
55
100
AcDbEntity
  8
character_limits
  6
ByLayer
 62
  256
370
   -1
100
AcDbLine
 10
5
 20
5
 11
5
 21
-5
  0
LINE
  5
56
100
AcDbEntity
  8
character_limits
  6
ByLayer
 62
  256
370
   -1
100
AcDbLine
 10
5
 20
-5
 11
-5
 21
-5
  0
LINE
  5
57
100
AcDbEntity
  8
character_limits
  6
ByLayer
 62
  256
370
   -1
100
AcDbLine
 10
-5
 20
5
 11
-5
 21
15
  0
LINE
  5
58
100
AcDbEntity
  8
character_limits
  6
ByLayer
 62
  256
370
   -1
100
AcDbLine
 10
-5
 20
15
 11
5
 21
15
  0
LINE
  5
59
100
AcDbEntity
  8
character_limits
  6
ByLayer
 62
  256
370
   -1
100
AcDbLine
 10
5
 20
15
 11
5
 21
5
  0
LINE
  5
5A
100
AcDbEntity
  8
character_limits
  6
ByLayer
 62
  256
370
   -1
100
AcDbLine
 10
-5
 20
15
 11
-5
 21
25
  0
LINE
  5
5B
100
AcDbEntity
  8
character_limits
  6
ByLayer
 62
  256
370
   -1
100
AcDbLine
 10
-5
 20
25
 11
5
 21
25
  0
LINE
  5
5C
100
AcDbEntity
  8
character_limits
  6
ByLayer
 62
  256
370
   -1
100
AcDbLine
 10
5
 20
25
 11
5
 21
15
  0
LINE
  5
5D
100
AcDbEntity
  8
Ligature_space
  6
ByLayer
 62
  256
370
   -1
100
AcDbLine
 10
10
 20
25
 11
10
 21
15
  0
LINE
  5
5E
100
AcDbEntity
  8
Ligature_space
  6
ByLayer
 62
  256
370
   -1
100
AcDbLine
 10
10
 20
15
 11
10
 21
4.999999999999999
  0
LINE
  5
5F
100
AcDbEntity
  8
Ligature_space
  6
ByLayer
 62
  256
370
   -1
100
AcDbLine
 10
10
 20
4.999999999999999
 11
10
 21
-5.000000000000001
  0
LINE
  5
60
100
AcDbEntity
  8
Ligature_space
  6
ByLayer
 62
  256
370
   -1
100
AcDbLine
 10
10
 20
25
 11
5
 21
25
  0
LINE
  5
61
100
AcDbEntity
  8
Ligature_space
  6
ByLayer
 62
  256
370
   -1
100
AcDbLine
 10
10
 20
15
 11
5
 21
15
  0
LINE
  5
62
100
AcDbEntity
  8
Ligature_space
  6
ByLayer
 62
  256
370
   -1
100
AcDbLine
 10
10
 20
4.999999999999999
 11
5
 21
5
  0
LINE
  5
63
100
AcDbEntity
  8
Ligature_space
  6
ByLayer
 62
  256
370
   -1
100
AcDbLine
 10
10
 20
-5.000000000000001
 11
5
 21
-5
  0
LINE
  5
64
100
AcDbEntity
  8
Ligature_space
  6
ByLayer
 62
  256
370
   -1
100
AcDbLine
 10
-10
 20
25
 11
-5
 21
25
  0
LINE
  5
65
100
AcDbEntity
  8
Ligature_space
  6
ByLayer
 62
  256
370
   -1
100
AcDbLine
 10
-10
 20
15
 11
-5
 21
15
  0
LINE
  5
66
100
AcDbEntity
  8
Ligature_space
  6
ByLayer
 62
  256
370
   -1
100
AcDbLine
 10
-10
 20
5.000000000000001
 11
-5
 21
5
  0
LINE
  5
67
100
AcDbEntity
  8
Ligature_space
  6
ByLayer
 62
  256
370
   -1
100
AcDbLine
 10
-10
 20
-4.999999999999999
 11
-5
 21
-5
  0
LINE
  5
68
100
AcDbEntity
  8
character_limits
  6
ByLayer
 62
  256
370
   -1
100
AcDbLine
 10
-5.000000000000002
 20
-40
 11
-5.000000000000002
 21
-30
  0
LINE
  5
69
100
AcDbEntity
  8
character_limits
  6
ByLayer
 62
  256
370
   -1
100
AcDbLine
 10
-5.000000000000002
 20
-30
 11
4.999999999999998
 21
-30
  0
LINE
  5
6A
100
AcDbEntity
  8
character_limits
  6
ByLayer
 62
  256
370
   -1
100
AcDbLine
 10
4.999999999999998
 20
-30
 11
4.999999999999998
 21
-40
  0
LINE
  5
6B
100
AcDbEntity
  8
character_limits
  6
ByLayer
 62
  256
370
   -1
100
AcDbLine
 10
4.999999999999998
 20
-40
 11
-5.000000000000002
 21
-40
  0
LINE
  5
6C
100
AcDbEntity
  8
character_limits
  6
ByLayer
 62
  256
370
   -1
100
AcDbLine
 10
-5.000000000000002
 20
-30
 11
-5.000000000000002
 21
-20
  0
LINE
  5
6D
100
AcDbEntity
  8
character_limits
  6
ByLayer
 62
  256
370
   -1
100
AcDbLine
 10
-5.000000000000002
 20
-20
 11
4.999999999999998
 21
-20
  0
LINE
  5
6E
100
AcDbEntity
  8
character_limits
  6
ByLayer
 62
  256
370
   -1
100
AcDbLine
 10
4.999999999999998
 20
-20
 11
4.999999999999998
 21
-30
  0
LINE
  5
6F
100
AcDbEntity
  8
character_limits
  6
ByLayer
 62
  256
370
   -1
100
AcDbLine
 10
-5.000000000000002
 20
-20
 11
-5.000000000000002
 21
-10
  0
LINE
  5
70
100
AcDbEntity
  8
character_limits
  6
ByLayer
 62
  256
370
   -1
100
AcDbLine
 10
-5.000000000000002
 20
-10
 11
4.999999999999998
 21
-10
  0
LINE
  5
71
100
AcDbEntity
  8
character_limits
  6
ByLayer
 62
  256
370
   -1
100
AcDbLine
 10
4.999999999999998
 20
-10
 11
4.999999999999998
 21
-20
  0
LINE
  5
72
100
AcDbEntity
  8
Ligature_space
  6
ByLayer
 62
  256
370
   -1
100
AcDbLine
 10
9.999999999999998
 20
-10
 11
9.999999999999998
 21
-20
  0
LINE
  5
73
100
AcDbEntity
  8
Ligature_space
  6
ByLayer
 62
  256
370
   -1
100
AcDbLine
 10
9.999999999999998
 20
-20
 11
9.999999999999998
 21
-30
  0
LINE
  5
74
100
AcDbEntity
  8
Ligature_space
  6
ByLayer
 62
  256
370
   -1
100
AcDbLine
 10
9.999999999999998
 20
-30
 11
9.999999999999998
 21
-40
  0
LINE
  5
75
100
AcDbEntity
  8
Ligature_space
  6
ByLayer
 62
  256
370
   -1
100
AcDbLine
 10
9.999999999999998
 20
-10
 11
4.999999999999998
 21
-10
  0
LINE
  5
76
100
AcDbEntity
  8
Ligature_space
  6
ByLayer
 62
  256
370
   -1
100
AcDbLine
 10
9.999999999999998
 20
-20
 11
4.999999999999998
 21
-20
  0
LINE
  5
77
100
AcDbEntity
  8
Ligature_space
  6
ByLayer
 62
  256
370
   -1
100
AcDbLine
 10
9.999999999999998
 20
-30
 11
4.999999999999998
 21
-30
  0
LINE
  5
78
100
AcDbEntity
  8
Ligature_space
  6
ByLayer
 62
  256
370
   -1
100
AcDbLine
 10
9.999999999999998
 20
-40
 11
4.999999999999998
 21
-40
  0
LINE
  5
79
100
AcDbEntity
  8
Ligature_space
  6
ByLayer
 62
  256
370
   -1
100
AcDbLine
 10
-10
 20
-10
 11
-5.000000000000002
 21
-10
  0
LINE
  5
7A
100
AcDbEntity
  8
Ligature_space
  6
ByLayer
 62
  256
370
   -1
100
AcDbLine
 10
-10
 20
-20
 11
-5.000000000000002
 21
-20
  0
LINE
  5
7B
100
AcDbEntity
  8
Ligature_space
  6
ByLayer
 62
  256
370
   -1
100
AcDbLine
 10
-10
 20
-30
 11
-5.000000000000002
 21
-30
  0
LINE
  5
7C
100
AcDbEntity
  8
Ligature_space
  6
ByLayer
 62
  256
370
   -1
100
AcDbLine
 10
-10
 20
-40
 11
-5.000000000000002
 21
-40
  0
LINE
  5
7D
100
AcDbEntity
  8
character_limits
  6
ByLayer
 62
  256
370
   -1
100
AcDbLine
 10
-5.000000000000004
 20
-75
 11
-5.000000000000004
 21
-65
  0
LINE
  5
7E
100
AcDbEntity
  8
character_limits
  6
ByLayer
 62
  256
370
   -1
100
AcDbLine
 10
-5.000000000000004
 20
-65
 11
4.999999999999996
 21
-65
  0
LINE
  5
7F
100
AcDbEntity
  8
character_limits
  6
ByLayer
 62
  256
370
   -1
100
AcDbLine
 10
4.999999999999996
 20
-65
 11
4.999999999999996
 21
-75
  0
LINE
  5
80
100
AcDbEntity
  8
character_limits
  6
ByLayer
 62
  256
370
   -1
100
AcDbLine
 10
4.999999999999996
 20
-75
 11
-5.000000000000004
 21
-75
  0
LINE
  5
81
100
AcDbEntity
  8
character_limits
  6
ByLayer
 62
  256
370
   -1
100
AcDbLine
 10
-5.000000000000004
 20
-65
 11
-5.000000000000004
 21
-55
  0
LINE
  5
82
100
AcDbEntity
  8
character_limits
  6
ByLayer
 62
  256
370
   -1
100
AcDbLine
 10
-5.000000000000004
 20
-55
 11
4.999999999999996
 21
-55
  0
LINE
  5
83
100
AcDbEntity
  8
character_limits
  6
ByLayer
 62
  256
370
   -1
100
AcDbLine
 10
4.999999999999996
 20
-55
 11
4.999999999999996
 21
-65
  0
LINE
  5
84
100
AcDbEntity
  8
character_limits
  6
ByLayer
 62
  256
370
   -1
100
AcDbLine
 10
-5.000000000000004
 20
-55
 11
-5.000000000000004
 21
-45
  0
LINE
  5
85
100
AcDbEntity
  8
character_limits
  6
ByLayer
 62
  256
370
   -1
100
AcDbLine
 10
-5.000000000000004
 20
-45
 11
4.999999999999996
 21
-45
  0
LINE
  5
86
100
AcDbEntity
  8
character_limits
  6
ByLayer
 62
  256
370
   -1
100
AcDbLine
 10
4.999999999999996
 20
-45
 11
4.999999999999996
 21
-55
  0
LINE
  5
87
100
AcDbEntity
  8
Ligature_space
  6
ByLayer
 62
  256
370
   -1
100
AcDbLine
 10
9.999999999999996
 20
-45
 11
9.999999999999996
 21
-55
  0
LINE
  5
88
100
AcDbEntity
  8
Ligature_space
  6
ByLayer
 62
  256
370
   -1
100
AcDbLine
 10
9.999999999999996
 20
-55
 11
9.999999999999996
 21
-65
  0
LINE
  5
89
100
AcDbEntity
  8
Ligature_space
  6
ByLayer
 62
  256
370
   -1
100
AcDbLine
 10
9.999999999999996
 20
-65
 11
9.999999999999996
 21
-75
  0
LINE
  5
8A
100
AcDbEntity
  8
Ligature_space
  6
ByLayer
 62
  256
370
   -1
100
AcDbLine
 10
9.999999999999996
 20
-45
 11
4.999999999999996
 21
-45
  0
LINE
  5
8B
100
AcDbEntity
  8
Ligature_space
  6
ByLayer
 62
  256
370
   -1
100
AcDbLine
 10
9.999999999999996
 20
-55
 11
4.999999999999996
 21
-55
  0
LINE
  5
8C
100
AcDbEntity
  8
Ligature_space
  6
ByLayer
 62
  256
370
   -1
100
AcDbLine
 10
9.999999999999996
 20
-65
 11
4.999999999999996
 21
-65
  0
LINE
  5
8D
100
AcDbEntity
  8
Ligature_space
  6
ByLayer
 62
  256
370
   -1
100
AcDbLine
 10
9.999999999999996
 20
-75
 11
4.999999999999996
 21
-75
  0
LINE
  5
8E
100
AcDbEntity
  8
Ligature_space
  6
ByLayer
 62
  256
370
   -1
100
AcDbLine
 10
-10
 20
-45
 11
-5.000000000000004
 21
-45
  0
LINE
  5
8F
100
AcDbEntity
  8
Ligature_space
  6
ByLayer
 62
  256
370
   -1
100
AcDbLine
 10
-10
 20
-55
 11
-5.000000000000004
 21
-55
  0
LINE
  5
90
100
AcDbEntity
  8
Ligature_space
  6
ByLayer
 62
  256
370
   -1
100
AcDbLine
 10
-10
 20
-65
 11
-5.000000000000004
 21
-65
  0
LINE
  5
91
100
AcDbEntity
  8
Ligature_space
  6
ByLayer
 62
  256
370
   -1
100
AcDbLine
 10
-10
 20
-75
 11
-5.000000000000004
 21
-75
  0
LINE
  5
92
100
AcDbEntity
  8
character_limits
  6
ByLayer
 62
  256
370
   -1
100
AcDbLine
 10
-5.000000000000005
 20
-110
 11
-5.000000000000005
 21
-100
  0
LINE
  5
93
100
AcDbEntity
  8
character_limits
  6
ByLayer
 62
  256
370
   -1
100
AcDbLine
 10
-5.000000000000005
 20
-100
 11
4.999999999999995
 21
-100
  0
LINE
  5
94
100
AcDbEntity
  8
character_limits
  6
ByLayer
 62
  256
370
   -1
100
AcDbLine
 10
4.999999999999995
 20
-100
 11
4.999999999999995
 21
-110
  0
LINE
  5
95
100
AcDbEntity
  8
character_limits
  6
ByLayer
 62
  256
370
   -1
100
AcDbLine
 10
4.999999999999995
 20
-110
 11
-5.000000000000005
 21
-110
  0
LINE
  5
96
100
AcDbEntity
  8
character_limits
  6
ByLayer
 62
  256
370
   -1
100
AcDbLine
 10
-5.000000000000005
 20
-100
 11
-5.000000000000005
 21
-90
  0
LINE
  5
97
100
AcDbEntity
  8
character_limits
  6
ByLayer
 62
  256
370
   -1
100
AcDbLine
 10
-5.000000000000005
 20
-90
 11
4.999999999999995
 21
-90
  0
LINE
  5
98
100
AcDbEntity
  8
character_limits
  6
ByLayer
 62
  256
370
   -1
100
AcDbLine
 10
4.999999999999995
 20
-90
 11
4.999999999999995
 21
-100
  0
LINE
  5
99
100
AcDbEntity
  8
character_limits
  6
ByLayer
 62
  256
370
   -1
100
AcDbLine
 10
-5.000000000000005
 20
-90
 11
-5.000000000000005
 21
-80
  0
LINE
  5
9A
100
AcDbEntity
  8
character_limits
  6
ByLayer
 62
  256
370
   -1
100
AcDbLine
 10
-5.000000000000005
 20
-80
 11
4.999999999999995
 21
-80
  0
LINE
  5
9B
100
AcDbEntity
  8
character_limits
  6
ByLayer
 62
  256
370
   -1
100
AcDbLine
 10
4.999999999999995
 20
-80
 11
4.999999999999995
 21
-90
  0
LINE
  5
9C
100
AcDbEntity
  8
Ligature_space
  6
ByLayer
 62
  256
370
   -1
100
AcDbLine
 10
9.999999999999995
 20
-80
 11
9.999999999999995
 21
-90
  0
LINE
  5
9D
100
AcDbEntity
  8
Ligature_space
  6
ByLayer
 62
  256
370
   -1
100
AcDbLine
 10
9.999999999999995
 20
-90
 11
9.999999999999995
 21
-100
  0
LINE
  5
9E
100
AcDbEntity
  8
Ligature_space
  6
ByLayer
 62
  256
370
   -1
100
AcDbLine
 10
9.999999999999995
 20
-100
 11
9.999999999999995
 21
-110
  0
LINE
  5
9F
100
AcDbEntity
  8
Ligature_space
  6
ByLayer
 62
  256
370
   -1
100
AcDbLine
 10
9.999999999999995
 20
-80
 11
4.999999999999995
 21
-80
  0
LINE
  5
A0
100
AcDbEntity
  8
Ligature_space
  6
ByLayer
 62
  256
370
   -1
100
AcDbLine
 10
9.999999999999995
 20
-90
 11
4.999999999999995
 21
-90
  0
LINE
  5
A1
100
AcDbEntity
  8
Ligature_space
  6
ByLayer
 62
  256
370
   -1
100
AcDbLine
 10
9.999999999999995
 20
-100
 11
4.999999999999995
 21
-100
  0
LINE
  5
A2
100
AcDbEntity
  8
Ligature_space
  6
ByLayer
 62
  256
370
   -1
100
AcDbLine
 10
9.999999999999995
 20
-110
 11
4.999999999999995
 21
-110
  0
LINE
  5
A3
100
AcDbEntity
  8
Ligature_space
  6
ByLayer
 62
  256
370
   -1
100
AcDbLine
 10
-10.00000000000001
 20
-80
 11
-5.000000000000005
 21
-80
  0
LINE
  5
A4
100
AcDbEntity
  8
Ligature_space
  6
ByLayer
 62
  256
370
   -1
100
AcDbLine
 10
-10.00000000000001
 20
-90
 11
-5.000000000000005
 21
-90
  0
LINE
  5
A5
100
AcDbEntity
  8
Ligature_space
  6
ByLayer
 62
  256
370
   -1
100
AcDbLine
 10
-10.00000000000001
 20
-100
 11
-5.000000000000005
 21
-100
  0
LINE
  5
A6
100
AcDbEntity
  8
Ligature_space
  6
ByLayer
 62
  256
370
   -1
100
AcDbLine
 10
-10.00000000000001
 20
-110
 11
-5.000000000000005
 21
-110
  0
LINE
  5
A7
100
AcDbEntity
  8
character_limits
  6
ByLayer
 62
  256
370
   -1
100
AcDbLine
 10
-5.000000000000007
 20
-145
 11
-5.000000000000007
 21
-135
  0
LINE
  5
A8
100
AcDbEntity
  8
character_limits
  6
ByLayer
 62
  256
370
   -1
100
AcDbLine
 10
-5.000000000000007
 20
-135
 11
4.999999999999993
 21
-135
  0
LINE
  5
A9
100
AcDbEntity
  8
character_limits
  6
ByLayer
 62
  256
370
   -1
100
AcDbLine
 10
4.999999999999993
 20
-135
 11
4.999999999999993
 21
-145
  0
LINE
  5
AA
100
AcDbEntity
  8
character_limits
  6
ByLayer
 62
  256
370
   -1
100
AcDbLine
 10
4.999999999999993
 20
-145
 11
-5.000000000000007
 21
-145
  0
LINE
  5
AB
100
AcDbEntity
  8
character_limits
  6
ByLayer
 62
  256
370
   -1
100
AcDbLine
 10
-5.000000000000007
 20
-135
 11
-5.000000000000007
 21
-125
  0
LINE
  5
AC
100
AcDbEntity
  8
character_limits
  6
ByLayer
 62
  256
370
   -1
100
AcDbLine
 10
-5.000000000000007
 20
-125
 11
4.999999999999993
 21
-125
  0
LINE
  5
AD
100
AcDbEntity
  8
character_limits
  6
ByLayer
 62
  256
370
   -1
100
AcDbLine
 10
4.999999999999993
 20
-125
 11
4.999999999999993
 21
-135
  0
LINE
  5
AE
100
AcDbEntity
  8
character_limits
  6
ByLayer
 62
  256
370
   -1
100
AcDbLine
 10
-5.000000000000007
 20
-125
 11
-5.000000000000007
 21
-115
  0
LINE
  5
AF
100
AcDbEntity
  8
character_limits
  6
ByLayer
 62
  256
370
   -1
100
AcDbLine
 10
-5.000000000000007
 20
-115
 11
4.999999999999993
 21
-115
  0
LINE
  5
B0
100
AcDbEntity
  8
character_limits
  6
ByLayer
 62
  256
370
   -1
100
AcDbLine
 10
4.999999999999993
 20
-115
 11
4.999999999999993
 21
-125
  0
LINE
  5
B1
100
AcDbEntity
  8
Ligature_space
  6
ByLayer
 62
  256
370
   -1
100
AcDbLine
 10
9.999999999999993
 20
-115
 11
9.999999999999993
 21
-125
  0
LINE
  5
B2
100
AcDbEntity
  8
Ligature_space
  6
ByLayer
 62
  256
370
   -1
100
AcDbLine
 10
9.999999999999993
 20
-125
 11
9.999999999999993
 21
-135
  0
LINE
  5
B3
100
AcDbEntity
  8
Ligature_space
  6
ByLayer
 62
  256
370
   -1
100
AcDbLine
 10
9.999999999999993
 20
-135
 11
9.999999999999993
 21
-145
  0
LINE
  5
B4
100
AcDbEntity
  8
Ligature_space
  6
ByLayer
 62
  256
370
   -1
100
AcDbLine
 10
9.999999999999993
 20
-115
 11
4.999999999999993
 21
-115
  0
LINE
  5
B5
100
AcDbEntity
  8
Ligature_space
  6
ByLayer
 62
  256
370
   -1
100
AcDbLine
 10
9.999999999999993
 20
-125
 11
4.999999999999993
 21
-125
  0
LINE
  5
B6
100
AcDbEntity
  8
Ligature_space
  6
ByLayer
 62
  256
370
   -1
100
AcDbLine
 10
9.999999999999993
 20
-135
 11
4.999999999999993
 21
-135
  0
LINE
  5
B7
100
AcDbEntity
  8
Ligature_space
  6
ByLayer
 62
  256
370
   -1
100
AcDbLine
 10
9.999999999999993
 20
-145
 11
4.999999999999993
 21
-145
  0
LINE
  5
B8
100
AcDbEntity
  8
Ligature_space
  6
ByLayer
 62
  256
370
   -1
100
AcDbLine
 10
-10.00000000000001
 20
-115
 11
-5.000000000000007
 21
-115
  0
LINE
  5
B9
100
AcDbEntity
  8
Ligature_space
  6
ByLayer
 62
  256
370
   -1
100
AcDbLine
 10
-10.00000000000001
 20
-125
 11
-5.000000000000007
 21
-125
  0
LINE
  5
BA
100
AcDbEntity
  8
Ligature_space
  6
ByLayer
 62
  256
370
   -1
100
AcDbLine
 10
-10.00000000000001
 20
-135
 11
-5.000000000000007
 21
-135
  0
LINE
  5
BB
100
AcDbEntity
  8
Ligature_space
  6
ByLayer
 62
  256
370
   -1
100
AcDbLine
 10
-10.00000000000001
 20
-145
 11
-5.000000000000007
 21
-145
  0
LINE
  5
BC
100
AcDbEntity
  8
character_limits
  6
ByLayer
 62
  256
370
   -1
100
AcDbLine
 10
-5.000000000000009
 20
-180
 11
-5.000000000000009
 21
-170
  0
LINE
  5
BD
100
AcDbEntity
  8
character_limits
  6
ByLayer
 62
  256
370
   -1
100
AcDbLine
 10
-5.000000000000009
 20
-170
 11
4.999999999999991
 21
-170
  0
LINE
  5
BE
100
AcDbEntity
  8
character_limits
  6
ByLayer
 62
  256
370
   -1
100
AcDbLine
 10
4.999999999999991
 20
-170
 11
4.999999999999991
 21
-180
  0
LINE
  5
BF
100
AcDbEntity
  8
character_limits
  6
ByLayer
 62
  256
370
   -1
100
AcDbLine
 10
4.999999999999991
 20
-180
 11
-5.000000000000009
 21
-180
  0
LINE
  5
C0
100
AcDbEntity
  8
character_limits
  6
ByLayer
 62
  256
370
   -1
100
AcDbLine
 10
-5.000000000000009
 20
-170
 11
-5.000000000000009
 21
-160
  0
LINE
  5
C1
100
AcDbEntity
  8
character_limits
  6
ByLayer
 62
  256
370
   -1
100
AcDbLine
 10
-5.000000000000009
 20
-160
 11
4.999999999999991
 21
-160
  0
LINE
  5
C2
100
AcDbEntity
  8
character_limits
  6
ByLayer
 62
  256
370
   -1
100
AcDbLine
 10
4.999999999999991
 20
-160
 11
4.999999999999991
 21
-170
  0
LINE
  5
C3
100
AcDbEntity
  8
character_limits
  6
ByLayer
 62
  256
370
   -1
100
AcDbLine
 10
-5.000000000000009
 20
-160
 11
-5.000000000000009
 21
-150
  0
LINE
  5
C4
100
AcDbEntity
  8
character_limits
  6
ByLayer
 62
  256
370
   -1
100
AcDbLine
 10
-5.000000000000009
 20
-150
 11
4.999999999999991
 21
-150
  0
LINE
  5
C5
100
AcDbEntity
  8
character_limits
  6
ByLayer
 62
  256
370
   -1
100
AcDbLine
 10
4.999999999999991
 20
-150
 11
4.999999999999991
 21
-160
  0
LINE
  5
C6
100
AcDbEntity
  8
Ligature_space
  6
ByLayer
 62
  256
370
   -1
100
AcDbLine
 10
9.999999999999991
 20
-150
 11
9.999999999999991
 21
-160
  0
LINE
  5
C7
100
AcDbEntity
  8
Ligature_space
  6
ByLayer
 62
  256
370
   -1
100
AcDbLine
 10
9.999999999999991
 20
-160
 11
9.999999999999991
 21
-170
  0
LINE
  5
C8
100
AcDbEntity
  8
Ligature_space
  6
ByLayer
 62
  256
370
   -1
100
AcDbLine
 10
9.999999999999991
 20
-170
 11
9.999999999999991
 21
-180
  0
LINE
  5
C9
100
AcDbEntity
  8
Ligature_space
  6
ByLayer
 62
  256
370
   -1
100
AcDbLine
 10
9.999999999999991
 20
-150
 11
4.999999999999991
 21
-150
  0
LINE
  5
CA
100
AcDbEntity
  8
Ligature_space
  6
ByLayer
 62
  256
370
   -1
100
AcDbLine
 10
9.999999999999991
 20
-160
 11
4.999999999999991
 21
-160
  0
LINE
  5
CB
100
AcDbEntity
  8
Ligature_space
  6
ByLayer
 62
  256
370
   -1
100
AcDbLine
 10
9.999999999999991
 20
-170
 11
4.999999999999991
 21
-170
  0
LINE
  5
CC
100
AcDbEntity
  8
Ligature_space
  6
ByLayer
 62
  256
370
   -1
100
AcDbLine
 10
9.999999999999991
 20
-180
 11
4.999999999999991
 21
-180
  0
LINE
  5
CD
100
AcDbEntity
  8
Ligature_space
  6
ByLayer
 62
  256
370
   -1
100
AcDbLine
 10
-10.00000000000001
 20
-150
 11
-5.000000000000009
 21
-150
  0
LINE
  5
CE
100
AcDbEntity
  8
Ligature_space
  6
ByLayer
 62
  256
370
   -1
100
AcDbLine
 10
-10.00000000000001
 20
-160
 11
-5.000000000000009
 21
-160
  0
LINE
  5
CF
100
AcDbEntity
  8
Ligature_space
  6
ByLayer
 62
  256
370
   -1
100
AcDbLine
 10
-10.00000000000001
 20
-170
 11
-5.000000000000009
 21
-170
  0
LINE
  5
D0
100
AcDbEntity
  8
Ligature_space
  6
ByLayer
 62
  256
370
   -1
100
AcDbLine
 10
-10.00000000000001
 20
-180
 11
-5.000000000000009
 21
-180
  0
LINE
  5
D1
100
AcDbEntity
  8
character_limits
  6
ByLayer
 62
  256
370
   -1
100
AcDbLine
 10
-5.000000000000011
 20
-215
 11
-5.000000000000011
 21
-205
  0
LINE
  5
D2
100
AcDbEntity
  8
character_limits
  6
ByLayer
 62
  256
370
   -1
100
AcDbLine
 10
-5.000000000000011
 20
-205
 11
4.999999999999989
 21
-205
  0
LINE
  5
D3
100
AcDbEntity
  8
character_limits
  6
ByLayer
 62
  256
370
   -1
100
AcDbLine
 10
4.999999999999989
 20
-205
 11
4.999999999999989
 21
-215
  0
LINE
  5
D4
100
AcDbEntity
  8
character_limits
  6
ByLayer
 62
  256
370
   -1
100
AcDbLine
 10
4.999999999999989
 20
-215
 11
-5.000000000000011
 21
-215
  0
LINE
  5
D5
100
AcDbEntity
  8
character_limits
  6
ByLayer
 62
  256
370
   -1
100
AcDbLine
 10
-5.000000000000011
 20
-205
 11
-5.000000000000011
 21
-195
  0
LINE
  5
D6
100
AcDbEntity
  8
character_limits
  6
ByLayer
 62
  256
370
   -1
100
AcDbLine
 10
-5.000000000000011
 20
-195
 11
4.999999999999989
 21
-195
  0
LINE
  5
D7
100
AcDbEntity
  8
character_limits
  6
ByLayer
 62
  256
370
   -1
100
AcDbLine
 10
4.999999999999989
 20
-195
 11
4.999999999999989
 21
-205
  0
LINE
  5
D8
100
AcDbEntity
  8
character_limits
  6
ByLayer
 62
  256
370
   -1
100
AcDbLine
 10
-5.000000000000011
 20
-195
 11
-5.000000000000011
 21
-185
  0
LINE
  5
D9
100
AcDbEntity
  8
character_limits
  6
ByLayer
 62
  256
370
   -1
100
AcDbLine
 10
-5.000000000000011
 20
-185
 11
4.999999999999989
 21
-185
  0
LINE
  5
DA
100
AcDbEntity
  8
character_limits
  6
ByLayer
 62
  256
370
   -1
100
AcDbLine
 10
4.999999999999989
 20
-185
 11
4.999999999999989
 21
-195
  0
LINE
  5
DB
100
AcDbEntity
  8
Ligature_space
  6
ByLayer
 62
  256
370
   -1
100
AcDbLine
 10
9.999999999999989
 20
-185
 11
9.999999999999989
 21
-195
  0
LINE
  5
DC
100
AcDbEntity
  8
Ligature_space
  6
ByLayer
 62
  256
370
   -1
100
AcDbLine
 10
9.999999999999989
 20
-195
 11
9.999999999999989
 21
-205
  0
LINE
  5
DD
100
AcDbEntity
  8
Ligature_space
  6
ByLayer
 62
  256
370
   -1
100
AcDbLine
 10
9.999999999999989
 20
-205
 11
9.999999999999989
 21
-215
  0
LINE
  5
DE
100
AcDbEntity
  8
Ligature_space
  6
ByLayer
 62
  256
370
   -1
100
AcDbLine
 10
9.999999999999989
 20
-185
 11
4.999999999999989
 21
-185
  0
LINE
  5
DF
100
AcDbEntity
  8
Ligature_space
  6
ByLayer
 62
  256
370
   -1
100
AcDbLine
 10
9.999999999999989
 20
-195
 11
4.999999999999989
 21
-195
  0
LINE
  5
E0
100
AcDbEntity
  8
Ligature_space
  6
ByLayer
 62
  256
370
   -1
100
AcDbLine
 10
9.999999999999989
 20
-205
 11
4.999999999999989
 21
-205
  0
LINE
  5
E1
100
AcDbEntity
  8
Ligature_space
  6
ByLayer
 62
  256
370
   -1
100
AcDbLine
 10
9.999999999999989
 20
-215
 11
4.999999999999989
 21
-215
  0
LINE
  5
E2
100
AcDbEntity
  8
Ligature_space
  6
ByLayer
 62
  256
370
   -1
100
AcDbLine
 10
-10.00000000000001
 20
-185
 11
-5.000000000000011
 21
-185
  0
LINE
  5
E3
100
AcDbEntity
  8
Ligature_space
  6
ByLayer
 62
  256
370
   -1
100
AcDbLine
 10
-10.00000000000001
 20
-195
 11
-5.000000000000011
 21
-195
  0
LINE
  5
E4
100
AcDbEntity
  8
Ligature_space
  6
ByLayer
 62
  256
370
   -1
100
AcDbLine
 10
-10.00000000000001
 20
-205
 11
-5.000000000000011
 21
-205
  0
LINE
  5
E5
100
AcDbEntity
  8
Ligature_space
  6
ByLayer
 62
  256
370
   -1
100
AcDbLine
 10
-10.00000000000001
 20
-215
 11
-5.000000000000011
 21
-215
  0
LINE
  5
E6
100
AcDbEntity
  8
character_limits
  6
ByLayer
 62
  256
370
   -1
100
AcDbLine
 10
-5.000000000000012
 20
-250
 11
-5.000000000000012
 21
-240
  0
LINE
  5
E7
100
AcDbEntity
  8
character_limits
  6
ByLayer
 62
  256
370
   -1
100
AcDbLine
 10
-5.000000000000012
 20
-240
 11
4.999999999999988
 21
-240
  0
LINE
  5
E8
100
AcDbEntity
  8
character_limits
  6
ByLayer
 62
  256
370
   -1
100
AcDbLine
 10
4.999999999999988
 20
-240
 11
4.999999999999988
 21
-250
  0
LINE
  5
E9
100
AcDbEntity
  8
character_limits
  6
ByLayer
 62
  256
370
   -1
100
AcDbLine
 10
4.999999999999988
 20
-250
 11
-5.000000000000012
 21
-250
  0
LINE
  5
EA
100
AcDbEntity
  8
character_limits
  6
ByLayer
 62
  256
370
   -1
100
AcDbLine
 10
-5.000000000000012
 20
-240
 11
-5.000000000000012
 21
-230
  0
LINE
  5
EB
100
AcDbEntity
  8
character_limits
  6
ByLayer
 62
  256
370
   -1
100
AcDbLine
 10
-5.000000000000012
 20
-230
 11
4.999999999999988
 21
-230
  0
LINE
  5
EC
100
AcDbEntity
  8
character_limits
  6
ByLayer
 62
  256
370
   -1
100
AcDbLine
 10
4.999999999999988
 20
-230
 11
4.999999999999988
 21
-240
  0
LINE
  5
ED
100
AcDbEntity
  8
character_limits
  6
ByLayer
 62
  256
370
   -1
100
AcDbLine
 10
-5.000000000000012
 20
-230
 11
-5.000000000000012
 21
-220
  0
LINE
  5
EE
100
AcDbEntity
  8
character_limits
  6
ByLayer
 62
  256
370
   -1
100
AcDbLine
 10
-5.000000000000012
 20
-220
 11
4.999999999999988
 21
-220
  0
LINE
  5
EF
100
AcDbEntity
  8
character_limits
  6
ByLayer
 62
  256
370
   -1
100
AcDbLine
 10
4.999999999999988
 20
-220
 11
4.999999999999988
 21
-230
  0
LINE
  5
F0
100
AcDbEntity
  8
Ligature_space
  6
ByLayer
 62
  256
370
   -1
100
AcDbLine
 10
9.999999999999988
 20
-220
 11
9.999999999999988
 21
-230
  0
LINE
  5
F1
100
AcDbEntity
  8
Ligature_space
  6
ByLayer
 62
  256
370
   -1
100
AcDbLine
 10
9.999999999999988
 20
-230
 11
9.999999999999988
 21
-240
  0
LINE
  5
F2
100
AcDbEntity
  8
Ligature_space
  6
ByLayer
 62
  256
370
   -1
100
AcDbLine
 10
9.999999999999988
 20
-240
 11
9.999999999999988
 21
-250
  0
LINE
  5
F3
100
AcDbEntity
  8
Ligature_space
  6
ByLayer
 62
  256
370
   -1
100
AcDbLine
 10
9.999999999999988
 20
-220
 11
4.999999999999988
 21
-220
  0
LINE
  5
F4
100
AcDbEntity
  8
Ligature_space
  6
ByLayer
 62
  256
370
   -1
100
AcDbLine
 10
9.999999999999988
 20
-230
 11
4.999999999999988
 21
-230
  0
LINE
  5
F5
100
AcDbEntity
  8
Ligature_space
  6
ByLayer
 62
  256
370
   -1
100
AcDbLine
 10
9.999999999999988
 20
-240
 11
4.999999999999988
 21
-240
  0
LINE
  5
F6
100
AcDbEntity
  8
Ligature_space
  6
ByLayer
 62
  256
370
   -1
100
AcDbLine
 10
9.999999999999988
 20
-250
 11
4.999999999999988
 21
-250
  0
LINE
  5
F7
100
AcDbEntity
  8
Ligature_space
  6
ByLayer
 62
  256
370
   -1
100
AcDbLine
 10
-10.00000000000001
 20
-220
 11
-5.000000000000012
 21
-220
  0
LINE
  5
F8
100
AcDbEntity
  8
Ligature_space
  6
ByLayer
 62
  256
370
   -1
100
AcDbLine
 10
-10.00000000000001
 20
-230
 11
-5.000000000000012
 21
-230
  0
LINE
  5
F9
100
AcDbEntity
  8
Ligature_space
  6
ByLayer
 62
  256
370
   -1
100
AcDbLine
 10
-10.00000000000001
 20
-240
 11
-5.000000000000012
 21
-240
  0
LINE
  5
FA
100
AcDbEntity
  8
Ligature_space
  6
ByLayer
 62
  256
370
   -1
100
AcDbLine
 10
-10.00000000000001
 20
-250
 11
-5.000000000000012
 21
-250
  0
LINE
  5
FB
100
AcDbEntity
  8
character_limits
  6
ByLayer
 62
  256
370
   -1
100
AcDbLine
 10
-5.000000000000014
 20
-285
 11
-5.000000000000014
 21
-275
  0
LINE
  5
FC
100
AcDbEntity
  8
character_limits
  6
ByLayer
 62
  256
370
   -1
100
AcDbLine
 10
-5.000000000000014
 20
-275
 11
4.999999999999986
 21
-275
  0
LINE
  5
FD
100
AcDbEntity
  8
character_limits
  6
ByLayer
 62
  256
370
   -1
100
AcDbLine
 10
4.999999999999986
 20
-275
 11
4.999999999999986
 21
-285
  0
LINE
  5
FE
100
AcDbEntity
  8
character_limits
  6
ByLayer
 62
  256
370
   -1
100
AcDbLine
 10
4.999999999999986
 20
-285
 11
-5.000000000000014
 21
-285
  0
LINE
  5
FF
100
AcDbEntity
  8
character_limits
  6
ByLayer
 62
  256
370
   -1
100
AcDbLine
 10
-5.000000000000014
 20
-275
 11
-5.000000000000014
 21
-265
  0
LINE
  5
100
100
AcDbEntity
  8
character_limits
  6
ByLayer
 62
  256
370
   -1
100
AcDbLine
 10
-5.000000000000014
 20
-265
 11
4.999999999999986
 21
-265
  0
LINE
  5
101
100
AcDbEntity
  8
character_limits
  6
ByLayer
 62
  256
370
   -1
100
AcDbLine
 10
4.999999999999986
 20
-265
 11
4.999999999999986
 21
-275
  0
LINE
  5
102
100
AcDbEntity
  8
character_limits
  6
ByLayer
 62
  256
370
   -1
100
AcDbLine
 10
-5.000000000000014
 20
-265
 11
-5.000000000000014
 21
-255
  0
LINE
  5
103
100
AcDbEntity
  8
character_limits
  6
ByLayer
 62
  256
370
   -1
100
AcDbLine
 10
-5.000000000000014
 20
-255
 11
4.999999999999986
 21
-255
  0
LINE
  5
104
100
AcDbEntity
  8
character_limits
  6
ByLayer
 62
  256
370
   -1
100
AcDbLine
 10
4.999999999999986
 20
-255
 11
4.999999999999986
 21
-265
  0
LINE
  5
105
100
AcDbEntity
  8
Ligature_space
  6
ByLayer
 62
  256
370
   -1
100
AcDbLine
 10
9.999999999999986
 20
-255
 11
9.999999999999986
 21
-265
  0
LINE
  5
106
100
AcDbEntity
  8
Ligature_space
  6
ByLayer
 62
  256
370
   -1
100
AcDbLine
 10
9.999999999999986
 20
-265
 11
9.999999999999986
 21
-275
  0
LINE
  5
107
100
AcDbEntity
  8
Ligature_space
  6
ByLayer
 62
  256
370
   -1
100
AcDbLine
 10
9.999999999999986
 20
-275
 11
9.999999999999986
 21
-285
  0
LINE
  5
108
100
AcDbEntity
  8
Ligature_space
  6
ByLayer
 62
  256
370
   -1
100
AcDbLine
 10
9.999999999999986
 20
-255
 11
4.999999999999986
 21
-255
  0
LINE
  5
109
100
AcDbEntity
  8
Ligature_space
  6
ByLayer
 62
  256
370
   -1
100
AcDbLine
 10
9.999999999999986
 20
-265
 11
4.999999999999986
 21
-265
  0
LINE
  5
10A
100
AcDbEntity
  8
Ligature_space
  6
ByLayer
 62
  256
370
   -1
100
AcDbLine
 10
9.999999999999986
 20
-275
 11
4.999999999999986
 21
-275
  0
LINE
  5
10B
100
AcDbEntity
  8
Ligature_space
  6
ByLayer
 62
  256
370
   -1
100
AcDbLine
 10
9.999999999999986
 20
-285
 11
4.999999999999986
 21
-285
  0
LINE
  5
10C
100
AcDbEntity
  8
Ligature_space
  6
ByLayer
 62
  256
370
   -1
100
AcDbLine
 10
-10.00000000000001
 20
-255
 11
-5.000000000000014
 21
-255
  0
LINE
  5
10D
100
AcDbEntity
  8
Ligature_space
  6
ByLayer
 62
  256
370
   -1
100
AcDbLine
 10
-10.00000000000001
 20
-265
 11
-5.000000000000014
 21
-265
  0
LINE
  5
10E
100
AcDbEntity
  8
Ligature_space
  6
ByLayer
 62
  256
370
   -1
100
AcDbLine
 10
-10.00000000000001
 20
-275
 11
-5.000000000000014
 21
-275
  0
LINE
  5
10F
100
AcDbEntity
  8
Ligature_space
  6
ByLayer
 62
  256
370
   -1
100
AcDbLine
 10
-10.00000000000001
 20
-285
 11
-5.000000000000014
 21
-285
  0
LINE
  5
110
100
AcDbEntity
  8
character_limits
  6
ByLayer
 62
  256
370
   -1
100
AcDbLine
 10
15
 20
-5
 11
15
 21
5
  0
LINE
  5
111
100
AcDbEntity
  8
character_limits
  6
ByLayer
 62
  256
370
   -1
100
AcDbLine
 10
15
 20
5
 11
25
 21
5
  0
LINE
  5
112
100
AcDbEntity
  8
character_limits
  6
ByLayer
 62
  256
370
   -1
100
AcDbLine
 10
25
 20
5
 11
25
 21
-5
  0
LINE
  5
113
100
AcDbEntity
  8
character_limits
  6
ByLayer
 62
  256
370
   -1
100
AcDbLine
 10
25
 20
-5
 11
15
 21
-5
  0
LINE
  5
114
100
AcDbEntity
  8
character_limits
  6
ByLayer
 62
  256
370
   -1
100
AcDbLine
 10
15
 20
5
 11
15
 21
15
  0
LINE
  5
115
100
AcDbEntity
  8
character_limits
  6
ByLayer
 62
  256
370
   -1
100
AcDbLine
 10
15
 20
15
 11
25
 21
15
  0
LINE
  5
116
100
AcDbEntity
  8
character_limits
  6
ByLayer
 62
  256
370
   -1
100
AcDbLine
 10
25
 20
15
 11
25
 21
5
  0
LINE
  5
117
100
AcDbEntity
  8
character_limits
  6
ByLayer
 62
  256
370
   -1
100
AcDbLine
 10
15
 20
15
 11
15
 21
25
  0
LINE
  5
118
100
AcDbEntity
  8
character_limits
  6
ByLayer
 62
  256
370
   -1
100
AcDbLine
 10
15
 20
25
 11
25
 21
25
  0
LINE
  5
119
100
AcDbEntity
  8
character_limits
  6
ByLayer
 62
  256
370
   -1
100
AcDbLine
 10
25
 20
25
 11
25
 21
15
  0
LINE
  5
11A
100
AcDbEntity
  8
Ligature_space
  6
ByLayer
 62
  256
370
   -1
100
AcDbLine
 10
30
 20
25
 11
30
 21
15
  0
LINE
  5
11B
100
AcDbEntity
  8
Ligature_space
  6
ByLayer
 62
  256
370
   -1
100
AcDbLine
 10
30
 20
15
 11
30
 21
4.999999999999999
  0
LINE
  5
11C
100
AcDbEntity
  8
Ligature_space
  6
ByLayer
 62
  256
370
   -1
100
AcDbLine
 10
30
 20
4.999999999999999
 11
30
 21
-5.000000000000001
  0
LINE
  5
11D
100
AcDbEntity
  8
Ligature_space
  6
ByLayer
 62
  256
370
   -1
100
AcDbLine
 10
30
 20
25
 11
25
 21
25
  0
LINE
  5
11E
100
AcDbEntity
  8
Ligature_space
  6
ByLayer
 62
  256
370
   -1
100
AcDbLine
 10
30
 20
15
 11
25
 21
15
  0
LINE
  5
11F
100
AcDbEntity
  8
Ligature_space
  6
ByLayer
 62
  256
370
   -1
100
AcDbLine
 10
30
 20
4.999999999999999
 11
25
 21
5
  0
LINE
  5
120
100
AcDbEntity
  8
Ligature_space
  6
ByLayer
 62
  256
370
   -1
100
AcDbLine
 10
30
 20
-5.000000000000001
 11
25
 21
-5
  0
LINE
  5
121
100
AcDbEntity
  8
Ligature_space
  6
ByLayer
 62
  256
370
   -1
100
AcDbLine
 10
10
 20
25
 11
15
 21
25
  0
LINE
  5
122
100
AcDbEntity
  8
Ligature_space
  6
ByLayer
 62
  256
370
   -1
100
AcDbLine
 10
10
 20
15
 11
15
 21
15
  0
LINE
  5
123
100
AcDbEntity
  8
Ligature_space
  6
ByLayer
 62
  256
370
   -1
100
AcDbLine
 10
10
 20
5.000000000000001
 11
15
 21
5
  0
LINE
  5
124
100
AcDbEntity
  8
Ligature_space
  6
ByLayer
 62
  256
370
   -1
100
AcDbLine
 10
10
 20
-4.999999999999999
 11
15
 21
-5
  0
LINE
  5
125
100
AcDbEntity
  8
character_limits
  6
ByLayer
 62
  256
370
   -1
100
AcDbLine
 10
15
 20
-40
 11
15
 21
-30
  0
LINE
  5
126
100
AcDbEntity
  8
character_limits
  6
ByLayer
 62
  256
370
   -1
100
AcDbLine
 10
15
 20
-30
 11
25
 21
-30
  0
LINE
  5
127
100
AcDbEntity
  8
character_limits
  6
ByLayer
 62
  256
370
   -1
100
AcDbLine
 10
25
 20
-30
 11
25
 21
-40
  0
LINE
  5
128
100
AcDbEntity
  8
character_limits
  6
ByLayer
 62
  256
370
   -1
100
AcDbLine
 10
25
 20
-40
 11
15
 21
-40
  0
LINE
  5
129
100
AcDbEntity
  8
character_limits
  6
ByLayer
 62
  256
370
   -1
100
AcDbLine
 10
15
 20
-30
 11
15
 21
-20
  0
LINE
  5
12A
100
AcDbEntity
  8
character_limits
  6
ByLayer
 62
  256
370
   -1
100
AcDbLine
 10
15
 20
-20
 11
25
 21
-20
  0
LINE
  5
12B
100
AcDbEntity
  8
character_limits
  6
ByLayer
 62
  256
370
   -1
100
AcDbLine
 10
25
 20
-20
 11
25
 21
-30
  0
LINE
  5
12C
100
AcDbEntity
  8
character_limits
  6
ByLayer
 62
  256
370
   -1
100
AcDbLine
 10
15
 20
-20
 11
15
 21
-10
  0
LINE
  5
12D
100
AcDbEntity
  8
character_limits
  6
ByLayer
 62
  256
370
   -1
100
AcDbLine
 10
15
 20
-10
 11
25
 21
-10
  0
LINE
  5
12E
100
AcDbEntity
  8
character_limits
  6
ByLayer
 62
  256
370
   -1
100
AcDbLine
 10
25
 20
-10
 11
25
 21
-20
  0
LINE
  5
12F
100
AcDbEntity
  8
Ligature_space
  6
ByLayer
 62
  256
370
   -1
100
AcDbLine
 10
30
 20
-10
 11
30
 21
-20
  0
LINE
  5
130
100
AcDbEntity
  8
Ligature_space
  6
ByLayer
 62
  256
370
   -1
100
AcDbLine
 10
30
 20
-20
 11
30
 21
-30
  0
LINE
  5
131
100
AcDbEntity
  8
Ligature_space
  6
ByLayer
 62
  256
370
   -1
100
AcDbLine
 10
30
 20
-30
 11
30
 21
-40
  0
LINE
  5
132
100
AcDbEntity
  8
Ligature_space
  6
ByLayer
 62
  256
370
   -1
100
AcDbLine
 10
30
 20
-10
 11
25
 21
-10
  0
LINE
  5
133
100
AcDbEntity
  8
Ligature_space
  6
ByLayer
 62
  256
370
   -1
100
AcDbLine
 10
30
 20
-20
 11
25
 21
-20
  0
LINE
  5
134
100
AcDbEntity
  8
Ligature_space
  6
ByLayer
 62
  256
370
   -1
100
AcDbLine
 10
30
 20
-30
 11
25
 21
-30
  0
LINE
  5
135
100
AcDbEntity
  8
Ligature_space
  6
ByLayer
 62
  256
370
   -1
100
AcDbLine
 10
30
 20
-40
 11
25
 21
-40
  0
LINE
  5
136
100
AcDbEntity
  8
Ligature_space
  6
ByLayer
 62
  256
370
   -1
100
AcDbLine
 10
9.999999999999998
 20
-10
 11
15
 21
-10
  0
LINE
  5
137
100
AcDbEntity
  8
Ligature_space
  6
ByLayer
 62
  256
370
   -1
100
AcDbLine
 10
9.999999999999998
 20
-20
 11
15
 21
-20
  0
LINE
  5
138
100
AcDbEntity
  8
Ligature_space
  6
ByLayer
 62
  256
370
   -1
100
AcDbLine
 10
9.999999999999998
 20
-30
 11
15
 21
-30
  0
LINE
  5
139
100
AcDbEntity
  8
Ligature_space
  6
ByLayer
 62
  256
370
   -1
100
AcDbLine
 10
9.999999999999998
 20
-40
 11
15
 21
-40
  0
LINE
  5
13A
100
AcDbEntity
  8
character_limits
  6
ByLayer
 62
  256
370
   -1
100
AcDbLine
 10
15
 20
-75
 11
15
 21
-65
  0
LINE
  5
13B
100
AcDbEntity
  8
character_limits
  6
ByLayer
 62
  256
370
   -1
100
AcDbLine
 10
15
 20
-65
 11
25
 21
-65
  0
LINE
  5
13C
100
AcDbEntity
  8
character_limits
  6
ByLayer
 62
  256
370
   -1
100
AcDbLine
 10
25
 20
-65
 11
25
 21
-75
  0
LINE
  5
13D
100
AcDbEntity
  8
character_limits
  6
ByLayer
 62
  256
370
   -1
100
AcDbLine
 10
25
 20
-75
 11
15
 21
-75
  0
LINE
  5
13E
100
AcDbEntity
  8
character_limits
  6
ByLayer
 62
  256
370
   -1
100
AcDbLine
 10
15
 20
-65
 11
15
 21
-55
  0
LINE
  5
13F
100
AcDbEntity
  8
character_limits
  6
ByLayer
 62
  256
370
   -1
100
AcDbLine
 10
15
 20
-55
 11
25
 21
-55
  0
LINE
  5
140
100
AcDbEntity
  8
character_limits
  6
ByLayer
 62
  256
370
   -1
100
AcDbLine
 10
25
 20
-55
 11
25
 21
-65
  0
LINE
  5
141
100
AcDbEntity
  8
character_limits
  6
ByLayer
 62
  256
370
   -1
100
AcDbLine
 10
15
 20
-55
 11
15
 21
-45
  0
LINE
  5
142
100
AcDbEntity
  8
character_limits
  6
ByLayer
 62
  256
370
   -1
100
AcDbLine
 10
15
 20
-45
 11
25
 21
-45
  0
LINE
  5
143
100
AcDbEntity
  8
character_limits
  6
ByLayer
 62
  256
370
   -1
100
AcDbLine
 10
25
 20
-45
 11
25
 21
-55
  0
LINE
  5
144
100
AcDbEntity
  8
Ligature_space
  6
ByLayer
 62
  256
370
   -1
100
AcDbLine
 10
30
 20
-45
 11
30
 21
-55
  0
LINE
  5
145
100
AcDbEntity
  8
Ligature_space
  6
ByLayer
 62
  256
370
   -1
100
AcDbLine
 10
30
 20
-55
 11
30
 21
-65
  0
LINE
  5
146
100
AcDbEntity
  8
Ligature_space
  6
ByLayer
 62
  256
370
   -1
100
AcDbLine
 10
30
 20
-65
 11
30
 21
-75
  0
LINE
  5
147
100
AcDbEntity
  8
Ligature_space
  6
ByLayer
 62
  256
370
   -1
100
AcDbLine
 10
30
 20
-45
 11
25
 21
-45
  0
LINE
  5
148
100
AcDbEntity
  8
Ligature_space
  6
ByLayer
 62
  256
370
   -1
100
AcDbLine
 10
30
 20
-55
 11
25
 21
-55
  0
LINE
  5
149
100
AcDbEntity
  8
Ligature_space
  6
ByLayer
 62
  256
370
   -1
100
AcDbLine
 10
30
 20
-65
 11
25
 21
-65
  0
LINE
  5
14A
100
AcDbEntity
  8
Ligature_space
  6
ByLayer
 62
  256
370
   -1
100
AcDbLine
 10
30
 20
-75
 11
25
 21
-75
  0
LINE
  5
14B
100
AcDbEntity
  8
Ligature_space
  6
ByLayer
 62
  256
370
   -1
100
AcDbLine
 10
9.999999999999996
 20
-45
 11
15
 21
-45
  0
LINE
  5
14C
100
AcDbEntity
  8
Ligature_space
  6
ByLayer
 62
  256
370
   -1
100
AcDbLine
 10
9.999999999999996
 20
-55
 11
15
 21
-55
  0
LINE
  5
14D
100
AcDbEntity
  8
Ligature_space
  6
ByLayer
 62
  256
370
   -1
100
AcDbLine
 10
9.999999999999996
 20
-65
 11
15
 21
-65
  0
LINE
  5
14E
100
AcDbEntity
  8
Ligature_space
  6
ByLayer
 62
  256
370
   -1
100
AcDbLine
 10
9.999999999999996
 20
-75
 11
15
 21
-75
  0
LINE
  5
14F
100
AcDbEntity
  8
character_limits
  6
ByLayer
 62
  256
370
   -1
100
AcDbLine
 10
14.99999999999999
 20
-110
 11
14.99999999999999
 21
-100
  0
LINE
  5
150
100
AcDbEntity
  8
character_limits
  6
ByLayer
 62
  256
370
   -1
100
AcDbLine
 10
14.99999999999999
 20
-100
 11
24.99999999999999
 21
-100
  0
LINE
  5
151
100
AcDbEntity
  8
character_limits
  6
ByLayer
 62
  256
370
   -1
100
AcDbLine
 10
24.99999999999999
 20
-100
 11
24.99999999999999
 21
-110
  0
LINE
  5
152
100
AcDbEntity
  8
character_limits
  6
ByLayer
 62
  256
370
   -1
100
AcDbLine
 10
24.99999999999999
 20
-110
 11
14.99999999999999
 21
-110
  0
LINE
  5
153
100
AcDbEntity
  8
character_limits
  6
ByLayer
 62
  256
370
   -1
100
AcDbLine
 10
14.99999999999999
 20
-100
 11
14.99999999999999
 21
-90
  0
LINE
  5
154
100
AcDbEntity
  8
character_limits
  6
ByLayer
 62
  256
370
   -1
100
AcDbLine
 10
14.99999999999999
 20
-90
 11
24.99999999999999
 21
-90
  0
LINE
  5
155
100
AcDbEntity
  8
character_limits
  6
ByLayer
 62
  256
370
   -1
100
AcDbLine
 10
24.99999999999999
 20
-90
 11
24.99999999999999
 21
-100
  0
LINE
  5
156
100
AcDbEntity
  8
character_limits
  6
ByLayer
 62
  256
370
   -1
100
AcDbLine
 10
14.99999999999999
 20
-90
 11
14.99999999999999
 21
-80
  0
LINE
  5
157
100
AcDbEntity
  8
character_limits
  6
ByLayer
 62
  256
370
   -1
100
AcDbLine
 10
14.99999999999999
 20
-80
 11
24.99999999999999
 21
-80
  0
LINE
  5
158
100
AcDbEntity
  8
character_limits
  6
ByLayer
 62
  256
370
   -1
100
AcDbLine
 10
24.99999999999999
 20
-80
 11
24.99999999999999
 21
-90
  0
LINE
  5
159
100
AcDbEntity
  8
Ligature_space
  6
ByLayer
 62
  256
370
   -1
100
AcDbLine
 10
29.99999999999999
 20
-80
 11
29.99999999999999
 21
-90
  0
LINE
  5
15A
100
AcDbEntity
  8
Ligature_space
  6
ByLayer
 62
  256
370
   -1
100
AcDbLine
 10
29.99999999999999
 20
-90
 11
29.99999999999999
 21
-100
  0
LINE
  5
15B
100
AcDbEntity
  8
Ligature_space
  6
ByLayer
 62
  256
370
   -1
100
AcDbLine
 10
29.99999999999999
 20
-100
 11
29.99999999999999
 21
-110
  0
LINE
  5
15C
100
AcDbEntity
  8
Ligature_space
  6
ByLayer
 62
  256
370
   -1
100
AcDbLine
 10
29.99999999999999
 20
-80
 11
24.99999999999999
 21
-80
  0
LINE
  5
15D
100
AcDbEntity
  8
Ligature_space
  6
ByLayer
 62
  256
370
   -1
100
AcDbLine
 10
29.99999999999999
 20
-90
 11
24.99999999999999
 21
-90
  0
LINE
  5
15E
100
AcDbEntity
  8
Ligature_space
  6
ByLayer
 62
  256
370
   -1
100
AcDbLine
 10
29.99999999999999
 20
-100
 11
24.99999999999999
 21
-100
  0
LINE
  5
15F
100
AcDbEntity
  8
Ligature_space
  6
ByLayer
 62
  256
370
   -1
100
AcDbLine
 10
29.99999999999999
 20
-110
 11
24.99999999999999
 21
-110
  0
LINE
  5
160
100
AcDbEntity
  8
Ligature_space
  6
ByLayer
 62
  256
370
   -1
100
AcDbLine
 10
9.999999999999995
 20
-80
 11
14.99999999999999
 21
-80
  0
LINE
  5
161
100
AcDbEntity
  8
Ligature_space
  6
ByLayer
 62
  256
370
   -1
100
AcDbLine
 10
9.999999999999995
 20
-90
 11
14.99999999999999
 21
-90
  0
LINE
  5
162
100
AcDbEntity
  8
Ligature_space
  6
ByLayer
 62
  256
370
   -1
100
AcDbLine
 10
9.999999999999995
 20
-100
 11
14.99999999999999
 21
-100
  0
LINE
  5
163
100
AcDbEntity
  8
Ligature_space
  6
ByLayer
 62
  256
370
   -1
100
AcDbLine
 10
9.999999999999995
 20
-110
 11
14.99999999999999
 21
-110
  0
LINE
  5
164
100
AcDbEntity
  8
character_limits
  6
ByLayer
 62
  256
370
   -1
100
AcDbLine
 10
14.99999999999999
 20
-145
 11
14.99999999999999
 21
-135
  0
LINE
  5
165
100
AcDbEntity
  8
character_limits
  6
ByLayer
 62
  256
370
   -1
100
AcDbLine
 10
14.99999999999999
 20
-135
 11
24.99999999999999
 21
-135
  0
LINE
  5
166
100
AcDbEntity
  8
character_limits
  6
ByLayer
 62
  256
370
   -1
100
AcDbLine
 10
24.99999999999999
 20
-135
 11
24.99999999999999
 21
-145
  0
LINE
  5
167
100
AcDbEntity
  8
character_limits
  6
ByLayer
 62
  256
370
   -1
100
AcDbLine
 10
24.99999999999999
 20
-145
 11
14.99999999999999
 21
-145
  0
LINE
  5
168
100
AcDbEntity
  8
character_limits
  6
ByLayer
 62
  256
370
   -1
100
AcDbLine
 10
14.99999999999999
 20
-135
 11
14.99999999999999
 21
-125
  0
LINE
  5
169
100
AcDbEntity
  8
character_limits
  6
ByLayer
 62
  256
370
   -1
100
AcDbLine
 10
14.99999999999999
 20
-125
 11
24.99999999999999
 21
-125
  0
LINE
  5
16A
100
AcDbEntity
  8
character_limits
  6
ByLayer
 62
  256
370
   -1
100
AcDbLine
 10
24.99999999999999
 20
-125
 11
24.99999999999999
 21
-135
  0
LINE
  5
16B
100
AcDbEntity
  8
character_limits
  6
ByLayer
 62
  256
370
   -1
100
AcDbLine
 10
14.99999999999999
 20
-125
 11
14.99999999999999
 21
-115
  0
LINE
  5
16C
100
AcDbEntity
  8
character_limits
  6
ByLayer
 62
  256
370
   -1
100
AcDbLine
 10
14.99999999999999
 20
-115
 11
24.99999999999999
 21
-115
  0
LINE
  5
16D
100
AcDbEntity
  8
character_limits
  6
ByLayer
 62
  256
370
   -1
100
AcDbLine
 10
24.99999999999999
 20
-115
 11
24.99999999999999
 21
-125
  0
LINE
  5
16E
100
AcDbEntity
  8
Ligature_space
  6
ByLayer
 62
  256
370
   -1
100
AcDbLine
 10
29.99999999999999
 20
-115
 11
29.99999999999999
 21
-125
  0
LINE
  5
16F
100
AcDbEntity
  8
Ligature_space
  6
ByLayer
 62
  256
370
   -1
100
AcDbLine
 10
29.99999999999999
 20
-125
 11
29.99999999999999
 21
-135
  0
LINE
  5
170
100
AcDbEntity
  8
Ligature_space
  6
ByLayer
 62
  256
370
   -1
100
AcDbLine
 10
29.99999999999999
 20
-135
 11
29.99999999999999
 21
-145
  0
LINE
  5
171
100
AcDbEntity
  8
Ligature_space
  6
ByLayer
 62
  256
370
   -1
100
AcDbLine
 10
29.99999999999999
 20
-115
 11
24.99999999999999
 21
-115
  0
LINE
  5
172
100
AcDbEntity
  8
Ligature_space
  6
ByLayer
 62
  256
370
   -1
100
AcDbLine
 10
29.99999999999999
 20
-125
 11
24.99999999999999
 21
-125
  0
LINE
  5
173
100
AcDbEntity
  8
Ligature_space
  6
ByLayer
 62
  256
370
   -1
100
AcDbLine
 10
29.99999999999999
 20
-135
 11
24.99999999999999
 21
-135
  0
LINE
  5
174
100
AcDbEntity
  8
Ligature_space
  6
ByLayer
 62
  256
370
   -1
100
AcDbLine
 10
29.99999999999999
 20
-145
 11
24.99999999999999
 21
-145
  0
LINE
  5
175
100
AcDbEntity
  8
Ligature_space
  6
ByLayer
 62
  256
370
   -1
100
AcDbLine
 10
9.999999999999993
 20
-115
 11
14.99999999999999
 21
-115
  0
LINE
  5
176
100
AcDbEntity
  8
Ligature_space
  6
ByLayer
 62
  256
370
   -1
100
AcDbLine
 10
9.999999999999993
 20
-125
 11
14.99999999999999
 21
-125
  0
LINE
  5
177
100
AcDbEntity
  8
Ligature_space
  6
ByLayer
 62
  256
370
   -1
100
AcDbLine
 10
9.999999999999993
 20
-135
 11
14.99999999999999
 21
-135
  0
LINE
  5
178
100
AcDbEntity
  8
Ligature_space
  6
ByLayer
 62
  256
370
   -1
100
AcDbLine
 10
9.999999999999993
 20
-145
 11
14.99999999999999
 21
-145
  0
LINE
  5
179
100
AcDbEntity
  8
character_limits
  6
ByLayer
 62
  256
370
   -1
100
AcDbLine
 10
14.99999999999999
 20
-180
 11
14.99999999999999
 21
-170
  0
LINE
  5
17A
100
AcDbEntity
  8
character_limits
  6
ByLayer
 62
  256
370
   -1
100
AcDbLine
 10
14.99999999999999
 20
-170
 11
24.99999999999999
 21
-170
  0
LINE
  5
17B
100
AcDbEntity
  8
character_limits
  6
ByLayer
 62
  256
370
   -1
100
AcDbLine
 10
24.99999999999999
 20
-170
 11
24.99999999999999
 21
-180
  0
LINE
  5
17C
100
AcDbEntity
  8
character_limits
  6
ByLayer
 62
  256
370
   -1
100
AcDbLine
 10
24.99999999999999
 20
-180
 11
14.99999999999999
 21
-180
  0
LINE
  5
17D
100
AcDbEntity
  8
character_limits
  6
ByLayer
 62
  256
370
   -1
100
AcDbLine
 10
14.99999999999999
 20
-170
 11
14.99999999999999
 21
-160
  0
LINE
  5
17E
100
AcDbEntity
  8
character_limits
  6
ByLayer
 62
  256
370
   -1
100
AcDbLine
 10
14.99999999999999
 20
-160
 11
24.99999999999999
 21
-160
  0
LINE
  5
17F
100
AcDbEntity
  8
character_limits
  6
ByLayer
 62
  256
370
   -1
100
AcDbLine
 10
24.99999999999999
 20
-160
 11
24.99999999999999
 21
-170
  0
LINE
  5
180
100
AcDbEntity
  8
character_limits
  6
ByLayer
 62
  256
370
   -1
100
AcDbLine
 10
14.99999999999999
 20
-160
 11
14.99999999999999
 21
-150
  0
LINE
  5
181
100
AcDbEntity
  8
character_limits
  6
ByLayer
 62
  256
370
   -1
100
AcDbLine
 10
14.99999999999999
 20
-150
 11
24.99999999999999
 21
-150
  0
LINE
  5
182
100
AcDbEntity
  8
character_limits
  6
ByLayer
 62
  256
370
   -1
100
AcDbLine
 10
24.99999999999999
 20
-150
 11
24.99999999999999
 21
-160
  0
LINE
  5
183
100
AcDbEntity
  8
Ligature_space
  6
ByLayer
 62
  256
370
   -1
100
AcDbLine
 10
29.99999999999999
 20
-150
 11
29.99999999999999
 21
-160
  0
LINE
  5
184
100
AcDbEntity
  8
Ligature_space
  6
ByLayer
 62
  256
370
   -1
100
AcDbLine
 10
29.99999999999999
 20
-160
 11
29.99999999999999
 21
-170
  0
LINE
  5
185
100
AcDbEntity
  8
Ligature_space
  6
ByLayer
 62
  256
370
   -1
100
AcDbLine
 10
29.99999999999999
 20
-170
 11
29.99999999999999
 21
-180
  0
LINE
  5
186
100
AcDbEntity
  8
Ligature_space
  6
ByLayer
 62
  256
370
   -1
100
AcDbLine
 10
29.99999999999999
 20
-150
 11
24.99999999999999
 21
-150
  0
LINE
  5
187
100
AcDbEntity
  8
Ligature_space
  6
ByLayer
 62
  256
370
   -1
100
AcDbLine
 10
29.99999999999999
 20
-160
 11
24.99999999999999
 21
-160
  0
LINE
  5
188
100
AcDbEntity
  8
Ligature_space
  6
ByLayer
 62
  256
370
   -1
100
AcDbLine
 10
29.99999999999999
 20
-170
 11
24.99999999999999
 21
-170
  0
LINE
  5
189
100
AcDbEntity
  8
Ligature_space
  6
ByLayer
 62
  256
370
   -1
100
AcDbLine
 10
29.99999999999999
 20
-180
 11
24.99999999999999
 21
-180
  0
LINE
  5
18A
100
AcDbEntity
  8
Ligature_space
  6
ByLayer
 62
  256
370
   -1
100
AcDbLine
 10
9.999999999999991
 20
-150
 11
14.99999999999999
 21
-150
  0
LINE
  5
18B
100
AcDbEntity
  8
Ligature_space
  6
ByLayer
 62
  256
370
   -1
100
AcDbLine
 10
9.999999999999991
 20
-160
 11
14.99999999999999
 21
-160
  0
LINE
  5
18C
100
AcDbEntity
  8
Ligature_space
  6
ByLayer
 62
  256
370
   -1
100
AcDbLine
 10
9.999999999999991
 20
-170
 11
14.99999999999999
 21
-170
  0
LINE
  5
18D
100
AcDbEntity
  8
Ligature_space
  6
ByLayer
 62
  256
370
   -1
100
AcDbLine
 10
9.999999999999991
 20
-180
 11
14.99999999999999
 21
-180
  0
LINE
  5
18E
100
AcDbEntity
  8
character_limits
  6
ByLayer
 62
  256
370
   -1
100
AcDbLine
 10
14.99999999999999
 20
-215
 11
14.99999999999999
 21
-205
  0
LINE
  5
18F
100
AcDbEntity
  8
character_limits
  6
ByLayer
 62
  256
370
   -1
100
AcDbLine
 10
14.99999999999999
 20
-205
 11
24.99999999999999
 21
-205
  0
LINE
  5
190
100
AcDbEntity
  8
character_limits
  6
ByLayer
 62
  256
370
   -1
100
AcDbLine
 10
24.99999999999999
 20
-205
 11
24.99999999999999
 21
-215
  0
LINE
  5
191
100
AcDbEntity
  8
character_limits
  6
ByLayer
 62
  256
370
   -1
100
AcDbLine
 10
24.99999999999999
 20
-215
 11
14.99999999999999
 21
-215
  0
LINE
  5
192
100
AcDbEntity
  8
character_limits
  6
ByLayer
 62
  256
370
   -1
100
AcDbLine
 10
14.99999999999999
 20
-205
 11
14.99999999999999
 21
-195
  0
LINE
  5
193
100
AcDbEntity
  8
character_limits
  6
ByLayer
 62
  256
370
   -1
100
AcDbLine
 10
14.99999999999999
 20
-195
 11
24.99999999999999
 21
-195
  0
LINE
  5
194
100
AcDbEntity
  8
character_limits
  6
ByLayer
 62
  256
370
   -1
100
AcDbLine
 10
24.99999999999999
 20
-195
 11
24.99999999999999
 21
-205
  0
LINE
  5
195
100
AcDbEntity
  8
character_limits
  6
ByLayer
 62
  256
370
   -1
100
AcDbLine
 10
14.99999999999999
 20
-195
 11
14.99999999999999
 21
-185
  0
LINE
  5
196
100
AcDbEntity
  8
character_limits
  6
ByLayer
 62
  256
370
   -1
100
AcDbLine
 10
14.99999999999999
 20
-185
 11
24.99999999999999
 21
-185
  0
LINE
  5
197
100
AcDbEntity
  8
character_limits
  6
ByLayer
 62
  256
370
   -1
100
AcDbLine
 10
24.99999999999999
 20
-185
 11
24.99999999999999
 21
-195
  0
LINE
  5
198
100
AcDbEntity
  8
Ligature_space
  6
ByLayer
 62
  256
370
   -1
100
AcDbLine
 10
29.99999999999999
 20
-185
 11
29.99999999999999
 21
-195
  0
LINE
  5
199
100
AcDbEntity
  8
Ligature_space
  6
ByLayer
 62
  256
370
   -1
100
AcDbLine
 10
29.99999999999999
 20
-195
 11
29.99999999999999
 21
-205
  0
LINE
  5
19A
100
AcDbEntity
  8
Ligature_space
  6
ByLayer
 62
  256
370
   -1
100
AcDbLine
 10
29.99999999999999
 20
-205
 11
29.99999999999999
 21
-215
  0
LINE
  5
19B
100
AcDbEntity
  8
Ligature_space
  6
ByLayer
 62
  256
370
   -1
100
AcDbLine
 10
29.99999999999999
 20
-185
 11
24.99999999999999
 21
-185
  0
LINE
  5
19C
100
AcDbEntity
  8
Ligature_space
  6
ByLayer
 62
  256
370
   -1
100
AcDbLine
 10
29.99999999999999
 20
-195
 11
24.99999999999999
 21
-195
  0
LINE
  5
19D
100
AcDbEntity
  8
Ligature_space
  6
ByLayer
 62
  256
370
   -1
100
AcDbLine
 10
29.99999999999999
 20
-205
 11
24.99999999999999
 21
-205
  0
LINE
  5
19E
100
AcDbEntity
  8
Ligature_space
  6
ByLayer
 62
  256
370
   -1
100
AcDbLine
 10
29.99999999999999
 20
-215
 11
24.99999999999999
 21
-215
  0
LINE
  5
19F
100
AcDbEntity
  8
Ligature_space
  6
ByLayer
 62
  256
370
   -1
100
AcDbLine
 10
9.999999999999989
 20
-185
 11
14.99999999999999
 21
-185
  0
LINE
  5
1A0
100
AcDbEntity
  8
Ligature_space
  6
ByLayer
 62
  256
370
   -1
100
AcDbLine
 10
9.999999999999989
 20
-195
 11
14.99999999999999
 21
-195
  0
LINE
  5
1A1
100
AcDbEntity
  8
Ligature_space
  6
ByLayer
 62
  256
370
   -1
100
AcDbLine
 10
9.999999999999989
 20
-205
 11
14.99999999999999
 21
-205
  0
LINE
  5
1A2
100
AcDbEntity
  8
Ligature_space
  6
ByLayer
 62
  256
370
   -1
100
AcDbLine
 10
9.999999999999989
 20
-215
 11
14.99999999999999
 21
-215
  0
LINE
  5
1A3
100
AcDbEntity
  8
character_limits
  6
ByLayer
 62
  256
370
   -1
100
AcDbLine
 10
14.99999999999999
 20
-250
 11
14.99999999999999
 21
-240
  0
LINE
  5
1A4
100
AcDbEntity
  8
character_limits
  6
ByLayer
 62
  256
370
   -1
100
AcDbLine
 10
14.99999999999999
 20
-240
 11
24.99999999999999
 21
-240
  0
LINE
  5
1A5
100
AcDbEntity
  8
character_limits
  6
ByLayer
 62
  256
370
   -1
100
AcDbLine
 10
24.99999999999999
 20
-240
 11
24.99999999999999
 21
-250
  0
LINE
  5
1A6
100
AcDbEntity
  8
character_limits
  6
ByLayer
 62
  256
370
   -1
100
AcDbLine
 10
24.99999999999999
 20
-250
 11
14.99999999999999
 21
-250
  0
LINE
  5
1A7
100
AcDbEntity
  8
character_limits
  6
ByLayer
 62
  256
370
   -1
100
AcDbLine
 10
14.99999999999999
 20
-240
 11
14.99999999999999
 21
-230
  0
LINE
  5
1A8
100
AcDbEntity
  8
character_limits
  6
ByLayer
 62
  256
370
   -1
100
AcDbLine
 10
14.99999999999999
 20
-230
 11
24.99999999999999
 21
-230
  0
LINE
  5
1A9
100
AcDbEntity
  8
character_limits
  6
ByLayer
 62
  256
370
   -1
100
AcDbLine
 10
24.99999999999999
 20
-230
 11
24.99999999999999
 21
-240
  0
LINE
  5
1AA
100
AcDbEntity
  8
character_limits
  6
ByLayer
 62
  256
370
   -1
100
AcDbLine
 10
14.99999999999999
 20
-230
 11
14.99999999999999
 21
-220
  0
LINE
  5
1AB
100
AcDbEntity
  8
character_limits
  6
ByLayer
 62
  256
370
   -1
100
AcDbLine
 10
14.99999999999999
 20
-220
 11
24.99999999999999
 21
-220
  0
LINE
  5
1AC
100
AcDbEntity
  8
character_limits
  6
ByLayer
 62
  256
370
   -1
100
AcDbLine
 10
24.99999999999999
 20
-220
 11
24.99999999999999
 21
-230
  0
LINE
  5
1AD
100
AcDbEntity
  8
Ligature_space
  6
ByLayer
 62
  256
370
   -1
100
AcDbLine
 10
29.99999999999999
 20
-220
 11
29.99999999999999
 21
-230
  0
LINE
  5
1AE
100
AcDbEntity
  8
Ligature_space
  6
ByLayer
 62
  256
370
   -1
100
AcDbLine
 10
29.99999999999999
 20
-230
 11
29.99999999999999
 21
-240
  0
LINE
  5
1AF
100
AcDbEntity
  8
Ligature_space
  6
ByLayer
 62
  256
370
   -1
100
AcDbLine
 10
29.99999999999999
 20
-240
 11
29.99999999999999
 21
-250
  0
LINE
  5
1B0
100
AcDbEntity
  8
Ligature_space
  6
ByLayer
 62
  256
370
   -1
100
AcDbLine
 10
29.99999999999999
 20
-220
 11
24.99999999999999
 21
-220
  0
LINE
  5
1B1
100
AcDbEntity
  8
Ligature_space
  6
ByLayer
 62
  256
370
   -1
100
AcDbLine
 10
29.99999999999999
 20
-230
 11
24.99999999999999
 21
-230
  0
LINE
  5
1B2
100
AcDbEntity
  8
Ligature_space
  6
ByLayer
 62
  256
370
   -1
100
AcDbLine
 10
29.99999999999999
 20
-240
 11
24.99999999999999
 21
-240
  0
LINE
  5
1B3
100
AcDbEntity
  8
Ligature_space
  6
ByLayer
 62
  256
370
   -1
100
AcDbLine
 10
29.99999999999999
 20
-250
 11
24.99999999999999
 21
-250
  0
LINE
  5
1B4
100
AcDbEntity
  8
Ligature_space
  6
ByLayer
 62
  256
370
   -1
100
AcDbLine
 10
9.999999999999988
 20
-220
 11
14.99999999999999
 21
-220
  0
LINE
  5
1B5
100
AcDbEntity
  8
Ligature_space
  6
ByLayer
 62
  256
370
   -1
100
AcDbLine
 10
9.999999999999988
 20
-230
 11
14.99999999999999
 21
-230
  0
LINE
  5
1B6
100
AcDbEntity
  8
Ligature_space
  6
ByLayer
 62
  256
370
   -1
100
AcDbLine
 10
9.999999999999988
 20
-240
 11
14.99999999999999
 21
-240
  0
LINE
  5
1B7
100
AcDbEntity
  8
Ligature_space
  6
ByLayer
 62
  256
370
   -1
100
AcDbLine
 10
9.999999999999988
 20
-250
 11
14.99999999999999
 21
-250
  0
LINE
  5
1B8
100
AcDbEntity
  8
character_limits
  6
ByLayer
 62
  256
370
   -1
100
AcDbLine
 10
14.99999999999999
 20
-285
 11
14.99999999999999
 21
-275
  0
LINE
  5
1B9
100
AcDbEntity
  8
character_limits
  6
ByLayer
 62
  256
370
   -1
100
AcDbLine
 10
14.99999999999999
 20
-275
 11
24.99999999999999
 21
-275
  0
LINE
  5
1BA
100
AcDbEntity
  8
character_limits
  6
ByLayer
 62
  256
370
   -1
100
AcDbLine
 10
24.99999999999999
 20
-275
 11
24.99999999999999
 21
-285
  0
LINE
  5
1BB
100
AcDbEntity
  8
character_limits
  6
ByLayer
 62
  256
370
   -1
100
AcDbLine
 10
24.99999999999999
 20
-285
 11
14.99999999999999
 21
-285
  0
LINE
  5
1BC
100
AcDbEntity
  8
character_limits
  6
ByLayer
 62
  256
370
   -1
100
AcDbLine
 10
14.99999999999999
 20
-275
 11
14.99999999999999
 21
-265
  0
LINE
  5
1BD
100
AcDbEntity
  8
character_limits
  6
ByLayer
 62
  256
370
   -1
100
AcDbLine
 10
14.99999999999999
 20
-265
 11
24.99999999999999
 21
-265
  0
LINE
  5
1BE
100
AcDbEntity
  8
character_limits
  6
ByLayer
 62
  256
370
   -1
100
AcDbLine
 10
24.99999999999999
 20
-265
 11
24.99999999999999
 21
-275
  0
LINE
  5
1BF
100
AcDbEntity
  8
character_limits
  6
ByLayer
 62
  256
370
   -1
100
AcDbLine
 10
14.99999999999999
 20
-265
 11
14.99999999999999
 21
-255
  0
LINE
  5
1C0
100
AcDbEntity
  8
character_limits
  6
ByLayer
 62
  256
370
   -1
100
AcDbLine
 10
14.99999999999999
 20
-255
 11
24.99999999999999
 21
-255
  0
LINE
  5
1C1
100
AcDbEntity
  8
character_limits
  6
ByLayer
 62
  256
370
   -1
100
AcDbLine
 10
24.99999999999999
 20
-255
 11
24.99999999999999
 21
-265
  0
LINE
  5
1C2
100
AcDbEntity
  8
Ligature_space
  6
ByLayer
 62
  256
370
   -1
100
AcDbLine
 10
29.99999999999999
 20
-255
 11
29.99999999999999
 21
-265
  0
LINE
  5
1C3
100
AcDbEntity
  8
Ligature_space
  6
ByLayer
 62
  256
370
   -1
100
AcDbLine
 10
29.99999999999999
 20
-265
 11
29.99999999999999
 21
-275
  0
LINE
  5
1C4
100
AcDbEntity
  8
Ligature_space
  6
ByLayer
 62
  256
370
   -1
100
AcDbLine
 10
29.99999999999999
 20
-275
 11
29.99999999999999
 21
-285
  0
LINE
  5
1C5
100
AcDbEntity
  8
Ligature_space
  6
ByLayer
 62
  256
370
   -1
100
AcDbLine
 10
29.99999999999999
 20
-255
 11
24.99999999999999
 21
-255
  0
LINE
  5
1C6
100
AcDbEntity
  8
Ligature_space
  6
ByLayer
 62
  256
370
   -1
100
AcDbLine
 10
29.99999999999999
 20
-265
 11
24.99999999999999
 21
-265
  0
LINE
  5
1C7
100
AcDbEntity
  8
Ligature_space
  6
ByLayer
 62
  256
370
   -1
100
AcDbLine
 10
29.99999999999999
 20
-275
 11
24.99999999999999
 21
-275
  0
LINE
  5
1C8
100
AcDbEntity
  8
Ligature_space
  6
ByLayer
 62
  256
370
   -1
100
AcDbLine
 10
29.99999999999999
 20
-285
 11
24.99999999999999
 21
-285
  0
LINE
  5
1C9
100
AcDbEntity
  8
Ligature_space
  6
ByLayer
 62
  256
370
   -1
100
AcDbLine
 10
9.999999999999986
 20
-255
 11
14.99999999999999
 21
-255
  0
LINE
  5
1CA
100
AcDbEntity
  8
Ligature_space
  6
ByLayer
 62
  256
370
   -1
100
AcDbLine
 10
9.999999999999986
 20
-265
 11
14.99999999999999
 21
-265
  0
LINE
  5
1CB
100
AcDbEntity
  8
Ligature_space
  6
ByLayer
 62
  256
370
   -1
100
AcDbLine
 10
9.999999999999986
 20
-275
 11
14.99999999999999
 21
-275
  0
LINE
  5
1CC
100
AcDbEntity
  8
Ligature_space
  6
ByLayer
 62
  256
370
   -1
100
AcDbLine
 10
9.999999999999986
 20
-285
 11
14.99999999999999
 21
-285
  0
LINE
  5
1CD
100
AcDbEntity
  8
character_limits
  6
ByLayer
 62
  256
370
   -1
100
AcDbLine
 10
35
 20
-5
 11
35
 21
5
  0
LINE
  5
1CE
100
AcDbEntity
  8
character_limits
  6
ByLayer
 62
  256
370
   -1
100
AcDbLine
 10
35
 20
5
 11
45
 21
5
  0
LINE
  5
1CF
100
AcDbEntity
  8
character_limits
  6
ByLayer
 62
  256
370
   -1
100
AcDbLine
 10
45
 20
5
 11
45
 21
-5
  0
LINE
  5
1D0
100
AcDbEntity
  8
character_limits
  6
ByLayer
 62
  256
370
   -1
100
AcDbLine
 10
45
 20
-5
 11
35
 21
-5
  0
LINE
  5
1D1
100
AcDbEntity
  8
character_limits
  6
ByLayer
 62
  256
370
   -1
100
AcDbLine
 10
35
 20
5
 11
35
 21
15
  0
LINE
  5
1D2
100
AcDbEntity
  8
character_limits
  6
ByLayer
 62
  256
370
   -1
100
AcDbLine
 10
35
 20
15
 11
45
 21
15
  0
LINE
  5
1D3
100
AcDbEntity
  8
character_limits
  6
ByLayer
 62
  256
370
   -1
100
AcDbLine
 10
45
 20
15
 11
45
 21
5
  0
LINE
  5
1D4
100
AcDbEntity
  8
character_limits
  6
ByLayer
 62
  256
370
   -1
100
AcDbLine
 10
35
 20
15
 11
35
 21
25
  0
LINE
  5
1D5
100
AcDbEntity
  8
character_limits
  6
ByLayer
 62
  256
370
   -1
100
AcDbLine
 10
35
 20
25
 11
45
 21
25
  0
LINE
  5
1D6
100
AcDbEntity
  8
character_limits
  6
ByLayer
 62
  256
370
   -1
100
AcDbLine
 10
45
 20
25
 11
45
 21
15
  0
LINE
  5
1D7
100
AcDbEntity
  8
Ligature_space
  6
ByLayer
 62
  256
370
   -1
100
AcDbLine
 10
50
 20
25
 11
50
 21
15
  0
LINE
  5
1D8
100
AcDbEntity
  8
Ligature_space
  6
ByLayer
 62
  256
370
   -1
100
AcDbLine
 10
50
 20
15
 11
50
 21
4.999999999999999
  0
LINE
  5
1D9
100
AcDbEntity
  8
Ligature_space
  6
ByLayer
 62
  256
370
   -1
100
AcDbLine
 10
50
 20
4.999999999999999
 11
50
 21
-5.000000000000001
  0
LINE
  5
1DA
100
AcDbEntity
  8
Ligature_space
  6
ByLayer
 62
  256
370
   -1
100
AcDbLine
 10
50
 20
25
 11
45
 21
25
  0
LINE
  5
1DB
100
AcDbEntity
  8
Ligature_space
  6
ByLayer
 62
  256
370
   -1
100
AcDbLine
 10
50
 20
15
 11
45
 21
15
  0
LINE
  5
1DC
100
AcDbEntity
  8
Ligature_space
  6
ByLayer
 62
  256
370
   -1
100
AcDbLine
 10
50
 20
4.999999999999999
 11
45
 21
5
  0
LINE
  5
1DD
100
AcDbEntity
  8
Ligature_space
  6
ByLayer
 62
  256
370
   -1
100
AcDbLine
 10
50
 20
-5.000000000000001
 11
45
 21
-5
  0
LINE
  5
1DE
100
AcDbEntity
  8
Ligature_space
  6
ByLayer
 62
  256
370
   -1
100
AcDbLine
 10
30
 20
25
 11
35
 21
25
  0
LINE
  5
1DF
100
AcDbEntity
  8
Ligature_space
  6
ByLayer
 62
  256
370
   -1
100
AcDbLine
 10
30
 20
15
 11
35
 21
15
  0
LINE
  5
1E0
100
AcDbEntity
  8
Ligature_space
  6
ByLayer
 62
  256
370
   -1
100
AcDbLine
 10
30
 20
5.000000000000001
 11
35
 21
5
  0
LINE
  5
1E1
100
AcDbEntity
  8
Ligature_space
  6
ByLayer
 62
  256
370
   -1
100
AcDbLine
 10
30
 20
-4.999999999999999
 11
35
 21
-5
  0
LINE
  5
1E2
100
AcDbEntity
  8
character_limits
  6
ByLayer
 62
  256
370
   -1
100
AcDbLine
 10
35
 20
-40
 11
35
 21
-30
  0
LINE
  5
1E3
100
AcDbEntity
  8
character_limits
  6
ByLayer
 62
  256
370
   -1
100
AcDbLine
 10
35
 20
-30
 11
45
 21
-30
  0
LINE
  5
1E4
100
AcDbEntity
  8
character_limits
  6
ByLayer
 62
  256
370
   -1
100
AcDbLine
 10
45
 20
-30
 11
45
 21
-40
  0
LINE
  5
1E5
100
AcDbEntity
  8
character_limits
  6
ByLayer
 62
  256
370
   -1
100
AcDbLine
 10
45
 20
-40
 11
35
 21
-40
  0
LINE
  5
1E6
100
AcDbEntity
  8
character_limits
  6
ByLayer
 62
  256
370
   -1
100
AcDbLine
 10
35
 20
-30
 11
35
 21
-20
  0
LINE
  5
1E7
100
AcDbEntity
  8
character_limits
  6
ByLayer
 62
  256
370
   -1
100
AcDbLine
 10
35
 20
-20
 11
45
 21
-20
  0
LINE
  5
1E8
100
AcDbEntity
  8
character_limits
  6
ByLayer
 62
  256
370
   -1
100
AcDbLine
 10
45
 20
-20
 11
45
 21
-30
  0
LINE
  5
1E9
100
AcDbEntity
  8
character_limits
  6
ByLayer
 62
  256
370
   -1
100
AcDbLine
 10
35
 20
-20
 11
35
 21
-10
  0
LINE
  5
1EA
100
AcDbEntity
  8
character_limits
  6
ByLayer
 62
  256
370
   -1
100
AcDbLine
 10
35
 20
-10
 11
45
 21
-10
  0
LINE
  5
1EB
100
AcDbEntity
  8
character_limits
  6
ByLayer
 62
  256
370
   -1
100
AcDbLine
 10
45
 20
-10
 11
45
 21
-20
  0
LINE
  5
1EC
100
AcDbEntity
  8
Ligature_space
  6
ByLayer
 62
  256
370
   -1
100
AcDbLine
 10
50
 20
-10
 11
50
 21
-20
  0
LINE
  5
1ED
100
AcDbEntity
  8
Ligature_space
  6
ByLayer
 62
  256
370
   -1
100
AcDbLine
 10
50
 20
-20
 11
50
 21
-30
  0
LINE
  5
1EE
100
AcDbEntity
  8
Ligature_space
  6
ByLayer
 62
  256
370
   -1
100
AcDbLine
 10
50
 20
-30
 11
50
 21
-40
  0
LINE
  5
1EF
100
AcDbEntity
  8
Ligature_space
  6
ByLayer
 62
  256
370
   -1
100
AcDbLine
 10
50
 20
-10
 11
45
 21
-10
  0
LINE
  5
1F0
100
AcDbEntity
  8
Ligature_space
  6
ByLayer
 62
  256
370
   -1
100
AcDbLine
 10
50
 20
-20
 11
45
 21
-20
  0
LINE
  5
1F1
100
AcDbEntity
  8
Ligature_space
  6
ByLayer
 62
  256
370
   -1
100
AcDbLine
 10
50
 20
-30
 11
45
 21
-30
  0
LINE
  5
1F2
100
AcDbEntity
  8
Ligature_space
  6
ByLayer
 62
  256
370
   -1
100
AcDbLine
 10
50
 20
-40
 11
45
 21
-40
  0
LINE
  5
1F3
100
AcDbEntity
  8
Ligature_space
  6
ByLayer
 62
  256
370
   -1
100
AcDbLine
 10
30
 20
-10
 11
35
 21
-10
  0
LINE
  5
1F4
100
AcDbEntity
  8
Ligature_space
  6
ByLayer
 62
  256
370
   -1
100
AcDbLine
 10
30
 20
-20
 11
35
 21
-20
  0
LINE
  5
1F5
100
AcDbEntity
  8
Ligature_space
  6
ByLayer
 62
  256
370
   -1
100
AcDbLine
 10
30
 20
-30
 11
35
 21
-30
  0
LINE
  5
1F6
100
AcDbEntity
  8
Ligature_space
  6
ByLayer
 62
  256
370
   -1
100
AcDbLine
 10
30
 20
-40
 11
35
 21
-40
  0
LINE
  5
1F7
100
AcDbEntity
  8
character_limits
  6
ByLayer
 62
  256
370
   -1
100
AcDbLine
 10
35
 20
-75
 11
35
 21
-65
  0
LINE
  5
1F8
100
AcDbEntity
  8
character_limits
  6
ByLayer
 62
  256
370
   -1
100
AcDbLine
 10
35
 20
-65
 11
45
 21
-65
  0
LINE
  5
1F9
100
AcDbEntity
  8
character_limits
  6
ByLayer
 62
  256
370
   -1
100
AcDbLine
 10
45
 20
-65
 11
45
 21
-75
  0
LINE
  5
1FA
100
AcDbEntity
  8
character_limits
  6
ByLayer
 62
  256
370
   -1
100
AcDbLine
 10
45
 20
-75
 11
35
 21
-75
  0
LINE
  5
1FB
100
AcDbEntity
  8
character_limits
  6
ByLayer
 62
  256
370
   -1
100
AcDbLine
 10
35
 20
-65
 11
35
 21
-55
  0
LINE
  5
1FC
100
AcDbEntity
  8
character_limits
  6
ByLayer
 62
  256
370
   -1
100
AcDbLine
 10
35
 20
-55
 11
45
 21
-55
  0
LINE
  5
1FD
100
AcDbEntity
  8
character_limits
  6
ByLayer
 62
  256
370
   -1
100
AcDbLine
 10
45
 20
-55
 11
45
 21
-65
  0
LINE
  5
1FE
100
AcDbEntity
  8
character_limits
  6
ByLayer
 62
  256
370
   -1
100
AcDbLine
 10
35
 20
-55
 11
35
 21
-45
  0
LINE
  5
1FF
100
AcDbEntity
  8
character_limits
  6
ByLayer
 62
  256
370
   -1
100
AcDbLine
 10
35
 20
-45
 11
45
 21
-45
  0
LINE
  5
200
100
AcDbEntity
  8
character_limits
  6
ByLayer
 62
  256
370
   -1
100
AcDbLine
 10
45
 20
-45
 11
45
 21
-55
  0
LINE
  5
201
100
AcDbEntity
  8
Ligature_space
  6
ByLayer
 62
  256
370
   -1
100
AcDbLine
 10
50
 20
-45
 11
50
 21
-55
  0
LINE
  5
202
100
AcDbEntity
  8
Ligature_space
  6
ByLayer
 62
  256
370
   -1
100
AcDbLine
 10
50
 20
-55
 11
50
 21
-65
  0
LINE
  5
203
100
AcDbEntity
  8
Ligature_space
  6
ByLayer
 62
  256
370
   -1
100
AcDbLine
 10
50
 20
-65
 11
50
 21
-75
  0
LINE
  5
204
100
AcDbEntity
  8
Ligature_space
  6
ByLayer
 62
  256
370
   -1
100
AcDbLine
 10
50
 20
-45
 11
45
 21
-45
  0
LINE
  5
205
100
AcDbEntity
  8
Ligature_space
  6
ByLayer
 62
  256
370
   -1
100
AcDbLine
 10
50
 20
-55
 11
45
 21
-55
  0
LINE
  5
206
100
AcDbEntity
  8
Ligature_space
  6
ByLayer
 62
  256
370
   -1
100
AcDbLine
 10
50
 20
-65
 11
45
 21
-65
  0
LINE
  5
207
100
AcDbEntity
  8
Ligature_space
  6
ByLayer
 62
  256
370
   -1
100
AcDbLine
 10
50
 20
-75
 11
45
 21
-75
  0
LINE
  5
208
100
AcDbEntity
  8
Ligature_space
  6
ByLayer
 62
  256
370
   -1
100
AcDbLine
 10
30
 20
-45
 11
35
 21
-45
  0
LINE
  5
209
100
AcDbEntity
  8
Ligature_space
  6
ByLayer
 62
  256
370
   -1
100
AcDbLine
 10
30
 20
-55
 11
35
 21
-55
  0
LINE
  5
20A
100
AcDbEntity
  8
Ligature_space
  6
ByLayer
 62
  256
370
   -1
100
AcDbLine
 10
30
 20
-65
 11
35
 21
-65
  0
LINE
  5
20B
100
AcDbEntity
  8
Ligature_space
  6
ByLayer
 62
  256
370
   -1
100
AcDbLine
 10
30
 20
-75
 11
35
 21
-75
  0
LINE
  5
20C
100
AcDbEntity
  8
character_limits
  6
ByLayer
 62
  256
370
   -1
100
AcDbLine
 10
34.99999999999999
 20
-110
 11
34.99999999999999
 21
-100
  0
LINE
  5
20D
100
AcDbEntity
  8
character_limits
  6
ByLayer
 62
  256
370
   -1
100
AcDbLine
 10
34.99999999999999
 20
-100
 11
44.99999999999999
 21
-100
  0
LINE
  5
20E
100
AcDbEntity
  8
character_limits
  6
ByLayer
 62
  256
370
   -1
100
AcDbLine
 10
44.99999999999999
 20
-100
 11
44.99999999999999
 21
-110
  0
LINE
  5
20F
100
AcDbEntity
  8
character_limits
  6
ByLayer
 62
  256
370
   -1
100
AcDbLine
 10
44.99999999999999
 20
-110
 11
34.99999999999999
 21
-110
  0
LINE
  5
210
100
AcDbEntity
  8
character_limits
  6
ByLayer
 62
  256
370
   -1
100
AcDbLine
 10
34.99999999999999
 20
-100
 11
34.99999999999999
 21
-90
  0
LINE
  5
211
100
AcDbEntity
  8
character_limits
  6
ByLayer
 62
  256
370
   -1
100
AcDbLine
 10
34.99999999999999
 20
-90
 11
44.99999999999999
 21
-90
  0
LINE
  5
212
100
AcDbEntity
  8
character_limits
  6
ByLayer
 62
  256
370
   -1
100
AcDbLine
 10
44.99999999999999
 20
-90
 11
44.99999999999999
 21
-100
  0
LINE
  5
213
100
AcDbEntity
  8
character_limits
  6
ByLayer
 62
  256
370
   -1
100
AcDbLine
 10
34.99999999999999
 20
-90
 11
34.99999999999999
 21
-80
  0
LINE
  5
214
100
AcDbEntity
  8
character_limits
  6
ByLayer
 62
  256
370
   -1
100
AcDbLine
 10
34.99999999999999
 20
-80
 11
44.99999999999999
 21
-80
  0
LINE
  5
215
100
AcDbEntity
  8
character_limits
  6
ByLayer
 62
  256
370
   -1
100
AcDbLine
 10
44.99999999999999
 20
-80
 11
44.99999999999999
 21
-90
  0
LINE
  5
216
100
AcDbEntity
  8
Ligature_space
  6
ByLayer
 62
  256
370
   -1
100
AcDbLine
 10
49.99999999999999
 20
-80
 11
49.99999999999999
 21
-90
  0
LINE
  5
217
100
AcDbEntity
  8
Ligature_space
  6
ByLayer
 62
  256
370
   -1
100
AcDbLine
 10
49.99999999999999
 20
-90
 11
49.99999999999999
 21
-100
  0
LINE
  5
218
100
AcDbEntity
  8
Ligature_space
  6
ByLayer
 62
  256
370
   -1
100
AcDbLine
 10
49.99999999999999
 20
-100
 11
49.99999999999999
 21
-110
  0
LINE
  5
219
100
AcDbEntity
  8
Ligature_space
  6
ByLayer
 62
  256
370
   -1
100
AcDbLine
 10
49.99999999999999
 20
-80
 11
44.99999999999999
 21
-80
  0
LINE
  5
21A
100
AcDbEntity
  8
Ligature_space
  6
ByLayer
 62
  256
370
   -1
100
AcDbLine
 10
49.99999999999999
 20
-90
 11
44.99999999999999
 21
-90
  0
LINE
  5
21B
100
AcDbEntity
  8
Ligature_space
  6
ByLayer
 62
  256
370
   -1
100
AcDbLine
 10
49.99999999999999
 20
-100
 11
44.99999999999999
 21
-100
  0
LINE
  5
21C
100
AcDbEntity
  8
Ligature_space
  6
ByLayer
 62
  256
370
   -1
100
AcDbLine
 10
49.99999999999999
 20
-110
 11
44.99999999999999
 21
-110
  0
LINE
  5
21D
100
AcDbEntity
  8
Ligature_space
  6
ByLayer
 62
  256
370
   -1
100
AcDbLine
 10
29.99999999999999
 20
-80
 11
34.99999999999999
 21
-80
  0
LINE
  5
21E
100
AcDbEntity
  8
Ligature_space
  6
ByLayer
 62
  256
370
   -1
100
AcDbLine
 10
29.99999999999999
 20
-90
 11
34.99999999999999
 21
-90
  0
LINE
  5
21F
100
AcDbEntity
  8
Ligature_space
  6
ByLayer
 62
  256
370
   -1
100
AcDbLine
 10
29.99999999999999
 20
-100
 11
34.99999999999999
 21
-100
  0
LINE
  5
220
100
AcDbEntity
  8
Ligature_space
  6
ByLayer
 62
  256
370
   -1
100
AcDbLine
 10
29.99999999999999
 20
-110
 11
34.99999999999999
 21
-110
  0
LINE
  5
221
100
AcDbEntity
  8
character_limits
  6
ByLayer
 62
  256
370
   -1
100
AcDbLine
 10
34.99999999999999
 20
-145
 11
34.99999999999999
 21
-135
  0
LINE
  5
222
100
AcDbEntity
  8
character_limits
  6
ByLayer
 62
  256
370
   -1
100
AcDbLine
 10
34.99999999999999
 20
-135
 11
44.99999999999999
 21
-135
  0
LINE
  5
223
100
AcDbEntity
  8
character_limits
  6
ByLayer
 62
  256
370
   -1
100
AcDbLine
 10
44.99999999999999
 20
-135
 11
44.99999999999999
 21
-145
  0
LINE
  5
224
100
AcDbEntity
  8
character_limits
  6
ByLayer
 62
  256
370
   -1
100
AcDbLine
 10
44.99999999999999
 20
-145
 11
34.99999999999999
 21
-145
  0
LINE
  5
225
100
AcDbEntity
  8
character_limits
  6
ByLayer
 62
  256
370
   -1
100
AcDbLine
 10
34.99999999999999
 20
-135
 11
34.99999999999999
 21
-125
  0
LINE
  5
226
100
AcDbEntity
  8
character_limits
  6
ByLayer
 62
  256
370
   -1
100
AcDbLine
 10
34.99999999999999
 20
-125
 11
44.99999999999999
 21
-125
  0
LINE
  5
227
100
AcDbEntity
  8
character_limits
  6
ByLayer
 62
  256
370
   -1
100
AcDbLine
 10
44.99999999999999
 20
-125
 11
44.99999999999999
 21
-135
  0
LINE
  5
228
100
AcDbEntity
  8
character_limits
  6
ByLayer
 62
  256
370
   -1
100
AcDbLine
 10
34.99999999999999
 20
-125
 11
34.99999999999999
 21
-115
  0
LINE
  5
229
100
AcDbEntity
  8
character_limits
  6
ByLayer
 62
  256
370
   -1
100
AcDbLine
 10
34.99999999999999
 20
-115
 11
44.99999999999999
 21
-115
  0
LINE
  5
22A
100
AcDbEntity
  8
character_limits
  6
ByLayer
 62
  256
370
   -1
100
AcDbLine
 10
44.99999999999999
 20
-115
 11
44.99999999999999
 21
-125
  0
LINE
  5
22B
100
AcDbEntity
  8
Ligature_space
  6
ByLayer
 62
  256
370
   -1
100
AcDbLine
 10
49.99999999999999
 20
-115
 11
49.99999999999999
 21
-125
  0
LINE
  5
22C
100
AcDbEntity
  8
Ligature_space
  6
ByLayer
 62
  256
370
   -1
100
AcDbLine
 10
49.99999999999999
 20
-125
 11
49.99999999999999
 21
-135
  0
LINE
  5
22D
100
AcDbEntity
  8
Ligature_space
  6
ByLayer
 62
  256
370
   -1
100
AcDbLine
 10
49.99999999999999
 20
-135
 11
49.99999999999999
 21
-145
  0
LINE
  5
22E
100
AcDbEntity
  8
Ligature_space
  6
ByLayer
 62
  256
370
   -1
100
AcDbLine
 10
49.99999999999999
 20
-115
 11
44.99999999999999
 21
-115
  0
LINE
  5
22F
100
AcDbEntity
  8
Ligature_space
  6
ByLayer
 62
  256
370
   -1
100
AcDbLine
 10
49.99999999999999
 20
-125
 11
44.99999999999999
 21
-125
  0
LINE
  5
230
100
AcDbEntity
  8
Ligature_space
  6
ByLayer
 62
  256
370
   -1
100
AcDbLine
 10
49.99999999999999
 20
-135
 11
44.99999999999999
 21
-135
  0
LINE
  5
231
100
AcDbEntity
  8
Ligature_space
  6
ByLayer
 62
  256
370
   -1
100
AcDbLine
 10
49.99999999999999
 20
-145
 11
44.99999999999999
 21
-145
  0
LINE
  5
232
100
AcDbEntity
  8
Ligature_space
  6
ByLayer
 62
  256
370
   -1
100
AcDbLine
 10
29.99999999999999
 20
-115
 11
34.99999999999999
 21
-115
  0
LINE
  5
233
100
AcDbEntity
  8
Ligature_space
  6
ByLayer
 62
  256
370
   -1
100
AcDbLine
 10
29.99999999999999
 20
-125
 11
34.99999999999999
 21
-125
  0
LINE
  5
234
100
AcDbEntity
  8
Ligature_space
  6
ByLayer
 62
  256
370
   -1
100
AcDbLine
 10
29.99999999999999
 20
-135
 11
34.99999999999999
 21
-135
  0
LINE
  5
235
100
AcDbEntity
  8
Ligature_space
  6
ByLayer
 62
  256
370
   -1
100
AcDbLine
 10
29.99999999999999
 20
-145
 11
34.99999999999999
 21
-145
  0
LINE
  5
236
100
AcDbEntity
  8
character_limits
  6
ByLayer
 62
  256
370
   -1
100
AcDbLine
 10
34.99999999999999
 20
-180
 11
34.99999999999999
 21
-170
  0
LINE
  5
237
100
AcDbEntity
  8
character_limits
  6
ByLayer
 62
  256
370
   -1
100
AcDbLine
 10
34.99999999999999
 20
-170
 11
44.99999999999999
 21
-170
  0
LINE
  5
238
100
AcDbEntity
  8
character_limits
  6
ByLayer
 62
  256
370
   -1
100
AcDbLine
 10
44.99999999999999
 20
-170
 11
44.99999999999999
 21
-180
  0
LINE
  5
239
100
AcDbEntity
  8
character_limits
  6
ByLayer
 62
  256
370
   -1
100
AcDbLine
 10
44.99999999999999
 20
-180
 11
34.99999999999999
 21
-180
  0
LINE
  5
23A
100
AcDbEntity
  8
character_limits
  6
ByLayer
 62
  256
370
   -1
100
AcDbLine
 10
34.99999999999999
 20
-170
 11
34.99999999999999
 21
-160
  0
LINE
  5
23B
100
AcDbEntity
  8
character_limits
  6
ByLayer
 62
  256
370
   -1
100
AcDbLine
 10
34.99999999999999
 20
-160
 11
44.99999999999999
 21
-160
  0
LINE
  5
23C
100
AcDbEntity
  8
character_limits
  6
ByLayer
 62
  256
370
   -1
100
AcDbLine
 10
44.99999999999999
 20
-160
 11
44.99999999999999
 21
-170
  0
LINE
  5
23D
100
AcDbEntity
  8
character_limits
  6
ByLayer
 62
  256
370
   -1
100
AcDbLine
 10
34.99999999999999
 20
-160
 11
34.99999999999999
 21
-150
  0
LINE
  5
23E
100
AcDbEntity
  8
character_limits
  6
ByLayer
 62
  256
370
   -1
100
AcDbLine
 10
34.99999999999999
 20
-150
 11
44.99999999999999
 21
-150
  0
LINE
  5
23F
100
AcDbEntity
  8
character_limits
  6
ByLayer
 62
  256
370
   -1
100
AcDbLine
 10
44.99999999999999
 20
-150
 11
44.99999999999999
 21
-160
  0
LINE
  5
240
100
AcDbEntity
  8
Ligature_space
  6
ByLayer
 62
  256
370
   -1
100
AcDbLine
 10
49.99999999999999
 20
-150
 11
49.99999999999999
 21
-160
  0
LINE
  5
241
100
AcDbEntity
  8
Ligature_space
  6
ByLayer
 62
  256
370
   -1
100
AcDbLine
 10
49.99999999999999
 20
-160
 11
49.99999999999999
 21
-170
  0
LINE
  5
242
100
AcDbEntity
  8
Ligature_space
  6
ByLayer
 62
  256
370
   -1
100
AcDbLine
 10
49.99999999999999
 20
-170
 11
49.99999999999999
 21
-180
  0
LINE
  5
243
100
AcDbEntity
  8
Ligature_space
  6
ByLayer
 62
  256
370
   -1
100
AcDbLine
 10
49.99999999999999
 20
-150
 11
44.99999999999999
 21
-150
  0
LINE
  5
244
100
AcDbEntity
  8
Ligature_space
  6
ByLayer
 62
  256
370
   -1
100
AcDbLine
 10
49.99999999999999
 20
-160
 11
44.99999999999999
 21
-160
  0
LINE
  5
245
100
AcDbEntity
  8
Ligature_space
  6
ByLayer
 62
  256
370
   -1
100
AcDbLine
 10
49.99999999999999
 20
-170
 11
44.99999999999999
 21
-170
  0
LINE
  5
246
100
AcDbEntity
  8
Ligature_space
  6
ByLayer
 62
  256
370
   -1
100
AcDbLine
 10
49.99999999999999
 20
-180
 11
44.99999999999999
 21
-180
  0
LINE
  5
247
100
AcDbEntity
  8
Ligature_space
  6
ByLayer
 62
  256
370
   -1
100
AcDbLine
 10
29.99999999999999
 20
-150
 11
34.99999999999999
 21
-150
  0
LINE
  5
248
100
AcDbEntity
  8
Ligature_space
  6
ByLayer
 62
  256
370
   -1
100
AcDbLine
 10
29.99999999999999
 20
-160
 11
34.99999999999999
 21
-160
  0
LINE
  5
249
100
AcDbEntity
  8
Ligature_space
  6
ByLayer
 62
  256
370
   -1
100
AcDbLine
 10
29.99999999999999
 20
-170
 11
34.99999999999999
 21
-170
  0
LINE
  5
24A
100
AcDbEntity
  8
Ligature_space
  6
ByLayer
 62
  256
370
   -1
100
AcDbLine
 10
29.99999999999999
 20
-180
 11
34.99999999999999
 21
-180
  0
LINE
  5
24B
100
AcDbEntity
  8
character_limits
  6
ByLayer
 62
  256
370
   -1
100
AcDbLine
 10
34.99999999999999
 20
-215
 11
34.99999999999999
 21
-205
  0
LINE
  5
24C
100
AcDbEntity
  8
character_limits
  6
ByLayer
 62
  256
370
   -1
100
AcDbLine
 10
34.99999999999999
 20
-205
 11
44.99999999999999
 21
-205
  0
LINE
  5
24D
100
AcDbEntity
  8
character_limits
  6
ByLayer
 62
  256
370
   -1
100
AcDbLine
 10
44.99999999999999
 20
-205
 11
44.99999999999999
 21
-215
  0
LINE
  5
24E
100
AcDbEntity
  8
character_limits
  6
ByLayer
 62
  256
370
   -1
100
AcDbLine
 10
44.99999999999999
 20
-215
 11
34.99999999999999
 21
-215
  0
LINE
  5
24F
100
AcDbEntity
  8
character_limits
  6
ByLayer
 62
  256
370
   -1
100
AcDbLine
 10
34.99999999999999
 20
-205
 11
34.99999999999999
 21
-195
  0
LINE
  5
250
100
AcDbEntity
  8
character_limits
  6
ByLayer
 62
  256
370
   -1
100
AcDbLine
 10
34.99999999999999
 20
-195
 11
44.99999999999999
 21
-195
  0
LINE
  5
251
100
AcDbEntity
  8
character_limits
  6
ByLayer
 62
  256
370
   -1
100
AcDbLine
 10
44.99999999999999
 20
-195
 11
44.99999999999999
 21
-205
  0
LINE
  5
252
100
AcDbEntity
  8
character_limits
  6
ByLayer
 62
  256
370
   -1
100
AcDbLine
 10
34.99999999999999
 20
-195
 11
34.99999999999999
 21
-185
  0
LINE
  5
253
100
AcDbEntity
  8
character_limits
  6
ByLayer
 62
  256
370
   -1
100
AcDbLine
 10
34.99999999999999
 20
-185
 11
44.99999999999999
 21
-185
  0
LINE
  5
254
100
AcDbEntity
  8
character_limits
  6
ByLayer
 62
  256
370
   -1
100
AcDbLine
 10
44.99999999999999
 20
-185
 11
44.99999999999999
 21
-195
  0
LINE
  5
255
100
AcDbEntity
  8
Ligature_space
  6
ByLayer
 62
  256
370
   -1
100
AcDbLine
 10
49.99999999999999
 20
-185
 11
49.99999999999999
 21
-195
  0
LINE
  5
256
100
AcDbEntity
  8
Ligature_space
  6
ByLayer
 62
  256
370
   -1
100
AcDbLine
 10
49.99999999999999
 20
-195
 11
49.99999999999999
 21
-205
  0
LINE
  5
257
100
AcDbEntity
  8
Ligature_space
  6
ByLayer
 62
  256
370
   -1
100
AcDbLine
 10
49.99999999999999
 20
-205
 11
49.99999999999999
 21
-215
  0
LINE
  5
258
100
AcDbEntity
  8
Ligature_space
  6
ByLayer
 62
  256
370
   -1
100
AcDbLine
 10
49.99999999999999
 20
-185
 11
44.99999999999999
 21
-185
  0
LINE
  5
259
100
AcDbEntity
  8
Ligature_space
  6
ByLayer
 62
  256
370
   -1
100
AcDbLine
 10
49.99999999999999
 20
-195
 11
44.99999999999999
 21
-195
  0
LINE
  5
25A
100
AcDbEntity
  8
Ligature_space
  6
ByLayer
 62
  256
370
   -1
100
AcDbLine
 10
49.99999999999999
 20
-205
 11
44.99999999999999
 21
-205
  0
LINE
  5
25B
100
AcDbEntity
  8
Ligature_space
  6
ByLayer
 62
  256
370
   -1
100
AcDbLine
 10
49.99999999999999
 20
-215
 11
44.99999999999999
 21
-215
  0
LINE
  5
25C
100
AcDbEntity
  8
Ligature_space
  6
ByLayer
 62
  256
370
   -1
100
AcDbLine
 10
29.99999999999999
 20
-185
 11
34.99999999999999
 21
-185
  0
LINE
  5
25D
100
AcDbEntity
  8
Ligature_space
  6
ByLayer
 62
  256
370
   -1
100
AcDbLine
 10
29.99999999999999
 20
-195
 11
34.99999999999999
 21
-195
  0
LINE
  5
25E
100
AcDbEntity
  8
Ligature_space
  6
ByLayer
 62
  256
370
   -1
100
AcDbLine
 10
29.99999999999999
 20
-205
 11
34.99999999999999
 21
-205
  0
LINE
  5
25F
100
AcDbEntity
  8
Ligature_space
  6
ByLayer
 62
  256
370
   -1
100
AcDbLine
 10
29.99999999999999
 20
-215
 11
34.99999999999999
 21
-215
  0
LINE
  5
260
100
AcDbEntity
  8
character_limits
  6
ByLayer
 62
  256
370
   -1
100
AcDbLine
 10
34.99999999999999
 20
-250
 11
34.99999999999999
 21
-240
  0
LINE
  5
261
100
AcDbEntity
  8
character_limits
  6
ByLayer
 62
  256
370
   -1
100
AcDbLine
 10
34.99999999999999
 20
-240
 11
44.99999999999999
 21
-240
  0
LINE
  5
262
100
AcDbEntity
  8
character_limits
  6
ByLayer
 62
  256
370
   -1
100
AcDbLine
 10
44.99999999999999
 20
-240
 11
44.99999999999999
 21
-250
  0
LINE
  5
263
100
AcDbEntity
  8
character_limits
  6
ByLayer
 62
  256
370
   -1
100
AcDbLine
 10
44.99999999999999
 20
-250
 11
34.99999999999999
 21
-250
  0
LINE
  5
264
100
AcDbEntity
  8
character_limits
  6
ByLayer
 62
  256
370
   -1
100
AcDbLine
 10
34.99999999999999
 20
-240
 11
34.99999999999999
 21
-230
  0
LINE
  5
265
100
AcDbEntity
  8
character_limits
  6
ByLayer
 62
  256
370
   -1
100
AcDbLine
 10
34.99999999999999
 20
-230
 11
44.99999999999999
 21
-230
  0
LINE
  5
266
100
AcDbEntity
  8
character_limits
  6
ByLayer
 62
  256
370
   -1
100
AcDbLine
 10
44.99999999999999
 20
-230
 11
44.99999999999999
 21
-240
  0
LINE
  5
267
100
AcDbEntity
  8
character_limits
  6
ByLayer
 62
  256
370
   -1
100
AcDbLine
 10
34.99999999999999
 20
-230
 11
34.99999999999999
 21
-220
  0
LINE
  5
268
100
AcDbEntity
  8
character_limits
  6
ByLayer
 62
  256
370
   -1
100
AcDbLine
 10
34.99999999999999
 20
-220
 11
44.99999999999999
 21
-220
  0
LINE
  5
269
100
AcDbEntity
  8
character_limits
  6
ByLayer
 62
  256
370
   -1
100
AcDbLine
 10
44.99999999999999
 20
-220
 11
44.99999999999999
 21
-230
  0
LINE
  5
26A
100
AcDbEntity
  8
Ligature_space
  6
ByLayer
 62
  256
370
   -1
100
AcDbLine
 10
49.99999999999999
 20
-220
 11
49.99999999999999
 21
-230
  0
LINE
  5
26B
100
AcDbEntity
  8
Ligature_space
  6
ByLayer
 62
  256
370
   -1
100
AcDbLine
 10
49.99999999999999
 20
-230
 11
49.99999999999999
 21
-240
  0
LINE
  5
26C
100
AcDbEntity
  8
Ligature_space
  6
ByLayer
 62
  256
370
   -1
100
AcDbLine
 10
49.99999999999999
 20
-240
 11
49.99999999999999
 21
-250
  0
LINE
  5
26D
100
AcDbEntity
  8
Ligature_space
  6
ByLayer
 62
  256
370
   -1
100
AcDbLine
 10
49.99999999999999
 20
-220
 11
44.99999999999999
 21
-220
  0
LINE
  5
26E
100
AcDbEntity
  8
Ligature_space
  6
ByLayer
 62
  256
370
   -1
100
AcDbLine
 10
49.99999999999999
 20
-230
 11
44.99999999999999
 21
-230
  0
LINE
  5
26F
100
AcDbEntity
  8
Ligature_space
  6
ByLayer
 62
  256
370
   -1
100
AcDbLine
 10
49.99999999999999
 20
-240
 11
44.99999999999999
 21
-240
  0
LINE
  5
270
100
AcDbEntity
  8
Ligature_space
  6
ByLayer
 62
  256
370
   -1
100
AcDbLine
 10
49.99999999999999
 20
-250
 11
44.99999999999999
 21
-250
  0
LINE
  5
271
100
AcDbEntity
  8
Ligature_space
  6
ByLayer
 62
  256
370
   -1
100
AcDbLine
 10
29.99999999999999
 20
-220
 11
34.99999999999999
 21
-220
  0
LINE
  5
272
100
AcDbEntity
  8
Ligature_space
  6
ByLayer
 62
  256
370
   -1
100
AcDbLine
 10
29.99999999999999
 20
-230
 11
34.99999999999999
 21
-230
  0
LINE
  5
273
100
AcDbEntity
  8
Ligature_space
  6
ByLayer
 62
  256
370
   -1
100
AcDbLine
 10
29.99999999999999
 20
-240
 11
34.99999999999999
 21
-240
  0
LINE
  5
274
100
AcDbEntity
  8
Ligature_space
  6
ByLayer
 62
  256
370
   -1
100
AcDbLine
 10
29.99999999999999
 20
-250
 11
34.99999999999999
 21
-250
  0
LINE
  5
275
100
AcDbEntity
  8
character_limits
  6
ByLayer
 62
  256
370
   -1
100
AcDbLine
 10
34.99999999999999
 20
-285
 11
34.99999999999999
 21
-275
  0
LINE
  5
276
100
AcDbEntity
  8
character_limits
  6
ByLayer
 62
  256
370
   -1
100
AcDbLine
 10
34.99999999999999
 20
-275
 11
44.99999999999999
 21
-275
  0
LINE
  5
277
100
AcDbEntity
  8
character_limits
  6
ByLayer
 62
  256
370
   -1
100
AcDbLine
 10
44.99999999999999
 20
-275
 11
44.99999999999999
 21
-285
  0
LINE
  5
278
100
AcDbEntity
  8
character_limits
  6
ByLayer
 62
  256
370
   -1
100
AcDbLine
 10
44.99999999999999
 20
-285
 11
34.99999999999999
 21
-285
  0
LINE
  5
279
100
AcDbEntity
  8
character_limits
  6
ByLayer
 62
  256
370
   -1
100
AcDbLine
 10
34.99999999999999
 20
-275
 11
34.99999999999999
 21
-265
  0
LINE
  5
27A
100
AcDbEntity
  8
character_limits
  6
ByLayer
 62
  256
370
   -1
100
AcDbLine
 10
34.99999999999999
 20
-265
 11
44.99999999999999
 21
-265
  0
LINE
  5
27B
100
AcDbEntity
  8
character_limits
  6
ByLayer
 62
  256
370
   -1
100
AcDbLine
 10
44.99999999999999
 20
-265
 11
44.99999999999999
 21
-275
  0
LINE
  5
27C
100
AcDbEntity
  8
character_limits
  6
ByLayer
 62
  256
370
   -1
100
AcDbLine
 10
34.99999999999999
 20
-265
 11
34.99999999999999
 21
-255
  0
LINE
  5
27D
100
AcDbEntity
  8
character_limits
  6
ByLayer
 62
  256
370
   -1
100
AcDbLine
 10
34.99999999999999
 20
-255
 11
44.99999999999999
 21
-255
  0
LINE
  5
27E
100
AcDbEntity
  8
character_limits
  6
ByLayer
 62
  256
370
   -1
100
AcDbLine
 10
44.99999999999999
 20
-255
 11
44.99999999999999
 21
-265
  0
LINE
  5
27F
100
AcDbEntity
  8
Ligature_space
  6
ByLayer
 62
  256
370
   -1
100
AcDbLine
 10
49.99999999999999
 20
-255
 11
49.99999999999999
 21
-265
  0
LINE
  5
280
100
AcDbEntity
  8
Ligature_space
  6
ByLayer
 62
  256
370
   -1
100
AcDbLine
 10
49.99999999999999
 20
-265
 11
49.99999999999999
 21
-275
  0
LINE
  5
281
100
AcDbEntity
  8
Ligature_space
  6
ByLayer
 62
  256
370
   -1
100
AcDbLine
 10
49.99999999999999
 20
-275
 11
49.99999999999999
 21
-285
  0
LINE
  5
282
100
AcDbEntity
  8
Ligature_space
  6
ByLayer
 62
  256
370
   -1
100
AcDbLine
 10
49.99999999999999
 20
-255
 11
44.99999999999999
 21
-255
  0
LINE
  5
283
100
AcDbEntity
  8
Ligature_space
  6
ByLayer
 62
  256
370
   -1
100
AcDbLine
 10
49.99999999999999
 20
-265
 11
44.99999999999999
 21
-265
  0
LINE
  5
284
100
AcDbEntity
  8
Ligature_space
  6
ByLayer
 62
  256
370
   -1
100
AcDbLine
 10
49.99999999999999
 20
-275
 11
44.99999999999999
 21
-275
  0
LINE
  5
285
100
AcDbEntity
  8
Ligature_space
  6
ByLayer
 62
  256
370
   -1
100
AcDbLine
 10
49.99999999999999
 20
-285
 11
44.99999999999999
 21
-285
  0
LINE
  5
286
100
AcDbEntity
  8
Ligature_space
  6
ByLayer
 62
  256
370
   -1
100
AcDbLine
 10
29.99999999999999
 20
-255
 11
34.99999999999999
 21
-255
  0
LINE
  5
287
100
AcDbEntity
  8
Ligature_space
  6
ByLayer
 62
  256
370
   -1
100
AcDbLine
 10
29.99999999999999
 20
-265
 11
34.99999999999999
 21
-265
  0
LINE
  5
288
100
AcDbEntity
  8
Ligature_space
  6
ByLayer
 62
  256
370
   -1
100
AcDbLine
 10
29.99999999999999
 20
-275
 11
34.99999999999999
 21
-275
  0
LINE
  5
289
100
AcDbEntity
  8
Ligature_space
  6
ByLayer
 62
  256
370
   -1
100
AcDbLine
 10
29.99999999999999
 20
-285
 11
34.99999999999999
 21
-285
  0
LINE
  5
28A
100
AcDbEntity
  8
Ligature_space
  6
ByLayer
 62
  256
370
   -1
100
AcDbLine
 10
-10
 20
25
 11
-10
 21
15
  0
LINE
  5
28B
100
AcDbEntity
  8
Ligature_space
  6
ByLayer
 62
  256
370
   -1
100
AcDbLine
 10
-10
 20
15
 11
-10
 21
5.000000000000001
  0
LINE
  5
28C
100
AcDbEntity
  8
Ligature_space
  6
ByLayer
 62
  256
370
   -1
100
AcDbLine
 10
-10
 20
5.000000000000001
 11
-10
 21
-4.999999999999999
  0
LINE
  5
28D
100
AcDbEntity
  8
Ligature_space
  6
ByLayer
 62
  256
370
   -1
100
AcDbLine
 10
-10
 20
-10
 11
-10
 21
-20
  0
LINE
  5
28E
100
AcDbEntity
  8
Ligature_space
  6
ByLayer
 62
  256
370
   -1
100
AcDbLine
 10
-10
 20
-20
 11
-10
 21
-30
  0
LINE
  5
28F
100
AcDbEntity
  8
Ligature_space
  6
ByLayer
 62
  256
370
   -1
100
AcDbLine
 10
-10
 20
-30
 11
-10
 21
-40
  0
LINE
  5
290
100
AcDbEntity
  8
Ligature_space
  6
ByLayer
 62
  256
370
   -1
100
AcDbLine
 10
-10
 20
-45
 11
-10
 21
-55
  0
LINE
  5
291
100
AcDbEntity
  8
Ligature_space
  6
ByLayer
 62
  256
370
   -1
100
AcDbLine
 10
-10
 20
-55
 11
-10
 21
-65
  0
LINE
  5
292
100
AcDbEntity
  8
Ligature_space
  6
ByLayer
 62
  256
370
   -1
100
AcDbLine
 10
-10
 20
-65
 11
-10
 21
-75
  0
LINE
  5
293
100
AcDbEntity
  8
Ligature_space
  6
ByLayer
 62
  256
370
   -1
100
AcDbLine
 10
-10.00000000000001
 20
-80
 11
-10.00000000000001
 21
-90
  0
LINE
  5
294
100
AcDbEntity
  8
Ligature_space
  6
ByLayer
 62
  256
370
   -1
100
AcDbLine
 10
-10.00000000000001
 20
-90
 11
-10.00000000000001
 21
-100
  0
LINE
  5
295
100
AcDbEntity
  8
Ligature_space
  6
ByLayer
 62
  256
370
   -1
100
AcDbLine
 10
-10.00000000000001
 20
-100
 11
-10.00000000000001
 21
-110
  0
LINE
  5
296
100
AcDbEntity
  8
Ligature_space
  6
ByLayer
 62
  256
370
   -1
100
AcDbLine
 10
-10.00000000000001
 20
-115
 11
-10.00000000000001
 21
-125
  0
LINE
  5
297
100
AcDbEntity
  8
Ligature_space
  6
ByLayer
 62
  256
370
   -1
100
AcDbLine
 10
-10.00000000000001
 20
-125
 11
-10.00000000000001
 21
-135
  0
LINE
  5
298
100
AcDbEntity
  8
Ligature_space
  6
ByLayer
 62
  256
370
   -1
100
AcDbLine
 10
-10.00000000000001
 20
-135
 11
-10.00000000000001
 21
-145
  0
LINE
  5
299
100
AcDbEntity
  8
Ligature_space
  6
ByLayer
 62
  256
370
   -1
100
AcDbLine
 10
-10.00000000000001
 20
-150
 11
-10.00000000000001
 21
-160
  0
LINE
  5
29A
100
AcDbEntity
  8
Ligature_space
  6
ByLayer
 62
  256
370
   -1
100
AcDbLine
 10
-10.00000000000001
 20
-160
 11
-10.00000000000001
 21
-170
  0
LINE
  5
29B
100
AcDbEntity
  8
Ligature_space
  6
ByLayer
 62
  256
370
   -1
100
AcDbLine
 10
-10.00000000000001
 20
-170
 11
-10.00000000000001
 21
-180
  0
LINE
  5
29C
100
AcDbEntity
  8
Ligature_space
  6
ByLayer
 62
  256
370
   -1
100
AcDbLine
 10
-10.00000000000001
 20
-185
 11
-10.00000000000001
 21
-195
  0
LINE
  5
29D
100
AcDbEntity
  8
Ligature_space
  6
ByLayer
 62
  256
370
   -1
100
AcDbLine
 10
-10.00000000000001
 20
-195
 11
-10.00000000000001
 21
-205
  0
LINE
  5
29E
100
AcDbEntity
  8
Ligature_space
  6
ByLayer
 62
  256
370
   -1
100
AcDbLine
 10
-10.00000000000001
 20
-205
 11
-10.00000000000001
 21
-215
  0
LINE
  5
29F
100
AcDbEntity
  8
Ligature_space
  6
ByLayer
 62
  256
370
   -1
100
AcDbLine
 10
-10.00000000000001
 20
-220
 11
-10.00000000000001
 21
-230
  0
LINE
  5
2A0
100
AcDbEntity
  8
Ligature_space
  6
ByLayer
 62
  256
370
   -1
100
AcDbLine
 10
-10.00000000000001
 20
-230
 11
-10.00000000000001
 21
-240
  0
LINE
  5
2A1
100
AcDbEntity
  8
Ligature_space
  6
ByLayer
 62
  256
370
   -1
100
AcDbLine
 10
-10.00000000000001
 20
-240
 11
-10.00000000000001
 21
-250
  0
LINE
  5
2A2
100
AcDbEntity
  8
Ligature_space
  6
ByLayer
 62
  256
370
   -1
100
AcDbLine
 10
-10.00000000000001
 20
-255
 11
-10.00000000000001
 21
-265
  0
LINE
  5
2A3
100
AcDbEntity
  8
Ligature_space
  6
ByLayer
 62
  256
370
   -1
100
AcDbLine
 10
-10.00000000000001
 20
-265
 11
-10.00000000000001
 21
-275
  0
LINE
  5
2A4
100
AcDbEntity
  8
Ligature_space
  6
ByLayer
 62
  256
370
   -1
100
AcDbLine
 10
-10.00000000000001
 20
-275
 11
-10.00000000000001
 21
-285
  0
LINE
  5
2A5
100
AcDbEntity
  8
0
  6
ByLayer
 62
  256
370
   -1
100
AcDbLine
 10
-5
 20
25
 11
-5
 21
15
  0
LINE
  5
2A6
100
AcDbEntity
  8
0
  6
ByLayer
 62
  256
370
   -1
100
AcDbLine
 10
-5
 20
15
 11
5
 21
25
  0
LINE
  5
2A7
100
AcDbEntity
  8
0
  6
ByLayer
 62
  256
370
   -1
100
AcDbLine
 10
5
 20
25
 11
5
 21
5
  0
ARC
  5
2A8
100
AcDbEntity
  8
ligature_possibility
  6
ByLayer
 62
  256
370
   -1
100
AcDbCircle
 10
10
 20
10
 40
5
100
AcDbArc
 50
180
 51
270
  0
ARC
  5
2A9
100
AcDbEntity
  8
ligature_possibility
  6
ByLayer
 62
  256
370
   -1
100
AcDbCircle
 10
30
 20
10
 40
5
100
AcDbArc
 50
180
 51
270
  0
ARC
  5
2AA
100
AcDbEntity
  8
ligature_possibility
  6
ByLayer
 62
  256
370
   -1
100
AcDbCircle
 10
-10
 20
20
 40
5
100
AcDbArc
 50
360
 51
90
  0
ARC
  5
2AB
100
AcDbEntity
  8
ligature_possibility
  6
ByLayer
 62
  256
370
   -1
100
AcDbCircle
 10
50
 20
10
 40
5
100
AcDbArc
 50
180
 51
270
  0
LINE
  5
2AC
100
AcDbEntity
  8
0
  6
ByLayer
 62
  256
370
   -1
100
AcDbLine
 10
45
 20
25
 11
45
 21
5
  0
LINE
  5
2AD
100
AcDbEntity
  8
0
  6
ByLayer
 62
  256
370
   -1
100
AcDbLine
 10
35
 20
-45
 11
35
 21
-60
  0
LINE
  5
2AE
100
AcDbEntity
  8
0
  6
ByLayer
 62
  256
370
   -1
100
AcDbLine
 10
45
 20
-45
 11
45
 21
-60
  0
ARC
  5
2AF
100
AcDbEntity
  8
0
  6
ByLayer
 62
  256
370
   -1
100
AcDbCircle
 10
40
 20
-60
 40
5
100
AcDbArc
 50
180
 51
0
  0
ARC
  5
2B0
100
AcDbEntity
  8
ligature_possibility
  6
ByLayer
 62
  256
370
   -1
100
AcDbCircle
 10
30
 20
-50
 40
5
100
AcDbArc
 50
360
 51
90
  0
ARC
  5
2B1
100
AcDbEntity
  8
ligature_possibility
  6
ByLayer
 62
  256
370
   -1
100
AcDbCircle
 10
50
 20
-50
 40
5
100
AcDbArc
 50
90
 51
180
  0
MTEXT
  5
2B2
100
AcDbEntity
  8
Text
  6
ByLayer
 62
  256
370
   -1
100
AcDbMText
 10
40
 20
-70
 30
0
 40
1
 41
8.00000051428729
 71
    5
 72
    1
  1
I, like a\Pupside-down\PArmenian I
  7
standard
210
0
220
0
230
1
 50
0
 73
    2
 44
1
  0
LINE
  5
2B3
100
AcDbEntity
  8
0
  6
ByLayer
 62
  256
370
   -1
100
AcDbLine
 10
-4.999999400852289
 20
-80
 11
-4.999999400852289
 21
-95
  0
LINE
  5
2B4
100
AcDbEntity
  8
0
  6
ByLayer
 62
  256
370
   -1
100
AcDbLine
 10
5.000000599147711
 20
-80
 11
5.000000599147711
 21
-95
  0
ARC
  5
2B5
100
AcDbEntity
  8
0
  6
ByLayer
 62
  256
370
   -1
100
AcDbCircle
 10
5.991477110001142e-07
 20
-95
 40
5
100
AcDbArc
 50
180
 51
0
  0
ARC
  5
2B6
100
AcDbEntity
  8
ligature_possibility
  6
ByLayer
 62
  256
370
   -1
100
AcDbCircle
 10
-9.999999400852289
 20
-85
 40
5
100
AcDbArc
 50
360
 51
90
  0
ARC
  5
2B7
100
AcDbEntity
  8
ligature_possibility
  6
ByLayer
 62
  256
370
   -1
100
AcDbCircle
 10
10.00000059914771
 20
-85
 40
5
100
AcDbArc
 50
90
 51
180
  0
MTEXT
  5
2B8
100
AcDbEntity
  8
Text
  6
ByLayer
 62
  256
370
   -1
100
AcDbMText
 10
5.991477110001142e-07
 20
-105
 30
0
 40
5
 41
1.666666666666977
 71
    5
 72
    1
  1
J
  7
standard
210
0
220
0
230
1
 50
0
 73
    2
 44
1
  0
CIRCLE
  5
2B9
100
AcDbEntity
  8
0
  6
ByLayer
 62
  256
370
   -1
100
AcDbCircle
 10
5.991477110001142e-07
 20
-95
 40
1.25
  0
LINE
  5
2BA
100
AcDbEntity
  8
0
  6
ByLayer
 62
  256
370
   -1
100
AcDbLine
 10
37.5
 20
15
 11
40
 21
25
  0
LINE
  5
2BB
100
AcDbEntity
  8
0
  6
ByLayer
 62
  256
370
   -1
100
AcDbLine
 10
40
 20
25
 11
42.5
 21
15
  0
LINE
  5
2BC
100
AcDbEntity
  8
0
  6
ByLayer
 62
  256
370
   -1
100
AcDbLine
 10
42.5
 20
15
 11
45
 21
25
  0
LINE
  5
2BD
100
AcDbEntity
  8
ligature_possibility
  6
ByLayer
 62
  256
370
   -1
100
AcDbLine
 10
32.80776406404414
 20
25
 11
30
 21
25
  0
ARC
  5
2BE
100
AcDbEntity
  8
ligature_possibility
  6
ByLayer
 62
  256
370
   -1
100
AcDbCircle
 10
32.80776406404413
 20
22.19223593595581
 40
2.807764064044182
100
AcDbArc
 50
14.03624346792643
 51
89.99999999999986
  0
LINE
  5
2BF
100
AcDbEntity
  8
0
  6
ByLayer
 62
  256
370
   -1
100
AcDbLine
 10
35
 20
25.00000000000001
 11
37.5
 21
15
  0
LINE
  5
2C0
100
AcDbEntity
  8
0
  6
ByLayer
 62
  256
370
   -1
100
AcDbLine
 10
34.99999999999999
 20
-205
 11
34.99999999999999
 21
-185
  0
LINE
  5
2C1
100
AcDbEntity
  8
0
  6
ByLayer
 62
  256
370
   -1
100
AcDbLine
 10
34.99999999999999
 20
-185
 11
44.99999999999999
 21
-190
  0
LINE
  5
2C2
100
AcDbEntity
  8
0
  6
ByLayer
 62
  256
370
   -1
100
AcDbLine
 10
44.99999999999999
 20
-190
 11
34.99999999999999
 21
-195
  0
MTEXT
  5
2C3
100
AcDbEntity
  8
Text
  6
ByLayer
 62
  256
370
   -1
100
AcDbMText
 10
39.99999999999999
 20
-210
 30
0
 40
0.9
 41
8.700000725717041
 71
    5
 72
    1
  1
U, like\Pa Norsemitic\P(norse-semitic)\PVav
  7
standard
210
0
220
0
230
1
 50
0
 73
    2
 44
1
  0
MTEXT
  5
2C4
100
AcDbEntity
  8
Text
  6
ByLayer
 62
  256
370
   -1
100
AcDbMText
 10
-1.4210854715202e-14
 20
-245
 30
0
 40
0.9
 41
8.700000725717041
 71
    5
 72
    1
  1
V, like\Pa Norsemitic\P(norse-semitic)\PVav
  7
standard
210
0
220
0
230
1
 50
0
 73
    2
 44
1
  0
ARC
  5
2C5
100
AcDbEntity
  8
ligature_possibility
  6
ByLayer
 62
  256
370
   -1
100
AcDbCircle
 10
30.00000059914771
 20
-200
 40
5
100
AcDbArc
 50
270
 51
360
  0
CIRCLE
  5
2C6
100
AcDbEntity
  8
0
  6
ByLayer
 62
  256
370
   -1
100
AcDbCircle
 10
-1.909830056250553
 20
-225
 40
1.25
  0
MTEXT
  5
2C7
100
AcDbEntity
  8
Text
  6
ByLayer
 62
  256
370
   -1
100
AcDbMText
 10
5.991477163291847e-07
 20
0
 30
0
 40
5
 41
3.333333333333333
 71
    5
 72
    1
  1
A
  7
standard
210
0
220
0
230
1
 50
0
 73
    2
 44
1
  0
MTEXT
  5
2C8
100
AcDbEntity
  8
Text
  6
ByLayer
 62
  256
370
   -1
100
AcDbMText
 10
40.00000059914772
 20
0
 30
0
 40
5
 41
2.222222222222532
 71
    5
 72
    1
  1
C
  7
standard
210
0
220
0
230
1
 50
0
 73
    2
 44
1
  0
LINE
  5
2C9
100
AcDbEntity
  8
0
  6
ByLayer
 62
  256
370
   -1
100
AcDbLine
 10
34.99999999999999
 20
-255
 11
34.99999999999999
 21
-265
  0
LINE
  5
2CA
100
AcDbEntity
  8
0
  6
ByLayer
 62
  256
370
   -1
100
AcDbLine
 10
34.99999999999999
 20
-265
 11
39.99999999999999
 21
-255
  0
ARC
  5
2CB
100
AcDbEntity
  8
0
  6
ByLayer
 62
  256
370
   -1
100
AcDbCircle
 10
42.49999999999999
 20
-282.5
 40
2.5
100
AcDbArc
 50
180
 51
450
  0
ARC
  5
2CC
100
AcDbEntity
  8
0
  6
ByLayer
 62
  256
370
   -1
100
AcDbCircle
 10
37.49999999999999
 20
-282.5
 40
2.5
100
AcDbArc
 50
90
 51
0
  0
LINE
  5
2CD
100
AcDbEntity
  8
0
  6
ByLayer
 62
  256
370
   -1
100
AcDbLine
 10
40
 20
-255
 11
40.00000038241672
 21
-281.0355337475306
  0
LINE
  5
2CE
100
AcDbEntity
  8
0
  6
ByLayer
 62
  256
370
   -1
100
AcDbLine
 10
40.00000011200434
 20
-282.0710674950537
 11
39.99999999999577
 21
-282.4999999999958
  0
LINE
  5
2CF
100
AcDbEntity
  8
0
  6
ByLayer
 62
  256
370
   -1
100
AcDbLine
 10
34.99999999999999
 20
-270
 11
44.99999999999999
 21
-270
  0
MTEXT
  5
2D0
100
AcDbEntity
  8
Text
  6
ByLayer
 62
  256
370
   -1
100
AcDbMText
 10
42.50000003672065
 20
-260.0000000734413
 30
0
 40
0.8
 41
4.42222222222226
 71
    5
 72
    1
  1
End of\Pthe text
  7
standard
210
0
220
0
230
1
 50
0
 73
    2
 44
1
  0
ELLIPSE
  5
2D1
100
AcDbEntity
  8
0
  6
ByLayer
 62
  256
370
   -1
100
AcDbEllipse
 10
44.99999999999999
 20
-279
 30
0
 11
0
 21
4
 31
0
 40
0.2499999999999982
 41
7.549516567451064e-15
 42
1.570796326794897
  0
LINE
  5
2D2
100
AcDbEntity
  8
0
  6
ByLayer
 62
  256
370
   -1
100
AcDbLine
 10
42
 20
-271.5
 11
42
 21
-279
  0
LINE
  5
2D3
100
AcDbEntity
  8
0
  6
ByLayer
 62
  256
370
   -1
100
AcDbLine
 10
43
 20
-271.5
 11
43
 21
-279
  0
LINE
  5
2D4
100
AcDbEntity
  8
0
  6
ByLayer
 62
  256
370
   -1
100
AcDbLine
 10
44
 20
-271.5
 11
44
 21
-279
  0
LINE
  5
2D5
100
AcDbEntity
  8
0
  6
ByLayer
 62
  256
370
   -1
100
AcDbLine
 10
41
 20
-271.5
 11
41
 21
-272
  0
ARC
  5
2D6
100
AcDbEntity
  8
0
  6
ByLayer
 62
  256
370
   -1
100
AcDbCircle
 10
41.5
 20
-271.5
 40
0.5
100
AcDbArc
 50
0
 51
180
  0
ARC
  5
2D7
100
AcDbEntity
  8
0
  6
ByLayer
 62
  256
370
   -1
100
AcDbCircle
 10
42.5
 20
-271.5
 40
0.5
100
AcDbArc
 50
0
 51
180
  0
ARC
  5
2D8
100
AcDbEntity
  8
0
  6
ByLayer
 62
  256
370
   -1
100
AcDbCircle
 10
43.5
 20
-271.5
 40
0.5
100
AcDbArc
 50
0
 51
180
  0
LINE
  5
2D9
100
AcDbEntity
  8
0
  6
ByLayer
 62
  256
370
   -1
100
AcDbLine
 10
-7.105427357601002e-15
 20
-115
 11
-7.105427357601002e-15
 21
-135
  0
LINE
  5
2DA
100
AcDbEntity
  8
0
  6
ByLayer
 62
  256
370
   -1
100
AcDbLine
 10
-5.000000000000007
 20
-125
 11
-5.000000000000007
 21
-115
  0
LINE
  5
2DB
100
AcDbEntity
  8
0
  6
ByLayer
 62
  256
370
   -1
100
AcDbLine
 10
-5.000000000000007
 20
-115
 11
-2.500000000000007
 21
-125
  0
LINE
  5
2DC
100
AcDbEntity
  8
0
  6
ByLayer
 62
  256
370
   -1
100
AcDbLine
 10
-2.500000000000007
 20
-125
 11
-7.105427357601002e-15
 21
-115
  0
ARC
  5
2DD
100
AcDbEntity
  8
0
  6
ByLayer
 62
  256
370
   -1
100
AcDbCircle
 10
4.16666666666666
 20
-125.8333333333333
 40
0.8333333333333428
100
AcDbArc
 50
0
 51
180
  0
ARC
  5
2DE
100
AcDbEntity
  8
0
  6
ByLayer
 62
  256
370
   -1
100
AcDbCircle
 10
2.499999999999993
 20
-125.8333333333333
 40
0.8333333333333428
100
AcDbArc
 50
0
 51
180
  0
ARC
  5
2DF
100
AcDbEntity
  8
0
  6
ByLayer
 62
  256
370
   -1
100
AcDbCircle
 10
0.8333333333333264
 20
-125.8333333333333
 40
0.8333333333333428
100
AcDbArc
 50
0
 51
180
  0
ARC
  5
2E0
100
AcDbEntity
  8
ligature_possibility
  6
ByLayer
 62
  256
370
   -1
100
AcDbCircle
 10
9.999999999999993
 20
-130
 40
5
100
AcDbArc
 50
180
 51
270
  0
ARC
  5
2E1
100
AcDbEntity
  8
ligature_possibility
  6
ByLayer
 62
  256
370
   -1
100
AcDbCircle
 10
29.99999999999999
 20
-130
 40
5
100
AcDbArc
 50
180
 51
270
  0
LINE
  5
2E2
100
AcDbEntity
  8
0
  6
ByLayer
 62
  256
370
   -1
100
AcDbLine
 10
19.99999999999999
 20
-115
 11
19.99999999999999
 21
-135
  0
ARC
  5
2E3
100
AcDbEntity
  8
0
  6
ByLayer
 62
  256
370
   -1
100
AcDbCircle
 10
23.74999999999999
 20
-126.25
 40
1.250000000000014
100
AcDbArc
 50
6.615553737444115e-13
 51
179.9999999999994
  0
ARC
  5
2E4
100
AcDbEntity
  8
0
  6
ByLayer
 62
  256
370
   -1
100
AcDbCircle
 10
21.24999999999999
 20
-126.25
 40
1.250000000000014
100
AcDbArc
 50
6.615553737444115e-13
 51
179.9999999999994
  0
LINE
  5
2E5
100
AcDbEntity
  8
0
  6
ByLayer
 62
  256
370
   -1
100
AcDbLine
 10
14.99999999999999
 20
-115
 11
14.99999999999999
 21
-125
  0
LINE
  5
2E6
100
AcDbEntity
  8
0
  6
ByLayer
 62
  256
370
   -1
100
AcDbLine
 10
14.99999999999999
 20
-125
 11
19.99999999999999
 21
-115
  0
MTEXT
  5
2E7
100
AcDbEntity
  8
Text
  6
ByLayer
 62
  256
370
   -1
100
AcDbMText
 10
5.991477092237574e-07
 20
-140
 30
0
 40
5
 41
3.333333333333333
 71
    5
 72
    1
  1
M
  7
standard
210
0
220
0
230
1
 50
0
 73
    2
 44
1
  0
MTEXT
  5
2E8
100
AcDbEntity
  8
Text
  6
ByLayer
 62
  256
370
   -1
100
AcDbMText
 10
20.0000005991477
 20
-140
 30
0
 40
5
 41
2.777777777777778
 71
    5
 72
    1
  1
N
  7
standard
210
0
220
0
230
1
 50
0
 73
    2
 44
1
  0
ARC
  5
2E9
100
AcDbEntity
  8
ligature_possibility
  6
ByLayer
 62
  256
370
   -1
100
AcDbCircle
 10
-9.999999400852282
 20
-120
 40
5
100
AcDbArc
 50
270
 51
360
  0
ARC
  5
2EA
100
AcDbEntity
  8
ligature_possibility
  6
ByLayer
 62
  256
370
   -1
100
AcDbCircle
 10
9.999999999999989
 20
-120
 40
5
100
AcDbArc
 50
360
 51
90
  0
LINE
  5
2EB
100
AcDbEntity
  8
0
  6
ByLayer
 62
  256
370
   -1
100
AcDbLine
 10
3.333333333333336
 20
-125.8333340927836
 11
3.333333333333331
 21
-130
  0
LINE
  5
2EC
100
AcDbEntity
  8
0
  6
ByLayer
 62
  256
370
   -1
100
AcDbLine
 10
1.666666666666671
 20
-125.8333340199032
 11
1.666666666666666
 21
-130
  0
LINE
  5
2ED
100
AcDbEntity
  8
0
  6
ByLayer
 62
  256
370
   -1
100
AcDbLine
 10
22.5
 20
-126.25
 11
22.5
 21
-130
  0
ARC
  5
2EE
100
AcDbEntity
  8
ligature_possibility
  6
ByLayer
 62
  256
370
   -1
100
AcDbCircle
 10
29.99999999999999
 20
-95
 40
5
100
AcDbArc
 50
180
 51
270
  0
ARC
  5
2EF
100
AcDbEntity
  8
0
  6
ByLayer
 62
  256
370
   -1
100
AcDbCircle
 10
16.66666666666666
 20
-91.66666666666669
 40
1.666666666666686
100
AcDbArc
 50
359.9999999999995
 51
180
  0
ARC
  5
2F0
100
AcDbEntity
  8
0
  6
ByLayer
 62
  256
370
   -1
100
AcDbCircle
 10
19.99999999999999
 20
-91.66666666666669
 40
1.666666666666686
100
AcDbArc
 50
0
 51
180
  0
ARC
  5
2F1
100
AcDbEntity
  8
0
  6
ByLayer
 62
  256
370
   -1
100
AcDbCircle
 10
23.33333333333332
 20
-91.66666666666669
 40
1.666666666666686
100
AcDbArc
 50
0
 51
180
  0
LINE
  5
2F2
100
AcDbEntity
  8
0
  6
ByLayer
 62
  256
370
   -1
100
AcDbLine
 10
21.66666666666667
 20
-91.66666666666669
 11
21.66666666666667
 21
-95
  0
LINE
  5
2F3
100
AcDbEntity
  8
0
  6
ByLayer
 62
  256
370
   -1
100
AcDbLine
 10
18.33333333333335
 20
-91.6666666666667
 11
18.33333333333335
 21
-95
  0
ARC
  5
2F4
100
AcDbEntity
  8
0
  6
ByLayer
 62
  256
370
   -1
100
AcDbCircle
 10
16.66666666666667
 20
-98.3333333333333
 40
1.6666666666667
100
AcDbArc
 50
180.0000000000005
 51
269.9999999999998
  0
LINE
  5
2F5
100
AcDbEntity
  8
0
  6
ByLayer
 62
  256
370
   -1
100
AcDbLine
 10
14.99999999999998
 20
-91.66666666666669
 11
14.99999999999997
 21
-98.33333333333331
  0
MTEXT
  5
2F6
100
AcDbEntity
  8
Text
  6
ByLayer
 62
  256
370
   -1
100
AcDbMText
 10
20.00000059914772
 20
-105
 30
0
 40
5
 41
2.777777777777778
 71
    5
 72
    1
  1
K
  7
standard
210
0
220
0
230
1
 50
0
 73
    2
 44
1
  0
LINE
  5
2F7
100
AcDbEntity
  8
0
  6
ByLayer
 62
  256
370
   -1
100
AcDbLine
 10
16.66666666666666
 20
-100
 11
18.33333333333335
 21
-100
  0
LINE
  5
2F8
100
AcDbEntity
  8
0
  6
ByLayer
 62
  256
370
   -1
100
AcDbLine
 10
25
 20
5
 11
25
 21
25
  0
LINE
  5
2F9
100
AcDbEntity
  8
0
  6
ByLayer
 62
  256
370
   -1
100
AcDbLine
 10
25
 20
25
 11
15
 21
20
  0
LINE
  5
2FA
100
AcDbEntity
  8
0
  6
ByLayer
 62
  256
370
   -1
100
AcDbLine
 10
15
 20
20
 11
25
 21
15
  0
MTEXT
  5
2FB
100
AcDbEntity
  8
Text
  6
ByLayer
 62
  256
370
   -1
100
AcDbMText
 10
20.00000059914772
 20
0
 30
0
 40
1
 41
8.194444444444629
 71
    5
 72
    1
  1
B, like a\Pupside-down\PPhoenician B
  7
standard
210
0
220
0
230
1
 50
0
 73
    2
 44
1
  0
ARC
  5
2FC
100
AcDbEntity
  8
ligature_possibility
  6
ByLayer
 62
  256
370
   -1
100
AcDbCircle
 10
-9.999999400852277
 20
-15
 40
5
100
AcDbArc
 50
270
 51
360
  0
ARC
  5
2FD
100
AcDbEntity
  8
0
  6
ByLayer
 62
  256
370
   -1
100
AcDbCircle
 10
-3.333333333333335
 20
-11.66666666666667
 40
1.666666666666666
100
AcDbArc
 50
359.9999999999999
 51
180
  0
ARC
  5
2FE
100
AcDbEntity
  8
0
  6
ByLayer
 62
  256
370
   -1
100
AcDbCircle
 10
-2.664535259100376e-15
 20
-11.66666666666667
 40
1.666666666666668
100
AcDbArc
 50
0
 51
180
  0
ARC
  5
2FF
100
AcDbEntity
  8
0
  6
ByLayer
 62
  256
370
   -1
100
AcDbCircle
 10
3.333333333333331
 20
-11.66666666666667
 40
1.666666666666668
100
AcDbArc
 50
5.088887490341627e-14
 51
180
  0
LINE
  5
300
100
AcDbEntity
  8
0
  6
ByLayer
 62
  256
370
   -1
100
AcDbLine
 10
-1.666666666666669
 20
-11.66666666666667
 11
-1.666666666666669
 21
-20
  0
LINE
  5
301
100
AcDbEntity
  8
0
  6
ByLayer
 62
  256
370
   -1
100
AcDbLine
 10
1.666666666666665
 20
-11.66666666666667
 11
1.666666666666665
 21
-20
  0
LINE
  5
302
100
AcDbEntity
  8
0
  6
ByLayer
 62
  256
370
   -1
100
AcDbLine
 10
4.999999999999999
 20
-11.66666666666667
 11
4.999999999999998
 21
-30
  0
ARC
  5
303
100
AcDbEntity
  8
ligature_possibility
  6
ByLayer
 62
  256
370
   -1
100
AcDbCircle
 10
9.999999999999998
 20
-25
 40
5
100
AcDbArc
 50
180
 51
270
  0
ARC
  5
304
100
AcDbEntity
  8
ligature_possibility
  6
ByLayer
 62
  256
370
   -1
100
AcDbCircle
 10
30
 20
-25.00000000000001
 40
5
100
AcDbArc
 50
180
 51
270
  0
MTEXT
  5
305
100
AcDbEntity
  8
Text
  6
ByLayer
 62
  256
370
   -1
100
AcDbMText
 10
5.991477145528279e-07
 20
-35
 30
0
 40
5
 41
2.777777777778088
 71
    5
 72
    1
  1
D
  7
standard
210
0
220
0
230
1
 50
0
 73
    2
 44
1
  0
MTEXT
  5
306
100
AcDbEntity
  8
Text
  6
ByLayer
 62
  256
370
   -1
100
AcDbMText
 10
20.00000059914771
 20
-35
 30
0
 40
5
 41
2.222222222222222
 71
    5
 72
    1
  1
E
  7
standard
210
0
220
0
230
1
 50
0
 73
    2
 44
1
  0
ARC
  5
307
100
AcDbEntity
  8
ligature_possibility
  6
ByLayer
 62
  256
370
   -1
100
AcDbCircle
 10
10.00000059914772
 20
-15
 40
5
100
AcDbArc
 50
270
 51
360
  0
ARC
  5
308
100
AcDbEntity
  8
0
  6
ByLayer
 62
  256
370
   -1
100
AcDbCircle
 10
17.5
 20
-12.5
 40
2.500000000000004
100
AcDbArc
 50
359.9999975814538
 51
180
  0
ARC
  5
309
100
AcDbEntity
  8
0
  6
ByLayer
 62
  256
370
   -1
100
AcDbCircle
 10
22.5
 20
-12.50000000000001
 40
2.500000000000007
100
AcDbArc
 50
359.9999951629079
 51
180.000002418546
  0
LINE
  5
30A
100
AcDbEntity
  8
0
  6
ByLayer
 62
  256
370
   -1
100
AcDbLine
 10
20
 20
-12.50000010552899
 11
20
 21
-20
  0
LINE
  5
30B
100
AcDbEntity
  8
0
  6
ByLayer
 62
  256
370
   -1
100
AcDbLine
 10
-5.000000000000001
 20
-11.66666666666667
 11
-5.000000000000002
 21
-20
  0
LINE
  5
30C
100
AcDbEntity
  8
0
  6
ByLayer
 62
  256
370
   -1
100
AcDbLine
 10
15
 20
-12.5
 11
15
 21
-20
  0
ELLIPSE
  5
30D
100
AcDbEntity
  8
0
  6
ByLayer
 62
  256
370
   -1
100
AcDbEllipse
 10
20
 20
-20
 30
0
 11
0
 21
-9.999999999999996
 31
0
 40
0.5000000000000006
 41
4.440892098500626e-16
 42
1.570796326794897
  0
LINE
  5
30E
100
AcDbEntity
  8
0
  6
ByLayer
 62
  256
370
   -1
100
AcDbLine
 10
25
 20
-12.49999978894205
 11
25
 21
-30
  0
LINE
  5
30F
100
AcDbEntity
  8
0
  6
ByLayer
 62
  256
370
   -1
100
AcDbLine
 10
35
 20
-30
 11
45
 21
-20
  0
LINE
  5
310
100
AcDbEntity
  8
0
  6
ByLayer
 62
  256
370
   -1
100
AcDbLine
 10
40
 20
-10
 11
38.75
 21
-20
  0
LINE
  5
311
100
AcDbEntity
  8
0
  6
ByLayer
 62
  256
370
   -1
100
AcDbLine
 10
38.75
 20
-20
 11
37.5
 21
-9.999999999999998
  0
LINE
  5
312
100
AcDbEntity
  8
0
  6
ByLayer
 62
  256
370
   -1
100
AcDbLine
 10
37.5
 20
-9.999999999999998
 11
36.25
 21
-20
  0
LINE
  5
313
100
AcDbEntity
  8
0
  6
ByLayer
 62
  256
370
   -1
100
AcDbLine
 10
36.25
 20
-20
 11
35
 21
-10
  0
LINE
  5
314
100
AcDbEntity
  8
0
  6
ByLayer
 62
  256
370
   -1
100
AcDbLine
 10
40
 20
-10
 11
40
 21
-30
  0
MTEXT
  5
315
100
AcDbEntity
  8
Text
  6
ByLayer
 62
  256
370
   -1
100
AcDbMText
 10
40.00000059914771
 20
-35
 30
0
 40
5
 41
2.222222222222222
 71
    5
 72
    1
  1
F
  7
standard
210
0
220
0
230
1
 50
0
 73
    2
 44
1
  0
ARC
  5
316
100
AcDbEntity
  8
ligature_possibility
  6
ByLayer
 62
  256
370
   -1
100
AcDbCircle
 10
33.53553390593277
 20
-26.46446609406723
 40
3.535533905932766
100
AcDbArc
 50
270
 51
314.9999999999999
  0
LINE
  5
317
100
AcDbEntity
  8
ligature_possibility
  6
ByLayer
 62
  256
370
   -1
100
AcDbLine
 10
30
 20
-30
 11
33.53553390593277
 21
-30
  0
ARC
  5
318
100
AcDbEntity
  8
ligature_possibility
  6
ByLayer
 62
  256
370
   -1
100
AcDbCircle
 10
46.46446609406723
 20
-23.53553390593277
 40
3.535533905932766
100
AcDbArc
 50
90
 51
134.9999999999999
  0
LINE
  5
319
100
AcDbEntity
  8
ligature_possibility
  6
ByLayer
 62
  256
370
   -1
100
AcDbLine
 10
50
 20
-20
 11
46.46446609406723
 21
-20
  0
LINE
  5
31A
100
AcDbEntity
  8
ligature_possibility
  6
ByLayer
 62
  256
370
   -1
100
AcDbLine
 10
30
 20
-10
 11
32.6556443707463
 21
-10
  0
ARC
  5
31B
100
AcDbEntity
  8
ligature_possibility
  6
ByLayer
 62
  256
370
   -1
100
AcDbCircle
 10
32.65564437074631
 20
-12.65564437074631
 40
2.655644370746309
100
AcDbArc
 50
7.125016348901838
 51
90.00000000000016
  0
LINE
  5
31C
100
AcDbEntity
  8
0
  6
ByLayer
 62
  256
370
   -1
100
AcDbLine
 10
15
 20
-65
 11
25
 21
-55
  0
LINE
  5
31D
100
AcDbEntity
  8
0
  6
ByLayer
 62
  256
370
   -1
100
AcDbLine
 10
20
 20
-45
 11
20
 21
-65
  0
ARC
  5
31E
100
AcDbEntity
  8
ligature_possibility
  6
ByLayer
 62
  256
370
   -1
100
AcDbCircle
 10
13.53553390593277
 20
-61.46446609406723
 40
3.535533905932766
100
AcDbArc
 50
270
 51
314.9999999999999
  0
LINE
  5
31F
100
AcDbEntity
  8
ligature_possibility
  6
ByLayer
 62
  256
370
   -1
100
AcDbLine
 10
10
 20
-65
 11
13.53553390593277
 21
-65
  0
ARC
  5
320
100
AcDbEntity
  8
ligature_possibility
  6
ByLayer
 62
  256
370
   -1
100
AcDbCircle
 10
26.46446609406723
 20
-58.53553390593277
 40
3.535533905932766
100
AcDbArc
 50
90
 51
134.9999999999999
  0
LINE
  5
321
100
AcDbEntity
  8
ligature_possibility
  6
ByLayer
 62
  256
370
   -1
100
AcDbLine
 10
30
 20
-55
 11
26.46446609406723
 21
-55
  0
ARC
  5
322
100
AcDbEntity
  8
ligature_possibility
  6
ByLayer
 62
  256
370
   -1
100
AcDbCircle
 10
9.999999999999996
 20
-50
 40
5
100
AcDbArc
 50
360
 51
90
  0
LINE
  5
323
100
AcDbEntity
  8
0
  6
ByLayer
 62
  256
370
   -1
100
AcDbLine
 10
15
 20
-45
 11
15
 21
-55
  0
LINE
  5
324
100
AcDbEntity
  8
0
  6
ByLayer
 62
  256
370
   -1
100
AcDbLine
 10
15
 20
-55
 11
20
 21
-45
  0
MTEXT
  5
325
100
AcDbEntity
  8
Text
  6
ByLayer
 62
  256
370
   -1
100
AcDbMText
 10
20.00000059914771
 20
-70
 30
0
 40
5
 41
2.777777777777778
 71
    5
 72
    1
  1
H
  7
standard
210
0
220
0
230
1
 50
0
 73
    2
 44
1
  0
ARC
  5
326
100
AcDbEntity
  8
ligature_possibility
  6
ByLayer
 62
  256
370
   -1
100
AcDbCircle
 10
-10.00000000000001
 20
-50
 40
5
100
AcDbArc
 50
360
 51
90
  0
LINE
  5
327
100
AcDbEntity
  8
0
  6
ByLayer
 62
  256
370
   -1
100
AcDbLine
 10
-5.000000000000004
 20
-55
 11
-3.552713678800501e-15
 21
-45
  0
ARC
  5
328
100
AcDbEntity
  8
ligature_possibility
  6
ByLayer
 62
  256
370
   -1
100
AcDbCircle
 10
10
 20
-50
 40
5
100
AcDbArc
 50
90
 51
180
  0
ARC
  5
329
100
AcDbEntity
  8
0
  6
ByLayer
 62
  256
370
   -1
100
AcDbCircle
 10
2.499999999999997
 20
-62.49999999999998
 40
2.500000000000021
100
AcDbArc
 50
180.0000000000001
 51
1.526666247102488e-13
  0
LINE
  5
32A
100
AcDbEntity
  8
0
  6
ByLayer
 62
  256
370
   -1
100
AcDbLine
 10
-3.552713678800501e-15
 20
-45
 11
-2.398081733190338e-14
 21
-62.49999999999998
  0
LINE
  5
32B
100
AcDbEntity
  8
0
  6
ByLayer
 62
  256
370
   -1
100
AcDbLine
 10
5.000000000000019
 20
-62.49999999999997
 11
4.999999999999996
 21
-45
  0
LINE
  5
32C
100
AcDbEntity
  8
0
  6
ByLayer
 62
  256
370
   -1
100
AcDbLine
 10
-5.000000000000004
 20
-45
 11
-5.000000000000004
 21
-55
  0
MTEXT
  5
32D
100
AcDbEntity
  8
Text
  6
ByLayer
 62
  256
370
   -1
100
AcDbMText
 10
5.991477110001142e-07
 20
-70
 30
0
 40
5
 41
2.777777777778088
 71
    5
 72
    1
  1
G
  7
standard
210
0
220
0
230
1
 50
0
 73
    2
 44
1
  0
MTEXT
  5
32E
100
AcDbEntity
  8
Text
  6
ByLayer
 62
  256
370
   -1
100
AcDbMText
 10
40.00000059914773
 20
-105
 30
0
 40
5
 41
2.222222222222222
 71
    5
 72
    1
  1
L
  7
standard
210
0
220
0
230
1
 50
0
 73
    2
 44
1
  0
ARC
  5
32F
100
AcDbEntity
  8
0
  6
ByLayer
 62
  256
370
   -1
100
AcDbCircle
 10
36.66666666666666
 20
-81.66666666666669
 40
1.666666666666686
100
AcDbArc
 50
9.66888623164909e-13
 51
90
  0
ARC
  5
330
100
AcDbEntity
  8
0
  6
ByLayer
 62
  256
370
   -1
100
AcDbCircle
 10
43.33333333333333
 20
-98.33333333333331
 40
1.666666666666686
100
AcDbArc
 50
269.9999999999998
 51
0
  0
LINE
  5
331
100
AcDbEntity
  8
ligature_possibility
  6
ByLayer
 62
  256
370
   -1
100
AcDbLine
 10
29.99999999999999
 20
-80
 11
34.99999999999999
 21
-80
  0
LINE
  5
332
100
AcDbEntity
  8
ligature_possibility
  6
ByLayer
 62
  256
370
   -1
100
AcDbLine
 10
43.33333333333333
 20
-100
 11
49.99999999999999
 21
-100
  0
LINE
  5
333
100
AcDbEntity
  8
0
  6
ByLayer
 62
  256
370
   -1
100
AcDbLine
 10
34.99999999999999
 20
-80
 11
36.66666666666666
 21
-80
  0
ARC
  5
334
100
AcDbEntity
  8
0
  6
ByLayer
 62
  256
370
   -1
100
AcDbCircle
 10
40.00000000000001
 20
-98.33333333333331
 40
1.666666666666686
100
AcDbArc
 50
180
 51
270.0000000000002
  0
LINE
  5
335
100
AcDbEntity
  8
0
  6
ByLayer
 62
  256
370
   -1
100
AcDbLine
 10
43.33333333333333
 20
-100
 11
40.00000000000002
 21
-100
  0
LINE
  5
336
100
AcDbEntity
  8
0
  6
ByLayer
 62
  256
370
   -1
100
AcDbLine
 10
38.33333333333334
 20
-81.66666666666666
 11
38.33333333333333
 21
-98.33333333333331
  0
ARC
  5
337
100
AcDbEntity
  8
0
  6
ByLayer
 62
  256
370
   -1
100
AcDbCircle
 10
37.49999999999999
 20
-117.5
 40
2.500000000000028
100
AcDbArc
 50
0
 51
180.0000000000003
  0
LINE
  5
338
100
AcDbEntity
  8
0
  6
ByLayer
 62
  256
370
   -1
100
AcDbLine
 10
34.99999999999996
 20
-117.5
 11
34.99999999999999
 21
-125
  0
ELLIPSE
  5
339
100
AcDbEntity
  8
ligature_possibility
  6
ByLayer
 62
  256
370
   -1
100
AcDbEllipse
 10
29.99999999999999
 20
-125
 30
0
 11
0
 21
10
 31
0
 40
0.5000000000000003
 41
4.71238898038469
 42
6.283185307179586
  0
MTEXT
  5
33A
100
AcDbEntity
  8
Text
  6
ByLayer
 62
  256
370
   -1
100
AcDbMText
 10
40.0000005991477
 20
-140
 30
0
 40
5
 41
2.777777777777778
 71
    5
 72
    1
  1
O
  7
standard
210
0
220
0
230
1
 50
0
 73
    2
 44
1
  0
MTEXT
  5
33B
100
AcDbEntity
  8
Text
  6
ByLayer
 62
  256
370
   -1
100
AcDbMText
 10
5.991477092237574e-07
 20
-175
 30
0
 40
5
 41
2.777777777777778
 71
    5
 72
    1
  1
P
  7
standard
210
0
220
0
230
1
 50
0
 73
    2
 44
1
  0
MTEXT
  5
33C
100
AcDbEntity
  8
Text
  6
ByLayer
 62
  256
370
   -1
100
AcDbMText
 10
20.0000005991477
 20
-175
 30
0
 40
5
 41
3.333333333333333
 71
    5
 72
    1
  1
Q
  7
standard
210
0
220
0
230
1
 50
0
 73
    2
 44
1
  0
MTEXT
  5
33D
100
AcDbEntity
  8
Text
  6
ByLayer
 62
  256
370
   -1
100
AcDbMText
 10
40.0000005991477
 20
-175
 30
0
 40
5
 41
2.777777777777778
 71
    5
 72
    1
  1
R
  7
standard
210
0
220
0
230
1
 50
0
 73
    2
 44
1
  0
ARC
  5
33E
100
AcDbEntity
  8
0
  6
ByLayer
 62
  256
370
   -1
100
AcDbCircle
 10
17.49999999999999
 20
-152.5
 40
2.500000000000028
100
AcDbArc
 50
0
 51
270
  0
LINE
  5
33F
100
AcDbEntity
  8
0
  6
ByLayer
 62
  256
370
   -1
100
AcDbLine
 10
17.49999999999999
 20
-155.0000000000001
 11
19.99999999999999
 21
-155
  0
LINE
  5
340
100
AcDbEntity
  8
0
  6
ByLayer
 62
  256
370
   -1
100
AcDbLine
 10
20.00000000000002
 20
-152.5
 11
19.99999999999999
 21
-170
  0
LINE
  5
341
100
AcDbEntity
  8
0
  6
ByLayer
 62
  256
370
   -1
100
AcDbLine
 10
20
 20
-165
 11
24.99999999999999
 21
-165
  0
ARC
  5
342
100
AcDbEntity
  8
ligature_possibility
  6
ByLayer
 62
  256
370
   -1
100
AcDbCircle
 10
24.99999999999999
 20
-167.5
 40
2.5
100
AcDbArc
 50
0
 51
90
  0
ARC
  5
343
100
AcDbEntity
  8
ligature_possibility
  6
ByLayer
 62
  256
370
   -1
100
AcDbCircle
 10
29.99999999999999
 20
-167.5
 40
2.5
100
AcDbArc
 50
180
 51
270
  0
ARC
  5
344
100
AcDbEntity
  8
0
  6
ByLayer
 62
  256
370
   -1
100
AcDbCircle
 10
-2.500000000000007
 20
-152.5
 40
2.500000000000028
100
AcDbArc
 50
0
 51
180.0000000000003
  0
ARC
  5
345
100
AcDbEntity
  8
0
  6
ByLayer
 62
  256
370
   -1
100
AcDbCircle
 10
2.499999999999993
 20
-152.5
 40
2.500000000000028
100
AcDbArc
 50
0
 51
180
  0
LINE
  5
346
100
AcDbEntity
  8
0
  6
ByLayer
 62
  256
370
   -1
100
AcDbLine
 10
-5.000000000000036
 20
-152.5000000000001
 11
-5.000000000000007
 21
-160
  0
ELLIPSE
  5
347
100
AcDbEntity
  8
ligature_possibility
  6
ByLayer
 62
  256
370
   -1
100
AcDbEllipse
 10
-10.00000000000001
 20
-160
 30
0
 11
0
 21
10
 31
0
 40
0.5000000000000003
 41
4.71238898038469
 42
6.283185307179586
  0
LINE
  5
348
100
AcDbEntity
  8
0
  6
ByLayer
 62
  256
370
   -1
100
AcDbLine
 10
-3.552713678800501e-14
 20
-152.5
 11
-8.881784197001252e-15
 21
-160
  0
ELLIPSE
  5
349
100
AcDbEntity
  8
0
  6
ByLayer
 62
  256
370
   -1
100
AcDbEllipse
 10
-8.881784197001252e-15
 20
-160
 30
0
 11
1.77635683940025e-15
 21
-10
 31
0
 40
0.5
 41
2.220446049250313e-15
 42
1.570796326794897
  0
LINE
  5
34A
100
AcDbEntity
  8
0
  6
ByLayer
 62
  256
370
   -1
100
AcDbLine
 10
5.000000000000021
 20
-152.5
 11
4.999999999999991
 21
-160
  0
LINE
  5
34B
100
AcDbEntity
  8
0
  6
ByLayer
 62
  256
370
   -1
100
AcDbLine
 10
-1.06581410364015e-14
 20
-165
 11
4.999999999999991
 21
-170
  0
ARC
  5
34C
100
AcDbEntity
  8
ligature_possibility
  6
ByLayer
 62
  256
370
   -1
100
AcDbCircle
 10
6.464466094067266
 20
-166.4644660940673
 40
3.535533905932692
100
AcDbArc
 50
225.0000000000001
 51
270.0000000000001
  0
LINE
  5
34D
100
AcDbEntity
  8
ligature_possibility
  6
ByLayer
 62
  256
370
   -1
100
AcDbLine
 10
6.464466094067271
 20
-170
 11
9.999999999999991
 21
-170
  0
ELLIPSE
  5
34E
100
AcDbEntity
  8
ligature_possibility
  6
ByLayer
 62
  256
370
   -1
100
AcDbEllipse
 10
9.999999999999986
 20
-265
 30
0
 11
0
 21
10
 31
0
 40
0.5000000000000003
 41
4.71238898038469
 42
6.283185307179586
  0
ARC
  5
34F
100
AcDbEntity
  8
0
  6
ByLayer
 62
  256
370
   -1
100
AcDbCircle
 10
23.33333333333332
 20
-266.6666666666667
 40
1.666666666666686
100
AcDbArc
 50
1.959221683781526e-12
 51
179.999999999998
  0
ARC
  5
350
100
AcDbEntity
  8
0
  6
ByLayer
 62
  256
370
   -1
100
AcDbCircle
 10
16.66666666666666
 20
-256.6666666666667
 40
1.666666666666686
100
AcDbArc
 50
0
 51
180
  0
ARC
  5
351
100
AcDbEntity
  8
0
  6
ByLayer
 62
  256
370
   -1
100
AcDbCircle
 10
19.99999999999999
 20
-256.6666666666667
 40
1.666666666666686
100
AcDbArc
 50
0
 51
180
  0
LINE
  5
352
100
AcDbEntity
  8
0
  6
ByLayer
 62
  256
370
   -1
100
AcDbLine
 10
14.99999999999997
 20
-256.6666666666667
 11
14.99999999999999
 21
-265
  0
LINE
  5
353
100
AcDbEntity
  8
0
  6
ByLayer
 62
  256
370
   -1
100
AcDbLine
 10
18.3333333333333
 20
-256.6666666666667
 11
18.33333333333332
 21
-275
  0
LINE
  5
354
100
AcDbEntity
  8
0
  6
ByLayer
 62
  256
370
   -1
100
AcDbLine
 10
21.66666666666667
 20
-256.6666666666667
 11
21.66666666666661
 21
-275
  0
LINE
  5
355
100
AcDbEntity
  8
0
  6
ByLayer
 62
  256
370
   -1
100
AcDbLine
 10
25.00000000000001
 20
-266.6666666666666
 11
24.99999999999999
 21
-275
  0
ARC
  5
356
100
AcDbEntity
  8
ligature_possibility
  6
ByLayer
 62
  256
370
   -1
100
AcDbCircle
 10
29.99999999999999
 20
-270
 40
5
100
AcDbArc
 50
180
 51
270
  0
MTEXT
  5
357
100
AcDbEntity
  8
Text
  6
ByLayer
 62
  256
370
   -1
100
AcDbMText
 10
20.0000005991477
 20
-280
 30
0
 40
5
 41
2.777777777777778
 71
    5
 72
    1
  1
Z
  7
standard
210
0
220
0
230
1
 50
0
 73
    2
 44
1
  0
ELLIPSE
  5
358
100
AcDbEntity
  8
ligature_possibility
  6
ByLayer
 62
  256
370
   -1
100
AcDbEllipse
 10
-10.00000000000001
 20
-265
 30
0
 11
0
 21
10
 31
0
 40
0.5000000000000003
 41
4.71238898038469
 42
6.283185307179586
  0
ARC
  5
359
100
AcDbEntity
  8
ligature_possibility
  6
ByLayer
 62
  256
370
   -1
100
AcDbCircle
 10
9.999999999999986
 20
-270
 40
5
100
AcDbArc
 50
180
 51
270
  0
ARC
  5
35A
100
AcDbEntity
  8
0
  6
ByLayer
 62
  256
370
   -1
100
AcDbCircle
 10
-3.750000000000014
 20
-256.25
 40
1.25
100
AcDbArc
 50
0
 51
180
  0
ARC
  5
35B
100
AcDbEntity
  8
0
  6
ByLayer
 62
  256
370
   -1
100
AcDbCircle
 10
-1.250000000000014
 20
-256.25
 40
1.25
100
AcDbArc
 50
0
 51
180
  0
LINE
  5
35C
100
AcDbEntity
  8
0
  6
ByLayer
 62
  256
370
   -1
100
AcDbLine
 10
-2.500000000000014
 20
-256.25
 11
-2.500000000000014
 21
-265
  0
LINE
  5
35D
100
AcDbEntity
  8
0
  6
ByLayer
 62
  256
370
   -1
100
AcDbLine
 10
-1.4210854715202e-14
 20
-256.25
 11
-1.4210854715202e-14
 21
-275
  0
LINE
  5
35E
100
AcDbEntity
  8
0
  6
ByLayer
 62
  256
370
   -1
100
AcDbLine
 10
-5.000000000000014
 20
-256.25
 11
-5.000000000000014
 21
-265
  0
ARC
  5
35F
100
AcDbEntity
  8
0
  6
ByLayer
 62
  256
370
   -1
100
AcDbCircle
 10
0.8333333333333193
 20
-265.8333333333333
 40
0.8333333333333144
100
AcDbArc
 50
359.9999999999961
 51
180
  0
ARC
  5
360
100
AcDbEntity
  8
0
  6
ByLayer
 62
  256
370
   -1
100
AcDbCircle
 10
2.499999999999986
 20
-265.8333333333333
 40
0.8333333333333144
100
AcDbArc
 50
359.9999999999961
 51
180.0000000000039
  0
ARC
  5
361
100
AcDbEntity
  8
0
  6
ByLayer
 62
  256
370
   -1
100
AcDbCircle
 10
4.166666666666652
 20
-265.8333333333333
 40
0.8333333333333144
100
AcDbArc
 50
0
 51
180.0000000000039
  0
LINE
  5
362
100
AcDbEntity
  8
0
  6
ByLayer
 62
  256
370
   -1
100
AcDbLine
 10
4.999999999999966
 20
-265.8333333333333
 11
4.999999999999986
 21
-275
  0
LINE
  5
363
100
AcDbEntity
  8
0
  6
ByLayer
 62
  256
370
   -1
100
AcDbLine
 10
1.666666666666653
 20
-265.8333333333333
 11
1.666666666666653
 21
-275
  0
LINE
  5
364
100
AcDbEntity
  8
0
  6
ByLayer
 62
  256
370
   -1
100
AcDbLine
 10
3.333333333333319
 20
-265.8333333333333
 11
3.333333333333319
 21
-275
  0
MTEXT
  5
365
100
AcDbEntity
  8
Text
  6
ByLayer
 62
  256
370
   -1
100
AcDbMText
 10
5.991476967892595e-07
 20
-280
 30
0
 40
5
 41
3.333333333333333
 71
    5
 72
    1
  1
Y
  7
standard
210
0
220
0
230
1
 50
0
 73
    2
 44
1
  0
MTEXT
  5
366
100
AcDbEntity
  8
Text
  6
ByLayer
 62
  256
370
   -1
100
AcDbMText
 10
40.0000005991477
 20
-245
 30
0
 40
5
 41
3.333333333333333
 71
    5
 72
    1
  1
X
  7
standard
210
0
220
0
230
1
 50
0
 73
    2
 44
1
  0
ELLIPSE
  5
367
100
AcDbEntity
  8
ligature_possibility
  6
ByLayer
 62
  256
370
   -1
100
AcDbEllipse
 10
29.99999999999999
 20
-230
 30
0
 11
0
 21
10
 31
0
 40
0.5000000000000003
 41
4.71238898038469
 42
6.283185307179586
  0
ELLIPSE
  5
368
100
AcDbEntity
  8
ligature_possibility
  6
ByLayer
 62
  256
370
   -1
100
AcDbEllipse
 10
50
 20
-230
 30
0
 11
0
 21
10
 31
0
 40
0.5000000000000003
 41
1.332267629550188e-15
 42
1.570796326794897
  0
ARC
  5
369
100
AcDbEntity
  8
0
  6
ByLayer
 62
  256
370
   -1
100
AcDbCircle
 10
36.24999999999999
 20
-221.25
 40
1.25
100
AcDbArc
 50
0
 51
180
  0
ARC
  5
36A
100
AcDbEntity
  8
0
  6
ByLayer
 62
  256
370
   -1
100
AcDbCircle
 10
41.24999999999999
 20
-221.25
 40
1.25
100
AcDbArc
 50
0
 51
180
  0
ARC
  5
36B
100
AcDbEntity
  8
0
  6
ByLayer
 62
  256
370
   -1
100
AcDbCircle
 10
43.74999999999999
 20
-221.25
 40
1.25
100
AcDbArc
 50
0
 51
180
  0
LINE
  5
36C
100
AcDbEntity
  8
0
  6
ByLayer
 62
  256
370
   -1
100
AcDbLine
 10
34.99999999999999
 20
-221.25
 11
34.99999999999999
 21
-230
  0
LINE
  5
36D
100
AcDbEntity
  8
0
  6
ByLayer
 62
  256
370
   -1
100
AcDbLine
 10
44.99999999999999
 20
-221.25
 11
44.99999999999999
 21
-230
  0
ARC
  5
36E
100
AcDbEntity
  8
0
  6
ByLayer
 62
  256
370
   -1
100
AcDbCircle
 10
38.74999999999999
 20
-238.75
 40
1.25
100
AcDbArc
 50
180
 51
0
  0
LINE
  5
36F
100
AcDbEntity
  8
0
  6
ByLayer
 62
  256
370
   -1
100
AcDbLine
 10
37.49999999999999
 20
-238.75
 11
37.49999999999999
 21
-230
  0
LINE
  5
370
100
AcDbEntity
  8
0
  6
ByLayer
 62
  256
370
   -1
100
AcDbLine
 10
39.99999999999999
 20
-238.75
 11
39.99999999999999
 21
-230
  0
LINE
  5
371
100
AcDbEntity
  8
0
  6
ByLayer
 62
  256
370
   -1
100
AcDbLine
 10
37.49999999999999
 20
-230
 11
37.49999999999999
 21
-221.25
  0
LINE
  5
372
100
AcDbEntity
  8
0
  6
ByLayer
 62
  256
370
   -1
100
AcDbLine
 10
39.99999999999999
 20
-230
 11
39.99999999999999
 21
-221.25
  0
LINE
  5
373
100
AcDbEntity
  8
0
  6
ByLayer
 62
  256
370
   -1
100
AcDbLine
 10
42.49999999999999
 20
-230
 11
42.49999999999999
 21
-221.25
  0
MTEXT
  5
374
100
AcDbEntity
  8
Text
  6
ByLayer
 62
  256
370
   -1
100
AcDbMText
 10
5.991477092237574e-07
 20
-210
 30
0
 40
5
 41
2.777776717767031
 71
    5
 72
    1
  1
S
  7
standard
210
0
220
0
230
1
 50
0
 73
    2
 44
1
  0
MTEXT
  5
375
100
AcDbEntity
  8
Text
  6
ByLayer
 62
  256
370
   -1
100
AcDbMText
 10
20.0000005991477
 20
-210
 30
0
 40
5
 41
2.777777777777778
 71
    5
 72
    1
  1
T
  7
standard
210
0
220
0
230
1
 50
0
 73
    2
 44
1
  0
ELLIPSE
  5
376
100
AcDbEntity
  8
ligature_possibility
  6
ByLayer
 62
  256
370
   -1
100
AcDbEllipse
 10
9.999999999999989
 20
-195
 30
0
 11
0
 21
10
 31
0
 40
0.5000000000000003
 41
4.71238898038469
 42
6.283185307179586
  0
ARC
  5
377
100
AcDbEntity
  8
ligature_possibility
  6
ByLayer
 62
  256
370
   -1
100
AcDbCircle
 10
29.99999999999999
 20
-200
 40
5
100
AcDbArc
 50
180
 51
270
  0
LINE
  5
378
100
AcDbEntity
  8
0
  6
ByLayer
 62
  256
370
   -1
100
AcDbLine
 10
14.99999999999999
 20
-195
 11
14.99999999999996
 21
-187.5
  0
LINE
  5
379
100
AcDbEntity
  8
0
  6
ByLayer
 62
  256
370
   -1
100
AcDbLine
 10
25.00000000000002
 20
-197.5
 11
24.99999999999999
 21
-205
  0
ARC
  5
37A
100
AcDbEntity
  8
0
  6
ByLayer
 62
  256
370
   -1
100
AcDbCircle
 10
17.49999999999999
 20
-187.5
 40
2.500000000000028
100
AcDbArc
 50
359.9999999999993
 51
180
  0
ARC
  5
37B
100
AcDbEntity
  8
0
  6
ByLayer
 62
  256
370
   -1
100
AcDbCircle
 10
22.49999999999999
 20
-197.5
 40
2.500000000000028
100
AcDbArc
 50
6.615553737444115e-13
 51
180
  0
LINE
  5
37C
100
AcDbEntity
  8
0
  6
ByLayer
 62
  256
370
   -1
100
AcDbLine
 10
19.99999999999999
 20
-187.5
 11
19.99999999999999
 21
-205
  0
ELLIPSE
  5
37D
100
AcDbEntity
  8
0
  6
ByLayer
 62
  256
370
   -1
100
AcDbEllipse
 10
-4.700170902383808e-14
 20
-201.6666666666667
 30
0
 11
-5
 21
6.123233995736766e-16
 31
0
 40
0.6666666666666685
 41
5.759585597167886
 42
3.665192363601492
  0
LINE
  5
37E
100
AcDbEntity
  8
0
  6
ByLayer
 62
  256
370
   -1
100
AcDbLine
 10
-4.330124682886846
 20
-199.9999973025816
 11
4.330124682886789
 21
-190.0000026974184
  0
ELLIPSE
  5
37F
100
AcDbEntity
  8
0
  6
ByLayer
 62
  256
370
   -1
100
AcDbEllipse
 10
-1.06581410364015e-14
 20
-188.3333333333333
 30
0
 11
5
 21
0
 31
0
 40
0.6666666666666685
 41
5.759585597167886
 42
3.141592653589793
  0
LINE
  5
380
100
AcDbEntity
  8
0
  6
ByLayer
 62
  256
370
   -1
100
AcDbLine
 10
4.330124682886756
 20
-199.9999973025816
 11
-2.886751345946465
 21
-191.6666666666667
  0
LINE
  5
381
100
AcDbEntity
  8
0
  6
ByLayer
 62
  256
370
   -1
100
AcDbLine
 10
-5.000000000000012
 20
-188.3333333333333
 11
-5.000000000000012
 21
-191.6666666666667
  0
ELLIPSE
  5
382
100
AcDbEntity
  8
ligature_possibility
  6
ByLayer
 62
  256
370
   -1
100
AcDbEllipse
 10
-10.00000000000001
 20
-191.6666666666667
 30
0
 11
0
 21
6.666666666666657
 31
0
 40
0.7500000000000009
 41
4.71238898038469
 42
8.881784197001252e-16
  0
ARC
  5
383
100
AcDbEntity
  8
ligature_possibility
  6
ByLayer
 62
  256
370
   -1
100
AcDbCircle
 10
49.99999999999999
 20
-165
 40
5
100
AcDbArc
 50
180
 51
270
  0
ARC
  5
384
100
AcDbEntity
  8
0
  6
ByLayer
 62
  256
370
   -1
100
AcDbCircle
 10
37.49999999999999
 20
-152.5
 40
2.500000000000028
100
AcDbArc
 50
0
 51
180.0000000000003
  0
ARC
  5
385
100
AcDbEntity
  8
0
  6
ByLayer
 62
  256
370
   -1
100
AcDbCircle
 10
42.49999999999999
 20
-152.5
 40
2.500000000000028
100
AcDbArc
 50
0
 51
180
  0
ELLIPSE
  5
386
100
AcDbEntity
  8
ligature_possibility
  6
ByLayer
 62
  256
370
   -1
100
AcDbEllipse
 10
29.99999999999999
 20
-160
 30
0
 11
0
 21
10
 31
0
 40
0.5000000000000003
 41
4.71238898038469
 42
6.283185307179586
  0
LINE
  5
387
100
AcDbEntity
  8
0
  6
ByLayer
 62
  256
370
   -1
100
AcDbLine
 10
40.00000000000002
 20
-152.5
 11
40.00000000000002
 21
-160
  0
LINE
  5
388
100
AcDbEntity
  8
0
  6
ByLayer
 62
  256
370
   -1
100
AcDbLine
 10
34.99999999999996
 20
-152.5
 11
34.99999999999999
 21
-160
  0
LINE
  5
389
100
AcDbEntity
  8
0
  6
ByLayer
 62
  256
370
   -1
100
AcDbLine
 10
45.00000000000002
 20
-152.5
 11
44.99999999999999
 21
-170
  0
LINE
  5
38A
100
AcDbEntity
  8
0
  6
ByLayer
 62
  256
370
   -1
100
AcDbLine
 10
40.00000000000002
 20
-117.5
 11
40.00000000000002
 21
-125
  0
ARC
  5
38B
100
AcDbEntity
  8
0
  6
ByLayer
 62
  256
370
   -1
100
AcDbCircle
 10
42.50000000000001
 20
-117.5
 40
2.499999999999986
100
AcDbArc
 50
0
 51
180
  0
LINE
  5
38C
100
AcDbEntity
  8
0
  6
ByLayer
 62
  256
370
   -1
100
AcDbLine
 10
24.99999999999999
 20
-126.2499988147125
 11
24.99999999999999
 21
-135
  0
LINE
  5
38D
100
AcDbEntity
  8
0
  6
ByLayer
 62
  256
370
   -1
100
AcDbLine
 10
24.99999999999999
 20
-100
 11
24.99999999999999
 21
-91.66666724265789
  0
LINE
  5
38E
100
AcDbEntity
  8
0
  6
ByLayer
 62
  256
370
   -1
100
AcDbLine
 10
4.999999999999993
 20
-125.8333323998199
 11
4.999999999999993
 21
-135
  0
LINE
  5
38F
100
AcDbEntity
  8
ligature_possibility
  6
ByLayer
 62
  256
370
   -1
100
AcDbLine
 10
49.99999999999999
 20
-145
 11
44.99999999999999
 21
-145
  0
LINE
  5
390
100
AcDbEntity
  8
0
  6
ByLayer
 62
  256
370
   -1
100
AcDbLine
 10
38.6157863169456
 20
-133.5640356138424
 11
44.62807122768481
 21
-123.8119881287192
  0
ARC
  5
391
100
AcDbEntity
  8
0
  6
ByLayer
 62
  256
370
   -1
100
AcDbCircle
 10
44.99999999999999
 20
-137.5
 40
7.5
100
AcDbArc
 50
148.3455545123071
 51
270.0000000000001
  0
ARC
  5
392
100
AcDbEntity
  8
0
  6
ByLayer
 62
  256
370
   -1
100
AcDbCircle
 10
42.50000000000001
 20
-122.5
 40
2.500000000000014
100
AcDbArc
 50
328.3454869618848
 51
3.053332494204976e-13
  0
LINE
  5
393
100
AcDbEntity
  8
0
  6
ByLayer
 62
  256
370
   -1
100
AcDbLine
 10
45
 20
-122.499997492546
 11
44.99999999999999
 21
-117.5000022651598
  0
LINE
  5
394
100
AcDbEntity
  8
0
  6
ByLayer
 62
  256
370
   -1
100
AcDbLine
 10
-5.000000000000025
 20
-220
 11
4.999999999999975
 21
-225
  0
LINE
  5
395
100
AcDbEntity
  8
0
  6
ByLayer
 62
  256
370
   -1
100
AcDbLine
 10
4.999999999999975
 20
-225
 11
-5.000000000000025
 21
-230
  0
MTEXT
  5
396
100
AcDbEntity
  8
Text
  6
ByLayer
 62
  256
370
   -1
100
AcDbMText
 10
20
 20
-245
 30
0
 40
0.8
 41
8.777777777777853
 71
    5
 72
    1
  1
W, like a double\PNorsemitic\P(norse-semitic)\PVav
  7
standard
210
0
220
0
230
1
 50
0
 73
    2
 44
1
  0
LINE
  5
397
100
AcDbEntity
  8
0
  6
ByLayer
 62
  256
370
   -1
100
AcDbLine
 10
14.99999999999999
 20
-240
 11
14.99999999999999
 21
-220
  0
ARC
  5
398
100
AcDbEntity
  8
ligature_possibility
  6
ByLayer
 62
  256
370
   -1
100
AcDbCircle
 10
10.00000059914771
 20
-235
 40
5
100
AcDbArc
 50
270
 51
360
  0
LINE
  5
399
100
AcDbEntity
  8
0
  6
ByLayer
 62
  256
370
   -1
100
AcDbLine
 10
-5.000000000000025
 20
-220
 11
-5.000000000000012
 21
-240
  0
LINE
  5
39A
100
AcDbEntity
  8
Text
  6
ByLayer
 62
  256
370
   -1
100
AcDbLine
 10
18.74999999999999
 20
-220
 11
18.74999999999999
 21
-240
  0
LINE
  5
39B
100
AcDbEntity
  8
0
  6
ByLayer
 62
  256
370
   -1
100
AcDbLine
 10
18.74999999999999
 20
-220
 11
18.74999999999999
 21
-240
  0
LINE
  5
39C
100
AcDbEntity
  8
0
  6
ByLayer
 62
  256
370
   -1
100
AcDbLine
 10
18.74999999999999
 20
-220
 11
24.99999999999999
 21
-225
  0
LINE
  5
39D
100
AcDbEntity
  8
0
  6
ByLayer
 62
  256
370
   -1
100
AcDbLine
 10
24.99999999999999
 20
-225
 11
18.74999999999999
 21
-230
  0
LINE
  5
39E
100
AcDbEntity
  8
0
  6
ByLayer
 62
  256
370
   -1
100
AcDbLine
 10
14.99999999999999
 20
-220
 11
21.24999999999999
 21
-225
  0
LINE
  5
39F
100
AcDbEntity
  8
0
  6
ByLayer
 62
  256
370
   -1
100
AcDbLine
 10
21.24999999999999
 20
-225
 11
14.99999999999999
 21
-230
  0
MTEXT
  5
3A0
100
AcDbEntity
  8
Text
  6
ByLayer
 62
  256
370
   -1
100
AcDbMText
 10
20
 20
-305
 30
0
 40
5
 41
57.91666666666831
 71
    5
 72
    1
  1
Theban Alphabet,\Pby Felipe Lohan\PPinheiro da Silva
  7
standard
210
0
220
0
230
1
 50
0
 73
    2
 44
1
  0
LINE
  5
3A1
100
AcDbEntity
  8
Text
  6
ByLayer
 62
  256
370
   -1
100
AcDbLine
 10
-10.00000000000001
 20
-290
 11
-10.00000000000001
 21
-320
  0
LINE
  5
3A2
100
AcDbEntity
  8
Text
  6
ByLayer
 62
  256
370
   -1
100
AcDbLine
 10
-10.00000000000001
 20
-320
 11
49.99999999999999
 21
-320
  0
LINE
  5
3A3
100
AcDbEntity
  8
Text
  6
ByLayer
 62
  256
370
   -1
100
AcDbLine
 10
49.99999999999999
 20
-320
 11
49.99999999999999
 21
-290
  0
LINE
  5
3A4
100
AcDbEntity
  8
Text
  6
ByLayer
 62
  256
370
   -1
100
AcDbLine
 10
49.99999999999999
 20
-290
 11
-10.00000000000001
 21
-290
  0
ENDSEC
  0
SECTION
  2
OBJECTS
  0
DICTIONARY
  5
C
330
0
100
AcDbDictionary
281
    1
  3
ACAD_GROUP
350
D
  0
DICTIONARY
  5
D
330
C
100
AcDbDictionary
281
    1
  0
ENDSEC
  0
EOF
